%TF.GenerationSoftware,KiCad,Pcbnew,8.0.0*%
%TF.CreationDate,2024-03-05T15:16:44+01:00*%
%TF.ProjectId,pcb723,70636237-3233-42e6-9b69-6361645f7063,rev?*%
%TF.SameCoordinates,PX55d4a80PY2625a00*%
%TF.FileFunction,Copper,L2,Inr*%
%TF.FilePolarity,Positive*%
%FSLAX46Y46*%
G04 Gerber Fmt 4.6, Leading zero omitted, Abs format (unit mm)*
G04 Created by KiCad (PCBNEW 8.0.0) date 2024-03-05 15:16:44*
%MOMM*%
%LPD*%
G01*
G04 APERTURE LIST*
%TA.AperFunction,ComponentPad*%
%ADD10R,1.700000X1.700000*%
%TD*%
%TA.AperFunction,ComponentPad*%
%ADD11O,1.700000X1.700000*%
%TD*%
%TA.AperFunction,ComponentPad*%
%ADD12C,3.000000*%
%TD*%
%TA.AperFunction,ComponentPad*%
%ADD13C,0.800000*%
%TD*%
%TA.AperFunction,ComponentPad*%
%ADD14C,6.400000*%
%TD*%
%TA.AperFunction,ComponentPad*%
%ADD15O,2.100000X1.000000*%
%TD*%
%TA.AperFunction,ComponentPad*%
%ADD16O,1.800000X1.000000*%
%TD*%
%TA.AperFunction,ViaPad*%
%ADD17C,0.700000*%
%TD*%
G04 APERTURE END LIST*
D10*
%TO.N,/PA9*%
%TO.C,J6*%
X66300000Y-31690000D03*
D11*
%TO.N,/PA10*%
X63760000Y-31690000D03*
%TO.N,/PC9*%
X66300000Y-34230000D03*
%TO.N,/PA8*%
X63760000Y-34230000D03*
%TO.N,/PC7*%
X66300000Y-36770000D03*
%TO.N,/PC8*%
X63760000Y-36770000D03*
%TO.N,/PG8*%
X66300000Y-39310000D03*
%TO.N,/PC6*%
X63760000Y-39310000D03*
%TO.N,/PG6*%
X66300000Y-41850000D03*
%TO.N,/PG7*%
X63760000Y-41850000D03*
%TO.N,/PG4*%
X66300000Y-44390000D03*
%TO.N,/PG5*%
X63760000Y-44390000D03*
%TO.N,/PG2*%
X66300000Y-46930000D03*
%TO.N,/PG3*%
X63760000Y-46930000D03*
%TO.N,/PD14*%
X66300000Y-49470000D03*
%TO.N,/PD15*%
X63760000Y-49470000D03*
%TO.N,/PD12*%
X66300000Y-52010000D03*
%TO.N,/PD13*%
X63760000Y-52010000D03*
%TO.N,/PD10*%
X66300000Y-54550000D03*
%TO.N,/PD11*%
X63760000Y-54550000D03*
%TO.N,/PD8*%
X66300000Y-57090000D03*
%TO.N,/PD9*%
X63760000Y-57090000D03*
%TO.N,/PB14*%
X66300000Y-59630000D03*
%TO.N,/PB15*%
X63760000Y-59630000D03*
%TO.N,/PB12*%
X66300000Y-62170000D03*
%TO.N,/PB13*%
X63760000Y-62170000D03*
%TD*%
D10*
%TO.N,/PDR_ON*%
%TO.C,J2*%
X16900000Y-4610000D03*
D11*
%TO.N,Net-(J2-Pin_2)*%
X16900000Y-7150000D03*
%TD*%
D10*
%TO.N,GND*%
%TO.C,J11*%
X84000000Y-47000000D03*
D11*
X84000000Y-49540000D03*
X84000000Y-52080000D03*
X84000000Y-54620000D03*
X84000000Y-57160000D03*
%TD*%
D10*
%TO.N,/PC10*%
%TO.C,J9*%
X49600000Y-17760000D03*
D11*
%TO.N,/PC11*%
X49600000Y-15220000D03*
%TO.N,/PC12*%
X47060000Y-17760000D03*
%TO.N,/PD0*%
X47060000Y-15220000D03*
%TO.N,/PD1*%
X44520000Y-17760000D03*
%TO.N,/PD2*%
X44520000Y-15220000D03*
%TO.N,/PD3*%
X41980000Y-17760000D03*
%TO.N,/PD4*%
X41980000Y-15220000D03*
%TO.N,/PD5*%
X39440000Y-17760000D03*
%TO.N,/PD6*%
X39440000Y-15220000D03*
%TO.N,/PG9*%
X36900000Y-17760000D03*
%TO.N,/PD7*%
X36900000Y-15220000D03*
%TO.N,/PG11*%
X34360000Y-17760000D03*
%TO.N,/PG10*%
X34360000Y-15220000D03*
%TO.N,/PG13*%
X31820000Y-17760000D03*
%TO.N,/PG12*%
X31820000Y-15220000D03*
%TO.N,/PG15*%
X29280000Y-17760000D03*
%TO.N,/PG14*%
X29280000Y-15220000D03*
%TO.N,/PB5*%
X26740000Y-17760000D03*
%TO.N,/PB4(NJTRST)*%
X26740000Y-15220000D03*
%TO.N,/PB9*%
X24200000Y-17760000D03*
%TO.N,/PB8*%
X24200000Y-15220000D03*
%TO.N,/PE1*%
X21660000Y-17760000D03*
%TO.N,/PE0*%
X21660000Y-15220000D03*
%TD*%
D10*
%TO.N,/PA4*%
%TO.C,J7*%
X17120000Y-60400000D03*
D11*
%TO.N,/PA3*%
X17120000Y-62940000D03*
%TO.N,/PA5*%
X19660000Y-60400000D03*
%TO.N,/PA6*%
X19660000Y-62940000D03*
%TO.N,/PA7*%
X22200000Y-60400000D03*
%TO.N,/PC4*%
X22200000Y-62940000D03*
%TO.N,/PC5*%
X24740000Y-60400000D03*
%TO.N,/PB0*%
X24740000Y-62940000D03*
%TO.N,/PB1*%
X27280000Y-60400000D03*
%TO.N,/PB2*%
X27280000Y-62940000D03*
%TO.N,/PF11*%
X29820000Y-60400000D03*
%TO.N,/PF12*%
X29820000Y-62940000D03*
%TO.N,/PF13*%
X32360000Y-60400000D03*
%TO.N,/PF14*%
X32360000Y-62940000D03*
%TO.N,/PF15*%
X34900000Y-60400000D03*
%TO.N,/PG0*%
X34900000Y-62940000D03*
%TO.N,/PG1*%
X37440000Y-60400000D03*
%TO.N,/PE7*%
X37440000Y-62940000D03*
%TO.N,/PE8*%
X39980000Y-60400000D03*
%TO.N,/PE9*%
X39980000Y-62940000D03*
%TO.N,/PE11*%
X42520000Y-60400000D03*
%TO.N,/PE10*%
X42520000Y-62940000D03*
%TO.N,/PE13*%
X45060000Y-60400000D03*
%TO.N,/PE12*%
X45060000Y-62940000D03*
%TO.N,/PE15*%
X47600000Y-60400000D03*
%TO.N,/PE14*%
X47600000Y-62940000D03*
%TO.N,/PB10*%
X50140000Y-60400000D03*
%TO.N,/PB11*%
X50140000Y-62940000D03*
%TD*%
D12*
%TO.N,/T_JRCLK*%
%TO.C,TP1*%
X69500000Y-4840000D03*
%TD*%
D10*
%TO.N,Net-(J1-Pin_1)*%
%TO.C,J1*%
X25190000Y-4610000D03*
D11*
%TO.N,/BOOT0*%
X25190000Y-7150000D03*
%TD*%
D10*
%TO.N,+5V*%
%TO.C,J4*%
X77590000Y-24595000D03*
D11*
X77590000Y-22055000D03*
X75050000Y-24595000D03*
X75050000Y-22055000D03*
%TD*%
D13*
%TO.N,GND*%
%TO.C,H3*%
X3600000Y-64000000D03*
X4302944Y-62302944D03*
X4302944Y-65697056D03*
X6000000Y-61600000D03*
D14*
X6000000Y-64000000D03*
D13*
X6000000Y-66400000D03*
X7697056Y-62302944D03*
X7697056Y-65697056D03*
X8400000Y-64000000D03*
%TD*%
D10*
%TO.N,/PE2*%
%TO.C,J8*%
X8500000Y-20590000D03*
D11*
%TO.N,/PE3*%
X5960000Y-20590000D03*
%TO.N,/PE4*%
X8500000Y-23130000D03*
%TO.N,/PE5*%
X5960000Y-23130000D03*
%TO.N,/PE6*%
X8500000Y-25670000D03*
%TO.N,/PC13*%
X5960000Y-25670000D03*
%TO.N,/PC14*%
X8500000Y-28210000D03*
%TO.N,/PC15*%
X5960000Y-28210000D03*
%TO.N,/PF0*%
X8500000Y-30750000D03*
%TO.N,/PF1*%
X5960000Y-30750000D03*
%TO.N,/PF2*%
X8500000Y-33290000D03*
%TO.N,/PF3*%
X5960000Y-33290000D03*
%TO.N,/PF5*%
X8500000Y-35830000D03*
%TO.N,/PF4*%
X5960000Y-35830000D03*
%TO.N,/PF6*%
X8500000Y-38370000D03*
%TO.N,/PF7*%
X5960000Y-38370000D03*
%TO.N,/PF9*%
X8500000Y-40910000D03*
%TO.N,/PF8*%
X5960000Y-40910000D03*
%TO.N,/PC0*%
X8500000Y-43450000D03*
%TO.N,/PF10*%
X5960000Y-43450000D03*
%TO.N,/PC2_C*%
X8500000Y-45990000D03*
%TO.N,/PC1*%
X5960000Y-45990000D03*
%TO.N,/PA0*%
X8500000Y-48530000D03*
%TO.N,/PC3_C*%
X5960000Y-48530000D03*
%TO.N,/PA2*%
X8500000Y-51070000D03*
%TO.N,/PA1*%
X5960000Y-51070000D03*
%TD*%
D15*
%TO.N,Net-(J5-SHIELD)*%
%TO.C,J5*%
X83130000Y-23040000D03*
D16*
X87310000Y-23040000D03*
D15*
X83130000Y-14400000D03*
D16*
X87310000Y-14400000D03*
%TD*%
D13*
%TO.N,GND*%
%TO.C,H2*%
X81600000Y-6000000D03*
X82302944Y-4302944D03*
X82302944Y-7697056D03*
X84000000Y-3600000D03*
D14*
X84000000Y-6000000D03*
D13*
X84000000Y-8400000D03*
X85697056Y-4302944D03*
X85697056Y-7697056D03*
X86400000Y-6000000D03*
%TD*%
%TO.N,GND*%
%TO.C,H1*%
X3600000Y-6000000D03*
X4302944Y-4302944D03*
X4302944Y-7697056D03*
X6000000Y-3600000D03*
D14*
X6000000Y-6000000D03*
D13*
X6000000Y-8400000D03*
X7697056Y-4302944D03*
X7697056Y-7697056D03*
X8400000Y-6000000D03*
%TD*%
%TO.N,GND*%
%TO.C,H4*%
X81600000Y-64000000D03*
X82302944Y-62302944D03*
X82302944Y-65697056D03*
X84000000Y-61600000D03*
D14*
X84000000Y-64000000D03*
D13*
X84000000Y-66400000D03*
X85697056Y-62302944D03*
X85697056Y-65697056D03*
X86400000Y-64000000D03*
%TD*%
D10*
%TO.N,+3V3*%
%TO.C,J10*%
X75000000Y-47000000D03*
D11*
X75000000Y-49540000D03*
X75000000Y-52080000D03*
X75000000Y-54620000D03*
X75000000Y-57160000D03*
%TD*%
D17*
%TO.N,/T_NRST*%
X59850000Y-13850000D03*
X59850000Y-15900000D03*
X52200000Y-3570000D03*
X29900000Y-41400000D03*
%TO.N,+5V*%
X79500000Y-16320000D03*
%TO.N,/PDR_ON*%
X28587500Y-29800000D03*
%TO.N,/BOOT0*%
X31350000Y-26300000D03*
%TO.N,+3V3*%
X40820000Y-52280000D03*
X35820000Y-52280000D03*
X28087500Y-25270000D03*
X80622500Y-11990000D03*
X50460000Y-36270000D03*
X22390000Y-46230000D03*
X34360000Y-25270000D03*
X86200000Y-40100000D03*
X23970000Y-31460000D03*
X23390000Y-38230000D03*
X49190000Y-6310000D03*
X62870000Y-8650000D03*
X22005000Y-52990000D03*
X39360000Y-25270000D03*
X50460000Y-41770000D03*
X82700000Y-41200000D03*
X20620000Y-3590000D03*
X46770000Y-50500000D03*
X48800000Y-28100000D03*
X29325000Y-52190000D03*
X86200000Y-41200000D03*
X12380000Y-3590000D03*
X23516398Y-43386398D03*
X82700000Y-40100000D03*
%TO.N,GND*%
X47220000Y-53320000D03*
X22390000Y-47190000D03*
X50460000Y-42730000D03*
X14190000Y-47210000D03*
X73600000Y-30400000D03*
X23490000Y-42370000D03*
X14370000Y-35030000D03*
X49700003Y-28100000D03*
X13820000Y-42650000D03*
X70410000Y-11990000D03*
X34860000Y-52280000D03*
X49180000Y-4920000D03*
X27350000Y-51225000D03*
X80800000Y-21970000D03*
X65350000Y-3570000D03*
X87600000Y-28100000D03*
X20830000Y-6130000D03*
X84432500Y-44000000D03*
X13560000Y-9220000D03*
X17310000Y-20970000D03*
X84800000Y-28100000D03*
X47730000Y-50600000D03*
X26120000Y-26290000D03*
X23070387Y-31486459D03*
X31340000Y-3750000D03*
X39860000Y-52280000D03*
X23390000Y-37270000D03*
X50460000Y-37230000D03*
X40320000Y-25270000D03*
X50700000Y-27900000D03*
X27670000Y-45000000D03*
X24955000Y-52960000D03*
X86100000Y-42625000D03*
X77300000Y-13800000D03*
X80800000Y-15470000D03*
X86200000Y-28100000D03*
X35320000Y-25270000D03*
X51440000Y-66840000D03*
X82800000Y-42625000D03*
X22390000Y-44300000D03*
%TO.N,/T_SWO*%
X53200000Y-6110000D03*
X33050000Y-29650000D03*
%TO.N,Net-(U1-PB6)*%
X32149997Y-29650000D03*
X49700000Y-2850000D03*
%TO.N,Net-(U1-PB7)*%
X31253103Y-29575258D03*
X65350000Y-2300000D03*
%TO.N,/PD14*%
X45950000Y-41500000D03*
%TO.N,/PD13*%
X45950000Y-43000000D03*
%TO.N,/PC6*%
X45000000Y-36000000D03*
%TO.N,/PG8*%
X45000000Y-37500000D03*
%TO.N,/PF12*%
X34587500Y-47870000D03*
%TO.N,/PF13*%
X36087500Y-47870000D03*
%TO.N,/PA4*%
X29587500Y-47870000D03*
%TO.N,/PB11*%
X44587500Y-47870000D03*
%TO.N,/PE9*%
X39587500Y-47870000D03*
%TO.N,/PE10*%
X41087500Y-47870000D03*
%TO.N,/PE5*%
X27980000Y-30920000D03*
%TO.N,/PE6*%
X28084299Y-31813939D03*
%TO.N,/PC13*%
X28098800Y-32713825D03*
%TO.N,/PF4*%
X28550000Y-35155000D03*
%TO.N,/PF5*%
X29040000Y-36130000D03*
%TO.N,/PF10*%
X27810000Y-40780000D03*
%TO.N,/PF9*%
X28266319Y-40004257D03*
%TO.N,/PF7*%
X28720000Y-37430000D03*
%TO.N,/PF8*%
X28808709Y-39286053D03*
%TO.N,/PF6*%
X27730000Y-37830000D03*
%TO.N,/PC0*%
X28271804Y-42242791D03*
%TO.N,/PC2_C*%
X29180000Y-44690000D03*
%TO.N,/PC1*%
X28993276Y-42999833D03*
%TO.N,/PC3_C*%
X28380000Y-47670000D03*
%TO.N,/PA0*%
X27670000Y-46500000D03*
%TO.N,/PD5*%
X40590000Y-29640000D03*
%TO.N,/PD6*%
X39087500Y-29640000D03*
%TO.N,/PG15*%
X34087500Y-29640000D03*
%TO.N,/PG14*%
X35587500Y-29640000D03*
%TD*%
%TA.AperFunction,Conductor*%
%TO.N,GND*%
G36*
X84250000Y-56726988D02*
G01*
X84192993Y-56694075D01*
X84065826Y-56660000D01*
X83934174Y-56660000D01*
X83807007Y-56694075D01*
X83750000Y-56726988D01*
X83750000Y-55053012D01*
X83807007Y-55085925D01*
X83934174Y-55120000D01*
X84065826Y-55120000D01*
X84192993Y-55085925D01*
X84250000Y-55053012D01*
X84250000Y-56726988D01*
G37*
%TD.AperFunction*%
%TA.AperFunction,Conductor*%
G36*
X84250000Y-54186988D02*
G01*
X84192993Y-54154075D01*
X84065826Y-54120000D01*
X83934174Y-54120000D01*
X83807007Y-54154075D01*
X83750000Y-54186988D01*
X83750000Y-52513012D01*
X83807007Y-52545925D01*
X83934174Y-52580000D01*
X84065826Y-52580000D01*
X84192993Y-52545925D01*
X84250000Y-52513012D01*
X84250000Y-54186988D01*
G37*
%TD.AperFunction*%
%TA.AperFunction,Conductor*%
G36*
X84250000Y-51646988D02*
G01*
X84192993Y-51614075D01*
X84065826Y-51580000D01*
X83934174Y-51580000D01*
X83807007Y-51614075D01*
X83750000Y-51646988D01*
X83750000Y-49973012D01*
X83807007Y-50005925D01*
X83934174Y-50040000D01*
X84065826Y-50040000D01*
X84192993Y-50005925D01*
X84250000Y-49973012D01*
X84250000Y-51646988D01*
G37*
%TD.AperFunction*%
%TA.AperFunction,Conductor*%
G36*
X84250000Y-49106988D02*
G01*
X84192993Y-49074075D01*
X84065826Y-49040000D01*
X83934174Y-49040000D01*
X83807007Y-49074075D01*
X83750000Y-49106988D01*
X83750000Y-47433012D01*
X83807007Y-47465925D01*
X83934174Y-47500000D01*
X84065826Y-47500000D01*
X84192993Y-47465925D01*
X84250000Y-47433012D01*
X84250000Y-49106988D01*
G37*
%TD.AperFunction*%
%TA.AperFunction,Conductor*%
G36*
X86309138Y-1012598D02*
G01*
X86612869Y-1161083D01*
X86621877Y-1165958D01*
X87003544Y-1393383D01*
X87012123Y-1398989D01*
X87373693Y-1657144D01*
X87381770Y-1663431D01*
X87720796Y-1950571D01*
X87728336Y-1957512D01*
X88042487Y-2271663D01*
X88049428Y-2279203D01*
X88336564Y-2618224D01*
X88342859Y-2626312D01*
X88601010Y-2987876D01*
X88606616Y-2996455D01*
X88834041Y-3378122D01*
X88838918Y-3387136D01*
X88987400Y-3690861D01*
X89000000Y-3745321D01*
X89000000Y-66254677D01*
X88987401Y-66309137D01*
X88838919Y-66612863D01*
X88834041Y-66621877D01*
X88606616Y-67003544D01*
X88601010Y-67012123D01*
X88342859Y-67373687D01*
X88336564Y-67381775D01*
X88049428Y-67720796D01*
X88042487Y-67728336D01*
X87728336Y-68042487D01*
X87720796Y-68049428D01*
X87381775Y-68336564D01*
X87373687Y-68342859D01*
X87012123Y-68601010D01*
X87003544Y-68606616D01*
X86621877Y-68834041D01*
X86612863Y-68838918D01*
X86309139Y-68987400D01*
X86254679Y-69000000D01*
X3745321Y-69000000D01*
X3690861Y-68987400D01*
X3387136Y-68838918D01*
X3378122Y-68834041D01*
X2996455Y-68606616D01*
X2987876Y-68601010D01*
X2626312Y-68342859D01*
X2618224Y-68336564D01*
X2279203Y-68049428D01*
X2271663Y-68042487D01*
X1957512Y-67728336D01*
X1950571Y-67720796D01*
X1663435Y-67381775D01*
X1657140Y-67373687D01*
X1398989Y-67012123D01*
X1393383Y-67003544D01*
X1165958Y-66621877D01*
X1161080Y-66612863D01*
X1012599Y-66309137D01*
X1000000Y-66254677D01*
X1000000Y-64000000D01*
X2294922Y-64000000D01*
X2315219Y-64387287D01*
X2375886Y-64770323D01*
X2375887Y-64770330D01*
X2476262Y-65144936D01*
X2615244Y-65506994D01*
X2791310Y-65852543D01*
X3002531Y-66177793D01*
X3211095Y-66435350D01*
X3211096Y-66435350D01*
X4705748Y-64940698D01*
X4779588Y-65042330D01*
X4957670Y-65220412D01*
X5059300Y-65294251D01*
X3564648Y-66788903D01*
X3564649Y-66788904D01*
X3822206Y-66997468D01*
X4147456Y-67208689D01*
X4493005Y-67384755D01*
X4855063Y-67523737D01*
X5229669Y-67624112D01*
X5229676Y-67624113D01*
X5612712Y-67684780D01*
X5999999Y-67705078D01*
X6000001Y-67705078D01*
X6387287Y-67684780D01*
X6770323Y-67624113D01*
X6770330Y-67624112D01*
X7144936Y-67523737D01*
X7506994Y-67384755D01*
X7852543Y-67208689D01*
X8177783Y-66997476D01*
X8177785Y-66997475D01*
X8435349Y-66788902D01*
X6940698Y-65294251D01*
X7042330Y-65220412D01*
X7220412Y-65042330D01*
X7294251Y-64940698D01*
X8788902Y-66435349D01*
X8997475Y-66177785D01*
X8997476Y-66177783D01*
X9208689Y-65852543D01*
X9384755Y-65506994D01*
X9523737Y-65144936D01*
X9624112Y-64770330D01*
X9624113Y-64770323D01*
X9684780Y-64387287D01*
X9705078Y-64000000D01*
X9705078Y-63999999D01*
X9684780Y-63612712D01*
X9624113Y-63229676D01*
X9624112Y-63229669D01*
X9546496Y-62940000D01*
X15764341Y-62940000D01*
X15784936Y-63175403D01*
X15784938Y-63175413D01*
X15846094Y-63403655D01*
X15846096Y-63403659D01*
X15846097Y-63403663D01*
X15890787Y-63499500D01*
X15945965Y-63617830D01*
X15945967Y-63617834D01*
X16054281Y-63772521D01*
X16081505Y-63811401D01*
X16248599Y-63978495D01*
X16345384Y-64046265D01*
X16442165Y-64114032D01*
X16442167Y-64114033D01*
X16442170Y-64114035D01*
X16656337Y-64213903D01*
X16884592Y-64275063D01*
X17072918Y-64291539D01*
X17119999Y-64295659D01*
X17120000Y-64295659D01*
X17120001Y-64295659D01*
X17159234Y-64292226D01*
X17355408Y-64275063D01*
X17583663Y-64213903D01*
X17797830Y-64114035D01*
X17991401Y-63978495D01*
X18158495Y-63811401D01*
X18288425Y-63625842D01*
X18343002Y-63582217D01*
X18412500Y-63575023D01*
X18474855Y-63606546D01*
X18491575Y-63625842D01*
X18621500Y-63811395D01*
X18621505Y-63811401D01*
X18788599Y-63978495D01*
X18885384Y-64046265D01*
X18982165Y-64114032D01*
X18982167Y-64114033D01*
X18982170Y-64114035D01*
X19196337Y-64213903D01*
X19424592Y-64275063D01*
X19612918Y-64291539D01*
X19659999Y-64295659D01*
X19660000Y-64295659D01*
X19660001Y-64295659D01*
X19699234Y-64292226D01*
X19895408Y-64275063D01*
X20123663Y-64213903D01*
X20337830Y-64114035D01*
X20531401Y-63978495D01*
X20698495Y-63811401D01*
X20828425Y-63625842D01*
X20883002Y-63582217D01*
X20952500Y-63575023D01*
X21014855Y-63606546D01*
X21031575Y-63625842D01*
X21161500Y-63811395D01*
X21161505Y-63811401D01*
X21328599Y-63978495D01*
X21425384Y-64046265D01*
X21522165Y-64114032D01*
X21522167Y-64114033D01*
X21522170Y-64114035D01*
X21736337Y-64213903D01*
X21964592Y-64275063D01*
X22152918Y-64291539D01*
X22199999Y-64295659D01*
X22200000Y-64295659D01*
X22200001Y-64295659D01*
X22239234Y-64292226D01*
X22435408Y-64275063D01*
X22663663Y-64213903D01*
X22877830Y-64114035D01*
X23071401Y-63978495D01*
X23238495Y-63811401D01*
X23368425Y-63625842D01*
X23423002Y-63582217D01*
X23492500Y-63575023D01*
X23554855Y-63606546D01*
X23571575Y-63625842D01*
X23701500Y-63811395D01*
X23701505Y-63811401D01*
X23868599Y-63978495D01*
X23965384Y-64046265D01*
X24062165Y-64114032D01*
X24062167Y-64114033D01*
X24062170Y-64114035D01*
X24276337Y-64213903D01*
X24504592Y-64275063D01*
X24692918Y-64291539D01*
X24739999Y-64295659D01*
X24740000Y-64295659D01*
X24740001Y-64295659D01*
X24779234Y-64292226D01*
X24975408Y-64275063D01*
X25203663Y-64213903D01*
X25417830Y-64114035D01*
X25611401Y-63978495D01*
X25778495Y-63811401D01*
X25908425Y-63625842D01*
X25963002Y-63582217D01*
X26032500Y-63575023D01*
X26094855Y-63606546D01*
X26111575Y-63625842D01*
X26241500Y-63811395D01*
X26241505Y-63811401D01*
X26408599Y-63978495D01*
X26505384Y-64046265D01*
X26602165Y-64114032D01*
X26602167Y-64114033D01*
X26602170Y-64114035D01*
X26816337Y-64213903D01*
X27044592Y-64275063D01*
X27232918Y-64291539D01*
X27279999Y-64295659D01*
X27280000Y-64295659D01*
X27280001Y-64295659D01*
X27319234Y-64292226D01*
X27515408Y-64275063D01*
X27743663Y-64213903D01*
X27957830Y-64114035D01*
X28151401Y-63978495D01*
X28318495Y-63811401D01*
X28448425Y-63625842D01*
X28503002Y-63582217D01*
X28572500Y-63575023D01*
X28634855Y-63606546D01*
X28651575Y-63625842D01*
X28781500Y-63811395D01*
X28781505Y-63811401D01*
X28948599Y-63978495D01*
X29045384Y-64046265D01*
X29142165Y-64114032D01*
X29142167Y-64114033D01*
X29142170Y-64114035D01*
X29356337Y-64213903D01*
X29584592Y-64275063D01*
X29772918Y-64291539D01*
X29819999Y-64295659D01*
X29820000Y-64295659D01*
X29820001Y-64295659D01*
X29859234Y-64292226D01*
X30055408Y-64275063D01*
X30283663Y-64213903D01*
X30497830Y-64114035D01*
X30691401Y-63978495D01*
X30858495Y-63811401D01*
X30988425Y-63625842D01*
X31043002Y-63582217D01*
X31112500Y-63575023D01*
X31174855Y-63606546D01*
X31191575Y-63625842D01*
X31321500Y-63811395D01*
X31321505Y-63811401D01*
X31488599Y-63978495D01*
X31585384Y-64046265D01*
X31682165Y-64114032D01*
X31682167Y-64114033D01*
X31682170Y-64114035D01*
X31896337Y-64213903D01*
X32124592Y-64275063D01*
X32312918Y-64291539D01*
X32359999Y-64295659D01*
X32360000Y-64295659D01*
X32360001Y-64295659D01*
X32399234Y-64292226D01*
X32595408Y-64275063D01*
X32823663Y-64213903D01*
X33037830Y-64114035D01*
X33231401Y-63978495D01*
X33398495Y-63811401D01*
X33528425Y-63625842D01*
X33583002Y-63582217D01*
X33652500Y-63575023D01*
X33714855Y-63606546D01*
X33731575Y-63625842D01*
X33861500Y-63811395D01*
X33861505Y-63811401D01*
X34028599Y-63978495D01*
X34125384Y-64046265D01*
X34222165Y-64114032D01*
X34222167Y-64114033D01*
X34222170Y-64114035D01*
X34436337Y-64213903D01*
X34664592Y-64275063D01*
X34852918Y-64291539D01*
X34899999Y-64295659D01*
X34900000Y-64295659D01*
X34900001Y-64295659D01*
X34939234Y-64292226D01*
X35135408Y-64275063D01*
X35363663Y-64213903D01*
X35577830Y-64114035D01*
X35771401Y-63978495D01*
X35938495Y-63811401D01*
X36068425Y-63625842D01*
X36123002Y-63582217D01*
X36192500Y-63575023D01*
X36254855Y-63606546D01*
X36271575Y-63625842D01*
X36401500Y-63811395D01*
X36401505Y-63811401D01*
X36568599Y-63978495D01*
X36665384Y-64046265D01*
X36762165Y-64114032D01*
X36762167Y-64114033D01*
X36762170Y-64114035D01*
X36976337Y-64213903D01*
X37204592Y-64275063D01*
X37392918Y-64291539D01*
X37439999Y-64295659D01*
X37440000Y-64295659D01*
X37440001Y-64295659D01*
X37479234Y-64292226D01*
X37675408Y-64275063D01*
X37903663Y-64213903D01*
X38117830Y-64114035D01*
X38311401Y-63978495D01*
X38478495Y-63811401D01*
X38608425Y-63625842D01*
X38663002Y-63582217D01*
X38732500Y-63575023D01*
X38794855Y-63606546D01*
X38811575Y-63625842D01*
X38941500Y-63811395D01*
X38941505Y-63811401D01*
X39108599Y-63978495D01*
X39205384Y-64046265D01*
X39302165Y-64114032D01*
X39302167Y-64114033D01*
X39302170Y-64114035D01*
X39516337Y-64213903D01*
X39744592Y-64275063D01*
X39932918Y-64291539D01*
X39979999Y-64295659D01*
X39980000Y-64295659D01*
X39980001Y-64295659D01*
X40019234Y-64292226D01*
X40215408Y-64275063D01*
X40443663Y-64213903D01*
X40657830Y-64114035D01*
X40851401Y-63978495D01*
X41018495Y-63811401D01*
X41148425Y-63625842D01*
X41203002Y-63582217D01*
X41272500Y-63575023D01*
X41334855Y-63606546D01*
X41351575Y-63625842D01*
X41481500Y-63811395D01*
X41481505Y-63811401D01*
X41648599Y-63978495D01*
X41745384Y-64046265D01*
X41842165Y-64114032D01*
X41842167Y-64114033D01*
X41842170Y-64114035D01*
X42056337Y-64213903D01*
X42284592Y-64275063D01*
X42472918Y-64291539D01*
X42519999Y-64295659D01*
X42520000Y-64295659D01*
X42520001Y-64295659D01*
X42559234Y-64292226D01*
X42755408Y-64275063D01*
X42983663Y-64213903D01*
X43197830Y-64114035D01*
X43391401Y-63978495D01*
X43558495Y-63811401D01*
X43688425Y-63625842D01*
X43743002Y-63582217D01*
X43812500Y-63575023D01*
X43874855Y-63606546D01*
X43891575Y-63625842D01*
X44021500Y-63811395D01*
X44021505Y-63811401D01*
X44188599Y-63978495D01*
X44285384Y-64046265D01*
X44382165Y-64114032D01*
X44382167Y-64114033D01*
X44382170Y-64114035D01*
X44596337Y-64213903D01*
X44824592Y-64275063D01*
X45012918Y-64291539D01*
X45059999Y-64295659D01*
X45060000Y-64295659D01*
X45060001Y-64295659D01*
X45099234Y-64292226D01*
X45295408Y-64275063D01*
X45523663Y-64213903D01*
X45737830Y-64114035D01*
X45931401Y-63978495D01*
X46098495Y-63811401D01*
X46228425Y-63625842D01*
X46283002Y-63582217D01*
X46352500Y-63575023D01*
X46414855Y-63606546D01*
X46431575Y-63625842D01*
X46561500Y-63811395D01*
X46561505Y-63811401D01*
X46728599Y-63978495D01*
X46825384Y-64046265D01*
X46922165Y-64114032D01*
X46922167Y-64114033D01*
X46922170Y-64114035D01*
X47136337Y-64213903D01*
X47364592Y-64275063D01*
X47552918Y-64291539D01*
X47599999Y-64295659D01*
X47600000Y-64295659D01*
X47600001Y-64295659D01*
X47639234Y-64292226D01*
X47835408Y-64275063D01*
X48063663Y-64213903D01*
X48277830Y-64114035D01*
X48471401Y-63978495D01*
X48638495Y-63811401D01*
X48768425Y-63625842D01*
X48823002Y-63582217D01*
X48892500Y-63575023D01*
X48954855Y-63606546D01*
X48971575Y-63625842D01*
X49101500Y-63811395D01*
X49101505Y-63811401D01*
X49268599Y-63978495D01*
X49365384Y-64046265D01*
X49462165Y-64114032D01*
X49462167Y-64114033D01*
X49462170Y-64114035D01*
X49676337Y-64213903D01*
X49904592Y-64275063D01*
X50092918Y-64291539D01*
X50139999Y-64295659D01*
X50140000Y-64295659D01*
X50140001Y-64295659D01*
X50179234Y-64292226D01*
X50375408Y-64275063D01*
X50603663Y-64213903D01*
X50817830Y-64114035D01*
X50980689Y-64000000D01*
X80294922Y-64000000D01*
X80315219Y-64387287D01*
X80375886Y-64770323D01*
X80375887Y-64770330D01*
X80476262Y-65144936D01*
X80615244Y-65506994D01*
X80791310Y-65852543D01*
X81002531Y-66177793D01*
X81211095Y-66435350D01*
X81211096Y-66435350D01*
X82705748Y-64940698D01*
X82779588Y-65042330D01*
X82957670Y-65220412D01*
X83059300Y-65294251D01*
X81564648Y-66788903D01*
X81564649Y-66788904D01*
X81822206Y-66997468D01*
X82147456Y-67208689D01*
X82493005Y-67384755D01*
X82855063Y-67523737D01*
X83229669Y-67624112D01*
X83229676Y-67624113D01*
X83612712Y-67684780D01*
X83999999Y-67705078D01*
X84000001Y-67705078D01*
X84387287Y-67684780D01*
X84770323Y-67624113D01*
X84770330Y-67624112D01*
X85144936Y-67523737D01*
X85506994Y-67384755D01*
X85852543Y-67208689D01*
X86177783Y-66997476D01*
X86177785Y-66997475D01*
X86435349Y-66788902D01*
X84940698Y-65294251D01*
X85042330Y-65220412D01*
X85220412Y-65042330D01*
X85294251Y-64940698D01*
X86788902Y-66435349D01*
X86997475Y-66177785D01*
X86997476Y-66177783D01*
X87208689Y-65852543D01*
X87384755Y-65506994D01*
X87523737Y-65144936D01*
X87624112Y-64770330D01*
X87624113Y-64770323D01*
X87684780Y-64387287D01*
X87705078Y-64000000D01*
X87705078Y-63999999D01*
X87684780Y-63612712D01*
X87624113Y-63229676D01*
X87624112Y-63229669D01*
X87523737Y-62855063D01*
X87384755Y-62493005D01*
X87208689Y-62147456D01*
X86997468Y-61822206D01*
X86788904Y-61564649D01*
X86788903Y-61564648D01*
X85294251Y-63059300D01*
X85220412Y-62957670D01*
X85042330Y-62779588D01*
X84940698Y-62705748D01*
X86435350Y-61211096D01*
X86435350Y-61211095D01*
X86177793Y-61002531D01*
X85852543Y-60791310D01*
X85506994Y-60615244D01*
X85144936Y-60476262D01*
X84770330Y-60375887D01*
X84770323Y-60375886D01*
X84387287Y-60315219D01*
X84000001Y-60294922D01*
X83999999Y-60294922D01*
X83612712Y-60315219D01*
X83229676Y-60375886D01*
X83229669Y-60375887D01*
X82855063Y-60476262D01*
X82493005Y-60615244D01*
X82147456Y-60791310D01*
X81822206Y-61002531D01*
X81564648Y-61211095D01*
X81564648Y-61211096D01*
X83059301Y-62705748D01*
X82957670Y-62779588D01*
X82779588Y-62957670D01*
X82705748Y-63059300D01*
X81211096Y-61564648D01*
X81211095Y-61564648D01*
X81002531Y-61822206D01*
X80791310Y-62147456D01*
X80615244Y-62493005D01*
X80476262Y-62855063D01*
X80375887Y-63229669D01*
X80375886Y-63229676D01*
X80315219Y-63612712D01*
X80294922Y-63999999D01*
X80294922Y-64000000D01*
X50980689Y-64000000D01*
X51011401Y-63978495D01*
X51178495Y-63811401D01*
X51314035Y-63617830D01*
X51413903Y-63403663D01*
X51475063Y-63175408D01*
X51495659Y-62940000D01*
X51475063Y-62704592D01*
X51413903Y-62476337D01*
X51314035Y-62262171D01*
X51308425Y-62254158D01*
X51249497Y-62170000D01*
X62404341Y-62170000D01*
X62424936Y-62405403D01*
X62424938Y-62405413D01*
X62486094Y-62633655D01*
X62486096Y-62633659D01*
X62486097Y-62633663D01*
X62490000Y-62642032D01*
X62585965Y-62847830D01*
X62585967Y-62847834D01*
X62650502Y-62939999D01*
X62721505Y-63041401D01*
X62888599Y-63208495D01*
X62918839Y-63229669D01*
X63082165Y-63344032D01*
X63082167Y-63344033D01*
X63082170Y-63344035D01*
X63296337Y-63443903D01*
X63524592Y-63505063D01*
X63712918Y-63521539D01*
X63759999Y-63525659D01*
X63760000Y-63525659D01*
X63760001Y-63525659D01*
X63799234Y-63522226D01*
X63995408Y-63505063D01*
X64223663Y-63443903D01*
X64437830Y-63344035D01*
X64631401Y-63208495D01*
X64798495Y-63041401D01*
X64928425Y-62855842D01*
X64983002Y-62812217D01*
X65052500Y-62805023D01*
X65114855Y-62836546D01*
X65131575Y-62855842D01*
X65261500Y-63041395D01*
X65261505Y-63041401D01*
X65428599Y-63208495D01*
X65458839Y-63229669D01*
X65622165Y-63344032D01*
X65622167Y-63344033D01*
X65622170Y-63344035D01*
X65836337Y-63443903D01*
X66064592Y-63505063D01*
X66252918Y-63521539D01*
X66299999Y-63525659D01*
X66300000Y-63525659D01*
X66300001Y-63525659D01*
X66339234Y-63522226D01*
X66535408Y-63505063D01*
X66763663Y-63443903D01*
X66977830Y-63344035D01*
X67171401Y-63208495D01*
X67338495Y-63041401D01*
X67474035Y-62847830D01*
X67573903Y-62633663D01*
X67635063Y-62405408D01*
X67655659Y-62170000D01*
X67635063Y-61934592D01*
X67573903Y-61706337D01*
X67474035Y-61492171D01*
X67468425Y-61484158D01*
X67338494Y-61298597D01*
X67171402Y-61131506D01*
X67171396Y-61131501D01*
X66985842Y-61001575D01*
X66942217Y-60946998D01*
X66935023Y-60877500D01*
X66966546Y-60815145D01*
X66985842Y-60798425D01*
X67008026Y-60782891D01*
X67171401Y-60668495D01*
X67338495Y-60501401D01*
X67474035Y-60307830D01*
X67573903Y-60093663D01*
X67635063Y-59865408D01*
X67655659Y-59630000D01*
X67635063Y-59394592D01*
X67573903Y-59166337D01*
X67474035Y-58952171D01*
X67468425Y-58944158D01*
X67338494Y-58758597D01*
X67171402Y-58591506D01*
X67171396Y-58591501D01*
X66985842Y-58461575D01*
X66942217Y-58406998D01*
X66935023Y-58337500D01*
X66966546Y-58275145D01*
X66985842Y-58258425D01*
X67071426Y-58198498D01*
X67171401Y-58128495D01*
X67338495Y-57961401D01*
X67474035Y-57767830D01*
X67573903Y-57553663D01*
X67635063Y-57325408D01*
X67649535Y-57160000D01*
X73644341Y-57160000D01*
X73664936Y-57395403D01*
X73664938Y-57395413D01*
X73726094Y-57623655D01*
X73726096Y-57623659D01*
X73726097Y-57623663D01*
X73825847Y-57837578D01*
X73825965Y-57837830D01*
X73825967Y-57837834D01*
X73912486Y-57961395D01*
X73961505Y-58031401D01*
X74128599Y-58198495D01*
X74214188Y-58258425D01*
X74322165Y-58334032D01*
X74322167Y-58334033D01*
X74322170Y-58334035D01*
X74536337Y-58433903D01*
X74764592Y-58495063D01*
X74952918Y-58511539D01*
X74999999Y-58515659D01*
X75000000Y-58515659D01*
X75000001Y-58515659D01*
X75039234Y-58512226D01*
X75235408Y-58495063D01*
X75463663Y-58433903D01*
X75677830Y-58334035D01*
X75871401Y-58198495D01*
X76038495Y-58031401D01*
X76174035Y-57837830D01*
X76273903Y-57623663D01*
X76335063Y-57395408D01*
X76355659Y-57160000D01*
X76335063Y-56924592D01*
X76273903Y-56696337D01*
X76174035Y-56482171D01*
X76149957Y-56447783D01*
X76038494Y-56288597D01*
X75871402Y-56121506D01*
X75871396Y-56121501D01*
X75685842Y-55991575D01*
X75642217Y-55936998D01*
X75635023Y-55867500D01*
X75666546Y-55805145D01*
X75685842Y-55788425D01*
X75708026Y-55772891D01*
X75871401Y-55658495D01*
X76038495Y-55491401D01*
X76174035Y-55297830D01*
X76273903Y-55083663D01*
X76335063Y-54855408D01*
X76355659Y-54620000D01*
X76335063Y-54384592D01*
X76273903Y-54156337D01*
X76174035Y-53942171D01*
X76149957Y-53907783D01*
X76038494Y-53748597D01*
X75871402Y-53581506D01*
X75871396Y-53581501D01*
X75685842Y-53451575D01*
X75642217Y-53396998D01*
X75635023Y-53327500D01*
X75666546Y-53265145D01*
X75685842Y-53248425D01*
X75708026Y-53232891D01*
X75871401Y-53118495D01*
X76038495Y-52951401D01*
X76174035Y-52757830D01*
X76273903Y-52543663D01*
X76335063Y-52315408D01*
X76355659Y-52080000D01*
X76335063Y-51844592D01*
X76281443Y-51644476D01*
X76273905Y-51616344D01*
X76273904Y-51616343D01*
X76273903Y-51616337D01*
X76174035Y-51402171D01*
X76156181Y-51376672D01*
X76038494Y-51208597D01*
X75871402Y-51041506D01*
X75871396Y-51041501D01*
X75685842Y-50911575D01*
X75642217Y-50856998D01*
X75635023Y-50787500D01*
X75666546Y-50725145D01*
X75685842Y-50708425D01*
X75729575Y-50677803D01*
X75871401Y-50578495D01*
X76038495Y-50411401D01*
X76174035Y-50217830D01*
X76273903Y-50003663D01*
X76335063Y-49775408D01*
X76355659Y-49540000D01*
X76335063Y-49304592D01*
X76273903Y-49076337D01*
X76174035Y-48862171D01*
X76149956Y-48827783D01*
X76038496Y-48668600D01*
X75980506Y-48610610D01*
X75916567Y-48546671D01*
X75883084Y-48485351D01*
X75888068Y-48415659D01*
X75929939Y-48359725D01*
X75960915Y-48342810D01*
X76092331Y-48293796D01*
X76207546Y-48207546D01*
X76293796Y-48092331D01*
X76344091Y-47957483D01*
X76350500Y-47897873D01*
X76350500Y-47897844D01*
X82650000Y-47897844D01*
X82656401Y-47957372D01*
X82656403Y-47957379D01*
X82706645Y-48092086D01*
X82706649Y-48092093D01*
X82792809Y-48207187D01*
X82792812Y-48207190D01*
X82907906Y-48293350D01*
X82907913Y-48293354D01*
X83039986Y-48342614D01*
X83095920Y-48384485D01*
X83120337Y-48449949D01*
X83105486Y-48518222D01*
X83084335Y-48546477D01*
X82961886Y-48668926D01*
X82826400Y-48862420D01*
X82826399Y-48862422D01*
X82726570Y-49076507D01*
X82726567Y-49076513D01*
X82669364Y-49289999D01*
X82669364Y-49290000D01*
X83566988Y-49290000D01*
X83534075Y-49347007D01*
X83500000Y-49474174D01*
X83500000Y-49605826D01*
X83534075Y-49732993D01*
X83566988Y-49790000D01*
X82669364Y-49790000D01*
X82726567Y-50003486D01*
X82726570Y-50003492D01*
X82826399Y-50217578D01*
X82961894Y-50411082D01*
X83128917Y-50578105D01*
X83315031Y-50708425D01*
X83358656Y-50763003D01*
X83365848Y-50832501D01*
X83334326Y-50894856D01*
X83315031Y-50911575D01*
X83128922Y-51041890D01*
X83128920Y-51041891D01*
X82961891Y-51208920D01*
X82961886Y-51208926D01*
X82826400Y-51402420D01*
X82826399Y-51402422D01*
X82726570Y-51616507D01*
X82726567Y-51616513D01*
X82669364Y-51829999D01*
X82669364Y-51830000D01*
X83566988Y-51830000D01*
X83534075Y-51887007D01*
X83500000Y-52014174D01*
X83500000Y-52145826D01*
X83534075Y-52272993D01*
X83566988Y-52330000D01*
X82669364Y-52330000D01*
X82726567Y-52543486D01*
X82726570Y-52543492D01*
X82826399Y-52757578D01*
X82961894Y-52951082D01*
X83128917Y-53118105D01*
X83315031Y-53248425D01*
X83358656Y-53303003D01*
X83365848Y-53372501D01*
X83334326Y-53434856D01*
X83315031Y-53451575D01*
X83128922Y-53581890D01*
X83128920Y-53581891D01*
X82961891Y-53748920D01*
X82961886Y-53748926D01*
X82826400Y-53942420D01*
X82826399Y-53942422D01*
X82726570Y-54156507D01*
X82726567Y-54156513D01*
X82669364Y-54369999D01*
X82669364Y-54370000D01*
X83566988Y-54370000D01*
X83534075Y-54427007D01*
X83500000Y-54554174D01*
X83500000Y-54685826D01*
X83534075Y-54812993D01*
X83566988Y-54870000D01*
X82669364Y-54870000D01*
X82726567Y-55083486D01*
X82726570Y-55083492D01*
X82826399Y-55297578D01*
X82961894Y-55491082D01*
X83128917Y-55658105D01*
X83315031Y-55788425D01*
X83358656Y-55843003D01*
X83365848Y-55912501D01*
X83334326Y-55974856D01*
X83315031Y-55991575D01*
X83128922Y-56121890D01*
X83128920Y-56121891D01*
X82961891Y-56288920D01*
X82961886Y-56288926D01*
X82826400Y-56482420D01*
X82826399Y-56482422D01*
X82726570Y-56696507D01*
X82726567Y-56696513D01*
X82669364Y-56909999D01*
X82669364Y-56910000D01*
X83566988Y-56910000D01*
X83534075Y-56967007D01*
X83500000Y-57094174D01*
X83500000Y-57225826D01*
X83534075Y-57352993D01*
X83566988Y-57410000D01*
X82669364Y-57410000D01*
X82726567Y-57623486D01*
X82726570Y-57623492D01*
X82826399Y-57837578D01*
X82961894Y-58031082D01*
X83128917Y-58198105D01*
X83322421Y-58333600D01*
X83536507Y-58433429D01*
X83536516Y-58433433D01*
X83750000Y-58490634D01*
X83750000Y-57593012D01*
X83807007Y-57625925D01*
X83934174Y-57660000D01*
X84065826Y-57660000D01*
X84192993Y-57625925D01*
X84250000Y-57593012D01*
X84250000Y-58490633D01*
X84463483Y-58433433D01*
X84463492Y-58433429D01*
X84677578Y-58333600D01*
X84871082Y-58198105D01*
X85038105Y-58031082D01*
X85173600Y-57837578D01*
X85273429Y-57623492D01*
X85273432Y-57623486D01*
X85330636Y-57410000D01*
X84433012Y-57410000D01*
X84465925Y-57352993D01*
X84500000Y-57225826D01*
X84500000Y-57094174D01*
X84465925Y-56967007D01*
X84433012Y-56910000D01*
X85330636Y-56910000D01*
X85330635Y-56909999D01*
X85273432Y-56696513D01*
X85273429Y-56696507D01*
X85173600Y-56482422D01*
X85173599Y-56482420D01*
X85038113Y-56288926D01*
X85038108Y-56288920D01*
X84871082Y-56121894D01*
X84684968Y-55991575D01*
X84641344Y-55936998D01*
X84634151Y-55867499D01*
X84665673Y-55805145D01*
X84684968Y-55788425D01*
X84871082Y-55658105D01*
X85038105Y-55491082D01*
X85173600Y-55297578D01*
X85273429Y-55083492D01*
X85273432Y-55083486D01*
X85330636Y-54870000D01*
X84433012Y-54870000D01*
X84465925Y-54812993D01*
X84500000Y-54685826D01*
X84500000Y-54554174D01*
X84465925Y-54427007D01*
X84433012Y-54370000D01*
X85330636Y-54370000D01*
X85330635Y-54369999D01*
X85273432Y-54156513D01*
X85273429Y-54156507D01*
X85173600Y-53942422D01*
X85173599Y-53942420D01*
X85038113Y-53748926D01*
X85038108Y-53748920D01*
X84871082Y-53581894D01*
X84684968Y-53451575D01*
X84641344Y-53396998D01*
X84634151Y-53327499D01*
X84665673Y-53265145D01*
X84684968Y-53248425D01*
X84871082Y-53118105D01*
X85038105Y-52951082D01*
X85173600Y-52757578D01*
X85273429Y-52543492D01*
X85273432Y-52543486D01*
X85330636Y-52330000D01*
X84433012Y-52330000D01*
X84465925Y-52272993D01*
X84500000Y-52145826D01*
X84500000Y-52014174D01*
X84465925Y-51887007D01*
X84433012Y-51830000D01*
X85330636Y-51830000D01*
X85330635Y-51829999D01*
X85273432Y-51616513D01*
X85273429Y-51616507D01*
X85173600Y-51402422D01*
X85173599Y-51402420D01*
X85038113Y-51208926D01*
X85038108Y-51208920D01*
X84871082Y-51041894D01*
X84684968Y-50911575D01*
X84641344Y-50856998D01*
X84634151Y-50787499D01*
X84665673Y-50725145D01*
X84684968Y-50708425D01*
X84871082Y-50578105D01*
X85038105Y-50411082D01*
X85173600Y-50217578D01*
X85273429Y-50003492D01*
X85273432Y-50003486D01*
X85330636Y-49790000D01*
X84433012Y-49790000D01*
X84465925Y-49732993D01*
X84500000Y-49605826D01*
X84500000Y-49474174D01*
X84465925Y-49347007D01*
X84433012Y-49290000D01*
X85330636Y-49290000D01*
X85330635Y-49289999D01*
X85273432Y-49076513D01*
X85273429Y-49076507D01*
X85173600Y-48862422D01*
X85173599Y-48862420D01*
X85038113Y-48668926D01*
X85038108Y-48668920D01*
X84915665Y-48546477D01*
X84882180Y-48485154D01*
X84887164Y-48415462D01*
X84929036Y-48359529D01*
X84960013Y-48342614D01*
X85092086Y-48293354D01*
X85092093Y-48293350D01*
X85207187Y-48207190D01*
X85207190Y-48207187D01*
X85293350Y-48092093D01*
X85293354Y-48092086D01*
X85343596Y-47957379D01*
X85343598Y-47957372D01*
X85349999Y-47897844D01*
X85350000Y-47897827D01*
X85350000Y-47250000D01*
X84433012Y-47250000D01*
X84465925Y-47192993D01*
X84500000Y-47065826D01*
X84500000Y-46934174D01*
X84465925Y-46807007D01*
X84433012Y-46750000D01*
X85350000Y-46750000D01*
X85350000Y-46102172D01*
X85349999Y-46102155D01*
X85343598Y-46042627D01*
X85343596Y-46042620D01*
X85293354Y-45907913D01*
X85293350Y-45907906D01*
X85207190Y-45792812D01*
X85207187Y-45792809D01*
X85092093Y-45706649D01*
X85092086Y-45706645D01*
X84957379Y-45656403D01*
X84957372Y-45656401D01*
X84897844Y-45650000D01*
X84250000Y-45650000D01*
X84250000Y-46566988D01*
X84192993Y-46534075D01*
X84065826Y-46500000D01*
X83934174Y-46500000D01*
X83807007Y-46534075D01*
X83750000Y-46566988D01*
X83750000Y-45650000D01*
X83102155Y-45650000D01*
X83042627Y-45656401D01*
X83042620Y-45656403D01*
X82907913Y-45706645D01*
X82907906Y-45706649D01*
X82792812Y-45792809D01*
X82792809Y-45792812D01*
X82706649Y-45907906D01*
X82706645Y-45907913D01*
X82656403Y-46042620D01*
X82656401Y-46042627D01*
X82650000Y-46102155D01*
X82650000Y-46750000D01*
X83566988Y-46750000D01*
X83534075Y-46807007D01*
X83500000Y-46934174D01*
X83500000Y-47065826D01*
X83534075Y-47192993D01*
X83566988Y-47250000D01*
X82650000Y-47250000D01*
X82650000Y-47897844D01*
X76350500Y-47897844D01*
X76350499Y-46102128D01*
X76344091Y-46042517D01*
X76327239Y-45997335D01*
X76293797Y-45907671D01*
X76293793Y-45907664D01*
X76207547Y-45792455D01*
X76207544Y-45792452D01*
X76092335Y-45706206D01*
X76092328Y-45706202D01*
X75957482Y-45655908D01*
X75957483Y-45655908D01*
X75897883Y-45649501D01*
X75897881Y-45649500D01*
X75897873Y-45649500D01*
X75897864Y-45649500D01*
X74102129Y-45649500D01*
X74102123Y-45649501D01*
X74042516Y-45655908D01*
X73907671Y-45706202D01*
X73907664Y-45706206D01*
X73792455Y-45792452D01*
X73792452Y-45792455D01*
X73706206Y-45907664D01*
X73706202Y-45907671D01*
X73655908Y-46042517D01*
X73649501Y-46102116D01*
X73649501Y-46102123D01*
X73649500Y-46102135D01*
X73649500Y-47897870D01*
X73649501Y-47897876D01*
X73655908Y-47957483D01*
X73706202Y-48092328D01*
X73706206Y-48092335D01*
X73792452Y-48207544D01*
X73792455Y-48207547D01*
X73907664Y-48293793D01*
X73907671Y-48293797D01*
X74039081Y-48342810D01*
X74095015Y-48384681D01*
X74119432Y-48450145D01*
X74104580Y-48518418D01*
X74083430Y-48546673D01*
X73961503Y-48668600D01*
X73825965Y-48862169D01*
X73825964Y-48862171D01*
X73726098Y-49076335D01*
X73726094Y-49076344D01*
X73664938Y-49304586D01*
X73664936Y-49304596D01*
X73644341Y-49539999D01*
X73644341Y-49540000D01*
X73664936Y-49775403D01*
X73664938Y-49775413D01*
X73726094Y-50003655D01*
X73726096Y-50003659D01*
X73726097Y-50003663D01*
X73816997Y-50198599D01*
X73825965Y-50217830D01*
X73825967Y-50217834D01*
X73912486Y-50341395D01*
X73955940Y-50403454D01*
X73961501Y-50411395D01*
X73961506Y-50411402D01*
X74128597Y-50578493D01*
X74128603Y-50578498D01*
X74314158Y-50708425D01*
X74357783Y-50763002D01*
X74364977Y-50832500D01*
X74333454Y-50894855D01*
X74314158Y-50911575D01*
X74128597Y-51041505D01*
X73961505Y-51208597D01*
X73825965Y-51402169D01*
X73825964Y-51402171D01*
X73726098Y-51616335D01*
X73726094Y-51616344D01*
X73664938Y-51844586D01*
X73664936Y-51844596D01*
X73644341Y-52079999D01*
X73644341Y-52080000D01*
X73664936Y-52315403D01*
X73664938Y-52315413D01*
X73726094Y-52543655D01*
X73726096Y-52543659D01*
X73726097Y-52543663D01*
X73825847Y-52757578D01*
X73825965Y-52757830D01*
X73825967Y-52757834D01*
X73961501Y-52951395D01*
X73961506Y-52951402D01*
X74128597Y-53118493D01*
X74128603Y-53118498D01*
X74314158Y-53248425D01*
X74357783Y-53303002D01*
X74364977Y-53372500D01*
X74333454Y-53434855D01*
X74314158Y-53451575D01*
X74128597Y-53581505D01*
X73961505Y-53748597D01*
X73825965Y-53942169D01*
X73825964Y-53942171D01*
X73726098Y-54156335D01*
X73726094Y-54156344D01*
X73664938Y-54384586D01*
X73664936Y-54384596D01*
X73644341Y-54619999D01*
X73644341Y-54620000D01*
X73664936Y-54855403D01*
X73664938Y-54855413D01*
X73726094Y-55083655D01*
X73726096Y-55083659D01*
X73726097Y-55083663D01*
X73825847Y-55297578D01*
X73825965Y-55297830D01*
X73825967Y-55297834D01*
X73961501Y-55491395D01*
X73961506Y-55491402D01*
X74128597Y-55658493D01*
X74128603Y-55658498D01*
X74314158Y-55788425D01*
X74357783Y-55843002D01*
X74364977Y-55912500D01*
X74333454Y-55974855D01*
X74314158Y-55991575D01*
X74128597Y-56121505D01*
X73961505Y-56288597D01*
X73825965Y-56482169D01*
X73825964Y-56482171D01*
X73726098Y-56696335D01*
X73726094Y-56696344D01*
X73664938Y-56924586D01*
X73664936Y-56924596D01*
X73644341Y-57159999D01*
X73644341Y-57160000D01*
X67649535Y-57160000D01*
X67655659Y-57090000D01*
X67635063Y-56854592D01*
X67573903Y-56626337D01*
X67474035Y-56412171D01*
X67468425Y-56404158D01*
X67338494Y-56218597D01*
X67171402Y-56051506D01*
X67171396Y-56051501D01*
X66985842Y-55921575D01*
X66942217Y-55866998D01*
X66935023Y-55797500D01*
X66966546Y-55735145D01*
X66985842Y-55718425D01*
X67071426Y-55658498D01*
X67171401Y-55588495D01*
X67338495Y-55421401D01*
X67474035Y-55227830D01*
X67573903Y-55013663D01*
X67635063Y-54785408D01*
X67655659Y-54550000D01*
X67635063Y-54314592D01*
X67573903Y-54086337D01*
X67474035Y-53872171D01*
X67468425Y-53864158D01*
X67338494Y-53678597D01*
X67171402Y-53511506D01*
X67171396Y-53511501D01*
X66985842Y-53381575D01*
X66942217Y-53326998D01*
X66935023Y-53257500D01*
X66966546Y-53195145D01*
X66985842Y-53178425D01*
X67071426Y-53118498D01*
X67171401Y-53048495D01*
X67338495Y-52881401D01*
X67474035Y-52687830D01*
X67573903Y-52473663D01*
X67635063Y-52245408D01*
X67655659Y-52010000D01*
X67635063Y-51774592D01*
X67573903Y-51546337D01*
X67474035Y-51332171D01*
X67468425Y-51324158D01*
X67338494Y-51138597D01*
X67171402Y-50971506D01*
X67171396Y-50971501D01*
X66985842Y-50841575D01*
X66942217Y-50786998D01*
X66935023Y-50717500D01*
X66966546Y-50655145D01*
X66985842Y-50638425D01*
X67071426Y-50578498D01*
X67171401Y-50508495D01*
X67338495Y-50341401D01*
X67474035Y-50147830D01*
X67573903Y-49933663D01*
X67635063Y-49705408D01*
X67655659Y-49470000D01*
X67635063Y-49234592D01*
X67573903Y-49006337D01*
X67474035Y-48792171D01*
X67468425Y-48784158D01*
X67338494Y-48598597D01*
X67171402Y-48431506D01*
X67171396Y-48431501D01*
X66985842Y-48301575D01*
X66942217Y-48246998D01*
X66935023Y-48177500D01*
X66966546Y-48115145D01*
X66985842Y-48098425D01*
X67058132Y-48047807D01*
X67171401Y-47968495D01*
X67338495Y-47801401D01*
X67474035Y-47607830D01*
X67573903Y-47393663D01*
X67635063Y-47165408D01*
X67655659Y-46930000D01*
X67655605Y-46929388D01*
X67644898Y-46807007D01*
X67635063Y-46694592D01*
X67573903Y-46466337D01*
X67474035Y-46252171D01*
X67468425Y-46244158D01*
X67338494Y-46058597D01*
X67171402Y-45891506D01*
X67171396Y-45891501D01*
X66985842Y-45761575D01*
X66942217Y-45706998D01*
X66935023Y-45637500D01*
X66966546Y-45575145D01*
X66985842Y-45558425D01*
X67084438Y-45489387D01*
X67171401Y-45428495D01*
X67338495Y-45261401D01*
X67474035Y-45067830D01*
X67573903Y-44853663D01*
X67635063Y-44625408D01*
X67655659Y-44390000D01*
X67635063Y-44154592D01*
X67573903Y-43926337D01*
X67474035Y-43712171D01*
X67468425Y-43704158D01*
X67338494Y-43518597D01*
X67171402Y-43351506D01*
X67171396Y-43351501D01*
X66985842Y-43221575D01*
X66942217Y-43166998D01*
X66935023Y-43097500D01*
X66966546Y-43035145D01*
X66985842Y-43018425D01*
X67008026Y-43002891D01*
X67171401Y-42888495D01*
X67338495Y-42721401D01*
X67474035Y-42527830D01*
X67573903Y-42313663D01*
X67635063Y-42085408D01*
X67655659Y-41850000D01*
X67635063Y-41614592D01*
X67573903Y-41386337D01*
X67487012Y-41200000D01*
X81844815Y-41200000D01*
X81863503Y-41377805D01*
X81863504Y-41377807D01*
X81918747Y-41547829D01*
X81918750Y-41547835D01*
X82008141Y-41702665D01*
X82041871Y-41740126D01*
X82127764Y-41835521D01*
X82127767Y-41835523D01*
X82127770Y-41835526D01*
X82272407Y-41940612D01*
X82435733Y-42013329D01*
X82610609Y-42050500D01*
X82610610Y-42050500D01*
X82789389Y-42050500D01*
X82789391Y-42050500D01*
X82964267Y-42013329D01*
X83127593Y-41940612D01*
X83272230Y-41835526D01*
X83391859Y-41702665D01*
X83481250Y-41547835D01*
X83536497Y-41377803D01*
X83555185Y-41200000D01*
X85344815Y-41200000D01*
X85363503Y-41377805D01*
X85363504Y-41377807D01*
X85418747Y-41547829D01*
X85418750Y-41547835D01*
X85508141Y-41702665D01*
X85541871Y-41740126D01*
X85627764Y-41835521D01*
X85627767Y-41835523D01*
X85627770Y-41835526D01*
X85772407Y-41940612D01*
X85935733Y-42013329D01*
X86110609Y-42050500D01*
X86110610Y-42050500D01*
X86289389Y-42050500D01*
X86289391Y-42050500D01*
X86464267Y-42013329D01*
X86627593Y-41940612D01*
X86772230Y-41835526D01*
X86891859Y-41702665D01*
X86981250Y-41547835D01*
X87036497Y-41377803D01*
X87055185Y-41200000D01*
X87036497Y-41022197D01*
X87000042Y-40910000D01*
X86981252Y-40852170D01*
X86981250Y-40852167D01*
X86981250Y-40852165D01*
X86900326Y-40712000D01*
X86883853Y-40644099D01*
X86900326Y-40588000D01*
X86947137Y-40506920D01*
X86981250Y-40447835D01*
X86981735Y-40446344D01*
X86986340Y-40432170D01*
X87036497Y-40277803D01*
X87055185Y-40100000D01*
X87036497Y-39922197D01*
X86993126Y-39788716D01*
X86981252Y-39752170D01*
X86981249Y-39752164D01*
X86891859Y-39597335D01*
X86838816Y-39538425D01*
X86772235Y-39464478D01*
X86772232Y-39464476D01*
X86772231Y-39464475D01*
X86772230Y-39464474D01*
X86627593Y-39359388D01*
X86464267Y-39286671D01*
X86464265Y-39286670D01*
X86336594Y-39259533D01*
X86289391Y-39249500D01*
X86110609Y-39249500D01*
X86079954Y-39256015D01*
X85935733Y-39286670D01*
X85935728Y-39286672D01*
X85772408Y-39359387D01*
X85627768Y-39464475D01*
X85508140Y-39597336D01*
X85418750Y-39752164D01*
X85418747Y-39752170D01*
X85363504Y-39922192D01*
X85363503Y-39922194D01*
X85344815Y-40100000D01*
X85363503Y-40277805D01*
X85363504Y-40277807D01*
X85418747Y-40447829D01*
X85418749Y-40447832D01*
X85418750Y-40447835D01*
X85452863Y-40506920D01*
X85499674Y-40588001D01*
X85516146Y-40655901D01*
X85499674Y-40711999D01*
X85418749Y-40852167D01*
X85418747Y-40852170D01*
X85363504Y-41022192D01*
X85363503Y-41022194D01*
X85344815Y-41200000D01*
X83555185Y-41200000D01*
X83536497Y-41022197D01*
X83500042Y-40910000D01*
X83481252Y-40852170D01*
X83481250Y-40852167D01*
X83481250Y-40852165D01*
X83400326Y-40712000D01*
X83383853Y-40644099D01*
X83400326Y-40588000D01*
X83447137Y-40506920D01*
X83481250Y-40447835D01*
X83481735Y-40446344D01*
X83486340Y-40432170D01*
X83536497Y-40277803D01*
X83555185Y-40100000D01*
X83536497Y-39922197D01*
X83493126Y-39788716D01*
X83481252Y-39752170D01*
X83481249Y-39752164D01*
X83391859Y-39597335D01*
X83338816Y-39538425D01*
X83272235Y-39464478D01*
X83272232Y-39464476D01*
X83272231Y-39464475D01*
X83272230Y-39464474D01*
X83127593Y-39359388D01*
X82964267Y-39286671D01*
X82964265Y-39286670D01*
X82836594Y-39259533D01*
X82789391Y-39249500D01*
X82610609Y-39249500D01*
X82579954Y-39256015D01*
X82435733Y-39286670D01*
X82435728Y-39286672D01*
X82272408Y-39359387D01*
X82127768Y-39464475D01*
X82008140Y-39597336D01*
X81918750Y-39752164D01*
X81918747Y-39752170D01*
X81863504Y-39922192D01*
X81863503Y-39922194D01*
X81844815Y-40100000D01*
X81863503Y-40277805D01*
X81863504Y-40277807D01*
X81918747Y-40447829D01*
X81918749Y-40447832D01*
X81918750Y-40447835D01*
X81952863Y-40506920D01*
X81999674Y-40588001D01*
X82016146Y-40655901D01*
X81999674Y-40711999D01*
X81918749Y-40852167D01*
X81918747Y-40852170D01*
X81863504Y-41022192D01*
X81863503Y-41022194D01*
X81844815Y-41200000D01*
X67487012Y-41200000D01*
X67474035Y-41172171D01*
X67468425Y-41164158D01*
X67338494Y-40978597D01*
X67171402Y-40811506D01*
X67171396Y-40811501D01*
X66985842Y-40681575D01*
X66942217Y-40626998D01*
X66935023Y-40557500D01*
X66966546Y-40495145D01*
X66985842Y-40478425D01*
X67051909Y-40432164D01*
X67171401Y-40348495D01*
X67338495Y-40181401D01*
X67474035Y-39987830D01*
X67573903Y-39773663D01*
X67635063Y-39545408D01*
X67655659Y-39310000D01*
X67635063Y-39074592D01*
X67573903Y-38846337D01*
X67474035Y-38632171D01*
X67468425Y-38624158D01*
X67338494Y-38438597D01*
X67171402Y-38271506D01*
X67171396Y-38271501D01*
X66985842Y-38141575D01*
X66942217Y-38086998D01*
X66935023Y-38017500D01*
X66966546Y-37955145D01*
X66985842Y-37938425D01*
X67066191Y-37882164D01*
X67171401Y-37808495D01*
X67338495Y-37641401D01*
X67474035Y-37447830D01*
X67573903Y-37233663D01*
X67635063Y-37005408D01*
X67655659Y-36770000D01*
X67635063Y-36534592D01*
X67573903Y-36306337D01*
X67474035Y-36092171D01*
X67468425Y-36084158D01*
X67338494Y-35898597D01*
X67171402Y-35731506D01*
X67171396Y-35731501D01*
X66985842Y-35601575D01*
X66942217Y-35546998D01*
X66935023Y-35477500D01*
X66966546Y-35415145D01*
X66985842Y-35398425D01*
X67079557Y-35332805D01*
X67171401Y-35268495D01*
X67338495Y-35101401D01*
X67474035Y-34907830D01*
X67573903Y-34693663D01*
X67635063Y-34465408D01*
X67655659Y-34230000D01*
X67635063Y-33994592D01*
X67573903Y-33766337D01*
X67474035Y-33552171D01*
X67468424Y-33544158D01*
X67338496Y-33358600D01*
X67329242Y-33349346D01*
X67216567Y-33236671D01*
X67183084Y-33175351D01*
X67188068Y-33105659D01*
X67229939Y-33049725D01*
X67260915Y-33032810D01*
X67392331Y-32983796D01*
X67507546Y-32897546D01*
X67593796Y-32782331D01*
X67644091Y-32647483D01*
X67650500Y-32587873D01*
X67650499Y-30792128D01*
X67644091Y-30732517D01*
X67642810Y-30729083D01*
X67593797Y-30597671D01*
X67593793Y-30597664D01*
X67507547Y-30482455D01*
X67507544Y-30482452D01*
X67392335Y-30396206D01*
X67392328Y-30396202D01*
X67257482Y-30345908D01*
X67257483Y-30345908D01*
X67197883Y-30339501D01*
X67197881Y-30339500D01*
X67197873Y-30339500D01*
X67197864Y-30339500D01*
X65402129Y-30339500D01*
X65402123Y-30339501D01*
X65342516Y-30345908D01*
X65207671Y-30396202D01*
X65207664Y-30396206D01*
X65092455Y-30482452D01*
X65092452Y-30482455D01*
X65006206Y-30597664D01*
X65006203Y-30597669D01*
X64957189Y-30729083D01*
X64915317Y-30785016D01*
X64849853Y-30809433D01*
X64781580Y-30794581D01*
X64753326Y-30773430D01*
X64631402Y-30651506D01*
X64631395Y-30651501D01*
X64437834Y-30515967D01*
X64437830Y-30515965D01*
X64383220Y-30490500D01*
X64223663Y-30416097D01*
X64223659Y-30416096D01*
X64223655Y-30416094D01*
X63995413Y-30354938D01*
X63995403Y-30354936D01*
X63760001Y-30334341D01*
X63759999Y-30334341D01*
X63524596Y-30354936D01*
X63524586Y-30354938D01*
X63296344Y-30416094D01*
X63296335Y-30416098D01*
X63082171Y-30515964D01*
X63082169Y-30515965D01*
X62888597Y-30651505D01*
X62721505Y-30818597D01*
X62585965Y-31012169D01*
X62585964Y-31012171D01*
X62539334Y-31112170D01*
X62488105Y-31222032D01*
X62486098Y-31226335D01*
X62486094Y-31226344D01*
X62424938Y-31454586D01*
X62424936Y-31454596D01*
X62404341Y-31689999D01*
X62404341Y-31690000D01*
X62424936Y-31925403D01*
X62424938Y-31925413D01*
X62486094Y-32153655D01*
X62486096Y-32153659D01*
X62486097Y-32153663D01*
X62570499Y-32334663D01*
X62585965Y-32367830D01*
X62585967Y-32367834D01*
X62721501Y-32561395D01*
X62721506Y-32561402D01*
X62888597Y-32728493D01*
X62888603Y-32728498D01*
X63074158Y-32858425D01*
X63117783Y-32913002D01*
X63124977Y-32982500D01*
X63093454Y-33044855D01*
X63074158Y-33061575D01*
X62888597Y-33191505D01*
X62721505Y-33358597D01*
X62585965Y-33552169D01*
X62585964Y-33552171D01*
X62492401Y-33752816D01*
X62488105Y-33762032D01*
X62486098Y-33766335D01*
X62486094Y-33766344D01*
X62424938Y-33994586D01*
X62424936Y-33994596D01*
X62404341Y-34229999D01*
X62404341Y-34230000D01*
X62424936Y-34465403D01*
X62424938Y-34465413D01*
X62486094Y-34693655D01*
X62486096Y-34693659D01*
X62486097Y-34693663D01*
X62566004Y-34865023D01*
X62585965Y-34907830D01*
X62585967Y-34907834D01*
X62634534Y-34977194D01*
X62721501Y-35101396D01*
X62721506Y-35101402D01*
X62888597Y-35268493D01*
X62888603Y-35268498D01*
X63074158Y-35398425D01*
X63117783Y-35453002D01*
X63124977Y-35522500D01*
X63093454Y-35584855D01*
X63074158Y-35601575D01*
X62888597Y-35731505D01*
X62721505Y-35898597D01*
X62585965Y-36092169D01*
X62585964Y-36092171D01*
X62503041Y-36270000D01*
X62488105Y-36302032D01*
X62486098Y-36306335D01*
X62486094Y-36306344D01*
X62424938Y-36534586D01*
X62424936Y-36534596D01*
X62404341Y-36769999D01*
X62404341Y-36770000D01*
X62424936Y-37005403D01*
X62424938Y-37005413D01*
X62486094Y-37233655D01*
X62486096Y-37233659D01*
X62486097Y-37233663D01*
X62529777Y-37327335D01*
X62585965Y-37447830D01*
X62585967Y-37447834D01*
X62688646Y-37594474D01*
X62721501Y-37641396D01*
X62721506Y-37641402D01*
X62888597Y-37808493D01*
X62888603Y-37808498D01*
X63074158Y-37938425D01*
X63117783Y-37993002D01*
X63124977Y-38062500D01*
X63093454Y-38124855D01*
X63074158Y-38141575D01*
X62888597Y-38271505D01*
X62721505Y-38438597D01*
X62585965Y-38632169D01*
X62585964Y-38632171D01*
X62524037Y-38764974D01*
X62488105Y-38842032D01*
X62486098Y-38846335D01*
X62486094Y-38846344D01*
X62424938Y-39074586D01*
X62424936Y-39074596D01*
X62404341Y-39309999D01*
X62404341Y-39310000D01*
X62424936Y-39545403D01*
X62424938Y-39545413D01*
X62486094Y-39773655D01*
X62486096Y-39773659D01*
X62486097Y-39773663D01*
X62555360Y-39922197D01*
X62585965Y-39987830D01*
X62585967Y-39987834D01*
X62651473Y-40081385D01*
X62721501Y-40181396D01*
X62721506Y-40181402D01*
X62888597Y-40348493D01*
X62888603Y-40348498D01*
X63074158Y-40478425D01*
X63117783Y-40533002D01*
X63124977Y-40602500D01*
X63093454Y-40664855D01*
X63074158Y-40681575D01*
X62888597Y-40811505D01*
X62721505Y-40978597D01*
X62585965Y-41172169D01*
X62585964Y-41172171D01*
X62516006Y-41322197D01*
X62488105Y-41382032D01*
X62486098Y-41386335D01*
X62486094Y-41386344D01*
X62424938Y-41614586D01*
X62424936Y-41614596D01*
X62404341Y-41849999D01*
X62404341Y-41850000D01*
X62424936Y-42085403D01*
X62424938Y-42085413D01*
X62486094Y-42313655D01*
X62486096Y-42313659D01*
X62486097Y-42313663D01*
X62528932Y-42405523D01*
X62585965Y-42527830D01*
X62585967Y-42527834D01*
X62629931Y-42590620D01*
X62721501Y-42721396D01*
X62721506Y-42721402D01*
X62888597Y-42888493D01*
X62888603Y-42888498D01*
X63074158Y-43018425D01*
X63117783Y-43073002D01*
X63124977Y-43142500D01*
X63093454Y-43204855D01*
X63074158Y-43221575D01*
X62888597Y-43351505D01*
X62721505Y-43518597D01*
X62585965Y-43712169D01*
X62585964Y-43712171D01*
X62516771Y-43860556D01*
X62488105Y-43922032D01*
X62486098Y-43926335D01*
X62486094Y-43926344D01*
X62424938Y-44154586D01*
X62424936Y-44154596D01*
X62404341Y-44389999D01*
X62404341Y-44390000D01*
X62424936Y-44625403D01*
X62424938Y-44625413D01*
X62486094Y-44853655D01*
X62486096Y-44853659D01*
X62486097Y-44853663D01*
X62531720Y-44951501D01*
X62585965Y-45067830D01*
X62585967Y-45067834D01*
X62673374Y-45192663D01*
X62721501Y-45261396D01*
X62721506Y-45261402D01*
X62888597Y-45428493D01*
X62888603Y-45428498D01*
X63074158Y-45558425D01*
X63117783Y-45613002D01*
X63124977Y-45682500D01*
X63093454Y-45744855D01*
X63074158Y-45761575D01*
X62888597Y-45891505D01*
X62721505Y-46058597D01*
X62585965Y-46252169D01*
X62585964Y-46252171D01*
X62513392Y-46407803D01*
X62488105Y-46462032D01*
X62486098Y-46466335D01*
X62486094Y-46466344D01*
X62424938Y-46694586D01*
X62424936Y-46694596D01*
X62404341Y-46929999D01*
X62404341Y-46930000D01*
X62424936Y-47165403D01*
X62424938Y-47165413D01*
X62486094Y-47393655D01*
X62486096Y-47393659D01*
X62486097Y-47393663D01*
X62535683Y-47500000D01*
X62585965Y-47607830D01*
X62585967Y-47607834D01*
X62645036Y-47692192D01*
X62721501Y-47801396D01*
X62721506Y-47801402D01*
X62888597Y-47968493D01*
X62888603Y-47968498D01*
X63074158Y-48098425D01*
X63117783Y-48153002D01*
X63124977Y-48222500D01*
X63093454Y-48284855D01*
X63074158Y-48301575D01*
X62888597Y-48431505D01*
X62721505Y-48598597D01*
X62585965Y-48792169D01*
X62585964Y-48792171D01*
X62553206Y-48862422D01*
X62488105Y-49002032D01*
X62486098Y-49006335D01*
X62486094Y-49006344D01*
X62424938Y-49234586D01*
X62424936Y-49234596D01*
X62404341Y-49469999D01*
X62404341Y-49470000D01*
X62424936Y-49705403D01*
X62424938Y-49705413D01*
X62486094Y-49933655D01*
X62486096Y-49933659D01*
X62486097Y-49933663D01*
X62531720Y-50031501D01*
X62585965Y-50147830D01*
X62585967Y-50147834D01*
X62634982Y-50217834D01*
X62721501Y-50341396D01*
X62721506Y-50341402D01*
X62888597Y-50508493D01*
X62888603Y-50508498D01*
X63074158Y-50638425D01*
X63117783Y-50693002D01*
X63124977Y-50762500D01*
X63093454Y-50824855D01*
X63074158Y-50841575D01*
X62888597Y-50971505D01*
X62721505Y-51138597D01*
X62585965Y-51332169D01*
X62585964Y-51332171D01*
X62492401Y-51532816D01*
X62488105Y-51542032D01*
X62486098Y-51546335D01*
X62486094Y-51546344D01*
X62424938Y-51774586D01*
X62424936Y-51774596D01*
X62404341Y-52009999D01*
X62404341Y-52010000D01*
X62424936Y-52245403D01*
X62424938Y-52245413D01*
X62486094Y-52473655D01*
X62486096Y-52473659D01*
X62486097Y-52473663D01*
X62535683Y-52580000D01*
X62585965Y-52687830D01*
X62585967Y-52687834D01*
X62634982Y-52757834D01*
X62721501Y-52881396D01*
X62721506Y-52881402D01*
X62888597Y-53048493D01*
X62888603Y-53048498D01*
X63074158Y-53178425D01*
X63117783Y-53233002D01*
X63124977Y-53302500D01*
X63093454Y-53364855D01*
X63074158Y-53381575D01*
X62888597Y-53511505D01*
X62721505Y-53678597D01*
X62585965Y-53872169D01*
X62585964Y-53872171D01*
X62486098Y-54086335D01*
X62486094Y-54086344D01*
X62424938Y-54314586D01*
X62424936Y-54314596D01*
X62404341Y-54549999D01*
X62404341Y-54550000D01*
X62424936Y-54785403D01*
X62424938Y-54785413D01*
X62486094Y-55013655D01*
X62486096Y-55013659D01*
X62486097Y-55013663D01*
X62535683Y-55120000D01*
X62585965Y-55227830D01*
X62585967Y-55227834D01*
X62634982Y-55297834D01*
X62721501Y-55421396D01*
X62721506Y-55421402D01*
X62888597Y-55588493D01*
X62888603Y-55588498D01*
X63074158Y-55718425D01*
X63117783Y-55773002D01*
X63124977Y-55842500D01*
X63093454Y-55904855D01*
X63074158Y-55921575D01*
X62888597Y-56051505D01*
X62721505Y-56218597D01*
X62585965Y-56412169D01*
X62585964Y-56412171D01*
X62486098Y-56626335D01*
X62486094Y-56626344D01*
X62424938Y-56854586D01*
X62424936Y-56854596D01*
X62404341Y-57089999D01*
X62404341Y-57090000D01*
X62424936Y-57325403D01*
X62424938Y-57325413D01*
X62486094Y-57553655D01*
X62486096Y-57553659D01*
X62486097Y-57553663D01*
X62535683Y-57660000D01*
X62585965Y-57767830D01*
X62585967Y-57767834D01*
X62634982Y-57837834D01*
X62721501Y-57961396D01*
X62721506Y-57961402D01*
X62888597Y-58128493D01*
X62888603Y-58128498D01*
X63074158Y-58258425D01*
X63117783Y-58313002D01*
X63124977Y-58382500D01*
X63093454Y-58444855D01*
X63074158Y-58461575D01*
X62888597Y-58591505D01*
X62721505Y-58758597D01*
X62585965Y-58952169D01*
X62585964Y-58952171D01*
X62486098Y-59166335D01*
X62486094Y-59166344D01*
X62424938Y-59394586D01*
X62424936Y-59394596D01*
X62404341Y-59629999D01*
X62404341Y-59630000D01*
X62424936Y-59865403D01*
X62424938Y-59865413D01*
X62486094Y-60093655D01*
X62486096Y-60093659D01*
X62486097Y-60093663D01*
X62490000Y-60102032D01*
X62585965Y-60307830D01*
X62585967Y-60307834D01*
X62633618Y-60375886D01*
X62721501Y-60501396D01*
X62721506Y-60501402D01*
X62888597Y-60668493D01*
X62888603Y-60668498D01*
X63074158Y-60798425D01*
X63117783Y-60853002D01*
X63124977Y-60922500D01*
X63093454Y-60984855D01*
X63074158Y-61001575D01*
X62888597Y-61131505D01*
X62721505Y-61298597D01*
X62585965Y-61492169D01*
X62585964Y-61492171D01*
X62486098Y-61706335D01*
X62486094Y-61706344D01*
X62424938Y-61934586D01*
X62424936Y-61934596D01*
X62404341Y-62169999D01*
X62404341Y-62170000D01*
X51249497Y-62170000D01*
X51178494Y-62068597D01*
X51011402Y-61901506D01*
X51011396Y-61901501D01*
X50825842Y-61771575D01*
X50782217Y-61716998D01*
X50775023Y-61647500D01*
X50806546Y-61585145D01*
X50825842Y-61568425D01*
X50848026Y-61552891D01*
X51011401Y-61438495D01*
X51178495Y-61271401D01*
X51314035Y-61077830D01*
X51413903Y-60863663D01*
X51475063Y-60635408D01*
X51495659Y-60400000D01*
X51475063Y-60164592D01*
X51413903Y-59936337D01*
X51314035Y-59722171D01*
X51308425Y-59714158D01*
X51178494Y-59528597D01*
X51011402Y-59361506D01*
X51011395Y-59361501D01*
X50817834Y-59225967D01*
X50817830Y-59225965D01*
X50817828Y-59225964D01*
X50603663Y-59126097D01*
X50603659Y-59126096D01*
X50603655Y-59126094D01*
X50375413Y-59064938D01*
X50375403Y-59064936D01*
X50140001Y-59044341D01*
X50139999Y-59044341D01*
X49904596Y-59064936D01*
X49904586Y-59064938D01*
X49676344Y-59126094D01*
X49676335Y-59126098D01*
X49462171Y-59225964D01*
X49462169Y-59225965D01*
X49268597Y-59361505D01*
X49101505Y-59528597D01*
X48971575Y-59714158D01*
X48916998Y-59757783D01*
X48847500Y-59764977D01*
X48785145Y-59733454D01*
X48768425Y-59714158D01*
X48638494Y-59528597D01*
X48471402Y-59361506D01*
X48471395Y-59361501D01*
X48277834Y-59225967D01*
X48277830Y-59225965D01*
X48277828Y-59225964D01*
X48063663Y-59126097D01*
X48063659Y-59126096D01*
X48063655Y-59126094D01*
X47835413Y-59064938D01*
X47835403Y-59064936D01*
X47600001Y-59044341D01*
X47599999Y-59044341D01*
X47364596Y-59064936D01*
X47364586Y-59064938D01*
X47136344Y-59126094D01*
X47136335Y-59126098D01*
X46922171Y-59225964D01*
X46922169Y-59225965D01*
X46728597Y-59361505D01*
X46561505Y-59528597D01*
X46431575Y-59714158D01*
X46376998Y-59757783D01*
X46307500Y-59764977D01*
X46245145Y-59733454D01*
X46228425Y-59714158D01*
X46098494Y-59528597D01*
X45931402Y-59361506D01*
X45931395Y-59361501D01*
X45737834Y-59225967D01*
X45737830Y-59225965D01*
X45737828Y-59225964D01*
X45523663Y-59126097D01*
X45523659Y-59126096D01*
X45523655Y-59126094D01*
X45295413Y-59064938D01*
X45295403Y-59064936D01*
X45060001Y-59044341D01*
X45059999Y-59044341D01*
X44824596Y-59064936D01*
X44824586Y-59064938D01*
X44596344Y-59126094D01*
X44596335Y-59126098D01*
X44382171Y-59225964D01*
X44382169Y-59225965D01*
X44188597Y-59361505D01*
X44021505Y-59528597D01*
X43891575Y-59714158D01*
X43836998Y-59757783D01*
X43767500Y-59764977D01*
X43705145Y-59733454D01*
X43688425Y-59714158D01*
X43558494Y-59528597D01*
X43391402Y-59361506D01*
X43391395Y-59361501D01*
X43197834Y-59225967D01*
X43197830Y-59225965D01*
X43197828Y-59225964D01*
X42983663Y-59126097D01*
X42983659Y-59126096D01*
X42983655Y-59126094D01*
X42755413Y-59064938D01*
X42755403Y-59064936D01*
X42520001Y-59044341D01*
X42519999Y-59044341D01*
X42284596Y-59064936D01*
X42284586Y-59064938D01*
X42056344Y-59126094D01*
X42056335Y-59126098D01*
X41842171Y-59225964D01*
X41842169Y-59225965D01*
X41648597Y-59361505D01*
X41481505Y-59528597D01*
X41351575Y-59714158D01*
X41296998Y-59757783D01*
X41227500Y-59764977D01*
X41165145Y-59733454D01*
X41148425Y-59714158D01*
X41018494Y-59528597D01*
X40851402Y-59361506D01*
X40851395Y-59361501D01*
X40657834Y-59225967D01*
X40657830Y-59225965D01*
X40657828Y-59225964D01*
X40443663Y-59126097D01*
X40443659Y-59126096D01*
X40443655Y-59126094D01*
X40215413Y-59064938D01*
X40215403Y-59064936D01*
X39980001Y-59044341D01*
X39979999Y-59044341D01*
X39744596Y-59064936D01*
X39744586Y-59064938D01*
X39516344Y-59126094D01*
X39516335Y-59126098D01*
X39302171Y-59225964D01*
X39302169Y-59225965D01*
X39108597Y-59361505D01*
X38941505Y-59528597D01*
X38811575Y-59714158D01*
X38756998Y-59757783D01*
X38687500Y-59764977D01*
X38625145Y-59733454D01*
X38608425Y-59714158D01*
X38478494Y-59528597D01*
X38311402Y-59361506D01*
X38311395Y-59361501D01*
X38117834Y-59225967D01*
X38117830Y-59225965D01*
X38117828Y-59225964D01*
X37903663Y-59126097D01*
X37903659Y-59126096D01*
X37903655Y-59126094D01*
X37675413Y-59064938D01*
X37675403Y-59064936D01*
X37440001Y-59044341D01*
X37439999Y-59044341D01*
X37204596Y-59064936D01*
X37204586Y-59064938D01*
X36976344Y-59126094D01*
X36976335Y-59126098D01*
X36762171Y-59225964D01*
X36762169Y-59225965D01*
X36568597Y-59361505D01*
X36401505Y-59528597D01*
X36271575Y-59714158D01*
X36216998Y-59757783D01*
X36147500Y-59764977D01*
X36085145Y-59733454D01*
X36068425Y-59714158D01*
X35938494Y-59528597D01*
X35771402Y-59361506D01*
X35771395Y-59361501D01*
X35577834Y-59225967D01*
X35577830Y-59225965D01*
X35577828Y-59225964D01*
X35363663Y-59126097D01*
X35363659Y-59126096D01*
X35363655Y-59126094D01*
X35135413Y-59064938D01*
X35135403Y-59064936D01*
X34900001Y-59044341D01*
X34899999Y-59044341D01*
X34664596Y-59064936D01*
X34664586Y-59064938D01*
X34436344Y-59126094D01*
X34436335Y-59126098D01*
X34222171Y-59225964D01*
X34222169Y-59225965D01*
X34028597Y-59361505D01*
X33861505Y-59528597D01*
X33731575Y-59714158D01*
X33676998Y-59757783D01*
X33607500Y-59764977D01*
X33545145Y-59733454D01*
X33528425Y-59714158D01*
X33398494Y-59528597D01*
X33231402Y-59361506D01*
X33231395Y-59361501D01*
X33037834Y-59225967D01*
X33037830Y-59225965D01*
X33037828Y-59225964D01*
X32823663Y-59126097D01*
X32823659Y-59126096D01*
X32823655Y-59126094D01*
X32595413Y-59064938D01*
X32595403Y-59064936D01*
X32360001Y-59044341D01*
X32359999Y-59044341D01*
X32124596Y-59064936D01*
X32124586Y-59064938D01*
X31896344Y-59126094D01*
X31896335Y-59126098D01*
X31682171Y-59225964D01*
X31682169Y-59225965D01*
X31488597Y-59361505D01*
X31321505Y-59528597D01*
X31191575Y-59714158D01*
X31136998Y-59757783D01*
X31067500Y-59764977D01*
X31005145Y-59733454D01*
X30988425Y-59714158D01*
X30858494Y-59528597D01*
X30691402Y-59361506D01*
X30691395Y-59361501D01*
X30497834Y-59225967D01*
X30497830Y-59225965D01*
X30497828Y-59225964D01*
X30283663Y-59126097D01*
X30283659Y-59126096D01*
X30283655Y-59126094D01*
X30055413Y-59064938D01*
X30055403Y-59064936D01*
X29820001Y-59044341D01*
X29819999Y-59044341D01*
X29584596Y-59064936D01*
X29584586Y-59064938D01*
X29356344Y-59126094D01*
X29356335Y-59126098D01*
X29142171Y-59225964D01*
X29142169Y-59225965D01*
X28948597Y-59361505D01*
X28781505Y-59528597D01*
X28651575Y-59714158D01*
X28596998Y-59757783D01*
X28527500Y-59764977D01*
X28465145Y-59733454D01*
X28448425Y-59714158D01*
X28318494Y-59528597D01*
X28151402Y-59361506D01*
X28151395Y-59361501D01*
X27957834Y-59225967D01*
X27957830Y-59225965D01*
X27957828Y-59225964D01*
X27743663Y-59126097D01*
X27743659Y-59126096D01*
X27743655Y-59126094D01*
X27515413Y-59064938D01*
X27515403Y-59064936D01*
X27280001Y-59044341D01*
X27279999Y-59044341D01*
X27044596Y-59064936D01*
X27044586Y-59064938D01*
X26816344Y-59126094D01*
X26816335Y-59126098D01*
X26602171Y-59225964D01*
X26602169Y-59225965D01*
X26408597Y-59361505D01*
X26241505Y-59528597D01*
X26111575Y-59714158D01*
X26056998Y-59757783D01*
X25987500Y-59764977D01*
X25925145Y-59733454D01*
X25908425Y-59714158D01*
X25778494Y-59528597D01*
X25611402Y-59361506D01*
X25611395Y-59361501D01*
X25417834Y-59225967D01*
X25417830Y-59225965D01*
X25417828Y-59225964D01*
X25203663Y-59126097D01*
X25203659Y-59126096D01*
X25203655Y-59126094D01*
X24975413Y-59064938D01*
X24975403Y-59064936D01*
X24740001Y-59044341D01*
X24739999Y-59044341D01*
X24504596Y-59064936D01*
X24504586Y-59064938D01*
X24276344Y-59126094D01*
X24276335Y-59126098D01*
X24062171Y-59225964D01*
X24062169Y-59225965D01*
X23868597Y-59361505D01*
X23701505Y-59528597D01*
X23571575Y-59714158D01*
X23516998Y-59757783D01*
X23447500Y-59764977D01*
X23385145Y-59733454D01*
X23368425Y-59714158D01*
X23238494Y-59528597D01*
X23071402Y-59361506D01*
X23071395Y-59361501D01*
X22877834Y-59225967D01*
X22877830Y-59225965D01*
X22877828Y-59225964D01*
X22663663Y-59126097D01*
X22663659Y-59126096D01*
X22663655Y-59126094D01*
X22435413Y-59064938D01*
X22435403Y-59064936D01*
X22200001Y-59044341D01*
X22199999Y-59044341D01*
X21964596Y-59064936D01*
X21964586Y-59064938D01*
X21736344Y-59126094D01*
X21736335Y-59126098D01*
X21522171Y-59225964D01*
X21522169Y-59225965D01*
X21328597Y-59361505D01*
X21161505Y-59528597D01*
X21031575Y-59714158D01*
X20976998Y-59757783D01*
X20907500Y-59764977D01*
X20845145Y-59733454D01*
X20828425Y-59714158D01*
X20698494Y-59528597D01*
X20531402Y-59361506D01*
X20531395Y-59361501D01*
X20337834Y-59225967D01*
X20337830Y-59225965D01*
X20337828Y-59225964D01*
X20123663Y-59126097D01*
X20123659Y-59126096D01*
X20123655Y-59126094D01*
X19895413Y-59064938D01*
X19895403Y-59064936D01*
X19660001Y-59044341D01*
X19659999Y-59044341D01*
X19424596Y-59064936D01*
X19424586Y-59064938D01*
X19196344Y-59126094D01*
X19196335Y-59126098D01*
X18982171Y-59225964D01*
X18982169Y-59225965D01*
X18788600Y-59361503D01*
X18666673Y-59483430D01*
X18605350Y-59516914D01*
X18535658Y-59511930D01*
X18479725Y-59470058D01*
X18462810Y-59439081D01*
X18413797Y-59307671D01*
X18413793Y-59307664D01*
X18327547Y-59192455D01*
X18327544Y-59192452D01*
X18212335Y-59106206D01*
X18212328Y-59106202D01*
X18077482Y-59055908D01*
X18077483Y-59055908D01*
X18017883Y-59049501D01*
X18017881Y-59049500D01*
X18017873Y-59049500D01*
X18017864Y-59049500D01*
X16222129Y-59049500D01*
X16222123Y-59049501D01*
X16162516Y-59055908D01*
X16027671Y-59106202D01*
X16027664Y-59106206D01*
X15912455Y-59192452D01*
X15912452Y-59192455D01*
X15826206Y-59307664D01*
X15826202Y-59307671D01*
X15775908Y-59442517D01*
X15769501Y-59502116D01*
X15769500Y-59502135D01*
X15769500Y-61297870D01*
X15769501Y-61297876D01*
X15775908Y-61357483D01*
X15826202Y-61492328D01*
X15826206Y-61492335D01*
X15912452Y-61607544D01*
X15912455Y-61607547D01*
X16027664Y-61693793D01*
X16027671Y-61693797D01*
X16159081Y-61742810D01*
X16215015Y-61784681D01*
X16239432Y-61850145D01*
X16224580Y-61918418D01*
X16203430Y-61946673D01*
X16081503Y-62068600D01*
X15945965Y-62262169D01*
X15945964Y-62262171D01*
X15846098Y-62476335D01*
X15846094Y-62476344D01*
X15784938Y-62704586D01*
X15784936Y-62704596D01*
X15764341Y-62939999D01*
X15764341Y-62940000D01*
X9546496Y-62940000D01*
X9523737Y-62855063D01*
X9384755Y-62493005D01*
X9208689Y-62147456D01*
X8997468Y-61822206D01*
X8788904Y-61564649D01*
X8788903Y-61564648D01*
X7294251Y-63059300D01*
X7220412Y-62957670D01*
X7042330Y-62779588D01*
X6940698Y-62705748D01*
X8435350Y-61211096D01*
X8435350Y-61211095D01*
X8177793Y-61002531D01*
X7852543Y-60791310D01*
X7506994Y-60615244D01*
X7144936Y-60476262D01*
X6770330Y-60375887D01*
X6770323Y-60375886D01*
X6387287Y-60315219D01*
X6000001Y-60294922D01*
X5999999Y-60294922D01*
X5612712Y-60315219D01*
X5229676Y-60375886D01*
X5229669Y-60375887D01*
X4855063Y-60476262D01*
X4493005Y-60615244D01*
X4147456Y-60791310D01*
X3822206Y-61002531D01*
X3564648Y-61211095D01*
X3564648Y-61211096D01*
X5059301Y-62705748D01*
X4957670Y-62779588D01*
X4779588Y-62957670D01*
X4705748Y-63059300D01*
X3211096Y-61564648D01*
X3211095Y-61564648D01*
X3002531Y-61822206D01*
X2791310Y-62147456D01*
X2615244Y-62493005D01*
X2476262Y-62855063D01*
X2375887Y-63229669D01*
X2375886Y-63229676D01*
X2315219Y-63612712D01*
X2294922Y-63999999D01*
X2294922Y-64000000D01*
X1000000Y-64000000D01*
X1000000Y-52990000D01*
X21149815Y-52990000D01*
X21168503Y-53167805D01*
X21168504Y-53167807D01*
X21223747Y-53337829D01*
X21223750Y-53337835D01*
X21313141Y-53492665D01*
X21330105Y-53511505D01*
X21432764Y-53625521D01*
X21432767Y-53625523D01*
X21432770Y-53625526D01*
X21577407Y-53730612D01*
X21740733Y-53803329D01*
X21915609Y-53840500D01*
X21915610Y-53840500D01*
X22094389Y-53840500D01*
X22094391Y-53840500D01*
X22269267Y-53803329D01*
X22432593Y-53730612D01*
X22577230Y-53625526D01*
X22696859Y-53492665D01*
X22786250Y-53337835D01*
X22841497Y-53167803D01*
X22860185Y-52990000D01*
X22841497Y-52812197D01*
X22786250Y-52642165D01*
X22696859Y-52487335D01*
X22650003Y-52435296D01*
X22577235Y-52354478D01*
X22577232Y-52354476D01*
X22577231Y-52354475D01*
X22577230Y-52354474D01*
X22432593Y-52249388D01*
X22299205Y-52190000D01*
X28469815Y-52190000D01*
X28488503Y-52367805D01*
X28488504Y-52367807D01*
X28543747Y-52537829D01*
X28543750Y-52537835D01*
X28633141Y-52692665D01*
X28636002Y-52695842D01*
X28752764Y-52825521D01*
X28752767Y-52825523D01*
X28752770Y-52825526D01*
X28897407Y-52930612D01*
X29060733Y-53003329D01*
X29235609Y-53040500D01*
X29235610Y-53040500D01*
X29414389Y-53040500D01*
X29414391Y-53040500D01*
X29589267Y-53003329D01*
X29752593Y-52930612D01*
X29897230Y-52825526D01*
X30016859Y-52692665D01*
X30106250Y-52537835D01*
X30161497Y-52367803D01*
X30170726Y-52280000D01*
X34964815Y-52280000D01*
X34983503Y-52457805D01*
X34983504Y-52457807D01*
X35038747Y-52627829D01*
X35038750Y-52627835D01*
X35128141Y-52782665D01*
X35154729Y-52812194D01*
X35247764Y-52915521D01*
X35247767Y-52915523D01*
X35247770Y-52915526D01*
X35392407Y-53020612D01*
X35555733Y-53093329D01*
X35730609Y-53130500D01*
X35730610Y-53130500D01*
X35909389Y-53130500D01*
X35909391Y-53130500D01*
X36084267Y-53093329D01*
X36247593Y-53020612D01*
X36392230Y-52915526D01*
X36511859Y-52782665D01*
X36601250Y-52627835D01*
X36656497Y-52457803D01*
X36675185Y-52280000D01*
X39964815Y-52280000D01*
X39983503Y-52457805D01*
X39983504Y-52457807D01*
X40038747Y-52627829D01*
X40038750Y-52627835D01*
X40128141Y-52782665D01*
X40154729Y-52812194D01*
X40247764Y-52915521D01*
X40247767Y-52915523D01*
X40247770Y-52915526D01*
X40392407Y-53020612D01*
X40555733Y-53093329D01*
X40730609Y-53130500D01*
X40730610Y-53130500D01*
X40909389Y-53130500D01*
X40909391Y-53130500D01*
X41084267Y-53093329D01*
X41247593Y-53020612D01*
X41392230Y-52915526D01*
X41511859Y-52782665D01*
X41601250Y-52627835D01*
X41656497Y-52457803D01*
X41675185Y-52280000D01*
X41656497Y-52102197D01*
X41626540Y-52009999D01*
X41601252Y-51932170D01*
X41601249Y-51932164D01*
X41550692Y-51844596D01*
X41511859Y-51777335D01*
X41465003Y-51725296D01*
X41392235Y-51644478D01*
X41392232Y-51644476D01*
X41392231Y-51644475D01*
X41392230Y-51644474D01*
X41247593Y-51539388D01*
X41084267Y-51466671D01*
X41084265Y-51466670D01*
X40956594Y-51439533D01*
X40909391Y-51429500D01*
X40730609Y-51429500D01*
X40699954Y-51436015D01*
X40555733Y-51466670D01*
X40555728Y-51466672D01*
X40392408Y-51539387D01*
X40247768Y-51644475D01*
X40128140Y-51777336D01*
X40038750Y-51932164D01*
X40038747Y-51932170D01*
X39983504Y-52102192D01*
X39983503Y-52102194D01*
X39964815Y-52280000D01*
X36675185Y-52280000D01*
X36656497Y-52102197D01*
X36626540Y-52009999D01*
X36601252Y-51932170D01*
X36601249Y-51932164D01*
X36550692Y-51844596D01*
X36511859Y-51777335D01*
X36465003Y-51725296D01*
X36392235Y-51644478D01*
X36392232Y-51644476D01*
X36392231Y-51644475D01*
X36392230Y-51644474D01*
X36247593Y-51539388D01*
X36084267Y-51466671D01*
X36084265Y-51466670D01*
X35956594Y-51439533D01*
X35909391Y-51429500D01*
X35730609Y-51429500D01*
X35699954Y-51436015D01*
X35555733Y-51466670D01*
X35555728Y-51466672D01*
X35392408Y-51539387D01*
X35247768Y-51644475D01*
X35128140Y-51777336D01*
X35038750Y-51932164D01*
X35038747Y-51932170D01*
X34983504Y-52102192D01*
X34983503Y-52102194D01*
X34964815Y-52280000D01*
X30170726Y-52280000D01*
X30180185Y-52190000D01*
X30161497Y-52012197D01*
X30106250Y-51842165D01*
X30016859Y-51687335D01*
X29970003Y-51635296D01*
X29897235Y-51554478D01*
X29897232Y-51554476D01*
X29897231Y-51554475D01*
X29897230Y-51554474D01*
X29752593Y-51449388D01*
X29589267Y-51376671D01*
X29589265Y-51376670D01*
X29432993Y-51343454D01*
X29414391Y-51339500D01*
X29235609Y-51339500D01*
X29217007Y-51343454D01*
X29060733Y-51376670D01*
X29060728Y-51376672D01*
X28897408Y-51449387D01*
X28752768Y-51554475D01*
X28633140Y-51687336D01*
X28543750Y-51842164D01*
X28543747Y-51842170D01*
X28488504Y-52012192D01*
X28488503Y-52012194D01*
X28469815Y-52190000D01*
X22299205Y-52190000D01*
X22269267Y-52176671D01*
X22269265Y-52176670D01*
X22141594Y-52149533D01*
X22094391Y-52139500D01*
X21915609Y-52139500D01*
X21884954Y-52146015D01*
X21740733Y-52176670D01*
X21740728Y-52176672D01*
X21577408Y-52249387D01*
X21432768Y-52354475D01*
X21313140Y-52487336D01*
X21223750Y-52642164D01*
X21223747Y-52642170D01*
X21168504Y-52812192D01*
X21168503Y-52812194D01*
X21149815Y-52990000D01*
X1000000Y-52990000D01*
X1000000Y-51070000D01*
X4604341Y-51070000D01*
X4624936Y-51305403D01*
X4624938Y-51305413D01*
X4686094Y-51533655D01*
X4686096Y-51533659D01*
X4686097Y-51533663D01*
X4723594Y-51614075D01*
X4785965Y-51747830D01*
X4785967Y-51747834D01*
X4853721Y-51844596D01*
X4921505Y-51941401D01*
X5088599Y-52108495D01*
X5132879Y-52139500D01*
X5282165Y-52244032D01*
X5282167Y-52244033D01*
X5282170Y-52244035D01*
X5496337Y-52343903D01*
X5724592Y-52405063D01*
X5912918Y-52421539D01*
X5959999Y-52425659D01*
X5960000Y-52425659D01*
X5960001Y-52425659D01*
X5999234Y-52422226D01*
X6195408Y-52405063D01*
X6423663Y-52343903D01*
X6637830Y-52244035D01*
X6831401Y-52108495D01*
X6998495Y-51941401D01*
X7128425Y-51755842D01*
X7183002Y-51712217D01*
X7252500Y-51705023D01*
X7314855Y-51736546D01*
X7331575Y-51755842D01*
X7461500Y-51941395D01*
X7461505Y-51941401D01*
X7628599Y-52108495D01*
X7672879Y-52139500D01*
X7822165Y-52244032D01*
X7822167Y-52244033D01*
X7822170Y-52244035D01*
X8036337Y-52343903D01*
X8264592Y-52405063D01*
X8452918Y-52421539D01*
X8499999Y-52425659D01*
X8500000Y-52425659D01*
X8500001Y-52425659D01*
X8539234Y-52422226D01*
X8735408Y-52405063D01*
X8963663Y-52343903D01*
X9177830Y-52244035D01*
X9371401Y-52108495D01*
X9538495Y-51941401D01*
X9674035Y-51747830D01*
X9773903Y-51533663D01*
X9835063Y-51305408D01*
X9855659Y-51070000D01*
X9835063Y-50834592D01*
X9773903Y-50606337D01*
X9724317Y-50500000D01*
X45914815Y-50500000D01*
X45933503Y-50677805D01*
X45933504Y-50677807D01*
X45988747Y-50847829D01*
X45988750Y-50847835D01*
X46078141Y-51002665D01*
X46113460Y-51041891D01*
X46197764Y-51135521D01*
X46197767Y-51135523D01*
X46197770Y-51135526D01*
X46342407Y-51240612D01*
X46505733Y-51313329D01*
X46680609Y-51350500D01*
X46680610Y-51350500D01*
X46859389Y-51350500D01*
X46859391Y-51350500D01*
X47034267Y-51313329D01*
X47197593Y-51240612D01*
X47342230Y-51135526D01*
X47461859Y-51002665D01*
X47551250Y-50847835D01*
X47606497Y-50677803D01*
X47625185Y-50500000D01*
X47606497Y-50322197D01*
X47572504Y-50217578D01*
X47551252Y-50152170D01*
X47551249Y-50152164D01*
X47528186Y-50112217D01*
X47461859Y-49997335D01*
X47404521Y-49933655D01*
X47342235Y-49864478D01*
X47342232Y-49864476D01*
X47342231Y-49864475D01*
X47342230Y-49864474D01*
X47197593Y-49759388D01*
X47034267Y-49686671D01*
X47034265Y-49686670D01*
X46906594Y-49659533D01*
X46859391Y-49649500D01*
X46680609Y-49649500D01*
X46649954Y-49656015D01*
X46505733Y-49686670D01*
X46505728Y-49686672D01*
X46342408Y-49759387D01*
X46197768Y-49864475D01*
X46078140Y-49997336D01*
X45988750Y-50152164D01*
X45988747Y-50152170D01*
X45933504Y-50322192D01*
X45933503Y-50322194D01*
X45914815Y-50500000D01*
X9724317Y-50500000D01*
X9674035Y-50392171D01*
X9668425Y-50384158D01*
X9538494Y-50198597D01*
X9371402Y-50031506D01*
X9371396Y-50031501D01*
X9185842Y-49901575D01*
X9142217Y-49846998D01*
X9135023Y-49777500D01*
X9166546Y-49715145D01*
X9185842Y-49698425D01*
X9255714Y-49649500D01*
X9371401Y-49568495D01*
X9538495Y-49401401D01*
X9674035Y-49207830D01*
X9773903Y-48993663D01*
X9835063Y-48765408D01*
X9855659Y-48530000D01*
X9853517Y-48505523D01*
X9841992Y-48373787D01*
X9835063Y-48294592D01*
X9773903Y-48066337D01*
X9674035Y-47852171D01*
X9670980Y-47847807D01*
X9538494Y-47658597D01*
X9371402Y-47491506D01*
X9371396Y-47491501D01*
X9185842Y-47361575D01*
X9142217Y-47306998D01*
X9135023Y-47237500D01*
X9166546Y-47175145D01*
X9185842Y-47158425D01*
X9218552Y-47135521D01*
X9371401Y-47028495D01*
X9538495Y-46861401D01*
X9674035Y-46667830D01*
X9773903Y-46453663D01*
X9833833Y-46230000D01*
X21534815Y-46230000D01*
X21553503Y-46407805D01*
X21553504Y-46407807D01*
X21608747Y-46577829D01*
X21608750Y-46577835D01*
X21698141Y-46732665D01*
X21739812Y-46778946D01*
X21817764Y-46865521D01*
X21817767Y-46865523D01*
X21817770Y-46865526D01*
X21962407Y-46970612D01*
X22125733Y-47043329D01*
X22300609Y-47080500D01*
X22300610Y-47080500D01*
X22479389Y-47080500D01*
X22479391Y-47080500D01*
X22654267Y-47043329D01*
X22817593Y-46970612D01*
X22962230Y-46865526D01*
X22965944Y-46861402D01*
X23009377Y-46813164D01*
X23081859Y-46732665D01*
X23171250Y-46577835D01*
X23196540Y-46500000D01*
X26814815Y-46500000D01*
X26833503Y-46677805D01*
X26833504Y-46677807D01*
X26888747Y-46847829D01*
X26888750Y-46847835D01*
X26978141Y-47002665D01*
X27006782Y-47034474D01*
X27097764Y-47135521D01*
X27097767Y-47135523D01*
X27097770Y-47135526D01*
X27242407Y-47240612D01*
X27405733Y-47313329D01*
X27454260Y-47323643D01*
X27515740Y-47356834D01*
X27549517Y-47417997D01*
X27546411Y-47483246D01*
X27543504Y-47492193D01*
X27543503Y-47492194D01*
X27524815Y-47670000D01*
X27543503Y-47847805D01*
X27543504Y-47847807D01*
X27598747Y-48017829D01*
X27598750Y-48017835D01*
X27688141Y-48172665D01*
X27712754Y-48200000D01*
X27807764Y-48305521D01*
X27807767Y-48305523D01*
X27807770Y-48305526D01*
X27952407Y-48410612D01*
X28115733Y-48483329D01*
X28290609Y-48520500D01*
X28290610Y-48520500D01*
X28469389Y-48520500D01*
X28469391Y-48520500D01*
X28644267Y-48483329D01*
X28807593Y-48410612D01*
X28807596Y-48410609D01*
X28812532Y-48408412D01*
X28881782Y-48399128D01*
X28945058Y-48428756D01*
X28955117Y-48438720D01*
X29015264Y-48505521D01*
X29015267Y-48505523D01*
X29015270Y-48505526D01*
X29159907Y-48610612D01*
X29323233Y-48683329D01*
X29498109Y-48720500D01*
X29498110Y-48720500D01*
X29676889Y-48720500D01*
X29676891Y-48720500D01*
X29851767Y-48683329D01*
X30015093Y-48610612D01*
X30159730Y-48505526D01*
X30279359Y-48372665D01*
X30368750Y-48217835D01*
X30423997Y-48047803D01*
X30442685Y-47870000D01*
X33732315Y-47870000D01*
X33751003Y-48047805D01*
X33751004Y-48047807D01*
X33806247Y-48217829D01*
X33806250Y-48217835D01*
X33895641Y-48372665D01*
X33929807Y-48410610D01*
X34015264Y-48505521D01*
X34015267Y-48505523D01*
X34015270Y-48505526D01*
X34159907Y-48610612D01*
X34323233Y-48683329D01*
X34498109Y-48720500D01*
X34498110Y-48720500D01*
X34676889Y-48720500D01*
X34676891Y-48720500D01*
X34851767Y-48683329D01*
X35015093Y-48610612D01*
X35159730Y-48505526D01*
X35245352Y-48410432D01*
X35304836Y-48373787D01*
X35374693Y-48375116D01*
X35429647Y-48410432D01*
X35515270Y-48505526D01*
X35659907Y-48610612D01*
X35823233Y-48683329D01*
X35998109Y-48720500D01*
X35998110Y-48720500D01*
X36176889Y-48720500D01*
X36176891Y-48720500D01*
X36351767Y-48683329D01*
X36515093Y-48610612D01*
X36659730Y-48505526D01*
X36779359Y-48372665D01*
X36868750Y-48217835D01*
X36923997Y-48047803D01*
X36942685Y-47870000D01*
X38732315Y-47870000D01*
X38751003Y-48047805D01*
X38751004Y-48047807D01*
X38806247Y-48217829D01*
X38806250Y-48217835D01*
X38895641Y-48372665D01*
X38929807Y-48410610D01*
X39015264Y-48505521D01*
X39015267Y-48505523D01*
X39015270Y-48505526D01*
X39159907Y-48610612D01*
X39323233Y-48683329D01*
X39498109Y-48720500D01*
X39498110Y-48720500D01*
X39676889Y-48720500D01*
X39676891Y-48720500D01*
X39851767Y-48683329D01*
X40015093Y-48610612D01*
X40159730Y-48505526D01*
X40245352Y-48410432D01*
X40304836Y-48373787D01*
X40374693Y-48375116D01*
X40429647Y-48410432D01*
X40515270Y-48505526D01*
X40659907Y-48610612D01*
X40823233Y-48683329D01*
X40998109Y-48720500D01*
X40998110Y-48720500D01*
X41176889Y-48720500D01*
X41176891Y-48720500D01*
X41351767Y-48683329D01*
X41515093Y-48610612D01*
X41659730Y-48505526D01*
X41779359Y-48372665D01*
X41868750Y-48217835D01*
X41923997Y-48047803D01*
X41942685Y-47870000D01*
X43732315Y-47870000D01*
X43751003Y-48047805D01*
X43751004Y-48047807D01*
X43806247Y-48217829D01*
X43806250Y-48217835D01*
X43895641Y-48372665D01*
X43929807Y-48410610D01*
X44015264Y-48505521D01*
X44015267Y-48505523D01*
X44015270Y-48505526D01*
X44159907Y-48610612D01*
X44323233Y-48683329D01*
X44498109Y-48720500D01*
X44498110Y-48720500D01*
X44676889Y-48720500D01*
X44676891Y-48720500D01*
X44851767Y-48683329D01*
X45015093Y-48610612D01*
X45159730Y-48505526D01*
X45279359Y-48372665D01*
X45368750Y-48217835D01*
X45423997Y-48047803D01*
X45442685Y-47870000D01*
X45423997Y-47692197D01*
X45385013Y-47572217D01*
X45368752Y-47522170D01*
X45368749Y-47522164D01*
X45351446Y-47492194D01*
X45279359Y-47367335D01*
X45225031Y-47306998D01*
X45159735Y-47234478D01*
X45159732Y-47234476D01*
X45159731Y-47234475D01*
X45159730Y-47234474D01*
X45015093Y-47129388D01*
X44851767Y-47056671D01*
X44851765Y-47056670D01*
X44719200Y-47028493D01*
X44676891Y-47019500D01*
X44498109Y-47019500D01*
X44467454Y-47026015D01*
X44323233Y-47056670D01*
X44323228Y-47056672D01*
X44159908Y-47129387D01*
X44015268Y-47234475D01*
X43895640Y-47367336D01*
X43806250Y-47522164D01*
X43806247Y-47522170D01*
X43751004Y-47692192D01*
X43751003Y-47692194D01*
X43732315Y-47870000D01*
X41942685Y-47870000D01*
X41923997Y-47692197D01*
X41885013Y-47572217D01*
X41868752Y-47522170D01*
X41868749Y-47522164D01*
X41851446Y-47492194D01*
X41779359Y-47367335D01*
X41725031Y-47306998D01*
X41659735Y-47234478D01*
X41659732Y-47234476D01*
X41659731Y-47234475D01*
X41659730Y-47234474D01*
X41515093Y-47129388D01*
X41351767Y-47056671D01*
X41351765Y-47056670D01*
X41219200Y-47028493D01*
X41176891Y-47019500D01*
X40998109Y-47019500D01*
X40967454Y-47026015D01*
X40823233Y-47056670D01*
X40823228Y-47056672D01*
X40659908Y-47129387D01*
X40515271Y-47234473D01*
X40515270Y-47234474D01*
X40429648Y-47329565D01*
X40370163Y-47366213D01*
X40300306Y-47364882D01*
X40245350Y-47329564D01*
X40159735Y-47234478D01*
X40159732Y-47234476D01*
X40159731Y-47234475D01*
X40159730Y-47234474D01*
X40015093Y-47129388D01*
X39851767Y-47056671D01*
X39851765Y-47056670D01*
X39719200Y-47028493D01*
X39676891Y-47019500D01*
X39498109Y-47019500D01*
X39467454Y-47026015D01*
X39323233Y-47056670D01*
X39323228Y-47056672D01*
X39159908Y-47129387D01*
X39015268Y-47234475D01*
X38895640Y-47367336D01*
X38806250Y-47522164D01*
X38806247Y-47522170D01*
X38751004Y-47692192D01*
X38751003Y-47692194D01*
X38732315Y-47870000D01*
X36942685Y-47870000D01*
X36923997Y-47692197D01*
X36885013Y-47572217D01*
X36868752Y-47522170D01*
X36868749Y-47522164D01*
X36851446Y-47492194D01*
X36779359Y-47367335D01*
X36725031Y-47306998D01*
X36659735Y-47234478D01*
X36659732Y-47234476D01*
X36659731Y-47234475D01*
X36659730Y-47234474D01*
X36515093Y-47129388D01*
X36351767Y-47056671D01*
X36351765Y-47056670D01*
X36219200Y-47028493D01*
X36176891Y-47019500D01*
X35998109Y-47019500D01*
X35967454Y-47026015D01*
X35823233Y-47056670D01*
X35823228Y-47056672D01*
X35659908Y-47129387D01*
X35515271Y-47234473D01*
X35515270Y-47234474D01*
X35429648Y-47329565D01*
X35370163Y-47366213D01*
X35300306Y-47364882D01*
X35245350Y-47329564D01*
X35159735Y-47234478D01*
X35159732Y-47234476D01*
X35159731Y-47234475D01*
X35159730Y-47234474D01*
X35015093Y-47129388D01*
X34851767Y-47056671D01*
X34851765Y-47056670D01*
X34719200Y-47028493D01*
X34676891Y-47019500D01*
X34498109Y-47019500D01*
X34467454Y-47026015D01*
X34323233Y-47056670D01*
X34323228Y-47056672D01*
X34159908Y-47129387D01*
X34015268Y-47234475D01*
X33895640Y-47367336D01*
X33806250Y-47522164D01*
X33806247Y-47522170D01*
X33751004Y-47692192D01*
X33751003Y-47692194D01*
X33732315Y-47870000D01*
X30442685Y-47870000D01*
X30423997Y-47692197D01*
X30385013Y-47572217D01*
X30368752Y-47522170D01*
X30368749Y-47522164D01*
X30351446Y-47492194D01*
X30279359Y-47367335D01*
X30225031Y-47306998D01*
X30159735Y-47234478D01*
X30159732Y-47234476D01*
X30159731Y-47234475D01*
X30159730Y-47234474D01*
X30015093Y-47129388D01*
X29851767Y-47056671D01*
X29851765Y-47056670D01*
X29719200Y-47028493D01*
X29676891Y-47019500D01*
X29498109Y-47019500D01*
X29467454Y-47026015D01*
X29323233Y-47056670D01*
X29323232Y-47056670D01*
X29154967Y-47131587D01*
X29085717Y-47140871D01*
X29022440Y-47111242D01*
X29012382Y-47101279D01*
X28952235Y-47034478D01*
X28952232Y-47034476D01*
X28952231Y-47034475D01*
X28952230Y-47034474D01*
X28807593Y-46929388D01*
X28644267Y-46856671D01*
X28644265Y-46856670D01*
X28644264Y-46856670D01*
X28595740Y-46846356D01*
X28534258Y-46813164D01*
X28500482Y-46752000D01*
X28503590Y-46686747D01*
X28506497Y-46677803D01*
X28525185Y-46500000D01*
X28506497Y-46322197D01*
X28451250Y-46152165D01*
X28361859Y-45997335D01*
X28281343Y-45907913D01*
X28242235Y-45864478D01*
X28242232Y-45864476D01*
X28242231Y-45864475D01*
X28242230Y-45864474D01*
X28097593Y-45759388D01*
X27934267Y-45686671D01*
X27934265Y-45686670D01*
X27791867Y-45656403D01*
X27759391Y-45649500D01*
X27580609Y-45649500D01*
X27550462Y-45655908D01*
X27405733Y-45686670D01*
X27405728Y-45686672D01*
X27242408Y-45759387D01*
X27097768Y-45864475D01*
X26978140Y-45997336D01*
X26888750Y-46152164D01*
X26888747Y-46152170D01*
X26833504Y-46322192D01*
X26833503Y-46322194D01*
X26814815Y-46500000D01*
X23196540Y-46500000D01*
X23226497Y-46407803D01*
X23245185Y-46230000D01*
X23226497Y-46052197D01*
X23179614Y-45907906D01*
X23171252Y-45882170D01*
X23171249Y-45882164D01*
X23161037Y-45864476D01*
X23081859Y-45727335D01*
X23021230Y-45660000D01*
X22962235Y-45594478D01*
X22962232Y-45594476D01*
X22962231Y-45594475D01*
X22962230Y-45594474D01*
X22817593Y-45489388D01*
X22654267Y-45416671D01*
X22654265Y-45416670D01*
X22526594Y-45389533D01*
X22479391Y-45379500D01*
X22300609Y-45379500D01*
X22269954Y-45386015D01*
X22125733Y-45416670D01*
X22125728Y-45416672D01*
X21962408Y-45489387D01*
X21817768Y-45594475D01*
X21698140Y-45727336D01*
X21608750Y-45882164D01*
X21608747Y-45882170D01*
X21553504Y-46052192D01*
X21553503Y-46052194D01*
X21534815Y-46230000D01*
X9833833Y-46230000D01*
X9835063Y-46225408D01*
X9855659Y-45990000D01*
X9835063Y-45754592D01*
X9773903Y-45526337D01*
X9674035Y-45312171D01*
X9668425Y-45304158D01*
X9538494Y-45118597D01*
X9371402Y-44951506D01*
X9371396Y-44951501D01*
X9185842Y-44821575D01*
X9142217Y-44766998D01*
X9135023Y-44697500D01*
X9166546Y-44635145D01*
X9185842Y-44618425D01*
X9337558Y-44512192D01*
X9371401Y-44488495D01*
X9538495Y-44321401D01*
X9674035Y-44127830D01*
X9773903Y-43913663D01*
X9835063Y-43685408D01*
X9855659Y-43450000D01*
X9850094Y-43386398D01*
X22661213Y-43386398D01*
X22679901Y-43564203D01*
X22679902Y-43564205D01*
X22735145Y-43734227D01*
X22735148Y-43734233D01*
X22824539Y-43889063D01*
X22854225Y-43922032D01*
X22944162Y-44021919D01*
X22944165Y-44021921D01*
X22944168Y-44021924D01*
X23088805Y-44127010D01*
X23252131Y-44199727D01*
X23427007Y-44236898D01*
X23427008Y-44236898D01*
X23605787Y-44236898D01*
X23605789Y-44236898D01*
X23780665Y-44199727D01*
X23943991Y-44127010D01*
X24088628Y-44021924D01*
X24208257Y-43889063D01*
X24297648Y-43734233D01*
X24352895Y-43564201D01*
X24371583Y-43386398D01*
X24352895Y-43208595D01*
X24297648Y-43038563D01*
X24208257Y-42883733D01*
X24152699Y-42822030D01*
X24088633Y-42750876D01*
X24088630Y-42750874D01*
X24088629Y-42750873D01*
X24088628Y-42750872D01*
X23943991Y-42645786D01*
X23780665Y-42573069D01*
X23780663Y-42573068D01*
X23652992Y-42545931D01*
X23605789Y-42535898D01*
X23427007Y-42535898D01*
X23396352Y-42542413D01*
X23252131Y-42573068D01*
X23252126Y-42573070D01*
X23088806Y-42645785D01*
X22944166Y-42750873D01*
X22824538Y-42883734D01*
X22735148Y-43038562D01*
X22735145Y-43038568D01*
X22679902Y-43208590D01*
X22679901Y-43208592D01*
X22661213Y-43386398D01*
X9850094Y-43386398D01*
X9835063Y-43214592D01*
X9773903Y-42986337D01*
X9674035Y-42772171D01*
X9668425Y-42764158D01*
X9538494Y-42578597D01*
X9371402Y-42411506D01*
X9371396Y-42411501D01*
X9185842Y-42281575D01*
X9142217Y-42226998D01*
X9135023Y-42157500D01*
X9166546Y-42095145D01*
X9185842Y-42078425D01*
X9247115Y-42035521D01*
X9371401Y-41948495D01*
X9538495Y-41781401D01*
X9674035Y-41587830D01*
X9773903Y-41373663D01*
X9835063Y-41145408D01*
X9855659Y-40910000D01*
X9835063Y-40674592D01*
X9782501Y-40478425D01*
X9773905Y-40446344D01*
X9773904Y-40446343D01*
X9773903Y-40446337D01*
X9674035Y-40232171D01*
X9668425Y-40224158D01*
X9538494Y-40038597D01*
X9371402Y-39871506D01*
X9371396Y-39871501D01*
X9185842Y-39741575D01*
X9142217Y-39686998D01*
X9135023Y-39617500D01*
X9166546Y-39555145D01*
X9185842Y-39538425D01*
X9291453Y-39464475D01*
X9371401Y-39408495D01*
X9538495Y-39241401D01*
X9674035Y-39047830D01*
X9773903Y-38833663D01*
X9835063Y-38605408D01*
X9855659Y-38370000D01*
X9843410Y-38230000D01*
X22534815Y-38230000D01*
X22553503Y-38407805D01*
X22553504Y-38407807D01*
X22608747Y-38577829D01*
X22608750Y-38577835D01*
X22698141Y-38732665D01*
X22727232Y-38764974D01*
X22817764Y-38865521D01*
X22817767Y-38865523D01*
X22817770Y-38865526D01*
X22962407Y-38970612D01*
X23125733Y-39043329D01*
X23300609Y-39080500D01*
X23300610Y-39080500D01*
X23479389Y-39080500D01*
X23479391Y-39080500D01*
X23654267Y-39043329D01*
X23817593Y-38970612D01*
X23962230Y-38865526D01*
X24081859Y-38732665D01*
X24171250Y-38577835D01*
X24226497Y-38407803D01*
X24245185Y-38230000D01*
X24226497Y-38052197D01*
X24187658Y-37932663D01*
X24171252Y-37882170D01*
X24171249Y-37882164D01*
X24141132Y-37830000D01*
X26874815Y-37830000D01*
X26893503Y-38007805D01*
X26893504Y-38007807D01*
X26948747Y-38177829D01*
X26948750Y-38177835D01*
X27038141Y-38332665D01*
X27054200Y-38350500D01*
X27157764Y-38465521D01*
X27157767Y-38465523D01*
X27157770Y-38465526D01*
X27302407Y-38570612D01*
X27465733Y-38643329D01*
X27640609Y-38680500D01*
X27640610Y-38680500D01*
X27819389Y-38680500D01*
X27819391Y-38680500D01*
X27953750Y-38651941D01*
X28023417Y-38657257D01*
X28079151Y-38699394D01*
X28103256Y-38764974D01*
X28088079Y-38833175D01*
X28086919Y-38835230D01*
X28027458Y-38938220D01*
X28027456Y-38938223D01*
X27972213Y-39108245D01*
X27972211Y-39108256D01*
X27969113Y-39137727D01*
X27942528Y-39202341D01*
X27896230Y-39238042D01*
X27838727Y-39263644D01*
X27694087Y-39368732D01*
X27574459Y-39501593D01*
X27485069Y-39656421D01*
X27485066Y-39656427D01*
X27429823Y-39826449D01*
X27429822Y-39826452D01*
X27415282Y-39964790D01*
X27388697Y-40029405D01*
X27364847Y-40052145D01*
X27237772Y-40144471D01*
X27237770Y-40144473D01*
X27118140Y-40277336D01*
X27028750Y-40432164D01*
X27028747Y-40432170D01*
X26973504Y-40602192D01*
X26973503Y-40602194D01*
X26954815Y-40780000D01*
X26973503Y-40957805D01*
X26973504Y-40957807D01*
X27028747Y-41127829D01*
X27028750Y-41127835D01*
X27118141Y-41282665D01*
X27153733Y-41322194D01*
X27237764Y-41415521D01*
X27237767Y-41415523D01*
X27237770Y-41415526D01*
X27382407Y-41520612D01*
X27514562Y-41579450D01*
X27567798Y-41624700D01*
X27588120Y-41691549D01*
X27571513Y-41754730D01*
X27490554Y-41894955D01*
X27490551Y-41894961D01*
X27435308Y-42064983D01*
X27435307Y-42064985D01*
X27416619Y-42242791D01*
X27435307Y-42420596D01*
X27435308Y-42420598D01*
X27490551Y-42590620D01*
X27490554Y-42590626D01*
X27579945Y-42745456D01*
X27614159Y-42783454D01*
X27699568Y-42878312D01*
X27699571Y-42878314D01*
X27699574Y-42878317D01*
X27844211Y-42983403D01*
X28007537Y-43056120D01*
X28059002Y-43067059D01*
X28120484Y-43100251D01*
X28154261Y-43161414D01*
X28156542Y-43175383D01*
X28156778Y-43177630D01*
X28156780Y-43177640D01*
X28212023Y-43347662D01*
X28212026Y-43347668D01*
X28301417Y-43502498D01*
X28343088Y-43548779D01*
X28421040Y-43635354D01*
X28421043Y-43635356D01*
X28421046Y-43635359D01*
X28565683Y-43740445D01*
X28663568Y-43784026D01*
X28716804Y-43829275D01*
X28737126Y-43896124D01*
X28718081Y-43963348D01*
X28686018Y-43997622D01*
X28607772Y-44054471D01*
X28607770Y-44054473D01*
X28488140Y-44187336D01*
X28398750Y-44342164D01*
X28398747Y-44342170D01*
X28343504Y-44512192D01*
X28343503Y-44512194D01*
X28324815Y-44690000D01*
X28343503Y-44867805D01*
X28343504Y-44867807D01*
X28398747Y-45037829D01*
X28398750Y-45037835D01*
X28488141Y-45192665D01*
X28529812Y-45238946D01*
X28607764Y-45325521D01*
X28607767Y-45325523D01*
X28607770Y-45325526D01*
X28752407Y-45430612D01*
X28915733Y-45503329D01*
X29090609Y-45540500D01*
X29090610Y-45540500D01*
X29269389Y-45540500D01*
X29269391Y-45540500D01*
X29444267Y-45503329D01*
X29607593Y-45430612D01*
X29752230Y-45325526D01*
X29871859Y-45192665D01*
X29961250Y-45037835D01*
X30016497Y-44867803D01*
X30035185Y-44690000D01*
X30016497Y-44512197D01*
X29961250Y-44342165D01*
X29871859Y-44187335D01*
X29808120Y-44116546D01*
X29752235Y-44054478D01*
X29752232Y-44054476D01*
X29752231Y-44054475D01*
X29752230Y-44054474D01*
X29607593Y-43949388D01*
X29607592Y-43949387D01*
X29509707Y-43905806D01*
X29456470Y-43860556D01*
X29436149Y-43793707D01*
X29455194Y-43726483D01*
X29487254Y-43692212D01*
X29565506Y-43635359D01*
X29685135Y-43502498D01*
X29774526Y-43347668D01*
X29829773Y-43177636D01*
X29848443Y-43000000D01*
X45094815Y-43000000D01*
X45113503Y-43177805D01*
X45113504Y-43177807D01*
X45168747Y-43347829D01*
X45168750Y-43347835D01*
X45258141Y-43502665D01*
X45299812Y-43548946D01*
X45377764Y-43635521D01*
X45377767Y-43635523D01*
X45377770Y-43635526D01*
X45522407Y-43740612D01*
X45685733Y-43813329D01*
X45860609Y-43850500D01*
X45860610Y-43850500D01*
X46039389Y-43850500D01*
X46039391Y-43850500D01*
X46214267Y-43813329D01*
X46377593Y-43740612D01*
X46522230Y-43635526D01*
X46522381Y-43635359D01*
X46548148Y-43606741D01*
X46641859Y-43502665D01*
X46731250Y-43347835D01*
X46786497Y-43177803D01*
X46805185Y-43000000D01*
X46786497Y-42822197D01*
X46731250Y-42652165D01*
X46641859Y-42497335D01*
X46592703Y-42442742D01*
X46522235Y-42364478D01*
X46522231Y-42364475D01*
X46522230Y-42364474D01*
X46502745Y-42350317D01*
X46460080Y-42294989D01*
X46454101Y-42225375D01*
X46486706Y-42163580D01*
X46502746Y-42149682D01*
X46522230Y-42135526D01*
X46641859Y-42002665D01*
X46731250Y-41847835D01*
X46756540Y-41770000D01*
X49604815Y-41770000D01*
X49623503Y-41947805D01*
X49623504Y-41947807D01*
X49678747Y-42117829D01*
X49678750Y-42117835D01*
X49768141Y-42272665D01*
X49805049Y-42313655D01*
X49887764Y-42405521D01*
X49887767Y-42405523D01*
X49887770Y-42405526D01*
X50032407Y-42510612D01*
X50195733Y-42583329D01*
X50370609Y-42620500D01*
X50370610Y-42620500D01*
X50549389Y-42620500D01*
X50549391Y-42620500D01*
X50724267Y-42583329D01*
X50887593Y-42510612D01*
X51032230Y-42405526D01*
X51151859Y-42272665D01*
X51241250Y-42117835D01*
X51296497Y-41947803D01*
X51315185Y-41770000D01*
X51296497Y-41592197D01*
X51241250Y-41422165D01*
X51151859Y-41267335D01*
X51066173Y-41172171D01*
X51032235Y-41134478D01*
X51032232Y-41134476D01*
X51032231Y-41134475D01*
X51032230Y-41134474D01*
X50887593Y-41029388D01*
X50724267Y-40956671D01*
X50724265Y-40956670D01*
X50596594Y-40929533D01*
X50549391Y-40919500D01*
X50370609Y-40919500D01*
X50339954Y-40926015D01*
X50195733Y-40956670D01*
X50195728Y-40956672D01*
X50032408Y-41029387D01*
X49887768Y-41134475D01*
X49768140Y-41267336D01*
X49678750Y-41422164D01*
X49678747Y-41422170D01*
X49623504Y-41592192D01*
X49623503Y-41592194D01*
X49604815Y-41770000D01*
X46756540Y-41770000D01*
X46786497Y-41677803D01*
X46805185Y-41500000D01*
X46786497Y-41322197D01*
X46751659Y-41214977D01*
X46731252Y-41152170D01*
X46731249Y-41152164D01*
X46641859Y-40997335D01*
X46571776Y-40919500D01*
X46522235Y-40864478D01*
X46522232Y-40864476D01*
X46522231Y-40864475D01*
X46522230Y-40864474D01*
X46377593Y-40759388D01*
X46214267Y-40686671D01*
X46214265Y-40686670D01*
X46069505Y-40655901D01*
X46039391Y-40649500D01*
X45860609Y-40649500D01*
X45830495Y-40655901D01*
X45685733Y-40686670D01*
X45685728Y-40686672D01*
X45522408Y-40759387D01*
X45377768Y-40864475D01*
X45258140Y-40997336D01*
X45168750Y-41152164D01*
X45168747Y-41152170D01*
X45113504Y-41322192D01*
X45113503Y-41322194D01*
X45094815Y-41500000D01*
X45113503Y-41677805D01*
X45113504Y-41677807D01*
X45168747Y-41847829D01*
X45168750Y-41847835D01*
X45258141Y-42002665D01*
X45299812Y-42048946D01*
X45377764Y-42135521D01*
X45377769Y-42135525D01*
X45377770Y-42135526D01*
X45384770Y-42140612D01*
X45397255Y-42149683D01*
X45439920Y-42205014D01*
X45445898Y-42274627D01*
X45413291Y-42336422D01*
X45397255Y-42350317D01*
X45377769Y-42364474D01*
X45258140Y-42497336D01*
X45168750Y-42652164D01*
X45168747Y-42652170D01*
X45113504Y-42822192D01*
X45113503Y-42822194D01*
X45094815Y-43000000D01*
X29848443Y-43000000D01*
X29848461Y-42999833D01*
X29829773Y-42822030D01*
X29774582Y-42652170D01*
X29774528Y-42652003D01*
X29774525Y-42651997D01*
X29770939Y-42645786D01*
X29685135Y-42497168D01*
X29674200Y-42485023D01*
X29636130Y-42442742D01*
X29605900Y-42379750D01*
X29614526Y-42310415D01*
X29659267Y-42256750D01*
X29725920Y-42235792D01*
X29754057Y-42238479D01*
X29810609Y-42250500D01*
X29810610Y-42250500D01*
X29989389Y-42250500D01*
X29989391Y-42250500D01*
X30164267Y-42213329D01*
X30327593Y-42140612D01*
X30472230Y-42035526D01*
X30591859Y-41902665D01*
X30681250Y-41747835D01*
X30736497Y-41577803D01*
X30755185Y-41400000D01*
X30736497Y-41222197D01*
X30681250Y-41052165D01*
X30591859Y-40897335D01*
X30545003Y-40845296D01*
X30472235Y-40764478D01*
X30472232Y-40764476D01*
X30472231Y-40764475D01*
X30472230Y-40764474D01*
X30327593Y-40659388D01*
X30164267Y-40586671D01*
X30164265Y-40586670D01*
X30027028Y-40557500D01*
X29989391Y-40549500D01*
X29810609Y-40549500D01*
X29779954Y-40556015D01*
X29635733Y-40586670D01*
X29635728Y-40586672D01*
X29472408Y-40659387D01*
X29327768Y-40764475D01*
X29208140Y-40897336D01*
X29118750Y-41052164D01*
X29118747Y-41052170D01*
X29063504Y-41222192D01*
X29063503Y-41222194D01*
X29044815Y-41400000D01*
X29056121Y-41507573D01*
X29043551Y-41576303D01*
X28995819Y-41627326D01*
X28928079Y-41644444D01*
X28861837Y-41622221D01*
X28849297Y-41611142D01*
X28848869Y-41611618D01*
X28844036Y-41607267D01*
X28844035Y-41607266D01*
X28844034Y-41607265D01*
X28699397Y-41502179D01*
X28699396Y-41502178D01*
X28567241Y-41443339D01*
X28514004Y-41398089D01*
X28493683Y-41331240D01*
X28510289Y-41268063D01*
X28591250Y-41127835D01*
X28646497Y-40957803D01*
X28661037Y-40819464D01*
X28687621Y-40754853D01*
X28711468Y-40732113D01*
X28838549Y-40639783D01*
X28958178Y-40506922D01*
X29047569Y-40352092D01*
X29102816Y-40182060D01*
X29105914Y-40152582D01*
X29132497Y-40087970D01*
X29178798Y-40052266D01*
X29236302Y-40026665D01*
X29380939Y-39921579D01*
X29500568Y-39788718D01*
X29589959Y-39633888D01*
X29645206Y-39463856D01*
X29663894Y-39286053D01*
X29645206Y-39108250D01*
X29611665Y-39005023D01*
X29589961Y-38938223D01*
X29589959Y-38938220D01*
X29589959Y-38938218D01*
X29500568Y-38783388D01*
X29453712Y-38731349D01*
X29380944Y-38650531D01*
X29380941Y-38650529D01*
X29380940Y-38650528D01*
X29380939Y-38650527D01*
X29236302Y-38545441D01*
X29072976Y-38472724D01*
X29072974Y-38472723D01*
X29072973Y-38472723D01*
X29037486Y-38465180D01*
X28976004Y-38431987D01*
X28942228Y-38370824D01*
X28946880Y-38301110D01*
X28988485Y-38244977D01*
X29012824Y-38230614D01*
X29147593Y-38170612D01*
X29292230Y-38065526D01*
X29411859Y-37932665D01*
X29501250Y-37777835D01*
X29556497Y-37607803D01*
X29567828Y-37500000D01*
X44144815Y-37500000D01*
X44163503Y-37677805D01*
X44163504Y-37677807D01*
X44218747Y-37847829D01*
X44218750Y-37847835D01*
X44308141Y-38002665D01*
X44321499Y-38017500D01*
X44427764Y-38135521D01*
X44427767Y-38135523D01*
X44427770Y-38135526D01*
X44572407Y-38240612D01*
X44735733Y-38313329D01*
X44910609Y-38350500D01*
X44910610Y-38350500D01*
X45089389Y-38350500D01*
X45089391Y-38350500D01*
X45264267Y-38313329D01*
X45427593Y-38240612D01*
X45572230Y-38135526D01*
X45573068Y-38134596D01*
X45615925Y-38086998D01*
X45691859Y-38002665D01*
X45781250Y-37847835D01*
X45836497Y-37677803D01*
X45855185Y-37500000D01*
X45836497Y-37322197D01*
X45807728Y-37233655D01*
X45781252Y-37152170D01*
X45781249Y-37152164D01*
X45691859Y-36997335D01*
X45644460Y-36944693D01*
X45572235Y-36864478D01*
X45572231Y-36864475D01*
X45572230Y-36864474D01*
X45552745Y-36850317D01*
X45510080Y-36794989D01*
X45504101Y-36725375D01*
X45536706Y-36663580D01*
X45552746Y-36649682D01*
X45572230Y-36635526D01*
X45574807Y-36632665D01*
X45598148Y-36606741D01*
X45691859Y-36502665D01*
X45781250Y-36347835D01*
X45806540Y-36270000D01*
X49604815Y-36270000D01*
X49623503Y-36447805D01*
X49623504Y-36447807D01*
X49678747Y-36617829D01*
X49678750Y-36617835D01*
X49768141Y-36772665D01*
X49769908Y-36774627D01*
X49887764Y-36905521D01*
X49887767Y-36905523D01*
X49887770Y-36905526D01*
X50032407Y-37010612D01*
X50195733Y-37083329D01*
X50370609Y-37120500D01*
X50370610Y-37120500D01*
X50549389Y-37120500D01*
X50549391Y-37120500D01*
X50724267Y-37083329D01*
X50887593Y-37010612D01*
X51032230Y-36905526D01*
X51033103Y-36904557D01*
X51069190Y-36864478D01*
X51151859Y-36772665D01*
X51241250Y-36617835D01*
X51296497Y-36447803D01*
X51315185Y-36270000D01*
X51296497Y-36092197D01*
X51251007Y-35952194D01*
X51241252Y-35922170D01*
X51241249Y-35922164D01*
X51151859Y-35767335D01*
X51105003Y-35715296D01*
X51032235Y-35634478D01*
X51032232Y-35634476D01*
X51032231Y-35634475D01*
X51032230Y-35634474D01*
X50887593Y-35529388D01*
X50724267Y-35456671D01*
X50724265Y-35456670D01*
X50596594Y-35429533D01*
X50549391Y-35419500D01*
X50370609Y-35419500D01*
X50339954Y-35426015D01*
X50195733Y-35456670D01*
X50195728Y-35456672D01*
X50032408Y-35529387D01*
X49887768Y-35634475D01*
X49768140Y-35767336D01*
X49678750Y-35922164D01*
X49678747Y-35922170D01*
X49623504Y-36092192D01*
X49623503Y-36092194D01*
X49604815Y-36270000D01*
X45806540Y-36270000D01*
X45836497Y-36177803D01*
X45855185Y-36000000D01*
X45836497Y-35822197D01*
X45783037Y-35657665D01*
X45781252Y-35652170D01*
X45781249Y-35652164D01*
X45771037Y-35634476D01*
X45691859Y-35497335D01*
X45617855Y-35415145D01*
X45572235Y-35364478D01*
X45572232Y-35364476D01*
X45572231Y-35364475D01*
X45572230Y-35364474D01*
X45427593Y-35259388D01*
X45264267Y-35186671D01*
X45264265Y-35186670D01*
X45115266Y-35155000D01*
X45089391Y-35149500D01*
X44910609Y-35149500D01*
X44884738Y-35154999D01*
X44735733Y-35186670D01*
X44735728Y-35186672D01*
X44572408Y-35259387D01*
X44427768Y-35364475D01*
X44308140Y-35497336D01*
X44218750Y-35652164D01*
X44218747Y-35652170D01*
X44163504Y-35822192D01*
X44163503Y-35822194D01*
X44144815Y-36000000D01*
X44163503Y-36177805D01*
X44163504Y-36177807D01*
X44218747Y-36347829D01*
X44218750Y-36347835D01*
X44308141Y-36502665D01*
X44336892Y-36534596D01*
X44427764Y-36635521D01*
X44427769Y-36635525D01*
X44447255Y-36649683D01*
X44489920Y-36705014D01*
X44495898Y-36774627D01*
X44463291Y-36836422D01*
X44447255Y-36850317D01*
X44427769Y-36864474D01*
X44308140Y-36997336D01*
X44218750Y-37152164D01*
X44218747Y-37152170D01*
X44163504Y-37322192D01*
X44163503Y-37322194D01*
X44144815Y-37500000D01*
X29567828Y-37500000D01*
X29575185Y-37430000D01*
X29556497Y-37252197D01*
X29523996Y-37152170D01*
X29501252Y-37082170D01*
X29501249Y-37082164D01*
X29461081Y-37012591D01*
X29444609Y-36944693D01*
X29467461Y-36878666D01*
X29495579Y-36850278D01*
X29612230Y-36765526D01*
X29731859Y-36632665D01*
X29821250Y-36477835D01*
X29876497Y-36307803D01*
X29895185Y-36130000D01*
X29876497Y-35952197D01*
X29821250Y-35782165D01*
X29731859Y-35627335D01*
X29659523Y-35546998D01*
X29612235Y-35494478D01*
X29612232Y-35494476D01*
X29612231Y-35494475D01*
X29612230Y-35494474D01*
X29467593Y-35389388D01*
X29466738Y-35389007D01*
X29466325Y-35388656D01*
X29461970Y-35386142D01*
X29462429Y-35385345D01*
X29413504Y-35343757D01*
X29393184Y-35276907D01*
X29393856Y-35262785D01*
X29405185Y-35155000D01*
X29386497Y-34977197D01*
X29331250Y-34807165D01*
X29241859Y-34652335D01*
X29178979Y-34582500D01*
X29122235Y-34519478D01*
X29122232Y-34519476D01*
X29122231Y-34519475D01*
X29122230Y-34519474D01*
X28977593Y-34414388D01*
X28814267Y-34341671D01*
X28814265Y-34341670D01*
X28686594Y-34314533D01*
X28639391Y-34304500D01*
X28460609Y-34304500D01*
X28429954Y-34311015D01*
X28285733Y-34341670D01*
X28285728Y-34341672D01*
X28122408Y-34414387D01*
X27977768Y-34519475D01*
X27858140Y-34652336D01*
X27768750Y-34807164D01*
X27768747Y-34807170D01*
X27713504Y-34977192D01*
X27713503Y-34977194D01*
X27694815Y-35155000D01*
X27713503Y-35332805D01*
X27713504Y-35332807D01*
X27768747Y-35502829D01*
X27768750Y-35502835D01*
X27858141Y-35657665D01*
X27899812Y-35703946D01*
X27977764Y-35790521D01*
X27977767Y-35790523D01*
X27977770Y-35790526D01*
X28122407Y-35895612D01*
X28123252Y-35895988D01*
X28123663Y-35896338D01*
X28128037Y-35898863D01*
X28127575Y-35899662D01*
X28176491Y-35941236D01*
X28196815Y-36008085D01*
X28196142Y-36022231D01*
X28184815Y-36129999D01*
X28203503Y-36307805D01*
X28203504Y-36307807D01*
X28258747Y-36477829D01*
X28258749Y-36477832D01*
X28258750Y-36477835D01*
X28291515Y-36534586D01*
X28298918Y-36547408D01*
X28315390Y-36615308D01*
X28292537Y-36681335D01*
X28264416Y-36709725D01*
X28147768Y-36794475D01*
X28028139Y-36927336D01*
X28028137Y-36927339D01*
X28023542Y-36935299D01*
X27972975Y-36983514D01*
X27904367Y-36996736D01*
X27890375Y-36994588D01*
X27887398Y-36993955D01*
X27819391Y-36979500D01*
X27640609Y-36979500D01*
X27621725Y-36983514D01*
X27465733Y-37016670D01*
X27465728Y-37016672D01*
X27302408Y-37089387D01*
X27157768Y-37194475D01*
X27038140Y-37327336D01*
X26948750Y-37482164D01*
X26948747Y-37482170D01*
X26893504Y-37652192D01*
X26893503Y-37652194D01*
X26874815Y-37830000D01*
X24141132Y-37830000D01*
X24081859Y-37727335D01*
X24035003Y-37675296D01*
X23962235Y-37594478D01*
X23962232Y-37594476D01*
X23962231Y-37594475D01*
X23962230Y-37594474D01*
X23817593Y-37489388D01*
X23654267Y-37416671D01*
X23654265Y-37416670D01*
X23526594Y-37389533D01*
X23479391Y-37379500D01*
X23300609Y-37379500D01*
X23269954Y-37386015D01*
X23125733Y-37416670D01*
X23125728Y-37416672D01*
X22962408Y-37489387D01*
X22817768Y-37594475D01*
X22698140Y-37727336D01*
X22608750Y-37882164D01*
X22608747Y-37882170D01*
X22553504Y-38052192D01*
X22553503Y-38052194D01*
X22534815Y-38230000D01*
X9843410Y-38230000D01*
X9835063Y-38134592D01*
X9782501Y-37938425D01*
X9773905Y-37906344D01*
X9773904Y-37906343D01*
X9773903Y-37906337D01*
X9674035Y-37692171D01*
X9668425Y-37684158D01*
X9538494Y-37498597D01*
X9371402Y-37331506D01*
X9371396Y-37331501D01*
X9185842Y-37201575D01*
X9142217Y-37146998D01*
X9135023Y-37077500D01*
X9166546Y-37015145D01*
X9185842Y-36998425D01*
X9318515Y-36905526D01*
X9371401Y-36868495D01*
X9538495Y-36701401D01*
X9674035Y-36507830D01*
X9773903Y-36293663D01*
X9835063Y-36065408D01*
X9855659Y-35830000D01*
X9835063Y-35594592D01*
X9773903Y-35366337D01*
X9674035Y-35152171D01*
X9668425Y-35144158D01*
X9538494Y-34958597D01*
X9371402Y-34791506D01*
X9371396Y-34791501D01*
X9185842Y-34661575D01*
X9142217Y-34606998D01*
X9135023Y-34537500D01*
X9166546Y-34475145D01*
X9185842Y-34458425D01*
X9248733Y-34414388D01*
X9371401Y-34328495D01*
X9538495Y-34161401D01*
X9674035Y-33967830D01*
X9773903Y-33753663D01*
X9835063Y-33525408D01*
X9855659Y-33290000D01*
X9835063Y-33054592D01*
X9773903Y-32826337D01*
X9674035Y-32612171D01*
X9670113Y-32606569D01*
X9538494Y-32418597D01*
X9371402Y-32251506D01*
X9371396Y-32251501D01*
X9185842Y-32121575D01*
X9142217Y-32066998D01*
X9135023Y-31997500D01*
X9166546Y-31935145D01*
X9185842Y-31918425D01*
X9335063Y-31813939D01*
X9371401Y-31788495D01*
X9538495Y-31621401D01*
X9651509Y-31460000D01*
X23114815Y-31460000D01*
X23133503Y-31637805D01*
X23133504Y-31637807D01*
X23188747Y-31807829D01*
X23188750Y-31807835D01*
X23278141Y-31962665D01*
X23287449Y-31973002D01*
X23397764Y-32095521D01*
X23397767Y-32095523D01*
X23397770Y-32095526D01*
X23542407Y-32200612D01*
X23705733Y-32273329D01*
X23880609Y-32310500D01*
X23880610Y-32310500D01*
X24059389Y-32310500D01*
X24059391Y-32310500D01*
X24234267Y-32273329D01*
X24397593Y-32200612D01*
X24542230Y-32095526D01*
X24661859Y-31962665D01*
X24751250Y-31807835D01*
X24806497Y-31637803D01*
X24825185Y-31460000D01*
X24806497Y-31282197D01*
X24751250Y-31112165D01*
X24661859Y-30957335D01*
X24628243Y-30920000D01*
X27124815Y-30920000D01*
X27143503Y-31097805D01*
X27143504Y-31097807D01*
X27198747Y-31267829D01*
X27198749Y-31267832D01*
X27198750Y-31267835D01*
X27232863Y-31326920D01*
X27279108Y-31407020D01*
X27295580Y-31474920D01*
X27289651Y-31507337D01*
X27247803Y-31636131D01*
X27247802Y-31636133D01*
X27229114Y-31813939D01*
X27247802Y-31991744D01*
X27247803Y-31991746D01*
X27300413Y-32153663D01*
X27303049Y-32161774D01*
X27333455Y-32214439D01*
X27349928Y-32282338D01*
X27333456Y-32338437D01*
X27317550Y-32365987D01*
X27262304Y-32536017D01*
X27262303Y-32536019D01*
X27243615Y-32713825D01*
X27262303Y-32891630D01*
X27262304Y-32891632D01*
X27317547Y-33061654D01*
X27317550Y-33061660D01*
X27406941Y-33216490D01*
X27425114Y-33236673D01*
X27526564Y-33349346D01*
X27526567Y-33349348D01*
X27526570Y-33349351D01*
X27671207Y-33454437D01*
X27834533Y-33527154D01*
X28009409Y-33564325D01*
X28009410Y-33564325D01*
X28188189Y-33564325D01*
X28188191Y-33564325D01*
X28363067Y-33527154D01*
X28526393Y-33454437D01*
X28671030Y-33349351D01*
X28790659Y-33216490D01*
X28880050Y-33061660D01*
X28882349Y-33054586D01*
X28905349Y-32983797D01*
X28935297Y-32891628D01*
X28953985Y-32713825D01*
X28935297Y-32536022D01*
X28897143Y-32418597D01*
X28880052Y-32365995D01*
X28880051Y-32365993D01*
X28880050Y-32365990D01*
X28849641Y-32313321D01*
X28833170Y-32245422D01*
X28849644Y-32189321D01*
X28865549Y-32161774D01*
X28920796Y-31991742D01*
X28939484Y-31813939D01*
X28920796Y-31636136D01*
X28893172Y-31551120D01*
X28865551Y-31466109D01*
X28865548Y-31466103D01*
X28862024Y-31460000D01*
X28785190Y-31326919D01*
X28768718Y-31259020D01*
X28774645Y-31226606D01*
X28816497Y-31097803D01*
X28835185Y-30920000D01*
X28816497Y-30742197D01*
X28816494Y-30742189D01*
X28815400Y-30737040D01*
X28820713Y-30667372D01*
X28862847Y-30611637D01*
X28886243Y-30597979D01*
X29015093Y-30540612D01*
X29159730Y-30435526D01*
X29168526Y-30425758D01*
X29188936Y-30403090D01*
X29279359Y-30302665D01*
X29368750Y-30147835D01*
X29370431Y-30142663D01*
X29382125Y-30106671D01*
X29423997Y-29977803D01*
X29442685Y-29800000D01*
X29423997Y-29622197D01*
X29408746Y-29575258D01*
X30397918Y-29575258D01*
X30416606Y-29753063D01*
X30416607Y-29753065D01*
X30471850Y-29923087D01*
X30471853Y-29923093D01*
X30561244Y-30077923D01*
X30587129Y-30106671D01*
X30680867Y-30210779D01*
X30680870Y-30210781D01*
X30680873Y-30210784D01*
X30825510Y-30315870D01*
X30988836Y-30388587D01*
X31163712Y-30425758D01*
X31163713Y-30425758D01*
X31342492Y-30425758D01*
X31342494Y-30425758D01*
X31517370Y-30388587D01*
X31577368Y-30361873D01*
X31646616Y-30352587D01*
X31700687Y-30374833D01*
X31722404Y-30390612D01*
X31885730Y-30463329D01*
X32060606Y-30500500D01*
X32060607Y-30500500D01*
X32239386Y-30500500D01*
X32239388Y-30500500D01*
X32414264Y-30463329D01*
X32549564Y-30403089D01*
X32618811Y-30393805D01*
X32650428Y-30403088D01*
X32785733Y-30463329D01*
X32960609Y-30500500D01*
X32960610Y-30500500D01*
X33139389Y-30500500D01*
X33139391Y-30500500D01*
X33314267Y-30463329D01*
X33477593Y-30390612D01*
X33502746Y-30372336D01*
X33568548Y-30348856D01*
X33636602Y-30364679D01*
X33648514Y-30372334D01*
X33659907Y-30380612D01*
X33823233Y-30453329D01*
X33998109Y-30490500D01*
X33998110Y-30490500D01*
X34176889Y-30490500D01*
X34176891Y-30490500D01*
X34351767Y-30453329D01*
X34515093Y-30380612D01*
X34659730Y-30275526D01*
X34745352Y-30180432D01*
X34804836Y-30143787D01*
X34874693Y-30145116D01*
X34929647Y-30180432D01*
X35015270Y-30275526D01*
X35159907Y-30380612D01*
X35323233Y-30453329D01*
X35498109Y-30490500D01*
X35498110Y-30490500D01*
X35676889Y-30490500D01*
X35676891Y-30490500D01*
X35851767Y-30453329D01*
X36015093Y-30380612D01*
X36159730Y-30275526D01*
X36279359Y-30142665D01*
X36368750Y-29987835D01*
X36423997Y-29817803D01*
X36442685Y-29640000D01*
X38232315Y-29640000D01*
X38251003Y-29817805D01*
X38251004Y-29817807D01*
X38306247Y-29987829D01*
X38306250Y-29987835D01*
X38395641Y-30142665D01*
X38437312Y-30188946D01*
X38515264Y-30275521D01*
X38515267Y-30275523D01*
X38515270Y-30275526D01*
X38659907Y-30380612D01*
X38823233Y-30453329D01*
X38998109Y-30490500D01*
X38998110Y-30490500D01*
X39176889Y-30490500D01*
X39176891Y-30490500D01*
X39351767Y-30453329D01*
X39515093Y-30380612D01*
X39659730Y-30275526D01*
X39746600Y-30179046D01*
X39806086Y-30142399D01*
X39875943Y-30143728D01*
X39930899Y-30179046D01*
X40017770Y-30275526D01*
X40162407Y-30380612D01*
X40325733Y-30453329D01*
X40500609Y-30490500D01*
X40500610Y-30490500D01*
X40679389Y-30490500D01*
X40679391Y-30490500D01*
X40854267Y-30453329D01*
X41017593Y-30380612D01*
X41162230Y-30275526D01*
X41281859Y-30142665D01*
X41371250Y-29987835D01*
X41426497Y-29817803D01*
X41445185Y-29640000D01*
X41426497Y-29462197D01*
X41398873Y-29377181D01*
X41371252Y-29292170D01*
X41371249Y-29292164D01*
X41281859Y-29137335D01*
X41211675Y-29059388D01*
X41162235Y-29004478D01*
X41162232Y-29004476D01*
X41162231Y-29004475D01*
X41162230Y-29004474D01*
X41017593Y-28899388D01*
X40854267Y-28826671D01*
X40854265Y-28826670D01*
X40726437Y-28799500D01*
X40679391Y-28789500D01*
X40500609Y-28789500D01*
X40469954Y-28796015D01*
X40325733Y-28826670D01*
X40325728Y-28826672D01*
X40162408Y-28899387D01*
X40042272Y-28986672D01*
X40017770Y-29004474D01*
X39932150Y-29099565D01*
X39930900Y-29100953D01*
X39871413Y-29137601D01*
X39801556Y-29136270D01*
X39746600Y-29100952D01*
X39659735Y-29004478D01*
X39659732Y-29004476D01*
X39659731Y-29004475D01*
X39659730Y-29004474D01*
X39515093Y-28899388D01*
X39351767Y-28826671D01*
X39351765Y-28826670D01*
X39223937Y-28799500D01*
X39176891Y-28789500D01*
X38998109Y-28789500D01*
X38967454Y-28796015D01*
X38823233Y-28826670D01*
X38823228Y-28826672D01*
X38659908Y-28899387D01*
X38515268Y-29004475D01*
X38395640Y-29137336D01*
X38306250Y-29292164D01*
X38306247Y-29292170D01*
X38251004Y-29462192D01*
X38251003Y-29462194D01*
X38232315Y-29640000D01*
X36442685Y-29640000D01*
X36423997Y-29462197D01*
X36396373Y-29377181D01*
X36368752Y-29292170D01*
X36368749Y-29292164D01*
X36279359Y-29137335D01*
X36209175Y-29059388D01*
X36159735Y-29004478D01*
X36159732Y-29004476D01*
X36159731Y-29004475D01*
X36159730Y-29004474D01*
X36015093Y-28899388D01*
X35851767Y-28826671D01*
X35851765Y-28826670D01*
X35723937Y-28799500D01*
X35676891Y-28789500D01*
X35498109Y-28789500D01*
X35467454Y-28796015D01*
X35323233Y-28826670D01*
X35323228Y-28826672D01*
X35159908Y-28899387D01*
X35039772Y-28986672D01*
X35015270Y-29004474D01*
X34929648Y-29099565D01*
X34870163Y-29136213D01*
X34800306Y-29134882D01*
X34745350Y-29099564D01*
X34659735Y-29004478D01*
X34659732Y-29004476D01*
X34659731Y-29004475D01*
X34659730Y-29004474D01*
X34515093Y-28899388D01*
X34351767Y-28826671D01*
X34351765Y-28826670D01*
X34223937Y-28799500D01*
X34176891Y-28789500D01*
X33998109Y-28789500D01*
X33967454Y-28796015D01*
X33823233Y-28826670D01*
X33823228Y-28826672D01*
X33659908Y-28899388D01*
X33659904Y-28899390D01*
X33634752Y-28917664D01*
X33568945Y-28941143D01*
X33500892Y-28925317D01*
X33488982Y-28917662D01*
X33477598Y-28909391D01*
X33477597Y-28909390D01*
X33470419Y-28906194D01*
X33314267Y-28836671D01*
X33314265Y-28836670D01*
X33186594Y-28809533D01*
X33139391Y-28799500D01*
X32960609Y-28799500D01*
X32929954Y-28806015D01*
X32785733Y-28836670D01*
X32650433Y-28896910D01*
X32581183Y-28906194D01*
X32549565Y-28896910D01*
X32414264Y-28836671D01*
X32414262Y-28836670D01*
X32286591Y-28809533D01*
X32239388Y-28799500D01*
X32060606Y-28799500D01*
X32023436Y-28807400D01*
X31885731Y-28836670D01*
X31885726Y-28836672D01*
X31825729Y-28863384D01*
X31756479Y-28872668D01*
X31702409Y-28850421D01*
X31680701Y-28834649D01*
X31680700Y-28834648D01*
X31680696Y-28834646D01*
X31517370Y-28761929D01*
X31517368Y-28761928D01*
X31389697Y-28734791D01*
X31342494Y-28724758D01*
X31163712Y-28724758D01*
X31133057Y-28731273D01*
X30988836Y-28761928D01*
X30988831Y-28761930D01*
X30825511Y-28834645D01*
X30680871Y-28939733D01*
X30561243Y-29072594D01*
X30471853Y-29227422D01*
X30471850Y-29227428D01*
X30416607Y-29397450D01*
X30416606Y-29397452D01*
X30397918Y-29575258D01*
X29408746Y-29575258D01*
X29372008Y-29462192D01*
X29368752Y-29452170D01*
X29368749Y-29452164D01*
X29337160Y-29397450D01*
X29279359Y-29297335D01*
X29225968Y-29238038D01*
X29159735Y-29164478D01*
X29159732Y-29164476D01*
X29159731Y-29164475D01*
X29159730Y-29164474D01*
X29015093Y-29059388D01*
X28851767Y-28986671D01*
X28851765Y-28986670D01*
X28724094Y-28959533D01*
X28676891Y-28949500D01*
X28498109Y-28949500D01*
X28467454Y-28956015D01*
X28323233Y-28986670D01*
X28323228Y-28986672D01*
X28159908Y-29059387D01*
X28015268Y-29164475D01*
X27895640Y-29297336D01*
X27806250Y-29452164D01*
X27806247Y-29452170D01*
X27751004Y-29622192D01*
X27751003Y-29622194D01*
X27732315Y-29800000D01*
X27751003Y-29977805D01*
X27752101Y-29982967D01*
X27746783Y-30052634D01*
X27704645Y-30108367D01*
X27681246Y-30122025D01*
X27552408Y-30179387D01*
X27407768Y-30284475D01*
X27288140Y-30417336D01*
X27198750Y-30572164D01*
X27198747Y-30572170D01*
X27143504Y-30742192D01*
X27143503Y-30742194D01*
X27124815Y-30920000D01*
X24628243Y-30920000D01*
X24615003Y-30905296D01*
X24542235Y-30824478D01*
X24542232Y-30824476D01*
X24542231Y-30824475D01*
X24542230Y-30824474D01*
X24397593Y-30719388D01*
X24234267Y-30646671D01*
X24234265Y-30646670D01*
X24106594Y-30619533D01*
X24059391Y-30609500D01*
X23880609Y-30609500D01*
X23862595Y-30613329D01*
X23705733Y-30646670D01*
X23705728Y-30646672D01*
X23542408Y-30719387D01*
X23397768Y-30824475D01*
X23278140Y-30957336D01*
X23188750Y-31112164D01*
X23188747Y-31112170D01*
X23133504Y-31282192D01*
X23133503Y-31282194D01*
X23114815Y-31460000D01*
X9651509Y-31460000D01*
X9674035Y-31427830D01*
X9773903Y-31213663D01*
X9835063Y-30985408D01*
X9855659Y-30750000D01*
X9835063Y-30514592D01*
X9778278Y-30302665D01*
X9773905Y-30286344D01*
X9773904Y-30286343D01*
X9773903Y-30286337D01*
X9674035Y-30072171D01*
X9668425Y-30064158D01*
X9538494Y-29878597D01*
X9371402Y-29711506D01*
X9371396Y-29711501D01*
X9185842Y-29581575D01*
X9142217Y-29526998D01*
X9135023Y-29457500D01*
X9166546Y-29395145D01*
X9185842Y-29378425D01*
X9208026Y-29362891D01*
X9371401Y-29248495D01*
X9538495Y-29081401D01*
X9674035Y-28887830D01*
X9773903Y-28673663D01*
X9835063Y-28445408D01*
X9855659Y-28210000D01*
X9846035Y-28100000D01*
X47944815Y-28100000D01*
X47963503Y-28277805D01*
X47963504Y-28277807D01*
X48018747Y-28447829D01*
X48018750Y-28447835D01*
X48108141Y-28602665D01*
X48149812Y-28648946D01*
X48227764Y-28735521D01*
X48227767Y-28735523D01*
X48227770Y-28735526D01*
X48372407Y-28840612D01*
X48535733Y-28913329D01*
X48710609Y-28950500D01*
X48710610Y-28950500D01*
X48889389Y-28950500D01*
X48889391Y-28950500D01*
X49064267Y-28913329D01*
X49227593Y-28840612D01*
X49372230Y-28735526D01*
X49491859Y-28602665D01*
X49581250Y-28447835D01*
X49636497Y-28277803D01*
X49655185Y-28100000D01*
X49636497Y-27922197D01*
X49581250Y-27752165D01*
X49491859Y-27597335D01*
X49425970Y-27524158D01*
X49372235Y-27464478D01*
X49372232Y-27464476D01*
X49372231Y-27464475D01*
X49372230Y-27464474D01*
X49227593Y-27359388D01*
X49064267Y-27286671D01*
X49064265Y-27286670D01*
X48936594Y-27259533D01*
X48889391Y-27249500D01*
X48710609Y-27249500D01*
X48679954Y-27256015D01*
X48535733Y-27286670D01*
X48535728Y-27286672D01*
X48372408Y-27359387D01*
X48227768Y-27464475D01*
X48108140Y-27597336D01*
X48018750Y-27752164D01*
X48018747Y-27752170D01*
X47963504Y-27922192D01*
X47963503Y-27922194D01*
X47944815Y-28100000D01*
X9846035Y-28100000D01*
X9835063Y-27974592D01*
X9773903Y-27746337D01*
X9674035Y-27532171D01*
X9668425Y-27524158D01*
X9538494Y-27338597D01*
X9371402Y-27171506D01*
X9371396Y-27171501D01*
X9185842Y-27041575D01*
X9142217Y-26986998D01*
X9135023Y-26917500D01*
X9166546Y-26855145D01*
X9185842Y-26838425D01*
X9236915Y-26802663D01*
X9371401Y-26708495D01*
X9538495Y-26541401D01*
X9674035Y-26347830D01*
X9696339Y-26300000D01*
X30494815Y-26300000D01*
X30513503Y-26477805D01*
X30513504Y-26477807D01*
X30568747Y-26647829D01*
X30568750Y-26647835D01*
X30658141Y-26802665D01*
X30690340Y-26838425D01*
X30777764Y-26935521D01*
X30777767Y-26935523D01*
X30777770Y-26935526D01*
X30922407Y-27040612D01*
X31085733Y-27113329D01*
X31260609Y-27150500D01*
X31260610Y-27150500D01*
X31439389Y-27150500D01*
X31439391Y-27150500D01*
X31614267Y-27113329D01*
X31777593Y-27040612D01*
X31922230Y-26935526D01*
X32041859Y-26802665D01*
X32131250Y-26647835D01*
X32186497Y-26477803D01*
X32205185Y-26300000D01*
X32186497Y-26122197D01*
X32131250Y-25952165D01*
X32041859Y-25797335D01*
X31995003Y-25745296D01*
X31922235Y-25664478D01*
X31922232Y-25664476D01*
X31922231Y-25664475D01*
X31922230Y-25664474D01*
X31777593Y-25559388D01*
X31614267Y-25486671D01*
X31614265Y-25486670D01*
X31486594Y-25459533D01*
X31439391Y-25449500D01*
X31260609Y-25449500D01*
X31229954Y-25456015D01*
X31085733Y-25486670D01*
X31085728Y-25486672D01*
X30922408Y-25559387D01*
X30777768Y-25664475D01*
X30658140Y-25797336D01*
X30568750Y-25952164D01*
X30568747Y-25952170D01*
X30513504Y-26122192D01*
X30513503Y-26122194D01*
X30494815Y-26300000D01*
X9696339Y-26300000D01*
X9773903Y-26133663D01*
X9835063Y-25905408D01*
X9855659Y-25670000D01*
X9835063Y-25434592D01*
X9790961Y-25270000D01*
X27232315Y-25270000D01*
X27251003Y-25447805D01*
X27251004Y-25447807D01*
X27306247Y-25617829D01*
X27306250Y-25617835D01*
X27395641Y-25772665D01*
X27422546Y-25802546D01*
X27515264Y-25905521D01*
X27515267Y-25905523D01*
X27515270Y-25905526D01*
X27659907Y-26010612D01*
X27823233Y-26083329D01*
X27998109Y-26120500D01*
X27998110Y-26120500D01*
X28176889Y-26120500D01*
X28176891Y-26120500D01*
X28351767Y-26083329D01*
X28515093Y-26010612D01*
X28659730Y-25905526D01*
X28659837Y-25905408D01*
X28692704Y-25868905D01*
X28779359Y-25772665D01*
X28868750Y-25617835D01*
X28923997Y-25447803D01*
X28942685Y-25270000D01*
X33504815Y-25270000D01*
X33523503Y-25447805D01*
X33523504Y-25447807D01*
X33578747Y-25617829D01*
X33578750Y-25617835D01*
X33668141Y-25772665D01*
X33695046Y-25802546D01*
X33787764Y-25905521D01*
X33787767Y-25905523D01*
X33787770Y-25905526D01*
X33932407Y-26010612D01*
X34095733Y-26083329D01*
X34270609Y-26120500D01*
X34270610Y-26120500D01*
X34449389Y-26120500D01*
X34449391Y-26120500D01*
X34624267Y-26083329D01*
X34787593Y-26010612D01*
X34932230Y-25905526D01*
X34932337Y-25905408D01*
X34965204Y-25868905D01*
X35051859Y-25772665D01*
X35141250Y-25617835D01*
X35196497Y-25447803D01*
X35215185Y-25270000D01*
X38504815Y-25270000D01*
X38523503Y-25447805D01*
X38523504Y-25447807D01*
X38578747Y-25617829D01*
X38578750Y-25617835D01*
X38668141Y-25772665D01*
X38695046Y-25802546D01*
X38787764Y-25905521D01*
X38787767Y-25905523D01*
X38787770Y-25905526D01*
X38932407Y-26010612D01*
X39095733Y-26083329D01*
X39270609Y-26120500D01*
X39270610Y-26120500D01*
X39449389Y-26120500D01*
X39449391Y-26120500D01*
X39624267Y-26083329D01*
X39787593Y-26010612D01*
X39932230Y-25905526D01*
X39932337Y-25905408D01*
X39965204Y-25868905D01*
X40051859Y-25772665D01*
X40141250Y-25617835D01*
X40196497Y-25447803D01*
X40215185Y-25270000D01*
X40196497Y-25092197D01*
X40141250Y-24922165D01*
X40051859Y-24767335D01*
X40005003Y-24715296D01*
X39932235Y-24634478D01*
X39932232Y-24634476D01*
X39932231Y-24634475D01*
X39932230Y-24634474D01*
X39877899Y-24595000D01*
X73694341Y-24595000D01*
X73714936Y-24830403D01*
X73714938Y-24830413D01*
X73776094Y-25058655D01*
X73776096Y-25058659D01*
X73776097Y-25058663D01*
X73841056Y-25197967D01*
X73875965Y-25272830D01*
X73875967Y-25272834D01*
X73984281Y-25427521D01*
X74011505Y-25466401D01*
X74178599Y-25633495D01*
X74275384Y-25701265D01*
X74372165Y-25769032D01*
X74372167Y-25769033D01*
X74372170Y-25769035D01*
X74586337Y-25868903D01*
X74814592Y-25930063D01*
X74991034Y-25945500D01*
X75049999Y-25950659D01*
X75050000Y-25950659D01*
X75050001Y-25950659D01*
X75108966Y-25945500D01*
X75285408Y-25930063D01*
X75513663Y-25868903D01*
X75727830Y-25769035D01*
X75921401Y-25633495D01*
X76043329Y-25511566D01*
X76104648Y-25478084D01*
X76174340Y-25483068D01*
X76230274Y-25524939D01*
X76247189Y-25555917D01*
X76296202Y-25687328D01*
X76296206Y-25687335D01*
X76382452Y-25802544D01*
X76382455Y-25802547D01*
X76497664Y-25888793D01*
X76497671Y-25888797D01*
X76632517Y-25939091D01*
X76632516Y-25939091D01*
X76639444Y-25939835D01*
X76692127Y-25945500D01*
X78487872Y-25945499D01*
X78547483Y-25939091D01*
X78682331Y-25888796D01*
X78797546Y-25802546D01*
X78883796Y-25687331D01*
X78934091Y-25552483D01*
X78940500Y-25492873D01*
X78940499Y-23697128D01*
X78934091Y-23637517D01*
X78932810Y-23634083D01*
X78883797Y-23502671D01*
X78883793Y-23502664D01*
X78797547Y-23387455D01*
X78797544Y-23387452D01*
X78682335Y-23301206D01*
X78682328Y-23301202D01*
X78550917Y-23252189D01*
X78494983Y-23210318D01*
X78470566Y-23144853D01*
X78471939Y-23138543D01*
X81579499Y-23138543D01*
X81617947Y-23331829D01*
X81617950Y-23331839D01*
X81693364Y-23513907D01*
X81693371Y-23513920D01*
X81802860Y-23677781D01*
X81802863Y-23677785D01*
X81942214Y-23817136D01*
X81942218Y-23817139D01*
X82106079Y-23926628D01*
X82106092Y-23926635D01*
X82286596Y-24001401D01*
X82288165Y-24002051D01*
X82288169Y-24002051D01*
X82288170Y-24002052D01*
X82481456Y-24040500D01*
X82481459Y-24040500D01*
X83778543Y-24040500D01*
X83908582Y-24014632D01*
X83971835Y-24002051D01*
X84153914Y-23926632D01*
X84317782Y-23817139D01*
X84457139Y-23677782D01*
X84566632Y-23513914D01*
X84642051Y-23331835D01*
X84659423Y-23244500D01*
X84680500Y-23138543D01*
X85909499Y-23138543D01*
X85947947Y-23331829D01*
X85947950Y-23331839D01*
X86023364Y-23513907D01*
X86023371Y-23513920D01*
X86132860Y-23677781D01*
X86132863Y-23677785D01*
X86272214Y-23817136D01*
X86272218Y-23817139D01*
X86436079Y-23926628D01*
X86436092Y-23926635D01*
X86616596Y-24001401D01*
X86618165Y-24002051D01*
X86618169Y-24002051D01*
X86618170Y-24002052D01*
X86811456Y-24040500D01*
X86811459Y-24040500D01*
X87808543Y-24040500D01*
X87938582Y-24014632D01*
X88001835Y-24002051D01*
X88183914Y-23926632D01*
X88347782Y-23817139D01*
X88487139Y-23677782D01*
X88596632Y-23513914D01*
X88672051Y-23331835D01*
X88689423Y-23244500D01*
X88710500Y-23138543D01*
X88710500Y-22941456D01*
X88672052Y-22748170D01*
X88672051Y-22748169D01*
X88672051Y-22748165D01*
X88634690Y-22657967D01*
X88596635Y-22566092D01*
X88596628Y-22566079D01*
X88487139Y-22402218D01*
X88487136Y-22402214D01*
X88347785Y-22262863D01*
X88347781Y-22262860D01*
X88183920Y-22153371D01*
X88183907Y-22153364D01*
X88001839Y-22077950D01*
X88001829Y-22077947D01*
X87808543Y-22039500D01*
X87808541Y-22039500D01*
X86811459Y-22039500D01*
X86811457Y-22039500D01*
X86618170Y-22077947D01*
X86618160Y-22077950D01*
X86436092Y-22153364D01*
X86436079Y-22153371D01*
X86272218Y-22262860D01*
X86272214Y-22262863D01*
X86132863Y-22402214D01*
X86132860Y-22402218D01*
X86023371Y-22566079D01*
X86023364Y-22566092D01*
X85947950Y-22748160D01*
X85947947Y-22748170D01*
X85909500Y-22941456D01*
X85909500Y-22941459D01*
X85909500Y-23138541D01*
X85909500Y-23138543D01*
X85909499Y-23138543D01*
X84680500Y-23138543D01*
X84680500Y-22941456D01*
X84642052Y-22748170D01*
X84642051Y-22748169D01*
X84642051Y-22748165D01*
X84604690Y-22657967D01*
X84566635Y-22566092D01*
X84566628Y-22566079D01*
X84457139Y-22402218D01*
X84457136Y-22402214D01*
X84317785Y-22262863D01*
X84317781Y-22262860D01*
X84153920Y-22153371D01*
X84153913Y-22153367D01*
X84144474Y-22149458D01*
X84090070Y-22105617D01*
X84068004Y-22039323D01*
X84085283Y-21971624D01*
X84088431Y-21966972D01*
X84090511Y-21963368D01*
X84090515Y-21963365D01*
X84166281Y-21832135D01*
X84205500Y-21685766D01*
X84205500Y-21534234D01*
X84166281Y-21387865D01*
X84090515Y-21256635D01*
X83983365Y-21149485D01*
X83917750Y-21111602D01*
X83852136Y-21073719D01*
X83777254Y-21053655D01*
X83705766Y-21034500D01*
X83554234Y-21034500D01*
X83407863Y-21073719D01*
X83276635Y-21149485D01*
X83276632Y-21149487D01*
X83169487Y-21256632D01*
X83169485Y-21256635D01*
X83093719Y-21387863D01*
X83061913Y-21506569D01*
X83054500Y-21534234D01*
X83054500Y-21685766D01*
X83090359Y-21819596D01*
X83093720Y-21832137D01*
X83093721Y-21832140D01*
X83106053Y-21853499D01*
X83122527Y-21921398D01*
X83099675Y-21987426D01*
X83044755Y-22030617D01*
X82998667Y-22039500D01*
X82481457Y-22039500D01*
X82288170Y-22077947D01*
X82288160Y-22077950D01*
X82106092Y-22153364D01*
X82106079Y-22153371D01*
X81942218Y-22262860D01*
X81942214Y-22262863D01*
X81802863Y-22402214D01*
X81802860Y-22402218D01*
X81693371Y-22566079D01*
X81693364Y-22566092D01*
X81617950Y-22748160D01*
X81617947Y-22748170D01*
X81579500Y-22941456D01*
X81579500Y-22941459D01*
X81579500Y-23138541D01*
X81579500Y-23138543D01*
X81579499Y-23138543D01*
X78471939Y-23138543D01*
X78485418Y-23076580D01*
X78506563Y-23048332D01*
X78628495Y-22926401D01*
X78764035Y-22732830D01*
X78863903Y-22518663D01*
X78925063Y-22290408D01*
X78945659Y-22055000D01*
X78925063Y-21819592D01*
X78863903Y-21591337D01*
X78764035Y-21377171D01*
X78758425Y-21369158D01*
X78628494Y-21183597D01*
X78461402Y-21016506D01*
X78461395Y-21016501D01*
X78267834Y-20880967D01*
X78267830Y-20880965D01*
X78267828Y-20880964D01*
X78053663Y-20781097D01*
X78053659Y-20781096D01*
X78053655Y-20781094D01*
X77825413Y-20719938D01*
X77825403Y-20719936D01*
X77590001Y-20699341D01*
X77589999Y-20699341D01*
X77354596Y-20719936D01*
X77354586Y-20719938D01*
X77126344Y-20781094D01*
X77126335Y-20781098D01*
X76912171Y-20880964D01*
X76912169Y-20880965D01*
X76718597Y-21016505D01*
X76551505Y-21183597D01*
X76421575Y-21369158D01*
X76366998Y-21412783D01*
X76297500Y-21419977D01*
X76235145Y-21388454D01*
X76218425Y-21369158D01*
X76088494Y-21183597D01*
X75921402Y-21016506D01*
X75921395Y-21016501D01*
X75727834Y-20880967D01*
X75727830Y-20880965D01*
X75727828Y-20880964D01*
X75513663Y-20781097D01*
X75513659Y-20781096D01*
X75513655Y-20781094D01*
X75285413Y-20719938D01*
X75285403Y-20719936D01*
X75050001Y-20699341D01*
X75049999Y-20699341D01*
X74814596Y-20719936D01*
X74814586Y-20719938D01*
X74586344Y-20781094D01*
X74586335Y-20781098D01*
X74372171Y-20880964D01*
X74372169Y-20880965D01*
X74178597Y-21016505D01*
X74011505Y-21183597D01*
X73875965Y-21377169D01*
X73875964Y-21377171D01*
X73776098Y-21591335D01*
X73776094Y-21591344D01*
X73714938Y-21819586D01*
X73714936Y-21819596D01*
X73694341Y-22054999D01*
X73694341Y-22055000D01*
X73714936Y-22290403D01*
X73714938Y-22290413D01*
X73776094Y-22518655D01*
X73776096Y-22518659D01*
X73776097Y-22518663D01*
X73780000Y-22527032D01*
X73875965Y-22732830D01*
X73875967Y-22732834D01*
X73984281Y-22887521D01*
X74011501Y-22926396D01*
X74011506Y-22926402D01*
X74178597Y-23093493D01*
X74178603Y-23093498D01*
X74364158Y-23223425D01*
X74407783Y-23278002D01*
X74414977Y-23347500D01*
X74383454Y-23409855D01*
X74364158Y-23426575D01*
X74178597Y-23556505D01*
X74011505Y-23723597D01*
X73875965Y-23917169D01*
X73875964Y-23917171D01*
X73776098Y-24131335D01*
X73776094Y-24131344D01*
X73714938Y-24359586D01*
X73714936Y-24359596D01*
X73694341Y-24594999D01*
X73694341Y-24595000D01*
X39877899Y-24595000D01*
X39787593Y-24529388D01*
X39624267Y-24456671D01*
X39624265Y-24456670D01*
X39496594Y-24429533D01*
X39449391Y-24419500D01*
X39270609Y-24419500D01*
X39239954Y-24426015D01*
X39095733Y-24456670D01*
X39095728Y-24456672D01*
X38932408Y-24529387D01*
X38787768Y-24634475D01*
X38668140Y-24767336D01*
X38578750Y-24922164D01*
X38578747Y-24922170D01*
X38523504Y-25092192D01*
X38523503Y-25092194D01*
X38504815Y-25270000D01*
X35215185Y-25270000D01*
X35196497Y-25092197D01*
X35141250Y-24922165D01*
X35051859Y-24767335D01*
X35005003Y-24715296D01*
X34932235Y-24634478D01*
X34932232Y-24634476D01*
X34932231Y-24634475D01*
X34932230Y-24634474D01*
X34787593Y-24529388D01*
X34624267Y-24456671D01*
X34624265Y-24456670D01*
X34496594Y-24429533D01*
X34449391Y-24419500D01*
X34270609Y-24419500D01*
X34239954Y-24426015D01*
X34095733Y-24456670D01*
X34095728Y-24456672D01*
X33932408Y-24529387D01*
X33787768Y-24634475D01*
X33668140Y-24767336D01*
X33578750Y-24922164D01*
X33578747Y-24922170D01*
X33523504Y-25092192D01*
X33523503Y-25092194D01*
X33504815Y-25270000D01*
X28942685Y-25270000D01*
X28923997Y-25092197D01*
X28868750Y-24922165D01*
X28779359Y-24767335D01*
X28732503Y-24715296D01*
X28659735Y-24634478D01*
X28659732Y-24634476D01*
X28659731Y-24634475D01*
X28659730Y-24634474D01*
X28515093Y-24529388D01*
X28351767Y-24456671D01*
X28351765Y-24456670D01*
X28224094Y-24429533D01*
X28176891Y-24419500D01*
X27998109Y-24419500D01*
X27967454Y-24426015D01*
X27823233Y-24456670D01*
X27823228Y-24456672D01*
X27659908Y-24529387D01*
X27515268Y-24634475D01*
X27395640Y-24767336D01*
X27306250Y-24922164D01*
X27306247Y-24922170D01*
X27251004Y-25092192D01*
X27251003Y-25092194D01*
X27232315Y-25270000D01*
X9790961Y-25270000D01*
X9773903Y-25206337D01*
X9674035Y-24992171D01*
X9668425Y-24984158D01*
X9538494Y-24798597D01*
X9371402Y-24631506D01*
X9371396Y-24631501D01*
X9185842Y-24501575D01*
X9142217Y-24446998D01*
X9135023Y-24377500D01*
X9166546Y-24315145D01*
X9185842Y-24298425D01*
X9208026Y-24282891D01*
X9371401Y-24168495D01*
X9538495Y-24001401D01*
X9674035Y-23807830D01*
X9773903Y-23593663D01*
X9835063Y-23365408D01*
X9855659Y-23130000D01*
X9853878Y-23109649D01*
X9837846Y-22926401D01*
X9835063Y-22894592D01*
X9773903Y-22666337D01*
X9674035Y-22452171D01*
X9668424Y-22444158D01*
X9538496Y-22258600D01*
X9538493Y-22258597D01*
X9416567Y-22136671D01*
X9383084Y-22075351D01*
X9388068Y-22005659D01*
X9429939Y-21949725D01*
X9460915Y-21932810D01*
X9592331Y-21883796D01*
X9707546Y-21797546D01*
X9793796Y-21682331D01*
X9844091Y-21547483D01*
X9850500Y-21487873D01*
X9850499Y-19692128D01*
X9844091Y-19632517D01*
X9842810Y-19629083D01*
X9793797Y-19497671D01*
X9793793Y-19497664D01*
X9707547Y-19382455D01*
X9707544Y-19382452D01*
X9592335Y-19296206D01*
X9592328Y-19296202D01*
X9457482Y-19245908D01*
X9457483Y-19245908D01*
X9397883Y-19239501D01*
X9397881Y-19239500D01*
X9397873Y-19239500D01*
X9397864Y-19239500D01*
X7602129Y-19239500D01*
X7602123Y-19239501D01*
X7542516Y-19245908D01*
X7407671Y-19296202D01*
X7407664Y-19296206D01*
X7292455Y-19382452D01*
X7292452Y-19382455D01*
X7206206Y-19497664D01*
X7206203Y-19497669D01*
X7157189Y-19629083D01*
X7115317Y-19685016D01*
X7049853Y-19709433D01*
X6981580Y-19694581D01*
X6953326Y-19673430D01*
X6831402Y-19551506D01*
X6831395Y-19551501D01*
X6637834Y-19415967D01*
X6637830Y-19415965D01*
X6637828Y-19415964D01*
X6423663Y-19316097D01*
X6423659Y-19316096D01*
X6423655Y-19316094D01*
X6195413Y-19254938D01*
X6195403Y-19254936D01*
X5960001Y-19234341D01*
X5959999Y-19234341D01*
X5724596Y-19254936D01*
X5724586Y-19254938D01*
X5496344Y-19316094D01*
X5496335Y-19316098D01*
X5282171Y-19415964D01*
X5282169Y-19415965D01*
X5088597Y-19551505D01*
X4921505Y-19718597D01*
X4785965Y-19912169D01*
X4785964Y-19912171D01*
X4686098Y-20126335D01*
X4686094Y-20126344D01*
X4624938Y-20354586D01*
X4624936Y-20354596D01*
X4604341Y-20589999D01*
X4604341Y-20590000D01*
X4624936Y-20825403D01*
X4624938Y-20825413D01*
X4686094Y-21053655D01*
X4686096Y-21053659D01*
X4686097Y-21053663D01*
X4770499Y-21234663D01*
X4785965Y-21267830D01*
X4785967Y-21267834D01*
X4921501Y-21461395D01*
X4921506Y-21461402D01*
X5088597Y-21628493D01*
X5088603Y-21628498D01*
X5274158Y-21758425D01*
X5317783Y-21813002D01*
X5324977Y-21882500D01*
X5293454Y-21944855D01*
X5274158Y-21961575D01*
X5088597Y-22091505D01*
X4921505Y-22258597D01*
X4785965Y-22452169D01*
X4785964Y-22452171D01*
X4686098Y-22666335D01*
X4686094Y-22666344D01*
X4624938Y-22894586D01*
X4624936Y-22894596D01*
X4604341Y-23129999D01*
X4604341Y-23130000D01*
X4624936Y-23365403D01*
X4624938Y-23365413D01*
X4686094Y-23593655D01*
X4686096Y-23593659D01*
X4686097Y-23593663D01*
X4766004Y-23765023D01*
X4785965Y-23807830D01*
X4785967Y-23807834D01*
X4862525Y-23917169D01*
X4921501Y-24001396D01*
X4921506Y-24001402D01*
X5088597Y-24168493D01*
X5088603Y-24168498D01*
X5274158Y-24298425D01*
X5317783Y-24353002D01*
X5324977Y-24422500D01*
X5293454Y-24484855D01*
X5274158Y-24501575D01*
X5088597Y-24631505D01*
X4921505Y-24798597D01*
X4785965Y-24992169D01*
X4785964Y-24992171D01*
X4686098Y-25206335D01*
X4686094Y-25206344D01*
X4624938Y-25434586D01*
X4624936Y-25434596D01*
X4604341Y-25669999D01*
X4604341Y-25670000D01*
X4624936Y-25905403D01*
X4624938Y-25905413D01*
X4686094Y-26133655D01*
X4686096Y-26133659D01*
X4686097Y-26133663D01*
X4766004Y-26305023D01*
X4785965Y-26347830D01*
X4785967Y-26347834D01*
X4876976Y-26477807D01*
X4921501Y-26541396D01*
X4921506Y-26541402D01*
X5088597Y-26708493D01*
X5088603Y-26708498D01*
X5274158Y-26838425D01*
X5317783Y-26893002D01*
X5324977Y-26962500D01*
X5293454Y-27024855D01*
X5274158Y-27041575D01*
X5088597Y-27171505D01*
X4921505Y-27338597D01*
X4785965Y-27532169D01*
X4785964Y-27532171D01*
X4686098Y-27746335D01*
X4686094Y-27746344D01*
X4624938Y-27974586D01*
X4624936Y-27974596D01*
X4604341Y-28209999D01*
X4604341Y-28210000D01*
X4624936Y-28445403D01*
X4624938Y-28445413D01*
X4686094Y-28673655D01*
X4686096Y-28673659D01*
X4686097Y-28673663D01*
X4761164Y-28834645D01*
X4785965Y-28887830D01*
X4785967Y-28887834D01*
X4855174Y-28986671D01*
X4921501Y-29081396D01*
X4921506Y-29081402D01*
X5088597Y-29248493D01*
X5088603Y-29248498D01*
X5274158Y-29378425D01*
X5317783Y-29433002D01*
X5324977Y-29502500D01*
X5293454Y-29564855D01*
X5274158Y-29581575D01*
X5088597Y-29711505D01*
X4921505Y-29878597D01*
X4785965Y-30072169D01*
X4785964Y-30072171D01*
X4686098Y-30286335D01*
X4686094Y-30286344D01*
X4624938Y-30514586D01*
X4624936Y-30514596D01*
X4604341Y-30749999D01*
X4604341Y-30750000D01*
X4624936Y-30985403D01*
X4624938Y-30985413D01*
X4686094Y-31213655D01*
X4686096Y-31213659D01*
X4686097Y-31213663D01*
X4711358Y-31267835D01*
X4785965Y-31427830D01*
X4785967Y-31427834D01*
X4841636Y-31507337D01*
X4921501Y-31621396D01*
X4921506Y-31621402D01*
X5088597Y-31788493D01*
X5088603Y-31788498D01*
X5274158Y-31918425D01*
X5317783Y-31973002D01*
X5324977Y-32042500D01*
X5293454Y-32104855D01*
X5274158Y-32121575D01*
X5088597Y-32251505D01*
X4921505Y-32418597D01*
X4785965Y-32612169D01*
X4785964Y-32612171D01*
X4686098Y-32826335D01*
X4686094Y-32826344D01*
X4624938Y-33054586D01*
X4624936Y-33054596D01*
X4604341Y-33289999D01*
X4604341Y-33290000D01*
X4624936Y-33525403D01*
X4624938Y-33525413D01*
X4686094Y-33753655D01*
X4686096Y-33753659D01*
X4686097Y-33753663D01*
X4766004Y-33925023D01*
X4785965Y-33967830D01*
X4785967Y-33967834D01*
X4894281Y-34122521D01*
X4921501Y-34161396D01*
X4921506Y-34161402D01*
X5088597Y-34328493D01*
X5088603Y-34328498D01*
X5274158Y-34458425D01*
X5317783Y-34513002D01*
X5324977Y-34582500D01*
X5293454Y-34644855D01*
X5274158Y-34661575D01*
X5088597Y-34791505D01*
X4921505Y-34958597D01*
X4785965Y-35152169D01*
X4785964Y-35152171D01*
X4686098Y-35366335D01*
X4686094Y-35366344D01*
X4624938Y-35594586D01*
X4624936Y-35594596D01*
X4604341Y-35829999D01*
X4604341Y-35830000D01*
X4624936Y-36065403D01*
X4624938Y-36065413D01*
X4686094Y-36293655D01*
X4686096Y-36293659D01*
X4686097Y-36293663D01*
X4711355Y-36347829D01*
X4785965Y-36507830D01*
X4785967Y-36507834D01*
X4861222Y-36615308D01*
X4921501Y-36701396D01*
X4921506Y-36701402D01*
X5088597Y-36868493D01*
X5088603Y-36868498D01*
X5274158Y-36998425D01*
X5317783Y-37053002D01*
X5324977Y-37122500D01*
X5293454Y-37184855D01*
X5274158Y-37201575D01*
X5088597Y-37331505D01*
X4921505Y-37498597D01*
X4785965Y-37692169D01*
X4785964Y-37692171D01*
X4686098Y-37906335D01*
X4686094Y-37906344D01*
X4624938Y-38134586D01*
X4624936Y-38134596D01*
X4604341Y-38369999D01*
X4604341Y-38370000D01*
X4624936Y-38605403D01*
X4624938Y-38605413D01*
X4686094Y-38833655D01*
X4686096Y-38833659D01*
X4686097Y-38833663D01*
X4749957Y-38970610D01*
X4785965Y-39047830D01*
X4785967Y-39047834D01*
X4894155Y-39202341D01*
X4921501Y-39241396D01*
X4921506Y-39241402D01*
X5088597Y-39408493D01*
X5088603Y-39408498D01*
X5274158Y-39538425D01*
X5317783Y-39593002D01*
X5324977Y-39662500D01*
X5293454Y-39724855D01*
X5274158Y-39741575D01*
X5088597Y-39871505D01*
X4921505Y-40038597D01*
X4785965Y-40232169D01*
X4785964Y-40232171D01*
X4686098Y-40446335D01*
X4686094Y-40446344D01*
X4624938Y-40674586D01*
X4624936Y-40674596D01*
X4604341Y-40909999D01*
X4604341Y-40910000D01*
X4624936Y-41145403D01*
X4624938Y-41145413D01*
X4686094Y-41373655D01*
X4686096Y-41373659D01*
X4686097Y-41373663D01*
X4754620Y-41520610D01*
X4785965Y-41587830D01*
X4785967Y-41587834D01*
X4858590Y-41691549D01*
X4921501Y-41781396D01*
X4921506Y-41781402D01*
X5088597Y-41948493D01*
X5088603Y-41948498D01*
X5274158Y-42078425D01*
X5317783Y-42133002D01*
X5324977Y-42202500D01*
X5293454Y-42264855D01*
X5274158Y-42281575D01*
X5088597Y-42411505D01*
X4921505Y-42578597D01*
X4785965Y-42772169D01*
X4785964Y-42772171D01*
X4686098Y-42986335D01*
X4686094Y-42986344D01*
X4624938Y-43214586D01*
X4624936Y-43214596D01*
X4604341Y-43449999D01*
X4604341Y-43450000D01*
X4624936Y-43685403D01*
X4624938Y-43685413D01*
X4686094Y-43913655D01*
X4686096Y-43913659D01*
X4686097Y-43913663D01*
X4751760Y-44054478D01*
X4785965Y-44127830D01*
X4785967Y-44127834D01*
X4862335Y-44236898D01*
X4921501Y-44321396D01*
X4921506Y-44321402D01*
X5088597Y-44488493D01*
X5088603Y-44488498D01*
X5274158Y-44618425D01*
X5317783Y-44673002D01*
X5324977Y-44742500D01*
X5293454Y-44804855D01*
X5274158Y-44821575D01*
X5088597Y-44951505D01*
X4921505Y-45118597D01*
X4785965Y-45312169D01*
X4785964Y-45312171D01*
X4686098Y-45526335D01*
X4686094Y-45526344D01*
X4624938Y-45754586D01*
X4624936Y-45754596D01*
X4604341Y-45989999D01*
X4604341Y-45990000D01*
X4624936Y-46225403D01*
X4624938Y-46225413D01*
X4686094Y-46453655D01*
X4686096Y-46453659D01*
X4686097Y-46453663D01*
X4723594Y-46534075D01*
X4785965Y-46667830D01*
X4785967Y-46667834D01*
X4883418Y-46807007D01*
X4921501Y-46861396D01*
X4921506Y-46861402D01*
X5088597Y-47028493D01*
X5088603Y-47028498D01*
X5274158Y-47158425D01*
X5317783Y-47213002D01*
X5324977Y-47282500D01*
X5293454Y-47344855D01*
X5274158Y-47361575D01*
X5088597Y-47491505D01*
X4921505Y-47658597D01*
X4785965Y-47852169D01*
X4785964Y-47852171D01*
X4686098Y-48066335D01*
X4686094Y-48066344D01*
X4624938Y-48294586D01*
X4624936Y-48294596D01*
X4604341Y-48529999D01*
X4604341Y-48530000D01*
X4624936Y-48765403D01*
X4624938Y-48765413D01*
X4686094Y-48993655D01*
X4686096Y-48993659D01*
X4686097Y-48993663D01*
X4723594Y-49074075D01*
X4785965Y-49207830D01*
X4785967Y-49207834D01*
X4853721Y-49304596D01*
X4921501Y-49401396D01*
X4921506Y-49401402D01*
X5088597Y-49568493D01*
X5088603Y-49568498D01*
X5274158Y-49698425D01*
X5317783Y-49753002D01*
X5324977Y-49822500D01*
X5293454Y-49884855D01*
X5274158Y-49901575D01*
X5088597Y-50031505D01*
X4921505Y-50198597D01*
X4785965Y-50392169D01*
X4785964Y-50392171D01*
X4686098Y-50606335D01*
X4686094Y-50606344D01*
X4624938Y-50834586D01*
X4624936Y-50834596D01*
X4604341Y-51069999D01*
X4604341Y-51070000D01*
X1000000Y-51070000D01*
X1000000Y-17760000D01*
X20304341Y-17760000D01*
X20324936Y-17995403D01*
X20324938Y-17995413D01*
X20386094Y-18223655D01*
X20386096Y-18223659D01*
X20386097Y-18223663D01*
X20390000Y-18232032D01*
X20485965Y-18437830D01*
X20485967Y-18437834D01*
X20594281Y-18592521D01*
X20621505Y-18631401D01*
X20788599Y-18798495D01*
X20885384Y-18866265D01*
X20982165Y-18934032D01*
X20982167Y-18934033D01*
X20982170Y-18934035D01*
X21196337Y-19033903D01*
X21424592Y-19095063D01*
X21601034Y-19110500D01*
X21659999Y-19115659D01*
X21660000Y-19115659D01*
X21660001Y-19115659D01*
X21718966Y-19110500D01*
X21895408Y-19095063D01*
X22123663Y-19033903D01*
X22337830Y-18934035D01*
X22531401Y-18798495D01*
X22698495Y-18631401D01*
X22828425Y-18445842D01*
X22883002Y-18402217D01*
X22952500Y-18395023D01*
X23014855Y-18426546D01*
X23031575Y-18445842D01*
X23161500Y-18631395D01*
X23161505Y-18631401D01*
X23328599Y-18798495D01*
X23425384Y-18866265D01*
X23522165Y-18934032D01*
X23522167Y-18934033D01*
X23522170Y-18934035D01*
X23736337Y-19033903D01*
X23964592Y-19095063D01*
X24141034Y-19110500D01*
X24199999Y-19115659D01*
X24200000Y-19115659D01*
X24200001Y-19115659D01*
X24258966Y-19110500D01*
X24435408Y-19095063D01*
X24663663Y-19033903D01*
X24877830Y-18934035D01*
X25071401Y-18798495D01*
X25238495Y-18631401D01*
X25368425Y-18445842D01*
X25423002Y-18402217D01*
X25492500Y-18395023D01*
X25554855Y-18426546D01*
X25571575Y-18445842D01*
X25701500Y-18631395D01*
X25701505Y-18631401D01*
X25868599Y-18798495D01*
X25965384Y-18866265D01*
X26062165Y-18934032D01*
X26062167Y-18934033D01*
X26062170Y-18934035D01*
X26276337Y-19033903D01*
X26504592Y-19095063D01*
X26681034Y-19110500D01*
X26739999Y-19115659D01*
X26740000Y-19115659D01*
X26740001Y-19115659D01*
X26798966Y-19110500D01*
X26975408Y-19095063D01*
X27203663Y-19033903D01*
X27417830Y-18934035D01*
X27611401Y-18798495D01*
X27778495Y-18631401D01*
X27908425Y-18445842D01*
X27963002Y-18402217D01*
X28032500Y-18395023D01*
X28094855Y-18426546D01*
X28111575Y-18445842D01*
X28241500Y-18631395D01*
X28241505Y-18631401D01*
X28408599Y-18798495D01*
X28505384Y-18866265D01*
X28602165Y-18934032D01*
X28602167Y-18934033D01*
X28602170Y-18934035D01*
X28816337Y-19033903D01*
X29044592Y-19095063D01*
X29221034Y-19110500D01*
X29279999Y-19115659D01*
X29280000Y-19115659D01*
X29280001Y-19115659D01*
X29338966Y-19110500D01*
X29515408Y-19095063D01*
X29743663Y-19033903D01*
X29957830Y-18934035D01*
X30151401Y-18798495D01*
X30318495Y-18631401D01*
X30448425Y-18445842D01*
X30503002Y-18402217D01*
X30572500Y-18395023D01*
X30634855Y-18426546D01*
X30651575Y-18445842D01*
X30781500Y-18631395D01*
X30781505Y-18631401D01*
X30948599Y-18798495D01*
X31045384Y-18866265D01*
X31142165Y-18934032D01*
X31142167Y-18934033D01*
X31142170Y-18934035D01*
X31356337Y-19033903D01*
X31584592Y-19095063D01*
X31761034Y-19110500D01*
X31819999Y-19115659D01*
X31820000Y-19115659D01*
X31820001Y-19115659D01*
X31878966Y-19110500D01*
X32055408Y-19095063D01*
X32283663Y-19033903D01*
X32497830Y-18934035D01*
X32691401Y-18798495D01*
X32858495Y-18631401D01*
X32988425Y-18445842D01*
X33043002Y-18402217D01*
X33112500Y-18395023D01*
X33174855Y-18426546D01*
X33191575Y-18445842D01*
X33321500Y-18631395D01*
X33321505Y-18631401D01*
X33488599Y-18798495D01*
X33585384Y-18866265D01*
X33682165Y-18934032D01*
X33682167Y-18934033D01*
X33682170Y-18934035D01*
X33896337Y-19033903D01*
X34124592Y-19095063D01*
X34301034Y-19110500D01*
X34359999Y-19115659D01*
X34360000Y-19115659D01*
X34360001Y-19115659D01*
X34418966Y-19110500D01*
X34595408Y-19095063D01*
X34823663Y-19033903D01*
X35037830Y-18934035D01*
X35231401Y-18798495D01*
X35398495Y-18631401D01*
X35528425Y-18445842D01*
X35583002Y-18402217D01*
X35652500Y-18395023D01*
X35714855Y-18426546D01*
X35731575Y-18445842D01*
X35861500Y-18631395D01*
X35861505Y-18631401D01*
X36028599Y-18798495D01*
X36125384Y-18866265D01*
X36222165Y-18934032D01*
X36222167Y-18934033D01*
X36222170Y-18934035D01*
X36436337Y-19033903D01*
X36664592Y-19095063D01*
X36841034Y-19110500D01*
X36899999Y-19115659D01*
X36900000Y-19115659D01*
X36900001Y-19115659D01*
X36958966Y-19110500D01*
X37135408Y-19095063D01*
X37363663Y-19033903D01*
X37577830Y-18934035D01*
X37771401Y-18798495D01*
X37938495Y-18631401D01*
X38068425Y-18445842D01*
X38123002Y-18402217D01*
X38192500Y-18395023D01*
X38254855Y-18426546D01*
X38271575Y-18445842D01*
X38401500Y-18631395D01*
X38401505Y-18631401D01*
X38568599Y-18798495D01*
X38665384Y-18866265D01*
X38762165Y-18934032D01*
X38762167Y-18934033D01*
X38762170Y-18934035D01*
X38976337Y-19033903D01*
X39204592Y-19095063D01*
X39381034Y-19110500D01*
X39439999Y-19115659D01*
X39440000Y-19115659D01*
X39440001Y-19115659D01*
X39498966Y-19110500D01*
X39675408Y-19095063D01*
X39903663Y-19033903D01*
X40117830Y-18934035D01*
X40311401Y-18798495D01*
X40478495Y-18631401D01*
X40608425Y-18445842D01*
X40663002Y-18402217D01*
X40732500Y-18395023D01*
X40794855Y-18426546D01*
X40811575Y-18445842D01*
X40941500Y-18631395D01*
X40941505Y-18631401D01*
X41108599Y-18798495D01*
X41205384Y-18866265D01*
X41302165Y-18934032D01*
X41302167Y-18934033D01*
X41302170Y-18934035D01*
X41516337Y-19033903D01*
X41744592Y-19095063D01*
X41921034Y-19110500D01*
X41979999Y-19115659D01*
X41980000Y-19115659D01*
X41980001Y-19115659D01*
X42038966Y-19110500D01*
X42215408Y-19095063D01*
X42443663Y-19033903D01*
X42657830Y-18934035D01*
X42851401Y-18798495D01*
X43018495Y-18631401D01*
X43148425Y-18445842D01*
X43203002Y-18402217D01*
X43272500Y-18395023D01*
X43334855Y-18426546D01*
X43351575Y-18445842D01*
X43481500Y-18631395D01*
X43481505Y-18631401D01*
X43648599Y-18798495D01*
X43745384Y-18866265D01*
X43842165Y-18934032D01*
X43842167Y-18934033D01*
X43842170Y-18934035D01*
X44056337Y-19033903D01*
X44284592Y-19095063D01*
X44461034Y-19110500D01*
X44519999Y-19115659D01*
X44520000Y-19115659D01*
X44520001Y-19115659D01*
X44578966Y-19110500D01*
X44755408Y-19095063D01*
X44983663Y-19033903D01*
X45197830Y-18934035D01*
X45391401Y-18798495D01*
X45558495Y-18631401D01*
X45688425Y-18445842D01*
X45743002Y-18402217D01*
X45812500Y-18395023D01*
X45874855Y-18426546D01*
X45891575Y-18445842D01*
X46021500Y-18631395D01*
X46021505Y-18631401D01*
X46188599Y-18798495D01*
X46285384Y-18866265D01*
X46382165Y-18934032D01*
X46382167Y-18934033D01*
X46382170Y-18934035D01*
X46596337Y-19033903D01*
X46824592Y-19095063D01*
X47001034Y-19110500D01*
X47059999Y-19115659D01*
X47060000Y-19115659D01*
X47060001Y-19115659D01*
X47118966Y-19110500D01*
X47295408Y-19095063D01*
X47523663Y-19033903D01*
X47737830Y-18934035D01*
X47931401Y-18798495D01*
X48053329Y-18676566D01*
X48114648Y-18643084D01*
X48184340Y-18648068D01*
X48240274Y-18689939D01*
X48257189Y-18720917D01*
X48306202Y-18852328D01*
X48306206Y-18852335D01*
X48392452Y-18967544D01*
X48392455Y-18967547D01*
X48507664Y-19053793D01*
X48507671Y-19053797D01*
X48642517Y-19104091D01*
X48642516Y-19104091D01*
X48649444Y-19104835D01*
X48702127Y-19110500D01*
X50497872Y-19110499D01*
X50557483Y-19104091D01*
X50692331Y-19053796D01*
X50807546Y-18967546D01*
X50893796Y-18852331D01*
X50944091Y-18717483D01*
X50950500Y-18657873D01*
X50950499Y-16862128D01*
X50944091Y-16802517D01*
X50942810Y-16799083D01*
X50893797Y-16667671D01*
X50893793Y-16667664D01*
X50807547Y-16552455D01*
X50807544Y-16552452D01*
X50692335Y-16466206D01*
X50692328Y-16466202D01*
X50560917Y-16417189D01*
X50504983Y-16375318D01*
X50480566Y-16309853D01*
X50495418Y-16241580D01*
X50516563Y-16213332D01*
X50638495Y-16091401D01*
X50772516Y-15900000D01*
X58994815Y-15900000D01*
X59013503Y-16077805D01*
X59013504Y-16077807D01*
X59068747Y-16247829D01*
X59068750Y-16247835D01*
X59158141Y-16402665D01*
X59171219Y-16417189D01*
X59277764Y-16535521D01*
X59277767Y-16535523D01*
X59277770Y-16535526D01*
X59422407Y-16640612D01*
X59585733Y-16713329D01*
X59760609Y-16750500D01*
X59760610Y-16750500D01*
X59939389Y-16750500D01*
X59939391Y-16750500D01*
X60114267Y-16713329D01*
X60277593Y-16640612D01*
X60422230Y-16535526D01*
X60541859Y-16402665D01*
X60589586Y-16320000D01*
X78644815Y-16320000D01*
X78663503Y-16497805D01*
X78663504Y-16497807D01*
X78718747Y-16667829D01*
X78718750Y-16667835D01*
X78808141Y-16822665D01*
X78849812Y-16868946D01*
X78927764Y-16955521D01*
X78927767Y-16955523D01*
X78927770Y-16955526D01*
X79072407Y-17060612D01*
X79235733Y-17133329D01*
X79410609Y-17170500D01*
X79410610Y-17170500D01*
X79589389Y-17170500D01*
X79589391Y-17170500D01*
X79764267Y-17133329D01*
X79927593Y-17060612D01*
X80072230Y-16955526D01*
X80191859Y-16822665D01*
X80281250Y-16667835D01*
X80336497Y-16497803D01*
X80355185Y-16320000D01*
X80336497Y-16142197D01*
X80281250Y-15972165D01*
X80191859Y-15817335D01*
X80135044Y-15754236D01*
X80072235Y-15684478D01*
X80072232Y-15684476D01*
X80072231Y-15684475D01*
X80072230Y-15684474D01*
X79927593Y-15579388D01*
X79764267Y-15506671D01*
X79764265Y-15506670D01*
X79636594Y-15479533D01*
X79589391Y-15469500D01*
X79410609Y-15469500D01*
X79394195Y-15472989D01*
X79235733Y-15506670D01*
X79235728Y-15506672D01*
X79072408Y-15579387D01*
X78927768Y-15684475D01*
X78808140Y-15817336D01*
X78718750Y-15972164D01*
X78718747Y-15972170D01*
X78663504Y-16142192D01*
X78663503Y-16142194D01*
X78644815Y-16320000D01*
X60589586Y-16320000D01*
X60631250Y-16247835D01*
X60686497Y-16077803D01*
X60705185Y-15900000D01*
X60686497Y-15722197D01*
X60649348Y-15607865D01*
X60631252Y-15552170D01*
X60631249Y-15552164D01*
X60625466Y-15542147D01*
X60541859Y-15397335D01*
X60495003Y-15345296D01*
X60422235Y-15264478D01*
X60422232Y-15264476D01*
X60422231Y-15264475D01*
X60422230Y-15264474D01*
X60277593Y-15159388D01*
X60114267Y-15086671D01*
X60114265Y-15086670D01*
X59986594Y-15059533D01*
X59939391Y-15049500D01*
X59760609Y-15049500D01*
X59729954Y-15056015D01*
X59585733Y-15086670D01*
X59585728Y-15086672D01*
X59422408Y-15159387D01*
X59277768Y-15264475D01*
X59158140Y-15397336D01*
X59068750Y-15552164D01*
X59068747Y-15552170D01*
X59013504Y-15722192D01*
X59013503Y-15722194D01*
X58994815Y-15900000D01*
X50772516Y-15900000D01*
X50774035Y-15897830D01*
X50873903Y-15683663D01*
X50935063Y-15455408D01*
X50955659Y-15220000D01*
X50935063Y-14984592D01*
X50873903Y-14756337D01*
X50774035Y-14542171D01*
X50768425Y-14534158D01*
X50638494Y-14348597D01*
X50471402Y-14181506D01*
X50471395Y-14181501D01*
X50277834Y-14045967D01*
X50277830Y-14045965D01*
X50238886Y-14027805D01*
X50063663Y-13946097D01*
X50063659Y-13946096D01*
X50063655Y-13946094D01*
X49835413Y-13884938D01*
X49835403Y-13884936D01*
X49600001Y-13864341D01*
X49599999Y-13864341D01*
X49364596Y-13884936D01*
X49364586Y-13884938D01*
X49136344Y-13946094D01*
X49136335Y-13946098D01*
X48922171Y-14045964D01*
X48922169Y-14045965D01*
X48728597Y-14181505D01*
X48561505Y-14348597D01*
X48431575Y-14534158D01*
X48376998Y-14577783D01*
X48307500Y-14584977D01*
X48245145Y-14553454D01*
X48228425Y-14534158D01*
X48098494Y-14348597D01*
X47931402Y-14181506D01*
X47931395Y-14181501D01*
X47737834Y-14045967D01*
X47737830Y-14045965D01*
X47698886Y-14027805D01*
X47523663Y-13946097D01*
X47523659Y-13946096D01*
X47523655Y-13946094D01*
X47295413Y-13884938D01*
X47295403Y-13884936D01*
X47060001Y-13864341D01*
X47059999Y-13864341D01*
X46824596Y-13884936D01*
X46824586Y-13884938D01*
X46596344Y-13946094D01*
X46596335Y-13946098D01*
X46382171Y-14045964D01*
X46382169Y-14045965D01*
X46188597Y-14181505D01*
X46021505Y-14348597D01*
X45891575Y-14534158D01*
X45836998Y-14577783D01*
X45767500Y-14584977D01*
X45705145Y-14553454D01*
X45688425Y-14534158D01*
X45558494Y-14348597D01*
X45391402Y-14181506D01*
X45391395Y-14181501D01*
X45197834Y-14045967D01*
X45197830Y-14045965D01*
X45158886Y-14027805D01*
X44983663Y-13946097D01*
X44983659Y-13946096D01*
X44983655Y-13946094D01*
X44755413Y-13884938D01*
X44755403Y-13884936D01*
X44520001Y-13864341D01*
X44519999Y-13864341D01*
X44284596Y-13884936D01*
X44284586Y-13884938D01*
X44056344Y-13946094D01*
X44056335Y-13946098D01*
X43842171Y-14045964D01*
X43842169Y-14045965D01*
X43648597Y-14181505D01*
X43481505Y-14348597D01*
X43351575Y-14534158D01*
X43296998Y-14577783D01*
X43227500Y-14584977D01*
X43165145Y-14553454D01*
X43148425Y-14534158D01*
X43018494Y-14348597D01*
X42851402Y-14181506D01*
X42851395Y-14181501D01*
X42657834Y-14045967D01*
X42657830Y-14045965D01*
X42618886Y-14027805D01*
X42443663Y-13946097D01*
X42443659Y-13946096D01*
X42443655Y-13946094D01*
X42215413Y-13884938D01*
X42215403Y-13884936D01*
X41980001Y-13864341D01*
X41979999Y-13864341D01*
X41744596Y-13884936D01*
X41744586Y-13884938D01*
X41516344Y-13946094D01*
X41516335Y-13946098D01*
X41302171Y-14045964D01*
X41302169Y-14045965D01*
X41108597Y-14181505D01*
X40941505Y-14348597D01*
X40811575Y-14534158D01*
X40756998Y-14577783D01*
X40687500Y-14584977D01*
X40625145Y-14553454D01*
X40608425Y-14534158D01*
X40478494Y-14348597D01*
X40311402Y-14181506D01*
X40311395Y-14181501D01*
X40117834Y-14045967D01*
X40117830Y-14045965D01*
X40078886Y-14027805D01*
X39903663Y-13946097D01*
X39903659Y-13946096D01*
X39903655Y-13946094D01*
X39675413Y-13884938D01*
X39675403Y-13884936D01*
X39440001Y-13864341D01*
X39439999Y-13864341D01*
X39204596Y-13884936D01*
X39204586Y-13884938D01*
X38976344Y-13946094D01*
X38976335Y-13946098D01*
X38762171Y-14045964D01*
X38762169Y-14045965D01*
X38568597Y-14181505D01*
X38401505Y-14348597D01*
X38271575Y-14534158D01*
X38216998Y-14577783D01*
X38147500Y-14584977D01*
X38085145Y-14553454D01*
X38068425Y-14534158D01*
X37938494Y-14348597D01*
X37771402Y-14181506D01*
X37771395Y-14181501D01*
X37577834Y-14045967D01*
X37577830Y-14045965D01*
X37538886Y-14027805D01*
X37363663Y-13946097D01*
X37363659Y-13946096D01*
X37363655Y-13946094D01*
X37135413Y-13884938D01*
X37135403Y-13884936D01*
X36900001Y-13864341D01*
X36899999Y-13864341D01*
X36664596Y-13884936D01*
X36664586Y-13884938D01*
X36436344Y-13946094D01*
X36436335Y-13946098D01*
X36222171Y-14045964D01*
X36222169Y-14045965D01*
X36028597Y-14181505D01*
X35861505Y-14348597D01*
X35731575Y-14534158D01*
X35676998Y-14577783D01*
X35607500Y-14584977D01*
X35545145Y-14553454D01*
X35528425Y-14534158D01*
X35398494Y-14348597D01*
X35231402Y-14181506D01*
X35231395Y-14181501D01*
X35037834Y-14045967D01*
X35037830Y-14045965D01*
X34998886Y-14027805D01*
X34823663Y-13946097D01*
X34823659Y-13946096D01*
X34823655Y-13946094D01*
X34595413Y-13884938D01*
X34595403Y-13884936D01*
X34360001Y-13864341D01*
X34359999Y-13864341D01*
X34124596Y-13884936D01*
X34124586Y-13884938D01*
X33896344Y-13946094D01*
X33896335Y-13946098D01*
X33682171Y-14045964D01*
X33682169Y-14045965D01*
X33488597Y-14181505D01*
X33321505Y-14348597D01*
X33191575Y-14534158D01*
X33136998Y-14577783D01*
X33067500Y-14584977D01*
X33005145Y-14553454D01*
X32988425Y-14534158D01*
X32858494Y-14348597D01*
X32691402Y-14181506D01*
X32691395Y-14181501D01*
X32497834Y-14045967D01*
X32497830Y-14045965D01*
X32458886Y-14027805D01*
X32283663Y-13946097D01*
X32283659Y-13946096D01*
X32283655Y-13946094D01*
X32055413Y-13884938D01*
X32055403Y-13884936D01*
X31820001Y-13864341D01*
X31819999Y-13864341D01*
X31584596Y-13884936D01*
X31584586Y-13884938D01*
X31356344Y-13946094D01*
X31356335Y-13946098D01*
X31142171Y-14045964D01*
X31142169Y-14045965D01*
X30948597Y-14181505D01*
X30781505Y-14348597D01*
X30651575Y-14534158D01*
X30596998Y-14577783D01*
X30527500Y-14584977D01*
X30465145Y-14553454D01*
X30448425Y-14534158D01*
X30318494Y-14348597D01*
X30151402Y-14181506D01*
X30151395Y-14181501D01*
X29957834Y-14045967D01*
X29957830Y-14045965D01*
X29918886Y-14027805D01*
X29743663Y-13946097D01*
X29743659Y-13946096D01*
X29743655Y-13946094D01*
X29515413Y-13884938D01*
X29515403Y-13884936D01*
X29280001Y-13864341D01*
X29279999Y-13864341D01*
X29044596Y-13884936D01*
X29044586Y-13884938D01*
X28816344Y-13946094D01*
X28816335Y-13946098D01*
X28602171Y-14045964D01*
X28602169Y-14045965D01*
X28408597Y-14181505D01*
X28241505Y-14348597D01*
X28111575Y-14534158D01*
X28056998Y-14577783D01*
X27987500Y-14584977D01*
X27925145Y-14553454D01*
X27908425Y-14534158D01*
X27778494Y-14348597D01*
X27611402Y-14181506D01*
X27611395Y-14181501D01*
X27417834Y-14045967D01*
X27417830Y-14045965D01*
X27378886Y-14027805D01*
X27203663Y-13946097D01*
X27203659Y-13946096D01*
X27203655Y-13946094D01*
X26975413Y-13884938D01*
X26975403Y-13884936D01*
X26740001Y-13864341D01*
X26739999Y-13864341D01*
X26504596Y-13884936D01*
X26504586Y-13884938D01*
X26276344Y-13946094D01*
X26276335Y-13946098D01*
X26062171Y-14045964D01*
X26062169Y-14045965D01*
X25868597Y-14181505D01*
X25701505Y-14348597D01*
X25571575Y-14534158D01*
X25516998Y-14577783D01*
X25447500Y-14584977D01*
X25385145Y-14553454D01*
X25368425Y-14534158D01*
X25238494Y-14348597D01*
X25071402Y-14181506D01*
X25071395Y-14181501D01*
X24877834Y-14045967D01*
X24877830Y-14045965D01*
X24838886Y-14027805D01*
X24663663Y-13946097D01*
X24663659Y-13946096D01*
X24663655Y-13946094D01*
X24435413Y-13884938D01*
X24435403Y-13884936D01*
X24200001Y-13864341D01*
X24199999Y-13864341D01*
X23964596Y-13884936D01*
X23964586Y-13884938D01*
X23736344Y-13946094D01*
X23736335Y-13946098D01*
X23522171Y-14045964D01*
X23522169Y-14045965D01*
X23328597Y-14181505D01*
X23161505Y-14348597D01*
X23031575Y-14534158D01*
X22976998Y-14577783D01*
X22907500Y-14584977D01*
X22845145Y-14553454D01*
X22828425Y-14534158D01*
X22698494Y-14348597D01*
X22531402Y-14181506D01*
X22531395Y-14181501D01*
X22337834Y-14045967D01*
X22337830Y-14045965D01*
X22298886Y-14027805D01*
X22123663Y-13946097D01*
X22123659Y-13946096D01*
X22123655Y-13946094D01*
X21895413Y-13884938D01*
X21895403Y-13884936D01*
X21660001Y-13864341D01*
X21659999Y-13864341D01*
X21424596Y-13884936D01*
X21424586Y-13884938D01*
X21196344Y-13946094D01*
X21196335Y-13946098D01*
X20982171Y-14045964D01*
X20982169Y-14045965D01*
X20788597Y-14181505D01*
X20621505Y-14348597D01*
X20485965Y-14542169D01*
X20485964Y-14542171D01*
X20386098Y-14756335D01*
X20386094Y-14756344D01*
X20324938Y-14984586D01*
X20324936Y-14984596D01*
X20304341Y-15219999D01*
X20304341Y-15220000D01*
X20324936Y-15455403D01*
X20324938Y-15455413D01*
X20386094Y-15683655D01*
X20386096Y-15683659D01*
X20386097Y-15683663D01*
X20448430Y-15817336D01*
X20485965Y-15897830D01*
X20485967Y-15897834D01*
X20538014Y-15972164D01*
X20621501Y-16091396D01*
X20621506Y-16091402D01*
X20788597Y-16258493D01*
X20788603Y-16258498D01*
X20974158Y-16388425D01*
X21017783Y-16443002D01*
X21024977Y-16512500D01*
X20993454Y-16574855D01*
X20974158Y-16591575D01*
X20788597Y-16721505D01*
X20621505Y-16888597D01*
X20485965Y-17082169D01*
X20485964Y-17082171D01*
X20386098Y-17296335D01*
X20386094Y-17296344D01*
X20324938Y-17524586D01*
X20324936Y-17524596D01*
X20304341Y-17759999D01*
X20304341Y-17760000D01*
X1000000Y-17760000D01*
X1000000Y-13850000D01*
X58994815Y-13850000D01*
X59013503Y-14027805D01*
X59013504Y-14027807D01*
X59068747Y-14197829D01*
X59068750Y-14197835D01*
X59158141Y-14352665D01*
X59199812Y-14398946D01*
X59277764Y-14485521D01*
X59277767Y-14485523D01*
X59277770Y-14485526D01*
X59422407Y-14590612D01*
X59585733Y-14663329D01*
X59760609Y-14700500D01*
X59760610Y-14700500D01*
X59939389Y-14700500D01*
X59939391Y-14700500D01*
X60114267Y-14663329D01*
X60277593Y-14590612D01*
X60404314Y-14498543D01*
X81579499Y-14498543D01*
X81617947Y-14691829D01*
X81617950Y-14691839D01*
X81693364Y-14873907D01*
X81693371Y-14873920D01*
X81802860Y-15037781D01*
X81802863Y-15037785D01*
X81942214Y-15177136D01*
X81942218Y-15177139D01*
X82106079Y-15286628D01*
X82106092Y-15286635D01*
X82288160Y-15362049D01*
X82288165Y-15362051D01*
X82288169Y-15362051D01*
X82288170Y-15362052D01*
X82481456Y-15400500D01*
X82481459Y-15400500D01*
X82998667Y-15400500D01*
X83065706Y-15420185D01*
X83111461Y-15472989D01*
X83121405Y-15542147D01*
X83106053Y-15586501D01*
X83093721Y-15607859D01*
X83093720Y-15607862D01*
X83093720Y-15607863D01*
X83093719Y-15607865D01*
X83054500Y-15754234D01*
X83054500Y-15905766D01*
X83072291Y-15972164D01*
X83093719Y-16052136D01*
X83116386Y-16091395D01*
X83169485Y-16183365D01*
X83276635Y-16290515D01*
X83407865Y-16366281D01*
X83554234Y-16405500D01*
X83554236Y-16405500D01*
X83705764Y-16405500D01*
X83705766Y-16405500D01*
X83852135Y-16366281D01*
X83983365Y-16290515D01*
X84090515Y-16183365D01*
X84166281Y-16052135D01*
X84205500Y-15905766D01*
X84205500Y-15754234D01*
X84166281Y-15607865D01*
X84090515Y-15476635D01*
X84090513Y-15476633D01*
X84086451Y-15469597D01*
X84088779Y-15468252D01*
X84068355Y-15415422D01*
X84082393Y-15346977D01*
X84131206Y-15296986D01*
X84144470Y-15290543D01*
X84153914Y-15286632D01*
X84317782Y-15177139D01*
X84457139Y-15037782D01*
X84566632Y-14873914D01*
X84642051Y-14691835D01*
X84669577Y-14553454D01*
X84680500Y-14498543D01*
X85909499Y-14498543D01*
X85947947Y-14691829D01*
X85947950Y-14691839D01*
X86023364Y-14873907D01*
X86023371Y-14873920D01*
X86132860Y-15037781D01*
X86132863Y-15037785D01*
X86272214Y-15177136D01*
X86272218Y-15177139D01*
X86436079Y-15286628D01*
X86436092Y-15286635D01*
X86618160Y-15362049D01*
X86618165Y-15362051D01*
X86618169Y-15362051D01*
X86618170Y-15362052D01*
X86811456Y-15400500D01*
X86811459Y-15400500D01*
X87808543Y-15400500D01*
X87964462Y-15369485D01*
X88001835Y-15362051D01*
X88183914Y-15286632D01*
X88347782Y-15177139D01*
X88487139Y-15037782D01*
X88596632Y-14873914D01*
X88672051Y-14691835D01*
X88699577Y-14553454D01*
X88710500Y-14498543D01*
X88710500Y-14301456D01*
X88672052Y-14108170D01*
X88672051Y-14108169D01*
X88672051Y-14108165D01*
X88638764Y-14027803D01*
X88596635Y-13926092D01*
X88596628Y-13926079D01*
X88487139Y-13762218D01*
X88487136Y-13762214D01*
X88347785Y-13622863D01*
X88347781Y-13622860D01*
X88183920Y-13513371D01*
X88183907Y-13513364D01*
X88001839Y-13437950D01*
X88001829Y-13437947D01*
X87808543Y-13399500D01*
X87808541Y-13399500D01*
X86811459Y-13399500D01*
X86811457Y-13399500D01*
X86618170Y-13437947D01*
X86618160Y-13437950D01*
X86436092Y-13513364D01*
X86436079Y-13513371D01*
X86272218Y-13622860D01*
X86272214Y-13622863D01*
X86132863Y-13762214D01*
X86132860Y-13762218D01*
X86023371Y-13926079D01*
X86023364Y-13926092D01*
X85947950Y-14108160D01*
X85947947Y-14108170D01*
X85909500Y-14301456D01*
X85909500Y-14301459D01*
X85909500Y-14498541D01*
X85909500Y-14498543D01*
X85909499Y-14498543D01*
X84680500Y-14498543D01*
X84680500Y-14301456D01*
X84642052Y-14108170D01*
X84642051Y-14108169D01*
X84642051Y-14108165D01*
X84608764Y-14027803D01*
X84566635Y-13926092D01*
X84566628Y-13926079D01*
X84457139Y-13762218D01*
X84457136Y-13762214D01*
X84317785Y-13622863D01*
X84317781Y-13622860D01*
X84153920Y-13513371D01*
X84153907Y-13513364D01*
X83971839Y-13437950D01*
X83971829Y-13437947D01*
X83778543Y-13399500D01*
X83778541Y-13399500D01*
X82481459Y-13399500D01*
X82481457Y-13399500D01*
X82288170Y-13437947D01*
X82288160Y-13437950D01*
X82106092Y-13513364D01*
X82106079Y-13513371D01*
X81942218Y-13622860D01*
X81942214Y-13622863D01*
X81802863Y-13762214D01*
X81802860Y-13762218D01*
X81693371Y-13926079D01*
X81693364Y-13926092D01*
X81617950Y-14108160D01*
X81617947Y-14108170D01*
X81579500Y-14301456D01*
X81579500Y-14301459D01*
X81579500Y-14498541D01*
X81579500Y-14498543D01*
X81579499Y-14498543D01*
X60404314Y-14498543D01*
X60422230Y-14485526D01*
X60541859Y-14352665D01*
X60631250Y-14197835D01*
X60686497Y-14027803D01*
X60705185Y-13850000D01*
X60686497Y-13672197D01*
X60631250Y-13502165D01*
X60541859Y-13347335D01*
X60495003Y-13295296D01*
X60422235Y-13214478D01*
X60422232Y-13214476D01*
X60422231Y-13214475D01*
X60422230Y-13214474D01*
X60277593Y-13109388D01*
X60114267Y-13036671D01*
X60114265Y-13036670D01*
X59986594Y-13009533D01*
X59939391Y-12999500D01*
X59760609Y-12999500D01*
X59729954Y-13006015D01*
X59585733Y-13036670D01*
X59585728Y-13036672D01*
X59422408Y-13109387D01*
X59277768Y-13214475D01*
X59158140Y-13347336D01*
X59068750Y-13502164D01*
X59068747Y-13502170D01*
X59013504Y-13672192D01*
X59013503Y-13672194D01*
X58994815Y-13850000D01*
X1000000Y-13850000D01*
X1000000Y-11990000D01*
X79767315Y-11990000D01*
X79786003Y-12167805D01*
X79786004Y-12167807D01*
X79841247Y-12337829D01*
X79841250Y-12337835D01*
X79930641Y-12492665D01*
X79972312Y-12538946D01*
X80050264Y-12625521D01*
X80050267Y-12625523D01*
X80050270Y-12625526D01*
X80194907Y-12730612D01*
X80358233Y-12803329D01*
X80533109Y-12840500D01*
X80533110Y-12840500D01*
X80711889Y-12840500D01*
X80711891Y-12840500D01*
X80886767Y-12803329D01*
X81050093Y-12730612D01*
X81194730Y-12625526D01*
X81314359Y-12492665D01*
X81403750Y-12337835D01*
X81458997Y-12167803D01*
X81477685Y-11990000D01*
X81458997Y-11812197D01*
X81403750Y-11642165D01*
X81314359Y-11487335D01*
X81267503Y-11435296D01*
X81194735Y-11354478D01*
X81194732Y-11354476D01*
X81194731Y-11354475D01*
X81194730Y-11354474D01*
X81050093Y-11249388D01*
X80886767Y-11176671D01*
X80886765Y-11176670D01*
X80759094Y-11149533D01*
X80711891Y-11139500D01*
X80533109Y-11139500D01*
X80502454Y-11146015D01*
X80358233Y-11176670D01*
X80358228Y-11176672D01*
X80194908Y-11249387D01*
X80050268Y-11354475D01*
X79930640Y-11487336D01*
X79841250Y-11642164D01*
X79841247Y-11642170D01*
X79786004Y-11812192D01*
X79786003Y-11812194D01*
X79767315Y-11990000D01*
X1000000Y-11990000D01*
X1000000Y-6000000D01*
X2294922Y-6000000D01*
X2315219Y-6387287D01*
X2375886Y-6770323D01*
X2375887Y-6770330D01*
X2476262Y-7144936D01*
X2615244Y-7506994D01*
X2791310Y-7852543D01*
X3002531Y-8177793D01*
X3211095Y-8435350D01*
X3211096Y-8435350D01*
X4705748Y-6940698D01*
X4779588Y-7042330D01*
X4957670Y-7220412D01*
X5059300Y-7294251D01*
X3564648Y-8788903D01*
X3564649Y-8788904D01*
X3822206Y-8997468D01*
X4147456Y-9208689D01*
X4493005Y-9384755D01*
X4855063Y-9523737D01*
X5229669Y-9624112D01*
X5229676Y-9624113D01*
X5612712Y-9684780D01*
X5999999Y-9705078D01*
X6000001Y-9705078D01*
X6387287Y-9684780D01*
X6770323Y-9624113D01*
X6770330Y-9624112D01*
X7144936Y-9523737D01*
X7506994Y-9384755D01*
X7852543Y-9208689D01*
X8177783Y-8997476D01*
X8177785Y-8997475D01*
X8435349Y-8788902D01*
X8296447Y-8650000D01*
X62014815Y-8650000D01*
X62033503Y-8827805D01*
X62033504Y-8827807D01*
X62088747Y-8997829D01*
X62088750Y-8997835D01*
X62178141Y-9152665D01*
X62219812Y-9198946D01*
X62297764Y-9285521D01*
X62297767Y-9285523D01*
X62297770Y-9285526D01*
X62442407Y-9390612D01*
X62605733Y-9463329D01*
X62780609Y-9500500D01*
X62780610Y-9500500D01*
X62959389Y-9500500D01*
X62959391Y-9500500D01*
X63134267Y-9463329D01*
X63297593Y-9390612D01*
X63442230Y-9285526D01*
X63561859Y-9152665D01*
X63651250Y-8997835D01*
X63706497Y-8827803D01*
X63725185Y-8650000D01*
X63706497Y-8472197D01*
X63651250Y-8302165D01*
X63561859Y-8147335D01*
X63515003Y-8095296D01*
X63442235Y-8014478D01*
X63442232Y-8014476D01*
X63442231Y-8014475D01*
X63442230Y-8014474D01*
X63297593Y-7909388D01*
X63134267Y-7836671D01*
X63134265Y-7836670D01*
X63006594Y-7809533D01*
X62959391Y-7799500D01*
X62780609Y-7799500D01*
X62749954Y-7806015D01*
X62605733Y-7836670D01*
X62605728Y-7836672D01*
X62442408Y-7909387D01*
X62297768Y-8014475D01*
X62178140Y-8147336D01*
X62088750Y-8302164D01*
X62088747Y-8302170D01*
X62033504Y-8472192D01*
X62033503Y-8472194D01*
X62014815Y-8650000D01*
X8296447Y-8650000D01*
X6940698Y-7294251D01*
X7042330Y-7220412D01*
X7220412Y-7042330D01*
X7294251Y-6940698D01*
X8788902Y-8435349D01*
X8997475Y-8177785D01*
X8997476Y-8177783D01*
X9208689Y-7852543D01*
X9384755Y-7506994D01*
X9521793Y-7150000D01*
X15544341Y-7150000D01*
X15564936Y-7385403D01*
X15564938Y-7385413D01*
X15626094Y-7613655D01*
X15626096Y-7613659D01*
X15626097Y-7613663D01*
X15725965Y-7827830D01*
X15725967Y-7827834D01*
X15783073Y-7909389D01*
X15861505Y-8021401D01*
X16028599Y-8188495D01*
X16125384Y-8256265D01*
X16222165Y-8324032D01*
X16222167Y-8324033D01*
X16222170Y-8324035D01*
X16436337Y-8423903D01*
X16436343Y-8423904D01*
X16436344Y-8423905D01*
X16479058Y-8435350D01*
X16664592Y-8485063D01*
X16852918Y-8501539D01*
X16899999Y-8505659D01*
X16900000Y-8505659D01*
X16900001Y-8505659D01*
X16939234Y-8502226D01*
X17135408Y-8485063D01*
X17363663Y-8423903D01*
X17577830Y-8324035D01*
X17771401Y-8188495D01*
X17938495Y-8021401D01*
X18074035Y-7827830D01*
X18173903Y-7613663D01*
X18235063Y-7385408D01*
X18255659Y-7150000D01*
X23834341Y-7150000D01*
X23854936Y-7385403D01*
X23854938Y-7385413D01*
X23916094Y-7613655D01*
X23916096Y-7613659D01*
X23916097Y-7613663D01*
X24015965Y-7827830D01*
X24015967Y-7827834D01*
X24073073Y-7909389D01*
X24151505Y-8021401D01*
X24318599Y-8188495D01*
X24415384Y-8256265D01*
X24512165Y-8324032D01*
X24512167Y-8324033D01*
X24512170Y-8324035D01*
X24726337Y-8423903D01*
X24726343Y-8423904D01*
X24726344Y-8423905D01*
X24769058Y-8435350D01*
X24954592Y-8485063D01*
X25142918Y-8501539D01*
X25189999Y-8505659D01*
X25190000Y-8505659D01*
X25190001Y-8505659D01*
X25229234Y-8502226D01*
X25425408Y-8485063D01*
X25653663Y-8423903D01*
X25867830Y-8324035D01*
X26061401Y-8188495D01*
X26228495Y-8021401D01*
X26364035Y-7827830D01*
X26463903Y-7613663D01*
X26525063Y-7385408D01*
X26545659Y-7150000D01*
X26525063Y-6914592D01*
X26463903Y-6686337D01*
X26364035Y-6472171D01*
X26250482Y-6310000D01*
X48334815Y-6310000D01*
X48353503Y-6487805D01*
X48353504Y-6487807D01*
X48408747Y-6657829D01*
X48408750Y-6657835D01*
X48498141Y-6812665D01*
X48521478Y-6838583D01*
X48617764Y-6945521D01*
X48617767Y-6945523D01*
X48617770Y-6945526D01*
X48762407Y-7050612D01*
X48925733Y-7123329D01*
X49100609Y-7160500D01*
X49100610Y-7160500D01*
X49279389Y-7160500D01*
X49279391Y-7160500D01*
X49454267Y-7123329D01*
X49617593Y-7050612D01*
X49762230Y-6945526D01*
X49881859Y-6812665D01*
X49971250Y-6657835D01*
X50026497Y-6487803D01*
X50045185Y-6310000D01*
X50026497Y-6132197D01*
X50019285Y-6110000D01*
X52344815Y-6110000D01*
X52363503Y-6287805D01*
X52363504Y-6287807D01*
X52418747Y-6457829D01*
X52418750Y-6457835D01*
X52508141Y-6612665D01*
X52548807Y-6657829D01*
X52627764Y-6745521D01*
X52627767Y-6745523D01*
X52627770Y-6745526D01*
X52772407Y-6850612D01*
X52935733Y-6923329D01*
X53110609Y-6960500D01*
X53110610Y-6960500D01*
X53289389Y-6960500D01*
X53289391Y-6960500D01*
X53464267Y-6923329D01*
X53627593Y-6850612D01*
X53772230Y-6745526D01*
X53891859Y-6612665D01*
X53981250Y-6457835D01*
X54036497Y-6287803D01*
X54055185Y-6110000D01*
X54036497Y-5932197D01*
X53999245Y-5817547D01*
X53981252Y-5762170D01*
X53981249Y-5762164D01*
X53946707Y-5702335D01*
X53891859Y-5607335D01*
X53836502Y-5545855D01*
X53772235Y-5474478D01*
X53772232Y-5474476D01*
X53772231Y-5474475D01*
X53772230Y-5474474D01*
X53627593Y-5369388D01*
X53464267Y-5296671D01*
X53464265Y-5296670D01*
X53336594Y-5269533D01*
X53289391Y-5259500D01*
X53110609Y-5259500D01*
X53079954Y-5266015D01*
X52935733Y-5296670D01*
X52935728Y-5296672D01*
X52772408Y-5369387D01*
X52627768Y-5474475D01*
X52508140Y-5607336D01*
X52418750Y-5762164D01*
X52418747Y-5762170D01*
X52363504Y-5932192D01*
X52363503Y-5932194D01*
X52344815Y-6110000D01*
X50019285Y-6110000D01*
X49991881Y-6025659D01*
X49971252Y-5962170D01*
X49971249Y-5962164D01*
X49881859Y-5807335D01*
X49835003Y-5755296D01*
X49762235Y-5674478D01*
X49762232Y-5674476D01*
X49762231Y-5674475D01*
X49762230Y-5674474D01*
X49617593Y-5569388D01*
X49454267Y-5496671D01*
X49454265Y-5496670D01*
X49326594Y-5469533D01*
X49279391Y-5459500D01*
X49100609Y-5459500D01*
X49069954Y-5466015D01*
X48925733Y-5496670D01*
X48925728Y-5496672D01*
X48762408Y-5569387D01*
X48617768Y-5674475D01*
X48498140Y-5807336D01*
X48408750Y-5962164D01*
X48408747Y-5962170D01*
X48353504Y-6132192D01*
X48353503Y-6132194D01*
X48334815Y-6310000D01*
X26250482Y-6310000D01*
X26248601Y-6307314D01*
X26228496Y-6278600D01*
X26228495Y-6278599D01*
X26106567Y-6156671D01*
X26073084Y-6095351D01*
X26078068Y-6025659D01*
X26119939Y-5969725D01*
X26150915Y-5952810D01*
X26282331Y-5903796D01*
X26397546Y-5817546D01*
X26483796Y-5702331D01*
X26534091Y-5567483D01*
X26540500Y-5507873D01*
X26540500Y-4840001D01*
X67494390Y-4840001D01*
X67514804Y-5125433D01*
X67575628Y-5405037D01*
X67575630Y-5405043D01*
X67575631Y-5405046D01*
X67653087Y-5612712D01*
X67675635Y-5673166D01*
X67812770Y-5924309D01*
X67812775Y-5924317D01*
X67984254Y-6153387D01*
X67984270Y-6153405D01*
X68186594Y-6355729D01*
X68186612Y-6355745D01*
X68415682Y-6527224D01*
X68415690Y-6527229D01*
X68666833Y-6664364D01*
X68666832Y-6664364D01*
X68666836Y-6664365D01*
X68666839Y-6664367D01*
X68934954Y-6764369D01*
X68934960Y-6764370D01*
X68934962Y-6764371D01*
X69214566Y-6825195D01*
X69214568Y-6825195D01*
X69214572Y-6825196D01*
X69468220Y-6843337D01*
X69499999Y-6845610D01*
X69500000Y-6845610D01*
X69500001Y-6845610D01*
X69528595Y-6843564D01*
X69785428Y-6825196D01*
X69843033Y-6812665D01*
X70065037Y-6764371D01*
X70065037Y-6764370D01*
X70065046Y-6764369D01*
X70333161Y-6664367D01*
X70584315Y-6527226D01*
X70813395Y-6355739D01*
X71015739Y-6153395D01*
X71130569Y-6000000D01*
X80294922Y-6000000D01*
X80315219Y-6387287D01*
X80375886Y-6770323D01*
X80375887Y-6770330D01*
X80476262Y-7144936D01*
X80615244Y-7506994D01*
X80791310Y-7852543D01*
X81002531Y-8177793D01*
X81211095Y-8435350D01*
X81211096Y-8435350D01*
X82705748Y-6940698D01*
X82779588Y-7042330D01*
X82957670Y-7220412D01*
X83059300Y-7294251D01*
X81564648Y-8788903D01*
X81564649Y-8788904D01*
X81822206Y-8997468D01*
X82147456Y-9208689D01*
X82493005Y-9384755D01*
X82855063Y-9523737D01*
X83229669Y-9624112D01*
X83229676Y-9624113D01*
X83612712Y-9684780D01*
X83999999Y-9705078D01*
X84000001Y-9705078D01*
X84387287Y-9684780D01*
X84770323Y-9624113D01*
X84770330Y-9624112D01*
X85144936Y-9523737D01*
X85506994Y-9384755D01*
X85852543Y-9208689D01*
X86177783Y-8997476D01*
X86177785Y-8997475D01*
X86435349Y-8788902D01*
X84940698Y-7294251D01*
X85042330Y-7220412D01*
X85220412Y-7042330D01*
X85294251Y-6940698D01*
X86788902Y-8435349D01*
X86997475Y-8177785D01*
X86997476Y-8177783D01*
X87208689Y-7852543D01*
X87384755Y-7506994D01*
X87523737Y-7144936D01*
X87624112Y-6770330D01*
X87624113Y-6770323D01*
X87684780Y-6387287D01*
X87705078Y-6000000D01*
X87705078Y-5999999D01*
X87684780Y-5612712D01*
X87624113Y-5229676D01*
X87624112Y-5229669D01*
X87523737Y-4855063D01*
X87384755Y-4493005D01*
X87208689Y-4147456D01*
X86997468Y-3822206D01*
X86788904Y-3564649D01*
X86788903Y-3564648D01*
X85294251Y-5059300D01*
X85220412Y-4957670D01*
X85042330Y-4779588D01*
X84940698Y-4705748D01*
X86435350Y-3211096D01*
X86435350Y-3211095D01*
X86177793Y-3002531D01*
X85852543Y-2791310D01*
X85506994Y-2615244D01*
X85144936Y-2476262D01*
X84770330Y-2375887D01*
X84770323Y-2375886D01*
X84387287Y-2315219D01*
X84000001Y-2294922D01*
X83999999Y-2294922D01*
X83612712Y-2315219D01*
X83229676Y-2375886D01*
X83229669Y-2375887D01*
X82855063Y-2476262D01*
X82493005Y-2615244D01*
X82147456Y-2791310D01*
X81822206Y-3002531D01*
X81564648Y-3211095D01*
X81564648Y-3211096D01*
X83059301Y-4705748D01*
X82957670Y-4779588D01*
X82779588Y-4957670D01*
X82705748Y-5059300D01*
X81211096Y-3564648D01*
X81211095Y-3564648D01*
X81002531Y-3822206D01*
X80791310Y-4147456D01*
X80615244Y-4493005D01*
X80476262Y-4855063D01*
X80375887Y-5229669D01*
X80375886Y-5229676D01*
X80315219Y-5612712D01*
X80294922Y-5999999D01*
X80294922Y-6000000D01*
X71130569Y-6000000D01*
X71187226Y-5924315D01*
X71324367Y-5673161D01*
X71424369Y-5405046D01*
X71447944Y-5296672D01*
X71485195Y-5125433D01*
X71485195Y-5125432D01*
X71485196Y-5125428D01*
X71505610Y-4840000D01*
X71485196Y-4554572D01*
X71460381Y-4440500D01*
X71424371Y-4274962D01*
X71424370Y-4274960D01*
X71424369Y-4274954D01*
X71324367Y-4006839D01*
X71223549Y-3822206D01*
X71187229Y-3755690D01*
X71187224Y-3755682D01*
X71015745Y-3526612D01*
X71015729Y-3526594D01*
X70813405Y-3324270D01*
X70813387Y-3324254D01*
X70584317Y-3152775D01*
X70584309Y-3152770D01*
X70333166Y-3015635D01*
X70333167Y-3015635D01*
X70225915Y-2975632D01*
X70065046Y-2915631D01*
X70065043Y-2915630D01*
X70065037Y-2915628D01*
X69785433Y-2854804D01*
X69500001Y-2834390D01*
X69499999Y-2834390D01*
X69214566Y-2854804D01*
X68934962Y-2915628D01*
X68666833Y-3015635D01*
X68415690Y-3152770D01*
X68415682Y-3152775D01*
X68186612Y-3324254D01*
X68186594Y-3324270D01*
X67984270Y-3526594D01*
X67984254Y-3526612D01*
X67812775Y-3755682D01*
X67812770Y-3755690D01*
X67675635Y-4006833D01*
X67575628Y-4274962D01*
X67514804Y-4554566D01*
X67494390Y-4839998D01*
X67494390Y-4840001D01*
X26540500Y-4840001D01*
X26540499Y-3712128D01*
X26534091Y-3652517D01*
X26511001Y-3590610D01*
X26483797Y-3517671D01*
X26483793Y-3517664D01*
X26397547Y-3402455D01*
X26397544Y-3402452D01*
X26282335Y-3316206D01*
X26282328Y-3316202D01*
X26147482Y-3265908D01*
X26147483Y-3265908D01*
X26087883Y-3259501D01*
X26087881Y-3259500D01*
X26087873Y-3259500D01*
X26087864Y-3259500D01*
X24292129Y-3259500D01*
X24292123Y-3259501D01*
X24232516Y-3265908D01*
X24097671Y-3316202D01*
X24097664Y-3316206D01*
X23982455Y-3402452D01*
X23982452Y-3402455D01*
X23896206Y-3517664D01*
X23896202Y-3517671D01*
X23845908Y-3652517D01*
X23841786Y-3690861D01*
X23839501Y-3712123D01*
X23839500Y-3712135D01*
X23839500Y-5507870D01*
X23839501Y-5507876D01*
X23845908Y-5567483D01*
X23896202Y-5702328D01*
X23896206Y-5702335D01*
X23982452Y-5817544D01*
X23982455Y-5817547D01*
X24097664Y-5903793D01*
X24097671Y-5903797D01*
X24229081Y-5952810D01*
X24285015Y-5994681D01*
X24309432Y-6060145D01*
X24294580Y-6128418D01*
X24273430Y-6156673D01*
X24151503Y-6278600D01*
X24015965Y-6472169D01*
X24015964Y-6472171D01*
X23916098Y-6686335D01*
X23916094Y-6686344D01*
X23854938Y-6914586D01*
X23854936Y-6914596D01*
X23834341Y-7149999D01*
X23834341Y-7150000D01*
X18255659Y-7150000D01*
X18235063Y-6914592D01*
X18173903Y-6686337D01*
X18074035Y-6472171D01*
X17958601Y-6307314D01*
X17938496Y-6278600D01*
X17938495Y-6278599D01*
X17816567Y-6156671D01*
X17783084Y-6095351D01*
X17788068Y-6025659D01*
X17829939Y-5969725D01*
X17860915Y-5952810D01*
X17992331Y-5903796D01*
X18107546Y-5817546D01*
X18193796Y-5702331D01*
X18244091Y-5567483D01*
X18250500Y-5507873D01*
X18250499Y-3712128D01*
X18244091Y-3652517D01*
X18221001Y-3590610D01*
X18220773Y-3590000D01*
X19764815Y-3590000D01*
X19783503Y-3767805D01*
X19783504Y-3767807D01*
X19838747Y-3937829D01*
X19838750Y-3937835D01*
X19928141Y-4092665D01*
X19969812Y-4138946D01*
X20047764Y-4225521D01*
X20047767Y-4225523D01*
X20047770Y-4225526D01*
X20192407Y-4330612D01*
X20355733Y-4403329D01*
X20530609Y-4440500D01*
X20530610Y-4440500D01*
X20709389Y-4440500D01*
X20709391Y-4440500D01*
X20884267Y-4403329D01*
X21047593Y-4330612D01*
X21192230Y-4225526D01*
X21202325Y-4214315D01*
X21218148Y-4196741D01*
X21311859Y-4092665D01*
X21401250Y-3937835D01*
X21456497Y-3767803D01*
X21475185Y-3590000D01*
X21456497Y-3412197D01*
X21427922Y-3324254D01*
X21401252Y-3242170D01*
X21401249Y-3242164D01*
X21311859Y-3087335D01*
X21235501Y-3002531D01*
X21192235Y-2954478D01*
X21192232Y-2954476D01*
X21192231Y-2954475D01*
X21192230Y-2954474D01*
X21048435Y-2850000D01*
X48844815Y-2850000D01*
X48863503Y-3027805D01*
X48863504Y-3027807D01*
X48918747Y-3197829D01*
X48918750Y-3197835D01*
X49008141Y-3352665D01*
X49043733Y-3392194D01*
X49127764Y-3485521D01*
X49127767Y-3485523D01*
X49127770Y-3485526D01*
X49272407Y-3590612D01*
X49435733Y-3663329D01*
X49610609Y-3700500D01*
X49610610Y-3700500D01*
X49789389Y-3700500D01*
X49789391Y-3700500D01*
X49964267Y-3663329D01*
X50127593Y-3590612D01*
X50155963Y-3570000D01*
X51344815Y-3570000D01*
X51363503Y-3747805D01*
X51363504Y-3747807D01*
X51418747Y-3917829D01*
X51418750Y-3917835D01*
X51508141Y-4072665D01*
X51549812Y-4118946D01*
X51627764Y-4205521D01*
X51627767Y-4205523D01*
X51627770Y-4205526D01*
X51772407Y-4310612D01*
X51935733Y-4383329D01*
X52110609Y-4420500D01*
X52110610Y-4420500D01*
X52289389Y-4420500D01*
X52289391Y-4420500D01*
X52464267Y-4383329D01*
X52627593Y-4310612D01*
X52772230Y-4205526D01*
X52891859Y-4072665D01*
X52981250Y-3917835D01*
X53036497Y-3747803D01*
X53055185Y-3570000D01*
X53036497Y-3392197D01*
X53008873Y-3307181D01*
X52981252Y-3222170D01*
X52981249Y-3222164D01*
X52974859Y-3211096D01*
X52891859Y-3067335D01*
X52820314Y-2987876D01*
X52772235Y-2934478D01*
X52772232Y-2934476D01*
X52772231Y-2934475D01*
X52772230Y-2934474D01*
X52627593Y-2829388D01*
X52464267Y-2756671D01*
X52464265Y-2756670D01*
X52336594Y-2729533D01*
X52289391Y-2719500D01*
X52110609Y-2719500D01*
X52079954Y-2726015D01*
X51935733Y-2756670D01*
X51935728Y-2756672D01*
X51772408Y-2829387D01*
X51627768Y-2934475D01*
X51508140Y-3067336D01*
X51418750Y-3222164D01*
X51418747Y-3222170D01*
X51363504Y-3392192D01*
X51363503Y-3392194D01*
X51344815Y-3570000D01*
X50155963Y-3570000D01*
X50272230Y-3485526D01*
X50391859Y-3352665D01*
X50481250Y-3197835D01*
X50536497Y-3027803D01*
X50555185Y-2850000D01*
X50536497Y-2672197D01*
X50481250Y-2502165D01*
X50391859Y-2347335D01*
X50349238Y-2300000D01*
X64494815Y-2300000D01*
X64513503Y-2477805D01*
X64513504Y-2477807D01*
X64568747Y-2647829D01*
X64568750Y-2647835D01*
X64658141Y-2802665D01*
X64699812Y-2848946D01*
X64777764Y-2935521D01*
X64777767Y-2935523D01*
X64777770Y-2935526D01*
X64922407Y-3040612D01*
X65085733Y-3113329D01*
X65260609Y-3150500D01*
X65260610Y-3150500D01*
X65439389Y-3150500D01*
X65439391Y-3150500D01*
X65614267Y-3113329D01*
X65777593Y-3040612D01*
X65922230Y-2935526D01*
X65923176Y-2934476D01*
X65948148Y-2906741D01*
X66041859Y-2802665D01*
X66131250Y-2647835D01*
X66186497Y-2477803D01*
X66205185Y-2300000D01*
X66186497Y-2122197D01*
X66146630Y-1999500D01*
X66131252Y-1952170D01*
X66131249Y-1952164D01*
X66041859Y-1797335D01*
X65995003Y-1745296D01*
X65922235Y-1664478D01*
X65922232Y-1664476D01*
X65922231Y-1664475D01*
X65922230Y-1664474D01*
X65777593Y-1559388D01*
X65614267Y-1486671D01*
X65614265Y-1486670D01*
X65486594Y-1459533D01*
X65439391Y-1449500D01*
X65260609Y-1449500D01*
X65229954Y-1456015D01*
X65085733Y-1486670D01*
X65085728Y-1486672D01*
X64922408Y-1559387D01*
X64777768Y-1664475D01*
X64658140Y-1797336D01*
X64568750Y-1952164D01*
X64568747Y-1952170D01*
X64513504Y-2122192D01*
X64513503Y-2122194D01*
X64494815Y-2300000D01*
X50349238Y-2300000D01*
X50344666Y-2294922D01*
X50272235Y-2214478D01*
X50272232Y-2214476D01*
X50272231Y-2214475D01*
X50272230Y-2214474D01*
X50127593Y-2109388D01*
X49964267Y-2036671D01*
X49964265Y-2036670D01*
X49836594Y-2009533D01*
X49789391Y-1999500D01*
X49610609Y-1999500D01*
X49579954Y-2006015D01*
X49435733Y-2036670D01*
X49435728Y-2036672D01*
X49272408Y-2109387D01*
X49127768Y-2214475D01*
X49008140Y-2347336D01*
X48918750Y-2502164D01*
X48918747Y-2502170D01*
X48863504Y-2672192D01*
X48863503Y-2672194D01*
X48844815Y-2850000D01*
X21048435Y-2850000D01*
X21047593Y-2849388D01*
X20884267Y-2776671D01*
X20884265Y-2776670D01*
X20756594Y-2749533D01*
X20709391Y-2739500D01*
X20530609Y-2739500D01*
X20499954Y-2746015D01*
X20355733Y-2776670D01*
X20355728Y-2776672D01*
X20192408Y-2849387D01*
X20047768Y-2954475D01*
X19928140Y-3087336D01*
X19838750Y-3242164D01*
X19838747Y-3242170D01*
X19783504Y-3412192D01*
X19783503Y-3412194D01*
X19764815Y-3590000D01*
X18220773Y-3590000D01*
X18193797Y-3517671D01*
X18193793Y-3517664D01*
X18107547Y-3402455D01*
X18107544Y-3402452D01*
X17992335Y-3316206D01*
X17992328Y-3316202D01*
X17857482Y-3265908D01*
X17857483Y-3265908D01*
X17797883Y-3259501D01*
X17797881Y-3259500D01*
X17797873Y-3259500D01*
X17797864Y-3259500D01*
X16002129Y-3259500D01*
X16002123Y-3259501D01*
X15942516Y-3265908D01*
X15807671Y-3316202D01*
X15807664Y-3316206D01*
X15692455Y-3402452D01*
X15692452Y-3402455D01*
X15606206Y-3517664D01*
X15606202Y-3517671D01*
X15555908Y-3652517D01*
X15551786Y-3690861D01*
X15549501Y-3712123D01*
X15549500Y-3712135D01*
X15549500Y-5507870D01*
X15549501Y-5507876D01*
X15555908Y-5567483D01*
X15606202Y-5702328D01*
X15606206Y-5702335D01*
X15692452Y-5817544D01*
X15692455Y-5817547D01*
X15807664Y-5903793D01*
X15807671Y-5903797D01*
X15939081Y-5952810D01*
X15995015Y-5994681D01*
X16019432Y-6060145D01*
X16004580Y-6128418D01*
X15983430Y-6156673D01*
X15861503Y-6278600D01*
X15725965Y-6472169D01*
X15725964Y-6472171D01*
X15626098Y-6686335D01*
X15626094Y-6686344D01*
X15564938Y-6914586D01*
X15564936Y-6914596D01*
X15544341Y-7149999D01*
X15544341Y-7150000D01*
X9521793Y-7150000D01*
X9523737Y-7144936D01*
X9624112Y-6770330D01*
X9624113Y-6770323D01*
X9684780Y-6387287D01*
X9705078Y-6000000D01*
X9705078Y-5999999D01*
X9684780Y-5612712D01*
X9624113Y-5229676D01*
X9624112Y-5229669D01*
X9523737Y-4855063D01*
X9384755Y-4493005D01*
X9208689Y-4147456D01*
X8997468Y-3822206D01*
X8809433Y-3590000D01*
X11524815Y-3590000D01*
X11543503Y-3767805D01*
X11543504Y-3767807D01*
X11598747Y-3937829D01*
X11598750Y-3937835D01*
X11688141Y-4092665D01*
X11729812Y-4138946D01*
X11807764Y-4225521D01*
X11807767Y-4225523D01*
X11807770Y-4225526D01*
X11952407Y-4330612D01*
X12115733Y-4403329D01*
X12290609Y-4440500D01*
X12290610Y-4440500D01*
X12469389Y-4440500D01*
X12469391Y-4440500D01*
X12644267Y-4403329D01*
X12807593Y-4330612D01*
X12952230Y-4225526D01*
X12962325Y-4214315D01*
X12978148Y-4196741D01*
X13071859Y-4092665D01*
X13161250Y-3937835D01*
X13216497Y-3767803D01*
X13235185Y-3590000D01*
X13216497Y-3412197D01*
X13187922Y-3324254D01*
X13161252Y-3242170D01*
X13161249Y-3242164D01*
X13071859Y-3087335D01*
X12995501Y-3002531D01*
X12952235Y-2954478D01*
X12952232Y-2954476D01*
X12952231Y-2954475D01*
X12952230Y-2954474D01*
X12807593Y-2849388D01*
X12644267Y-2776671D01*
X12644265Y-2776670D01*
X12516594Y-2749533D01*
X12469391Y-2739500D01*
X12290609Y-2739500D01*
X12259954Y-2746015D01*
X12115733Y-2776670D01*
X12115728Y-2776672D01*
X11952408Y-2849387D01*
X11807768Y-2954475D01*
X11688140Y-3087336D01*
X11598750Y-3242164D01*
X11598747Y-3242170D01*
X11543504Y-3412192D01*
X11543503Y-3412194D01*
X11524815Y-3590000D01*
X8809433Y-3590000D01*
X8788904Y-3564649D01*
X8788903Y-3564648D01*
X7294251Y-5059300D01*
X7220412Y-4957670D01*
X7042330Y-4779588D01*
X6940698Y-4705748D01*
X8435350Y-3211096D01*
X8435350Y-3211095D01*
X8177793Y-3002531D01*
X7852543Y-2791310D01*
X7506994Y-2615244D01*
X7144936Y-2476262D01*
X6770330Y-2375887D01*
X6770323Y-2375886D01*
X6387287Y-2315219D01*
X6000001Y-2294922D01*
X5999999Y-2294922D01*
X5612712Y-2315219D01*
X5229676Y-2375886D01*
X5229669Y-2375887D01*
X4855063Y-2476262D01*
X4493005Y-2615244D01*
X4147456Y-2791310D01*
X3822206Y-3002531D01*
X3564648Y-3211095D01*
X3564648Y-3211096D01*
X5059301Y-4705748D01*
X4957670Y-4779588D01*
X4779588Y-4957670D01*
X4705748Y-5059300D01*
X3211096Y-3564648D01*
X3211095Y-3564648D01*
X3002531Y-3822206D01*
X2791310Y-4147456D01*
X2615244Y-4493005D01*
X2476262Y-4855063D01*
X2375887Y-5229669D01*
X2375886Y-5229676D01*
X2315219Y-5612712D01*
X2294922Y-5999999D01*
X2294922Y-6000000D01*
X1000000Y-6000000D01*
X1000000Y-3745321D01*
X1012599Y-3690861D01*
X1161088Y-3387120D01*
X1165949Y-3378136D01*
X1393389Y-2996445D01*
X1398982Y-2987885D01*
X1657153Y-2626294D01*
X1663422Y-2618240D01*
X1950581Y-2279191D01*
X1957500Y-2271675D01*
X2271675Y-1957500D01*
X2279191Y-1950581D01*
X2618240Y-1663422D01*
X2626294Y-1657153D01*
X2987885Y-1398982D01*
X2996445Y-1393389D01*
X3378136Y-1165949D01*
X3387120Y-1161088D01*
X3690861Y-1012598D01*
X3745321Y-1000000D01*
X86254679Y-1000000D01*
X86309138Y-1012598D01*
G37*
%TD.AperFunction*%
%TD*%
M02*
