%TF.GenerationSoftware,KiCad,Pcbnew,8.0.0*%
%TF.CreationDate,2024-03-05T14:40:53+01:00*%
%TF.ProjectId,pcb723,70636237-3233-42e6-9b69-6361645f7063,rev?*%
%TF.SameCoordinates,PX55d4a80PY2625a00*%
%TF.FileFunction,Soldermask,Bot*%
%TF.FilePolarity,Negative*%
%FSLAX46Y46*%
G04 Gerber Fmt 4.6, Leading zero omitted, Abs format (unit mm)*
G04 Created by KiCad (PCBNEW 8.0.0) date 2024-03-05 14:40:53*
%MOMM*%
%LPD*%
G01*
G04 APERTURE LIST*
%ADD10R,1.700000X1.700000*%
%ADD11O,1.700000X1.700000*%
%ADD12C,3.000000*%
%ADD13C,0.800000*%
%ADD14C,6.400000*%
%ADD15C,0.650000*%
%ADD16O,2.100000X1.000000*%
%ADD17O,1.800000X1.000000*%
G04 APERTURE END LIST*
D10*
%TO.C,J6*%
X66300000Y-31690000D03*
D11*
X63760000Y-31690000D03*
X66300000Y-34230000D03*
X63760000Y-34230000D03*
X66300000Y-36770000D03*
X63760000Y-36770000D03*
X66300000Y-39310000D03*
X63760000Y-39310000D03*
X66300000Y-41850000D03*
X63760000Y-41850000D03*
X66300000Y-44390000D03*
X63760000Y-44390000D03*
X66300000Y-46930000D03*
X63760000Y-46930000D03*
X66300000Y-49470000D03*
X63760000Y-49470000D03*
X66300000Y-52010000D03*
X63760000Y-52010000D03*
X66300000Y-54550000D03*
X63760000Y-54550000D03*
X66300000Y-57090000D03*
X63760000Y-57090000D03*
X66300000Y-59630000D03*
X63760000Y-59630000D03*
X66300000Y-62170000D03*
X63760000Y-62170000D03*
%TD*%
D10*
%TO.C,J2*%
X16900000Y-4610000D03*
D11*
X16900000Y-7150000D03*
%TD*%
D10*
%TO.C,J11*%
X84000000Y-47000000D03*
D11*
X84000000Y-49540000D03*
X84000000Y-52080000D03*
X84000000Y-54620000D03*
X84000000Y-57160000D03*
%TD*%
D10*
%TO.C,J9*%
X49600000Y-17760000D03*
D11*
X49600000Y-15220000D03*
X47060000Y-17760000D03*
X47060000Y-15220000D03*
X44520000Y-17760000D03*
X44520000Y-15220000D03*
X41980000Y-17760000D03*
X41980000Y-15220000D03*
X39440000Y-17760000D03*
X39440000Y-15220000D03*
X36900000Y-17760000D03*
X36900000Y-15220000D03*
X34360000Y-17760000D03*
X34360000Y-15220000D03*
X31820000Y-17760000D03*
X31820000Y-15220000D03*
X29280000Y-17760000D03*
X29280000Y-15220000D03*
X26740000Y-17760000D03*
X26740000Y-15220000D03*
X24200000Y-17760000D03*
X24200000Y-15220000D03*
X21660000Y-17760000D03*
X21660000Y-15220000D03*
%TD*%
D10*
%TO.C,J7*%
X17120000Y-60400000D03*
D11*
X17120000Y-62940000D03*
X19660000Y-60400000D03*
X19660000Y-62940000D03*
X22200000Y-60400000D03*
X22200000Y-62940000D03*
X24740000Y-60400000D03*
X24740000Y-62940000D03*
X27280000Y-60400000D03*
X27280000Y-62940000D03*
X29820000Y-60400000D03*
X29820000Y-62940000D03*
X32360000Y-60400000D03*
X32360000Y-62940000D03*
X34900000Y-60400000D03*
X34900000Y-62940000D03*
X37440000Y-60400000D03*
X37440000Y-62940000D03*
X39980000Y-60400000D03*
X39980000Y-62940000D03*
X42520000Y-60400000D03*
X42520000Y-62940000D03*
X45060000Y-60400000D03*
X45060000Y-62940000D03*
X47600000Y-60400000D03*
X47600000Y-62940000D03*
X50140000Y-60400000D03*
X50140000Y-62940000D03*
%TD*%
D12*
%TO.C,TP1*%
X69500000Y-4840000D03*
%TD*%
D10*
%TO.C,J1*%
X25190000Y-4610000D03*
D11*
X25190000Y-7150000D03*
%TD*%
D10*
%TO.C,J4*%
X77590000Y-24595000D03*
D11*
X77590000Y-22055000D03*
X75050000Y-24595000D03*
X75050000Y-22055000D03*
%TD*%
D13*
%TO.C,H3*%
X3600000Y-64000000D03*
X4302944Y-62302944D03*
X4302944Y-65697056D03*
X6000000Y-61600000D03*
D14*
X6000000Y-64000000D03*
D13*
X6000000Y-66400000D03*
X7697056Y-62302944D03*
X7697056Y-65697056D03*
X8400000Y-64000000D03*
%TD*%
D10*
%TO.C,J8*%
X8500000Y-20590000D03*
D11*
X5960000Y-20590000D03*
X8500000Y-23130000D03*
X5960000Y-23130000D03*
X8500000Y-25670000D03*
X5960000Y-25670000D03*
X8500000Y-28210000D03*
X5960000Y-28210000D03*
X8500000Y-30750000D03*
X5960000Y-30750000D03*
X8500000Y-33290000D03*
X5960000Y-33290000D03*
X8500000Y-35830000D03*
X5960000Y-35830000D03*
X8500000Y-38370000D03*
X5960000Y-38370000D03*
X8500000Y-40910000D03*
X5960000Y-40910000D03*
X8500000Y-43450000D03*
X5960000Y-43450000D03*
X8500000Y-45990000D03*
X5960000Y-45990000D03*
X8500000Y-48530000D03*
X5960000Y-48530000D03*
X8500000Y-51070000D03*
X5960000Y-51070000D03*
%TD*%
D15*
%TO.C,J5*%
X83630000Y-21610000D03*
X83630000Y-15830000D03*
D16*
X83130000Y-23040000D03*
D17*
X87310000Y-23040000D03*
D16*
X83130000Y-14400000D03*
D17*
X87310000Y-14400000D03*
%TD*%
D13*
%TO.C,H2*%
X81600000Y-6000000D03*
X82302944Y-4302944D03*
X82302944Y-7697056D03*
X84000000Y-3600000D03*
D14*
X84000000Y-6000000D03*
D13*
X84000000Y-8400000D03*
X85697056Y-4302944D03*
X85697056Y-7697056D03*
X86400000Y-6000000D03*
%TD*%
%TO.C,H1*%
X3600000Y-6000000D03*
X4302944Y-4302944D03*
X4302944Y-7697056D03*
X6000000Y-3600000D03*
D14*
X6000000Y-6000000D03*
D13*
X6000000Y-8400000D03*
X7697056Y-4302944D03*
X7697056Y-7697056D03*
X8400000Y-6000000D03*
%TD*%
%TO.C,H4*%
X81600000Y-64000000D03*
X82302944Y-62302944D03*
X82302944Y-65697056D03*
X84000000Y-61600000D03*
D14*
X84000000Y-64000000D03*
D13*
X84000000Y-66400000D03*
X85697056Y-62302944D03*
X85697056Y-65697056D03*
X86400000Y-64000000D03*
%TD*%
D10*
%TO.C,J10*%
X75000000Y-47000000D03*
D11*
X75000000Y-49540000D03*
X75000000Y-52080000D03*
X75000000Y-54620000D03*
X75000000Y-57160000D03*
%TD*%
M02*
