%TF.GenerationSoftware,KiCad,Pcbnew,8.0.1*%
%TF.CreationDate,2024-03-16T09:29:27+01:00*%
%TF.ProjectId,pcb723,70636237-3233-42e6-9b69-6361645f7063,rev?*%
%TF.SameCoordinates,PX55d4a80PY68e7780*%
%TF.FileFunction,Legend,Top*%
%TF.FilePolarity,Positive*%
%FSLAX46Y46*%
G04 Gerber Fmt 4.6, Leading zero omitted, Abs format (unit mm)*
G04 Created by KiCad (PCBNEW 8.0.1) date 2024-03-16 09:29:27*
%MOMM*%
%LPD*%
G01*
G04 APERTURE LIST*
%ADD10C,0.150000*%
%ADD11C,0.200000*%
%ADD12C,0.120000*%
G04 APERTURE END LIST*
D10*
X10436779Y38778431D02*
X10436779Y39778431D01*
X10436779Y39778431D02*
X10817731Y39778431D01*
X10817731Y39778431D02*
X10912969Y39730812D01*
X10912969Y39730812D02*
X10960588Y39683193D01*
X10960588Y39683193D02*
X11008207Y39587955D01*
X11008207Y39587955D02*
X11008207Y39445098D01*
X11008207Y39445098D02*
X10960588Y39349860D01*
X10960588Y39349860D02*
X10912969Y39302241D01*
X10912969Y39302241D02*
X10817731Y39254622D01*
X10817731Y39254622D02*
X10436779Y39254622D01*
X11770112Y39302241D02*
X11436779Y39302241D01*
X11436779Y38778431D02*
X11436779Y39778431D01*
X11436779Y39778431D02*
X11912969Y39778431D01*
X12484398Y39778431D02*
X12579636Y39778431D01*
X12579636Y39778431D02*
X12674874Y39730812D01*
X12674874Y39730812D02*
X12722493Y39683193D01*
X12722493Y39683193D02*
X12770112Y39587955D01*
X12770112Y39587955D02*
X12817731Y39397479D01*
X12817731Y39397479D02*
X12817731Y39159384D01*
X12817731Y39159384D02*
X12770112Y38968908D01*
X12770112Y38968908D02*
X12722493Y38873670D01*
X12722493Y38873670D02*
X12674874Y38826050D01*
X12674874Y38826050D02*
X12579636Y38778431D01*
X12579636Y38778431D02*
X12484398Y38778431D01*
X12484398Y38778431D02*
X12389160Y38826050D01*
X12389160Y38826050D02*
X12341541Y38873670D01*
X12341541Y38873670D02*
X12293922Y38968908D01*
X12293922Y38968908D02*
X12246303Y39159384D01*
X12246303Y39159384D02*
X12246303Y39397479D01*
X12246303Y39397479D02*
X12293922Y39587955D01*
X12293922Y39587955D02*
X12341541Y39683193D01*
X12341541Y39683193D02*
X12389160Y39730812D01*
X12389160Y39730812D02*
X12484398Y39778431D01*
X10436779Y28618431D02*
X10436779Y29618431D01*
X10436779Y29618431D02*
X10817731Y29618431D01*
X10817731Y29618431D02*
X10912969Y29570812D01*
X10912969Y29570812D02*
X10960588Y29523193D01*
X10960588Y29523193D02*
X11008207Y29427955D01*
X11008207Y29427955D02*
X11008207Y29285098D01*
X11008207Y29285098D02*
X10960588Y29189860D01*
X10960588Y29189860D02*
X10912969Y29142241D01*
X10912969Y29142241D02*
X10817731Y29094622D01*
X10817731Y29094622D02*
X10436779Y29094622D01*
X11770112Y29142241D02*
X11436779Y29142241D01*
X11436779Y28618431D02*
X11436779Y29618431D01*
X11436779Y29618431D02*
X11912969Y29618431D01*
X12341541Y28618431D02*
X12532017Y28618431D01*
X12532017Y28618431D02*
X12627255Y28666050D01*
X12627255Y28666050D02*
X12674874Y28713670D01*
X12674874Y28713670D02*
X12770112Y28856527D01*
X12770112Y28856527D02*
X12817731Y29047003D01*
X12817731Y29047003D02*
X12817731Y29427955D01*
X12817731Y29427955D02*
X12770112Y29523193D01*
X12770112Y29523193D02*
X12722493Y29570812D01*
X12722493Y29570812D02*
X12627255Y29618431D01*
X12627255Y29618431D02*
X12436779Y29618431D01*
X12436779Y29618431D02*
X12341541Y29570812D01*
X12341541Y29570812D02*
X12293922Y29523193D01*
X12293922Y29523193D02*
X12246303Y29427955D01*
X12246303Y29427955D02*
X12246303Y29189860D01*
X12246303Y29189860D02*
X12293922Y29094622D01*
X12293922Y29094622D02*
X12341541Y29047003D01*
X12341541Y29047003D02*
X12436779Y28999384D01*
X12436779Y28999384D02*
X12627255Y28999384D01*
X12627255Y28999384D02*
X12722493Y29047003D01*
X12722493Y29047003D02*
X12770112Y29094622D01*
X12770112Y29094622D02*
X12817731Y29189860D01*
X10436779Y20998431D02*
X10436779Y21998431D01*
X10436779Y21998431D02*
X10817731Y21998431D01*
X10817731Y21998431D02*
X10912969Y21950812D01*
X10912969Y21950812D02*
X10960588Y21903193D01*
X10960588Y21903193D02*
X11008207Y21807955D01*
X11008207Y21807955D02*
X11008207Y21665098D01*
X11008207Y21665098D02*
X10960588Y21569860D01*
X10960588Y21569860D02*
X10912969Y21522241D01*
X10912969Y21522241D02*
X10817731Y21474622D01*
X10817731Y21474622D02*
X10436779Y21474622D01*
X11389160Y21284146D02*
X11865350Y21284146D01*
X11293922Y20998431D02*
X11627255Y21998431D01*
X11627255Y21998431D02*
X11960588Y20998431D01*
X12484398Y21998431D02*
X12579636Y21998431D01*
X12579636Y21998431D02*
X12674874Y21950812D01*
X12674874Y21950812D02*
X12722493Y21903193D01*
X12722493Y21903193D02*
X12770112Y21807955D01*
X12770112Y21807955D02*
X12817731Y21617479D01*
X12817731Y21617479D02*
X12817731Y21379384D01*
X12817731Y21379384D02*
X12770112Y21188908D01*
X12770112Y21188908D02*
X12722493Y21093670D01*
X12722493Y21093670D02*
X12674874Y21046050D01*
X12674874Y21046050D02*
X12579636Y20998431D01*
X12579636Y20998431D02*
X12484398Y20998431D01*
X12484398Y20998431D02*
X12389160Y21046050D01*
X12389160Y21046050D02*
X12341541Y21093670D01*
X12341541Y21093670D02*
X12293922Y21188908D01*
X12293922Y21188908D02*
X12246303Y21379384D01*
X12246303Y21379384D02*
X12246303Y21617479D01*
X12246303Y21617479D02*
X12293922Y21807955D01*
X12293922Y21807955D02*
X12341541Y21903193D01*
X12341541Y21903193D02*
X12389160Y21950812D01*
X12389160Y21950812D02*
X12484398Y21998431D01*
X10436779Y33698431D02*
X10436779Y34698431D01*
X10436779Y34698431D02*
X10817731Y34698431D01*
X10817731Y34698431D02*
X10912969Y34650812D01*
X10912969Y34650812D02*
X10960588Y34603193D01*
X10960588Y34603193D02*
X11008207Y34507955D01*
X11008207Y34507955D02*
X11008207Y34365098D01*
X11008207Y34365098D02*
X10960588Y34269860D01*
X10960588Y34269860D02*
X10912969Y34222241D01*
X10912969Y34222241D02*
X10817731Y34174622D01*
X10817731Y34174622D02*
X10436779Y34174622D01*
X11770112Y34222241D02*
X11436779Y34222241D01*
X11436779Y33698431D02*
X11436779Y34698431D01*
X11436779Y34698431D02*
X11912969Y34698431D01*
X12770112Y34698431D02*
X12293922Y34698431D01*
X12293922Y34698431D02*
X12246303Y34222241D01*
X12246303Y34222241D02*
X12293922Y34269860D01*
X12293922Y34269860D02*
X12389160Y34317479D01*
X12389160Y34317479D02*
X12627255Y34317479D01*
X12627255Y34317479D02*
X12722493Y34269860D01*
X12722493Y34269860D02*
X12770112Y34222241D01*
X12770112Y34222241D02*
X12817731Y34127003D01*
X12817731Y34127003D02*
X12817731Y33888908D01*
X12817731Y33888908D02*
X12770112Y33793670D01*
X12770112Y33793670D02*
X12722493Y33746050D01*
X12722493Y33746050D02*
X12627255Y33698431D01*
X12627255Y33698431D02*
X12389160Y33698431D01*
X12389160Y33698431D02*
X12293922Y33746050D01*
X12293922Y33746050D02*
X12246303Y33793670D01*
X24268430Y14073221D02*
X25268430Y14073221D01*
X25268430Y14073221D02*
X25268430Y13692269D01*
X25268430Y13692269D02*
X25220811Y13597031D01*
X25220811Y13597031D02*
X25173192Y13549412D01*
X25173192Y13549412D02*
X25077954Y13501793D01*
X25077954Y13501793D02*
X24935097Y13501793D01*
X24935097Y13501793D02*
X24839859Y13549412D01*
X24839859Y13549412D02*
X24792240Y13597031D01*
X24792240Y13597031D02*
X24744621Y13692269D01*
X24744621Y13692269D02*
X24744621Y14073221D01*
X24363669Y12501793D02*
X24316050Y12549412D01*
X24316050Y12549412D02*
X24268430Y12692269D01*
X24268430Y12692269D02*
X24268430Y12787507D01*
X24268430Y12787507D02*
X24316050Y12930364D01*
X24316050Y12930364D02*
X24411288Y13025602D01*
X24411288Y13025602D02*
X24506526Y13073221D01*
X24506526Y13073221D02*
X24697002Y13120840D01*
X24697002Y13120840D02*
X24839859Y13120840D01*
X24839859Y13120840D02*
X25030335Y13073221D01*
X25030335Y13073221D02*
X25125573Y13025602D01*
X25125573Y13025602D02*
X25220811Y12930364D01*
X25220811Y12930364D02*
X25268430Y12787507D01*
X25268430Y12787507D02*
X25268430Y12692269D01*
X25268430Y12692269D02*
X25220811Y12549412D01*
X25220811Y12549412D02*
X25173192Y12501793D01*
X25268430Y11597031D02*
X25268430Y12073221D01*
X25268430Y12073221D02*
X24792240Y12120840D01*
X24792240Y12120840D02*
X24839859Y12073221D01*
X24839859Y12073221D02*
X24887478Y11977983D01*
X24887478Y11977983D02*
X24887478Y11739888D01*
X24887478Y11739888D02*
X24839859Y11644650D01*
X24839859Y11644650D02*
X24792240Y11597031D01*
X24792240Y11597031D02*
X24697002Y11549412D01*
X24697002Y11549412D02*
X24458907Y11549412D01*
X24458907Y11549412D02*
X24363669Y11597031D01*
X24363669Y11597031D02*
X24316050Y11644650D01*
X24316050Y11644650D02*
X24268430Y11739888D01*
X24268430Y11739888D02*
X24268430Y11977983D01*
X24268430Y11977983D02*
X24316050Y12073221D01*
X24316050Y12073221D02*
X24363669Y12120840D01*
X38968430Y50313221D02*
X39968430Y50313221D01*
X39968430Y50313221D02*
X39968430Y49932269D01*
X39968430Y49932269D02*
X39920811Y49837031D01*
X39920811Y49837031D02*
X39873192Y49789412D01*
X39873192Y49789412D02*
X39777954Y49741793D01*
X39777954Y49741793D02*
X39635097Y49741793D01*
X39635097Y49741793D02*
X39539859Y49789412D01*
X39539859Y49789412D02*
X39492240Y49837031D01*
X39492240Y49837031D02*
X39444621Y49932269D01*
X39444621Y49932269D02*
X39444621Y50313221D01*
X38968430Y49313221D02*
X39968430Y49313221D01*
X39968430Y49313221D02*
X39968430Y49075126D01*
X39968430Y49075126D02*
X39920811Y48932269D01*
X39920811Y48932269D02*
X39825573Y48837031D01*
X39825573Y48837031D02*
X39730335Y48789412D01*
X39730335Y48789412D02*
X39539859Y48741793D01*
X39539859Y48741793D02*
X39397002Y48741793D01*
X39397002Y48741793D02*
X39206526Y48789412D01*
X39206526Y48789412D02*
X39111288Y48837031D01*
X39111288Y48837031D02*
X39016050Y48932269D01*
X39016050Y48932269D02*
X38968430Y49075126D01*
X38968430Y49075126D02*
X38968430Y49313221D01*
X39968430Y47837031D02*
X39968430Y48313221D01*
X39968430Y48313221D02*
X39492240Y48360840D01*
X39492240Y48360840D02*
X39539859Y48313221D01*
X39539859Y48313221D02*
X39587478Y48217983D01*
X39587478Y48217983D02*
X39587478Y47979888D01*
X39587478Y47979888D02*
X39539859Y47884650D01*
X39539859Y47884650D02*
X39492240Y47837031D01*
X39492240Y47837031D02*
X39397002Y47789412D01*
X39397002Y47789412D02*
X39158907Y47789412D01*
X39158907Y47789412D02*
X39063669Y47837031D01*
X39063669Y47837031D02*
X39016050Y47884650D01*
X39016050Y47884650D02*
X38968430Y47979888D01*
X38968430Y47979888D02*
X38968430Y48217983D01*
X38968430Y48217983D02*
X39016050Y48313221D01*
X39016050Y48313221D02*
X39063669Y48360840D01*
X10436779Y41318431D02*
X10436779Y42318431D01*
X10436779Y42318431D02*
X10817731Y42318431D01*
X10817731Y42318431D02*
X10912969Y42270812D01*
X10912969Y42270812D02*
X10960588Y42223193D01*
X10960588Y42223193D02*
X11008207Y42127955D01*
X11008207Y42127955D02*
X11008207Y41985098D01*
X11008207Y41985098D02*
X10960588Y41889860D01*
X10960588Y41889860D02*
X10912969Y41842241D01*
X10912969Y41842241D02*
X10817731Y41794622D01*
X10817731Y41794622D02*
X10436779Y41794622D01*
X12008207Y41413670D02*
X11960588Y41366050D01*
X11960588Y41366050D02*
X11817731Y41318431D01*
X11817731Y41318431D02*
X11722493Y41318431D01*
X11722493Y41318431D02*
X11579636Y41366050D01*
X11579636Y41366050D02*
X11484398Y41461289D01*
X11484398Y41461289D02*
X11436779Y41556527D01*
X11436779Y41556527D02*
X11389160Y41747003D01*
X11389160Y41747003D02*
X11389160Y41889860D01*
X11389160Y41889860D02*
X11436779Y42080336D01*
X11436779Y42080336D02*
X11484398Y42175574D01*
X11484398Y42175574D02*
X11579636Y42270812D01*
X11579636Y42270812D02*
X11722493Y42318431D01*
X11722493Y42318431D02*
X11817731Y42318431D01*
X11817731Y42318431D02*
X11960588Y42270812D01*
X11960588Y42270812D02*
X12008207Y42223193D01*
X12960588Y41318431D02*
X12389160Y41318431D01*
X12674874Y41318431D02*
X12674874Y42318431D01*
X12674874Y42318431D02*
X12579636Y42175574D01*
X12579636Y42175574D02*
X12484398Y42080336D01*
X12484398Y42080336D02*
X12389160Y42032717D01*
X13817731Y41985098D02*
X13817731Y41318431D01*
X13579636Y42366050D02*
X13341541Y41651765D01*
X13341541Y41651765D02*
X13960588Y41651765D01*
X68286779Y37800181D02*
X68286779Y38800181D01*
X68286779Y38800181D02*
X68667731Y38800181D01*
X68667731Y38800181D02*
X68762969Y38752562D01*
X68762969Y38752562D02*
X68810588Y38704943D01*
X68810588Y38704943D02*
X68858207Y38609705D01*
X68858207Y38609705D02*
X68858207Y38466848D01*
X68858207Y38466848D02*
X68810588Y38371610D01*
X68810588Y38371610D02*
X68762969Y38323991D01*
X68762969Y38323991D02*
X68667731Y38276372D01*
X68667731Y38276372D02*
X68286779Y38276372D01*
X69239160Y38085896D02*
X69715350Y38085896D01*
X69143922Y37800181D02*
X69477255Y38800181D01*
X69477255Y38800181D02*
X69810588Y37800181D01*
X70191541Y37800181D02*
X70382017Y37800181D01*
X70382017Y37800181D02*
X70477255Y37847800D01*
X70477255Y37847800D02*
X70524874Y37895420D01*
X70524874Y37895420D02*
X70620112Y38038277D01*
X70620112Y38038277D02*
X70667731Y38228753D01*
X70667731Y38228753D02*
X70667731Y38609705D01*
X70667731Y38609705D02*
X70620112Y38704943D01*
X70620112Y38704943D02*
X70572493Y38752562D01*
X70572493Y38752562D02*
X70477255Y38800181D01*
X70477255Y38800181D02*
X70286779Y38800181D01*
X70286779Y38800181D02*
X70191541Y38752562D01*
X70191541Y38752562D02*
X70143922Y38704943D01*
X70143922Y38704943D02*
X70096303Y38609705D01*
X70096303Y38609705D02*
X70096303Y38371610D01*
X70096303Y38371610D02*
X70143922Y38276372D01*
X70143922Y38276372D02*
X70191541Y38228753D01*
X70191541Y38228753D02*
X70286779Y38181134D01*
X70286779Y38181134D02*
X70477255Y38181134D01*
X70477255Y38181134D02*
X70572493Y38228753D01*
X70572493Y38228753D02*
X70620112Y38276372D01*
X70620112Y38276372D02*
X70667731Y38371610D01*
X36420180Y50323221D02*
X37420180Y50323221D01*
X37420180Y50323221D02*
X37420180Y49942269D01*
X37420180Y49942269D02*
X37372561Y49847031D01*
X37372561Y49847031D02*
X37324942Y49799412D01*
X37324942Y49799412D02*
X37229704Y49751793D01*
X37229704Y49751793D02*
X37086847Y49751793D01*
X37086847Y49751793D02*
X36991609Y49799412D01*
X36991609Y49799412D02*
X36943990Y49847031D01*
X36943990Y49847031D02*
X36896371Y49942269D01*
X36896371Y49942269D02*
X36896371Y50323221D01*
X37372561Y48799412D02*
X37420180Y48894650D01*
X37420180Y48894650D02*
X37420180Y49037507D01*
X37420180Y49037507D02*
X37372561Y49180364D01*
X37372561Y49180364D02*
X37277323Y49275602D01*
X37277323Y49275602D02*
X37182085Y49323221D01*
X37182085Y49323221D02*
X36991609Y49370840D01*
X36991609Y49370840D02*
X36848752Y49370840D01*
X36848752Y49370840D02*
X36658276Y49323221D01*
X36658276Y49323221D02*
X36563038Y49275602D01*
X36563038Y49275602D02*
X36467800Y49180364D01*
X36467800Y49180364D02*
X36420180Y49037507D01*
X36420180Y49037507D02*
X36420180Y48942269D01*
X36420180Y48942269D02*
X36467800Y48799412D01*
X36467800Y48799412D02*
X36515419Y48751793D01*
X36515419Y48751793D02*
X36848752Y48751793D01*
X36848752Y48751793D02*
X36848752Y48942269D01*
X36420180Y48275602D02*
X36420180Y48085126D01*
X36420180Y48085126D02*
X36467800Y47989888D01*
X36467800Y47989888D02*
X36515419Y47942269D01*
X36515419Y47942269D02*
X36658276Y47847031D01*
X36658276Y47847031D02*
X36848752Y47799412D01*
X36848752Y47799412D02*
X37229704Y47799412D01*
X37229704Y47799412D02*
X37324942Y47847031D01*
X37324942Y47847031D02*
X37372561Y47894650D01*
X37372561Y47894650D02*
X37420180Y47989888D01*
X37420180Y47989888D02*
X37420180Y48180364D01*
X37420180Y48180364D02*
X37372561Y48275602D01*
X37372561Y48275602D02*
X37324942Y48323221D01*
X37324942Y48323221D02*
X37229704Y48370840D01*
X37229704Y48370840D02*
X36991609Y48370840D01*
X36991609Y48370840D02*
X36896371Y48323221D01*
X36896371Y48323221D02*
X36848752Y48275602D01*
X36848752Y48275602D02*
X36801133Y48180364D01*
X36801133Y48180364D02*
X36801133Y47989888D01*
X36801133Y47989888D02*
X36848752Y47894650D01*
X36848752Y47894650D02*
X36896371Y47847031D01*
X36896371Y47847031D02*
X36991609Y47799412D01*
X68236779Y22530181D02*
X68236779Y23530181D01*
X68236779Y23530181D02*
X68617731Y23530181D01*
X68617731Y23530181D02*
X68712969Y23482562D01*
X68712969Y23482562D02*
X68760588Y23434943D01*
X68760588Y23434943D02*
X68808207Y23339705D01*
X68808207Y23339705D02*
X68808207Y23196848D01*
X68808207Y23196848D02*
X68760588Y23101610D01*
X68760588Y23101610D02*
X68712969Y23053991D01*
X68712969Y23053991D02*
X68617731Y23006372D01*
X68617731Y23006372D02*
X68236779Y23006372D01*
X69760588Y23482562D02*
X69665350Y23530181D01*
X69665350Y23530181D02*
X69522493Y23530181D01*
X69522493Y23530181D02*
X69379636Y23482562D01*
X69379636Y23482562D02*
X69284398Y23387324D01*
X69284398Y23387324D02*
X69236779Y23292086D01*
X69236779Y23292086D02*
X69189160Y23101610D01*
X69189160Y23101610D02*
X69189160Y22958753D01*
X69189160Y22958753D02*
X69236779Y22768277D01*
X69236779Y22768277D02*
X69284398Y22673039D01*
X69284398Y22673039D02*
X69379636Y22577800D01*
X69379636Y22577800D02*
X69522493Y22530181D01*
X69522493Y22530181D02*
X69617731Y22530181D01*
X69617731Y22530181D02*
X69760588Y22577800D01*
X69760588Y22577800D02*
X69808207Y22625420D01*
X69808207Y22625420D02*
X69808207Y22958753D01*
X69808207Y22958753D02*
X69617731Y22958753D01*
X70189160Y23434943D02*
X70236779Y23482562D01*
X70236779Y23482562D02*
X70332017Y23530181D01*
X70332017Y23530181D02*
X70570112Y23530181D01*
X70570112Y23530181D02*
X70665350Y23482562D01*
X70665350Y23482562D02*
X70712969Y23434943D01*
X70712969Y23434943D02*
X70760588Y23339705D01*
X70760588Y23339705D02*
X70760588Y23244467D01*
X70760588Y23244467D02*
X70712969Y23101610D01*
X70712969Y23101610D02*
X70141541Y22530181D01*
X70141541Y22530181D02*
X70760588Y22530181D01*
X1624398Y38778431D02*
X1624398Y39778431D01*
X1624398Y39778431D02*
X2005350Y39778431D01*
X2005350Y39778431D02*
X2100588Y39730812D01*
X2100588Y39730812D02*
X2148207Y39683193D01*
X2148207Y39683193D02*
X2195826Y39587955D01*
X2195826Y39587955D02*
X2195826Y39445098D01*
X2195826Y39445098D02*
X2148207Y39349860D01*
X2148207Y39349860D02*
X2100588Y39302241D01*
X2100588Y39302241D02*
X2005350Y39254622D01*
X2005350Y39254622D02*
X1624398Y39254622D01*
X2957731Y39302241D02*
X2624398Y39302241D01*
X2624398Y38778431D02*
X2624398Y39778431D01*
X2624398Y39778431D02*
X3100588Y39778431D01*
X4005350Y38778431D02*
X3433922Y38778431D01*
X3719636Y38778431D02*
X3719636Y39778431D01*
X3719636Y39778431D02*
X3624398Y39635574D01*
X3624398Y39635574D02*
X3529160Y39540336D01*
X3529160Y39540336D02*
X3433922Y39492717D01*
X26268430Y59263221D02*
X27268430Y59263221D01*
X27268430Y59263221D02*
X27268430Y58882269D01*
X27268430Y58882269D02*
X27220811Y58787031D01*
X27220811Y58787031D02*
X27173192Y58739412D01*
X27173192Y58739412D02*
X27077954Y58691793D01*
X27077954Y58691793D02*
X26935097Y58691793D01*
X26935097Y58691793D02*
X26839859Y58739412D01*
X26839859Y58739412D02*
X26792240Y58787031D01*
X26792240Y58787031D02*
X26744621Y58882269D01*
X26744621Y58882269D02*
X26744621Y59263221D01*
X26792240Y57929888D02*
X26744621Y57787031D01*
X26744621Y57787031D02*
X26697002Y57739412D01*
X26697002Y57739412D02*
X26601764Y57691793D01*
X26601764Y57691793D02*
X26458907Y57691793D01*
X26458907Y57691793D02*
X26363669Y57739412D01*
X26363669Y57739412D02*
X26316050Y57787031D01*
X26316050Y57787031D02*
X26268430Y57882269D01*
X26268430Y57882269D02*
X26268430Y58263221D01*
X26268430Y58263221D02*
X27268430Y58263221D01*
X27268430Y58263221D02*
X27268430Y57929888D01*
X27268430Y57929888D02*
X27220811Y57834650D01*
X27220811Y57834650D02*
X27173192Y57787031D01*
X27173192Y57787031D02*
X27077954Y57739412D01*
X27077954Y57739412D02*
X26982716Y57739412D01*
X26982716Y57739412D02*
X26887478Y57787031D01*
X26887478Y57787031D02*
X26839859Y57834650D01*
X26839859Y57834650D02*
X26792240Y57929888D01*
X26792240Y57929888D02*
X26792240Y58263221D01*
X26935097Y56834650D02*
X26268430Y56834650D01*
X27316050Y57072745D02*
X26601764Y57310840D01*
X26601764Y57310840D02*
X26601764Y56691793D01*
X46588430Y50313221D02*
X47588430Y50313221D01*
X47588430Y50313221D02*
X47588430Y49932269D01*
X47588430Y49932269D02*
X47540811Y49837031D01*
X47540811Y49837031D02*
X47493192Y49789412D01*
X47493192Y49789412D02*
X47397954Y49741793D01*
X47397954Y49741793D02*
X47255097Y49741793D01*
X47255097Y49741793D02*
X47159859Y49789412D01*
X47159859Y49789412D02*
X47112240Y49837031D01*
X47112240Y49837031D02*
X47064621Y49932269D01*
X47064621Y49932269D02*
X47064621Y50313221D01*
X46683669Y48741793D02*
X46636050Y48789412D01*
X46636050Y48789412D02*
X46588430Y48932269D01*
X46588430Y48932269D02*
X46588430Y49027507D01*
X46588430Y49027507D02*
X46636050Y49170364D01*
X46636050Y49170364D02*
X46731288Y49265602D01*
X46731288Y49265602D02*
X46826526Y49313221D01*
X46826526Y49313221D02*
X47017002Y49360840D01*
X47017002Y49360840D02*
X47159859Y49360840D01*
X47159859Y49360840D02*
X47350335Y49313221D01*
X47350335Y49313221D02*
X47445573Y49265602D01*
X47445573Y49265602D02*
X47540811Y49170364D01*
X47540811Y49170364D02*
X47588430Y49027507D01*
X47588430Y49027507D02*
X47588430Y48932269D01*
X47588430Y48932269D02*
X47540811Y48789412D01*
X47540811Y48789412D02*
X47493192Y48741793D01*
X46588430Y47789412D02*
X46588430Y48360840D01*
X46588430Y48075126D02*
X47588430Y48075126D01*
X47588430Y48075126D02*
X47445573Y48170364D01*
X47445573Y48170364D02*
X47350335Y48265602D01*
X47350335Y48265602D02*
X47302716Y48360840D01*
X47493192Y47408459D02*
X47540811Y47360840D01*
X47540811Y47360840D02*
X47588430Y47265602D01*
X47588430Y47265602D02*
X47588430Y47027507D01*
X47588430Y47027507D02*
X47540811Y46932269D01*
X47540811Y46932269D02*
X47493192Y46884650D01*
X47493192Y46884650D02*
X47397954Y46837031D01*
X47397954Y46837031D02*
X47302716Y46837031D01*
X47302716Y46837031D02*
X47159859Y46884650D01*
X47159859Y46884650D02*
X46588430Y47456078D01*
X46588430Y47456078D02*
X46588430Y46837031D01*
D11*
X76807292Y59267258D02*
X76807292Y60467258D01*
X76807292Y60467258D02*
X77264435Y60467258D01*
X77264435Y60467258D02*
X77378720Y60410115D01*
X77378720Y60410115D02*
X77435863Y60352972D01*
X77435863Y60352972D02*
X77493006Y60238686D01*
X77493006Y60238686D02*
X77493006Y60067258D01*
X77493006Y60067258D02*
X77435863Y59952972D01*
X77435863Y59952972D02*
X77378720Y59895829D01*
X77378720Y59895829D02*
X77264435Y59838686D01*
X77264435Y59838686D02*
X76807292Y59838686D01*
X77893006Y60467258D02*
X78178720Y59267258D01*
X78178720Y59267258D02*
X78407292Y60124400D01*
X78407292Y60124400D02*
X78635863Y59267258D01*
X78635863Y59267258D02*
X78921578Y60467258D01*
X80064435Y59267258D02*
X79664435Y59838686D01*
X79378721Y59267258D02*
X79378721Y60467258D01*
X79378721Y60467258D02*
X79835864Y60467258D01*
X79835864Y60467258D02*
X79950149Y60410115D01*
X79950149Y60410115D02*
X80007292Y60352972D01*
X80007292Y60352972D02*
X80064435Y60238686D01*
X80064435Y60238686D02*
X80064435Y60067258D01*
X80064435Y60067258D02*
X80007292Y59952972D01*
X80007292Y59952972D02*
X79950149Y59895829D01*
X79950149Y59895829D02*
X79835864Y59838686D01*
X79835864Y59838686D02*
X79378721Y59838686D01*
D10*
X59236779Y27630181D02*
X59236779Y28630181D01*
X59236779Y28630181D02*
X59617731Y28630181D01*
X59617731Y28630181D02*
X59712969Y28582562D01*
X59712969Y28582562D02*
X59760588Y28534943D01*
X59760588Y28534943D02*
X59808207Y28439705D01*
X59808207Y28439705D02*
X59808207Y28296848D01*
X59808207Y28296848D02*
X59760588Y28201610D01*
X59760588Y28201610D02*
X59712969Y28153991D01*
X59712969Y28153991D02*
X59617731Y28106372D01*
X59617731Y28106372D02*
X59236779Y28106372D01*
X60760588Y28582562D02*
X60665350Y28630181D01*
X60665350Y28630181D02*
X60522493Y28630181D01*
X60522493Y28630181D02*
X60379636Y28582562D01*
X60379636Y28582562D02*
X60284398Y28487324D01*
X60284398Y28487324D02*
X60236779Y28392086D01*
X60236779Y28392086D02*
X60189160Y28201610D01*
X60189160Y28201610D02*
X60189160Y28058753D01*
X60189160Y28058753D02*
X60236779Y27868277D01*
X60236779Y27868277D02*
X60284398Y27773039D01*
X60284398Y27773039D02*
X60379636Y27677800D01*
X60379636Y27677800D02*
X60522493Y27630181D01*
X60522493Y27630181D02*
X60617731Y27630181D01*
X60617731Y27630181D02*
X60760588Y27677800D01*
X60760588Y27677800D02*
X60808207Y27725420D01*
X60808207Y27725420D02*
X60808207Y28058753D01*
X60808207Y28058753D02*
X60617731Y28058753D01*
X61141541Y28630181D02*
X61808207Y28630181D01*
X61808207Y28630181D02*
X61379636Y27630181D01*
X1576779Y48938431D02*
X1576779Y49938431D01*
X1576779Y49938431D02*
X1957731Y49938431D01*
X1957731Y49938431D02*
X2052969Y49890812D01*
X2052969Y49890812D02*
X2100588Y49843193D01*
X2100588Y49843193D02*
X2148207Y49747955D01*
X2148207Y49747955D02*
X2148207Y49605098D01*
X2148207Y49605098D02*
X2100588Y49509860D01*
X2100588Y49509860D02*
X2052969Y49462241D01*
X2052969Y49462241D02*
X1957731Y49414622D01*
X1957731Y49414622D02*
X1576779Y49414622D01*
X2576779Y49462241D02*
X2910112Y49462241D01*
X3052969Y48938431D02*
X2576779Y48938431D01*
X2576779Y48938431D02*
X2576779Y49938431D01*
X2576779Y49938431D02*
X3052969Y49938431D01*
X3386303Y49938431D02*
X4005350Y49938431D01*
X4005350Y49938431D02*
X3672017Y49557479D01*
X3672017Y49557479D02*
X3814874Y49557479D01*
X3814874Y49557479D02*
X3910112Y49509860D01*
X3910112Y49509860D02*
X3957731Y49462241D01*
X3957731Y49462241D02*
X4005350Y49367003D01*
X4005350Y49367003D02*
X4005350Y49128908D01*
X4005350Y49128908D02*
X3957731Y49033670D01*
X3957731Y49033670D02*
X3910112Y48986050D01*
X3910112Y48986050D02*
X3814874Y48938431D01*
X3814874Y48938431D02*
X3529160Y48938431D01*
X3529160Y48938431D02*
X3433922Y48986050D01*
X3433922Y48986050D02*
X3386303Y49033670D01*
D11*
X14831220Y56237258D02*
X14259792Y56237258D01*
X14259792Y56237258D02*
X14259792Y57437258D01*
X15231221Y56865829D02*
X15631221Y56865829D01*
X15802649Y56237258D02*
X15231221Y56237258D01*
X15231221Y56237258D02*
X15231221Y57437258D01*
X15231221Y57437258D02*
X15802649Y57437258D01*
X16316935Y56237258D02*
X16316935Y57437258D01*
X16316935Y57437258D02*
X16602649Y57437258D01*
X16602649Y57437258D02*
X16774078Y57380115D01*
X16774078Y57380115D02*
X16888363Y57265829D01*
X16888363Y57265829D02*
X16945506Y57151543D01*
X16945506Y57151543D02*
X17002649Y56922972D01*
X17002649Y56922972D02*
X17002649Y56751543D01*
X17002649Y56751543D02*
X16945506Y56522972D01*
X16945506Y56522972D02*
X16888363Y56408686D01*
X16888363Y56408686D02*
X16774078Y56294400D01*
X16774078Y56294400D02*
X16602649Y56237258D01*
X16602649Y56237258D02*
X16316935Y56237258D01*
X18145506Y56237258D02*
X17459792Y56237258D01*
X17802649Y56237258D02*
X17802649Y57437258D01*
X17802649Y57437258D02*
X17688363Y57265829D01*
X17688363Y57265829D02*
X17574078Y57151543D01*
X17574078Y57151543D02*
X17459792Y57094400D01*
D10*
X68236779Y35330181D02*
X68236779Y36330181D01*
X68236779Y36330181D02*
X68617731Y36330181D01*
X68617731Y36330181D02*
X68712969Y36282562D01*
X68712969Y36282562D02*
X68760588Y36234943D01*
X68760588Y36234943D02*
X68808207Y36139705D01*
X68808207Y36139705D02*
X68808207Y35996848D01*
X68808207Y35996848D02*
X68760588Y35901610D01*
X68760588Y35901610D02*
X68712969Y35853991D01*
X68712969Y35853991D02*
X68617731Y35806372D01*
X68617731Y35806372D02*
X68236779Y35806372D01*
X69808207Y35425420D02*
X69760588Y35377800D01*
X69760588Y35377800D02*
X69617731Y35330181D01*
X69617731Y35330181D02*
X69522493Y35330181D01*
X69522493Y35330181D02*
X69379636Y35377800D01*
X69379636Y35377800D02*
X69284398Y35473039D01*
X69284398Y35473039D02*
X69236779Y35568277D01*
X69236779Y35568277D02*
X69189160Y35758753D01*
X69189160Y35758753D02*
X69189160Y35901610D01*
X69189160Y35901610D02*
X69236779Y36092086D01*
X69236779Y36092086D02*
X69284398Y36187324D01*
X69284398Y36187324D02*
X69379636Y36282562D01*
X69379636Y36282562D02*
X69522493Y36330181D01*
X69522493Y36330181D02*
X69617731Y36330181D01*
X69617731Y36330181D02*
X69760588Y36282562D01*
X69760588Y36282562D02*
X69808207Y36234943D01*
X70284398Y35330181D02*
X70474874Y35330181D01*
X70474874Y35330181D02*
X70570112Y35377800D01*
X70570112Y35377800D02*
X70617731Y35425420D01*
X70617731Y35425420D02*
X70712969Y35568277D01*
X70712969Y35568277D02*
X70760588Y35758753D01*
X70760588Y35758753D02*
X70760588Y36139705D01*
X70760588Y36139705D02*
X70712969Y36234943D01*
X70712969Y36234943D02*
X70665350Y36282562D01*
X70665350Y36282562D02*
X70570112Y36330181D01*
X70570112Y36330181D02*
X70379636Y36330181D01*
X70379636Y36330181D02*
X70284398Y36282562D01*
X70284398Y36282562D02*
X70236779Y36234943D01*
X70236779Y36234943D02*
X70189160Y36139705D01*
X70189160Y36139705D02*
X70189160Y35901610D01*
X70189160Y35901610D02*
X70236779Y35806372D01*
X70236779Y35806372D02*
X70284398Y35758753D01*
X70284398Y35758753D02*
X70379636Y35711134D01*
X70379636Y35711134D02*
X70570112Y35711134D01*
X70570112Y35711134D02*
X70665350Y35758753D01*
X70665350Y35758753D02*
X70712969Y35806372D01*
X70712969Y35806372D02*
X70760588Y35901610D01*
X58336779Y7230181D02*
X58336779Y8230181D01*
X58336779Y8230181D02*
X58717731Y8230181D01*
X58717731Y8230181D02*
X58812969Y8182562D01*
X58812969Y8182562D02*
X58860588Y8134943D01*
X58860588Y8134943D02*
X58908207Y8039705D01*
X58908207Y8039705D02*
X58908207Y7896848D01*
X58908207Y7896848D02*
X58860588Y7801610D01*
X58860588Y7801610D02*
X58812969Y7753991D01*
X58812969Y7753991D02*
X58717731Y7706372D01*
X58717731Y7706372D02*
X58336779Y7706372D01*
X59670112Y7753991D02*
X59812969Y7706372D01*
X59812969Y7706372D02*
X59860588Y7658753D01*
X59860588Y7658753D02*
X59908207Y7563515D01*
X59908207Y7563515D02*
X59908207Y7420658D01*
X59908207Y7420658D02*
X59860588Y7325420D01*
X59860588Y7325420D02*
X59812969Y7277800D01*
X59812969Y7277800D02*
X59717731Y7230181D01*
X59717731Y7230181D02*
X59336779Y7230181D01*
X59336779Y7230181D02*
X59336779Y8230181D01*
X59336779Y8230181D02*
X59670112Y8230181D01*
X59670112Y8230181D02*
X59765350Y8182562D01*
X59765350Y8182562D02*
X59812969Y8134943D01*
X59812969Y8134943D02*
X59860588Y8039705D01*
X59860588Y8039705D02*
X59860588Y7944467D01*
X59860588Y7944467D02*
X59812969Y7849229D01*
X59812969Y7849229D02*
X59765350Y7801610D01*
X59765350Y7801610D02*
X59670112Y7753991D01*
X59670112Y7753991D02*
X59336779Y7753991D01*
X60860588Y7230181D02*
X60289160Y7230181D01*
X60574874Y7230181D02*
X60574874Y8230181D01*
X60574874Y8230181D02*
X60479636Y8087324D01*
X60479636Y8087324D02*
X60384398Y7992086D01*
X60384398Y7992086D02*
X60289160Y7944467D01*
X61193922Y8230181D02*
X61812969Y8230181D01*
X61812969Y8230181D02*
X61479636Y7849229D01*
X61479636Y7849229D02*
X61622493Y7849229D01*
X61622493Y7849229D02*
X61717731Y7801610D01*
X61717731Y7801610D02*
X61765350Y7753991D01*
X61765350Y7753991D02*
X61812969Y7658753D01*
X61812969Y7658753D02*
X61812969Y7420658D01*
X61812969Y7420658D02*
X61765350Y7325420D01*
X61765350Y7325420D02*
X61717731Y7277800D01*
X61717731Y7277800D02*
X61622493Y7230181D01*
X61622493Y7230181D02*
X61336779Y7230181D01*
X61336779Y7230181D02*
X61241541Y7277800D01*
X61241541Y7277800D02*
X61193922Y7325420D01*
X68236779Y27630181D02*
X68236779Y28630181D01*
X68236779Y28630181D02*
X68617731Y28630181D01*
X68617731Y28630181D02*
X68712969Y28582562D01*
X68712969Y28582562D02*
X68760588Y28534943D01*
X68760588Y28534943D02*
X68808207Y28439705D01*
X68808207Y28439705D02*
X68808207Y28296848D01*
X68808207Y28296848D02*
X68760588Y28201610D01*
X68760588Y28201610D02*
X68712969Y28153991D01*
X68712969Y28153991D02*
X68617731Y28106372D01*
X68617731Y28106372D02*
X68236779Y28106372D01*
X69760588Y28582562D02*
X69665350Y28630181D01*
X69665350Y28630181D02*
X69522493Y28630181D01*
X69522493Y28630181D02*
X69379636Y28582562D01*
X69379636Y28582562D02*
X69284398Y28487324D01*
X69284398Y28487324D02*
X69236779Y28392086D01*
X69236779Y28392086D02*
X69189160Y28201610D01*
X69189160Y28201610D02*
X69189160Y28058753D01*
X69189160Y28058753D02*
X69236779Y27868277D01*
X69236779Y27868277D02*
X69284398Y27773039D01*
X69284398Y27773039D02*
X69379636Y27677800D01*
X69379636Y27677800D02*
X69522493Y27630181D01*
X69522493Y27630181D02*
X69617731Y27630181D01*
X69617731Y27630181D02*
X69760588Y27677800D01*
X69760588Y27677800D02*
X69808207Y27725420D01*
X69808207Y27725420D02*
X69808207Y28058753D01*
X69808207Y28058753D02*
X69617731Y28058753D01*
X70665350Y28630181D02*
X70474874Y28630181D01*
X70474874Y28630181D02*
X70379636Y28582562D01*
X70379636Y28582562D02*
X70332017Y28534943D01*
X70332017Y28534943D02*
X70236779Y28392086D01*
X70236779Y28392086D02*
X70189160Y28201610D01*
X70189160Y28201610D02*
X70189160Y27820658D01*
X70189160Y27820658D02*
X70236779Y27725420D01*
X70236779Y27725420D02*
X70284398Y27677800D01*
X70284398Y27677800D02*
X70379636Y27630181D01*
X70379636Y27630181D02*
X70570112Y27630181D01*
X70570112Y27630181D02*
X70665350Y27677800D01*
X70665350Y27677800D02*
X70712969Y27725420D01*
X70712969Y27725420D02*
X70760588Y27820658D01*
X70760588Y27820658D02*
X70760588Y28058753D01*
X70760588Y28058753D02*
X70712969Y28153991D01*
X70712969Y28153991D02*
X70665350Y28201610D01*
X70665350Y28201610D02*
X70570112Y28249229D01*
X70570112Y28249229D02*
X70379636Y28249229D01*
X70379636Y28249229D02*
X70284398Y28201610D01*
X70284398Y28201610D02*
X70236779Y28153991D01*
X70236779Y28153991D02*
X70189160Y28058753D01*
X36380180Y59263221D02*
X37380180Y59263221D01*
X37380180Y59263221D02*
X37380180Y58882269D01*
X37380180Y58882269D02*
X37332561Y58787031D01*
X37332561Y58787031D02*
X37284942Y58739412D01*
X37284942Y58739412D02*
X37189704Y58691793D01*
X37189704Y58691793D02*
X37046847Y58691793D01*
X37046847Y58691793D02*
X36951609Y58739412D01*
X36951609Y58739412D02*
X36903990Y58787031D01*
X36903990Y58787031D02*
X36856371Y58882269D01*
X36856371Y58882269D02*
X36856371Y59263221D01*
X36380180Y58263221D02*
X37380180Y58263221D01*
X37380180Y58263221D02*
X37380180Y58025126D01*
X37380180Y58025126D02*
X37332561Y57882269D01*
X37332561Y57882269D02*
X37237323Y57787031D01*
X37237323Y57787031D02*
X37142085Y57739412D01*
X37142085Y57739412D02*
X36951609Y57691793D01*
X36951609Y57691793D02*
X36808752Y57691793D01*
X36808752Y57691793D02*
X36618276Y57739412D01*
X36618276Y57739412D02*
X36523038Y57787031D01*
X36523038Y57787031D02*
X36427800Y57882269D01*
X36427800Y57882269D02*
X36380180Y58025126D01*
X36380180Y58025126D02*
X36380180Y58263221D01*
X37380180Y57358459D02*
X37380180Y56691793D01*
X37380180Y56691793D02*
X36380180Y57120364D01*
X10436779Y23538431D02*
X10436779Y24538431D01*
X10436779Y24538431D02*
X10817731Y24538431D01*
X10817731Y24538431D02*
X10912969Y24490812D01*
X10912969Y24490812D02*
X10960588Y24443193D01*
X10960588Y24443193D02*
X11008207Y24347955D01*
X11008207Y24347955D02*
X11008207Y24205098D01*
X11008207Y24205098D02*
X10960588Y24109860D01*
X10960588Y24109860D02*
X10912969Y24062241D01*
X10912969Y24062241D02*
X10817731Y24014622D01*
X10817731Y24014622D02*
X10436779Y24014622D01*
X12008207Y23633670D02*
X11960588Y23586050D01*
X11960588Y23586050D02*
X11817731Y23538431D01*
X11817731Y23538431D02*
X11722493Y23538431D01*
X11722493Y23538431D02*
X11579636Y23586050D01*
X11579636Y23586050D02*
X11484398Y23681289D01*
X11484398Y23681289D02*
X11436779Y23776527D01*
X11436779Y23776527D02*
X11389160Y23967003D01*
X11389160Y23967003D02*
X11389160Y24109860D01*
X11389160Y24109860D02*
X11436779Y24300336D01*
X11436779Y24300336D02*
X11484398Y24395574D01*
X11484398Y24395574D02*
X11579636Y24490812D01*
X11579636Y24490812D02*
X11722493Y24538431D01*
X11722493Y24538431D02*
X11817731Y24538431D01*
X11817731Y24538431D02*
X11960588Y24490812D01*
X11960588Y24490812D02*
X12008207Y24443193D01*
X12389160Y24443193D02*
X12436779Y24490812D01*
X12436779Y24490812D02*
X12532017Y24538431D01*
X12532017Y24538431D02*
X12770112Y24538431D01*
X12770112Y24538431D02*
X12865350Y24490812D01*
X12865350Y24490812D02*
X12912969Y24443193D01*
X12912969Y24443193D02*
X12960588Y24347955D01*
X12960588Y24347955D02*
X12960588Y24252717D01*
X12960588Y24252717D02*
X12912969Y24109860D01*
X12912969Y24109860D02*
X12341541Y23538431D01*
X12341541Y23538431D02*
X12960588Y23538431D01*
X672017Y26078431D02*
X672017Y27078431D01*
X672017Y27078431D02*
X1052969Y27078431D01*
X1052969Y27078431D02*
X1148207Y27030812D01*
X1148207Y27030812D02*
X1195826Y26983193D01*
X1195826Y26983193D02*
X1243445Y26887955D01*
X1243445Y26887955D02*
X1243445Y26745098D01*
X1243445Y26745098D02*
X1195826Y26649860D01*
X1195826Y26649860D02*
X1148207Y26602241D01*
X1148207Y26602241D02*
X1052969Y26554622D01*
X1052969Y26554622D02*
X672017Y26554622D01*
X2005350Y26602241D02*
X1672017Y26602241D01*
X1672017Y26078431D02*
X1672017Y27078431D01*
X1672017Y27078431D02*
X2148207Y27078431D01*
X3052969Y26078431D02*
X2481541Y26078431D01*
X2767255Y26078431D02*
X2767255Y27078431D01*
X2767255Y27078431D02*
X2672017Y26935574D01*
X2672017Y26935574D02*
X2576779Y26840336D01*
X2576779Y26840336D02*
X2481541Y26792717D01*
X3672017Y27078431D02*
X3767255Y27078431D01*
X3767255Y27078431D02*
X3862493Y27030812D01*
X3862493Y27030812D02*
X3910112Y26983193D01*
X3910112Y26983193D02*
X3957731Y26887955D01*
X3957731Y26887955D02*
X4005350Y26697479D01*
X4005350Y26697479D02*
X4005350Y26459384D01*
X4005350Y26459384D02*
X3957731Y26268908D01*
X3957731Y26268908D02*
X3910112Y26173670D01*
X3910112Y26173670D02*
X3862493Y26126050D01*
X3862493Y26126050D02*
X3767255Y26078431D01*
X3767255Y26078431D02*
X3672017Y26078431D01*
X3672017Y26078431D02*
X3576779Y26126050D01*
X3576779Y26126050D02*
X3529160Y26173670D01*
X3529160Y26173670D02*
X3481541Y26268908D01*
X3481541Y26268908D02*
X3433922Y26459384D01*
X3433922Y26459384D02*
X3433922Y26697479D01*
X3433922Y26697479D02*
X3481541Y26887955D01*
X3481541Y26887955D02*
X3529160Y26983193D01*
X3529160Y26983193D02*
X3576779Y27030812D01*
X3576779Y27030812D02*
X3672017Y27078431D01*
X10436779Y18458431D02*
X10436779Y19458431D01*
X10436779Y19458431D02*
X10817731Y19458431D01*
X10817731Y19458431D02*
X10912969Y19410812D01*
X10912969Y19410812D02*
X10960588Y19363193D01*
X10960588Y19363193D02*
X11008207Y19267955D01*
X11008207Y19267955D02*
X11008207Y19125098D01*
X11008207Y19125098D02*
X10960588Y19029860D01*
X10960588Y19029860D02*
X10912969Y18982241D01*
X10912969Y18982241D02*
X10817731Y18934622D01*
X10817731Y18934622D02*
X10436779Y18934622D01*
X11389160Y18744146D02*
X11865350Y18744146D01*
X11293922Y18458431D02*
X11627255Y19458431D01*
X11627255Y19458431D02*
X11960588Y18458431D01*
X12246303Y19363193D02*
X12293922Y19410812D01*
X12293922Y19410812D02*
X12389160Y19458431D01*
X12389160Y19458431D02*
X12627255Y19458431D01*
X12627255Y19458431D02*
X12722493Y19410812D01*
X12722493Y19410812D02*
X12770112Y19363193D01*
X12770112Y19363193D02*
X12817731Y19267955D01*
X12817731Y19267955D02*
X12817731Y19172717D01*
X12817731Y19172717D02*
X12770112Y19029860D01*
X12770112Y19029860D02*
X12198684Y18458431D01*
X12198684Y18458431D02*
X12817731Y18458431D01*
X26800180Y5093221D02*
X27800180Y5093221D01*
X27800180Y5093221D02*
X27800180Y4712269D01*
X27800180Y4712269D02*
X27752561Y4617031D01*
X27752561Y4617031D02*
X27704942Y4569412D01*
X27704942Y4569412D02*
X27609704Y4521793D01*
X27609704Y4521793D02*
X27466847Y4521793D01*
X27466847Y4521793D02*
X27371609Y4569412D01*
X27371609Y4569412D02*
X27323990Y4617031D01*
X27323990Y4617031D02*
X27276371Y4712269D01*
X27276371Y4712269D02*
X27276371Y5093221D01*
X27323990Y3759888D02*
X27276371Y3617031D01*
X27276371Y3617031D02*
X27228752Y3569412D01*
X27228752Y3569412D02*
X27133514Y3521793D01*
X27133514Y3521793D02*
X26990657Y3521793D01*
X26990657Y3521793D02*
X26895419Y3569412D01*
X26895419Y3569412D02*
X26847800Y3617031D01*
X26847800Y3617031D02*
X26800180Y3712269D01*
X26800180Y3712269D02*
X26800180Y4093221D01*
X26800180Y4093221D02*
X27800180Y4093221D01*
X27800180Y4093221D02*
X27800180Y3759888D01*
X27800180Y3759888D02*
X27752561Y3664650D01*
X27752561Y3664650D02*
X27704942Y3617031D01*
X27704942Y3617031D02*
X27609704Y3569412D01*
X27609704Y3569412D02*
X27514466Y3569412D01*
X27514466Y3569412D02*
X27419228Y3617031D01*
X27419228Y3617031D02*
X27371609Y3664650D01*
X27371609Y3664650D02*
X27323990Y3759888D01*
X27323990Y3759888D02*
X27323990Y4093221D01*
X27704942Y3140840D02*
X27752561Y3093221D01*
X27752561Y3093221D02*
X27800180Y2997983D01*
X27800180Y2997983D02*
X27800180Y2759888D01*
X27800180Y2759888D02*
X27752561Y2664650D01*
X27752561Y2664650D02*
X27704942Y2617031D01*
X27704942Y2617031D02*
X27609704Y2569412D01*
X27609704Y2569412D02*
X27514466Y2569412D01*
X27514466Y2569412D02*
X27371609Y2617031D01*
X27371609Y2617031D02*
X26800180Y3188459D01*
X26800180Y3188459D02*
X26800180Y2569412D01*
X31888430Y5123221D02*
X32888430Y5123221D01*
X32888430Y5123221D02*
X32888430Y4742269D01*
X32888430Y4742269D02*
X32840811Y4647031D01*
X32840811Y4647031D02*
X32793192Y4599412D01*
X32793192Y4599412D02*
X32697954Y4551793D01*
X32697954Y4551793D02*
X32555097Y4551793D01*
X32555097Y4551793D02*
X32459859Y4599412D01*
X32459859Y4599412D02*
X32412240Y4647031D01*
X32412240Y4647031D02*
X32364621Y4742269D01*
X32364621Y4742269D02*
X32364621Y5123221D01*
X32412240Y3789888D02*
X32412240Y4123221D01*
X31888430Y4123221D02*
X32888430Y4123221D01*
X32888430Y4123221D02*
X32888430Y3647031D01*
X31888430Y2742269D02*
X31888430Y3313697D01*
X31888430Y3027983D02*
X32888430Y3027983D01*
X32888430Y3027983D02*
X32745573Y3123221D01*
X32745573Y3123221D02*
X32650335Y3218459D01*
X32650335Y3218459D02*
X32602716Y3313697D01*
X32555097Y1885126D02*
X31888430Y1885126D01*
X32936050Y2123221D02*
X32221764Y2361316D01*
X32221764Y2361316D02*
X32221764Y1742269D01*
D11*
X65866220Y43567258D02*
X65294792Y43567258D01*
X65294792Y43567258D02*
X65294792Y44767258D01*
X66266221Y44195829D02*
X66666221Y44195829D01*
X66837649Y43567258D02*
X66266221Y43567258D01*
X66266221Y43567258D02*
X66266221Y44767258D01*
X66266221Y44767258D02*
X66837649Y44767258D01*
X67351935Y43567258D02*
X67351935Y44767258D01*
X67351935Y44767258D02*
X67637649Y44767258D01*
X67637649Y44767258D02*
X67809078Y44710115D01*
X67809078Y44710115D02*
X67923363Y44595829D01*
X67923363Y44595829D02*
X67980506Y44481543D01*
X67980506Y44481543D02*
X68037649Y44252972D01*
X68037649Y44252972D02*
X68037649Y44081543D01*
X68037649Y44081543D02*
X67980506Y43852972D01*
X67980506Y43852972D02*
X67923363Y43738686D01*
X67923363Y43738686D02*
X67809078Y43624400D01*
X67809078Y43624400D02*
X67637649Y43567258D01*
X67637649Y43567258D02*
X67351935Y43567258D01*
X69066221Y44367258D02*
X69066221Y43567258D01*
X68780506Y44824400D02*
X68494792Y43967258D01*
X68494792Y43967258D02*
X69237649Y43967258D01*
D10*
X31220180Y50313221D02*
X32220180Y50313221D01*
X32220180Y50313221D02*
X32220180Y49932269D01*
X32220180Y49932269D02*
X32172561Y49837031D01*
X32172561Y49837031D02*
X32124942Y49789412D01*
X32124942Y49789412D02*
X32029704Y49741793D01*
X32029704Y49741793D02*
X31886847Y49741793D01*
X31886847Y49741793D02*
X31791609Y49789412D01*
X31791609Y49789412D02*
X31743990Y49837031D01*
X31743990Y49837031D02*
X31696371Y49932269D01*
X31696371Y49932269D02*
X31696371Y50313221D01*
X32172561Y48789412D02*
X32220180Y48884650D01*
X32220180Y48884650D02*
X32220180Y49027507D01*
X32220180Y49027507D02*
X32172561Y49170364D01*
X32172561Y49170364D02*
X32077323Y49265602D01*
X32077323Y49265602D02*
X31982085Y49313221D01*
X31982085Y49313221D02*
X31791609Y49360840D01*
X31791609Y49360840D02*
X31648752Y49360840D01*
X31648752Y49360840D02*
X31458276Y49313221D01*
X31458276Y49313221D02*
X31363038Y49265602D01*
X31363038Y49265602D02*
X31267800Y49170364D01*
X31267800Y49170364D02*
X31220180Y49027507D01*
X31220180Y49027507D02*
X31220180Y48932269D01*
X31220180Y48932269D02*
X31267800Y48789412D01*
X31267800Y48789412D02*
X31315419Y48741793D01*
X31315419Y48741793D02*
X31648752Y48741793D01*
X31648752Y48741793D02*
X31648752Y48932269D01*
X31220180Y47789412D02*
X31220180Y48360840D01*
X31220180Y48075126D02*
X32220180Y48075126D01*
X32220180Y48075126D02*
X32077323Y48170364D01*
X32077323Y48170364D02*
X31982085Y48265602D01*
X31982085Y48265602D02*
X31934466Y48360840D01*
X32220180Y47456078D02*
X32220180Y46837031D01*
X32220180Y46837031D02*
X31839228Y47170364D01*
X31839228Y47170364D02*
X31839228Y47027507D01*
X31839228Y47027507D02*
X31791609Y46932269D01*
X31791609Y46932269D02*
X31743990Y46884650D01*
X31743990Y46884650D02*
X31648752Y46837031D01*
X31648752Y46837031D02*
X31410657Y46837031D01*
X31410657Y46837031D02*
X31315419Y46884650D01*
X31315419Y46884650D02*
X31267800Y46932269D01*
X31267800Y46932269D02*
X31220180Y47027507D01*
X31220180Y47027507D02*
X31220180Y47313221D01*
X31220180Y47313221D02*
X31267800Y47408459D01*
X31267800Y47408459D02*
X31315419Y47456078D01*
X59236779Y12230181D02*
X59236779Y13230181D01*
X59236779Y13230181D02*
X59617731Y13230181D01*
X59617731Y13230181D02*
X59712969Y13182562D01*
X59712969Y13182562D02*
X59760588Y13134943D01*
X59760588Y13134943D02*
X59808207Y13039705D01*
X59808207Y13039705D02*
X59808207Y12896848D01*
X59808207Y12896848D02*
X59760588Y12801610D01*
X59760588Y12801610D02*
X59712969Y12753991D01*
X59712969Y12753991D02*
X59617731Y12706372D01*
X59617731Y12706372D02*
X59236779Y12706372D01*
X60236779Y12230181D02*
X60236779Y13230181D01*
X60236779Y13230181D02*
X60474874Y13230181D01*
X60474874Y13230181D02*
X60617731Y13182562D01*
X60617731Y13182562D02*
X60712969Y13087324D01*
X60712969Y13087324D02*
X60760588Y12992086D01*
X60760588Y12992086D02*
X60808207Y12801610D01*
X60808207Y12801610D02*
X60808207Y12658753D01*
X60808207Y12658753D02*
X60760588Y12468277D01*
X60760588Y12468277D02*
X60712969Y12373039D01*
X60712969Y12373039D02*
X60617731Y12277800D01*
X60617731Y12277800D02*
X60474874Y12230181D01*
X60474874Y12230181D02*
X60236779Y12230181D01*
X61284398Y12230181D02*
X61474874Y12230181D01*
X61474874Y12230181D02*
X61570112Y12277800D01*
X61570112Y12277800D02*
X61617731Y12325420D01*
X61617731Y12325420D02*
X61712969Y12468277D01*
X61712969Y12468277D02*
X61760588Y12658753D01*
X61760588Y12658753D02*
X61760588Y13039705D01*
X61760588Y13039705D02*
X61712969Y13134943D01*
X61712969Y13134943D02*
X61665350Y13182562D01*
X61665350Y13182562D02*
X61570112Y13230181D01*
X61570112Y13230181D02*
X61379636Y13230181D01*
X61379636Y13230181D02*
X61284398Y13182562D01*
X61284398Y13182562D02*
X61236779Y13134943D01*
X61236779Y13134943D02*
X61189160Y13039705D01*
X61189160Y13039705D02*
X61189160Y12801610D01*
X61189160Y12801610D02*
X61236779Y12706372D01*
X61236779Y12706372D02*
X61284398Y12658753D01*
X61284398Y12658753D02*
X61379636Y12611134D01*
X61379636Y12611134D02*
X61570112Y12611134D01*
X61570112Y12611134D02*
X61665350Y12658753D01*
X61665350Y12658753D02*
X61712969Y12706372D01*
X61712969Y12706372D02*
X61760588Y12801610D01*
X34428430Y5123221D02*
X35428430Y5123221D01*
X35428430Y5123221D02*
X35428430Y4742269D01*
X35428430Y4742269D02*
X35380811Y4647031D01*
X35380811Y4647031D02*
X35333192Y4599412D01*
X35333192Y4599412D02*
X35237954Y4551793D01*
X35237954Y4551793D02*
X35095097Y4551793D01*
X35095097Y4551793D02*
X34999859Y4599412D01*
X34999859Y4599412D02*
X34952240Y4647031D01*
X34952240Y4647031D02*
X34904621Y4742269D01*
X34904621Y4742269D02*
X34904621Y5123221D01*
X35380811Y3599412D02*
X35428430Y3694650D01*
X35428430Y3694650D02*
X35428430Y3837507D01*
X35428430Y3837507D02*
X35380811Y3980364D01*
X35380811Y3980364D02*
X35285573Y4075602D01*
X35285573Y4075602D02*
X35190335Y4123221D01*
X35190335Y4123221D02*
X34999859Y4170840D01*
X34999859Y4170840D02*
X34857002Y4170840D01*
X34857002Y4170840D02*
X34666526Y4123221D01*
X34666526Y4123221D02*
X34571288Y4075602D01*
X34571288Y4075602D02*
X34476050Y3980364D01*
X34476050Y3980364D02*
X34428430Y3837507D01*
X34428430Y3837507D02*
X34428430Y3742269D01*
X34428430Y3742269D02*
X34476050Y3599412D01*
X34476050Y3599412D02*
X34523669Y3551793D01*
X34523669Y3551793D02*
X34857002Y3551793D01*
X34857002Y3551793D02*
X34857002Y3742269D01*
X35428430Y2932745D02*
X35428430Y2837507D01*
X35428430Y2837507D02*
X35380811Y2742269D01*
X35380811Y2742269D02*
X35333192Y2694650D01*
X35333192Y2694650D02*
X35237954Y2647031D01*
X35237954Y2647031D02*
X35047478Y2599412D01*
X35047478Y2599412D02*
X34809383Y2599412D01*
X34809383Y2599412D02*
X34618907Y2647031D01*
X34618907Y2647031D02*
X34523669Y2694650D01*
X34523669Y2694650D02*
X34476050Y2742269D01*
X34476050Y2742269D02*
X34428430Y2837507D01*
X34428430Y2837507D02*
X34428430Y2932745D01*
X34428430Y2932745D02*
X34476050Y3027983D01*
X34476050Y3027983D02*
X34523669Y3075602D01*
X34523669Y3075602D02*
X34618907Y3123221D01*
X34618907Y3123221D02*
X34809383Y3170840D01*
X34809383Y3170840D02*
X35047478Y3170840D01*
X35047478Y3170840D02*
X35237954Y3123221D01*
X35237954Y3123221D02*
X35333192Y3075602D01*
X35333192Y3075602D02*
X35380811Y3027983D01*
X35380811Y3027983D02*
X35428430Y2932745D01*
X59236779Y30330181D02*
X59236779Y31330181D01*
X59236779Y31330181D02*
X59617731Y31330181D01*
X59617731Y31330181D02*
X59712969Y31282562D01*
X59712969Y31282562D02*
X59760588Y31234943D01*
X59760588Y31234943D02*
X59808207Y31139705D01*
X59808207Y31139705D02*
X59808207Y30996848D01*
X59808207Y30996848D02*
X59760588Y30901610D01*
X59760588Y30901610D02*
X59712969Y30853991D01*
X59712969Y30853991D02*
X59617731Y30806372D01*
X59617731Y30806372D02*
X59236779Y30806372D01*
X60808207Y30425420D02*
X60760588Y30377800D01*
X60760588Y30377800D02*
X60617731Y30330181D01*
X60617731Y30330181D02*
X60522493Y30330181D01*
X60522493Y30330181D02*
X60379636Y30377800D01*
X60379636Y30377800D02*
X60284398Y30473039D01*
X60284398Y30473039D02*
X60236779Y30568277D01*
X60236779Y30568277D02*
X60189160Y30758753D01*
X60189160Y30758753D02*
X60189160Y30901610D01*
X60189160Y30901610D02*
X60236779Y31092086D01*
X60236779Y31092086D02*
X60284398Y31187324D01*
X60284398Y31187324D02*
X60379636Y31282562D01*
X60379636Y31282562D02*
X60522493Y31330181D01*
X60522493Y31330181D02*
X60617731Y31330181D01*
X60617731Y31330181D02*
X60760588Y31282562D01*
X60760588Y31282562D02*
X60808207Y31234943D01*
X61665350Y31330181D02*
X61474874Y31330181D01*
X61474874Y31330181D02*
X61379636Y31282562D01*
X61379636Y31282562D02*
X61332017Y31234943D01*
X61332017Y31234943D02*
X61236779Y31092086D01*
X61236779Y31092086D02*
X61189160Y30901610D01*
X61189160Y30901610D02*
X61189160Y30520658D01*
X61189160Y30520658D02*
X61236779Y30425420D01*
X61236779Y30425420D02*
X61284398Y30377800D01*
X61284398Y30377800D02*
X61379636Y30330181D01*
X61379636Y30330181D02*
X61570112Y30330181D01*
X61570112Y30330181D02*
X61665350Y30377800D01*
X61665350Y30377800D02*
X61712969Y30425420D01*
X61712969Y30425420D02*
X61760588Y30520658D01*
X61760588Y30520658D02*
X61760588Y30758753D01*
X61760588Y30758753D02*
X61712969Y30853991D01*
X61712969Y30853991D02*
X61665350Y30901610D01*
X61665350Y30901610D02*
X61570112Y30949229D01*
X61570112Y30949229D02*
X61379636Y30949229D01*
X61379636Y30949229D02*
X61284398Y30901610D01*
X61284398Y30901610D02*
X61236779Y30853991D01*
X61236779Y30853991D02*
X61189160Y30758753D01*
X529160Y43858431D02*
X529160Y44858431D01*
X529160Y44858431D02*
X910112Y44858431D01*
X910112Y44858431D02*
X1005350Y44810812D01*
X1005350Y44810812D02*
X1052969Y44763193D01*
X1052969Y44763193D02*
X1100588Y44667955D01*
X1100588Y44667955D02*
X1100588Y44525098D01*
X1100588Y44525098D02*
X1052969Y44429860D01*
X1052969Y44429860D02*
X1005350Y44382241D01*
X1005350Y44382241D02*
X910112Y44334622D01*
X910112Y44334622D02*
X529160Y44334622D01*
X2100588Y43953670D02*
X2052969Y43906050D01*
X2052969Y43906050D02*
X1910112Y43858431D01*
X1910112Y43858431D02*
X1814874Y43858431D01*
X1814874Y43858431D02*
X1672017Y43906050D01*
X1672017Y43906050D02*
X1576779Y44001289D01*
X1576779Y44001289D02*
X1529160Y44096527D01*
X1529160Y44096527D02*
X1481541Y44287003D01*
X1481541Y44287003D02*
X1481541Y44429860D01*
X1481541Y44429860D02*
X1529160Y44620336D01*
X1529160Y44620336D02*
X1576779Y44715574D01*
X1576779Y44715574D02*
X1672017Y44810812D01*
X1672017Y44810812D02*
X1814874Y44858431D01*
X1814874Y44858431D02*
X1910112Y44858431D01*
X1910112Y44858431D02*
X2052969Y44810812D01*
X2052969Y44810812D02*
X2100588Y44763193D01*
X3052969Y43858431D02*
X2481541Y43858431D01*
X2767255Y43858431D02*
X2767255Y44858431D01*
X2767255Y44858431D02*
X2672017Y44715574D01*
X2672017Y44715574D02*
X2576779Y44620336D01*
X2576779Y44620336D02*
X2481541Y44572717D01*
X3386303Y44858431D02*
X4005350Y44858431D01*
X4005350Y44858431D02*
X3672017Y44477479D01*
X3672017Y44477479D02*
X3814874Y44477479D01*
X3814874Y44477479D02*
X3910112Y44429860D01*
X3910112Y44429860D02*
X3957731Y44382241D01*
X3957731Y44382241D02*
X4005350Y44287003D01*
X4005350Y44287003D02*
X4005350Y44048908D01*
X4005350Y44048908D02*
X3957731Y43953670D01*
X3957731Y43953670D02*
X3910112Y43906050D01*
X3910112Y43906050D02*
X3814874Y43858431D01*
X3814874Y43858431D02*
X3529160Y43858431D01*
X3529160Y43858431D02*
X3433922Y43906050D01*
X3433922Y43906050D02*
X3386303Y43953670D01*
D11*
X13623006Y67687260D02*
X13623006Y68887260D01*
X13623006Y68887260D02*
X14080149Y68887260D01*
X14080149Y68887260D02*
X14194434Y68830117D01*
X14194434Y68830117D02*
X14251577Y68772974D01*
X14251577Y68772974D02*
X14308720Y68658688D01*
X14308720Y68658688D02*
X14308720Y68487260D01*
X14308720Y68487260D02*
X14251577Y68372974D01*
X14251577Y68372974D02*
X14194434Y68315831D01*
X14194434Y68315831D02*
X14080149Y68258688D01*
X14080149Y68258688D02*
X13623006Y68258688D01*
X14823006Y67687260D02*
X14823006Y68887260D01*
X14823006Y68887260D02*
X15108720Y68887260D01*
X15108720Y68887260D02*
X15280149Y68830117D01*
X15280149Y68830117D02*
X15394434Y68715831D01*
X15394434Y68715831D02*
X15451577Y68601545D01*
X15451577Y68601545D02*
X15508720Y68372974D01*
X15508720Y68372974D02*
X15508720Y68201545D01*
X15508720Y68201545D02*
X15451577Y67972974D01*
X15451577Y67972974D02*
X15394434Y67858688D01*
X15394434Y67858688D02*
X15280149Y67744402D01*
X15280149Y67744402D02*
X15108720Y67687260D01*
X15108720Y67687260D02*
X14823006Y67687260D01*
X16708720Y67687260D02*
X16308720Y68258688D01*
X16023006Y67687260D02*
X16023006Y68887260D01*
X16023006Y68887260D02*
X16480149Y68887260D01*
X16480149Y68887260D02*
X16594434Y68830117D01*
X16594434Y68830117D02*
X16651577Y68772974D01*
X16651577Y68772974D02*
X16708720Y68658688D01*
X16708720Y68658688D02*
X16708720Y68487260D01*
X16708720Y68487260D02*
X16651577Y68372974D01*
X16651577Y68372974D02*
X16594434Y68315831D01*
X16594434Y68315831D02*
X16480149Y68258688D01*
X16480149Y68258688D02*
X16023006Y68258688D01*
X16937292Y67572974D02*
X17851577Y67572974D01*
X18365863Y68887260D02*
X18594435Y68887260D01*
X18594435Y68887260D02*
X18708720Y68830117D01*
X18708720Y68830117D02*
X18823006Y68715831D01*
X18823006Y68715831D02*
X18880149Y68487260D01*
X18880149Y68487260D02*
X18880149Y68087260D01*
X18880149Y68087260D02*
X18823006Y67858688D01*
X18823006Y67858688D02*
X18708720Y67744402D01*
X18708720Y67744402D02*
X18594435Y67687260D01*
X18594435Y67687260D02*
X18365863Y67687260D01*
X18365863Y67687260D02*
X18251578Y67744402D01*
X18251578Y67744402D02*
X18137292Y67858688D01*
X18137292Y67858688D02*
X18080149Y68087260D01*
X18080149Y68087260D02*
X18080149Y68487260D01*
X18080149Y68487260D02*
X18137292Y68715831D01*
X18137292Y68715831D02*
X18251578Y68830117D01*
X18251578Y68830117D02*
X18365863Y68887260D01*
X19394435Y67687260D02*
X19394435Y68887260D01*
X19394435Y68887260D02*
X20080149Y67687260D01*
X20080149Y67687260D02*
X20080149Y68887260D01*
D10*
X38930180Y59213221D02*
X39930180Y59213221D01*
X39930180Y59213221D02*
X39930180Y58832269D01*
X39930180Y58832269D02*
X39882561Y58737031D01*
X39882561Y58737031D02*
X39834942Y58689412D01*
X39834942Y58689412D02*
X39739704Y58641793D01*
X39739704Y58641793D02*
X39596847Y58641793D01*
X39596847Y58641793D02*
X39501609Y58689412D01*
X39501609Y58689412D02*
X39453990Y58737031D01*
X39453990Y58737031D02*
X39406371Y58832269D01*
X39406371Y58832269D02*
X39406371Y59213221D01*
X38930180Y58213221D02*
X39930180Y58213221D01*
X39930180Y58213221D02*
X39930180Y57975126D01*
X39930180Y57975126D02*
X39882561Y57832269D01*
X39882561Y57832269D02*
X39787323Y57737031D01*
X39787323Y57737031D02*
X39692085Y57689412D01*
X39692085Y57689412D02*
X39501609Y57641793D01*
X39501609Y57641793D02*
X39358752Y57641793D01*
X39358752Y57641793D02*
X39168276Y57689412D01*
X39168276Y57689412D02*
X39073038Y57737031D01*
X39073038Y57737031D02*
X38977800Y57832269D01*
X38977800Y57832269D02*
X38930180Y57975126D01*
X38930180Y57975126D02*
X38930180Y58213221D01*
X39930180Y56784650D02*
X39930180Y56975126D01*
X39930180Y56975126D02*
X39882561Y57070364D01*
X39882561Y57070364D02*
X39834942Y57117983D01*
X39834942Y57117983D02*
X39692085Y57213221D01*
X39692085Y57213221D02*
X39501609Y57260840D01*
X39501609Y57260840D02*
X39120657Y57260840D01*
X39120657Y57260840D02*
X39025419Y57213221D01*
X39025419Y57213221D02*
X38977800Y57165602D01*
X38977800Y57165602D02*
X38930180Y57070364D01*
X38930180Y57070364D02*
X38930180Y56879888D01*
X38930180Y56879888D02*
X38977800Y56784650D01*
X38977800Y56784650D02*
X39025419Y56737031D01*
X39025419Y56737031D02*
X39120657Y56689412D01*
X39120657Y56689412D02*
X39358752Y56689412D01*
X39358752Y56689412D02*
X39453990Y56737031D01*
X39453990Y56737031D02*
X39501609Y56784650D01*
X39501609Y56784650D02*
X39549228Y56879888D01*
X39549228Y56879888D02*
X39549228Y57070364D01*
X39549228Y57070364D02*
X39501609Y57165602D01*
X39501609Y57165602D02*
X39453990Y57213221D01*
X39453990Y57213221D02*
X39358752Y57260840D01*
X1624398Y33698431D02*
X1624398Y34698431D01*
X1624398Y34698431D02*
X2005350Y34698431D01*
X2005350Y34698431D02*
X2100588Y34650812D01*
X2100588Y34650812D02*
X2148207Y34603193D01*
X2148207Y34603193D02*
X2195826Y34507955D01*
X2195826Y34507955D02*
X2195826Y34365098D01*
X2195826Y34365098D02*
X2148207Y34269860D01*
X2148207Y34269860D02*
X2100588Y34222241D01*
X2100588Y34222241D02*
X2005350Y34174622D01*
X2005350Y34174622D02*
X1624398Y34174622D01*
X2957731Y34222241D02*
X2624398Y34222241D01*
X2624398Y33698431D02*
X2624398Y34698431D01*
X2624398Y34698431D02*
X3100588Y34698431D01*
X3910112Y34365098D02*
X3910112Y33698431D01*
X3672017Y34746050D02*
X3433922Y34031765D01*
X3433922Y34031765D02*
X4052969Y34031765D01*
X39508430Y5123221D02*
X40508430Y5123221D01*
X40508430Y5123221D02*
X40508430Y4742269D01*
X40508430Y4742269D02*
X40460811Y4647031D01*
X40460811Y4647031D02*
X40413192Y4599412D01*
X40413192Y4599412D02*
X40317954Y4551793D01*
X40317954Y4551793D02*
X40175097Y4551793D01*
X40175097Y4551793D02*
X40079859Y4599412D01*
X40079859Y4599412D02*
X40032240Y4647031D01*
X40032240Y4647031D02*
X39984621Y4742269D01*
X39984621Y4742269D02*
X39984621Y5123221D01*
X40032240Y4123221D02*
X40032240Y3789888D01*
X39508430Y3647031D02*
X39508430Y4123221D01*
X39508430Y4123221D02*
X40508430Y4123221D01*
X40508430Y4123221D02*
X40508430Y3647031D01*
X39508430Y3170840D02*
X39508430Y2980364D01*
X39508430Y2980364D02*
X39556050Y2885126D01*
X39556050Y2885126D02*
X39603669Y2837507D01*
X39603669Y2837507D02*
X39746526Y2742269D01*
X39746526Y2742269D02*
X39937002Y2694650D01*
X39937002Y2694650D02*
X40317954Y2694650D01*
X40317954Y2694650D02*
X40413192Y2742269D01*
X40413192Y2742269D02*
X40460811Y2789888D01*
X40460811Y2789888D02*
X40508430Y2885126D01*
X40508430Y2885126D02*
X40508430Y3075602D01*
X40508430Y3075602D02*
X40460811Y3170840D01*
X40460811Y3170840D02*
X40413192Y3218459D01*
X40413192Y3218459D02*
X40317954Y3266078D01*
X40317954Y3266078D02*
X40079859Y3266078D01*
X40079859Y3266078D02*
X39984621Y3218459D01*
X39984621Y3218459D02*
X39937002Y3170840D01*
X39937002Y3170840D02*
X39889383Y3075602D01*
X39889383Y3075602D02*
X39889383Y2885126D01*
X39889383Y2885126D02*
X39937002Y2789888D01*
X39937002Y2789888D02*
X39984621Y2742269D01*
X39984621Y2742269D02*
X40079859Y2694650D01*
X28808430Y50313221D02*
X29808430Y50313221D01*
X29808430Y50313221D02*
X29808430Y49932269D01*
X29808430Y49932269D02*
X29760811Y49837031D01*
X29760811Y49837031D02*
X29713192Y49789412D01*
X29713192Y49789412D02*
X29617954Y49741793D01*
X29617954Y49741793D02*
X29475097Y49741793D01*
X29475097Y49741793D02*
X29379859Y49789412D01*
X29379859Y49789412D02*
X29332240Y49837031D01*
X29332240Y49837031D02*
X29284621Y49932269D01*
X29284621Y49932269D02*
X29284621Y50313221D01*
X29760811Y48789412D02*
X29808430Y48884650D01*
X29808430Y48884650D02*
X29808430Y49027507D01*
X29808430Y49027507D02*
X29760811Y49170364D01*
X29760811Y49170364D02*
X29665573Y49265602D01*
X29665573Y49265602D02*
X29570335Y49313221D01*
X29570335Y49313221D02*
X29379859Y49360840D01*
X29379859Y49360840D02*
X29237002Y49360840D01*
X29237002Y49360840D02*
X29046526Y49313221D01*
X29046526Y49313221D02*
X28951288Y49265602D01*
X28951288Y49265602D02*
X28856050Y49170364D01*
X28856050Y49170364D02*
X28808430Y49027507D01*
X28808430Y49027507D02*
X28808430Y48932269D01*
X28808430Y48932269D02*
X28856050Y48789412D01*
X28856050Y48789412D02*
X28903669Y48741793D01*
X28903669Y48741793D02*
X29237002Y48741793D01*
X29237002Y48741793D02*
X29237002Y48932269D01*
X28808430Y47789412D02*
X28808430Y48360840D01*
X28808430Y48075126D02*
X29808430Y48075126D01*
X29808430Y48075126D02*
X29665573Y48170364D01*
X29665573Y48170364D02*
X29570335Y48265602D01*
X29570335Y48265602D02*
X29522716Y48360840D01*
X29808430Y46884650D02*
X29808430Y47360840D01*
X29808430Y47360840D02*
X29332240Y47408459D01*
X29332240Y47408459D02*
X29379859Y47360840D01*
X29379859Y47360840D02*
X29427478Y47265602D01*
X29427478Y47265602D02*
X29427478Y47027507D01*
X29427478Y47027507D02*
X29379859Y46932269D01*
X29379859Y46932269D02*
X29332240Y46884650D01*
X29332240Y46884650D02*
X29237002Y46837031D01*
X29237002Y46837031D02*
X28998907Y46837031D01*
X28998907Y46837031D02*
X28903669Y46884650D01*
X28903669Y46884650D02*
X28856050Y46932269D01*
X28856050Y46932269D02*
X28808430Y47027507D01*
X28808430Y47027507D02*
X28808430Y47265602D01*
X28808430Y47265602D02*
X28856050Y47360840D01*
X28856050Y47360840D02*
X28903669Y47408459D01*
X1576779Y46398431D02*
X1576779Y47398431D01*
X1576779Y47398431D02*
X1957731Y47398431D01*
X1957731Y47398431D02*
X2052969Y47350812D01*
X2052969Y47350812D02*
X2100588Y47303193D01*
X2100588Y47303193D02*
X2148207Y47207955D01*
X2148207Y47207955D02*
X2148207Y47065098D01*
X2148207Y47065098D02*
X2100588Y46969860D01*
X2100588Y46969860D02*
X2052969Y46922241D01*
X2052969Y46922241D02*
X1957731Y46874622D01*
X1957731Y46874622D02*
X1576779Y46874622D01*
X2576779Y46922241D02*
X2910112Y46922241D01*
X3052969Y46398431D02*
X2576779Y46398431D01*
X2576779Y46398431D02*
X2576779Y47398431D01*
X2576779Y47398431D02*
X3052969Y47398431D01*
X3957731Y47398431D02*
X3481541Y47398431D01*
X3481541Y47398431D02*
X3433922Y46922241D01*
X3433922Y46922241D02*
X3481541Y46969860D01*
X3481541Y46969860D02*
X3576779Y47017479D01*
X3576779Y47017479D02*
X3814874Y47017479D01*
X3814874Y47017479D02*
X3910112Y46969860D01*
X3910112Y46969860D02*
X3957731Y46922241D01*
X3957731Y46922241D02*
X4005350Y46827003D01*
X4005350Y46827003D02*
X4005350Y46588908D01*
X4005350Y46588908D02*
X3957731Y46493670D01*
X3957731Y46493670D02*
X3910112Y46446050D01*
X3910112Y46446050D02*
X3814874Y46398431D01*
X3814874Y46398431D02*
X3576779Y46398431D01*
X3576779Y46398431D02*
X3481541Y46446050D01*
X3481541Y46446050D02*
X3433922Y46493670D01*
X49180180Y60163221D02*
X50180180Y60163221D01*
X50180180Y60163221D02*
X50180180Y59782269D01*
X50180180Y59782269D02*
X50132561Y59687031D01*
X50132561Y59687031D02*
X50084942Y59639412D01*
X50084942Y59639412D02*
X49989704Y59591793D01*
X49989704Y59591793D02*
X49846847Y59591793D01*
X49846847Y59591793D02*
X49751609Y59639412D01*
X49751609Y59639412D02*
X49703990Y59687031D01*
X49703990Y59687031D02*
X49656371Y59782269D01*
X49656371Y59782269D02*
X49656371Y60163221D01*
X49275419Y58591793D02*
X49227800Y58639412D01*
X49227800Y58639412D02*
X49180180Y58782269D01*
X49180180Y58782269D02*
X49180180Y58877507D01*
X49180180Y58877507D02*
X49227800Y59020364D01*
X49227800Y59020364D02*
X49323038Y59115602D01*
X49323038Y59115602D02*
X49418276Y59163221D01*
X49418276Y59163221D02*
X49608752Y59210840D01*
X49608752Y59210840D02*
X49751609Y59210840D01*
X49751609Y59210840D02*
X49942085Y59163221D01*
X49942085Y59163221D02*
X50037323Y59115602D01*
X50037323Y59115602D02*
X50132561Y59020364D01*
X50132561Y59020364D02*
X50180180Y58877507D01*
X50180180Y58877507D02*
X50180180Y58782269D01*
X50180180Y58782269D02*
X50132561Y58639412D01*
X50132561Y58639412D02*
X50084942Y58591793D01*
X49180180Y57639412D02*
X49180180Y58210840D01*
X49180180Y57925126D02*
X50180180Y57925126D01*
X50180180Y57925126D02*
X50037323Y58020364D01*
X50037323Y58020364D02*
X49942085Y58115602D01*
X49942085Y58115602D02*
X49894466Y58210840D01*
X49180180Y56687031D02*
X49180180Y57258459D01*
X49180180Y56972745D02*
X50180180Y56972745D01*
X50180180Y56972745D02*
X50037323Y57067983D01*
X50037323Y57067983D02*
X49942085Y57163221D01*
X49942085Y57163221D02*
X49894466Y57258459D01*
X68236779Y25130181D02*
X68236779Y26130181D01*
X68236779Y26130181D02*
X68617731Y26130181D01*
X68617731Y26130181D02*
X68712969Y26082562D01*
X68712969Y26082562D02*
X68760588Y26034943D01*
X68760588Y26034943D02*
X68808207Y25939705D01*
X68808207Y25939705D02*
X68808207Y25796848D01*
X68808207Y25796848D02*
X68760588Y25701610D01*
X68760588Y25701610D02*
X68712969Y25653991D01*
X68712969Y25653991D02*
X68617731Y25606372D01*
X68617731Y25606372D02*
X68236779Y25606372D01*
X69760588Y26082562D02*
X69665350Y26130181D01*
X69665350Y26130181D02*
X69522493Y26130181D01*
X69522493Y26130181D02*
X69379636Y26082562D01*
X69379636Y26082562D02*
X69284398Y25987324D01*
X69284398Y25987324D02*
X69236779Y25892086D01*
X69236779Y25892086D02*
X69189160Y25701610D01*
X69189160Y25701610D02*
X69189160Y25558753D01*
X69189160Y25558753D02*
X69236779Y25368277D01*
X69236779Y25368277D02*
X69284398Y25273039D01*
X69284398Y25273039D02*
X69379636Y25177800D01*
X69379636Y25177800D02*
X69522493Y25130181D01*
X69522493Y25130181D02*
X69617731Y25130181D01*
X69617731Y25130181D02*
X69760588Y25177800D01*
X69760588Y25177800D02*
X69808207Y25225420D01*
X69808207Y25225420D02*
X69808207Y25558753D01*
X69808207Y25558753D02*
X69617731Y25558753D01*
X70665350Y25796848D02*
X70665350Y25130181D01*
X70427255Y26177800D02*
X70189160Y25463515D01*
X70189160Y25463515D02*
X70808207Y25463515D01*
X29348430Y5123221D02*
X30348430Y5123221D01*
X30348430Y5123221D02*
X30348430Y4742269D01*
X30348430Y4742269D02*
X30300811Y4647031D01*
X30300811Y4647031D02*
X30253192Y4599412D01*
X30253192Y4599412D02*
X30157954Y4551793D01*
X30157954Y4551793D02*
X30015097Y4551793D01*
X30015097Y4551793D02*
X29919859Y4599412D01*
X29919859Y4599412D02*
X29872240Y4647031D01*
X29872240Y4647031D02*
X29824621Y4742269D01*
X29824621Y4742269D02*
X29824621Y5123221D01*
X29872240Y3789888D02*
X29872240Y4123221D01*
X29348430Y4123221D02*
X30348430Y4123221D01*
X30348430Y4123221D02*
X30348430Y3647031D01*
X29348430Y2742269D02*
X29348430Y3313697D01*
X29348430Y3027983D02*
X30348430Y3027983D01*
X30348430Y3027983D02*
X30205573Y3123221D01*
X30205573Y3123221D02*
X30110335Y3218459D01*
X30110335Y3218459D02*
X30062716Y3313697D01*
X30253192Y2361316D02*
X30300811Y2313697D01*
X30300811Y2313697D02*
X30348430Y2218459D01*
X30348430Y2218459D02*
X30348430Y1980364D01*
X30348430Y1980364D02*
X30300811Y1885126D01*
X30300811Y1885126D02*
X30253192Y1837507D01*
X30253192Y1837507D02*
X30157954Y1789888D01*
X30157954Y1789888D02*
X30062716Y1789888D01*
X30062716Y1789888D02*
X29919859Y1837507D01*
X29919859Y1837507D02*
X29348430Y2408935D01*
X29348430Y2408935D02*
X29348430Y1789888D01*
X24260180Y5093221D02*
X25260180Y5093221D01*
X25260180Y5093221D02*
X25260180Y4712269D01*
X25260180Y4712269D02*
X25212561Y4617031D01*
X25212561Y4617031D02*
X25164942Y4569412D01*
X25164942Y4569412D02*
X25069704Y4521793D01*
X25069704Y4521793D02*
X24926847Y4521793D01*
X24926847Y4521793D02*
X24831609Y4569412D01*
X24831609Y4569412D02*
X24783990Y4617031D01*
X24783990Y4617031D02*
X24736371Y4712269D01*
X24736371Y4712269D02*
X24736371Y5093221D01*
X24783990Y3759888D02*
X24736371Y3617031D01*
X24736371Y3617031D02*
X24688752Y3569412D01*
X24688752Y3569412D02*
X24593514Y3521793D01*
X24593514Y3521793D02*
X24450657Y3521793D01*
X24450657Y3521793D02*
X24355419Y3569412D01*
X24355419Y3569412D02*
X24307800Y3617031D01*
X24307800Y3617031D02*
X24260180Y3712269D01*
X24260180Y3712269D02*
X24260180Y4093221D01*
X24260180Y4093221D02*
X25260180Y4093221D01*
X25260180Y4093221D02*
X25260180Y3759888D01*
X25260180Y3759888D02*
X25212561Y3664650D01*
X25212561Y3664650D02*
X25164942Y3617031D01*
X25164942Y3617031D02*
X25069704Y3569412D01*
X25069704Y3569412D02*
X24974466Y3569412D01*
X24974466Y3569412D02*
X24879228Y3617031D01*
X24879228Y3617031D02*
X24831609Y3664650D01*
X24831609Y3664650D02*
X24783990Y3759888D01*
X24783990Y3759888D02*
X24783990Y4093221D01*
X25260180Y2902745D02*
X25260180Y2807507D01*
X25260180Y2807507D02*
X25212561Y2712269D01*
X25212561Y2712269D02*
X25164942Y2664650D01*
X25164942Y2664650D02*
X25069704Y2617031D01*
X25069704Y2617031D02*
X24879228Y2569412D01*
X24879228Y2569412D02*
X24641133Y2569412D01*
X24641133Y2569412D02*
X24450657Y2617031D01*
X24450657Y2617031D02*
X24355419Y2664650D01*
X24355419Y2664650D02*
X24307800Y2712269D01*
X24307800Y2712269D02*
X24260180Y2807507D01*
X24260180Y2807507D02*
X24260180Y2902745D01*
X24260180Y2902745D02*
X24307800Y2997983D01*
X24307800Y2997983D02*
X24355419Y3045602D01*
X24355419Y3045602D02*
X24450657Y3093221D01*
X24450657Y3093221D02*
X24641133Y3140840D01*
X24641133Y3140840D02*
X24879228Y3140840D01*
X24879228Y3140840D02*
X25069704Y3093221D01*
X25069704Y3093221D02*
X25164942Y3045602D01*
X25164942Y3045602D02*
X25212561Y2997983D01*
X25212561Y2997983D02*
X25260180Y2902745D01*
X26808430Y14073221D02*
X27808430Y14073221D01*
X27808430Y14073221D02*
X27808430Y13692269D01*
X27808430Y13692269D02*
X27760811Y13597031D01*
X27760811Y13597031D02*
X27713192Y13549412D01*
X27713192Y13549412D02*
X27617954Y13501793D01*
X27617954Y13501793D02*
X27475097Y13501793D01*
X27475097Y13501793D02*
X27379859Y13549412D01*
X27379859Y13549412D02*
X27332240Y13597031D01*
X27332240Y13597031D02*
X27284621Y13692269D01*
X27284621Y13692269D02*
X27284621Y14073221D01*
X27332240Y12739888D02*
X27284621Y12597031D01*
X27284621Y12597031D02*
X27237002Y12549412D01*
X27237002Y12549412D02*
X27141764Y12501793D01*
X27141764Y12501793D02*
X26998907Y12501793D01*
X26998907Y12501793D02*
X26903669Y12549412D01*
X26903669Y12549412D02*
X26856050Y12597031D01*
X26856050Y12597031D02*
X26808430Y12692269D01*
X26808430Y12692269D02*
X26808430Y13073221D01*
X26808430Y13073221D02*
X27808430Y13073221D01*
X27808430Y13073221D02*
X27808430Y12739888D01*
X27808430Y12739888D02*
X27760811Y12644650D01*
X27760811Y12644650D02*
X27713192Y12597031D01*
X27713192Y12597031D02*
X27617954Y12549412D01*
X27617954Y12549412D02*
X27522716Y12549412D01*
X27522716Y12549412D02*
X27427478Y12597031D01*
X27427478Y12597031D02*
X27379859Y12644650D01*
X27379859Y12644650D02*
X27332240Y12739888D01*
X27332240Y12739888D02*
X27332240Y13073221D01*
X26808430Y11549412D02*
X26808430Y12120840D01*
X26808430Y11835126D02*
X27808430Y11835126D01*
X27808430Y11835126D02*
X27665573Y11930364D01*
X27665573Y11930364D02*
X27570335Y12025602D01*
X27570335Y12025602D02*
X27522716Y12120840D01*
X68236779Y7330181D02*
X68236779Y8330181D01*
X68236779Y8330181D02*
X68617731Y8330181D01*
X68617731Y8330181D02*
X68712969Y8282562D01*
X68712969Y8282562D02*
X68760588Y8234943D01*
X68760588Y8234943D02*
X68808207Y8139705D01*
X68808207Y8139705D02*
X68808207Y7996848D01*
X68808207Y7996848D02*
X68760588Y7901610D01*
X68760588Y7901610D02*
X68712969Y7853991D01*
X68712969Y7853991D02*
X68617731Y7806372D01*
X68617731Y7806372D02*
X68236779Y7806372D01*
X69570112Y7853991D02*
X69712969Y7806372D01*
X69712969Y7806372D02*
X69760588Y7758753D01*
X69760588Y7758753D02*
X69808207Y7663515D01*
X69808207Y7663515D02*
X69808207Y7520658D01*
X69808207Y7520658D02*
X69760588Y7425420D01*
X69760588Y7425420D02*
X69712969Y7377800D01*
X69712969Y7377800D02*
X69617731Y7330181D01*
X69617731Y7330181D02*
X69236779Y7330181D01*
X69236779Y7330181D02*
X69236779Y8330181D01*
X69236779Y8330181D02*
X69570112Y8330181D01*
X69570112Y8330181D02*
X69665350Y8282562D01*
X69665350Y8282562D02*
X69712969Y8234943D01*
X69712969Y8234943D02*
X69760588Y8139705D01*
X69760588Y8139705D02*
X69760588Y8044467D01*
X69760588Y8044467D02*
X69712969Y7949229D01*
X69712969Y7949229D02*
X69665350Y7901610D01*
X69665350Y7901610D02*
X69570112Y7853991D01*
X69570112Y7853991D02*
X69236779Y7853991D01*
X70760588Y7330181D02*
X70189160Y7330181D01*
X70474874Y7330181D02*
X70474874Y8330181D01*
X70474874Y8330181D02*
X70379636Y8187324D01*
X70379636Y8187324D02*
X70284398Y8092086D01*
X70284398Y8092086D02*
X70189160Y8044467D01*
X71141541Y8234943D02*
X71189160Y8282562D01*
X71189160Y8282562D02*
X71284398Y8330181D01*
X71284398Y8330181D02*
X71522493Y8330181D01*
X71522493Y8330181D02*
X71617731Y8282562D01*
X71617731Y8282562D02*
X71665350Y8234943D01*
X71665350Y8234943D02*
X71712969Y8139705D01*
X71712969Y8139705D02*
X71712969Y8044467D01*
X71712969Y8044467D02*
X71665350Y7901610D01*
X71665350Y7901610D02*
X71093922Y7330181D01*
X71093922Y7330181D02*
X71712969Y7330181D01*
X49668430Y5123221D02*
X50668430Y5123221D01*
X50668430Y5123221D02*
X50668430Y4742269D01*
X50668430Y4742269D02*
X50620811Y4647031D01*
X50620811Y4647031D02*
X50573192Y4599412D01*
X50573192Y4599412D02*
X50477954Y4551793D01*
X50477954Y4551793D02*
X50335097Y4551793D01*
X50335097Y4551793D02*
X50239859Y4599412D01*
X50239859Y4599412D02*
X50192240Y4647031D01*
X50192240Y4647031D02*
X50144621Y4742269D01*
X50144621Y4742269D02*
X50144621Y5123221D01*
X50192240Y3789888D02*
X50144621Y3647031D01*
X50144621Y3647031D02*
X50097002Y3599412D01*
X50097002Y3599412D02*
X50001764Y3551793D01*
X50001764Y3551793D02*
X49858907Y3551793D01*
X49858907Y3551793D02*
X49763669Y3599412D01*
X49763669Y3599412D02*
X49716050Y3647031D01*
X49716050Y3647031D02*
X49668430Y3742269D01*
X49668430Y3742269D02*
X49668430Y4123221D01*
X49668430Y4123221D02*
X50668430Y4123221D01*
X50668430Y4123221D02*
X50668430Y3789888D01*
X50668430Y3789888D02*
X50620811Y3694650D01*
X50620811Y3694650D02*
X50573192Y3647031D01*
X50573192Y3647031D02*
X50477954Y3599412D01*
X50477954Y3599412D02*
X50382716Y3599412D01*
X50382716Y3599412D02*
X50287478Y3647031D01*
X50287478Y3647031D02*
X50239859Y3694650D01*
X50239859Y3694650D02*
X50192240Y3789888D01*
X50192240Y3789888D02*
X50192240Y4123221D01*
X49668430Y2599412D02*
X49668430Y3170840D01*
X49668430Y2885126D02*
X50668430Y2885126D01*
X50668430Y2885126D02*
X50525573Y2980364D01*
X50525573Y2980364D02*
X50430335Y3075602D01*
X50430335Y3075602D02*
X50382716Y3170840D01*
X49668430Y1647031D02*
X49668430Y2218459D01*
X49668430Y1932745D02*
X50668430Y1932745D01*
X50668430Y1932745D02*
X50525573Y2027983D01*
X50525573Y2027983D02*
X50430335Y2123221D01*
X50430335Y2123221D02*
X50382716Y2218459D01*
X10436779Y36238431D02*
X10436779Y37238431D01*
X10436779Y37238431D02*
X10817731Y37238431D01*
X10817731Y37238431D02*
X10912969Y37190812D01*
X10912969Y37190812D02*
X10960588Y37143193D01*
X10960588Y37143193D02*
X11008207Y37047955D01*
X11008207Y37047955D02*
X11008207Y36905098D01*
X11008207Y36905098D02*
X10960588Y36809860D01*
X10960588Y36809860D02*
X10912969Y36762241D01*
X10912969Y36762241D02*
X10817731Y36714622D01*
X10817731Y36714622D02*
X10436779Y36714622D01*
X11770112Y36762241D02*
X11436779Y36762241D01*
X11436779Y36238431D02*
X11436779Y37238431D01*
X11436779Y37238431D02*
X11912969Y37238431D01*
X12246303Y37143193D02*
X12293922Y37190812D01*
X12293922Y37190812D02*
X12389160Y37238431D01*
X12389160Y37238431D02*
X12627255Y37238431D01*
X12627255Y37238431D02*
X12722493Y37190812D01*
X12722493Y37190812D02*
X12770112Y37143193D01*
X12770112Y37143193D02*
X12817731Y37047955D01*
X12817731Y37047955D02*
X12817731Y36952717D01*
X12817731Y36952717D02*
X12770112Y36809860D01*
X12770112Y36809860D02*
X12198684Y36238431D01*
X12198684Y36238431D02*
X12817731Y36238431D01*
X41480180Y59263221D02*
X42480180Y59263221D01*
X42480180Y59263221D02*
X42480180Y58882269D01*
X42480180Y58882269D02*
X42432561Y58787031D01*
X42432561Y58787031D02*
X42384942Y58739412D01*
X42384942Y58739412D02*
X42289704Y58691793D01*
X42289704Y58691793D02*
X42146847Y58691793D01*
X42146847Y58691793D02*
X42051609Y58739412D01*
X42051609Y58739412D02*
X42003990Y58787031D01*
X42003990Y58787031D02*
X41956371Y58882269D01*
X41956371Y58882269D02*
X41956371Y59263221D01*
X41480180Y58263221D02*
X42480180Y58263221D01*
X42480180Y58263221D02*
X42480180Y58025126D01*
X42480180Y58025126D02*
X42432561Y57882269D01*
X42432561Y57882269D02*
X42337323Y57787031D01*
X42337323Y57787031D02*
X42242085Y57739412D01*
X42242085Y57739412D02*
X42051609Y57691793D01*
X42051609Y57691793D02*
X41908752Y57691793D01*
X41908752Y57691793D02*
X41718276Y57739412D01*
X41718276Y57739412D02*
X41623038Y57787031D01*
X41623038Y57787031D02*
X41527800Y57882269D01*
X41527800Y57882269D02*
X41480180Y58025126D01*
X41480180Y58025126D02*
X41480180Y58263221D01*
X42146847Y56834650D02*
X41480180Y56834650D01*
X42527800Y57072745D02*
X41813514Y57310840D01*
X41813514Y57310840D02*
X41813514Y56691793D01*
X47128430Y14925602D02*
X48128430Y14925602D01*
X48128430Y14925602D02*
X48128430Y14544650D01*
X48128430Y14544650D02*
X48080811Y14449412D01*
X48080811Y14449412D02*
X48033192Y14401793D01*
X48033192Y14401793D02*
X47937954Y14354174D01*
X47937954Y14354174D02*
X47795097Y14354174D01*
X47795097Y14354174D02*
X47699859Y14401793D01*
X47699859Y14401793D02*
X47652240Y14449412D01*
X47652240Y14449412D02*
X47604621Y14544650D01*
X47604621Y14544650D02*
X47604621Y14925602D01*
X47652240Y13925602D02*
X47652240Y13592269D01*
X47128430Y13449412D02*
X47128430Y13925602D01*
X47128430Y13925602D02*
X48128430Y13925602D01*
X48128430Y13925602D02*
X48128430Y13449412D01*
X47128430Y12497031D02*
X47128430Y13068459D01*
X47128430Y12782745D02*
X48128430Y12782745D01*
X48128430Y12782745D02*
X47985573Y12877983D01*
X47985573Y12877983D02*
X47890335Y12973221D01*
X47890335Y12973221D02*
X47842716Y13068459D01*
X48128430Y11592269D02*
X48128430Y12068459D01*
X48128430Y12068459D02*
X47652240Y12116078D01*
X47652240Y12116078D02*
X47699859Y12068459D01*
X47699859Y12068459D02*
X47747478Y11973221D01*
X47747478Y11973221D02*
X47747478Y11735126D01*
X47747478Y11735126D02*
X47699859Y11639888D01*
X47699859Y11639888D02*
X47652240Y11592269D01*
X47652240Y11592269D02*
X47557002Y11544650D01*
X47557002Y11544650D02*
X47318907Y11544650D01*
X47318907Y11544650D02*
X47223669Y11592269D01*
X47223669Y11592269D02*
X47176050Y11639888D01*
X47176050Y11639888D02*
X47128430Y11735126D01*
X47128430Y11735126D02*
X47128430Y11973221D01*
X47128430Y11973221D02*
X47176050Y12068459D01*
X47176050Y12068459D02*
X47223669Y12116078D01*
X68236779Y9830181D02*
X68236779Y10830181D01*
X68236779Y10830181D02*
X68617731Y10830181D01*
X68617731Y10830181D02*
X68712969Y10782562D01*
X68712969Y10782562D02*
X68760588Y10734943D01*
X68760588Y10734943D02*
X68808207Y10639705D01*
X68808207Y10639705D02*
X68808207Y10496848D01*
X68808207Y10496848D02*
X68760588Y10401610D01*
X68760588Y10401610D02*
X68712969Y10353991D01*
X68712969Y10353991D02*
X68617731Y10306372D01*
X68617731Y10306372D02*
X68236779Y10306372D01*
X69570112Y10353991D02*
X69712969Y10306372D01*
X69712969Y10306372D02*
X69760588Y10258753D01*
X69760588Y10258753D02*
X69808207Y10163515D01*
X69808207Y10163515D02*
X69808207Y10020658D01*
X69808207Y10020658D02*
X69760588Y9925420D01*
X69760588Y9925420D02*
X69712969Y9877800D01*
X69712969Y9877800D02*
X69617731Y9830181D01*
X69617731Y9830181D02*
X69236779Y9830181D01*
X69236779Y9830181D02*
X69236779Y10830181D01*
X69236779Y10830181D02*
X69570112Y10830181D01*
X69570112Y10830181D02*
X69665350Y10782562D01*
X69665350Y10782562D02*
X69712969Y10734943D01*
X69712969Y10734943D02*
X69760588Y10639705D01*
X69760588Y10639705D02*
X69760588Y10544467D01*
X69760588Y10544467D02*
X69712969Y10449229D01*
X69712969Y10449229D02*
X69665350Y10401610D01*
X69665350Y10401610D02*
X69570112Y10353991D01*
X69570112Y10353991D02*
X69236779Y10353991D01*
X70760588Y9830181D02*
X70189160Y9830181D01*
X70474874Y9830181D02*
X70474874Y10830181D01*
X70474874Y10830181D02*
X70379636Y10687324D01*
X70379636Y10687324D02*
X70284398Y10592086D01*
X70284398Y10592086D02*
X70189160Y10544467D01*
X71617731Y10496848D02*
X71617731Y9830181D01*
X71379636Y10877800D02*
X71141541Y10163515D01*
X71141541Y10163515D02*
X71760588Y10163515D01*
D11*
X12218720Y14410258D02*
X11647292Y14410258D01*
X11647292Y14410258D02*
X11647292Y15610258D01*
X12618721Y15038829D02*
X13018721Y15038829D01*
X13190149Y14410258D02*
X12618721Y14410258D01*
X12618721Y14410258D02*
X12618721Y15610258D01*
X12618721Y15610258D02*
X13190149Y15610258D01*
X13704435Y14410258D02*
X13704435Y15610258D01*
X13704435Y15610258D02*
X13990149Y15610258D01*
X13990149Y15610258D02*
X14161578Y15553115D01*
X14161578Y15553115D02*
X14275863Y15438829D01*
X14275863Y15438829D02*
X14333006Y15324543D01*
X14333006Y15324543D02*
X14390149Y15095972D01*
X14390149Y15095972D02*
X14390149Y14924543D01*
X14390149Y14924543D02*
X14333006Y14695972D01*
X14333006Y14695972D02*
X14275863Y14581686D01*
X14275863Y14581686D02*
X14161578Y14467400D01*
X14161578Y14467400D02*
X13990149Y14410258D01*
X13990149Y14410258D02*
X13704435Y14410258D01*
X14847292Y15495972D02*
X14904435Y15553115D01*
X14904435Y15553115D02*
X15018721Y15610258D01*
X15018721Y15610258D02*
X15304435Y15610258D01*
X15304435Y15610258D02*
X15418721Y15553115D01*
X15418721Y15553115D02*
X15475863Y15495972D01*
X15475863Y15495972D02*
X15533006Y15381686D01*
X15533006Y15381686D02*
X15533006Y15267400D01*
X15533006Y15267400D02*
X15475863Y15095972D01*
X15475863Y15095972D02*
X14790149Y14410258D01*
X14790149Y14410258D02*
X15533006Y14410258D01*
D10*
X42048430Y5123221D02*
X43048430Y5123221D01*
X43048430Y5123221D02*
X43048430Y4742269D01*
X43048430Y4742269D02*
X43000811Y4647031D01*
X43000811Y4647031D02*
X42953192Y4599412D01*
X42953192Y4599412D02*
X42857954Y4551793D01*
X42857954Y4551793D02*
X42715097Y4551793D01*
X42715097Y4551793D02*
X42619859Y4599412D01*
X42619859Y4599412D02*
X42572240Y4647031D01*
X42572240Y4647031D02*
X42524621Y4742269D01*
X42524621Y4742269D02*
X42524621Y5123221D01*
X42572240Y4123221D02*
X42572240Y3789888D01*
X42048430Y3647031D02*
X42048430Y4123221D01*
X42048430Y4123221D02*
X43048430Y4123221D01*
X43048430Y4123221D02*
X43048430Y3647031D01*
X42048430Y2694650D02*
X42048430Y3266078D01*
X42048430Y2980364D02*
X43048430Y2980364D01*
X43048430Y2980364D02*
X42905573Y3075602D01*
X42905573Y3075602D02*
X42810335Y3170840D01*
X42810335Y3170840D02*
X42762716Y3266078D01*
X43048430Y2075602D02*
X43048430Y1980364D01*
X43048430Y1980364D02*
X43000811Y1885126D01*
X43000811Y1885126D02*
X42953192Y1837507D01*
X42953192Y1837507D02*
X42857954Y1789888D01*
X42857954Y1789888D02*
X42667478Y1742269D01*
X42667478Y1742269D02*
X42429383Y1742269D01*
X42429383Y1742269D02*
X42238907Y1789888D01*
X42238907Y1789888D02*
X42143669Y1837507D01*
X42143669Y1837507D02*
X42096050Y1885126D01*
X42096050Y1885126D02*
X42048430Y1980364D01*
X42048430Y1980364D02*
X42048430Y2075602D01*
X42048430Y2075602D02*
X42096050Y2170840D01*
X42096050Y2170840D02*
X42143669Y2218459D01*
X42143669Y2218459D02*
X42238907Y2266078D01*
X42238907Y2266078D02*
X42429383Y2313697D01*
X42429383Y2313697D02*
X42667478Y2313697D01*
X42667478Y2313697D02*
X42857954Y2266078D01*
X42857954Y2266078D02*
X42953192Y2218459D01*
X42953192Y2218459D02*
X43000811Y2170840D01*
X43000811Y2170840D02*
X43048430Y2075602D01*
X31280180Y60163221D02*
X32280180Y60163221D01*
X32280180Y60163221D02*
X32280180Y59782269D01*
X32280180Y59782269D02*
X32232561Y59687031D01*
X32232561Y59687031D02*
X32184942Y59639412D01*
X32184942Y59639412D02*
X32089704Y59591793D01*
X32089704Y59591793D02*
X31946847Y59591793D01*
X31946847Y59591793D02*
X31851609Y59639412D01*
X31851609Y59639412D02*
X31803990Y59687031D01*
X31803990Y59687031D02*
X31756371Y59782269D01*
X31756371Y59782269D02*
X31756371Y60163221D01*
X32232561Y58639412D02*
X32280180Y58734650D01*
X32280180Y58734650D02*
X32280180Y58877507D01*
X32280180Y58877507D02*
X32232561Y59020364D01*
X32232561Y59020364D02*
X32137323Y59115602D01*
X32137323Y59115602D02*
X32042085Y59163221D01*
X32042085Y59163221D02*
X31851609Y59210840D01*
X31851609Y59210840D02*
X31708752Y59210840D01*
X31708752Y59210840D02*
X31518276Y59163221D01*
X31518276Y59163221D02*
X31423038Y59115602D01*
X31423038Y59115602D02*
X31327800Y59020364D01*
X31327800Y59020364D02*
X31280180Y58877507D01*
X31280180Y58877507D02*
X31280180Y58782269D01*
X31280180Y58782269D02*
X31327800Y58639412D01*
X31327800Y58639412D02*
X31375419Y58591793D01*
X31375419Y58591793D02*
X31708752Y58591793D01*
X31708752Y58591793D02*
X31708752Y58782269D01*
X31280180Y57639412D02*
X31280180Y58210840D01*
X31280180Y57925126D02*
X32280180Y57925126D01*
X32280180Y57925126D02*
X32137323Y58020364D01*
X32137323Y58020364D02*
X32042085Y58115602D01*
X32042085Y58115602D02*
X31994466Y58210840D01*
X32184942Y57258459D02*
X32232561Y57210840D01*
X32232561Y57210840D02*
X32280180Y57115602D01*
X32280180Y57115602D02*
X32280180Y56877507D01*
X32280180Y56877507D02*
X32232561Y56782269D01*
X32232561Y56782269D02*
X32184942Y56734650D01*
X32184942Y56734650D02*
X32089704Y56687031D01*
X32089704Y56687031D02*
X31994466Y56687031D01*
X31994466Y56687031D02*
X31851609Y56734650D01*
X31851609Y56734650D02*
X31280180Y57306078D01*
X31280180Y57306078D02*
X31280180Y56687031D01*
X59236779Y25130181D02*
X59236779Y26130181D01*
X59236779Y26130181D02*
X59617731Y26130181D01*
X59617731Y26130181D02*
X59712969Y26082562D01*
X59712969Y26082562D02*
X59760588Y26034943D01*
X59760588Y26034943D02*
X59808207Y25939705D01*
X59808207Y25939705D02*
X59808207Y25796848D01*
X59808207Y25796848D02*
X59760588Y25701610D01*
X59760588Y25701610D02*
X59712969Y25653991D01*
X59712969Y25653991D02*
X59617731Y25606372D01*
X59617731Y25606372D02*
X59236779Y25606372D01*
X60760588Y26082562D02*
X60665350Y26130181D01*
X60665350Y26130181D02*
X60522493Y26130181D01*
X60522493Y26130181D02*
X60379636Y26082562D01*
X60379636Y26082562D02*
X60284398Y25987324D01*
X60284398Y25987324D02*
X60236779Y25892086D01*
X60236779Y25892086D02*
X60189160Y25701610D01*
X60189160Y25701610D02*
X60189160Y25558753D01*
X60189160Y25558753D02*
X60236779Y25368277D01*
X60236779Y25368277D02*
X60284398Y25273039D01*
X60284398Y25273039D02*
X60379636Y25177800D01*
X60379636Y25177800D02*
X60522493Y25130181D01*
X60522493Y25130181D02*
X60617731Y25130181D01*
X60617731Y25130181D02*
X60760588Y25177800D01*
X60760588Y25177800D02*
X60808207Y25225420D01*
X60808207Y25225420D02*
X60808207Y25558753D01*
X60808207Y25558753D02*
X60617731Y25558753D01*
X61712969Y26130181D02*
X61236779Y26130181D01*
X61236779Y26130181D02*
X61189160Y25653991D01*
X61189160Y25653991D02*
X61236779Y25701610D01*
X61236779Y25701610D02*
X61332017Y25749229D01*
X61332017Y25749229D02*
X61570112Y25749229D01*
X61570112Y25749229D02*
X61665350Y25701610D01*
X61665350Y25701610D02*
X61712969Y25653991D01*
X61712969Y25653991D02*
X61760588Y25558753D01*
X61760588Y25558753D02*
X61760588Y25320658D01*
X61760588Y25320658D02*
X61712969Y25225420D01*
X61712969Y25225420D02*
X61665350Y25177800D01*
X61665350Y25177800D02*
X61570112Y25130181D01*
X61570112Y25130181D02*
X61332017Y25130181D01*
X61332017Y25130181D02*
X61236779Y25177800D01*
X61236779Y25177800D02*
X61189160Y25225420D01*
X59236779Y22430181D02*
X59236779Y23430181D01*
X59236779Y23430181D02*
X59617731Y23430181D01*
X59617731Y23430181D02*
X59712969Y23382562D01*
X59712969Y23382562D02*
X59760588Y23334943D01*
X59760588Y23334943D02*
X59808207Y23239705D01*
X59808207Y23239705D02*
X59808207Y23096848D01*
X59808207Y23096848D02*
X59760588Y23001610D01*
X59760588Y23001610D02*
X59712969Y22953991D01*
X59712969Y22953991D02*
X59617731Y22906372D01*
X59617731Y22906372D02*
X59236779Y22906372D01*
X60760588Y23382562D02*
X60665350Y23430181D01*
X60665350Y23430181D02*
X60522493Y23430181D01*
X60522493Y23430181D02*
X60379636Y23382562D01*
X60379636Y23382562D02*
X60284398Y23287324D01*
X60284398Y23287324D02*
X60236779Y23192086D01*
X60236779Y23192086D02*
X60189160Y23001610D01*
X60189160Y23001610D02*
X60189160Y22858753D01*
X60189160Y22858753D02*
X60236779Y22668277D01*
X60236779Y22668277D02*
X60284398Y22573039D01*
X60284398Y22573039D02*
X60379636Y22477800D01*
X60379636Y22477800D02*
X60522493Y22430181D01*
X60522493Y22430181D02*
X60617731Y22430181D01*
X60617731Y22430181D02*
X60760588Y22477800D01*
X60760588Y22477800D02*
X60808207Y22525420D01*
X60808207Y22525420D02*
X60808207Y22858753D01*
X60808207Y22858753D02*
X60617731Y22858753D01*
X61141541Y23430181D02*
X61760588Y23430181D01*
X61760588Y23430181D02*
X61427255Y23049229D01*
X61427255Y23049229D02*
X61570112Y23049229D01*
X61570112Y23049229D02*
X61665350Y23001610D01*
X61665350Y23001610D02*
X61712969Y22953991D01*
X61712969Y22953991D02*
X61760588Y22858753D01*
X61760588Y22858753D02*
X61760588Y22620658D01*
X61760588Y22620658D02*
X61712969Y22525420D01*
X61712969Y22525420D02*
X61665350Y22477800D01*
X61665350Y22477800D02*
X61570112Y22430181D01*
X61570112Y22430181D02*
X61284398Y22430181D01*
X61284398Y22430181D02*
X61189160Y22477800D01*
X61189160Y22477800D02*
X61141541Y22525420D01*
D11*
X71788720Y47357258D02*
X71217292Y47357258D01*
X71217292Y47357258D02*
X71160149Y46785829D01*
X71160149Y46785829D02*
X71217292Y46842972D01*
X71217292Y46842972D02*
X71331578Y46900115D01*
X71331578Y46900115D02*
X71617292Y46900115D01*
X71617292Y46900115D02*
X71731578Y46842972D01*
X71731578Y46842972D02*
X71788720Y46785829D01*
X71788720Y46785829D02*
X71845863Y46671543D01*
X71845863Y46671543D02*
X71845863Y46385829D01*
X71845863Y46385829D02*
X71788720Y46271543D01*
X71788720Y46271543D02*
X71731578Y46214400D01*
X71731578Y46214400D02*
X71617292Y46157258D01*
X71617292Y46157258D02*
X71331578Y46157258D01*
X71331578Y46157258D02*
X71217292Y46214400D01*
X71217292Y46214400D02*
X71160149Y46271543D01*
X72188720Y47357258D02*
X72588720Y46157258D01*
X72588720Y46157258D02*
X72988720Y47357258D01*
D10*
X41508430Y50313221D02*
X42508430Y50313221D01*
X42508430Y50313221D02*
X42508430Y49932269D01*
X42508430Y49932269D02*
X42460811Y49837031D01*
X42460811Y49837031D02*
X42413192Y49789412D01*
X42413192Y49789412D02*
X42317954Y49741793D01*
X42317954Y49741793D02*
X42175097Y49741793D01*
X42175097Y49741793D02*
X42079859Y49789412D01*
X42079859Y49789412D02*
X42032240Y49837031D01*
X42032240Y49837031D02*
X41984621Y49932269D01*
X41984621Y49932269D02*
X41984621Y50313221D01*
X41508430Y49313221D02*
X42508430Y49313221D01*
X42508430Y49313221D02*
X42508430Y49075126D01*
X42508430Y49075126D02*
X42460811Y48932269D01*
X42460811Y48932269D02*
X42365573Y48837031D01*
X42365573Y48837031D02*
X42270335Y48789412D01*
X42270335Y48789412D02*
X42079859Y48741793D01*
X42079859Y48741793D02*
X41937002Y48741793D01*
X41937002Y48741793D02*
X41746526Y48789412D01*
X41746526Y48789412D02*
X41651288Y48837031D01*
X41651288Y48837031D02*
X41556050Y48932269D01*
X41556050Y48932269D02*
X41508430Y49075126D01*
X41508430Y49075126D02*
X41508430Y49313221D01*
X42508430Y48408459D02*
X42508430Y47789412D01*
X42508430Y47789412D02*
X42127478Y48122745D01*
X42127478Y48122745D02*
X42127478Y47979888D01*
X42127478Y47979888D02*
X42079859Y47884650D01*
X42079859Y47884650D02*
X42032240Y47837031D01*
X42032240Y47837031D02*
X41937002Y47789412D01*
X41937002Y47789412D02*
X41698907Y47789412D01*
X41698907Y47789412D02*
X41603669Y47837031D01*
X41603669Y47837031D02*
X41556050Y47884650D01*
X41556050Y47884650D02*
X41508430Y47979888D01*
X41508430Y47979888D02*
X41508430Y48265602D01*
X41508430Y48265602D02*
X41556050Y48360840D01*
X41556050Y48360840D02*
X41603669Y48408459D01*
X10436779Y48938431D02*
X10436779Y49938431D01*
X10436779Y49938431D02*
X10817731Y49938431D01*
X10817731Y49938431D02*
X10912969Y49890812D01*
X10912969Y49890812D02*
X10960588Y49843193D01*
X10960588Y49843193D02*
X11008207Y49747955D01*
X11008207Y49747955D02*
X11008207Y49605098D01*
X11008207Y49605098D02*
X10960588Y49509860D01*
X10960588Y49509860D02*
X10912969Y49462241D01*
X10912969Y49462241D02*
X10817731Y49414622D01*
X10817731Y49414622D02*
X10436779Y49414622D01*
X11436779Y49462241D02*
X11770112Y49462241D01*
X11912969Y48938431D02*
X11436779Y48938431D01*
X11436779Y48938431D02*
X11436779Y49938431D01*
X11436779Y49938431D02*
X11912969Y49938431D01*
X12293922Y49843193D02*
X12341541Y49890812D01*
X12341541Y49890812D02*
X12436779Y49938431D01*
X12436779Y49938431D02*
X12674874Y49938431D01*
X12674874Y49938431D02*
X12770112Y49890812D01*
X12770112Y49890812D02*
X12817731Y49843193D01*
X12817731Y49843193D02*
X12865350Y49747955D01*
X12865350Y49747955D02*
X12865350Y49652717D01*
X12865350Y49652717D02*
X12817731Y49509860D01*
X12817731Y49509860D02*
X12246303Y48938431D01*
X12246303Y48938431D02*
X12865350Y48938431D01*
X1481541Y23538431D02*
X1481541Y24538431D01*
X1481541Y24538431D02*
X1862493Y24538431D01*
X1862493Y24538431D02*
X1957731Y24490812D01*
X1957731Y24490812D02*
X2005350Y24443193D01*
X2005350Y24443193D02*
X2052969Y24347955D01*
X2052969Y24347955D02*
X2052969Y24205098D01*
X2052969Y24205098D02*
X2005350Y24109860D01*
X2005350Y24109860D02*
X1957731Y24062241D01*
X1957731Y24062241D02*
X1862493Y24014622D01*
X1862493Y24014622D02*
X1481541Y24014622D01*
X3052969Y23633670D02*
X3005350Y23586050D01*
X3005350Y23586050D02*
X2862493Y23538431D01*
X2862493Y23538431D02*
X2767255Y23538431D01*
X2767255Y23538431D02*
X2624398Y23586050D01*
X2624398Y23586050D02*
X2529160Y23681289D01*
X2529160Y23681289D02*
X2481541Y23776527D01*
X2481541Y23776527D02*
X2433922Y23967003D01*
X2433922Y23967003D02*
X2433922Y24109860D01*
X2433922Y24109860D02*
X2481541Y24300336D01*
X2481541Y24300336D02*
X2529160Y24395574D01*
X2529160Y24395574D02*
X2624398Y24490812D01*
X2624398Y24490812D02*
X2767255Y24538431D01*
X2767255Y24538431D02*
X2862493Y24538431D01*
X2862493Y24538431D02*
X3005350Y24490812D01*
X3005350Y24490812D02*
X3052969Y24443193D01*
X4005350Y23538431D02*
X3433922Y23538431D01*
X3719636Y23538431D02*
X3719636Y24538431D01*
X3719636Y24538431D02*
X3624398Y24395574D01*
X3624398Y24395574D02*
X3529160Y24300336D01*
X3529160Y24300336D02*
X3433922Y24252717D01*
D11*
X22941578Y68315831D02*
X23113006Y68258688D01*
X23113006Y68258688D02*
X23170149Y68201545D01*
X23170149Y68201545D02*
X23227292Y68087260D01*
X23227292Y68087260D02*
X23227292Y67915831D01*
X23227292Y67915831D02*
X23170149Y67801545D01*
X23170149Y67801545D02*
X23113006Y67744402D01*
X23113006Y67744402D02*
X22998721Y67687260D01*
X22998721Y67687260D02*
X22541578Y67687260D01*
X22541578Y67687260D02*
X22541578Y68887260D01*
X22541578Y68887260D02*
X22941578Y68887260D01*
X22941578Y68887260D02*
X23055864Y68830117D01*
X23055864Y68830117D02*
X23113006Y68772974D01*
X23113006Y68772974D02*
X23170149Y68658688D01*
X23170149Y68658688D02*
X23170149Y68544402D01*
X23170149Y68544402D02*
X23113006Y68430117D01*
X23113006Y68430117D02*
X23055864Y68372974D01*
X23055864Y68372974D02*
X22941578Y68315831D01*
X22941578Y68315831D02*
X22541578Y68315831D01*
X23970149Y68887260D02*
X24198721Y68887260D01*
X24198721Y68887260D02*
X24313006Y68830117D01*
X24313006Y68830117D02*
X24427292Y68715831D01*
X24427292Y68715831D02*
X24484435Y68487260D01*
X24484435Y68487260D02*
X24484435Y68087260D01*
X24484435Y68087260D02*
X24427292Y67858688D01*
X24427292Y67858688D02*
X24313006Y67744402D01*
X24313006Y67744402D02*
X24198721Y67687260D01*
X24198721Y67687260D02*
X23970149Y67687260D01*
X23970149Y67687260D02*
X23855864Y67744402D01*
X23855864Y67744402D02*
X23741578Y67858688D01*
X23741578Y67858688D02*
X23684435Y68087260D01*
X23684435Y68087260D02*
X23684435Y68487260D01*
X23684435Y68487260D02*
X23741578Y68715831D01*
X23741578Y68715831D02*
X23855864Y68830117D01*
X23855864Y68830117D02*
X23970149Y68887260D01*
X25227292Y68887260D02*
X25455864Y68887260D01*
X25455864Y68887260D02*
X25570149Y68830117D01*
X25570149Y68830117D02*
X25684435Y68715831D01*
X25684435Y68715831D02*
X25741578Y68487260D01*
X25741578Y68487260D02*
X25741578Y68087260D01*
X25741578Y68087260D02*
X25684435Y67858688D01*
X25684435Y67858688D02*
X25570149Y67744402D01*
X25570149Y67744402D02*
X25455864Y67687260D01*
X25455864Y67687260D02*
X25227292Y67687260D01*
X25227292Y67687260D02*
X25113007Y67744402D01*
X25113007Y67744402D02*
X24998721Y67858688D01*
X24998721Y67858688D02*
X24941578Y68087260D01*
X24941578Y68087260D02*
X24941578Y68487260D01*
X24941578Y68487260D02*
X24998721Y68715831D01*
X24998721Y68715831D02*
X25113007Y68830117D01*
X25113007Y68830117D02*
X25227292Y68887260D01*
X26084435Y68887260D02*
X26770150Y68887260D01*
X26427292Y67687260D02*
X26427292Y68887260D01*
X27398721Y68887260D02*
X27513007Y68887260D01*
X27513007Y68887260D02*
X27627293Y68830117D01*
X27627293Y68830117D02*
X27684436Y68772974D01*
X27684436Y68772974D02*
X27741578Y68658688D01*
X27741578Y68658688D02*
X27798721Y68430117D01*
X27798721Y68430117D02*
X27798721Y68144402D01*
X27798721Y68144402D02*
X27741578Y67915831D01*
X27741578Y67915831D02*
X27684436Y67801545D01*
X27684436Y67801545D02*
X27627293Y67744402D01*
X27627293Y67744402D02*
X27513007Y67687260D01*
X27513007Y67687260D02*
X27398721Y67687260D01*
X27398721Y67687260D02*
X27284436Y67744402D01*
X27284436Y67744402D02*
X27227293Y67801545D01*
X27227293Y67801545D02*
X27170150Y67915831D01*
X27170150Y67915831D02*
X27113007Y68144402D01*
X27113007Y68144402D02*
X27113007Y68430117D01*
X27113007Y68430117D02*
X27170150Y68658688D01*
X27170150Y68658688D02*
X27227293Y68772974D01*
X27227293Y68772974D02*
X27284436Y68830117D01*
X27284436Y68830117D02*
X27398721Y68887260D01*
D10*
X10436779Y46398431D02*
X10436779Y47398431D01*
X10436779Y47398431D02*
X10817731Y47398431D01*
X10817731Y47398431D02*
X10912969Y47350812D01*
X10912969Y47350812D02*
X10960588Y47303193D01*
X10960588Y47303193D02*
X11008207Y47207955D01*
X11008207Y47207955D02*
X11008207Y47065098D01*
X11008207Y47065098D02*
X10960588Y46969860D01*
X10960588Y46969860D02*
X10912969Y46922241D01*
X10912969Y46922241D02*
X10817731Y46874622D01*
X10817731Y46874622D02*
X10436779Y46874622D01*
X11436779Y46922241D02*
X11770112Y46922241D01*
X11912969Y46398431D02*
X11436779Y46398431D01*
X11436779Y46398431D02*
X11436779Y47398431D01*
X11436779Y47398431D02*
X11912969Y47398431D01*
X12770112Y47065098D02*
X12770112Y46398431D01*
X12532017Y47446050D02*
X12293922Y46731765D01*
X12293922Y46731765D02*
X12912969Y46731765D01*
X42048430Y14925602D02*
X43048430Y14925602D01*
X43048430Y14925602D02*
X43048430Y14544650D01*
X43048430Y14544650D02*
X43000811Y14449412D01*
X43000811Y14449412D02*
X42953192Y14401793D01*
X42953192Y14401793D02*
X42857954Y14354174D01*
X42857954Y14354174D02*
X42715097Y14354174D01*
X42715097Y14354174D02*
X42619859Y14401793D01*
X42619859Y14401793D02*
X42572240Y14449412D01*
X42572240Y14449412D02*
X42524621Y14544650D01*
X42524621Y14544650D02*
X42524621Y14925602D01*
X42572240Y13925602D02*
X42572240Y13592269D01*
X42048430Y13449412D02*
X42048430Y13925602D01*
X42048430Y13925602D02*
X43048430Y13925602D01*
X43048430Y13925602D02*
X43048430Y13449412D01*
X42048430Y12497031D02*
X42048430Y13068459D01*
X42048430Y12782745D02*
X43048430Y12782745D01*
X43048430Y12782745D02*
X42905573Y12877983D01*
X42905573Y12877983D02*
X42810335Y12973221D01*
X42810335Y12973221D02*
X42762716Y13068459D01*
X42048430Y11544650D02*
X42048430Y12116078D01*
X42048430Y11830364D02*
X43048430Y11830364D01*
X43048430Y11830364D02*
X42905573Y11925602D01*
X42905573Y11925602D02*
X42810335Y12020840D01*
X42810335Y12020840D02*
X42762716Y12116078D01*
X58336779Y20130181D02*
X58336779Y21130181D01*
X58336779Y21130181D02*
X58717731Y21130181D01*
X58717731Y21130181D02*
X58812969Y21082562D01*
X58812969Y21082562D02*
X58860588Y21034943D01*
X58860588Y21034943D02*
X58908207Y20939705D01*
X58908207Y20939705D02*
X58908207Y20796848D01*
X58908207Y20796848D02*
X58860588Y20701610D01*
X58860588Y20701610D02*
X58812969Y20653991D01*
X58812969Y20653991D02*
X58717731Y20606372D01*
X58717731Y20606372D02*
X58336779Y20606372D01*
X59336779Y20130181D02*
X59336779Y21130181D01*
X59336779Y21130181D02*
X59574874Y21130181D01*
X59574874Y21130181D02*
X59717731Y21082562D01*
X59717731Y21082562D02*
X59812969Y20987324D01*
X59812969Y20987324D02*
X59860588Y20892086D01*
X59860588Y20892086D02*
X59908207Y20701610D01*
X59908207Y20701610D02*
X59908207Y20558753D01*
X59908207Y20558753D02*
X59860588Y20368277D01*
X59860588Y20368277D02*
X59812969Y20273039D01*
X59812969Y20273039D02*
X59717731Y20177800D01*
X59717731Y20177800D02*
X59574874Y20130181D01*
X59574874Y20130181D02*
X59336779Y20130181D01*
X60860588Y20130181D02*
X60289160Y20130181D01*
X60574874Y20130181D02*
X60574874Y21130181D01*
X60574874Y21130181D02*
X60479636Y20987324D01*
X60479636Y20987324D02*
X60384398Y20892086D01*
X60384398Y20892086D02*
X60289160Y20844467D01*
X61765350Y21130181D02*
X61289160Y21130181D01*
X61289160Y21130181D02*
X61241541Y20653991D01*
X61241541Y20653991D02*
X61289160Y20701610D01*
X61289160Y20701610D02*
X61384398Y20749229D01*
X61384398Y20749229D02*
X61622493Y20749229D01*
X61622493Y20749229D02*
X61717731Y20701610D01*
X61717731Y20701610D02*
X61765350Y20653991D01*
X61765350Y20653991D02*
X61812969Y20558753D01*
X61812969Y20558753D02*
X61812969Y20320658D01*
X61812969Y20320658D02*
X61765350Y20225420D01*
X61765350Y20225420D02*
X61717731Y20177800D01*
X61717731Y20177800D02*
X61622493Y20130181D01*
X61622493Y20130181D02*
X61384398Y20130181D01*
X61384398Y20130181D02*
X61289160Y20177800D01*
X61289160Y20177800D02*
X61241541Y20225420D01*
X39450180Y14023221D02*
X40450180Y14023221D01*
X40450180Y14023221D02*
X40450180Y13642269D01*
X40450180Y13642269D02*
X40402561Y13547031D01*
X40402561Y13547031D02*
X40354942Y13499412D01*
X40354942Y13499412D02*
X40259704Y13451793D01*
X40259704Y13451793D02*
X40116847Y13451793D01*
X40116847Y13451793D02*
X40021609Y13499412D01*
X40021609Y13499412D02*
X39973990Y13547031D01*
X39973990Y13547031D02*
X39926371Y13642269D01*
X39926371Y13642269D02*
X39926371Y14023221D01*
X39973990Y13023221D02*
X39973990Y12689888D01*
X39450180Y12547031D02*
X39450180Y13023221D01*
X39450180Y13023221D02*
X40450180Y13023221D01*
X40450180Y13023221D02*
X40450180Y12547031D01*
X40021609Y11975602D02*
X40069228Y12070840D01*
X40069228Y12070840D02*
X40116847Y12118459D01*
X40116847Y12118459D02*
X40212085Y12166078D01*
X40212085Y12166078D02*
X40259704Y12166078D01*
X40259704Y12166078D02*
X40354942Y12118459D01*
X40354942Y12118459D02*
X40402561Y12070840D01*
X40402561Y12070840D02*
X40450180Y11975602D01*
X40450180Y11975602D02*
X40450180Y11785126D01*
X40450180Y11785126D02*
X40402561Y11689888D01*
X40402561Y11689888D02*
X40354942Y11642269D01*
X40354942Y11642269D02*
X40259704Y11594650D01*
X40259704Y11594650D02*
X40212085Y11594650D01*
X40212085Y11594650D02*
X40116847Y11642269D01*
X40116847Y11642269D02*
X40069228Y11689888D01*
X40069228Y11689888D02*
X40021609Y11785126D01*
X40021609Y11785126D02*
X40021609Y11975602D01*
X40021609Y11975602D02*
X39973990Y12070840D01*
X39973990Y12070840D02*
X39926371Y12118459D01*
X39926371Y12118459D02*
X39831133Y12166078D01*
X39831133Y12166078D02*
X39640657Y12166078D01*
X39640657Y12166078D02*
X39545419Y12118459D01*
X39545419Y12118459D02*
X39497800Y12070840D01*
X39497800Y12070840D02*
X39450180Y11975602D01*
X39450180Y11975602D02*
X39450180Y11785126D01*
X39450180Y11785126D02*
X39497800Y11689888D01*
X39497800Y11689888D02*
X39545419Y11642269D01*
X39545419Y11642269D02*
X39640657Y11594650D01*
X39640657Y11594650D02*
X39831133Y11594650D01*
X39831133Y11594650D02*
X39926371Y11642269D01*
X39926371Y11642269D02*
X39973990Y11689888D01*
X39973990Y11689888D02*
X40021609Y11785126D01*
X21170180Y50313221D02*
X22170180Y50313221D01*
X22170180Y50313221D02*
X22170180Y49932269D01*
X22170180Y49932269D02*
X22122561Y49837031D01*
X22122561Y49837031D02*
X22074942Y49789412D01*
X22074942Y49789412D02*
X21979704Y49741793D01*
X21979704Y49741793D02*
X21836847Y49741793D01*
X21836847Y49741793D02*
X21741609Y49789412D01*
X21741609Y49789412D02*
X21693990Y49837031D01*
X21693990Y49837031D02*
X21646371Y49932269D01*
X21646371Y49932269D02*
X21646371Y50313221D01*
X21693990Y49313221D02*
X21693990Y48979888D01*
X21170180Y48837031D02*
X21170180Y49313221D01*
X21170180Y49313221D02*
X22170180Y49313221D01*
X22170180Y49313221D02*
X22170180Y48837031D01*
X21170180Y47884650D02*
X21170180Y48456078D01*
X21170180Y48170364D02*
X22170180Y48170364D01*
X22170180Y48170364D02*
X22027323Y48265602D01*
X22027323Y48265602D02*
X21932085Y48360840D01*
X21932085Y48360840D02*
X21884466Y48456078D01*
X47128430Y5123221D02*
X48128430Y5123221D01*
X48128430Y5123221D02*
X48128430Y4742269D01*
X48128430Y4742269D02*
X48080811Y4647031D01*
X48080811Y4647031D02*
X48033192Y4599412D01*
X48033192Y4599412D02*
X47937954Y4551793D01*
X47937954Y4551793D02*
X47795097Y4551793D01*
X47795097Y4551793D02*
X47699859Y4599412D01*
X47699859Y4599412D02*
X47652240Y4647031D01*
X47652240Y4647031D02*
X47604621Y4742269D01*
X47604621Y4742269D02*
X47604621Y5123221D01*
X47652240Y4123221D02*
X47652240Y3789888D01*
X47128430Y3647031D02*
X47128430Y4123221D01*
X47128430Y4123221D02*
X48128430Y4123221D01*
X48128430Y4123221D02*
X48128430Y3647031D01*
X47128430Y2694650D02*
X47128430Y3266078D01*
X47128430Y2980364D02*
X48128430Y2980364D01*
X48128430Y2980364D02*
X47985573Y3075602D01*
X47985573Y3075602D02*
X47890335Y3170840D01*
X47890335Y3170840D02*
X47842716Y3266078D01*
X47795097Y1837507D02*
X47128430Y1837507D01*
X48176050Y2075602D02*
X47461764Y2313697D01*
X47461764Y2313697D02*
X47461764Y1694650D01*
X1624398Y18458431D02*
X1624398Y19458431D01*
X1624398Y19458431D02*
X2005350Y19458431D01*
X2005350Y19458431D02*
X2100588Y19410812D01*
X2100588Y19410812D02*
X2148207Y19363193D01*
X2148207Y19363193D02*
X2195826Y19267955D01*
X2195826Y19267955D02*
X2195826Y19125098D01*
X2195826Y19125098D02*
X2148207Y19029860D01*
X2148207Y19029860D02*
X2100588Y18982241D01*
X2100588Y18982241D02*
X2005350Y18934622D01*
X2005350Y18934622D02*
X1624398Y18934622D01*
X2576779Y18744146D02*
X3052969Y18744146D01*
X2481541Y18458431D02*
X2814874Y19458431D01*
X2814874Y19458431D02*
X3148207Y18458431D01*
X4005350Y18458431D02*
X3433922Y18458431D01*
X3719636Y18458431D02*
X3719636Y19458431D01*
X3719636Y19458431D02*
X3624398Y19315574D01*
X3624398Y19315574D02*
X3529160Y19220336D01*
X3529160Y19220336D02*
X3433922Y19172717D01*
X16648430Y14001793D02*
X17648430Y14001793D01*
X17648430Y14001793D02*
X17648430Y13620841D01*
X17648430Y13620841D02*
X17600811Y13525603D01*
X17600811Y13525603D02*
X17553192Y13477984D01*
X17553192Y13477984D02*
X17457954Y13430365D01*
X17457954Y13430365D02*
X17315097Y13430365D01*
X17315097Y13430365D02*
X17219859Y13477984D01*
X17219859Y13477984D02*
X17172240Y13525603D01*
X17172240Y13525603D02*
X17124621Y13620841D01*
X17124621Y13620841D02*
X17124621Y14001793D01*
X16934145Y13049412D02*
X16934145Y12573222D01*
X16648430Y13144650D02*
X17648430Y12811317D01*
X17648430Y12811317D02*
X16648430Y12477984D01*
X17315097Y11716079D02*
X16648430Y11716079D01*
X17696050Y11954174D02*
X16981764Y12192269D01*
X16981764Y12192269D02*
X16981764Y11573222D01*
X36968430Y5113221D02*
X37968430Y5113221D01*
X37968430Y5113221D02*
X37968430Y4732269D01*
X37968430Y4732269D02*
X37920811Y4637031D01*
X37920811Y4637031D02*
X37873192Y4589412D01*
X37873192Y4589412D02*
X37777954Y4541793D01*
X37777954Y4541793D02*
X37635097Y4541793D01*
X37635097Y4541793D02*
X37539859Y4589412D01*
X37539859Y4589412D02*
X37492240Y4637031D01*
X37492240Y4637031D02*
X37444621Y4732269D01*
X37444621Y4732269D02*
X37444621Y5113221D01*
X37492240Y4113221D02*
X37492240Y3779888D01*
X36968430Y3637031D02*
X36968430Y4113221D01*
X36968430Y4113221D02*
X37968430Y4113221D01*
X37968430Y4113221D02*
X37968430Y3637031D01*
X37968430Y3303697D02*
X37968430Y2637031D01*
X37968430Y2637031D02*
X36968430Y3065602D01*
X68236779Y20030181D02*
X68236779Y21030181D01*
X68236779Y21030181D02*
X68617731Y21030181D01*
X68617731Y21030181D02*
X68712969Y20982562D01*
X68712969Y20982562D02*
X68760588Y20934943D01*
X68760588Y20934943D02*
X68808207Y20839705D01*
X68808207Y20839705D02*
X68808207Y20696848D01*
X68808207Y20696848D02*
X68760588Y20601610D01*
X68760588Y20601610D02*
X68712969Y20553991D01*
X68712969Y20553991D02*
X68617731Y20506372D01*
X68617731Y20506372D02*
X68236779Y20506372D01*
X69236779Y20030181D02*
X69236779Y21030181D01*
X69236779Y21030181D02*
X69474874Y21030181D01*
X69474874Y21030181D02*
X69617731Y20982562D01*
X69617731Y20982562D02*
X69712969Y20887324D01*
X69712969Y20887324D02*
X69760588Y20792086D01*
X69760588Y20792086D02*
X69808207Y20601610D01*
X69808207Y20601610D02*
X69808207Y20458753D01*
X69808207Y20458753D02*
X69760588Y20268277D01*
X69760588Y20268277D02*
X69712969Y20173039D01*
X69712969Y20173039D02*
X69617731Y20077800D01*
X69617731Y20077800D02*
X69474874Y20030181D01*
X69474874Y20030181D02*
X69236779Y20030181D01*
X70760588Y20030181D02*
X70189160Y20030181D01*
X70474874Y20030181D02*
X70474874Y21030181D01*
X70474874Y21030181D02*
X70379636Y20887324D01*
X70379636Y20887324D02*
X70284398Y20792086D01*
X70284398Y20792086D02*
X70189160Y20744467D01*
X71617731Y20696848D02*
X71617731Y20030181D01*
X71379636Y21077800D02*
X71141541Y20363515D01*
X71141541Y20363515D02*
X71760588Y20363515D01*
X26250180Y50323221D02*
X27250180Y50323221D01*
X27250180Y50323221D02*
X27250180Y49942269D01*
X27250180Y49942269D02*
X27202561Y49847031D01*
X27202561Y49847031D02*
X27154942Y49799412D01*
X27154942Y49799412D02*
X27059704Y49751793D01*
X27059704Y49751793D02*
X26916847Y49751793D01*
X26916847Y49751793D02*
X26821609Y49799412D01*
X26821609Y49799412D02*
X26773990Y49847031D01*
X26773990Y49847031D02*
X26726371Y49942269D01*
X26726371Y49942269D02*
X26726371Y50323221D01*
X26773990Y48989888D02*
X26726371Y48847031D01*
X26726371Y48847031D02*
X26678752Y48799412D01*
X26678752Y48799412D02*
X26583514Y48751793D01*
X26583514Y48751793D02*
X26440657Y48751793D01*
X26440657Y48751793D02*
X26345419Y48799412D01*
X26345419Y48799412D02*
X26297800Y48847031D01*
X26297800Y48847031D02*
X26250180Y48942269D01*
X26250180Y48942269D02*
X26250180Y49323221D01*
X26250180Y49323221D02*
X27250180Y49323221D01*
X27250180Y49323221D02*
X27250180Y48989888D01*
X27250180Y48989888D02*
X27202561Y48894650D01*
X27202561Y48894650D02*
X27154942Y48847031D01*
X27154942Y48847031D02*
X27059704Y48799412D01*
X27059704Y48799412D02*
X26964466Y48799412D01*
X26964466Y48799412D02*
X26869228Y48847031D01*
X26869228Y48847031D02*
X26821609Y48894650D01*
X26821609Y48894650D02*
X26773990Y48989888D01*
X26773990Y48989888D02*
X26773990Y49323221D01*
X27250180Y47847031D02*
X27250180Y48323221D01*
X27250180Y48323221D02*
X26773990Y48370840D01*
X26773990Y48370840D02*
X26821609Y48323221D01*
X26821609Y48323221D02*
X26869228Y48227983D01*
X26869228Y48227983D02*
X26869228Y47989888D01*
X26869228Y47989888D02*
X26821609Y47894650D01*
X26821609Y47894650D02*
X26773990Y47847031D01*
X26773990Y47847031D02*
X26678752Y47799412D01*
X26678752Y47799412D02*
X26440657Y47799412D01*
X26440657Y47799412D02*
X26345419Y47847031D01*
X26345419Y47847031D02*
X26297800Y47894650D01*
X26297800Y47894650D02*
X26250180Y47989888D01*
X26250180Y47989888D02*
X26250180Y48227983D01*
X26250180Y48227983D02*
X26297800Y48323221D01*
X26297800Y48323221D02*
X26345419Y48370840D01*
X10436779Y43858431D02*
X10436779Y44858431D01*
X10436779Y44858431D02*
X10817731Y44858431D01*
X10817731Y44858431D02*
X10912969Y44810812D01*
X10912969Y44810812D02*
X10960588Y44763193D01*
X10960588Y44763193D02*
X11008207Y44667955D01*
X11008207Y44667955D02*
X11008207Y44525098D01*
X11008207Y44525098D02*
X10960588Y44429860D01*
X10960588Y44429860D02*
X10912969Y44382241D01*
X10912969Y44382241D02*
X10817731Y44334622D01*
X10817731Y44334622D02*
X10436779Y44334622D01*
X11436779Y44382241D02*
X11770112Y44382241D01*
X11912969Y43858431D02*
X11436779Y43858431D01*
X11436779Y43858431D02*
X11436779Y44858431D01*
X11436779Y44858431D02*
X11912969Y44858431D01*
X12770112Y44858431D02*
X12579636Y44858431D01*
X12579636Y44858431D02*
X12484398Y44810812D01*
X12484398Y44810812D02*
X12436779Y44763193D01*
X12436779Y44763193D02*
X12341541Y44620336D01*
X12341541Y44620336D02*
X12293922Y44429860D01*
X12293922Y44429860D02*
X12293922Y44048908D01*
X12293922Y44048908D02*
X12341541Y43953670D01*
X12341541Y43953670D02*
X12389160Y43906050D01*
X12389160Y43906050D02*
X12484398Y43858431D01*
X12484398Y43858431D02*
X12674874Y43858431D01*
X12674874Y43858431D02*
X12770112Y43906050D01*
X12770112Y43906050D02*
X12817731Y43953670D01*
X12817731Y43953670D02*
X12865350Y44048908D01*
X12865350Y44048908D02*
X12865350Y44287003D01*
X12865350Y44287003D02*
X12817731Y44382241D01*
X12817731Y44382241D02*
X12770112Y44429860D01*
X12770112Y44429860D02*
X12674874Y44477479D01*
X12674874Y44477479D02*
X12484398Y44477479D01*
X12484398Y44477479D02*
X12389160Y44429860D01*
X12389160Y44429860D02*
X12341541Y44382241D01*
X12341541Y44382241D02*
X12293922Y44287003D01*
X19188430Y5051793D02*
X20188430Y5051793D01*
X20188430Y5051793D02*
X20188430Y4670841D01*
X20188430Y4670841D02*
X20140811Y4575603D01*
X20140811Y4575603D02*
X20093192Y4527984D01*
X20093192Y4527984D02*
X19997954Y4480365D01*
X19997954Y4480365D02*
X19855097Y4480365D01*
X19855097Y4480365D02*
X19759859Y4527984D01*
X19759859Y4527984D02*
X19712240Y4575603D01*
X19712240Y4575603D02*
X19664621Y4670841D01*
X19664621Y4670841D02*
X19664621Y5051793D01*
X19474145Y4099412D02*
X19474145Y3623222D01*
X19188430Y4194650D02*
X20188430Y3861317D01*
X20188430Y3861317D02*
X19188430Y3527984D01*
X20188430Y2766079D02*
X20188430Y2956555D01*
X20188430Y2956555D02*
X20140811Y3051793D01*
X20140811Y3051793D02*
X20093192Y3099412D01*
X20093192Y3099412D02*
X19950335Y3194650D01*
X19950335Y3194650D02*
X19759859Y3242269D01*
X19759859Y3242269D02*
X19378907Y3242269D01*
X19378907Y3242269D02*
X19283669Y3194650D01*
X19283669Y3194650D02*
X19236050Y3147031D01*
X19236050Y3147031D02*
X19188430Y3051793D01*
X19188430Y3051793D02*
X19188430Y2861317D01*
X19188430Y2861317D02*
X19236050Y2766079D01*
X19236050Y2766079D02*
X19283669Y2718460D01*
X19283669Y2718460D02*
X19378907Y2670841D01*
X19378907Y2670841D02*
X19617002Y2670841D01*
X19617002Y2670841D02*
X19712240Y2718460D01*
X19712240Y2718460D02*
X19759859Y2766079D01*
X19759859Y2766079D02*
X19807478Y2861317D01*
X19807478Y2861317D02*
X19807478Y3051793D01*
X19807478Y3051793D02*
X19759859Y3147031D01*
X19759859Y3147031D02*
X19712240Y3194650D01*
X19712240Y3194650D02*
X19617002Y3242269D01*
X49700180Y14973221D02*
X50700180Y14973221D01*
X50700180Y14973221D02*
X50700180Y14592269D01*
X50700180Y14592269D02*
X50652561Y14497031D01*
X50652561Y14497031D02*
X50604942Y14449412D01*
X50604942Y14449412D02*
X50509704Y14401793D01*
X50509704Y14401793D02*
X50366847Y14401793D01*
X50366847Y14401793D02*
X50271609Y14449412D01*
X50271609Y14449412D02*
X50223990Y14497031D01*
X50223990Y14497031D02*
X50176371Y14592269D01*
X50176371Y14592269D02*
X50176371Y14973221D01*
X50223990Y13639888D02*
X50176371Y13497031D01*
X50176371Y13497031D02*
X50128752Y13449412D01*
X50128752Y13449412D02*
X50033514Y13401793D01*
X50033514Y13401793D02*
X49890657Y13401793D01*
X49890657Y13401793D02*
X49795419Y13449412D01*
X49795419Y13449412D02*
X49747800Y13497031D01*
X49747800Y13497031D02*
X49700180Y13592269D01*
X49700180Y13592269D02*
X49700180Y13973221D01*
X49700180Y13973221D02*
X50700180Y13973221D01*
X50700180Y13973221D02*
X50700180Y13639888D01*
X50700180Y13639888D02*
X50652561Y13544650D01*
X50652561Y13544650D02*
X50604942Y13497031D01*
X50604942Y13497031D02*
X50509704Y13449412D01*
X50509704Y13449412D02*
X50414466Y13449412D01*
X50414466Y13449412D02*
X50319228Y13497031D01*
X50319228Y13497031D02*
X50271609Y13544650D01*
X50271609Y13544650D02*
X50223990Y13639888D01*
X50223990Y13639888D02*
X50223990Y13973221D01*
X49700180Y12449412D02*
X49700180Y13020840D01*
X49700180Y12735126D02*
X50700180Y12735126D01*
X50700180Y12735126D02*
X50557323Y12830364D01*
X50557323Y12830364D02*
X50462085Y12925602D01*
X50462085Y12925602D02*
X50414466Y13020840D01*
X50700180Y11830364D02*
X50700180Y11735126D01*
X50700180Y11735126D02*
X50652561Y11639888D01*
X50652561Y11639888D02*
X50604942Y11592269D01*
X50604942Y11592269D02*
X50509704Y11544650D01*
X50509704Y11544650D02*
X50319228Y11497031D01*
X50319228Y11497031D02*
X50081133Y11497031D01*
X50081133Y11497031D02*
X49890657Y11544650D01*
X49890657Y11544650D02*
X49795419Y11592269D01*
X49795419Y11592269D02*
X49747800Y11639888D01*
X49747800Y11639888D02*
X49700180Y11735126D01*
X49700180Y11735126D02*
X49700180Y11830364D01*
X49700180Y11830364D02*
X49747800Y11925602D01*
X49747800Y11925602D02*
X49795419Y11973221D01*
X49795419Y11973221D02*
X49890657Y12020840D01*
X49890657Y12020840D02*
X50081133Y12068459D01*
X50081133Y12068459D02*
X50319228Y12068459D01*
X50319228Y12068459D02*
X50509704Y12020840D01*
X50509704Y12020840D02*
X50604942Y11973221D01*
X50604942Y11973221D02*
X50652561Y11925602D01*
X50652561Y11925602D02*
X50700180Y11830364D01*
X19188430Y14001793D02*
X20188430Y14001793D01*
X20188430Y14001793D02*
X20188430Y13620841D01*
X20188430Y13620841D02*
X20140811Y13525603D01*
X20140811Y13525603D02*
X20093192Y13477984D01*
X20093192Y13477984D02*
X19997954Y13430365D01*
X19997954Y13430365D02*
X19855097Y13430365D01*
X19855097Y13430365D02*
X19759859Y13477984D01*
X19759859Y13477984D02*
X19712240Y13525603D01*
X19712240Y13525603D02*
X19664621Y13620841D01*
X19664621Y13620841D02*
X19664621Y14001793D01*
X19474145Y13049412D02*
X19474145Y12573222D01*
X19188430Y13144650D02*
X20188430Y12811317D01*
X20188430Y12811317D02*
X19188430Y12477984D01*
X20188430Y11668460D02*
X20188430Y12144650D01*
X20188430Y12144650D02*
X19712240Y12192269D01*
X19712240Y12192269D02*
X19759859Y12144650D01*
X19759859Y12144650D02*
X19807478Y12049412D01*
X19807478Y12049412D02*
X19807478Y11811317D01*
X19807478Y11811317D02*
X19759859Y11716079D01*
X19759859Y11716079D02*
X19712240Y11668460D01*
X19712240Y11668460D02*
X19617002Y11620841D01*
X19617002Y11620841D02*
X19378907Y11620841D01*
X19378907Y11620841D02*
X19283669Y11668460D01*
X19283669Y11668460D02*
X19236050Y11716079D01*
X19236050Y11716079D02*
X19188430Y11811317D01*
X19188430Y11811317D02*
X19188430Y12049412D01*
X19188430Y12049412D02*
X19236050Y12144650D01*
X19236050Y12144650D02*
X19283669Y12192269D01*
X33880180Y60163221D02*
X34880180Y60163221D01*
X34880180Y60163221D02*
X34880180Y59782269D01*
X34880180Y59782269D02*
X34832561Y59687031D01*
X34832561Y59687031D02*
X34784942Y59639412D01*
X34784942Y59639412D02*
X34689704Y59591793D01*
X34689704Y59591793D02*
X34546847Y59591793D01*
X34546847Y59591793D02*
X34451609Y59639412D01*
X34451609Y59639412D02*
X34403990Y59687031D01*
X34403990Y59687031D02*
X34356371Y59782269D01*
X34356371Y59782269D02*
X34356371Y60163221D01*
X34832561Y58639412D02*
X34880180Y58734650D01*
X34880180Y58734650D02*
X34880180Y58877507D01*
X34880180Y58877507D02*
X34832561Y59020364D01*
X34832561Y59020364D02*
X34737323Y59115602D01*
X34737323Y59115602D02*
X34642085Y59163221D01*
X34642085Y59163221D02*
X34451609Y59210840D01*
X34451609Y59210840D02*
X34308752Y59210840D01*
X34308752Y59210840D02*
X34118276Y59163221D01*
X34118276Y59163221D02*
X34023038Y59115602D01*
X34023038Y59115602D02*
X33927800Y59020364D01*
X33927800Y59020364D02*
X33880180Y58877507D01*
X33880180Y58877507D02*
X33880180Y58782269D01*
X33880180Y58782269D02*
X33927800Y58639412D01*
X33927800Y58639412D02*
X33975419Y58591793D01*
X33975419Y58591793D02*
X34308752Y58591793D01*
X34308752Y58591793D02*
X34308752Y58782269D01*
X33880180Y57639412D02*
X33880180Y58210840D01*
X33880180Y57925126D02*
X34880180Y57925126D01*
X34880180Y57925126D02*
X34737323Y58020364D01*
X34737323Y58020364D02*
X34642085Y58115602D01*
X34642085Y58115602D02*
X34594466Y58210840D01*
X34880180Y57020364D02*
X34880180Y56925126D01*
X34880180Y56925126D02*
X34832561Y56829888D01*
X34832561Y56829888D02*
X34784942Y56782269D01*
X34784942Y56782269D02*
X34689704Y56734650D01*
X34689704Y56734650D02*
X34499228Y56687031D01*
X34499228Y56687031D02*
X34261133Y56687031D01*
X34261133Y56687031D02*
X34070657Y56734650D01*
X34070657Y56734650D02*
X33975419Y56782269D01*
X33975419Y56782269D02*
X33927800Y56829888D01*
X33927800Y56829888D02*
X33880180Y56925126D01*
X33880180Y56925126D02*
X33880180Y57020364D01*
X33880180Y57020364D02*
X33927800Y57115602D01*
X33927800Y57115602D02*
X33975419Y57163221D01*
X33975419Y57163221D02*
X34070657Y57210840D01*
X34070657Y57210840D02*
X34261133Y57258459D01*
X34261133Y57258459D02*
X34499228Y57258459D01*
X34499228Y57258459D02*
X34689704Y57210840D01*
X34689704Y57210840D02*
X34784942Y57163221D01*
X34784942Y57163221D02*
X34832561Y57115602D01*
X34832561Y57115602D02*
X34880180Y57020364D01*
D11*
X55114436Y57447258D02*
X55114436Y58647258D01*
X55114436Y58647258D02*
X55400150Y58647258D01*
X55400150Y58647258D02*
X55571579Y58590115D01*
X55571579Y58590115D02*
X55685864Y58475829D01*
X55685864Y58475829D02*
X55743007Y58361543D01*
X55743007Y58361543D02*
X55800150Y58132972D01*
X55800150Y58132972D02*
X55800150Y57961543D01*
X55800150Y57961543D02*
X55743007Y57732972D01*
X55743007Y57732972D02*
X55685864Y57618686D01*
X55685864Y57618686D02*
X55571579Y57504400D01*
X55571579Y57504400D02*
X55400150Y57447258D01*
X55400150Y57447258D02*
X55114436Y57447258D01*
X56771579Y57504400D02*
X56657293Y57447258D01*
X56657293Y57447258D02*
X56428722Y57447258D01*
X56428722Y57447258D02*
X56314436Y57504400D01*
X56314436Y57504400D02*
X56257293Y57618686D01*
X56257293Y57618686D02*
X56257293Y58075829D01*
X56257293Y58075829D02*
X56314436Y58190115D01*
X56314436Y58190115D02*
X56428722Y58247258D01*
X56428722Y58247258D02*
X56657293Y58247258D01*
X56657293Y58247258D02*
X56771579Y58190115D01*
X56771579Y58190115D02*
X56828722Y58075829D01*
X56828722Y58075829D02*
X56828722Y57961543D01*
X56828722Y57961543D02*
X56257293Y57847258D01*
X57343007Y57447258D02*
X57343007Y58647258D01*
X57343007Y58190115D02*
X57457293Y58247258D01*
X57457293Y58247258D02*
X57685864Y58247258D01*
X57685864Y58247258D02*
X57800150Y58190115D01*
X57800150Y58190115D02*
X57857293Y58132972D01*
X57857293Y58132972D02*
X57914435Y58018686D01*
X57914435Y58018686D02*
X57914435Y57675829D01*
X57914435Y57675829D02*
X57857293Y57561543D01*
X57857293Y57561543D02*
X57800150Y57504400D01*
X57800150Y57504400D02*
X57685864Y57447258D01*
X57685864Y57447258D02*
X57457293Y57447258D01*
X57457293Y57447258D02*
X57343007Y57504400D01*
X58943007Y58247258D02*
X58943007Y57447258D01*
X58428721Y58247258D02*
X58428721Y57618686D01*
X58428721Y57618686D02*
X58485864Y57504400D01*
X58485864Y57504400D02*
X58600149Y57447258D01*
X58600149Y57447258D02*
X58771578Y57447258D01*
X58771578Y57447258D02*
X58885864Y57504400D01*
X58885864Y57504400D02*
X58943007Y57561543D01*
X60028721Y58247258D02*
X60028721Y57275829D01*
X60028721Y57275829D02*
X59971578Y57161543D01*
X59971578Y57161543D02*
X59914435Y57104400D01*
X59914435Y57104400D02*
X59800149Y57047258D01*
X59800149Y57047258D02*
X59628721Y57047258D01*
X59628721Y57047258D02*
X59514435Y57104400D01*
X60028721Y57504400D02*
X59914435Y57447258D01*
X59914435Y57447258D02*
X59685863Y57447258D01*
X59685863Y57447258D02*
X59571578Y57504400D01*
X59571578Y57504400D02*
X59514435Y57561543D01*
X59514435Y57561543D02*
X59457292Y57675829D01*
X59457292Y57675829D02*
X59457292Y58018686D01*
X59457292Y58018686D02*
X59514435Y58132972D01*
X59514435Y58132972D02*
X59571578Y58190115D01*
X59571578Y58190115D02*
X59685863Y58247258D01*
X59685863Y58247258D02*
X59914435Y58247258D01*
X59914435Y58247258D02*
X60028721Y58190115D01*
D10*
X31810180Y14883221D02*
X32810180Y14883221D01*
X32810180Y14883221D02*
X32810180Y14502269D01*
X32810180Y14502269D02*
X32762561Y14407031D01*
X32762561Y14407031D02*
X32714942Y14359412D01*
X32714942Y14359412D02*
X32619704Y14311793D01*
X32619704Y14311793D02*
X32476847Y14311793D01*
X32476847Y14311793D02*
X32381609Y14359412D01*
X32381609Y14359412D02*
X32333990Y14407031D01*
X32333990Y14407031D02*
X32286371Y14502269D01*
X32286371Y14502269D02*
X32286371Y14883221D01*
X32333990Y13549888D02*
X32333990Y13883221D01*
X31810180Y13883221D02*
X32810180Y13883221D01*
X32810180Y13883221D02*
X32810180Y13407031D01*
X31810180Y12502269D02*
X31810180Y13073697D01*
X31810180Y12787983D02*
X32810180Y12787983D01*
X32810180Y12787983D02*
X32667323Y12883221D01*
X32667323Y12883221D02*
X32572085Y12978459D01*
X32572085Y12978459D02*
X32524466Y13073697D01*
X32810180Y12168935D02*
X32810180Y11549888D01*
X32810180Y11549888D02*
X32429228Y11883221D01*
X32429228Y11883221D02*
X32429228Y11740364D01*
X32429228Y11740364D02*
X32381609Y11645126D01*
X32381609Y11645126D02*
X32333990Y11597507D01*
X32333990Y11597507D02*
X32238752Y11549888D01*
X32238752Y11549888D02*
X32000657Y11549888D01*
X32000657Y11549888D02*
X31905419Y11597507D01*
X31905419Y11597507D02*
X31857800Y11645126D01*
X31857800Y11645126D02*
X31810180Y11740364D01*
X31810180Y11740364D02*
X31810180Y12026078D01*
X31810180Y12026078D02*
X31857800Y12121316D01*
X31857800Y12121316D02*
X31905419Y12168935D01*
X43980180Y59213221D02*
X44980180Y59213221D01*
X44980180Y59213221D02*
X44980180Y58832269D01*
X44980180Y58832269D02*
X44932561Y58737031D01*
X44932561Y58737031D02*
X44884942Y58689412D01*
X44884942Y58689412D02*
X44789704Y58641793D01*
X44789704Y58641793D02*
X44646847Y58641793D01*
X44646847Y58641793D02*
X44551609Y58689412D01*
X44551609Y58689412D02*
X44503990Y58737031D01*
X44503990Y58737031D02*
X44456371Y58832269D01*
X44456371Y58832269D02*
X44456371Y59213221D01*
X43980180Y58213221D02*
X44980180Y58213221D01*
X44980180Y58213221D02*
X44980180Y57975126D01*
X44980180Y57975126D02*
X44932561Y57832269D01*
X44932561Y57832269D02*
X44837323Y57737031D01*
X44837323Y57737031D02*
X44742085Y57689412D01*
X44742085Y57689412D02*
X44551609Y57641793D01*
X44551609Y57641793D02*
X44408752Y57641793D01*
X44408752Y57641793D02*
X44218276Y57689412D01*
X44218276Y57689412D02*
X44123038Y57737031D01*
X44123038Y57737031D02*
X44027800Y57832269D01*
X44027800Y57832269D02*
X43980180Y57975126D01*
X43980180Y57975126D02*
X43980180Y58213221D01*
X44884942Y57260840D02*
X44932561Y57213221D01*
X44932561Y57213221D02*
X44980180Y57117983D01*
X44980180Y57117983D02*
X44980180Y56879888D01*
X44980180Y56879888D02*
X44932561Y56784650D01*
X44932561Y56784650D02*
X44884942Y56737031D01*
X44884942Y56737031D02*
X44789704Y56689412D01*
X44789704Y56689412D02*
X44694466Y56689412D01*
X44694466Y56689412D02*
X44551609Y56737031D01*
X44551609Y56737031D02*
X43980180Y57308459D01*
X43980180Y57308459D02*
X43980180Y56689412D01*
X21188430Y59215602D02*
X22188430Y59215602D01*
X22188430Y59215602D02*
X22188430Y58834650D01*
X22188430Y58834650D02*
X22140811Y58739412D01*
X22140811Y58739412D02*
X22093192Y58691793D01*
X22093192Y58691793D02*
X21997954Y58644174D01*
X21997954Y58644174D02*
X21855097Y58644174D01*
X21855097Y58644174D02*
X21759859Y58691793D01*
X21759859Y58691793D02*
X21712240Y58739412D01*
X21712240Y58739412D02*
X21664621Y58834650D01*
X21664621Y58834650D02*
X21664621Y59215602D01*
X21712240Y58215602D02*
X21712240Y57882269D01*
X21188430Y57739412D02*
X21188430Y58215602D01*
X21188430Y58215602D02*
X22188430Y58215602D01*
X22188430Y58215602D02*
X22188430Y57739412D01*
X22188430Y57120364D02*
X22188430Y57025126D01*
X22188430Y57025126D02*
X22140811Y56929888D01*
X22140811Y56929888D02*
X22093192Y56882269D01*
X22093192Y56882269D02*
X21997954Y56834650D01*
X21997954Y56834650D02*
X21807478Y56787031D01*
X21807478Y56787031D02*
X21569383Y56787031D01*
X21569383Y56787031D02*
X21378907Y56834650D01*
X21378907Y56834650D02*
X21283669Y56882269D01*
X21283669Y56882269D02*
X21236050Y56929888D01*
X21236050Y56929888D02*
X21188430Y57025126D01*
X21188430Y57025126D02*
X21188430Y57120364D01*
X21188430Y57120364D02*
X21236050Y57215602D01*
X21236050Y57215602D02*
X21283669Y57263221D01*
X21283669Y57263221D02*
X21378907Y57310840D01*
X21378907Y57310840D02*
X21569383Y57358459D01*
X21569383Y57358459D02*
X21807478Y57358459D01*
X21807478Y57358459D02*
X21997954Y57310840D01*
X21997954Y57310840D02*
X22093192Y57263221D01*
X22093192Y57263221D02*
X22140811Y57215602D01*
X22140811Y57215602D02*
X22188430Y57120364D01*
X34400180Y14893221D02*
X35400180Y14893221D01*
X35400180Y14893221D02*
X35400180Y14512269D01*
X35400180Y14512269D02*
X35352561Y14417031D01*
X35352561Y14417031D02*
X35304942Y14369412D01*
X35304942Y14369412D02*
X35209704Y14321793D01*
X35209704Y14321793D02*
X35066847Y14321793D01*
X35066847Y14321793D02*
X34971609Y14369412D01*
X34971609Y14369412D02*
X34923990Y14417031D01*
X34923990Y14417031D02*
X34876371Y14512269D01*
X34876371Y14512269D02*
X34876371Y14893221D01*
X34923990Y13559888D02*
X34923990Y13893221D01*
X34400180Y13893221D02*
X35400180Y13893221D01*
X35400180Y13893221D02*
X35400180Y13417031D01*
X34400180Y12512269D02*
X34400180Y13083697D01*
X34400180Y12797983D02*
X35400180Y12797983D01*
X35400180Y12797983D02*
X35257323Y12893221D01*
X35257323Y12893221D02*
X35162085Y12988459D01*
X35162085Y12988459D02*
X35114466Y13083697D01*
X35400180Y11607507D02*
X35400180Y12083697D01*
X35400180Y12083697D02*
X34923990Y12131316D01*
X34923990Y12131316D02*
X34971609Y12083697D01*
X34971609Y12083697D02*
X35019228Y11988459D01*
X35019228Y11988459D02*
X35019228Y11750364D01*
X35019228Y11750364D02*
X34971609Y11655126D01*
X34971609Y11655126D02*
X34923990Y11607507D01*
X34923990Y11607507D02*
X34828752Y11559888D01*
X34828752Y11559888D02*
X34590657Y11559888D01*
X34590657Y11559888D02*
X34495419Y11607507D01*
X34495419Y11607507D02*
X34447800Y11655126D01*
X34447800Y11655126D02*
X34400180Y11750364D01*
X34400180Y11750364D02*
X34400180Y11988459D01*
X34400180Y11988459D02*
X34447800Y12083697D01*
X34447800Y12083697D02*
X34495419Y12131316D01*
X58336779Y17430181D02*
X58336779Y18430181D01*
X58336779Y18430181D02*
X58717731Y18430181D01*
X58717731Y18430181D02*
X58812969Y18382562D01*
X58812969Y18382562D02*
X58860588Y18334943D01*
X58860588Y18334943D02*
X58908207Y18239705D01*
X58908207Y18239705D02*
X58908207Y18096848D01*
X58908207Y18096848D02*
X58860588Y18001610D01*
X58860588Y18001610D02*
X58812969Y17953991D01*
X58812969Y17953991D02*
X58717731Y17906372D01*
X58717731Y17906372D02*
X58336779Y17906372D01*
X59336779Y17430181D02*
X59336779Y18430181D01*
X59336779Y18430181D02*
X59574874Y18430181D01*
X59574874Y18430181D02*
X59717731Y18382562D01*
X59717731Y18382562D02*
X59812969Y18287324D01*
X59812969Y18287324D02*
X59860588Y18192086D01*
X59860588Y18192086D02*
X59908207Y18001610D01*
X59908207Y18001610D02*
X59908207Y17858753D01*
X59908207Y17858753D02*
X59860588Y17668277D01*
X59860588Y17668277D02*
X59812969Y17573039D01*
X59812969Y17573039D02*
X59717731Y17477800D01*
X59717731Y17477800D02*
X59574874Y17430181D01*
X59574874Y17430181D02*
X59336779Y17430181D01*
X60860588Y17430181D02*
X60289160Y17430181D01*
X60574874Y17430181D02*
X60574874Y18430181D01*
X60574874Y18430181D02*
X60479636Y18287324D01*
X60479636Y18287324D02*
X60384398Y18192086D01*
X60384398Y18192086D02*
X60289160Y18144467D01*
X61193922Y18430181D02*
X61812969Y18430181D01*
X61812969Y18430181D02*
X61479636Y18049229D01*
X61479636Y18049229D02*
X61622493Y18049229D01*
X61622493Y18049229D02*
X61717731Y18001610D01*
X61717731Y18001610D02*
X61765350Y17953991D01*
X61765350Y17953991D02*
X61812969Y17858753D01*
X61812969Y17858753D02*
X61812969Y17620658D01*
X61812969Y17620658D02*
X61765350Y17525420D01*
X61765350Y17525420D02*
X61717731Y17477800D01*
X61717731Y17477800D02*
X61622493Y17430181D01*
X61622493Y17430181D02*
X61336779Y17430181D01*
X61336779Y17430181D02*
X61241541Y17477800D01*
X61241541Y17477800D02*
X61193922Y17525420D01*
X10436779Y31158431D02*
X10436779Y32158431D01*
X10436779Y32158431D02*
X10817731Y32158431D01*
X10817731Y32158431D02*
X10912969Y32110812D01*
X10912969Y32110812D02*
X10960588Y32063193D01*
X10960588Y32063193D02*
X11008207Y31967955D01*
X11008207Y31967955D02*
X11008207Y31825098D01*
X11008207Y31825098D02*
X10960588Y31729860D01*
X10960588Y31729860D02*
X10912969Y31682241D01*
X10912969Y31682241D02*
X10817731Y31634622D01*
X10817731Y31634622D02*
X10436779Y31634622D01*
X11770112Y31682241D02*
X11436779Y31682241D01*
X11436779Y31158431D02*
X11436779Y32158431D01*
X11436779Y32158431D02*
X11912969Y32158431D01*
X12722493Y32158431D02*
X12532017Y32158431D01*
X12532017Y32158431D02*
X12436779Y32110812D01*
X12436779Y32110812D02*
X12389160Y32063193D01*
X12389160Y32063193D02*
X12293922Y31920336D01*
X12293922Y31920336D02*
X12246303Y31729860D01*
X12246303Y31729860D02*
X12246303Y31348908D01*
X12246303Y31348908D02*
X12293922Y31253670D01*
X12293922Y31253670D02*
X12341541Y31206050D01*
X12341541Y31206050D02*
X12436779Y31158431D01*
X12436779Y31158431D02*
X12627255Y31158431D01*
X12627255Y31158431D02*
X12722493Y31206050D01*
X12722493Y31206050D02*
X12770112Y31253670D01*
X12770112Y31253670D02*
X12817731Y31348908D01*
X12817731Y31348908D02*
X12817731Y31587003D01*
X12817731Y31587003D02*
X12770112Y31682241D01*
X12770112Y31682241D02*
X12722493Y31729860D01*
X12722493Y31729860D02*
X12627255Y31777479D01*
X12627255Y31777479D02*
X12436779Y31777479D01*
X12436779Y31777479D02*
X12341541Y31729860D01*
X12341541Y31729860D02*
X12293922Y31682241D01*
X12293922Y31682241D02*
X12246303Y31587003D01*
X68236779Y12430181D02*
X68236779Y13430181D01*
X68236779Y13430181D02*
X68617731Y13430181D01*
X68617731Y13430181D02*
X68712969Y13382562D01*
X68712969Y13382562D02*
X68760588Y13334943D01*
X68760588Y13334943D02*
X68808207Y13239705D01*
X68808207Y13239705D02*
X68808207Y13096848D01*
X68808207Y13096848D02*
X68760588Y13001610D01*
X68760588Y13001610D02*
X68712969Y12953991D01*
X68712969Y12953991D02*
X68617731Y12906372D01*
X68617731Y12906372D02*
X68236779Y12906372D01*
X69236779Y12430181D02*
X69236779Y13430181D01*
X69236779Y13430181D02*
X69474874Y13430181D01*
X69474874Y13430181D02*
X69617731Y13382562D01*
X69617731Y13382562D02*
X69712969Y13287324D01*
X69712969Y13287324D02*
X69760588Y13192086D01*
X69760588Y13192086D02*
X69808207Y13001610D01*
X69808207Y13001610D02*
X69808207Y12858753D01*
X69808207Y12858753D02*
X69760588Y12668277D01*
X69760588Y12668277D02*
X69712969Y12573039D01*
X69712969Y12573039D02*
X69617731Y12477800D01*
X69617731Y12477800D02*
X69474874Y12430181D01*
X69474874Y12430181D02*
X69236779Y12430181D01*
X70379636Y13001610D02*
X70284398Y13049229D01*
X70284398Y13049229D02*
X70236779Y13096848D01*
X70236779Y13096848D02*
X70189160Y13192086D01*
X70189160Y13192086D02*
X70189160Y13239705D01*
X70189160Y13239705D02*
X70236779Y13334943D01*
X70236779Y13334943D02*
X70284398Y13382562D01*
X70284398Y13382562D02*
X70379636Y13430181D01*
X70379636Y13430181D02*
X70570112Y13430181D01*
X70570112Y13430181D02*
X70665350Y13382562D01*
X70665350Y13382562D02*
X70712969Y13334943D01*
X70712969Y13334943D02*
X70760588Y13239705D01*
X70760588Y13239705D02*
X70760588Y13192086D01*
X70760588Y13192086D02*
X70712969Y13096848D01*
X70712969Y13096848D02*
X70665350Y13049229D01*
X70665350Y13049229D02*
X70570112Y13001610D01*
X70570112Y13001610D02*
X70379636Y13001610D01*
X70379636Y13001610D02*
X70284398Y12953991D01*
X70284398Y12953991D02*
X70236779Y12906372D01*
X70236779Y12906372D02*
X70189160Y12811134D01*
X70189160Y12811134D02*
X70189160Y12620658D01*
X70189160Y12620658D02*
X70236779Y12525420D01*
X70236779Y12525420D02*
X70284398Y12477800D01*
X70284398Y12477800D02*
X70379636Y12430181D01*
X70379636Y12430181D02*
X70570112Y12430181D01*
X70570112Y12430181D02*
X70665350Y12477800D01*
X70665350Y12477800D02*
X70712969Y12525420D01*
X70712969Y12525420D02*
X70760588Y12620658D01*
X70760588Y12620658D02*
X70760588Y12811134D01*
X70760588Y12811134D02*
X70712969Y12906372D01*
X70712969Y12906372D02*
X70665350Y12953991D01*
X70665350Y12953991D02*
X70570112Y13001610D01*
X46430180Y59213221D02*
X47430180Y59213221D01*
X47430180Y59213221D02*
X47430180Y58832269D01*
X47430180Y58832269D02*
X47382561Y58737031D01*
X47382561Y58737031D02*
X47334942Y58689412D01*
X47334942Y58689412D02*
X47239704Y58641793D01*
X47239704Y58641793D02*
X47096847Y58641793D01*
X47096847Y58641793D02*
X47001609Y58689412D01*
X47001609Y58689412D02*
X46953990Y58737031D01*
X46953990Y58737031D02*
X46906371Y58832269D01*
X46906371Y58832269D02*
X46906371Y59213221D01*
X46430180Y58213221D02*
X47430180Y58213221D01*
X47430180Y58213221D02*
X47430180Y57975126D01*
X47430180Y57975126D02*
X47382561Y57832269D01*
X47382561Y57832269D02*
X47287323Y57737031D01*
X47287323Y57737031D02*
X47192085Y57689412D01*
X47192085Y57689412D02*
X47001609Y57641793D01*
X47001609Y57641793D02*
X46858752Y57641793D01*
X46858752Y57641793D02*
X46668276Y57689412D01*
X46668276Y57689412D02*
X46573038Y57737031D01*
X46573038Y57737031D02*
X46477800Y57832269D01*
X46477800Y57832269D02*
X46430180Y57975126D01*
X46430180Y57975126D02*
X46430180Y58213221D01*
X47430180Y57022745D02*
X47430180Y56927507D01*
X47430180Y56927507D02*
X47382561Y56832269D01*
X47382561Y56832269D02*
X47334942Y56784650D01*
X47334942Y56784650D02*
X47239704Y56737031D01*
X47239704Y56737031D02*
X47049228Y56689412D01*
X47049228Y56689412D02*
X46811133Y56689412D01*
X46811133Y56689412D02*
X46620657Y56737031D01*
X46620657Y56737031D02*
X46525419Y56784650D01*
X46525419Y56784650D02*
X46477800Y56832269D01*
X46477800Y56832269D02*
X46430180Y56927507D01*
X46430180Y56927507D02*
X46430180Y57022745D01*
X46430180Y57022745D02*
X46477800Y57117983D01*
X46477800Y57117983D02*
X46525419Y57165602D01*
X46525419Y57165602D02*
X46620657Y57213221D01*
X46620657Y57213221D02*
X46811133Y57260840D01*
X46811133Y57260840D02*
X47049228Y57260840D01*
X47049228Y57260840D02*
X47239704Y57213221D01*
X47239704Y57213221D02*
X47334942Y57165602D01*
X47334942Y57165602D02*
X47382561Y57117983D01*
X47382561Y57117983D02*
X47430180Y57022745D01*
X68236779Y14930181D02*
X68236779Y15930181D01*
X68236779Y15930181D02*
X68617731Y15930181D01*
X68617731Y15930181D02*
X68712969Y15882562D01*
X68712969Y15882562D02*
X68760588Y15834943D01*
X68760588Y15834943D02*
X68808207Y15739705D01*
X68808207Y15739705D02*
X68808207Y15596848D01*
X68808207Y15596848D02*
X68760588Y15501610D01*
X68760588Y15501610D02*
X68712969Y15453991D01*
X68712969Y15453991D02*
X68617731Y15406372D01*
X68617731Y15406372D02*
X68236779Y15406372D01*
X69236779Y14930181D02*
X69236779Y15930181D01*
X69236779Y15930181D02*
X69474874Y15930181D01*
X69474874Y15930181D02*
X69617731Y15882562D01*
X69617731Y15882562D02*
X69712969Y15787324D01*
X69712969Y15787324D02*
X69760588Y15692086D01*
X69760588Y15692086D02*
X69808207Y15501610D01*
X69808207Y15501610D02*
X69808207Y15358753D01*
X69808207Y15358753D02*
X69760588Y15168277D01*
X69760588Y15168277D02*
X69712969Y15073039D01*
X69712969Y15073039D02*
X69617731Y14977800D01*
X69617731Y14977800D02*
X69474874Y14930181D01*
X69474874Y14930181D02*
X69236779Y14930181D01*
X70760588Y14930181D02*
X70189160Y14930181D01*
X70474874Y14930181D02*
X70474874Y15930181D01*
X70474874Y15930181D02*
X70379636Y15787324D01*
X70379636Y15787324D02*
X70284398Y15692086D01*
X70284398Y15692086D02*
X70189160Y15644467D01*
X71379636Y15930181D02*
X71474874Y15930181D01*
X71474874Y15930181D02*
X71570112Y15882562D01*
X71570112Y15882562D02*
X71617731Y15834943D01*
X71617731Y15834943D02*
X71665350Y15739705D01*
X71665350Y15739705D02*
X71712969Y15549229D01*
X71712969Y15549229D02*
X71712969Y15311134D01*
X71712969Y15311134D02*
X71665350Y15120658D01*
X71665350Y15120658D02*
X71617731Y15025420D01*
X71617731Y15025420D02*
X71570112Y14977800D01*
X71570112Y14977800D02*
X71474874Y14930181D01*
X71474874Y14930181D02*
X71379636Y14930181D01*
X71379636Y14930181D02*
X71284398Y14977800D01*
X71284398Y14977800D02*
X71236779Y15025420D01*
X71236779Y15025420D02*
X71189160Y15120658D01*
X71189160Y15120658D02*
X71141541Y15311134D01*
X71141541Y15311134D02*
X71141541Y15549229D01*
X71141541Y15549229D02*
X71189160Y15739705D01*
X71189160Y15739705D02*
X71236779Y15834943D01*
X71236779Y15834943D02*
X71284398Y15882562D01*
X71284398Y15882562D02*
X71379636Y15930181D01*
X1624398Y36238431D02*
X1624398Y37238431D01*
X1624398Y37238431D02*
X2005350Y37238431D01*
X2005350Y37238431D02*
X2100588Y37190812D01*
X2100588Y37190812D02*
X2148207Y37143193D01*
X2148207Y37143193D02*
X2195826Y37047955D01*
X2195826Y37047955D02*
X2195826Y36905098D01*
X2195826Y36905098D02*
X2148207Y36809860D01*
X2148207Y36809860D02*
X2100588Y36762241D01*
X2100588Y36762241D02*
X2005350Y36714622D01*
X2005350Y36714622D02*
X1624398Y36714622D01*
X2957731Y36762241D02*
X2624398Y36762241D01*
X2624398Y36238431D02*
X2624398Y37238431D01*
X2624398Y37238431D02*
X3100588Y37238431D01*
X3386303Y37238431D02*
X4005350Y37238431D01*
X4005350Y37238431D02*
X3672017Y36857479D01*
X3672017Y36857479D02*
X3814874Y36857479D01*
X3814874Y36857479D02*
X3910112Y36809860D01*
X3910112Y36809860D02*
X3957731Y36762241D01*
X3957731Y36762241D02*
X4005350Y36667003D01*
X4005350Y36667003D02*
X4005350Y36428908D01*
X4005350Y36428908D02*
X3957731Y36333670D01*
X3957731Y36333670D02*
X3910112Y36286050D01*
X3910112Y36286050D02*
X3814874Y36238431D01*
X3814874Y36238431D02*
X3529160Y36238431D01*
X3529160Y36238431D02*
X3433922Y36286050D01*
X3433922Y36286050D02*
X3386303Y36333670D01*
X59336779Y35330181D02*
X59336779Y36330181D01*
X59336779Y36330181D02*
X59717731Y36330181D01*
X59717731Y36330181D02*
X59812969Y36282562D01*
X59812969Y36282562D02*
X59860588Y36234943D01*
X59860588Y36234943D02*
X59908207Y36139705D01*
X59908207Y36139705D02*
X59908207Y35996848D01*
X59908207Y35996848D02*
X59860588Y35901610D01*
X59860588Y35901610D02*
X59812969Y35853991D01*
X59812969Y35853991D02*
X59717731Y35806372D01*
X59717731Y35806372D02*
X59336779Y35806372D01*
X60289160Y35615896D02*
X60765350Y35615896D01*
X60193922Y35330181D02*
X60527255Y36330181D01*
X60527255Y36330181D02*
X60860588Y35330181D01*
X61336779Y35901610D02*
X61241541Y35949229D01*
X61241541Y35949229D02*
X61193922Y35996848D01*
X61193922Y35996848D02*
X61146303Y36092086D01*
X61146303Y36092086D02*
X61146303Y36139705D01*
X61146303Y36139705D02*
X61193922Y36234943D01*
X61193922Y36234943D02*
X61241541Y36282562D01*
X61241541Y36282562D02*
X61336779Y36330181D01*
X61336779Y36330181D02*
X61527255Y36330181D01*
X61527255Y36330181D02*
X61622493Y36282562D01*
X61622493Y36282562D02*
X61670112Y36234943D01*
X61670112Y36234943D02*
X61717731Y36139705D01*
X61717731Y36139705D02*
X61717731Y36092086D01*
X61717731Y36092086D02*
X61670112Y35996848D01*
X61670112Y35996848D02*
X61622493Y35949229D01*
X61622493Y35949229D02*
X61527255Y35901610D01*
X61527255Y35901610D02*
X61336779Y35901610D01*
X61336779Y35901610D02*
X61241541Y35853991D01*
X61241541Y35853991D02*
X61193922Y35806372D01*
X61193922Y35806372D02*
X61146303Y35711134D01*
X61146303Y35711134D02*
X61146303Y35520658D01*
X61146303Y35520658D02*
X61193922Y35425420D01*
X61193922Y35425420D02*
X61241541Y35377800D01*
X61241541Y35377800D02*
X61336779Y35330181D01*
X61336779Y35330181D02*
X61527255Y35330181D01*
X61527255Y35330181D02*
X61622493Y35377800D01*
X61622493Y35377800D02*
X61670112Y35425420D01*
X61670112Y35425420D02*
X61717731Y35520658D01*
X61717731Y35520658D02*
X61717731Y35711134D01*
X61717731Y35711134D02*
X61670112Y35806372D01*
X61670112Y35806372D02*
X61622493Y35853991D01*
X61622493Y35853991D02*
X61527255Y35901610D01*
X1624398Y31158431D02*
X1624398Y32158431D01*
X1624398Y32158431D02*
X2005350Y32158431D01*
X2005350Y32158431D02*
X2100588Y32110812D01*
X2100588Y32110812D02*
X2148207Y32063193D01*
X2148207Y32063193D02*
X2195826Y31967955D01*
X2195826Y31967955D02*
X2195826Y31825098D01*
X2195826Y31825098D02*
X2148207Y31729860D01*
X2148207Y31729860D02*
X2100588Y31682241D01*
X2100588Y31682241D02*
X2005350Y31634622D01*
X2005350Y31634622D02*
X1624398Y31634622D01*
X2957731Y31682241D02*
X2624398Y31682241D01*
X2624398Y31158431D02*
X2624398Y32158431D01*
X2624398Y32158431D02*
X3100588Y32158431D01*
X3386303Y32158431D02*
X4052969Y32158431D01*
X4052969Y32158431D02*
X3624398Y31158431D01*
X49128430Y50313221D02*
X50128430Y50313221D01*
X50128430Y50313221D02*
X50128430Y49932269D01*
X50128430Y49932269D02*
X50080811Y49837031D01*
X50080811Y49837031D02*
X50033192Y49789412D01*
X50033192Y49789412D02*
X49937954Y49741793D01*
X49937954Y49741793D02*
X49795097Y49741793D01*
X49795097Y49741793D02*
X49699859Y49789412D01*
X49699859Y49789412D02*
X49652240Y49837031D01*
X49652240Y49837031D02*
X49604621Y49932269D01*
X49604621Y49932269D02*
X49604621Y50313221D01*
X49223669Y48741793D02*
X49176050Y48789412D01*
X49176050Y48789412D02*
X49128430Y48932269D01*
X49128430Y48932269D02*
X49128430Y49027507D01*
X49128430Y49027507D02*
X49176050Y49170364D01*
X49176050Y49170364D02*
X49271288Y49265602D01*
X49271288Y49265602D02*
X49366526Y49313221D01*
X49366526Y49313221D02*
X49557002Y49360840D01*
X49557002Y49360840D02*
X49699859Y49360840D01*
X49699859Y49360840D02*
X49890335Y49313221D01*
X49890335Y49313221D02*
X49985573Y49265602D01*
X49985573Y49265602D02*
X50080811Y49170364D01*
X50080811Y49170364D02*
X50128430Y49027507D01*
X50128430Y49027507D02*
X50128430Y48932269D01*
X50128430Y48932269D02*
X50080811Y48789412D01*
X50080811Y48789412D02*
X50033192Y48741793D01*
X49128430Y47789412D02*
X49128430Y48360840D01*
X49128430Y48075126D02*
X50128430Y48075126D01*
X50128430Y48075126D02*
X49985573Y48170364D01*
X49985573Y48170364D02*
X49890335Y48265602D01*
X49890335Y48265602D02*
X49842716Y48360840D01*
X50128430Y47170364D02*
X50128430Y47075126D01*
X50128430Y47075126D02*
X50080811Y46979888D01*
X50080811Y46979888D02*
X50033192Y46932269D01*
X50033192Y46932269D02*
X49937954Y46884650D01*
X49937954Y46884650D02*
X49747478Y46837031D01*
X49747478Y46837031D02*
X49509383Y46837031D01*
X49509383Y46837031D02*
X49318907Y46884650D01*
X49318907Y46884650D02*
X49223669Y46932269D01*
X49223669Y46932269D02*
X49176050Y46979888D01*
X49176050Y46979888D02*
X49128430Y47075126D01*
X49128430Y47075126D02*
X49128430Y47170364D01*
X49128430Y47170364D02*
X49176050Y47265602D01*
X49176050Y47265602D02*
X49223669Y47313221D01*
X49223669Y47313221D02*
X49318907Y47360840D01*
X49318907Y47360840D02*
X49509383Y47408459D01*
X49509383Y47408459D02*
X49747478Y47408459D01*
X49747478Y47408459D02*
X49937954Y47360840D01*
X49937954Y47360840D02*
X50033192Y47313221D01*
X50033192Y47313221D02*
X50080811Y47265602D01*
X50080811Y47265602D02*
X50128430Y47170364D01*
X44048430Y50313221D02*
X45048430Y50313221D01*
X45048430Y50313221D02*
X45048430Y49932269D01*
X45048430Y49932269D02*
X45000811Y49837031D01*
X45000811Y49837031D02*
X44953192Y49789412D01*
X44953192Y49789412D02*
X44857954Y49741793D01*
X44857954Y49741793D02*
X44715097Y49741793D01*
X44715097Y49741793D02*
X44619859Y49789412D01*
X44619859Y49789412D02*
X44572240Y49837031D01*
X44572240Y49837031D02*
X44524621Y49932269D01*
X44524621Y49932269D02*
X44524621Y50313221D01*
X44048430Y49313221D02*
X45048430Y49313221D01*
X45048430Y49313221D02*
X45048430Y49075126D01*
X45048430Y49075126D02*
X45000811Y48932269D01*
X45000811Y48932269D02*
X44905573Y48837031D01*
X44905573Y48837031D02*
X44810335Y48789412D01*
X44810335Y48789412D02*
X44619859Y48741793D01*
X44619859Y48741793D02*
X44477002Y48741793D01*
X44477002Y48741793D02*
X44286526Y48789412D01*
X44286526Y48789412D02*
X44191288Y48837031D01*
X44191288Y48837031D02*
X44096050Y48932269D01*
X44096050Y48932269D02*
X44048430Y49075126D01*
X44048430Y49075126D02*
X44048430Y49313221D01*
X44048430Y47789412D02*
X44048430Y48360840D01*
X44048430Y48075126D02*
X45048430Y48075126D01*
X45048430Y48075126D02*
X44905573Y48170364D01*
X44905573Y48170364D02*
X44810335Y48265602D01*
X44810335Y48265602D02*
X44762716Y48360840D01*
X1624398Y28618431D02*
X1624398Y29618431D01*
X1624398Y29618431D02*
X2005350Y29618431D01*
X2005350Y29618431D02*
X2100588Y29570812D01*
X2100588Y29570812D02*
X2148207Y29523193D01*
X2148207Y29523193D02*
X2195826Y29427955D01*
X2195826Y29427955D02*
X2195826Y29285098D01*
X2195826Y29285098D02*
X2148207Y29189860D01*
X2148207Y29189860D02*
X2100588Y29142241D01*
X2100588Y29142241D02*
X2005350Y29094622D01*
X2005350Y29094622D02*
X1624398Y29094622D01*
X2957731Y29142241D02*
X2624398Y29142241D01*
X2624398Y28618431D02*
X2624398Y29618431D01*
X2624398Y29618431D02*
X3100588Y29618431D01*
X3624398Y29189860D02*
X3529160Y29237479D01*
X3529160Y29237479D02*
X3481541Y29285098D01*
X3481541Y29285098D02*
X3433922Y29380336D01*
X3433922Y29380336D02*
X3433922Y29427955D01*
X3433922Y29427955D02*
X3481541Y29523193D01*
X3481541Y29523193D02*
X3529160Y29570812D01*
X3529160Y29570812D02*
X3624398Y29618431D01*
X3624398Y29618431D02*
X3814874Y29618431D01*
X3814874Y29618431D02*
X3910112Y29570812D01*
X3910112Y29570812D02*
X3957731Y29523193D01*
X3957731Y29523193D02*
X4005350Y29427955D01*
X4005350Y29427955D02*
X4005350Y29380336D01*
X4005350Y29380336D02*
X3957731Y29285098D01*
X3957731Y29285098D02*
X3910112Y29237479D01*
X3910112Y29237479D02*
X3814874Y29189860D01*
X3814874Y29189860D02*
X3624398Y29189860D01*
X3624398Y29189860D02*
X3529160Y29142241D01*
X3529160Y29142241D02*
X3481541Y29094622D01*
X3481541Y29094622D02*
X3433922Y28999384D01*
X3433922Y28999384D02*
X3433922Y28808908D01*
X3433922Y28808908D02*
X3481541Y28713670D01*
X3481541Y28713670D02*
X3529160Y28666050D01*
X3529160Y28666050D02*
X3624398Y28618431D01*
X3624398Y28618431D02*
X3814874Y28618431D01*
X3814874Y28618431D02*
X3910112Y28666050D01*
X3910112Y28666050D02*
X3957731Y28713670D01*
X3957731Y28713670D02*
X4005350Y28808908D01*
X4005350Y28808908D02*
X4005350Y28999384D01*
X4005350Y28999384D02*
X3957731Y29094622D01*
X3957731Y29094622D02*
X3910112Y29142241D01*
X3910112Y29142241D02*
X3814874Y29189860D01*
X10436779Y26078431D02*
X10436779Y27078431D01*
X10436779Y27078431D02*
X10817731Y27078431D01*
X10817731Y27078431D02*
X10912969Y27030812D01*
X10912969Y27030812D02*
X10960588Y26983193D01*
X10960588Y26983193D02*
X11008207Y26887955D01*
X11008207Y26887955D02*
X11008207Y26745098D01*
X11008207Y26745098D02*
X10960588Y26649860D01*
X10960588Y26649860D02*
X10912969Y26602241D01*
X10912969Y26602241D02*
X10817731Y26554622D01*
X10817731Y26554622D02*
X10436779Y26554622D01*
X12008207Y26173670D02*
X11960588Y26126050D01*
X11960588Y26126050D02*
X11817731Y26078431D01*
X11817731Y26078431D02*
X11722493Y26078431D01*
X11722493Y26078431D02*
X11579636Y26126050D01*
X11579636Y26126050D02*
X11484398Y26221289D01*
X11484398Y26221289D02*
X11436779Y26316527D01*
X11436779Y26316527D02*
X11389160Y26507003D01*
X11389160Y26507003D02*
X11389160Y26649860D01*
X11389160Y26649860D02*
X11436779Y26840336D01*
X11436779Y26840336D02*
X11484398Y26935574D01*
X11484398Y26935574D02*
X11579636Y27030812D01*
X11579636Y27030812D02*
X11722493Y27078431D01*
X11722493Y27078431D02*
X11817731Y27078431D01*
X11817731Y27078431D02*
X11960588Y27030812D01*
X11960588Y27030812D02*
X12008207Y26983193D01*
X12627255Y27078431D02*
X12722493Y27078431D01*
X12722493Y27078431D02*
X12817731Y27030812D01*
X12817731Y27030812D02*
X12865350Y26983193D01*
X12865350Y26983193D02*
X12912969Y26887955D01*
X12912969Y26887955D02*
X12960588Y26697479D01*
X12960588Y26697479D02*
X12960588Y26459384D01*
X12960588Y26459384D02*
X12912969Y26268908D01*
X12912969Y26268908D02*
X12865350Y26173670D01*
X12865350Y26173670D02*
X12817731Y26126050D01*
X12817731Y26126050D02*
X12722493Y26078431D01*
X12722493Y26078431D02*
X12627255Y26078431D01*
X12627255Y26078431D02*
X12532017Y26126050D01*
X12532017Y26126050D02*
X12484398Y26173670D01*
X12484398Y26173670D02*
X12436779Y26268908D01*
X12436779Y26268908D02*
X12389160Y26459384D01*
X12389160Y26459384D02*
X12389160Y26697479D01*
X12389160Y26697479D02*
X12436779Y26887955D01*
X12436779Y26887955D02*
X12484398Y26983193D01*
X12484398Y26983193D02*
X12532017Y27030812D01*
X12532017Y27030812D02*
X12627255Y27078431D01*
D11*
X78533114Y19196994D02*
X78533114Y18454137D01*
X78533114Y18454137D02*
X78075971Y18854137D01*
X78075971Y18854137D02*
X78075971Y18682708D01*
X78075971Y18682708D02*
X78018828Y18568422D01*
X78018828Y18568422D02*
X77961685Y18511280D01*
X77961685Y18511280D02*
X77847399Y18454137D01*
X77847399Y18454137D02*
X77561685Y18454137D01*
X77561685Y18454137D02*
X77447399Y18511280D01*
X77447399Y18511280D02*
X77390257Y18568422D01*
X77390257Y18568422D02*
X77333114Y18682708D01*
X77333114Y18682708D02*
X77333114Y19025565D01*
X77333114Y19025565D02*
X77390257Y19139851D01*
X77390257Y19139851D02*
X77447399Y19196994D01*
X78533114Y18111280D02*
X77333114Y17711280D01*
X77333114Y17711280D02*
X78533114Y17311280D01*
X78533114Y17025566D02*
X78533114Y16282709D01*
X78533114Y16282709D02*
X78075971Y16682709D01*
X78075971Y16682709D02*
X78075971Y16511280D01*
X78075971Y16511280D02*
X78018828Y16396994D01*
X78018828Y16396994D02*
X77961685Y16339852D01*
X77961685Y16339852D02*
X77847399Y16282709D01*
X77847399Y16282709D02*
X77561685Y16282709D01*
X77561685Y16282709D02*
X77447399Y16339852D01*
X77447399Y16339852D02*
X77390257Y16396994D01*
X77390257Y16396994D02*
X77333114Y16511280D01*
X77333114Y16511280D02*
X77333114Y16854137D01*
X77333114Y16854137D02*
X77390257Y16968423D01*
X77390257Y16968423D02*
X77447399Y17025566D01*
D10*
X21728430Y5093221D02*
X22728430Y5093221D01*
X22728430Y5093221D02*
X22728430Y4712269D01*
X22728430Y4712269D02*
X22680811Y4617031D01*
X22680811Y4617031D02*
X22633192Y4569412D01*
X22633192Y4569412D02*
X22537954Y4521793D01*
X22537954Y4521793D02*
X22395097Y4521793D01*
X22395097Y4521793D02*
X22299859Y4569412D01*
X22299859Y4569412D02*
X22252240Y4617031D01*
X22252240Y4617031D02*
X22204621Y4712269D01*
X22204621Y4712269D02*
X22204621Y5093221D01*
X21823669Y3521793D02*
X21776050Y3569412D01*
X21776050Y3569412D02*
X21728430Y3712269D01*
X21728430Y3712269D02*
X21728430Y3807507D01*
X21728430Y3807507D02*
X21776050Y3950364D01*
X21776050Y3950364D02*
X21871288Y4045602D01*
X21871288Y4045602D02*
X21966526Y4093221D01*
X21966526Y4093221D02*
X22157002Y4140840D01*
X22157002Y4140840D02*
X22299859Y4140840D01*
X22299859Y4140840D02*
X22490335Y4093221D01*
X22490335Y4093221D02*
X22585573Y4045602D01*
X22585573Y4045602D02*
X22680811Y3950364D01*
X22680811Y3950364D02*
X22728430Y3807507D01*
X22728430Y3807507D02*
X22728430Y3712269D01*
X22728430Y3712269D02*
X22680811Y3569412D01*
X22680811Y3569412D02*
X22633192Y3521793D01*
X22395097Y2664650D02*
X21728430Y2664650D01*
X22776050Y2902745D02*
X22061764Y3140840D01*
X22061764Y3140840D02*
X22061764Y2521793D01*
X44588430Y5123221D02*
X45588430Y5123221D01*
X45588430Y5123221D02*
X45588430Y4742269D01*
X45588430Y4742269D02*
X45540811Y4647031D01*
X45540811Y4647031D02*
X45493192Y4599412D01*
X45493192Y4599412D02*
X45397954Y4551793D01*
X45397954Y4551793D02*
X45255097Y4551793D01*
X45255097Y4551793D02*
X45159859Y4599412D01*
X45159859Y4599412D02*
X45112240Y4647031D01*
X45112240Y4647031D02*
X45064621Y4742269D01*
X45064621Y4742269D02*
X45064621Y5123221D01*
X45112240Y4123221D02*
X45112240Y3789888D01*
X44588430Y3647031D02*
X44588430Y4123221D01*
X44588430Y4123221D02*
X45588430Y4123221D01*
X45588430Y4123221D02*
X45588430Y3647031D01*
X44588430Y2694650D02*
X44588430Y3266078D01*
X44588430Y2980364D02*
X45588430Y2980364D01*
X45588430Y2980364D02*
X45445573Y3075602D01*
X45445573Y3075602D02*
X45350335Y3170840D01*
X45350335Y3170840D02*
X45302716Y3266078D01*
X45493192Y2313697D02*
X45540811Y2266078D01*
X45540811Y2266078D02*
X45588430Y2170840D01*
X45588430Y2170840D02*
X45588430Y1932745D01*
X45588430Y1932745D02*
X45540811Y1837507D01*
X45540811Y1837507D02*
X45493192Y1789888D01*
X45493192Y1789888D02*
X45397954Y1742269D01*
X45397954Y1742269D02*
X45302716Y1742269D01*
X45302716Y1742269D02*
X45159859Y1789888D01*
X45159859Y1789888D02*
X44588430Y2361316D01*
X44588430Y2361316D02*
X44588430Y1742269D01*
X21728430Y14001793D02*
X22728430Y14001793D01*
X22728430Y14001793D02*
X22728430Y13620841D01*
X22728430Y13620841D02*
X22680811Y13525603D01*
X22680811Y13525603D02*
X22633192Y13477984D01*
X22633192Y13477984D02*
X22537954Y13430365D01*
X22537954Y13430365D02*
X22395097Y13430365D01*
X22395097Y13430365D02*
X22299859Y13477984D01*
X22299859Y13477984D02*
X22252240Y13525603D01*
X22252240Y13525603D02*
X22204621Y13620841D01*
X22204621Y13620841D02*
X22204621Y14001793D01*
X22014145Y13049412D02*
X22014145Y12573222D01*
X21728430Y13144650D02*
X22728430Y12811317D01*
X22728430Y12811317D02*
X21728430Y12477984D01*
X22728430Y12239888D02*
X22728430Y11573222D01*
X22728430Y11573222D02*
X21728430Y12001793D01*
X68236779Y30230181D02*
X68236779Y31230181D01*
X68236779Y31230181D02*
X68617731Y31230181D01*
X68617731Y31230181D02*
X68712969Y31182562D01*
X68712969Y31182562D02*
X68760588Y31134943D01*
X68760588Y31134943D02*
X68808207Y31039705D01*
X68808207Y31039705D02*
X68808207Y30896848D01*
X68808207Y30896848D02*
X68760588Y30801610D01*
X68760588Y30801610D02*
X68712969Y30753991D01*
X68712969Y30753991D02*
X68617731Y30706372D01*
X68617731Y30706372D02*
X68236779Y30706372D01*
X69760588Y31182562D02*
X69665350Y31230181D01*
X69665350Y31230181D02*
X69522493Y31230181D01*
X69522493Y31230181D02*
X69379636Y31182562D01*
X69379636Y31182562D02*
X69284398Y31087324D01*
X69284398Y31087324D02*
X69236779Y30992086D01*
X69236779Y30992086D02*
X69189160Y30801610D01*
X69189160Y30801610D02*
X69189160Y30658753D01*
X69189160Y30658753D02*
X69236779Y30468277D01*
X69236779Y30468277D02*
X69284398Y30373039D01*
X69284398Y30373039D02*
X69379636Y30277800D01*
X69379636Y30277800D02*
X69522493Y30230181D01*
X69522493Y30230181D02*
X69617731Y30230181D01*
X69617731Y30230181D02*
X69760588Y30277800D01*
X69760588Y30277800D02*
X69808207Y30325420D01*
X69808207Y30325420D02*
X69808207Y30658753D01*
X69808207Y30658753D02*
X69617731Y30658753D01*
X70379636Y30801610D02*
X70284398Y30849229D01*
X70284398Y30849229D02*
X70236779Y30896848D01*
X70236779Y30896848D02*
X70189160Y30992086D01*
X70189160Y30992086D02*
X70189160Y31039705D01*
X70189160Y31039705D02*
X70236779Y31134943D01*
X70236779Y31134943D02*
X70284398Y31182562D01*
X70284398Y31182562D02*
X70379636Y31230181D01*
X70379636Y31230181D02*
X70570112Y31230181D01*
X70570112Y31230181D02*
X70665350Y31182562D01*
X70665350Y31182562D02*
X70712969Y31134943D01*
X70712969Y31134943D02*
X70760588Y31039705D01*
X70760588Y31039705D02*
X70760588Y30992086D01*
X70760588Y30992086D02*
X70712969Y30896848D01*
X70712969Y30896848D02*
X70665350Y30849229D01*
X70665350Y30849229D02*
X70570112Y30801610D01*
X70570112Y30801610D02*
X70379636Y30801610D01*
X70379636Y30801610D02*
X70284398Y30753991D01*
X70284398Y30753991D02*
X70236779Y30706372D01*
X70236779Y30706372D02*
X70189160Y30611134D01*
X70189160Y30611134D02*
X70189160Y30420658D01*
X70189160Y30420658D02*
X70236779Y30325420D01*
X70236779Y30325420D02*
X70284398Y30277800D01*
X70284398Y30277800D02*
X70379636Y30230181D01*
X70379636Y30230181D02*
X70570112Y30230181D01*
X70570112Y30230181D02*
X70665350Y30277800D01*
X70665350Y30277800D02*
X70712969Y30325420D01*
X70712969Y30325420D02*
X70760588Y30420658D01*
X70760588Y30420658D02*
X70760588Y30611134D01*
X70760588Y30611134D02*
X70712969Y30706372D01*
X70712969Y30706372D02*
X70665350Y30753991D01*
X70665350Y30753991D02*
X70570112Y30801610D01*
X33888430Y50313221D02*
X34888430Y50313221D01*
X34888430Y50313221D02*
X34888430Y49932269D01*
X34888430Y49932269D02*
X34840811Y49837031D01*
X34840811Y49837031D02*
X34793192Y49789412D01*
X34793192Y49789412D02*
X34697954Y49741793D01*
X34697954Y49741793D02*
X34555097Y49741793D01*
X34555097Y49741793D02*
X34459859Y49789412D01*
X34459859Y49789412D02*
X34412240Y49837031D01*
X34412240Y49837031D02*
X34364621Y49932269D01*
X34364621Y49932269D02*
X34364621Y50313221D01*
X34840811Y48789412D02*
X34888430Y48884650D01*
X34888430Y48884650D02*
X34888430Y49027507D01*
X34888430Y49027507D02*
X34840811Y49170364D01*
X34840811Y49170364D02*
X34745573Y49265602D01*
X34745573Y49265602D02*
X34650335Y49313221D01*
X34650335Y49313221D02*
X34459859Y49360840D01*
X34459859Y49360840D02*
X34317002Y49360840D01*
X34317002Y49360840D02*
X34126526Y49313221D01*
X34126526Y49313221D02*
X34031288Y49265602D01*
X34031288Y49265602D02*
X33936050Y49170364D01*
X33936050Y49170364D02*
X33888430Y49027507D01*
X33888430Y49027507D02*
X33888430Y48932269D01*
X33888430Y48932269D02*
X33936050Y48789412D01*
X33936050Y48789412D02*
X33983669Y48741793D01*
X33983669Y48741793D02*
X34317002Y48741793D01*
X34317002Y48741793D02*
X34317002Y48932269D01*
X33888430Y47789412D02*
X33888430Y48360840D01*
X33888430Y48075126D02*
X34888430Y48075126D01*
X34888430Y48075126D02*
X34745573Y48170364D01*
X34745573Y48170364D02*
X34650335Y48265602D01*
X34650335Y48265602D02*
X34602716Y48360840D01*
X33888430Y46837031D02*
X33888430Y47408459D01*
X33888430Y47122745D02*
X34888430Y47122745D01*
X34888430Y47122745D02*
X34745573Y47217983D01*
X34745573Y47217983D02*
X34650335Y47313221D01*
X34650335Y47313221D02*
X34602716Y47408459D01*
X29348430Y14883221D02*
X30348430Y14883221D01*
X30348430Y14883221D02*
X30348430Y14502269D01*
X30348430Y14502269D02*
X30300811Y14407031D01*
X30300811Y14407031D02*
X30253192Y14359412D01*
X30253192Y14359412D02*
X30157954Y14311793D01*
X30157954Y14311793D02*
X30015097Y14311793D01*
X30015097Y14311793D02*
X29919859Y14359412D01*
X29919859Y14359412D02*
X29872240Y14407031D01*
X29872240Y14407031D02*
X29824621Y14502269D01*
X29824621Y14502269D02*
X29824621Y14883221D01*
X29872240Y13549888D02*
X29872240Y13883221D01*
X29348430Y13883221D02*
X30348430Y13883221D01*
X30348430Y13883221D02*
X30348430Y13407031D01*
X29348430Y12502269D02*
X29348430Y13073697D01*
X29348430Y12787983D02*
X30348430Y12787983D01*
X30348430Y12787983D02*
X30205573Y12883221D01*
X30205573Y12883221D02*
X30110335Y12978459D01*
X30110335Y12978459D02*
X30062716Y13073697D01*
X29348430Y11549888D02*
X29348430Y12121316D01*
X29348430Y11835602D02*
X30348430Y11835602D01*
X30348430Y11835602D02*
X30205573Y11930840D01*
X30205573Y11930840D02*
X30110335Y12026078D01*
X30110335Y12026078D02*
X30062716Y12121316D01*
X44588430Y14925602D02*
X45588430Y14925602D01*
X45588430Y14925602D02*
X45588430Y14544650D01*
X45588430Y14544650D02*
X45540811Y14449412D01*
X45540811Y14449412D02*
X45493192Y14401793D01*
X45493192Y14401793D02*
X45397954Y14354174D01*
X45397954Y14354174D02*
X45255097Y14354174D01*
X45255097Y14354174D02*
X45159859Y14401793D01*
X45159859Y14401793D02*
X45112240Y14449412D01*
X45112240Y14449412D02*
X45064621Y14544650D01*
X45064621Y14544650D02*
X45064621Y14925602D01*
X45112240Y13925602D02*
X45112240Y13592269D01*
X44588430Y13449412D02*
X44588430Y13925602D01*
X44588430Y13925602D02*
X45588430Y13925602D01*
X45588430Y13925602D02*
X45588430Y13449412D01*
X44588430Y12497031D02*
X44588430Y13068459D01*
X44588430Y12782745D02*
X45588430Y12782745D01*
X45588430Y12782745D02*
X45445573Y12877983D01*
X45445573Y12877983D02*
X45350335Y12973221D01*
X45350335Y12973221D02*
X45302716Y13068459D01*
X45588430Y12163697D02*
X45588430Y11544650D01*
X45588430Y11544650D02*
X45207478Y11877983D01*
X45207478Y11877983D02*
X45207478Y11735126D01*
X45207478Y11735126D02*
X45159859Y11639888D01*
X45159859Y11639888D02*
X45112240Y11592269D01*
X45112240Y11592269D02*
X45017002Y11544650D01*
X45017002Y11544650D02*
X44778907Y11544650D01*
X44778907Y11544650D02*
X44683669Y11592269D01*
X44683669Y11592269D02*
X44636050Y11639888D01*
X44636050Y11639888D02*
X44588430Y11735126D01*
X44588430Y11735126D02*
X44588430Y12020840D01*
X44588430Y12020840D02*
X44636050Y12116078D01*
X44636050Y12116078D02*
X44683669Y12163697D01*
X28780180Y60213221D02*
X29780180Y60213221D01*
X29780180Y60213221D02*
X29780180Y59832269D01*
X29780180Y59832269D02*
X29732561Y59737031D01*
X29732561Y59737031D02*
X29684942Y59689412D01*
X29684942Y59689412D02*
X29589704Y59641793D01*
X29589704Y59641793D02*
X29446847Y59641793D01*
X29446847Y59641793D02*
X29351609Y59689412D01*
X29351609Y59689412D02*
X29303990Y59737031D01*
X29303990Y59737031D02*
X29256371Y59832269D01*
X29256371Y59832269D02*
X29256371Y60213221D01*
X29732561Y58689412D02*
X29780180Y58784650D01*
X29780180Y58784650D02*
X29780180Y58927507D01*
X29780180Y58927507D02*
X29732561Y59070364D01*
X29732561Y59070364D02*
X29637323Y59165602D01*
X29637323Y59165602D02*
X29542085Y59213221D01*
X29542085Y59213221D02*
X29351609Y59260840D01*
X29351609Y59260840D02*
X29208752Y59260840D01*
X29208752Y59260840D02*
X29018276Y59213221D01*
X29018276Y59213221D02*
X28923038Y59165602D01*
X28923038Y59165602D02*
X28827800Y59070364D01*
X28827800Y59070364D02*
X28780180Y58927507D01*
X28780180Y58927507D02*
X28780180Y58832269D01*
X28780180Y58832269D02*
X28827800Y58689412D01*
X28827800Y58689412D02*
X28875419Y58641793D01*
X28875419Y58641793D02*
X29208752Y58641793D01*
X29208752Y58641793D02*
X29208752Y58832269D01*
X28780180Y57689412D02*
X28780180Y58260840D01*
X28780180Y57975126D02*
X29780180Y57975126D01*
X29780180Y57975126D02*
X29637323Y58070364D01*
X29637323Y58070364D02*
X29542085Y58165602D01*
X29542085Y58165602D02*
X29494466Y58260840D01*
X29446847Y56832269D02*
X28780180Y56832269D01*
X29827800Y57070364D02*
X29113514Y57308459D01*
X29113514Y57308459D02*
X29113514Y56689412D01*
D11*
X67337292Y68547258D02*
X67337292Y67690115D01*
X67337292Y67690115D02*
X67280149Y67518686D01*
X67280149Y67518686D02*
X67165863Y67404400D01*
X67165863Y67404400D02*
X66994435Y67347258D01*
X66994435Y67347258D02*
X66880149Y67347258D01*
X68594435Y67347258D02*
X68194435Y67918686D01*
X67908721Y67347258D02*
X67908721Y68547258D01*
X67908721Y68547258D02*
X68365864Y68547258D01*
X68365864Y68547258D02*
X68480149Y68490115D01*
X68480149Y68490115D02*
X68537292Y68432972D01*
X68537292Y68432972D02*
X68594435Y68318686D01*
X68594435Y68318686D02*
X68594435Y68147258D01*
X68594435Y68147258D02*
X68537292Y68032972D01*
X68537292Y68032972D02*
X68480149Y67975829D01*
X68480149Y67975829D02*
X68365864Y67918686D01*
X68365864Y67918686D02*
X67908721Y67918686D01*
X69794435Y67461543D02*
X69737292Y67404400D01*
X69737292Y67404400D02*
X69565864Y67347258D01*
X69565864Y67347258D02*
X69451578Y67347258D01*
X69451578Y67347258D02*
X69280149Y67404400D01*
X69280149Y67404400D02*
X69165864Y67518686D01*
X69165864Y67518686D02*
X69108721Y67632972D01*
X69108721Y67632972D02*
X69051578Y67861543D01*
X69051578Y67861543D02*
X69051578Y68032972D01*
X69051578Y68032972D02*
X69108721Y68261543D01*
X69108721Y68261543D02*
X69165864Y68375829D01*
X69165864Y68375829D02*
X69280149Y68490115D01*
X69280149Y68490115D02*
X69451578Y68547258D01*
X69451578Y68547258D02*
X69565864Y68547258D01*
X69565864Y68547258D02*
X69737292Y68490115D01*
X69737292Y68490115D02*
X69794435Y68432972D01*
X70880149Y67347258D02*
X70308721Y67347258D01*
X70308721Y67347258D02*
X70308721Y68547258D01*
X71280150Y67347258D02*
X71280150Y68547258D01*
X71965864Y67347258D02*
X71451578Y68032972D01*
X71965864Y68547258D02*
X71280150Y67861543D01*
D10*
X23710180Y50323221D02*
X24710180Y50323221D01*
X24710180Y50323221D02*
X24710180Y49942269D01*
X24710180Y49942269D02*
X24662561Y49847031D01*
X24662561Y49847031D02*
X24614942Y49799412D01*
X24614942Y49799412D02*
X24519704Y49751793D01*
X24519704Y49751793D02*
X24376847Y49751793D01*
X24376847Y49751793D02*
X24281609Y49799412D01*
X24281609Y49799412D02*
X24233990Y49847031D01*
X24233990Y49847031D02*
X24186371Y49942269D01*
X24186371Y49942269D02*
X24186371Y50323221D01*
X24233990Y48989888D02*
X24186371Y48847031D01*
X24186371Y48847031D02*
X24138752Y48799412D01*
X24138752Y48799412D02*
X24043514Y48751793D01*
X24043514Y48751793D02*
X23900657Y48751793D01*
X23900657Y48751793D02*
X23805419Y48799412D01*
X23805419Y48799412D02*
X23757800Y48847031D01*
X23757800Y48847031D02*
X23710180Y48942269D01*
X23710180Y48942269D02*
X23710180Y49323221D01*
X23710180Y49323221D02*
X24710180Y49323221D01*
X24710180Y49323221D02*
X24710180Y48989888D01*
X24710180Y48989888D02*
X24662561Y48894650D01*
X24662561Y48894650D02*
X24614942Y48847031D01*
X24614942Y48847031D02*
X24519704Y48799412D01*
X24519704Y48799412D02*
X24424466Y48799412D01*
X24424466Y48799412D02*
X24329228Y48847031D01*
X24329228Y48847031D02*
X24281609Y48894650D01*
X24281609Y48894650D02*
X24233990Y48989888D01*
X24233990Y48989888D02*
X24233990Y49323221D01*
X23710180Y48275602D02*
X23710180Y48085126D01*
X23710180Y48085126D02*
X23757800Y47989888D01*
X23757800Y47989888D02*
X23805419Y47942269D01*
X23805419Y47942269D02*
X23948276Y47847031D01*
X23948276Y47847031D02*
X24138752Y47799412D01*
X24138752Y47799412D02*
X24519704Y47799412D01*
X24519704Y47799412D02*
X24614942Y47847031D01*
X24614942Y47847031D02*
X24662561Y47894650D01*
X24662561Y47894650D02*
X24710180Y47989888D01*
X24710180Y47989888D02*
X24710180Y48180364D01*
X24710180Y48180364D02*
X24662561Y48275602D01*
X24662561Y48275602D02*
X24614942Y48323221D01*
X24614942Y48323221D02*
X24519704Y48370840D01*
X24519704Y48370840D02*
X24281609Y48370840D01*
X24281609Y48370840D02*
X24186371Y48323221D01*
X24186371Y48323221D02*
X24138752Y48275602D01*
X24138752Y48275602D02*
X24091133Y48180364D01*
X24091133Y48180364D02*
X24091133Y47989888D01*
X24091133Y47989888D02*
X24138752Y47894650D01*
X24138752Y47894650D02*
X24186371Y47847031D01*
X24186371Y47847031D02*
X24281609Y47799412D01*
X58436779Y37850181D02*
X58436779Y38850181D01*
X58436779Y38850181D02*
X58817731Y38850181D01*
X58817731Y38850181D02*
X58912969Y38802562D01*
X58912969Y38802562D02*
X58960588Y38754943D01*
X58960588Y38754943D02*
X59008207Y38659705D01*
X59008207Y38659705D02*
X59008207Y38516848D01*
X59008207Y38516848D02*
X58960588Y38421610D01*
X58960588Y38421610D02*
X58912969Y38373991D01*
X58912969Y38373991D02*
X58817731Y38326372D01*
X58817731Y38326372D02*
X58436779Y38326372D01*
X59389160Y38135896D02*
X59865350Y38135896D01*
X59293922Y37850181D02*
X59627255Y38850181D01*
X59627255Y38850181D02*
X59960588Y37850181D01*
X60817731Y37850181D02*
X60246303Y37850181D01*
X60532017Y37850181D02*
X60532017Y38850181D01*
X60532017Y38850181D02*
X60436779Y38707324D01*
X60436779Y38707324D02*
X60341541Y38612086D01*
X60341541Y38612086D02*
X60246303Y38564467D01*
X61436779Y38850181D02*
X61532017Y38850181D01*
X61532017Y38850181D02*
X61627255Y38802562D01*
X61627255Y38802562D02*
X61674874Y38754943D01*
X61674874Y38754943D02*
X61722493Y38659705D01*
X61722493Y38659705D02*
X61770112Y38469229D01*
X61770112Y38469229D02*
X61770112Y38231134D01*
X61770112Y38231134D02*
X61722493Y38040658D01*
X61722493Y38040658D02*
X61674874Y37945420D01*
X61674874Y37945420D02*
X61627255Y37897800D01*
X61627255Y37897800D02*
X61532017Y37850181D01*
X61532017Y37850181D02*
X61436779Y37850181D01*
X61436779Y37850181D02*
X61341541Y37897800D01*
X61341541Y37897800D02*
X61293922Y37945420D01*
X61293922Y37945420D02*
X61246303Y38040658D01*
X61246303Y38040658D02*
X61198684Y38231134D01*
X61198684Y38231134D02*
X61198684Y38469229D01*
X61198684Y38469229D02*
X61246303Y38659705D01*
X61246303Y38659705D02*
X61293922Y38754943D01*
X61293922Y38754943D02*
X61341541Y38802562D01*
X61341541Y38802562D02*
X61436779Y38850181D01*
X1481541Y20998431D02*
X1481541Y21998431D01*
X1481541Y21998431D02*
X1862493Y21998431D01*
X1862493Y21998431D02*
X1957731Y21950812D01*
X1957731Y21950812D02*
X2005350Y21903193D01*
X2005350Y21903193D02*
X2052969Y21807955D01*
X2052969Y21807955D02*
X2052969Y21665098D01*
X2052969Y21665098D02*
X2005350Y21569860D01*
X2005350Y21569860D02*
X1957731Y21522241D01*
X1957731Y21522241D02*
X1862493Y21474622D01*
X1862493Y21474622D02*
X1481541Y21474622D01*
X3052969Y21093670D02*
X3005350Y21046050D01*
X3005350Y21046050D02*
X2862493Y20998431D01*
X2862493Y20998431D02*
X2767255Y20998431D01*
X2767255Y20998431D02*
X2624398Y21046050D01*
X2624398Y21046050D02*
X2529160Y21141289D01*
X2529160Y21141289D02*
X2481541Y21236527D01*
X2481541Y21236527D02*
X2433922Y21427003D01*
X2433922Y21427003D02*
X2433922Y21569860D01*
X2433922Y21569860D02*
X2481541Y21760336D01*
X2481541Y21760336D02*
X2529160Y21855574D01*
X2529160Y21855574D02*
X2624398Y21950812D01*
X2624398Y21950812D02*
X2767255Y21998431D01*
X2767255Y21998431D02*
X2862493Y21998431D01*
X2862493Y21998431D02*
X3005350Y21950812D01*
X3005350Y21950812D02*
X3052969Y21903193D01*
X3386303Y21998431D02*
X4005350Y21998431D01*
X4005350Y21998431D02*
X3672017Y21617479D01*
X3672017Y21617479D02*
X3814874Y21617479D01*
X3814874Y21617479D02*
X3910112Y21569860D01*
X3910112Y21569860D02*
X3957731Y21522241D01*
X3957731Y21522241D02*
X4005350Y21427003D01*
X4005350Y21427003D02*
X4005350Y21188908D01*
X4005350Y21188908D02*
X3957731Y21093670D01*
X3957731Y21093670D02*
X3910112Y21046050D01*
X3910112Y21046050D02*
X3814874Y20998431D01*
X3814874Y20998431D02*
X3529160Y20998431D01*
X3529160Y20998431D02*
X3433922Y21046050D01*
X3433922Y21046050D02*
X3386303Y21093670D01*
X23728430Y59263221D02*
X24728430Y59263221D01*
X24728430Y59263221D02*
X24728430Y58882269D01*
X24728430Y58882269D02*
X24680811Y58787031D01*
X24680811Y58787031D02*
X24633192Y58739412D01*
X24633192Y58739412D02*
X24537954Y58691793D01*
X24537954Y58691793D02*
X24395097Y58691793D01*
X24395097Y58691793D02*
X24299859Y58739412D01*
X24299859Y58739412D02*
X24252240Y58787031D01*
X24252240Y58787031D02*
X24204621Y58882269D01*
X24204621Y58882269D02*
X24204621Y59263221D01*
X24252240Y57929888D02*
X24204621Y57787031D01*
X24204621Y57787031D02*
X24157002Y57739412D01*
X24157002Y57739412D02*
X24061764Y57691793D01*
X24061764Y57691793D02*
X23918907Y57691793D01*
X23918907Y57691793D02*
X23823669Y57739412D01*
X23823669Y57739412D02*
X23776050Y57787031D01*
X23776050Y57787031D02*
X23728430Y57882269D01*
X23728430Y57882269D02*
X23728430Y58263221D01*
X23728430Y58263221D02*
X24728430Y58263221D01*
X24728430Y58263221D02*
X24728430Y57929888D01*
X24728430Y57929888D02*
X24680811Y57834650D01*
X24680811Y57834650D02*
X24633192Y57787031D01*
X24633192Y57787031D02*
X24537954Y57739412D01*
X24537954Y57739412D02*
X24442716Y57739412D01*
X24442716Y57739412D02*
X24347478Y57787031D01*
X24347478Y57787031D02*
X24299859Y57834650D01*
X24299859Y57834650D02*
X24252240Y57929888D01*
X24252240Y57929888D02*
X24252240Y58263221D01*
X24299859Y57120364D02*
X24347478Y57215602D01*
X24347478Y57215602D02*
X24395097Y57263221D01*
X24395097Y57263221D02*
X24490335Y57310840D01*
X24490335Y57310840D02*
X24537954Y57310840D01*
X24537954Y57310840D02*
X24633192Y57263221D01*
X24633192Y57263221D02*
X24680811Y57215602D01*
X24680811Y57215602D02*
X24728430Y57120364D01*
X24728430Y57120364D02*
X24728430Y56929888D01*
X24728430Y56929888D02*
X24680811Y56834650D01*
X24680811Y56834650D02*
X24633192Y56787031D01*
X24633192Y56787031D02*
X24537954Y56739412D01*
X24537954Y56739412D02*
X24490335Y56739412D01*
X24490335Y56739412D02*
X24395097Y56787031D01*
X24395097Y56787031D02*
X24347478Y56834650D01*
X24347478Y56834650D02*
X24299859Y56929888D01*
X24299859Y56929888D02*
X24299859Y57120364D01*
X24299859Y57120364D02*
X24252240Y57215602D01*
X24252240Y57215602D02*
X24204621Y57263221D01*
X24204621Y57263221D02*
X24109383Y57310840D01*
X24109383Y57310840D02*
X23918907Y57310840D01*
X23918907Y57310840D02*
X23823669Y57263221D01*
X23823669Y57263221D02*
X23776050Y57215602D01*
X23776050Y57215602D02*
X23728430Y57120364D01*
X23728430Y57120364D02*
X23728430Y56929888D01*
X23728430Y56929888D02*
X23776050Y56834650D01*
X23776050Y56834650D02*
X23823669Y56787031D01*
X23823669Y56787031D02*
X23918907Y56739412D01*
X23918907Y56739412D02*
X24109383Y56739412D01*
X24109383Y56739412D02*
X24204621Y56787031D01*
X24204621Y56787031D02*
X24252240Y56834650D01*
X24252240Y56834650D02*
X24299859Y56929888D01*
D11*
X87300114Y18704137D02*
X87357257Y18818422D01*
X87357257Y18818422D02*
X87357257Y18989851D01*
X87357257Y18989851D02*
X87300114Y19161280D01*
X87300114Y19161280D02*
X87185828Y19275565D01*
X87185828Y19275565D02*
X87071542Y19332708D01*
X87071542Y19332708D02*
X86842971Y19389851D01*
X86842971Y19389851D02*
X86671542Y19389851D01*
X86671542Y19389851D02*
X86442971Y19332708D01*
X86442971Y19332708D02*
X86328685Y19275565D01*
X86328685Y19275565D02*
X86214400Y19161280D01*
X86214400Y19161280D02*
X86157257Y18989851D01*
X86157257Y18989851D02*
X86157257Y18875565D01*
X86157257Y18875565D02*
X86214400Y18704137D01*
X86214400Y18704137D02*
X86271542Y18646994D01*
X86271542Y18646994D02*
X86671542Y18646994D01*
X86671542Y18646994D02*
X86671542Y18875565D01*
X86157257Y18132708D02*
X87357257Y18132708D01*
X87357257Y18132708D02*
X86157257Y17446994D01*
X86157257Y17446994D02*
X87357257Y17446994D01*
X86157257Y16875565D02*
X87357257Y16875565D01*
X87357257Y16875565D02*
X87357257Y16589851D01*
X87357257Y16589851D02*
X87300114Y16418422D01*
X87300114Y16418422D02*
X87185828Y16304137D01*
X87185828Y16304137D02*
X87071542Y16246994D01*
X87071542Y16246994D02*
X86842971Y16189851D01*
X86842971Y16189851D02*
X86671542Y16189851D01*
X86671542Y16189851D02*
X86442971Y16246994D01*
X86442971Y16246994D02*
X86328685Y16304137D01*
X86328685Y16304137D02*
X86214400Y16418422D01*
X86214400Y16418422D02*
X86157257Y16589851D01*
X86157257Y16589851D02*
X86157257Y16875565D01*
D10*
X58336779Y14930181D02*
X58336779Y15930181D01*
X58336779Y15930181D02*
X58717731Y15930181D01*
X58717731Y15930181D02*
X58812969Y15882562D01*
X58812969Y15882562D02*
X58860588Y15834943D01*
X58860588Y15834943D02*
X58908207Y15739705D01*
X58908207Y15739705D02*
X58908207Y15596848D01*
X58908207Y15596848D02*
X58860588Y15501610D01*
X58860588Y15501610D02*
X58812969Y15453991D01*
X58812969Y15453991D02*
X58717731Y15406372D01*
X58717731Y15406372D02*
X58336779Y15406372D01*
X59336779Y14930181D02*
X59336779Y15930181D01*
X59336779Y15930181D02*
X59574874Y15930181D01*
X59574874Y15930181D02*
X59717731Y15882562D01*
X59717731Y15882562D02*
X59812969Y15787324D01*
X59812969Y15787324D02*
X59860588Y15692086D01*
X59860588Y15692086D02*
X59908207Y15501610D01*
X59908207Y15501610D02*
X59908207Y15358753D01*
X59908207Y15358753D02*
X59860588Y15168277D01*
X59860588Y15168277D02*
X59812969Y15073039D01*
X59812969Y15073039D02*
X59717731Y14977800D01*
X59717731Y14977800D02*
X59574874Y14930181D01*
X59574874Y14930181D02*
X59336779Y14930181D01*
X60860588Y14930181D02*
X60289160Y14930181D01*
X60574874Y14930181D02*
X60574874Y15930181D01*
X60574874Y15930181D02*
X60479636Y15787324D01*
X60479636Y15787324D02*
X60384398Y15692086D01*
X60384398Y15692086D02*
X60289160Y15644467D01*
X61812969Y14930181D02*
X61241541Y14930181D01*
X61527255Y14930181D02*
X61527255Y15930181D01*
X61527255Y15930181D02*
X61432017Y15787324D01*
X61432017Y15787324D02*
X61336779Y15692086D01*
X61336779Y15692086D02*
X61241541Y15644467D01*
X58336779Y9930181D02*
X58336779Y10930181D01*
X58336779Y10930181D02*
X58717731Y10930181D01*
X58717731Y10930181D02*
X58812969Y10882562D01*
X58812969Y10882562D02*
X58860588Y10834943D01*
X58860588Y10834943D02*
X58908207Y10739705D01*
X58908207Y10739705D02*
X58908207Y10596848D01*
X58908207Y10596848D02*
X58860588Y10501610D01*
X58860588Y10501610D02*
X58812969Y10453991D01*
X58812969Y10453991D02*
X58717731Y10406372D01*
X58717731Y10406372D02*
X58336779Y10406372D01*
X59670112Y10453991D02*
X59812969Y10406372D01*
X59812969Y10406372D02*
X59860588Y10358753D01*
X59860588Y10358753D02*
X59908207Y10263515D01*
X59908207Y10263515D02*
X59908207Y10120658D01*
X59908207Y10120658D02*
X59860588Y10025420D01*
X59860588Y10025420D02*
X59812969Y9977800D01*
X59812969Y9977800D02*
X59717731Y9930181D01*
X59717731Y9930181D02*
X59336779Y9930181D01*
X59336779Y9930181D02*
X59336779Y10930181D01*
X59336779Y10930181D02*
X59670112Y10930181D01*
X59670112Y10930181D02*
X59765350Y10882562D01*
X59765350Y10882562D02*
X59812969Y10834943D01*
X59812969Y10834943D02*
X59860588Y10739705D01*
X59860588Y10739705D02*
X59860588Y10644467D01*
X59860588Y10644467D02*
X59812969Y10549229D01*
X59812969Y10549229D02*
X59765350Y10501610D01*
X59765350Y10501610D02*
X59670112Y10453991D01*
X59670112Y10453991D02*
X59336779Y10453991D01*
X60860588Y9930181D02*
X60289160Y9930181D01*
X60574874Y9930181D02*
X60574874Y10930181D01*
X60574874Y10930181D02*
X60479636Y10787324D01*
X60479636Y10787324D02*
X60384398Y10692086D01*
X60384398Y10692086D02*
X60289160Y10644467D01*
X61765350Y10930181D02*
X61289160Y10930181D01*
X61289160Y10930181D02*
X61241541Y10453991D01*
X61241541Y10453991D02*
X61289160Y10501610D01*
X61289160Y10501610D02*
X61384398Y10549229D01*
X61384398Y10549229D02*
X61622493Y10549229D01*
X61622493Y10549229D02*
X61717731Y10501610D01*
X61717731Y10501610D02*
X61765350Y10453991D01*
X61765350Y10453991D02*
X61812969Y10358753D01*
X61812969Y10358753D02*
X61812969Y10120658D01*
X61812969Y10120658D02*
X61765350Y10025420D01*
X61765350Y10025420D02*
X61717731Y9977800D01*
X61717731Y9977800D02*
X61622493Y9930181D01*
X61622493Y9930181D02*
X61384398Y9930181D01*
X61384398Y9930181D02*
X61289160Y9977800D01*
X61289160Y9977800D02*
X61241541Y10025420D01*
X68236779Y17530181D02*
X68236779Y18530181D01*
X68236779Y18530181D02*
X68617731Y18530181D01*
X68617731Y18530181D02*
X68712969Y18482562D01*
X68712969Y18482562D02*
X68760588Y18434943D01*
X68760588Y18434943D02*
X68808207Y18339705D01*
X68808207Y18339705D02*
X68808207Y18196848D01*
X68808207Y18196848D02*
X68760588Y18101610D01*
X68760588Y18101610D02*
X68712969Y18053991D01*
X68712969Y18053991D02*
X68617731Y18006372D01*
X68617731Y18006372D02*
X68236779Y18006372D01*
X69236779Y17530181D02*
X69236779Y18530181D01*
X69236779Y18530181D02*
X69474874Y18530181D01*
X69474874Y18530181D02*
X69617731Y18482562D01*
X69617731Y18482562D02*
X69712969Y18387324D01*
X69712969Y18387324D02*
X69760588Y18292086D01*
X69760588Y18292086D02*
X69808207Y18101610D01*
X69808207Y18101610D02*
X69808207Y17958753D01*
X69808207Y17958753D02*
X69760588Y17768277D01*
X69760588Y17768277D02*
X69712969Y17673039D01*
X69712969Y17673039D02*
X69617731Y17577800D01*
X69617731Y17577800D02*
X69474874Y17530181D01*
X69474874Y17530181D02*
X69236779Y17530181D01*
X70760588Y17530181D02*
X70189160Y17530181D01*
X70474874Y17530181D02*
X70474874Y18530181D01*
X70474874Y18530181D02*
X70379636Y18387324D01*
X70379636Y18387324D02*
X70284398Y18292086D01*
X70284398Y18292086D02*
X70189160Y18244467D01*
X71141541Y18434943D02*
X71189160Y18482562D01*
X71189160Y18482562D02*
X71284398Y18530181D01*
X71284398Y18530181D02*
X71522493Y18530181D01*
X71522493Y18530181D02*
X71617731Y18482562D01*
X71617731Y18482562D02*
X71665350Y18434943D01*
X71665350Y18434943D02*
X71712969Y18339705D01*
X71712969Y18339705D02*
X71712969Y18244467D01*
X71712969Y18244467D02*
X71665350Y18101610D01*
X71665350Y18101610D02*
X71093922Y17530181D01*
X71093922Y17530181D02*
X71712969Y17530181D01*
D11*
X53428720Y8557258D02*
X52857292Y8557258D01*
X52857292Y8557258D02*
X52857292Y9757258D01*
X53828721Y9185829D02*
X54228721Y9185829D01*
X54400149Y8557258D02*
X53828721Y8557258D01*
X53828721Y8557258D02*
X53828721Y9757258D01*
X53828721Y9757258D02*
X54400149Y9757258D01*
X54914435Y8557258D02*
X54914435Y9757258D01*
X54914435Y9757258D02*
X55200149Y9757258D01*
X55200149Y9757258D02*
X55371578Y9700115D01*
X55371578Y9700115D02*
X55485863Y9585829D01*
X55485863Y9585829D02*
X55543006Y9471543D01*
X55543006Y9471543D02*
X55600149Y9242972D01*
X55600149Y9242972D02*
X55600149Y9071543D01*
X55600149Y9071543D02*
X55543006Y8842972D01*
X55543006Y8842972D02*
X55485863Y8728686D01*
X55485863Y8728686D02*
X55371578Y8614400D01*
X55371578Y8614400D02*
X55200149Y8557258D01*
X55200149Y8557258D02*
X54914435Y8557258D01*
X56000149Y9757258D02*
X56743006Y9757258D01*
X56743006Y9757258D02*
X56343006Y9300115D01*
X56343006Y9300115D02*
X56514435Y9300115D01*
X56514435Y9300115D02*
X56628721Y9242972D01*
X56628721Y9242972D02*
X56685863Y9185829D01*
X56685863Y9185829D02*
X56743006Y9071543D01*
X56743006Y9071543D02*
X56743006Y8785829D01*
X56743006Y8785829D02*
X56685863Y8671543D01*
X56685863Y8671543D02*
X56628721Y8614400D01*
X56628721Y8614400D02*
X56514435Y8557258D01*
X56514435Y8557258D02*
X56171578Y8557258D01*
X56171578Y8557258D02*
X56057292Y8614400D01*
X56057292Y8614400D02*
X56000149Y8671543D01*
D10*
X59236779Y32630181D02*
X59236779Y33630181D01*
X59236779Y33630181D02*
X59617731Y33630181D01*
X59617731Y33630181D02*
X59712969Y33582562D01*
X59712969Y33582562D02*
X59760588Y33534943D01*
X59760588Y33534943D02*
X59808207Y33439705D01*
X59808207Y33439705D02*
X59808207Y33296848D01*
X59808207Y33296848D02*
X59760588Y33201610D01*
X59760588Y33201610D02*
X59712969Y33153991D01*
X59712969Y33153991D02*
X59617731Y33106372D01*
X59617731Y33106372D02*
X59236779Y33106372D01*
X60808207Y32725420D02*
X60760588Y32677800D01*
X60760588Y32677800D02*
X60617731Y32630181D01*
X60617731Y32630181D02*
X60522493Y32630181D01*
X60522493Y32630181D02*
X60379636Y32677800D01*
X60379636Y32677800D02*
X60284398Y32773039D01*
X60284398Y32773039D02*
X60236779Y32868277D01*
X60236779Y32868277D02*
X60189160Y33058753D01*
X60189160Y33058753D02*
X60189160Y33201610D01*
X60189160Y33201610D02*
X60236779Y33392086D01*
X60236779Y33392086D02*
X60284398Y33487324D01*
X60284398Y33487324D02*
X60379636Y33582562D01*
X60379636Y33582562D02*
X60522493Y33630181D01*
X60522493Y33630181D02*
X60617731Y33630181D01*
X60617731Y33630181D02*
X60760588Y33582562D01*
X60760588Y33582562D02*
X60808207Y33534943D01*
X61379636Y33201610D02*
X61284398Y33249229D01*
X61284398Y33249229D02*
X61236779Y33296848D01*
X61236779Y33296848D02*
X61189160Y33392086D01*
X61189160Y33392086D02*
X61189160Y33439705D01*
X61189160Y33439705D02*
X61236779Y33534943D01*
X61236779Y33534943D02*
X61284398Y33582562D01*
X61284398Y33582562D02*
X61379636Y33630181D01*
X61379636Y33630181D02*
X61570112Y33630181D01*
X61570112Y33630181D02*
X61665350Y33582562D01*
X61665350Y33582562D02*
X61712969Y33534943D01*
X61712969Y33534943D02*
X61760588Y33439705D01*
X61760588Y33439705D02*
X61760588Y33392086D01*
X61760588Y33392086D02*
X61712969Y33296848D01*
X61712969Y33296848D02*
X61665350Y33249229D01*
X61665350Y33249229D02*
X61570112Y33201610D01*
X61570112Y33201610D02*
X61379636Y33201610D01*
X61379636Y33201610D02*
X61284398Y33153991D01*
X61284398Y33153991D02*
X61236779Y33106372D01*
X61236779Y33106372D02*
X61189160Y33011134D01*
X61189160Y33011134D02*
X61189160Y32820658D01*
X61189160Y32820658D02*
X61236779Y32725420D01*
X61236779Y32725420D02*
X61284398Y32677800D01*
X61284398Y32677800D02*
X61379636Y32630181D01*
X61379636Y32630181D02*
X61570112Y32630181D01*
X61570112Y32630181D02*
X61665350Y32677800D01*
X61665350Y32677800D02*
X61712969Y32725420D01*
X61712969Y32725420D02*
X61760588Y32820658D01*
X61760588Y32820658D02*
X61760588Y33011134D01*
X61760588Y33011134D02*
X61712969Y33106372D01*
X61712969Y33106372D02*
X61665350Y33153991D01*
X61665350Y33153991D02*
X61570112Y33201610D01*
X68236779Y32630181D02*
X68236779Y33630181D01*
X68236779Y33630181D02*
X68617731Y33630181D01*
X68617731Y33630181D02*
X68712969Y33582562D01*
X68712969Y33582562D02*
X68760588Y33534943D01*
X68760588Y33534943D02*
X68808207Y33439705D01*
X68808207Y33439705D02*
X68808207Y33296848D01*
X68808207Y33296848D02*
X68760588Y33201610D01*
X68760588Y33201610D02*
X68712969Y33153991D01*
X68712969Y33153991D02*
X68617731Y33106372D01*
X68617731Y33106372D02*
X68236779Y33106372D01*
X69808207Y32725420D02*
X69760588Y32677800D01*
X69760588Y32677800D02*
X69617731Y32630181D01*
X69617731Y32630181D02*
X69522493Y32630181D01*
X69522493Y32630181D02*
X69379636Y32677800D01*
X69379636Y32677800D02*
X69284398Y32773039D01*
X69284398Y32773039D02*
X69236779Y32868277D01*
X69236779Y32868277D02*
X69189160Y33058753D01*
X69189160Y33058753D02*
X69189160Y33201610D01*
X69189160Y33201610D02*
X69236779Y33392086D01*
X69236779Y33392086D02*
X69284398Y33487324D01*
X69284398Y33487324D02*
X69379636Y33582562D01*
X69379636Y33582562D02*
X69522493Y33630181D01*
X69522493Y33630181D02*
X69617731Y33630181D01*
X69617731Y33630181D02*
X69760588Y33582562D01*
X69760588Y33582562D02*
X69808207Y33534943D01*
X70141541Y33630181D02*
X70808207Y33630181D01*
X70808207Y33630181D02*
X70379636Y32630181D01*
X529160Y41318431D02*
X529160Y42318431D01*
X529160Y42318431D02*
X910112Y42318431D01*
X910112Y42318431D02*
X1005350Y42270812D01*
X1005350Y42270812D02*
X1052969Y42223193D01*
X1052969Y42223193D02*
X1100588Y42127955D01*
X1100588Y42127955D02*
X1100588Y41985098D01*
X1100588Y41985098D02*
X1052969Y41889860D01*
X1052969Y41889860D02*
X1005350Y41842241D01*
X1005350Y41842241D02*
X910112Y41794622D01*
X910112Y41794622D02*
X529160Y41794622D01*
X2100588Y41413670D02*
X2052969Y41366050D01*
X2052969Y41366050D02*
X1910112Y41318431D01*
X1910112Y41318431D02*
X1814874Y41318431D01*
X1814874Y41318431D02*
X1672017Y41366050D01*
X1672017Y41366050D02*
X1576779Y41461289D01*
X1576779Y41461289D02*
X1529160Y41556527D01*
X1529160Y41556527D02*
X1481541Y41747003D01*
X1481541Y41747003D02*
X1481541Y41889860D01*
X1481541Y41889860D02*
X1529160Y42080336D01*
X1529160Y42080336D02*
X1576779Y42175574D01*
X1576779Y42175574D02*
X1672017Y42270812D01*
X1672017Y42270812D02*
X1814874Y42318431D01*
X1814874Y42318431D02*
X1910112Y42318431D01*
X1910112Y42318431D02*
X2052969Y42270812D01*
X2052969Y42270812D02*
X2100588Y42223193D01*
X3052969Y41318431D02*
X2481541Y41318431D01*
X2767255Y41318431D02*
X2767255Y42318431D01*
X2767255Y42318431D02*
X2672017Y42175574D01*
X2672017Y42175574D02*
X2576779Y42080336D01*
X2576779Y42080336D02*
X2481541Y42032717D01*
X3957731Y42318431D02*
X3481541Y42318431D01*
X3481541Y42318431D02*
X3433922Y41842241D01*
X3433922Y41842241D02*
X3481541Y41889860D01*
X3481541Y41889860D02*
X3576779Y41937479D01*
X3576779Y41937479D02*
X3814874Y41937479D01*
X3814874Y41937479D02*
X3910112Y41889860D01*
X3910112Y41889860D02*
X3957731Y41842241D01*
X3957731Y41842241D02*
X4005350Y41747003D01*
X4005350Y41747003D02*
X4005350Y41508908D01*
X4005350Y41508908D02*
X3957731Y41413670D01*
X3957731Y41413670D02*
X3910112Y41366050D01*
X3910112Y41366050D02*
X3814874Y41318431D01*
X3814874Y41318431D02*
X3576779Y41318431D01*
X3576779Y41318431D02*
X3481541Y41366050D01*
X3481541Y41366050D02*
X3433922Y41413670D01*
X36940180Y14073221D02*
X37940180Y14073221D01*
X37940180Y14073221D02*
X37940180Y13692269D01*
X37940180Y13692269D02*
X37892561Y13597031D01*
X37892561Y13597031D02*
X37844942Y13549412D01*
X37844942Y13549412D02*
X37749704Y13501793D01*
X37749704Y13501793D02*
X37606847Y13501793D01*
X37606847Y13501793D02*
X37511609Y13549412D01*
X37511609Y13549412D02*
X37463990Y13597031D01*
X37463990Y13597031D02*
X37416371Y13692269D01*
X37416371Y13692269D02*
X37416371Y14073221D01*
X37892561Y12549412D02*
X37940180Y12644650D01*
X37940180Y12644650D02*
X37940180Y12787507D01*
X37940180Y12787507D02*
X37892561Y12930364D01*
X37892561Y12930364D02*
X37797323Y13025602D01*
X37797323Y13025602D02*
X37702085Y13073221D01*
X37702085Y13073221D02*
X37511609Y13120840D01*
X37511609Y13120840D02*
X37368752Y13120840D01*
X37368752Y13120840D02*
X37178276Y13073221D01*
X37178276Y13073221D02*
X37083038Y13025602D01*
X37083038Y13025602D02*
X36987800Y12930364D01*
X36987800Y12930364D02*
X36940180Y12787507D01*
X36940180Y12787507D02*
X36940180Y12692269D01*
X36940180Y12692269D02*
X36987800Y12549412D01*
X36987800Y12549412D02*
X37035419Y12501793D01*
X37035419Y12501793D02*
X37368752Y12501793D01*
X37368752Y12501793D02*
X37368752Y12692269D01*
X36940180Y11549412D02*
X36940180Y12120840D01*
X36940180Y11835126D02*
X37940180Y11835126D01*
X37940180Y11835126D02*
X37797323Y11930364D01*
X37797323Y11930364D02*
X37702085Y12025602D01*
X37702085Y12025602D02*
X37654466Y12120840D01*
X16648430Y5051793D02*
X17648430Y5051793D01*
X17648430Y5051793D02*
X17648430Y4670841D01*
X17648430Y4670841D02*
X17600811Y4575603D01*
X17600811Y4575603D02*
X17553192Y4527984D01*
X17553192Y4527984D02*
X17457954Y4480365D01*
X17457954Y4480365D02*
X17315097Y4480365D01*
X17315097Y4480365D02*
X17219859Y4527984D01*
X17219859Y4527984D02*
X17172240Y4575603D01*
X17172240Y4575603D02*
X17124621Y4670841D01*
X17124621Y4670841D02*
X17124621Y5051793D01*
X16934145Y4099412D02*
X16934145Y3623222D01*
X16648430Y4194650D02*
X17648430Y3861317D01*
X17648430Y3861317D02*
X16648430Y3527984D01*
X17648430Y3289888D02*
X17648430Y2670841D01*
X17648430Y2670841D02*
X17267478Y3004174D01*
X17267478Y3004174D02*
X17267478Y2861317D01*
X17267478Y2861317D02*
X17219859Y2766079D01*
X17219859Y2766079D02*
X17172240Y2718460D01*
X17172240Y2718460D02*
X17077002Y2670841D01*
X17077002Y2670841D02*
X16838907Y2670841D01*
X16838907Y2670841D02*
X16743669Y2718460D01*
X16743669Y2718460D02*
X16696050Y2766079D01*
X16696050Y2766079D02*
X16648430Y2861317D01*
X16648430Y2861317D02*
X16648430Y3147031D01*
X16648430Y3147031D02*
X16696050Y3242269D01*
X16696050Y3242269D02*
X16743669Y3289888D01*
D11*
X38940864Y67657258D02*
X38540864Y68228686D01*
X38255150Y67657258D02*
X38255150Y68857258D01*
X38255150Y68857258D02*
X38712293Y68857258D01*
X38712293Y68857258D02*
X38826578Y68800115D01*
X38826578Y68800115D02*
X38883721Y68742972D01*
X38883721Y68742972D02*
X38940864Y68628686D01*
X38940864Y68628686D02*
X38940864Y68457258D01*
X38940864Y68457258D02*
X38883721Y68342972D01*
X38883721Y68342972D02*
X38826578Y68285829D01*
X38826578Y68285829D02*
X38712293Y68228686D01*
X38712293Y68228686D02*
X38255150Y68228686D01*
X39455150Y68285829D02*
X39855150Y68285829D01*
X40026578Y67657258D02*
X39455150Y67657258D01*
X39455150Y67657258D02*
X39455150Y68857258D01*
X39455150Y68857258D02*
X40026578Y68857258D01*
X40483721Y67714400D02*
X40655150Y67657258D01*
X40655150Y67657258D02*
X40940864Y67657258D01*
X40940864Y67657258D02*
X41055150Y67714400D01*
X41055150Y67714400D02*
X41112292Y67771543D01*
X41112292Y67771543D02*
X41169435Y67885829D01*
X41169435Y67885829D02*
X41169435Y68000115D01*
X41169435Y68000115D02*
X41112292Y68114400D01*
X41112292Y68114400D02*
X41055150Y68171543D01*
X41055150Y68171543D02*
X40940864Y68228686D01*
X40940864Y68228686D02*
X40712292Y68285829D01*
X40712292Y68285829D02*
X40598007Y68342972D01*
X40598007Y68342972D02*
X40540864Y68400115D01*
X40540864Y68400115D02*
X40483721Y68514400D01*
X40483721Y68514400D02*
X40483721Y68628686D01*
X40483721Y68628686D02*
X40540864Y68742972D01*
X40540864Y68742972D02*
X40598007Y68800115D01*
X40598007Y68800115D02*
X40712292Y68857258D01*
X40712292Y68857258D02*
X40998007Y68857258D01*
X40998007Y68857258D02*
X41169435Y68800115D01*
X41683721Y68285829D02*
X42083721Y68285829D01*
X42255149Y67657258D02*
X41683721Y67657258D01*
X41683721Y67657258D02*
X41683721Y68857258D01*
X41683721Y68857258D02*
X42255149Y68857258D01*
X42598006Y68857258D02*
X43283721Y68857258D01*
X42940863Y67657258D02*
X42940863Y68857258D01*
D12*
%TO.C,J6*%
X62430000Y39640000D02*
X62430000Y6500000D01*
X62430000Y39640000D02*
X65030000Y39640000D01*
X62430000Y6500000D02*
X67630000Y6500000D01*
X65030000Y39640000D02*
X65030000Y37040000D01*
X65030000Y37040000D02*
X67630000Y37040000D01*
X66300000Y39640000D02*
X67630000Y39640000D01*
X67630000Y39640000D02*
X67630000Y38310000D01*
X67630000Y37040000D02*
X67630000Y6500000D01*
%TO.C,C20*%
X44845000Y17368748D02*
X44845000Y17891252D01*
X46315000Y17368748D02*
X46315000Y17891252D01*
%TO.C,R19*%
X72372936Y42865000D02*
X72827064Y42865000D01*
X72372936Y41395000D02*
X72827064Y41395000D01*
%TO.C,U2*%
X81022500Y36815000D02*
X81022500Y33055000D01*
X81022500Y33055000D02*
X82282500Y33055000D01*
X87842500Y36815000D02*
X87842500Y33055000D01*
X87842500Y33055000D02*
X86582500Y33055000D01*
X88072500Y37855000D02*
X87742500Y38095000D01*
X88072500Y38335000D01*
X88072500Y37855000D01*
G36*
X88072500Y37855000D02*
G01*
X87742500Y38095000D01*
X88072500Y38335000D01*
X88072500Y37855000D01*
G37*
%TO.C,C7*%
X48940000Y27642164D02*
X48940000Y27857836D01*
X49660000Y27642164D02*
X49660000Y27857836D01*
%TO.C,R7*%
X22306359Y28880000D02*
X22613641Y28880000D01*
X22306359Y28120000D02*
X22613641Y28120000D01*
%TO.C,C11*%
X27499664Y44070000D02*
X27715336Y44070000D01*
X27499664Y43350000D02*
X27715336Y43350000D01*
%TO.C,R11*%
X84420000Y43653641D02*
X84420000Y43346359D01*
X85180000Y43653641D02*
X85180000Y43346359D01*
%TO.C,C19*%
X49965000Y40211252D02*
X49965000Y39688748D01*
X51435000Y40211252D02*
X51435000Y39688748D01*
%TO.C,J2*%
X15570000Y66720000D02*
X16900000Y66720000D01*
X15570000Y65390000D02*
X15570000Y66720000D01*
X15570000Y64120000D02*
X15570000Y61520000D01*
X15570000Y64120000D02*
X18230000Y64120000D01*
X15570000Y61520000D02*
X18230000Y61520000D01*
X18230000Y64120000D02*
X18230000Y61520000D01*
%TO.C,R16*%
X77978641Y52410000D02*
X77671359Y52410000D01*
X77978641Y51650000D02*
X77671359Y51650000D01*
%TO.C,R14*%
X73727064Y58745000D02*
X73272936Y58745000D01*
X73727064Y57275000D02*
X73272936Y57275000D01*
%TO.C,C5*%
X40232164Y19135000D02*
X40447836Y19135000D01*
X40232164Y18415000D02*
X40447836Y18415000D01*
%TO.C,R5*%
X47753641Y64070000D02*
X47446359Y64070000D01*
X47753641Y63310000D02*
X47446359Y63310000D01*
%TO.C,R10*%
X63783641Y68080000D02*
X63476359Y68080000D01*
X63783641Y67320000D02*
X63476359Y67320000D01*
%TO.C,J11*%
X82670000Y21730000D02*
X82670000Y11510000D01*
X82670000Y21730000D02*
X85330000Y21730000D01*
X82670000Y11510000D02*
X85330000Y11510000D01*
X84000000Y24330000D02*
X85330000Y24330000D01*
X85330000Y24330000D02*
X85330000Y23000000D01*
X85330000Y21730000D02*
X85330000Y11510000D01*
%TO.C,R15*%
X77978641Y50910000D02*
X77671359Y50910000D01*
X77978641Y50150000D02*
X77671359Y50150000D01*
%TO.C,C22*%
X13310000Y25139420D02*
X13310000Y25420580D01*
X14330000Y25139420D02*
X14330000Y25420580D01*
%TO.C,R20*%
X16077936Y52135000D02*
X16532064Y52135000D01*
X16077936Y50665000D02*
X16532064Y50665000D01*
%TO.C,J9*%
X20330000Y56110000D02*
X20330000Y50910000D01*
X48330000Y53510000D02*
X48330000Y50910000D01*
X48330000Y50910000D02*
X20330000Y50910000D01*
X50930000Y56110000D02*
X20330000Y56110000D01*
X50930000Y56110000D02*
X50930000Y53510000D01*
X50930000Y53510000D02*
X48330000Y53510000D01*
X50930000Y52240000D02*
X50930000Y50910000D01*
X50930000Y50910000D02*
X49600000Y50910000D01*
%TO.C,C1*%
X24040000Y32357836D02*
X24040000Y32142164D01*
X24760000Y32357836D02*
X24760000Y32142164D01*
%TO.C,J7*%
X15790000Y10930000D02*
X17120000Y10930000D01*
X15790000Y9600000D02*
X15790000Y10930000D01*
X15790000Y8330000D02*
X18390000Y8330000D01*
X15790000Y5730000D02*
X15790000Y8330000D01*
X15790000Y5730000D02*
X51470000Y5730000D01*
X18390000Y10930000D02*
X51470000Y10930000D01*
X18390000Y8330000D02*
X18390000Y10930000D01*
X51470000Y5730000D02*
X51470000Y10930000D01*
%TO.C,C26*%
X87240000Y43422164D02*
X87240000Y43637836D01*
X87960000Y43422164D02*
X87960000Y43637836D01*
%TO.C,D3*%
X9280000Y16020000D02*
X9280000Y13335000D01*
X9280000Y13335000D02*
X11200000Y13335000D01*
X11200000Y13335000D02*
X11200000Y16020000D01*
%TO.C,R1*%
X21560000Y63206359D02*
X21560000Y63513641D01*
X22320000Y63206359D02*
X22320000Y63513641D01*
%TO.C,TP1*%
X71200000Y65160000D02*
G75*
G02*
X67800000Y65160000I-1700000J0D01*
G01*
X67800000Y65160000D02*
G75*
G02*
X71200000Y65160000I1700000J0D01*
G01*
%TO.C,R17*%
X54964564Y3895000D02*
X54510436Y3895000D01*
X54964564Y2425000D02*
X54510436Y2425000D01*
%TO.C,C13*%
X48940000Y33142164D02*
X48940000Y33357836D01*
X49660000Y33142164D02*
X49660000Y33357836D01*
%TO.C,J1*%
X23860000Y66720000D02*
X25190000Y66720000D01*
X23860000Y65390000D02*
X23860000Y66720000D01*
X23860000Y64120000D02*
X23860000Y61520000D01*
X23860000Y64120000D02*
X26520000Y64120000D01*
X23860000Y61520000D02*
X26520000Y61520000D01*
X26520000Y64120000D02*
X26520000Y61520000D01*
%TO.C,C2*%
X24040000Y27257836D02*
X24040000Y27042164D01*
X24760000Y27257836D02*
X24760000Y27042164D01*
%TO.C,U1*%
X26727500Y41360000D02*
X26727500Y40410000D01*
X26727500Y21140000D02*
X26727500Y22090000D01*
X27677500Y41360000D02*
X26727500Y41360000D01*
X27677500Y21140000D02*
X26727500Y21140000D01*
X45997500Y41360000D02*
X46947500Y41360000D01*
X45997500Y21140000D02*
X46947500Y21140000D01*
X46947500Y41360000D02*
X46947500Y40410000D01*
X46947500Y21140000D02*
X46947500Y22090000D01*
X26137500Y40410000D02*
X25797500Y40880000D01*
X26477500Y40880000D01*
X26137500Y40410000D01*
G36*
X26137500Y40410000D02*
G01*
X25797500Y40880000D01*
X26477500Y40880000D01*
X26137500Y40410000D01*
G37*
%TO.C,R2*%
X21560000Y66053641D02*
X21560000Y65746359D01*
X22320000Y66053641D02*
X22320000Y65746359D01*
%TO.C,J4*%
X73720000Y49275000D02*
X73720000Y44075000D01*
X76320000Y46675000D02*
X76320000Y44075000D01*
X76320000Y44075000D02*
X73720000Y44075000D01*
X78920000Y49275000D02*
X73720000Y49275000D01*
X78920000Y49275000D02*
X78920000Y46675000D01*
X78920000Y46675000D02*
X76320000Y46675000D01*
X78920000Y45405000D02*
X78920000Y44075000D01*
X78920000Y44075000D02*
X77590000Y44075000D01*
%TO.C,Y1*%
X16280000Y31530000D02*
X16280000Y25780000D01*
X16280000Y25780000D02*
X19880000Y25780000D01*
X19880000Y25780000D02*
X19880000Y31530000D01*
%TO.C,J8*%
X4630000Y50740000D02*
X4630000Y17600000D01*
X4630000Y50740000D02*
X7230000Y50740000D01*
X4630000Y17600000D02*
X9830000Y17600000D01*
X7230000Y50740000D02*
X7230000Y48140000D01*
X7230000Y48140000D02*
X9830000Y48140000D01*
X8500000Y50740000D02*
X9830000Y50740000D01*
X9830000Y50740000D02*
X9830000Y49410000D01*
X9830000Y48140000D02*
X9830000Y17600000D01*
%TO.C,D1*%
X76877500Y58745000D02*
X76877500Y57275000D01*
X76877500Y57275000D02*
X79162500Y57275000D01*
X79162500Y58745000D02*
X76877500Y58745000D01*
%TO.C,C17*%
X23010000Y25327836D02*
X23010000Y25112164D01*
X23730000Y25327836D02*
X23730000Y25112164D01*
%TO.C,C14*%
X23010000Y23182164D02*
X23010000Y23397836D01*
X23730000Y23182164D02*
X23730000Y23397836D01*
%TO.C,J5*%
X86135000Y55950000D02*
X84435000Y55950000D01*
X86135000Y46610000D02*
X84435000Y46610000D01*
%TO.C,R3*%
X13180000Y62493641D02*
X13180000Y62186359D01*
X13940000Y62493641D02*
X13940000Y62186359D01*
%TO.C,C10*%
X34947836Y44070000D02*
X34732164Y44070000D01*
X34947836Y43350000D02*
X34732164Y43350000D01*
%TO.C,C23*%
X13310000Y32370580D02*
X13310000Y32089420D01*
X14330000Y32370580D02*
X14330000Y32089420D01*
%TO.C,R9*%
X51636359Y68080000D02*
X51943641Y68080000D01*
X51636359Y67320000D02*
X51943641Y67320000D01*
%TO.C,D5*%
X14557500Y55740000D02*
X14557500Y53820000D01*
X14557500Y53820000D02*
X17242500Y53820000D01*
X17242500Y55740000D02*
X14557500Y55740000D01*
%TO.C,J3*%
X55855000Y68330000D02*
X55855000Y68395000D01*
X55855000Y59385000D02*
X55855000Y59450000D01*
X59385000Y68395000D02*
X55855000Y68395000D01*
X59385000Y68330000D02*
X59385000Y68395000D01*
X59385000Y59385000D02*
X55855000Y59385000D01*
X59385000Y59385000D02*
X59385000Y59450000D01*
X60710000Y59450000D02*
X59385000Y59450000D01*
%TO.C,C8*%
X48807836Y41360000D02*
X48592164Y41360000D01*
X48807836Y40640000D02*
X48592164Y40640000D01*
%TO.C,R8*%
X63783641Y66810000D02*
X63476359Y66810000D01*
X63783641Y66050000D02*
X63476359Y66050000D01*
%TO.C,SW1*%
X37245000Y67230000D02*
X43705000Y67230000D01*
X37245000Y67200000D02*
X37245000Y67230000D01*
X37245000Y65300000D02*
X37245000Y62700000D01*
X37245000Y60770000D02*
X37245000Y60800000D01*
X37245000Y60770000D02*
X43705000Y60770000D01*
X43705000Y67230000D02*
X43705000Y67200000D01*
X43705000Y65300000D02*
X43705000Y62700000D01*
X43705000Y60770000D02*
X43705000Y60800000D01*
%TO.C,C6*%
X47357836Y20840000D02*
X47142164Y20840000D01*
X47357836Y20120000D02*
X47142164Y20120000D01*
%TO.C,R6*%
X33173641Y66630000D02*
X32866359Y66630000D01*
X33173641Y65870000D02*
X32866359Y65870000D01*
%TO.C,C3*%
X28737164Y19135000D02*
X28952836Y19135000D01*
X28737164Y18415000D02*
X28952836Y18415000D01*
%TO.C,C16*%
X24030000Y25327836D02*
X24030000Y25112164D01*
X24750000Y25327836D02*
X24750000Y25112164D01*
%TO.C,C15*%
X24040000Y23182164D02*
X24040000Y23397836D01*
X24760000Y23182164D02*
X24760000Y23397836D01*
%TO.C,C24*%
X83697500Y28586252D02*
X83697500Y28063748D01*
X85167500Y28586252D02*
X85167500Y28063748D01*
%TO.C,C9*%
X39947836Y44070000D02*
X39732164Y44070000D01*
X39947836Y43350000D02*
X39732164Y43350000D01*
%TO.C,R12*%
X76920000Y54446359D02*
X76920000Y54753641D01*
X77680000Y54446359D02*
X77680000Y54753641D01*
%TO.C,C12*%
X23812164Y37860000D02*
X24027836Y37860000D01*
X23812164Y37140000D02*
X24027836Y37140000D01*
%TO.C,R4*%
X13180000Y66053641D02*
X13180000Y65746359D01*
X13940000Y66053641D02*
X13940000Y65746359D01*
%TO.C,D2*%
X53800000Y6100000D02*
X56485000Y6100000D01*
X56485000Y8020000D02*
X53800000Y8020000D01*
X56485000Y6100000D02*
X56485000Y8020000D01*
%TO.C,R18*%
X5427064Y12725000D02*
X4972936Y12725000D01*
X5427064Y11255000D02*
X4972936Y11255000D01*
%TO.C,C18*%
X22768748Y19710000D02*
X24191252Y19710000D01*
X22768748Y17890000D02*
X24191252Y17890000D01*
%TO.C,R13*%
X85820000Y43653641D02*
X85820000Y43346359D01*
X86580000Y43653641D02*
X86580000Y43346359D01*
%TO.C,C21*%
X47677836Y65440000D02*
X47462164Y65440000D01*
X47677836Y64720000D02*
X47462164Y64720000D01*
%TO.C,C4*%
X35232164Y19135000D02*
X35447836Y19135000D01*
X35232164Y18415000D02*
X35447836Y18415000D01*
%TO.C,D4*%
X66237500Y41170000D02*
X68922500Y41170000D01*
X68922500Y43090000D02*
X66237500Y43090000D01*
X68922500Y41170000D02*
X68922500Y43090000D01*
%TO.C,C25*%
X78353748Y42210000D02*
X79776252Y42210000D01*
X78353748Y40390000D02*
X79776252Y40390000D01*
%TO.C,J10*%
X73670000Y21730000D02*
X73670000Y11510000D01*
X73670000Y21730000D02*
X76330000Y21730000D01*
X73670000Y11510000D02*
X76330000Y11510000D01*
X75000000Y24330000D02*
X76330000Y24330000D01*
X76330000Y24330000D02*
X76330000Y23000000D01*
X76330000Y21730000D02*
X76330000Y11510000D01*
%TD*%
M02*
