%TF.GenerationSoftware,KiCad,Pcbnew,8.0.1*%
%TF.CreationDate,2024-03-16T09:18:20+01:00*%
%TF.ProjectId,pcb723,70636237-3233-42e6-9b69-6361645f7063,rev?*%
%TF.SameCoordinates,PX55d4a80PY68e7780*%
%TF.FileFunction,Soldermask,Bot*%
%TF.FilePolarity,Negative*%
%FSLAX46Y46*%
G04 Gerber Fmt 4.6, Leading zero omitted, Abs format (unit mm)*
G04 Created by KiCad (PCBNEW 8.0.1) date 2024-03-16 09:18:20*
%MOMM*%
%LPD*%
G01*
G04 APERTURE LIST*
%ADD10R,1.700000X1.700000*%
%ADD11O,1.700000X1.700000*%
%ADD12C,3.000000*%
%ADD13C,0.800000*%
%ADD14C,6.400000*%
%ADD15C,0.650000*%
%ADD16O,2.100000X1.000000*%
%ADD17O,1.800000X1.000000*%
G04 APERTURE END LIST*
D10*
%TO.C,J6*%
X66300000Y38310000D03*
D11*
X63760000Y38310000D03*
X66300000Y35770000D03*
X63760000Y35770000D03*
X66300000Y33230000D03*
X63760000Y33230000D03*
X66300000Y30690000D03*
X63760000Y30690000D03*
X66300000Y28150000D03*
X63760000Y28150000D03*
X66300000Y25610000D03*
X63760000Y25610000D03*
X66300000Y23070000D03*
X63760000Y23070000D03*
X66300000Y20530000D03*
X63760000Y20530000D03*
X66300000Y17990000D03*
X63760000Y17990000D03*
X66300000Y15450000D03*
X63760000Y15450000D03*
X66300000Y12910000D03*
X63760000Y12910000D03*
X66300000Y10370000D03*
X63760000Y10370000D03*
X66300000Y7830000D03*
X63760000Y7830000D03*
%TD*%
D10*
%TO.C,J2*%
X16900000Y65390000D03*
D11*
X16900000Y62850000D03*
%TD*%
D10*
%TO.C,J11*%
X84000000Y23000000D03*
D11*
X84000000Y20460000D03*
X84000000Y17920000D03*
X84000000Y15380000D03*
X84000000Y12840000D03*
%TD*%
D10*
%TO.C,J9*%
X49600000Y52240000D03*
D11*
X49600000Y54780000D03*
X47060000Y52240000D03*
X47060000Y54780000D03*
X44520000Y52240000D03*
X44520000Y54780000D03*
X41980000Y52240000D03*
X41980000Y54780000D03*
X39440000Y52240000D03*
X39440000Y54780000D03*
X36900000Y52240000D03*
X36900000Y54780000D03*
X34360000Y52240000D03*
X34360000Y54780000D03*
X31820000Y52240000D03*
X31820000Y54780000D03*
X29280000Y52240000D03*
X29280000Y54780000D03*
X26740000Y52240000D03*
X26740000Y54780000D03*
X24200000Y52240000D03*
X24200000Y54780000D03*
X21660000Y52240000D03*
X21660000Y54780000D03*
%TD*%
D10*
%TO.C,J7*%
X17120000Y9600000D03*
D11*
X17120000Y7060000D03*
X19660000Y9600000D03*
X19660000Y7060000D03*
X22200000Y9600000D03*
X22200000Y7060000D03*
X24740000Y9600000D03*
X24740000Y7060000D03*
X27280000Y9600000D03*
X27280000Y7060000D03*
X29820000Y9600000D03*
X29820000Y7060000D03*
X32360000Y9600000D03*
X32360000Y7060000D03*
X34900000Y9600000D03*
X34900000Y7060000D03*
X37440000Y9600000D03*
X37440000Y7060000D03*
X39980000Y9600000D03*
X39980000Y7060000D03*
X42520000Y9600000D03*
X42520000Y7060000D03*
X45060000Y9600000D03*
X45060000Y7060000D03*
X47600000Y9600000D03*
X47600000Y7060000D03*
X50140000Y9600000D03*
X50140000Y7060000D03*
%TD*%
D12*
%TO.C,TP1*%
X69500000Y65160000D03*
%TD*%
D10*
%TO.C,J1*%
X25190000Y65390000D03*
D11*
X25190000Y62850000D03*
%TD*%
D10*
%TO.C,J4*%
X77590000Y45405000D03*
D11*
X77590000Y47945000D03*
X75050000Y45405000D03*
X75050000Y47945000D03*
%TD*%
D13*
%TO.C,H3*%
X3600000Y6000000D03*
X4302944Y7697056D03*
X4302944Y4302944D03*
X6000000Y8400000D03*
D14*
X6000000Y6000000D03*
D13*
X6000000Y3600000D03*
X7697056Y7697056D03*
X7697056Y4302944D03*
X8400000Y6000000D03*
%TD*%
D10*
%TO.C,J8*%
X8500000Y49410000D03*
D11*
X5960000Y49410000D03*
X8500000Y46870000D03*
X5960000Y46870000D03*
X8500000Y44330000D03*
X5960000Y44330000D03*
X8500000Y41790000D03*
X5960000Y41790000D03*
X8500000Y39250000D03*
X5960000Y39250000D03*
X8500000Y36710000D03*
X5960000Y36710000D03*
X8500000Y34170000D03*
X5960000Y34170000D03*
X8500000Y31630000D03*
X5960000Y31630000D03*
X8500000Y29090000D03*
X5960000Y29090000D03*
X8500000Y26550000D03*
X5960000Y26550000D03*
X8500000Y24010000D03*
X5960000Y24010000D03*
X8500000Y21470000D03*
X5960000Y21470000D03*
X8500000Y18930000D03*
X5960000Y18930000D03*
%TD*%
D15*
%TO.C,J5*%
X83630000Y48390000D03*
X83630000Y54170000D03*
D16*
X83130000Y46960000D03*
D17*
X87310000Y46960000D03*
D16*
X83130000Y55600000D03*
D17*
X87310000Y55600000D03*
%TD*%
D13*
%TO.C,H2*%
X81600000Y64000000D03*
X82302944Y65697056D03*
X82302944Y62302944D03*
X84000000Y66400000D03*
D14*
X84000000Y64000000D03*
D13*
X84000000Y61600000D03*
X85697056Y65697056D03*
X85697056Y62302944D03*
X86400000Y64000000D03*
%TD*%
%TO.C,H1*%
X3600000Y64000000D03*
X4302944Y65697056D03*
X4302944Y62302944D03*
X6000000Y66400000D03*
D14*
X6000000Y64000000D03*
D13*
X6000000Y61600000D03*
X7697056Y65697056D03*
X7697056Y62302944D03*
X8400000Y64000000D03*
%TD*%
%TO.C,H4*%
X81600000Y6000000D03*
X82302944Y7697056D03*
X82302944Y4302944D03*
X84000000Y8400000D03*
D14*
X84000000Y6000000D03*
D13*
X84000000Y3600000D03*
X85697056Y7697056D03*
X85697056Y4302944D03*
X86400000Y6000000D03*
%TD*%
D10*
%TO.C,J10*%
X75000000Y23000000D03*
D11*
X75000000Y20460000D03*
X75000000Y17920000D03*
X75000000Y15380000D03*
X75000000Y12840000D03*
%TD*%
M02*
