M48
; DRILL file {KiCad 8.0.0} date 2024-03-05T15:16:38+0100
; FORMAT={-:-/ absolute / metric / decimal}
; #@! TF.CreationDate,2024-03-05T15:16:38+01:00
; #@! TF.GenerationSoftware,Kicad,Pcbnew,8.0.0
; #@! TF.FileFunction,MixedPlating,1,4
FMAT,2
METRIC
; #@! TA.AperFunction,Plated,PTH,ViaDrill
T1C0.300
; #@! TA.AperFunction,Plated,PTH,ComponentDrill
T2C0.500
; #@! TA.AperFunction,Plated,PTH,ComponentDrill
T3C0.600
; #@! TA.AperFunction,Plated,PTH,ComponentDrill
T4C1.000
; #@! TA.AperFunction,Plated,PTH,ComponentDrill
T5C2.000
; #@! TA.AperFunction,Plated,PTH,ComponentDrill
T6C3.200
; #@! TA.AperFunction,NonPlated,NPTH,ComponentDrill
T7C0.650
%
G90
G05
T1
X12.38Y-3.59
X13.56Y-9.22
X13.82Y-42.65
X14.19Y-47.21
X14.37Y-35.03
X17.31Y-20.97
X20.62Y-3.59
X20.83Y-6.13
X22.005Y-52.99
X22.39Y-44.3
X22.39Y-46.23
X22.39Y-47.19
X23.07Y-31.486
X23.39Y-37.27
X23.39Y-38.23
X23.49Y-42.37
X23.516Y-43.386
X23.97Y-31.46
X24.955Y-52.96
X26.12Y-26.29
X27.35Y-51.225
X27.67Y-45.0
X27.67Y-46.5
X27.73Y-37.83
X27.81Y-40.78
X27.98Y-30.92
X28.084Y-31.814
X28.087Y-25.27
X28.099Y-32.714
X28.266Y-40.004
X28.272Y-42.243
X28.38Y-47.67
X28.55Y-35.155
X28.587Y-29.8
X28.72Y-37.43
X28.809Y-39.286
X28.993Y-43.0
X29.04Y-36.13
X29.18Y-44.69
X29.325Y-52.19
X29.587Y-47.87
X29.9Y-41.4
X31.253Y-29.575
X31.34Y-3.75
X31.35Y-26.3
X32.15Y-29.65
X33.05Y-29.65
X34.087Y-29.64
X34.36Y-25.27
X34.587Y-47.87
X34.86Y-52.28
X35.32Y-25.27
X35.587Y-29.64
X35.82Y-52.28
X36.087Y-47.87
X39.087Y-29.64
X39.36Y-25.27
X39.587Y-47.87
X39.86Y-52.28
X40.32Y-25.27
X40.59Y-29.64
X40.82Y-52.28
X41.087Y-47.87
X44.587Y-47.87
X45.0Y-36.0
X45.0Y-37.5
X45.95Y-41.5
X45.95Y-43.0
X46.77Y-50.5
X47.22Y-53.32
X47.73Y-50.6
X48.8Y-28.1
X49.18Y-4.92
X49.19Y-6.31
X49.7Y-2.85
X49.7Y-28.1
X50.46Y-36.27
X50.46Y-37.23
X50.46Y-41.77
X50.46Y-42.73
X50.7Y-27.9
X51.44Y-66.84
X52.2Y-3.57
X53.2Y-6.11
X59.85Y-13.85
X59.85Y-15.9
X62.87Y-8.65
X65.35Y-2.3
X65.35Y-3.57
X70.41Y-11.99
X73.6Y-30.4
X77.3Y-13.8
X79.5Y-16.32
X80.623Y-11.99
X80.8Y-15.47
X80.8Y-21.97
X82.7Y-40.1
X82.7Y-41.2
X82.8Y-42.625
X84.432Y-44.0
X84.8Y-28.1
X86.1Y-42.625
X86.2Y-28.1
X86.2Y-40.1
X86.2Y-41.2
X87.6Y-28.1
T2
X3.6Y-6.0
X3.6Y-64.0
X4.303Y-4.303
X4.303Y-7.697
X4.303Y-62.303
X4.303Y-65.697
X6.0Y-3.6
X6.0Y-8.4
X6.0Y-61.6
X6.0Y-66.4
X7.697Y-4.303
X7.697Y-7.697
X7.697Y-62.303
X7.697Y-65.697
X8.4Y-6.0
X8.4Y-64.0
X81.6Y-6.0
X81.6Y-64.0
X82.303Y-4.303
X82.303Y-7.697
X82.303Y-62.303
X82.303Y-65.697
X84.0Y-3.6
X84.0Y-8.4
X84.0Y-61.6
X84.0Y-66.4
X85.697Y-4.303
X85.697Y-7.697
X85.697Y-62.303
X85.697Y-65.697
X86.4Y-6.0
X86.4Y-64.0
T4
X5.96Y-20.59
X5.96Y-23.13
X5.96Y-25.67
X5.96Y-28.21
X5.96Y-30.75
X5.96Y-33.29
X5.96Y-35.83
X5.96Y-38.37
X5.96Y-40.91
X5.96Y-43.45
X5.96Y-45.99
X5.96Y-48.53
X5.96Y-51.07
X8.5Y-20.59
X8.5Y-23.13
X8.5Y-25.67
X8.5Y-28.21
X8.5Y-30.75
X8.5Y-33.29
X8.5Y-35.83
X8.5Y-38.37
X8.5Y-40.91
X8.5Y-43.45
X8.5Y-45.99
X8.5Y-48.53
X8.5Y-51.07
X16.9Y-4.61
X16.9Y-7.15
X17.12Y-60.4
X17.12Y-62.94
X19.66Y-60.4
X19.66Y-62.94
X21.66Y-15.22
X21.66Y-17.76
X22.2Y-60.4
X22.2Y-62.94
X24.2Y-15.22
X24.2Y-17.76
X24.74Y-60.4
X24.74Y-62.94
X25.19Y-4.61
X25.19Y-7.15
X26.74Y-15.22
X26.74Y-17.76
X27.28Y-60.4
X27.28Y-62.94
X29.28Y-15.22
X29.28Y-17.76
X29.82Y-60.4
X29.82Y-62.94
X31.82Y-15.22
X31.82Y-17.76
X32.36Y-60.4
X32.36Y-62.94
X34.36Y-15.22
X34.36Y-17.76
X34.9Y-60.4
X34.9Y-62.94
X36.9Y-15.22
X36.9Y-17.76
X37.44Y-60.4
X37.44Y-62.94
X39.44Y-15.22
X39.44Y-17.76
X39.98Y-60.4
X39.98Y-62.94
X41.98Y-15.22
X41.98Y-17.76
X42.52Y-60.4
X42.52Y-62.94
X44.52Y-15.22
X44.52Y-17.76
X45.06Y-60.4
X45.06Y-62.94
X47.06Y-15.22
X47.06Y-17.76
X47.6Y-60.4
X47.6Y-62.94
X49.6Y-15.22
X49.6Y-17.76
X50.14Y-60.4
X50.14Y-62.94
X63.76Y-31.69
X63.76Y-34.23
X63.76Y-36.77
X63.76Y-39.31
X63.76Y-41.85
X63.76Y-44.39
X63.76Y-46.93
X63.76Y-49.47
X63.76Y-52.01
X63.76Y-54.55
X63.76Y-57.09
X63.76Y-59.63
X63.76Y-62.17
X66.3Y-31.69
X66.3Y-34.23
X66.3Y-36.77
X66.3Y-39.31
X66.3Y-41.85
X66.3Y-44.39
X66.3Y-46.93
X66.3Y-49.47
X66.3Y-52.01
X66.3Y-54.55
X66.3Y-57.09
X66.3Y-59.63
X66.3Y-62.17
X75.0Y-47.0
X75.0Y-49.54
X75.0Y-52.08
X75.0Y-54.62
X75.0Y-57.16
X75.05Y-22.055
X75.05Y-24.595
X77.59Y-22.055
X77.59Y-24.595
X84.0Y-47.0
X84.0Y-49.54
X84.0Y-52.08
X84.0Y-54.62
X84.0Y-57.16
T5
X69.5Y-4.84
T6
X6.0Y-6.0
X6.0Y-64.0
X84.0Y-6.0
X84.0Y-64.0
T7
X83.63Y-15.83
X83.63Y-21.61
T3
G00X82.58Y-14.4
M15
G01X83.68Y-14.4
M16
G05
G00X82.58Y-23.04
M15
G01X83.68Y-23.04
M16
G05
G00X86.91Y-14.4
M15
G01X87.71Y-14.4
M16
G05
G00X86.91Y-23.04
M15
G01X87.71Y-23.04
M16
G05
M30
