%TF.GenerationSoftware,KiCad,Pcbnew,8.0.0*%
%TF.CreationDate,2024-03-05T15:16:53+01:00*%
%TF.ProjectId,pcb723,70636237-3233-42e6-9b69-6361645f7063,rev?*%
%TF.SameCoordinates,PX55d4a80PY2625a00*%
%TF.FileFunction,Paste,Top*%
%TF.FilePolarity,Positive*%
%FSLAX46Y46*%
G04 Gerber Fmt 4.6, Leading zero omitted, Abs format (unit mm)*
G04 Created by KiCad (PCBNEW 8.0.0) date 2024-03-05 15:16:53*
%MOMM*%
%LPD*%
G01*
G04 APERTURE LIST*
G04 Aperture macros list*
%AMRoundRect*
0 Rectangle with rounded corners*
0 $1 Rounding radius*
0 $2 $3 $4 $5 $6 $7 $8 $9 X,Y pos of 4 corners*
0 Add a 4 corners polygon primitive as box body*
4,1,4,$2,$3,$4,$5,$6,$7,$8,$9,$2,$3,0*
0 Add four circle primitives for the rounded corners*
1,1,$1+$1,$2,$3*
1,1,$1+$1,$4,$5*
1,1,$1+$1,$6,$7*
1,1,$1+$1,$8,$9*
0 Add four rect primitives between the rounded corners*
20,1,$1+$1,$2,$3,$4,$5,0*
20,1,$1+$1,$4,$5,$6,$7,0*
20,1,$1+$1,$6,$7,$8,$9,0*
20,1,$1+$1,$8,$9,$2,$3,0*%
G04 Aperture macros list end*
%ADD10RoundRect,0.250000X-0.350000X-0.450000X0.350000X-0.450000X0.350000X0.450000X-0.350000X0.450000X0*%
%ADD11RoundRect,0.250000X0.350000X0.450000X-0.350000X0.450000X-0.350000X-0.450000X0.350000X-0.450000X0*%
%ADD12RoundRect,0.250000X0.325000X0.650000X-0.325000X0.650000X-0.325000X-0.650000X0.325000X-0.650000X0*%
%ADD13RoundRect,0.250000X-0.325000X-0.650000X0.325000X-0.650000X0.325000X0.650000X-0.325000X0.650000X0*%
%ADD14RoundRect,0.250000X0.475000X-0.250000X0.475000X0.250000X-0.475000X0.250000X-0.475000X-0.250000X0*%
%ADD15RoundRect,0.375000X-0.375000X0.625000X-0.375000X-0.625000X0.375000X-0.625000X0.375000X0.625000X0*%
%ADD16RoundRect,0.500000X-1.400000X0.500000X-1.400000X-0.500000X1.400000X-0.500000X1.400000X0.500000X0*%
%ADD17RoundRect,0.140000X0.170000X-0.140000X0.170000X0.140000X-0.170000X0.140000X-0.170000X-0.140000X0*%
%ADD18RoundRect,0.135000X-0.135000X-0.185000X0.135000X-0.185000X0.135000X0.185000X-0.135000X0.185000X0*%
%ADD19RoundRect,0.140000X-0.140000X-0.170000X0.140000X-0.170000X0.140000X0.170000X-0.140000X0.170000X0*%
%ADD20RoundRect,0.135000X-0.185000X0.135000X-0.185000X-0.135000X0.185000X-0.135000X0.185000X0.135000X0*%
%ADD21RoundRect,0.250000X-0.475000X0.250000X-0.475000X-0.250000X0.475000X-0.250000X0.475000X0.250000X0*%
%ADD22RoundRect,0.135000X0.135000X0.185000X-0.135000X0.185000X-0.135000X-0.185000X0.135000X-0.185000X0*%
%ADD23RoundRect,0.225000X0.250000X-0.225000X0.250000X0.225000X-0.250000X0.225000X-0.250000X-0.225000X0*%
%ADD24RoundRect,0.140000X-0.170000X0.140000X-0.170000X-0.140000X0.170000X-0.140000X0.170000X0.140000X0*%
%ADD25RoundRect,0.243750X0.456250X-0.243750X0.456250X0.243750X-0.456250X0.243750X-0.456250X-0.243750X0*%
%ADD26RoundRect,0.135000X0.185000X-0.135000X0.185000X0.135000X-0.185000X0.135000X-0.185000X-0.135000X0*%
%ADD27RoundRect,0.075000X-0.662500X-0.075000X0.662500X-0.075000X0.662500X0.075000X-0.662500X0.075000X0*%
%ADD28RoundRect,0.075000X-0.075000X-0.662500X0.075000X-0.662500X0.075000X0.662500X-0.075000X0.662500X0*%
%ADD29R,2.400000X2.000000*%
%ADD30RoundRect,0.218750X-0.218750X-0.256250X0.218750X-0.256250X0.218750X0.256250X-0.218750X0.256250X0*%
%ADD31RoundRect,0.150000X0.377500X-0.150000X0.377500X0.150000X-0.377500X0.150000X-0.377500X-0.150000X0*%
%ADD32RoundRect,0.150000X0.425000X-0.150000X0.425000X0.150000X-0.425000X0.150000X-0.425000X-0.150000X0*%
%ADD33RoundRect,0.075000X0.500000X-0.075000X0.500000X0.075000X-0.500000X0.075000X-0.500000X-0.075000X0*%
%ADD34O,2.100000X1.000000*%
%ADD35O,1.800000X1.000000*%
%ADD36RoundRect,0.140000X0.140000X0.170000X-0.140000X0.170000X-0.140000X-0.170000X0.140000X-0.170000X0*%
%ADD37RoundRect,0.225000X-0.250000X0.225000X-0.250000X-0.225000X0.250000X-0.225000X0.250000X0.225000X0*%
%ADD38RoundRect,0.243750X-0.243750X-0.456250X0.243750X-0.456250X0.243750X0.456250X-0.243750X0.456250X0*%
%ADD39R,2.400000X0.740000*%
%ADD40R,1.550000X1.300000*%
%ADD41RoundRect,0.243750X0.243750X0.456250X-0.243750X0.456250X-0.243750X-0.456250X0.243750X-0.456250X0*%
G04 APERTURE END LIST*
D10*
%TO.C,R19*%
X71600000Y-27870000D03*
X73600000Y-27870000D03*
%TD*%
D11*
%TO.C,R18*%
X6080000Y-58010000D03*
X4080000Y-58010000D03*
%TD*%
D12*
%TO.C,C18*%
X24955000Y-51280000D03*
X22005000Y-51280000D03*
%TD*%
D13*
%TO.C,C25*%
X77590000Y-29285000D03*
X80540000Y-29285000D03*
%TD*%
D11*
%TO.C,R17*%
X55737500Y-66840000D03*
X53737500Y-66840000D03*
%TD*%
D10*
%TO.C,R20*%
X15305000Y-19160000D03*
X17305000Y-19160000D03*
%TD*%
D11*
%TO.C,R14*%
X74200000Y-11990000D03*
X72200000Y-11990000D03*
%TD*%
D14*
%TO.C,C20*%
X45580000Y-53320000D03*
X45580000Y-51420000D03*
%TD*%
D15*
%TO.C,U2*%
X86732500Y-31885000D03*
X84432500Y-31885000D03*
D16*
X84432500Y-38185000D03*
D15*
X82132500Y-31885000D03*
%TD*%
D17*
%TO.C,C7*%
X49300000Y-42730000D03*
X49300000Y-41770000D03*
%TD*%
D18*
%TO.C,R7*%
X21950000Y-41500000D03*
X22970000Y-41500000D03*
%TD*%
D19*
%TO.C,C11*%
X27127500Y-26290000D03*
X28087500Y-26290000D03*
%TD*%
D20*
%TO.C,R11*%
X84800000Y-25990000D03*
X84800000Y-27010000D03*
%TD*%
D21*
%TO.C,C19*%
X50700000Y-29100000D03*
X50700000Y-31000000D03*
%TD*%
D22*
%TO.C,R16*%
X78335000Y-17970000D03*
X77315000Y-17970000D03*
%TD*%
D19*
%TO.C,C5*%
X39860000Y-51225000D03*
X40820000Y-51225000D03*
%TD*%
D22*
%TO.C,R5*%
X48110000Y-6310000D03*
X47090000Y-6310000D03*
%TD*%
%TO.C,R10*%
X64140000Y-2300000D03*
X63120000Y-2300000D03*
%TD*%
%TO.C,R15*%
X78335000Y-19470000D03*
X77315000Y-19470000D03*
%TD*%
D23*
%TO.C,C22*%
X13820000Y-45495000D03*
X13820000Y-43945000D03*
%TD*%
D24*
%TO.C,C1*%
X24400000Y-37270000D03*
X24400000Y-38230000D03*
%TD*%
D17*
%TO.C,C26*%
X87600000Y-26950000D03*
X87600000Y-25990000D03*
%TD*%
D25*
%TO.C,D3*%
X10240000Y-55917500D03*
X10240000Y-54042500D03*
%TD*%
D26*
%TO.C,R1*%
X21940000Y-7150000D03*
X21940000Y-6130000D03*
%TD*%
D17*
%TO.C,C13*%
X49300000Y-37230000D03*
X49300000Y-36270000D03*
%TD*%
D24*
%TO.C,C2*%
X24400000Y-42370000D03*
X24400000Y-43330000D03*
%TD*%
D27*
%TO.C,U1*%
X26175000Y-30000000D03*
X26175000Y-30500000D03*
X26175000Y-31000000D03*
X26175000Y-31500000D03*
X26175000Y-32000000D03*
X26175000Y-32500000D03*
X26175000Y-33000000D03*
X26175000Y-33500000D03*
X26175000Y-34000000D03*
X26175000Y-34500000D03*
X26175000Y-35000000D03*
X26175000Y-35500000D03*
X26175000Y-36000000D03*
X26175000Y-36500000D03*
X26175000Y-37000000D03*
X26175000Y-37500000D03*
X26175000Y-38000000D03*
X26175000Y-38500000D03*
X26175000Y-39000000D03*
X26175000Y-39500000D03*
X26175000Y-40000000D03*
X26175000Y-40500000D03*
X26175000Y-41000000D03*
X26175000Y-41500000D03*
X26175000Y-42000000D03*
X26175000Y-42500000D03*
X26175000Y-43000000D03*
X26175000Y-43500000D03*
X26175000Y-44000000D03*
X26175000Y-44500000D03*
X26175000Y-45000000D03*
X26175000Y-45500000D03*
X26175000Y-46000000D03*
X26175000Y-46500000D03*
X26175000Y-47000000D03*
X26175000Y-47500000D03*
D28*
X28087500Y-49412500D03*
X28587500Y-49412500D03*
X29087500Y-49412500D03*
X29587500Y-49412500D03*
X30087500Y-49412500D03*
X30587500Y-49412500D03*
X31087500Y-49412500D03*
X31587500Y-49412500D03*
X32087500Y-49412500D03*
X32587500Y-49412500D03*
X33087500Y-49412500D03*
X33587500Y-49412500D03*
X34087500Y-49412500D03*
X34587500Y-49412500D03*
X35087500Y-49412500D03*
X35587500Y-49412500D03*
X36087500Y-49412500D03*
X36587500Y-49412500D03*
X37087500Y-49412500D03*
X37587500Y-49412500D03*
X38087500Y-49412500D03*
X38587500Y-49412500D03*
X39087500Y-49412500D03*
X39587500Y-49412500D03*
X40087500Y-49412500D03*
X40587500Y-49412500D03*
X41087500Y-49412500D03*
X41587500Y-49412500D03*
X42087500Y-49412500D03*
X42587500Y-49412500D03*
X43087500Y-49412500D03*
X43587500Y-49412500D03*
X44087500Y-49412500D03*
X44587500Y-49412500D03*
X45087500Y-49412500D03*
X45587500Y-49412500D03*
D27*
X47500000Y-47500000D03*
X47500000Y-47000000D03*
X47500000Y-46500000D03*
X47500000Y-46000000D03*
X47500000Y-45500000D03*
X47500000Y-45000000D03*
X47500000Y-44500000D03*
X47500000Y-44000000D03*
X47500000Y-43500000D03*
X47500000Y-43000000D03*
X47500000Y-42500000D03*
X47500000Y-42000000D03*
X47500000Y-41500000D03*
X47500000Y-41000000D03*
X47500000Y-40500000D03*
X47500000Y-40000000D03*
X47500000Y-39500000D03*
X47500000Y-39000000D03*
X47500000Y-38500000D03*
X47500000Y-38000000D03*
X47500000Y-37500000D03*
X47500000Y-37000000D03*
X47500000Y-36500000D03*
X47500000Y-36000000D03*
X47500000Y-35500000D03*
X47500000Y-35000000D03*
X47500000Y-34500000D03*
X47500000Y-34000000D03*
X47500000Y-33500000D03*
X47500000Y-33000000D03*
X47500000Y-32500000D03*
X47500000Y-32000000D03*
X47500000Y-31500000D03*
X47500000Y-31000000D03*
X47500000Y-30500000D03*
X47500000Y-30000000D03*
D28*
X45587500Y-28087500D03*
X45087500Y-28087500D03*
X44587500Y-28087500D03*
X44087500Y-28087500D03*
X43587500Y-28087500D03*
X43087500Y-28087500D03*
X42587500Y-28087500D03*
X42087500Y-28087500D03*
X41587500Y-28087500D03*
X41087500Y-28087500D03*
X40587500Y-28087500D03*
X40087500Y-28087500D03*
X39587500Y-28087500D03*
X39087500Y-28087500D03*
X38587500Y-28087500D03*
X38087500Y-28087500D03*
X37587500Y-28087500D03*
X37087500Y-28087500D03*
X36587500Y-28087500D03*
X36087500Y-28087500D03*
X35587500Y-28087500D03*
X35087500Y-28087500D03*
X34587500Y-28087500D03*
X34087500Y-28087500D03*
X33587500Y-28087500D03*
X33087500Y-28087500D03*
X32587500Y-28087500D03*
X32087500Y-28087500D03*
X31587500Y-28087500D03*
X31087500Y-28087500D03*
X30587500Y-28087500D03*
X30087500Y-28087500D03*
X29587500Y-28087500D03*
X29087500Y-28087500D03*
X28587500Y-28087500D03*
X28087500Y-28087500D03*
%TD*%
D20*
%TO.C,R2*%
X21940000Y-3590000D03*
X21940000Y-4610000D03*
%TD*%
D29*
%TO.C,Y1*%
X18080000Y-43020000D03*
X18080000Y-39320000D03*
%TD*%
D30*
%TO.C,D1*%
X77575000Y-11990000D03*
X79150000Y-11990000D03*
%TD*%
D24*
%TO.C,C17*%
X23370000Y-44300000D03*
X23370000Y-45260000D03*
%TD*%
D17*
%TO.C,C14*%
X23370000Y-47190000D03*
X23370000Y-46230000D03*
%TD*%
D31*
%TO.C,J5*%
X82507500Y-21920000D03*
D32*
X82555000Y-21120000D03*
D33*
X82555000Y-19970000D03*
X82555000Y-18970000D03*
X82555000Y-18470000D03*
X82555000Y-17470000D03*
D32*
X82555000Y-16320000D03*
D31*
X82507500Y-15520000D03*
X82507500Y-15520000D03*
D32*
X82555000Y-16320000D03*
D33*
X82555000Y-16970000D03*
X82555000Y-17970000D03*
X82555000Y-19470000D03*
X82555000Y-20470000D03*
D32*
X82555000Y-21120000D03*
D31*
X82507500Y-21920000D03*
D34*
X83130000Y-23040000D03*
D35*
X87310000Y-23040000D03*
D34*
X83130000Y-14400000D03*
D35*
X87310000Y-14400000D03*
%TD*%
D20*
%TO.C,R3*%
X13560000Y-7150000D03*
X13560000Y-8170000D03*
%TD*%
D36*
%TO.C,C10*%
X35320000Y-26290000D03*
X34360000Y-26290000D03*
%TD*%
D37*
%TO.C,C23*%
X13820000Y-36995000D03*
X13820000Y-38545000D03*
%TD*%
D18*
%TO.C,R9*%
X51280000Y-2300000D03*
X52300000Y-2300000D03*
%TD*%
D38*
%TO.C,D5*%
X15305000Y-15220000D03*
X17180000Y-15220000D03*
%TD*%
D39*
%TO.C,J3*%
X59570000Y-9920000D03*
X55670000Y-9920000D03*
X59570000Y-8650000D03*
X55670000Y-8650000D03*
X59570000Y-7380000D03*
X55670000Y-7380000D03*
X59570000Y-6110000D03*
X55670000Y-6110000D03*
X59570000Y-4840000D03*
X55670000Y-4840000D03*
X59570000Y-3570000D03*
X55670000Y-3570000D03*
X59570000Y-2300000D03*
X55670000Y-2300000D03*
%TD*%
D36*
%TO.C,C8*%
X49180000Y-29000000D03*
X48220000Y-29000000D03*
%TD*%
D22*
%TO.C,R8*%
X64140000Y-3570000D03*
X63120000Y-3570000D03*
%TD*%
D40*
%TO.C,SW1*%
X36500000Y-3750000D03*
X44450000Y-3750000D03*
X36500000Y-8250000D03*
X44450000Y-8250000D03*
%TD*%
D36*
%TO.C,C6*%
X47730000Y-49520000D03*
X46770000Y-49520000D03*
%TD*%
D22*
%TO.C,R6*%
X33530000Y-3750000D03*
X32510000Y-3750000D03*
%TD*%
D19*
%TO.C,C3*%
X28365000Y-51225000D03*
X29325000Y-51225000D03*
%TD*%
D24*
%TO.C,C16*%
X24390000Y-44300000D03*
X24390000Y-45260000D03*
%TD*%
D17*
%TO.C,C15*%
X24400000Y-47190000D03*
X24400000Y-46230000D03*
%TD*%
D21*
%TO.C,C24*%
X84432500Y-40725000D03*
X84432500Y-42625000D03*
%TD*%
D36*
%TO.C,C9*%
X40320000Y-26290000D03*
X39360000Y-26290000D03*
%TD*%
D26*
%TO.C,R12*%
X77300000Y-15910000D03*
X77300000Y-14890000D03*
%TD*%
D19*
%TO.C,C12*%
X23440000Y-32500000D03*
X24400000Y-32500000D03*
%TD*%
D20*
%TO.C,R4*%
X13560000Y-3590000D03*
X13560000Y-4610000D03*
%TD*%
D41*
%TO.C,D2*%
X55737500Y-62940000D03*
X53862500Y-62940000D03*
%TD*%
D20*
%TO.C,R13*%
X86200000Y-25990000D03*
X86200000Y-27010000D03*
%TD*%
D36*
%TO.C,C21*%
X48050000Y-4920000D03*
X47090000Y-4920000D03*
%TD*%
D19*
%TO.C,C4*%
X34860000Y-51225000D03*
X35820000Y-51225000D03*
%TD*%
D41*
%TO.C,D4*%
X68175000Y-27870000D03*
X66300000Y-27870000D03*
%TD*%
M02*
