%TF.GenerationSoftware,KiCad,Pcbnew,8.0.1*%
%TF.CreationDate,2024-03-16T09:29:12+01:00*%
%TF.ProjectId,pcb723,70636237-3233-42e6-9b69-6361645f7063,rev?*%
%TF.SameCoordinates,PX55d4a80PY68e7780*%
%TF.FileFunction,Copper,L2,Inr*%
%TF.FilePolarity,Positive*%
%FSLAX46Y46*%
G04 Gerber Fmt 4.6, Leading zero omitted, Abs format (unit mm)*
G04 Created by KiCad (PCBNEW 8.0.1) date 2024-03-16 09:29:12*
%MOMM*%
%LPD*%
G01*
G04 APERTURE LIST*
%TA.AperFunction,ComponentPad*%
%ADD10R,1.700000X1.700000*%
%TD*%
%TA.AperFunction,ComponentPad*%
%ADD11O,1.700000X1.700000*%
%TD*%
%TA.AperFunction,ComponentPad*%
%ADD12C,3.000000*%
%TD*%
%TA.AperFunction,ComponentPad*%
%ADD13C,0.800000*%
%TD*%
%TA.AperFunction,ComponentPad*%
%ADD14C,6.400000*%
%TD*%
%TA.AperFunction,ComponentPad*%
%ADD15O,2.100000X1.000000*%
%TD*%
%TA.AperFunction,ComponentPad*%
%ADD16O,1.800000X1.000000*%
%TD*%
%TA.AperFunction,ViaPad*%
%ADD17C,0.700000*%
%TD*%
G04 APERTURE END LIST*
D10*
%TO.N,/PA9*%
%TO.C,J6*%
X66300000Y38310000D03*
D11*
%TO.N,/PA10*%
X63760000Y38310000D03*
%TO.N,/PC9*%
X66300000Y35770000D03*
%TO.N,/PA8*%
X63760000Y35770000D03*
%TO.N,/PC7*%
X66300000Y33230000D03*
%TO.N,/PC8*%
X63760000Y33230000D03*
%TO.N,/PG8*%
X66300000Y30690000D03*
%TO.N,/PC6*%
X63760000Y30690000D03*
%TO.N,/PG6*%
X66300000Y28150000D03*
%TO.N,/PG7*%
X63760000Y28150000D03*
%TO.N,/PG4*%
X66300000Y25610000D03*
%TO.N,/PG5*%
X63760000Y25610000D03*
%TO.N,/PG2*%
X66300000Y23070000D03*
%TO.N,/PG3*%
X63760000Y23070000D03*
%TO.N,/PD14*%
X66300000Y20530000D03*
%TO.N,/PD15*%
X63760000Y20530000D03*
%TO.N,/PD12*%
X66300000Y17990000D03*
%TO.N,/PD13*%
X63760000Y17990000D03*
%TO.N,/PD10*%
X66300000Y15450000D03*
%TO.N,/PD11*%
X63760000Y15450000D03*
%TO.N,/PD8*%
X66300000Y12910000D03*
%TO.N,/PD9*%
X63760000Y12910000D03*
%TO.N,/PB14*%
X66300000Y10370000D03*
%TO.N,/PB15*%
X63760000Y10370000D03*
%TO.N,/PB12*%
X66300000Y7830000D03*
%TO.N,/PB13*%
X63760000Y7830000D03*
%TD*%
D10*
%TO.N,/PDR_ON*%
%TO.C,J2*%
X16900000Y65390000D03*
D11*
%TO.N,Net-(J2-Pin_2)*%
X16900000Y62850000D03*
%TD*%
D10*
%TO.N,GND*%
%TO.C,J11*%
X84000000Y23000000D03*
D11*
X84000000Y20460000D03*
X84000000Y17920000D03*
X84000000Y15380000D03*
X84000000Y12840000D03*
%TD*%
D10*
%TO.N,/PC10*%
%TO.C,J9*%
X49600000Y52240000D03*
D11*
%TO.N,/PC11*%
X49600000Y54780000D03*
%TO.N,/PC12*%
X47060000Y52240000D03*
%TO.N,/PD0*%
X47060000Y54780000D03*
%TO.N,/PD1*%
X44520000Y52240000D03*
%TO.N,/PD2*%
X44520000Y54780000D03*
%TO.N,/PD3*%
X41980000Y52240000D03*
%TO.N,/PD4*%
X41980000Y54780000D03*
%TO.N,/PD5*%
X39440000Y52240000D03*
%TO.N,/PD6*%
X39440000Y54780000D03*
%TO.N,/PG9*%
X36900000Y52240000D03*
%TO.N,/PD7*%
X36900000Y54780000D03*
%TO.N,/PG11*%
X34360000Y52240000D03*
%TO.N,/PG10*%
X34360000Y54780000D03*
%TO.N,/PG13*%
X31820000Y52240000D03*
%TO.N,/PG12*%
X31820000Y54780000D03*
%TO.N,/PG15*%
X29280000Y52240000D03*
%TO.N,/PG14*%
X29280000Y54780000D03*
%TO.N,/PB5*%
X26740000Y52240000D03*
%TO.N,/PB4(NJTRST)*%
X26740000Y54780000D03*
%TO.N,/PB9*%
X24200000Y52240000D03*
%TO.N,/PB8*%
X24200000Y54780000D03*
%TO.N,/PE1*%
X21660000Y52240000D03*
%TO.N,/PE0*%
X21660000Y54780000D03*
%TD*%
D10*
%TO.N,/PA4*%
%TO.C,J7*%
X17120000Y9600000D03*
D11*
%TO.N,/PA3*%
X17120000Y7060000D03*
%TO.N,/PA5*%
X19660000Y9600000D03*
%TO.N,/PA6*%
X19660000Y7060000D03*
%TO.N,/PA7*%
X22200000Y9600000D03*
%TO.N,/PC4*%
X22200000Y7060000D03*
%TO.N,/PC5*%
X24740000Y9600000D03*
%TO.N,/PB0*%
X24740000Y7060000D03*
%TO.N,/PB1*%
X27280000Y9600000D03*
%TO.N,/PB2*%
X27280000Y7060000D03*
%TO.N,/PF11*%
X29820000Y9600000D03*
%TO.N,/PF12*%
X29820000Y7060000D03*
%TO.N,/PF13*%
X32360000Y9600000D03*
%TO.N,/PF14*%
X32360000Y7060000D03*
%TO.N,/PF15*%
X34900000Y9600000D03*
%TO.N,/PG0*%
X34900000Y7060000D03*
%TO.N,/PG1*%
X37440000Y9600000D03*
%TO.N,/PE7*%
X37440000Y7060000D03*
%TO.N,/PE8*%
X39980000Y9600000D03*
%TO.N,/PE9*%
X39980000Y7060000D03*
%TO.N,/PE11*%
X42520000Y9600000D03*
%TO.N,/PE10*%
X42520000Y7060000D03*
%TO.N,/PE13*%
X45060000Y9600000D03*
%TO.N,/PE12*%
X45060000Y7060000D03*
%TO.N,/PE15*%
X47600000Y9600000D03*
%TO.N,/PE14*%
X47600000Y7060000D03*
%TO.N,/PB10*%
X50140000Y9600000D03*
%TO.N,/PB11*%
X50140000Y7060000D03*
%TD*%
D12*
%TO.N,/T_JRCLK*%
%TO.C,TP1*%
X69500000Y65160000D03*
%TD*%
D10*
%TO.N,Net-(J1-Pin_1)*%
%TO.C,J1*%
X25190000Y65390000D03*
D11*
%TO.N,/BOOT0*%
X25190000Y62850000D03*
%TD*%
D10*
%TO.N,+5V*%
%TO.C,J4*%
X77590000Y45405000D03*
D11*
X77590000Y47945000D03*
X75050000Y45405000D03*
X75050000Y47945000D03*
%TD*%
D13*
%TO.N,GND*%
%TO.C,H3*%
X3600000Y6000000D03*
X4302944Y7697056D03*
X4302944Y4302944D03*
X6000000Y8400000D03*
D14*
X6000000Y6000000D03*
D13*
X6000000Y3600000D03*
X7697056Y7697056D03*
X7697056Y4302944D03*
X8400000Y6000000D03*
%TD*%
D10*
%TO.N,/PE2*%
%TO.C,J8*%
X8500000Y49410000D03*
D11*
%TO.N,/PE3*%
X5960000Y49410000D03*
%TO.N,/PE4*%
X8500000Y46870000D03*
%TO.N,/PE5*%
X5960000Y46870000D03*
%TO.N,/PE6*%
X8500000Y44330000D03*
%TO.N,/PC13*%
X5960000Y44330000D03*
%TO.N,/PC14*%
X8500000Y41790000D03*
%TO.N,/PC15*%
X5960000Y41790000D03*
%TO.N,/PF0*%
X8500000Y39250000D03*
%TO.N,/PF1*%
X5960000Y39250000D03*
%TO.N,/PF2*%
X8500000Y36710000D03*
%TO.N,/PF3*%
X5960000Y36710000D03*
%TO.N,/PF5*%
X8500000Y34170000D03*
%TO.N,/PF4*%
X5960000Y34170000D03*
%TO.N,/PF6*%
X8500000Y31630000D03*
%TO.N,/PF7*%
X5960000Y31630000D03*
%TO.N,/PF9*%
X8500000Y29090000D03*
%TO.N,/PF8*%
X5960000Y29090000D03*
%TO.N,/PC0*%
X8500000Y26550000D03*
%TO.N,/PF10*%
X5960000Y26550000D03*
%TO.N,/PC2_C*%
X8500000Y24010000D03*
%TO.N,/PC1*%
X5960000Y24010000D03*
%TO.N,/PA0*%
X8500000Y21470000D03*
%TO.N,/PC3_C*%
X5960000Y21470000D03*
%TO.N,/PA2*%
X8500000Y18930000D03*
%TO.N,/PA1*%
X5960000Y18930000D03*
%TD*%
D15*
%TO.N,Net-(J5-SHIELD)*%
%TO.C,J5*%
X83130000Y46960000D03*
D16*
X87310000Y46960000D03*
D15*
X83130000Y55600000D03*
D16*
X87310000Y55600000D03*
%TD*%
D13*
%TO.N,GND*%
%TO.C,H2*%
X81600000Y64000000D03*
X82302944Y65697056D03*
X82302944Y62302944D03*
X84000000Y66400000D03*
D14*
X84000000Y64000000D03*
D13*
X84000000Y61600000D03*
X85697056Y65697056D03*
X85697056Y62302944D03*
X86400000Y64000000D03*
%TD*%
%TO.N,GND*%
%TO.C,H1*%
X3600000Y64000000D03*
X4302944Y65697056D03*
X4302944Y62302944D03*
X6000000Y66400000D03*
D14*
X6000000Y64000000D03*
D13*
X6000000Y61600000D03*
X7697056Y65697056D03*
X7697056Y62302944D03*
X8400000Y64000000D03*
%TD*%
%TO.N,GND*%
%TO.C,H4*%
X81600000Y6000000D03*
X82302944Y7697056D03*
X82302944Y4302944D03*
X84000000Y8400000D03*
D14*
X84000000Y6000000D03*
D13*
X84000000Y3600000D03*
X85697056Y7697056D03*
X85697056Y4302944D03*
X86400000Y6000000D03*
%TD*%
D10*
%TO.N,+3V3*%
%TO.C,J10*%
X75000000Y23000000D03*
D11*
X75000000Y20460000D03*
X75000000Y17920000D03*
X75000000Y15380000D03*
X75000000Y12840000D03*
%TD*%
D17*
%TO.N,/T_NRST*%
X59850000Y56150000D03*
X59850000Y54100000D03*
X52200000Y66430000D03*
X29900000Y28600000D03*
%TO.N,+5V*%
X79500000Y53680000D03*
%TO.N,/PDR_ON*%
X28587500Y40200000D03*
%TO.N,/BOOT0*%
X31350000Y43700000D03*
%TO.N,+3V3*%
X40820000Y17720000D03*
X35820000Y17720000D03*
X28087500Y44730000D03*
X80622500Y58010000D03*
X50460000Y33730000D03*
X22390000Y23770000D03*
X34360000Y44730000D03*
X86200000Y29900000D03*
X23970000Y38540000D03*
X23390000Y31770000D03*
X49190000Y63690000D03*
X62870000Y61350000D03*
X22005000Y17010000D03*
X39360000Y44730000D03*
X50460000Y28230000D03*
X82700000Y28800000D03*
X20620000Y66410000D03*
X46770000Y19500000D03*
X48800000Y41900000D03*
X29325000Y17810000D03*
X86200000Y28800000D03*
X12380000Y66410000D03*
X23516398Y26613602D03*
X82700000Y29900000D03*
%TO.N,GND*%
X47220000Y16680000D03*
X22390000Y22810000D03*
X50460000Y27270000D03*
X14190000Y22790000D03*
X73600000Y39600000D03*
X23490000Y27630000D03*
X14370000Y34970000D03*
X49700003Y41900000D03*
X13820000Y27350000D03*
X70410000Y58010000D03*
X34860000Y17720000D03*
X49180000Y65080000D03*
X27350000Y18775000D03*
X80800000Y48030000D03*
X65350000Y66430000D03*
X87600000Y41900000D03*
X20830000Y63870000D03*
X84432500Y26000000D03*
X13560000Y60780000D03*
X17310000Y49030000D03*
X84800000Y41900000D03*
X47730000Y19400000D03*
X26120000Y43710000D03*
X23070387Y38513541D03*
X31340000Y66250000D03*
X39860000Y17720000D03*
X23390000Y32730000D03*
X50460000Y32770000D03*
X40320000Y44730000D03*
X50700000Y42100000D03*
X27670000Y25000000D03*
X24955000Y17040000D03*
X86100000Y27375000D03*
X77300000Y56200000D03*
X80800000Y54530000D03*
X86200000Y41900000D03*
X35320000Y44730000D03*
X51440000Y3160000D03*
X82800000Y27375000D03*
X22390000Y25700000D03*
%TO.N,/T_SWO*%
X53200000Y63890000D03*
X33050000Y40350000D03*
%TO.N,Net-(U1-PB6)*%
X32149997Y40350000D03*
X49700000Y67150000D03*
%TO.N,Net-(U1-PB7)*%
X31253103Y40424742D03*
X65350000Y67700000D03*
%TO.N,/PD14*%
X45950000Y28500000D03*
%TO.N,/PD13*%
X45950000Y27000000D03*
%TO.N,/PC6*%
X45000000Y34000000D03*
%TO.N,/PG8*%
X45000000Y32500000D03*
%TO.N,/PF12*%
X34587500Y22130000D03*
%TO.N,/PF13*%
X36087500Y22130000D03*
%TO.N,/PA4*%
X29587500Y22130000D03*
%TO.N,/PB11*%
X44587500Y22130000D03*
%TO.N,/PE9*%
X39587500Y22130000D03*
%TO.N,/PE10*%
X41087500Y22130000D03*
%TO.N,/PE5*%
X27980000Y39080000D03*
%TO.N,/PE6*%
X28084299Y38186061D03*
%TO.N,/PC13*%
X28098800Y37286175D03*
%TO.N,/PF4*%
X28550000Y34845000D03*
%TO.N,/PF5*%
X29040000Y33870000D03*
%TO.N,/PF10*%
X27810000Y29220000D03*
%TO.N,/PF9*%
X28266319Y29995743D03*
%TO.N,/PF7*%
X28720000Y32570000D03*
%TO.N,/PF8*%
X28808709Y30713947D03*
%TO.N,/PF6*%
X27730000Y32170000D03*
%TO.N,/PC0*%
X28271804Y27757209D03*
%TO.N,/PC2_C*%
X29180000Y25310000D03*
%TO.N,/PC1*%
X28993276Y27000167D03*
%TO.N,/PC3_C*%
X28380000Y22330000D03*
%TO.N,/PA0*%
X27670000Y23500000D03*
%TO.N,/PD5*%
X40590000Y40360000D03*
%TO.N,/PD6*%
X39087500Y40360000D03*
%TO.N,/PG15*%
X34087500Y40360000D03*
%TO.N,/PG14*%
X35587500Y40360000D03*
%TD*%
%TA.AperFunction,Conductor*%
%TO.N,GND*%
G36*
X84250000Y13273012D02*
G01*
X84192993Y13305925D01*
X84065826Y13340000D01*
X83934174Y13340000D01*
X83807007Y13305925D01*
X83750000Y13273012D01*
X83750000Y14946988D01*
X83807007Y14914075D01*
X83934174Y14880000D01*
X84065826Y14880000D01*
X84192993Y14914075D01*
X84250000Y14946988D01*
X84250000Y13273012D01*
G37*
%TD.AperFunction*%
%TA.AperFunction,Conductor*%
G36*
X84250000Y15813012D02*
G01*
X84192993Y15845925D01*
X84065826Y15880000D01*
X83934174Y15880000D01*
X83807007Y15845925D01*
X83750000Y15813012D01*
X83750000Y17486988D01*
X83807007Y17454075D01*
X83934174Y17420000D01*
X84065826Y17420000D01*
X84192993Y17454075D01*
X84250000Y17486988D01*
X84250000Y15813012D01*
G37*
%TD.AperFunction*%
%TA.AperFunction,Conductor*%
G36*
X84250000Y18353012D02*
G01*
X84192993Y18385925D01*
X84065826Y18420000D01*
X83934174Y18420000D01*
X83807007Y18385925D01*
X83750000Y18353012D01*
X83750000Y20026988D01*
X83807007Y19994075D01*
X83934174Y19960000D01*
X84065826Y19960000D01*
X84192993Y19994075D01*
X84250000Y20026988D01*
X84250000Y18353012D01*
G37*
%TD.AperFunction*%
%TA.AperFunction,Conductor*%
G36*
X84250000Y20893012D02*
G01*
X84192993Y20925925D01*
X84065826Y20960000D01*
X83934174Y20960000D01*
X83807007Y20925925D01*
X83750000Y20893012D01*
X83750000Y22566988D01*
X83807007Y22534075D01*
X83934174Y22500000D01*
X84065826Y22500000D01*
X84192993Y22534075D01*
X84250000Y22566988D01*
X84250000Y20893012D01*
G37*
%TD.AperFunction*%
%TA.AperFunction,Conductor*%
G36*
X86309138Y68987402D02*
G01*
X86612869Y68838917D01*
X86621877Y68834042D01*
X87003544Y68606617D01*
X87012123Y68601011D01*
X87373693Y68342856D01*
X87381770Y68336569D01*
X87720796Y68049429D01*
X87728336Y68042488D01*
X88042487Y67728337D01*
X88049428Y67720797D01*
X88336564Y67381776D01*
X88342859Y67373688D01*
X88601010Y67012124D01*
X88606616Y67003545D01*
X88834041Y66621878D01*
X88838918Y66612864D01*
X88987400Y66309139D01*
X89000000Y66254679D01*
X89000000Y3745323D01*
X88987401Y3690863D01*
X88838919Y3387137D01*
X88834041Y3378123D01*
X88606616Y2996456D01*
X88601010Y2987877D01*
X88342859Y2626313D01*
X88336564Y2618225D01*
X88049428Y2279204D01*
X88042487Y2271664D01*
X87728336Y1957513D01*
X87720796Y1950572D01*
X87381775Y1663436D01*
X87373687Y1657141D01*
X87012123Y1398990D01*
X87003544Y1393384D01*
X86621877Y1165959D01*
X86612863Y1161082D01*
X86309139Y1012600D01*
X86254679Y1000000D01*
X3745321Y1000000D01*
X3690861Y1012600D01*
X3387136Y1161082D01*
X3378122Y1165959D01*
X2996455Y1393384D01*
X2987876Y1398990D01*
X2626312Y1657141D01*
X2618224Y1663436D01*
X2279203Y1950572D01*
X2271663Y1957513D01*
X1957512Y2271664D01*
X1950571Y2279204D01*
X1663435Y2618225D01*
X1657140Y2626313D01*
X1398989Y2987877D01*
X1393383Y2996456D01*
X1165958Y3378123D01*
X1161080Y3387137D01*
X1012599Y3690863D01*
X1000000Y3745323D01*
X1000000Y6000000D01*
X2294922Y6000000D01*
X2315219Y5612713D01*
X2375886Y5229677D01*
X2375887Y5229670D01*
X2476262Y4855064D01*
X2615244Y4493006D01*
X2791310Y4147457D01*
X3002531Y3822207D01*
X3211095Y3564650D01*
X3211096Y3564650D01*
X4705748Y5059302D01*
X4779588Y4957670D01*
X4957670Y4779588D01*
X5059300Y4705749D01*
X3564648Y3211097D01*
X3564649Y3211096D01*
X3822206Y3002532D01*
X4147456Y2791311D01*
X4493005Y2615245D01*
X4855063Y2476263D01*
X5229669Y2375888D01*
X5229676Y2375887D01*
X5612712Y2315220D01*
X5999999Y2294922D01*
X6000001Y2294922D01*
X6387287Y2315220D01*
X6770323Y2375887D01*
X6770330Y2375888D01*
X7144936Y2476263D01*
X7506994Y2615245D01*
X7852543Y2791311D01*
X8177783Y3002524D01*
X8177785Y3002525D01*
X8435349Y3211098D01*
X6940698Y4705749D01*
X7042330Y4779588D01*
X7220412Y4957670D01*
X7294251Y5059302D01*
X8788902Y3564651D01*
X8997475Y3822215D01*
X8997476Y3822217D01*
X9208689Y4147457D01*
X9384755Y4493006D01*
X9523737Y4855064D01*
X9624112Y5229670D01*
X9624113Y5229677D01*
X9684780Y5612713D01*
X9705078Y6000000D01*
X9705078Y6000001D01*
X9684780Y6387288D01*
X9624113Y6770324D01*
X9624112Y6770331D01*
X9546496Y7060000D01*
X15764341Y7060000D01*
X15784936Y6824597D01*
X15784938Y6824587D01*
X15846094Y6596345D01*
X15846096Y6596341D01*
X15846097Y6596337D01*
X15890787Y6500500D01*
X15945965Y6382170D01*
X15945967Y6382166D01*
X16054281Y6227479D01*
X16081505Y6188599D01*
X16248599Y6021505D01*
X16345384Y5953735D01*
X16442165Y5885968D01*
X16442167Y5885967D01*
X16442170Y5885965D01*
X16656337Y5786097D01*
X16884592Y5724937D01*
X17072918Y5708461D01*
X17119999Y5704341D01*
X17120000Y5704341D01*
X17120001Y5704341D01*
X17159234Y5707774D01*
X17355408Y5724937D01*
X17583663Y5786097D01*
X17797830Y5885965D01*
X17991401Y6021505D01*
X18158495Y6188599D01*
X18288425Y6374158D01*
X18343002Y6417783D01*
X18412500Y6424977D01*
X18474855Y6393454D01*
X18491575Y6374158D01*
X18621500Y6188605D01*
X18621505Y6188599D01*
X18788599Y6021505D01*
X18885384Y5953735D01*
X18982165Y5885968D01*
X18982167Y5885967D01*
X18982170Y5885965D01*
X19196337Y5786097D01*
X19424592Y5724937D01*
X19612918Y5708461D01*
X19659999Y5704341D01*
X19660000Y5704341D01*
X19660001Y5704341D01*
X19699234Y5707774D01*
X19895408Y5724937D01*
X20123663Y5786097D01*
X20337830Y5885965D01*
X20531401Y6021505D01*
X20698495Y6188599D01*
X20828425Y6374158D01*
X20883002Y6417783D01*
X20952500Y6424977D01*
X21014855Y6393454D01*
X21031575Y6374158D01*
X21161500Y6188605D01*
X21161505Y6188599D01*
X21328599Y6021505D01*
X21425384Y5953735D01*
X21522165Y5885968D01*
X21522167Y5885967D01*
X21522170Y5885965D01*
X21736337Y5786097D01*
X21964592Y5724937D01*
X22152918Y5708461D01*
X22199999Y5704341D01*
X22200000Y5704341D01*
X22200001Y5704341D01*
X22239234Y5707774D01*
X22435408Y5724937D01*
X22663663Y5786097D01*
X22877830Y5885965D01*
X23071401Y6021505D01*
X23238495Y6188599D01*
X23368425Y6374158D01*
X23423002Y6417783D01*
X23492500Y6424977D01*
X23554855Y6393454D01*
X23571575Y6374158D01*
X23701500Y6188605D01*
X23701505Y6188599D01*
X23868599Y6021505D01*
X23965384Y5953735D01*
X24062165Y5885968D01*
X24062167Y5885967D01*
X24062170Y5885965D01*
X24276337Y5786097D01*
X24504592Y5724937D01*
X24692918Y5708461D01*
X24739999Y5704341D01*
X24740000Y5704341D01*
X24740001Y5704341D01*
X24779234Y5707774D01*
X24975408Y5724937D01*
X25203663Y5786097D01*
X25417830Y5885965D01*
X25611401Y6021505D01*
X25778495Y6188599D01*
X25908425Y6374158D01*
X25963002Y6417783D01*
X26032500Y6424977D01*
X26094855Y6393454D01*
X26111575Y6374158D01*
X26241500Y6188605D01*
X26241505Y6188599D01*
X26408599Y6021505D01*
X26505384Y5953735D01*
X26602165Y5885968D01*
X26602167Y5885967D01*
X26602170Y5885965D01*
X26816337Y5786097D01*
X27044592Y5724937D01*
X27232918Y5708461D01*
X27279999Y5704341D01*
X27280000Y5704341D01*
X27280001Y5704341D01*
X27319234Y5707774D01*
X27515408Y5724937D01*
X27743663Y5786097D01*
X27957830Y5885965D01*
X28151401Y6021505D01*
X28318495Y6188599D01*
X28448425Y6374158D01*
X28503002Y6417783D01*
X28572500Y6424977D01*
X28634855Y6393454D01*
X28651575Y6374158D01*
X28781500Y6188605D01*
X28781505Y6188599D01*
X28948599Y6021505D01*
X29045384Y5953735D01*
X29142165Y5885968D01*
X29142167Y5885967D01*
X29142170Y5885965D01*
X29356337Y5786097D01*
X29584592Y5724937D01*
X29772918Y5708461D01*
X29819999Y5704341D01*
X29820000Y5704341D01*
X29820001Y5704341D01*
X29859234Y5707774D01*
X30055408Y5724937D01*
X30283663Y5786097D01*
X30497830Y5885965D01*
X30691401Y6021505D01*
X30858495Y6188599D01*
X30988425Y6374158D01*
X31043002Y6417783D01*
X31112500Y6424977D01*
X31174855Y6393454D01*
X31191575Y6374158D01*
X31321500Y6188605D01*
X31321505Y6188599D01*
X31488599Y6021505D01*
X31585384Y5953735D01*
X31682165Y5885968D01*
X31682167Y5885967D01*
X31682170Y5885965D01*
X31896337Y5786097D01*
X32124592Y5724937D01*
X32312918Y5708461D01*
X32359999Y5704341D01*
X32360000Y5704341D01*
X32360001Y5704341D01*
X32399234Y5707774D01*
X32595408Y5724937D01*
X32823663Y5786097D01*
X33037830Y5885965D01*
X33231401Y6021505D01*
X33398495Y6188599D01*
X33528425Y6374158D01*
X33583002Y6417783D01*
X33652500Y6424977D01*
X33714855Y6393454D01*
X33731575Y6374158D01*
X33861500Y6188605D01*
X33861505Y6188599D01*
X34028599Y6021505D01*
X34125384Y5953735D01*
X34222165Y5885968D01*
X34222167Y5885967D01*
X34222170Y5885965D01*
X34436337Y5786097D01*
X34664592Y5724937D01*
X34852918Y5708461D01*
X34899999Y5704341D01*
X34900000Y5704341D01*
X34900001Y5704341D01*
X34939234Y5707774D01*
X35135408Y5724937D01*
X35363663Y5786097D01*
X35577830Y5885965D01*
X35771401Y6021505D01*
X35938495Y6188599D01*
X36068425Y6374158D01*
X36123002Y6417783D01*
X36192500Y6424977D01*
X36254855Y6393454D01*
X36271575Y6374158D01*
X36401500Y6188605D01*
X36401505Y6188599D01*
X36568599Y6021505D01*
X36665384Y5953735D01*
X36762165Y5885968D01*
X36762167Y5885967D01*
X36762170Y5885965D01*
X36976337Y5786097D01*
X37204592Y5724937D01*
X37392918Y5708461D01*
X37439999Y5704341D01*
X37440000Y5704341D01*
X37440001Y5704341D01*
X37479234Y5707774D01*
X37675408Y5724937D01*
X37903663Y5786097D01*
X38117830Y5885965D01*
X38311401Y6021505D01*
X38478495Y6188599D01*
X38608425Y6374158D01*
X38663002Y6417783D01*
X38732500Y6424977D01*
X38794855Y6393454D01*
X38811575Y6374158D01*
X38941500Y6188605D01*
X38941505Y6188599D01*
X39108599Y6021505D01*
X39205384Y5953735D01*
X39302165Y5885968D01*
X39302167Y5885967D01*
X39302170Y5885965D01*
X39516337Y5786097D01*
X39744592Y5724937D01*
X39932918Y5708461D01*
X39979999Y5704341D01*
X39980000Y5704341D01*
X39980001Y5704341D01*
X40019234Y5707774D01*
X40215408Y5724937D01*
X40443663Y5786097D01*
X40657830Y5885965D01*
X40851401Y6021505D01*
X41018495Y6188599D01*
X41148425Y6374158D01*
X41203002Y6417783D01*
X41272500Y6424977D01*
X41334855Y6393454D01*
X41351575Y6374158D01*
X41481500Y6188605D01*
X41481505Y6188599D01*
X41648599Y6021505D01*
X41745384Y5953735D01*
X41842165Y5885968D01*
X41842167Y5885967D01*
X41842170Y5885965D01*
X42056337Y5786097D01*
X42284592Y5724937D01*
X42472918Y5708461D01*
X42519999Y5704341D01*
X42520000Y5704341D01*
X42520001Y5704341D01*
X42559234Y5707774D01*
X42755408Y5724937D01*
X42983663Y5786097D01*
X43197830Y5885965D01*
X43391401Y6021505D01*
X43558495Y6188599D01*
X43688425Y6374158D01*
X43743002Y6417783D01*
X43812500Y6424977D01*
X43874855Y6393454D01*
X43891575Y6374158D01*
X44021500Y6188605D01*
X44021505Y6188599D01*
X44188599Y6021505D01*
X44285384Y5953735D01*
X44382165Y5885968D01*
X44382167Y5885967D01*
X44382170Y5885965D01*
X44596337Y5786097D01*
X44824592Y5724937D01*
X45012918Y5708461D01*
X45059999Y5704341D01*
X45060000Y5704341D01*
X45060001Y5704341D01*
X45099234Y5707774D01*
X45295408Y5724937D01*
X45523663Y5786097D01*
X45737830Y5885965D01*
X45931401Y6021505D01*
X46098495Y6188599D01*
X46228425Y6374158D01*
X46283002Y6417783D01*
X46352500Y6424977D01*
X46414855Y6393454D01*
X46431575Y6374158D01*
X46561500Y6188605D01*
X46561505Y6188599D01*
X46728599Y6021505D01*
X46825384Y5953735D01*
X46922165Y5885968D01*
X46922167Y5885967D01*
X46922170Y5885965D01*
X47136337Y5786097D01*
X47364592Y5724937D01*
X47552918Y5708461D01*
X47599999Y5704341D01*
X47600000Y5704341D01*
X47600001Y5704341D01*
X47639234Y5707774D01*
X47835408Y5724937D01*
X48063663Y5786097D01*
X48277830Y5885965D01*
X48471401Y6021505D01*
X48638495Y6188599D01*
X48768425Y6374158D01*
X48823002Y6417783D01*
X48892500Y6424977D01*
X48954855Y6393454D01*
X48971575Y6374158D01*
X49101500Y6188605D01*
X49101505Y6188599D01*
X49268599Y6021505D01*
X49365384Y5953735D01*
X49462165Y5885968D01*
X49462167Y5885967D01*
X49462170Y5885965D01*
X49676337Y5786097D01*
X49904592Y5724937D01*
X50092918Y5708461D01*
X50139999Y5704341D01*
X50140000Y5704341D01*
X50140001Y5704341D01*
X50179234Y5707774D01*
X50375408Y5724937D01*
X50603663Y5786097D01*
X50817830Y5885965D01*
X50980689Y6000000D01*
X80294922Y6000000D01*
X80315219Y5612713D01*
X80375886Y5229677D01*
X80375887Y5229670D01*
X80476262Y4855064D01*
X80615244Y4493006D01*
X80791310Y4147457D01*
X81002531Y3822207D01*
X81211095Y3564650D01*
X81211096Y3564650D01*
X82705748Y5059302D01*
X82779588Y4957670D01*
X82957670Y4779588D01*
X83059300Y4705749D01*
X81564648Y3211097D01*
X81564649Y3211096D01*
X81822206Y3002532D01*
X82147456Y2791311D01*
X82493005Y2615245D01*
X82855063Y2476263D01*
X83229669Y2375888D01*
X83229676Y2375887D01*
X83612712Y2315220D01*
X83999999Y2294922D01*
X84000001Y2294922D01*
X84387287Y2315220D01*
X84770323Y2375887D01*
X84770330Y2375888D01*
X85144936Y2476263D01*
X85506994Y2615245D01*
X85852543Y2791311D01*
X86177783Y3002524D01*
X86177785Y3002525D01*
X86435349Y3211098D01*
X84940698Y4705749D01*
X85042330Y4779588D01*
X85220412Y4957670D01*
X85294251Y5059302D01*
X86788902Y3564651D01*
X86997475Y3822215D01*
X86997476Y3822217D01*
X87208689Y4147457D01*
X87384755Y4493006D01*
X87523737Y4855064D01*
X87624112Y5229670D01*
X87624113Y5229677D01*
X87684780Y5612713D01*
X87705078Y6000000D01*
X87705078Y6000001D01*
X87684780Y6387288D01*
X87624113Y6770324D01*
X87624112Y6770331D01*
X87523737Y7144937D01*
X87384755Y7506995D01*
X87208689Y7852544D01*
X86997468Y8177794D01*
X86788904Y8435351D01*
X86788903Y8435352D01*
X85294251Y6940700D01*
X85220412Y7042330D01*
X85042330Y7220412D01*
X84940698Y7294252D01*
X86435350Y8788904D01*
X86435350Y8788905D01*
X86177793Y8997469D01*
X85852543Y9208690D01*
X85506994Y9384756D01*
X85144936Y9523738D01*
X84770330Y9624113D01*
X84770323Y9624114D01*
X84387287Y9684781D01*
X84000001Y9705078D01*
X83999999Y9705078D01*
X83612712Y9684781D01*
X83229676Y9624114D01*
X83229669Y9624113D01*
X82855063Y9523738D01*
X82493005Y9384756D01*
X82147456Y9208690D01*
X81822206Y8997469D01*
X81564648Y8788905D01*
X81564648Y8788904D01*
X83059301Y7294252D01*
X82957670Y7220412D01*
X82779588Y7042330D01*
X82705748Y6940700D01*
X81211096Y8435352D01*
X81211095Y8435352D01*
X81002531Y8177794D01*
X80791310Y7852544D01*
X80615244Y7506995D01*
X80476262Y7144937D01*
X80375887Y6770331D01*
X80375886Y6770324D01*
X80315219Y6387288D01*
X80294922Y6000001D01*
X80294922Y6000000D01*
X50980689Y6000000D01*
X51011401Y6021505D01*
X51178495Y6188599D01*
X51314035Y6382170D01*
X51413903Y6596337D01*
X51475063Y6824592D01*
X51495659Y7060000D01*
X51475063Y7295408D01*
X51413903Y7523663D01*
X51314035Y7737829D01*
X51308425Y7745842D01*
X51249497Y7830000D01*
X62404341Y7830000D01*
X62424936Y7594597D01*
X62424938Y7594587D01*
X62486094Y7366345D01*
X62486096Y7366341D01*
X62486097Y7366337D01*
X62490000Y7357968D01*
X62585965Y7152170D01*
X62585967Y7152166D01*
X62650502Y7060001D01*
X62721505Y6958599D01*
X62888599Y6791505D01*
X62918839Y6770331D01*
X63082165Y6655968D01*
X63082167Y6655967D01*
X63082170Y6655965D01*
X63296337Y6556097D01*
X63524592Y6494937D01*
X63712918Y6478461D01*
X63759999Y6474341D01*
X63760000Y6474341D01*
X63760001Y6474341D01*
X63799234Y6477774D01*
X63995408Y6494937D01*
X64223663Y6556097D01*
X64437830Y6655965D01*
X64631401Y6791505D01*
X64798495Y6958599D01*
X64928425Y7144158D01*
X64983002Y7187783D01*
X65052500Y7194977D01*
X65114855Y7163454D01*
X65131575Y7144158D01*
X65261500Y6958605D01*
X65261505Y6958599D01*
X65428599Y6791505D01*
X65458839Y6770331D01*
X65622165Y6655968D01*
X65622167Y6655967D01*
X65622170Y6655965D01*
X65836337Y6556097D01*
X66064592Y6494937D01*
X66252918Y6478461D01*
X66299999Y6474341D01*
X66300000Y6474341D01*
X66300001Y6474341D01*
X66339234Y6477774D01*
X66535408Y6494937D01*
X66763663Y6556097D01*
X66977830Y6655965D01*
X67171401Y6791505D01*
X67338495Y6958599D01*
X67474035Y7152170D01*
X67573903Y7366337D01*
X67635063Y7594592D01*
X67655659Y7830000D01*
X67635063Y8065408D01*
X67573903Y8293663D01*
X67474035Y8507829D01*
X67468425Y8515842D01*
X67338494Y8701403D01*
X67171402Y8868494D01*
X67171396Y8868499D01*
X66985842Y8998425D01*
X66942217Y9053002D01*
X66935023Y9122500D01*
X66966546Y9184855D01*
X66985842Y9201575D01*
X67008026Y9217109D01*
X67171401Y9331505D01*
X67338495Y9498599D01*
X67474035Y9692170D01*
X67573903Y9906337D01*
X67635063Y10134592D01*
X67655659Y10370000D01*
X67635063Y10605408D01*
X67573903Y10833663D01*
X67474035Y11047829D01*
X67468425Y11055842D01*
X67338494Y11241403D01*
X67171402Y11408494D01*
X67171396Y11408499D01*
X66985842Y11538425D01*
X66942217Y11593002D01*
X66935023Y11662500D01*
X66966546Y11724855D01*
X66985842Y11741575D01*
X67071426Y11801502D01*
X67171401Y11871505D01*
X67338495Y12038599D01*
X67474035Y12232170D01*
X67573903Y12446337D01*
X67635063Y12674592D01*
X67649535Y12840000D01*
X73644341Y12840000D01*
X73664936Y12604597D01*
X73664938Y12604587D01*
X73726094Y12376345D01*
X73726096Y12376341D01*
X73726097Y12376337D01*
X73825847Y12162422D01*
X73825965Y12162170D01*
X73825967Y12162166D01*
X73912486Y12038605D01*
X73961505Y11968599D01*
X74128599Y11801505D01*
X74214188Y11741575D01*
X74322165Y11665968D01*
X74322167Y11665967D01*
X74322170Y11665965D01*
X74536337Y11566097D01*
X74764592Y11504937D01*
X74952918Y11488461D01*
X74999999Y11484341D01*
X75000000Y11484341D01*
X75000001Y11484341D01*
X75039234Y11487774D01*
X75235408Y11504937D01*
X75463663Y11566097D01*
X75677830Y11665965D01*
X75871401Y11801505D01*
X76038495Y11968599D01*
X76174035Y12162170D01*
X76273903Y12376337D01*
X76335063Y12604592D01*
X76355659Y12840000D01*
X76335063Y13075408D01*
X76273903Y13303663D01*
X76174035Y13517829D01*
X76149957Y13552217D01*
X76038494Y13711403D01*
X75871402Y13878494D01*
X75871396Y13878499D01*
X75685842Y14008425D01*
X75642217Y14063002D01*
X75635023Y14132500D01*
X75666546Y14194855D01*
X75685842Y14211575D01*
X75708026Y14227109D01*
X75871401Y14341505D01*
X76038495Y14508599D01*
X76174035Y14702170D01*
X76273903Y14916337D01*
X76335063Y15144592D01*
X76355659Y15380000D01*
X76335063Y15615408D01*
X76273903Y15843663D01*
X76174035Y16057829D01*
X76149957Y16092217D01*
X76038494Y16251403D01*
X75871402Y16418494D01*
X75871396Y16418499D01*
X75685842Y16548425D01*
X75642217Y16603002D01*
X75635023Y16672500D01*
X75666546Y16734855D01*
X75685842Y16751575D01*
X75708026Y16767109D01*
X75871401Y16881505D01*
X76038495Y17048599D01*
X76174035Y17242170D01*
X76273903Y17456337D01*
X76335063Y17684592D01*
X76355659Y17920000D01*
X76335063Y18155408D01*
X76281443Y18355524D01*
X76273905Y18383656D01*
X76273904Y18383657D01*
X76273903Y18383663D01*
X76174035Y18597829D01*
X76156181Y18623328D01*
X76038494Y18791403D01*
X75871402Y18958494D01*
X75871396Y18958499D01*
X75685842Y19088425D01*
X75642217Y19143002D01*
X75635023Y19212500D01*
X75666546Y19274855D01*
X75685842Y19291575D01*
X75729575Y19322197D01*
X75871401Y19421505D01*
X76038495Y19588599D01*
X76174035Y19782170D01*
X76273903Y19996337D01*
X76335063Y20224592D01*
X76355659Y20460000D01*
X76335063Y20695408D01*
X76273903Y20923663D01*
X76174035Y21137829D01*
X76149956Y21172217D01*
X76038496Y21331400D01*
X75980506Y21389390D01*
X75916567Y21453329D01*
X75883084Y21514649D01*
X75888068Y21584341D01*
X75929939Y21640275D01*
X75960915Y21657190D01*
X76092331Y21706204D01*
X76207546Y21792454D01*
X76293796Y21907669D01*
X76344091Y22042517D01*
X76350500Y22102127D01*
X76350500Y22102156D01*
X82650000Y22102156D01*
X82656401Y22042628D01*
X82656403Y22042621D01*
X82706645Y21907914D01*
X82706649Y21907907D01*
X82792809Y21792813D01*
X82792812Y21792810D01*
X82907906Y21706650D01*
X82907913Y21706646D01*
X83039986Y21657386D01*
X83095920Y21615515D01*
X83120337Y21550051D01*
X83105486Y21481778D01*
X83084335Y21453523D01*
X82961886Y21331074D01*
X82826400Y21137580D01*
X82826399Y21137578D01*
X82726570Y20923493D01*
X82726567Y20923487D01*
X82669364Y20710001D01*
X82669364Y20710000D01*
X83566988Y20710000D01*
X83534075Y20652993D01*
X83500000Y20525826D01*
X83500000Y20394174D01*
X83534075Y20267007D01*
X83566988Y20210000D01*
X82669364Y20210000D01*
X82726567Y19996514D01*
X82726570Y19996508D01*
X82826399Y19782422D01*
X82961894Y19588918D01*
X83128917Y19421895D01*
X83315031Y19291575D01*
X83358656Y19236997D01*
X83365848Y19167499D01*
X83334326Y19105144D01*
X83315031Y19088425D01*
X83128922Y18958110D01*
X83128920Y18958109D01*
X82961891Y18791080D01*
X82961886Y18791074D01*
X82826400Y18597580D01*
X82826399Y18597578D01*
X82726570Y18383493D01*
X82726567Y18383487D01*
X82669364Y18170001D01*
X82669364Y18170000D01*
X83566988Y18170000D01*
X83534075Y18112993D01*
X83500000Y17985826D01*
X83500000Y17854174D01*
X83534075Y17727007D01*
X83566988Y17670000D01*
X82669364Y17670000D01*
X82726567Y17456514D01*
X82726570Y17456508D01*
X82826399Y17242422D01*
X82961894Y17048918D01*
X83128917Y16881895D01*
X83315031Y16751575D01*
X83358656Y16696997D01*
X83365848Y16627499D01*
X83334326Y16565144D01*
X83315031Y16548425D01*
X83128922Y16418110D01*
X83128920Y16418109D01*
X82961891Y16251080D01*
X82961886Y16251074D01*
X82826400Y16057580D01*
X82826399Y16057578D01*
X82726570Y15843493D01*
X82726567Y15843487D01*
X82669364Y15630001D01*
X82669364Y15630000D01*
X83566988Y15630000D01*
X83534075Y15572993D01*
X83500000Y15445826D01*
X83500000Y15314174D01*
X83534075Y15187007D01*
X83566988Y15130000D01*
X82669364Y15130000D01*
X82726567Y14916514D01*
X82726570Y14916508D01*
X82826399Y14702422D01*
X82961894Y14508918D01*
X83128917Y14341895D01*
X83315031Y14211575D01*
X83358656Y14156997D01*
X83365848Y14087499D01*
X83334326Y14025144D01*
X83315031Y14008425D01*
X83128922Y13878110D01*
X83128920Y13878109D01*
X82961891Y13711080D01*
X82961886Y13711074D01*
X82826400Y13517580D01*
X82826399Y13517578D01*
X82726570Y13303493D01*
X82726567Y13303487D01*
X82669364Y13090001D01*
X82669364Y13090000D01*
X83566988Y13090000D01*
X83534075Y13032993D01*
X83500000Y12905826D01*
X83500000Y12774174D01*
X83534075Y12647007D01*
X83566988Y12590000D01*
X82669364Y12590000D01*
X82726567Y12376514D01*
X82726570Y12376508D01*
X82826399Y12162422D01*
X82961894Y11968918D01*
X83128917Y11801895D01*
X83322421Y11666400D01*
X83536507Y11566571D01*
X83536516Y11566567D01*
X83750000Y11509366D01*
X83750000Y12406988D01*
X83807007Y12374075D01*
X83934174Y12340000D01*
X84065826Y12340000D01*
X84192993Y12374075D01*
X84250000Y12406988D01*
X84250000Y11509367D01*
X84463483Y11566567D01*
X84463492Y11566571D01*
X84677578Y11666400D01*
X84871082Y11801895D01*
X85038105Y11968918D01*
X85173600Y12162422D01*
X85273429Y12376508D01*
X85273432Y12376514D01*
X85330636Y12590000D01*
X84433012Y12590000D01*
X84465925Y12647007D01*
X84500000Y12774174D01*
X84500000Y12905826D01*
X84465925Y13032993D01*
X84433012Y13090000D01*
X85330636Y13090000D01*
X85330635Y13090001D01*
X85273432Y13303487D01*
X85273429Y13303493D01*
X85173600Y13517578D01*
X85173599Y13517580D01*
X85038113Y13711074D01*
X85038108Y13711080D01*
X84871082Y13878106D01*
X84684968Y14008425D01*
X84641344Y14063002D01*
X84634151Y14132501D01*
X84665673Y14194855D01*
X84684968Y14211575D01*
X84871082Y14341895D01*
X85038105Y14508918D01*
X85173600Y14702422D01*
X85273429Y14916508D01*
X85273432Y14916514D01*
X85330636Y15130000D01*
X84433012Y15130000D01*
X84465925Y15187007D01*
X84500000Y15314174D01*
X84500000Y15445826D01*
X84465925Y15572993D01*
X84433012Y15630000D01*
X85330636Y15630000D01*
X85330635Y15630001D01*
X85273432Y15843487D01*
X85273429Y15843493D01*
X85173600Y16057578D01*
X85173599Y16057580D01*
X85038113Y16251074D01*
X85038108Y16251080D01*
X84871082Y16418106D01*
X84684968Y16548425D01*
X84641344Y16603002D01*
X84634151Y16672501D01*
X84665673Y16734855D01*
X84684968Y16751575D01*
X84871082Y16881895D01*
X85038105Y17048918D01*
X85173600Y17242422D01*
X85273429Y17456508D01*
X85273432Y17456514D01*
X85330636Y17670000D01*
X84433012Y17670000D01*
X84465925Y17727007D01*
X84500000Y17854174D01*
X84500000Y17985826D01*
X84465925Y18112993D01*
X84433012Y18170000D01*
X85330636Y18170000D01*
X85330635Y18170001D01*
X85273432Y18383487D01*
X85273429Y18383493D01*
X85173600Y18597578D01*
X85173599Y18597580D01*
X85038113Y18791074D01*
X85038108Y18791080D01*
X84871082Y18958106D01*
X84684968Y19088425D01*
X84641344Y19143002D01*
X84634151Y19212501D01*
X84665673Y19274855D01*
X84684968Y19291575D01*
X84871082Y19421895D01*
X85038105Y19588918D01*
X85173600Y19782422D01*
X85273429Y19996508D01*
X85273432Y19996514D01*
X85330636Y20210000D01*
X84433012Y20210000D01*
X84465925Y20267007D01*
X84500000Y20394174D01*
X84500000Y20525826D01*
X84465925Y20652993D01*
X84433012Y20710000D01*
X85330636Y20710000D01*
X85330635Y20710001D01*
X85273432Y20923487D01*
X85273429Y20923493D01*
X85173600Y21137578D01*
X85173599Y21137580D01*
X85038113Y21331074D01*
X85038108Y21331080D01*
X84915665Y21453523D01*
X84882180Y21514846D01*
X84887164Y21584538D01*
X84929036Y21640471D01*
X84960013Y21657386D01*
X85092086Y21706646D01*
X85092093Y21706650D01*
X85207187Y21792810D01*
X85207190Y21792813D01*
X85293350Y21907907D01*
X85293354Y21907914D01*
X85343596Y22042621D01*
X85343598Y22042628D01*
X85349999Y22102156D01*
X85350000Y22102173D01*
X85350000Y22750000D01*
X84433012Y22750000D01*
X84465925Y22807007D01*
X84500000Y22934174D01*
X84500000Y23065826D01*
X84465925Y23192993D01*
X84433012Y23250000D01*
X85350000Y23250000D01*
X85350000Y23897828D01*
X85349999Y23897845D01*
X85343598Y23957373D01*
X85343596Y23957380D01*
X85293354Y24092087D01*
X85293350Y24092094D01*
X85207190Y24207188D01*
X85207187Y24207191D01*
X85092093Y24293351D01*
X85092086Y24293355D01*
X84957379Y24343597D01*
X84957372Y24343599D01*
X84897844Y24350000D01*
X84250000Y24350000D01*
X84250000Y23433012D01*
X84192993Y23465925D01*
X84065826Y23500000D01*
X83934174Y23500000D01*
X83807007Y23465925D01*
X83750000Y23433012D01*
X83750000Y24350000D01*
X83102155Y24350000D01*
X83042627Y24343599D01*
X83042620Y24343597D01*
X82907913Y24293355D01*
X82907906Y24293351D01*
X82792812Y24207191D01*
X82792809Y24207188D01*
X82706649Y24092094D01*
X82706645Y24092087D01*
X82656403Y23957380D01*
X82656401Y23957373D01*
X82650000Y23897845D01*
X82650000Y23250000D01*
X83566988Y23250000D01*
X83534075Y23192993D01*
X83500000Y23065826D01*
X83500000Y22934174D01*
X83534075Y22807007D01*
X83566988Y22750000D01*
X82650000Y22750000D01*
X82650000Y22102156D01*
X76350500Y22102156D01*
X76350499Y23897872D01*
X76344091Y23957483D01*
X76327239Y24002665D01*
X76293797Y24092329D01*
X76293793Y24092336D01*
X76207547Y24207545D01*
X76207544Y24207548D01*
X76092335Y24293794D01*
X76092328Y24293798D01*
X75957482Y24344092D01*
X75957483Y24344092D01*
X75897883Y24350499D01*
X75897881Y24350500D01*
X75897873Y24350500D01*
X75897864Y24350500D01*
X74102129Y24350500D01*
X74102123Y24350499D01*
X74042516Y24344092D01*
X73907671Y24293798D01*
X73907664Y24293794D01*
X73792455Y24207548D01*
X73792452Y24207545D01*
X73706206Y24092336D01*
X73706202Y24092329D01*
X73655908Y23957483D01*
X73649501Y23897884D01*
X73649501Y23897877D01*
X73649500Y23897865D01*
X73649500Y22102130D01*
X73649501Y22102124D01*
X73655908Y22042517D01*
X73706202Y21907672D01*
X73706206Y21907665D01*
X73792452Y21792456D01*
X73792455Y21792453D01*
X73907664Y21706207D01*
X73907671Y21706203D01*
X74039081Y21657190D01*
X74095015Y21615319D01*
X74119432Y21549855D01*
X74104580Y21481582D01*
X74083430Y21453327D01*
X73961503Y21331400D01*
X73825965Y21137831D01*
X73825964Y21137829D01*
X73726098Y20923665D01*
X73726094Y20923656D01*
X73664938Y20695414D01*
X73664936Y20695404D01*
X73644341Y20460001D01*
X73644341Y20460000D01*
X73664936Y20224597D01*
X73664938Y20224587D01*
X73726094Y19996345D01*
X73726096Y19996341D01*
X73726097Y19996337D01*
X73816997Y19801401D01*
X73825965Y19782170D01*
X73825967Y19782166D01*
X73912486Y19658605D01*
X73955940Y19596546D01*
X73961501Y19588605D01*
X73961506Y19588598D01*
X74128597Y19421507D01*
X74128603Y19421502D01*
X74314158Y19291575D01*
X74357783Y19236998D01*
X74364977Y19167500D01*
X74333454Y19105145D01*
X74314158Y19088425D01*
X74128597Y18958495D01*
X73961505Y18791403D01*
X73825965Y18597831D01*
X73825964Y18597829D01*
X73726098Y18383665D01*
X73726094Y18383656D01*
X73664938Y18155414D01*
X73664936Y18155404D01*
X73644341Y17920001D01*
X73644341Y17920000D01*
X73664936Y17684597D01*
X73664938Y17684587D01*
X73726094Y17456345D01*
X73726096Y17456341D01*
X73726097Y17456337D01*
X73825847Y17242422D01*
X73825965Y17242170D01*
X73825967Y17242166D01*
X73961501Y17048605D01*
X73961506Y17048598D01*
X74128597Y16881507D01*
X74128603Y16881502D01*
X74314158Y16751575D01*
X74357783Y16696998D01*
X74364977Y16627500D01*
X74333454Y16565145D01*
X74314158Y16548425D01*
X74128597Y16418495D01*
X73961505Y16251403D01*
X73825965Y16057831D01*
X73825964Y16057829D01*
X73726098Y15843665D01*
X73726094Y15843656D01*
X73664938Y15615414D01*
X73664936Y15615404D01*
X73644341Y15380001D01*
X73644341Y15380000D01*
X73664936Y15144597D01*
X73664938Y15144587D01*
X73726094Y14916345D01*
X73726096Y14916341D01*
X73726097Y14916337D01*
X73825847Y14702422D01*
X73825965Y14702170D01*
X73825967Y14702166D01*
X73961501Y14508605D01*
X73961506Y14508598D01*
X74128597Y14341507D01*
X74128603Y14341502D01*
X74314158Y14211575D01*
X74357783Y14156998D01*
X74364977Y14087500D01*
X74333454Y14025145D01*
X74314158Y14008425D01*
X74128597Y13878495D01*
X73961505Y13711403D01*
X73825965Y13517831D01*
X73825964Y13517829D01*
X73726098Y13303665D01*
X73726094Y13303656D01*
X73664938Y13075414D01*
X73664936Y13075404D01*
X73644341Y12840001D01*
X73644341Y12840000D01*
X67649535Y12840000D01*
X67655659Y12910000D01*
X67635063Y13145408D01*
X67573903Y13373663D01*
X67474035Y13587829D01*
X67468425Y13595842D01*
X67338494Y13781403D01*
X67171402Y13948494D01*
X67171396Y13948499D01*
X66985842Y14078425D01*
X66942217Y14133002D01*
X66935023Y14202500D01*
X66966546Y14264855D01*
X66985842Y14281575D01*
X67071426Y14341502D01*
X67171401Y14411505D01*
X67338495Y14578599D01*
X67474035Y14772170D01*
X67573903Y14986337D01*
X67635063Y15214592D01*
X67655659Y15450000D01*
X67635063Y15685408D01*
X67573903Y15913663D01*
X67474035Y16127829D01*
X67468425Y16135842D01*
X67338494Y16321403D01*
X67171402Y16488494D01*
X67171396Y16488499D01*
X66985842Y16618425D01*
X66942217Y16673002D01*
X66935023Y16742500D01*
X66966546Y16804855D01*
X66985842Y16821575D01*
X67071426Y16881502D01*
X67171401Y16951505D01*
X67338495Y17118599D01*
X67474035Y17312170D01*
X67573903Y17526337D01*
X67635063Y17754592D01*
X67655659Y17990000D01*
X67635063Y18225408D01*
X67573903Y18453663D01*
X67474035Y18667829D01*
X67468425Y18675842D01*
X67338494Y18861403D01*
X67171402Y19028494D01*
X67171396Y19028499D01*
X66985842Y19158425D01*
X66942217Y19213002D01*
X66935023Y19282500D01*
X66966546Y19344855D01*
X66985842Y19361575D01*
X67071426Y19421502D01*
X67171401Y19491505D01*
X67338495Y19658599D01*
X67474035Y19852170D01*
X67573903Y20066337D01*
X67635063Y20294592D01*
X67655659Y20530000D01*
X67635063Y20765408D01*
X67573903Y20993663D01*
X67474035Y21207829D01*
X67468425Y21215842D01*
X67338494Y21401403D01*
X67171402Y21568494D01*
X67171396Y21568499D01*
X66985842Y21698425D01*
X66942217Y21753002D01*
X66935023Y21822500D01*
X66966546Y21884855D01*
X66985842Y21901575D01*
X67058132Y21952193D01*
X67171401Y22031505D01*
X67338495Y22198599D01*
X67474035Y22392170D01*
X67573903Y22606337D01*
X67635063Y22834592D01*
X67655659Y23070000D01*
X67655605Y23070612D01*
X67644898Y23192993D01*
X67635063Y23305408D01*
X67573903Y23533663D01*
X67474035Y23747829D01*
X67468425Y23755842D01*
X67338494Y23941403D01*
X67171402Y24108494D01*
X67171396Y24108499D01*
X66985842Y24238425D01*
X66942217Y24293002D01*
X66935023Y24362500D01*
X66966546Y24424855D01*
X66985842Y24441575D01*
X67084438Y24510613D01*
X67171401Y24571505D01*
X67338495Y24738599D01*
X67474035Y24932170D01*
X67573903Y25146337D01*
X67635063Y25374592D01*
X67655659Y25610000D01*
X67635063Y25845408D01*
X67573903Y26073663D01*
X67474035Y26287829D01*
X67468425Y26295842D01*
X67338494Y26481403D01*
X67171402Y26648494D01*
X67171396Y26648499D01*
X66985842Y26778425D01*
X66942217Y26833002D01*
X66935023Y26902500D01*
X66966546Y26964855D01*
X66985842Y26981575D01*
X67008026Y26997109D01*
X67171401Y27111505D01*
X67338495Y27278599D01*
X67474035Y27472170D01*
X67573903Y27686337D01*
X67635063Y27914592D01*
X67655659Y28150000D01*
X67635063Y28385408D01*
X67573903Y28613663D01*
X67487012Y28800000D01*
X81844815Y28800000D01*
X81863503Y28622195D01*
X81863504Y28622193D01*
X81918747Y28452171D01*
X81918750Y28452165D01*
X82008141Y28297335D01*
X82041871Y28259874D01*
X82127764Y28164479D01*
X82127767Y28164477D01*
X82127770Y28164474D01*
X82272407Y28059388D01*
X82435733Y27986671D01*
X82610609Y27949500D01*
X82610610Y27949500D01*
X82789389Y27949500D01*
X82789391Y27949500D01*
X82964267Y27986671D01*
X83127593Y28059388D01*
X83272230Y28164474D01*
X83391859Y28297335D01*
X83481250Y28452165D01*
X83536497Y28622197D01*
X83555185Y28800000D01*
X85344815Y28800000D01*
X85363503Y28622195D01*
X85363504Y28622193D01*
X85418747Y28452171D01*
X85418750Y28452165D01*
X85508141Y28297335D01*
X85541871Y28259874D01*
X85627764Y28164479D01*
X85627767Y28164477D01*
X85627770Y28164474D01*
X85772407Y28059388D01*
X85935733Y27986671D01*
X86110609Y27949500D01*
X86110610Y27949500D01*
X86289389Y27949500D01*
X86289391Y27949500D01*
X86464267Y27986671D01*
X86627593Y28059388D01*
X86772230Y28164474D01*
X86891859Y28297335D01*
X86981250Y28452165D01*
X87036497Y28622197D01*
X87055185Y28800000D01*
X87036497Y28977803D01*
X87000042Y29090000D01*
X86981252Y29147830D01*
X86981250Y29147833D01*
X86981250Y29147835D01*
X86900326Y29288000D01*
X86883853Y29355901D01*
X86900326Y29412000D01*
X86947137Y29493080D01*
X86981250Y29552165D01*
X86981735Y29553656D01*
X86986340Y29567830D01*
X87036497Y29722197D01*
X87055185Y29900000D01*
X87036497Y30077803D01*
X86993126Y30211284D01*
X86981252Y30247830D01*
X86981249Y30247836D01*
X86891859Y30402665D01*
X86838816Y30461575D01*
X86772235Y30535522D01*
X86772232Y30535524D01*
X86772231Y30535525D01*
X86772230Y30535526D01*
X86627593Y30640612D01*
X86464267Y30713329D01*
X86464265Y30713330D01*
X86336594Y30740467D01*
X86289391Y30750500D01*
X86110609Y30750500D01*
X86079954Y30743985D01*
X85935733Y30713330D01*
X85935728Y30713328D01*
X85772408Y30640613D01*
X85627768Y30535525D01*
X85508140Y30402664D01*
X85418750Y30247836D01*
X85418747Y30247830D01*
X85363504Y30077808D01*
X85363503Y30077806D01*
X85344815Y29900000D01*
X85363503Y29722195D01*
X85363504Y29722193D01*
X85418747Y29552171D01*
X85418749Y29552168D01*
X85418750Y29552165D01*
X85452863Y29493080D01*
X85499674Y29411999D01*
X85516146Y29344099D01*
X85499674Y29288001D01*
X85418749Y29147833D01*
X85418747Y29147830D01*
X85363504Y28977808D01*
X85363503Y28977806D01*
X85344815Y28800000D01*
X83555185Y28800000D01*
X83536497Y28977803D01*
X83500042Y29090000D01*
X83481252Y29147830D01*
X83481250Y29147833D01*
X83481250Y29147835D01*
X83400326Y29288000D01*
X83383853Y29355901D01*
X83400326Y29412000D01*
X83447137Y29493080D01*
X83481250Y29552165D01*
X83481735Y29553656D01*
X83486340Y29567830D01*
X83536497Y29722197D01*
X83555185Y29900000D01*
X83536497Y30077803D01*
X83493126Y30211284D01*
X83481252Y30247830D01*
X83481249Y30247836D01*
X83391859Y30402665D01*
X83338816Y30461575D01*
X83272235Y30535522D01*
X83272232Y30535524D01*
X83272231Y30535525D01*
X83272230Y30535526D01*
X83127593Y30640612D01*
X82964267Y30713329D01*
X82964265Y30713330D01*
X82836594Y30740467D01*
X82789391Y30750500D01*
X82610609Y30750500D01*
X82579954Y30743985D01*
X82435733Y30713330D01*
X82435728Y30713328D01*
X82272408Y30640613D01*
X82127768Y30535525D01*
X82008140Y30402664D01*
X81918750Y30247836D01*
X81918747Y30247830D01*
X81863504Y30077808D01*
X81863503Y30077806D01*
X81844815Y29900000D01*
X81863503Y29722195D01*
X81863504Y29722193D01*
X81918747Y29552171D01*
X81918749Y29552168D01*
X81918750Y29552165D01*
X81952863Y29493080D01*
X81999674Y29411999D01*
X82016146Y29344099D01*
X81999674Y29288001D01*
X81918749Y29147833D01*
X81918747Y29147830D01*
X81863504Y28977808D01*
X81863503Y28977806D01*
X81844815Y28800000D01*
X67487012Y28800000D01*
X67474035Y28827829D01*
X67468425Y28835842D01*
X67338494Y29021403D01*
X67171402Y29188494D01*
X67171396Y29188499D01*
X66985842Y29318425D01*
X66942217Y29373002D01*
X66935023Y29442500D01*
X66966546Y29504855D01*
X66985842Y29521575D01*
X67051909Y29567836D01*
X67171401Y29651505D01*
X67338495Y29818599D01*
X67474035Y30012170D01*
X67573903Y30226337D01*
X67635063Y30454592D01*
X67655659Y30690000D01*
X67635063Y30925408D01*
X67573903Y31153663D01*
X67474035Y31367829D01*
X67468425Y31375842D01*
X67338494Y31561403D01*
X67171402Y31728494D01*
X67171396Y31728499D01*
X66985842Y31858425D01*
X66942217Y31913002D01*
X66935023Y31982500D01*
X66966546Y32044855D01*
X66985842Y32061575D01*
X67066191Y32117836D01*
X67171401Y32191505D01*
X67338495Y32358599D01*
X67474035Y32552170D01*
X67573903Y32766337D01*
X67635063Y32994592D01*
X67655659Y33230000D01*
X67635063Y33465408D01*
X67573903Y33693663D01*
X67474035Y33907829D01*
X67468425Y33915842D01*
X67338494Y34101403D01*
X67171402Y34268494D01*
X67171396Y34268499D01*
X66985842Y34398425D01*
X66942217Y34453002D01*
X66935023Y34522500D01*
X66966546Y34584855D01*
X66985842Y34601575D01*
X67079557Y34667195D01*
X67171401Y34731505D01*
X67338495Y34898599D01*
X67474035Y35092170D01*
X67573903Y35306337D01*
X67635063Y35534592D01*
X67655659Y35770000D01*
X67635063Y36005408D01*
X67573903Y36233663D01*
X67474035Y36447829D01*
X67468424Y36455842D01*
X67338496Y36641400D01*
X67329242Y36650654D01*
X67216567Y36763329D01*
X67183084Y36824649D01*
X67188068Y36894341D01*
X67229939Y36950275D01*
X67260915Y36967190D01*
X67392331Y37016204D01*
X67507546Y37102454D01*
X67593796Y37217669D01*
X67644091Y37352517D01*
X67650500Y37412127D01*
X67650499Y39207872D01*
X67644091Y39267483D01*
X67642810Y39270917D01*
X67593797Y39402329D01*
X67593793Y39402336D01*
X67507547Y39517545D01*
X67507544Y39517548D01*
X67392335Y39603794D01*
X67392328Y39603798D01*
X67257482Y39654092D01*
X67257483Y39654092D01*
X67197883Y39660499D01*
X67197881Y39660500D01*
X67197873Y39660500D01*
X67197864Y39660500D01*
X65402129Y39660500D01*
X65402123Y39660499D01*
X65342516Y39654092D01*
X65207671Y39603798D01*
X65207664Y39603794D01*
X65092455Y39517548D01*
X65092452Y39517545D01*
X65006206Y39402336D01*
X65006203Y39402331D01*
X64957189Y39270917D01*
X64915317Y39214984D01*
X64849853Y39190567D01*
X64781580Y39205419D01*
X64753326Y39226570D01*
X64631402Y39348494D01*
X64631395Y39348499D01*
X64437834Y39484033D01*
X64437830Y39484035D01*
X64383220Y39509500D01*
X64223663Y39583903D01*
X64223659Y39583904D01*
X64223655Y39583906D01*
X63995413Y39645062D01*
X63995403Y39645064D01*
X63760001Y39665659D01*
X63759999Y39665659D01*
X63524596Y39645064D01*
X63524586Y39645062D01*
X63296344Y39583906D01*
X63296335Y39583902D01*
X63082171Y39484036D01*
X63082169Y39484035D01*
X62888597Y39348495D01*
X62721505Y39181403D01*
X62585965Y38987831D01*
X62585964Y38987829D01*
X62539334Y38887830D01*
X62488105Y38777968D01*
X62486098Y38773665D01*
X62486094Y38773656D01*
X62424938Y38545414D01*
X62424936Y38545404D01*
X62404341Y38310001D01*
X62404341Y38310000D01*
X62424936Y38074597D01*
X62424938Y38074587D01*
X62486094Y37846345D01*
X62486096Y37846341D01*
X62486097Y37846337D01*
X62570499Y37665337D01*
X62585965Y37632170D01*
X62585967Y37632166D01*
X62721501Y37438605D01*
X62721506Y37438598D01*
X62888597Y37271507D01*
X62888603Y37271502D01*
X63074158Y37141575D01*
X63117783Y37086998D01*
X63124977Y37017500D01*
X63093454Y36955145D01*
X63074158Y36938425D01*
X62888597Y36808495D01*
X62721505Y36641403D01*
X62585965Y36447831D01*
X62585964Y36447829D01*
X62492401Y36247184D01*
X62488105Y36237968D01*
X62486098Y36233665D01*
X62486094Y36233656D01*
X62424938Y36005414D01*
X62424936Y36005404D01*
X62404341Y35770001D01*
X62404341Y35770000D01*
X62424936Y35534597D01*
X62424938Y35534587D01*
X62486094Y35306345D01*
X62486096Y35306341D01*
X62486097Y35306337D01*
X62566004Y35134977D01*
X62585965Y35092170D01*
X62585967Y35092166D01*
X62634534Y35022806D01*
X62721501Y34898604D01*
X62721506Y34898598D01*
X62888597Y34731507D01*
X62888603Y34731502D01*
X63074158Y34601575D01*
X63117783Y34546998D01*
X63124977Y34477500D01*
X63093454Y34415145D01*
X63074158Y34398425D01*
X62888597Y34268495D01*
X62721505Y34101403D01*
X62585965Y33907831D01*
X62585964Y33907829D01*
X62503041Y33730000D01*
X62488105Y33697968D01*
X62486098Y33693665D01*
X62486094Y33693656D01*
X62424938Y33465414D01*
X62424936Y33465404D01*
X62404341Y33230001D01*
X62404341Y33230000D01*
X62424936Y32994597D01*
X62424938Y32994587D01*
X62486094Y32766345D01*
X62486096Y32766341D01*
X62486097Y32766337D01*
X62529777Y32672665D01*
X62585965Y32552170D01*
X62585967Y32552166D01*
X62688646Y32405526D01*
X62721501Y32358604D01*
X62721506Y32358598D01*
X62888597Y32191507D01*
X62888603Y32191502D01*
X63074158Y32061575D01*
X63117783Y32006998D01*
X63124977Y31937500D01*
X63093454Y31875145D01*
X63074158Y31858425D01*
X62888597Y31728495D01*
X62721505Y31561403D01*
X62585965Y31367831D01*
X62585964Y31367829D01*
X62524037Y31235026D01*
X62488105Y31157968D01*
X62486098Y31153665D01*
X62486094Y31153656D01*
X62424938Y30925414D01*
X62424936Y30925404D01*
X62404341Y30690001D01*
X62404341Y30690000D01*
X62424936Y30454597D01*
X62424938Y30454587D01*
X62486094Y30226345D01*
X62486096Y30226341D01*
X62486097Y30226337D01*
X62555360Y30077803D01*
X62585965Y30012170D01*
X62585967Y30012166D01*
X62651473Y29918615D01*
X62721501Y29818604D01*
X62721506Y29818598D01*
X62888597Y29651507D01*
X62888603Y29651502D01*
X63074158Y29521575D01*
X63117783Y29466998D01*
X63124977Y29397500D01*
X63093454Y29335145D01*
X63074158Y29318425D01*
X62888597Y29188495D01*
X62721505Y29021403D01*
X62585965Y28827831D01*
X62585964Y28827829D01*
X62516006Y28677803D01*
X62488105Y28617968D01*
X62486098Y28613665D01*
X62486094Y28613656D01*
X62424938Y28385414D01*
X62424936Y28385404D01*
X62404341Y28150001D01*
X62404341Y28150000D01*
X62424936Y27914597D01*
X62424938Y27914587D01*
X62486094Y27686345D01*
X62486096Y27686341D01*
X62486097Y27686337D01*
X62528932Y27594477D01*
X62585965Y27472170D01*
X62585967Y27472166D01*
X62629931Y27409380D01*
X62721501Y27278604D01*
X62721506Y27278598D01*
X62888597Y27111507D01*
X62888603Y27111502D01*
X63074158Y26981575D01*
X63117783Y26926998D01*
X63124977Y26857500D01*
X63093454Y26795145D01*
X63074158Y26778425D01*
X62888597Y26648495D01*
X62721505Y26481403D01*
X62585965Y26287831D01*
X62585964Y26287829D01*
X62516771Y26139444D01*
X62488105Y26077968D01*
X62486098Y26073665D01*
X62486094Y26073656D01*
X62424938Y25845414D01*
X62424936Y25845404D01*
X62404341Y25610001D01*
X62404341Y25610000D01*
X62424936Y25374597D01*
X62424938Y25374587D01*
X62486094Y25146345D01*
X62486096Y25146341D01*
X62486097Y25146337D01*
X62531720Y25048499D01*
X62585965Y24932170D01*
X62585967Y24932166D01*
X62673374Y24807337D01*
X62721501Y24738604D01*
X62721506Y24738598D01*
X62888597Y24571507D01*
X62888603Y24571502D01*
X63074158Y24441575D01*
X63117783Y24386998D01*
X63124977Y24317500D01*
X63093454Y24255145D01*
X63074158Y24238425D01*
X62888597Y24108495D01*
X62721505Y23941403D01*
X62585965Y23747831D01*
X62585964Y23747829D01*
X62513392Y23592197D01*
X62488105Y23537968D01*
X62486098Y23533665D01*
X62486094Y23533656D01*
X62424938Y23305414D01*
X62424936Y23305404D01*
X62404341Y23070001D01*
X62404341Y23070000D01*
X62424936Y22834597D01*
X62424938Y22834587D01*
X62486094Y22606345D01*
X62486096Y22606341D01*
X62486097Y22606337D01*
X62535683Y22500000D01*
X62585965Y22392170D01*
X62585967Y22392166D01*
X62645036Y22307808D01*
X62721501Y22198604D01*
X62721506Y22198598D01*
X62888597Y22031507D01*
X62888603Y22031502D01*
X63074158Y21901575D01*
X63117783Y21846998D01*
X63124977Y21777500D01*
X63093454Y21715145D01*
X63074158Y21698425D01*
X62888597Y21568495D01*
X62721505Y21401403D01*
X62585965Y21207831D01*
X62585964Y21207829D01*
X62553206Y21137578D01*
X62488105Y20997968D01*
X62486098Y20993665D01*
X62486094Y20993656D01*
X62424938Y20765414D01*
X62424936Y20765404D01*
X62404341Y20530001D01*
X62404341Y20530000D01*
X62424936Y20294597D01*
X62424938Y20294587D01*
X62486094Y20066345D01*
X62486096Y20066341D01*
X62486097Y20066337D01*
X62531720Y19968499D01*
X62585965Y19852170D01*
X62585967Y19852166D01*
X62634982Y19782166D01*
X62721501Y19658604D01*
X62721506Y19658598D01*
X62888597Y19491507D01*
X62888603Y19491502D01*
X63074158Y19361575D01*
X63117783Y19306998D01*
X63124977Y19237500D01*
X63093454Y19175145D01*
X63074158Y19158425D01*
X62888597Y19028495D01*
X62721505Y18861403D01*
X62585965Y18667831D01*
X62585964Y18667829D01*
X62492401Y18467184D01*
X62488105Y18457968D01*
X62486098Y18453665D01*
X62486094Y18453656D01*
X62424938Y18225414D01*
X62424936Y18225404D01*
X62404341Y17990001D01*
X62404341Y17990000D01*
X62424936Y17754597D01*
X62424938Y17754587D01*
X62486094Y17526345D01*
X62486096Y17526341D01*
X62486097Y17526337D01*
X62535683Y17420000D01*
X62585965Y17312170D01*
X62585967Y17312166D01*
X62634982Y17242166D01*
X62721501Y17118604D01*
X62721506Y17118598D01*
X62888597Y16951507D01*
X62888603Y16951502D01*
X63074158Y16821575D01*
X63117783Y16766998D01*
X63124977Y16697500D01*
X63093454Y16635145D01*
X63074158Y16618425D01*
X62888597Y16488495D01*
X62721505Y16321403D01*
X62585965Y16127831D01*
X62585964Y16127829D01*
X62486098Y15913665D01*
X62486094Y15913656D01*
X62424938Y15685414D01*
X62424936Y15685404D01*
X62404341Y15450001D01*
X62404341Y15450000D01*
X62424936Y15214597D01*
X62424938Y15214587D01*
X62486094Y14986345D01*
X62486096Y14986341D01*
X62486097Y14986337D01*
X62535683Y14880000D01*
X62585965Y14772170D01*
X62585967Y14772166D01*
X62634982Y14702166D01*
X62721501Y14578604D01*
X62721506Y14578598D01*
X62888597Y14411507D01*
X62888603Y14411502D01*
X63074158Y14281575D01*
X63117783Y14226998D01*
X63124977Y14157500D01*
X63093454Y14095145D01*
X63074158Y14078425D01*
X62888597Y13948495D01*
X62721505Y13781403D01*
X62585965Y13587831D01*
X62585964Y13587829D01*
X62486098Y13373665D01*
X62486094Y13373656D01*
X62424938Y13145414D01*
X62424936Y13145404D01*
X62404341Y12910001D01*
X62404341Y12910000D01*
X62424936Y12674597D01*
X62424938Y12674587D01*
X62486094Y12446345D01*
X62486096Y12446341D01*
X62486097Y12446337D01*
X62535683Y12340000D01*
X62585965Y12232170D01*
X62585967Y12232166D01*
X62634982Y12162166D01*
X62721501Y12038604D01*
X62721506Y12038598D01*
X62888597Y11871507D01*
X62888603Y11871502D01*
X63074158Y11741575D01*
X63117783Y11686998D01*
X63124977Y11617500D01*
X63093454Y11555145D01*
X63074158Y11538425D01*
X62888597Y11408495D01*
X62721505Y11241403D01*
X62585965Y11047831D01*
X62585964Y11047829D01*
X62486098Y10833665D01*
X62486094Y10833656D01*
X62424938Y10605414D01*
X62424936Y10605404D01*
X62404341Y10370001D01*
X62404341Y10370000D01*
X62424936Y10134597D01*
X62424938Y10134587D01*
X62486094Y9906345D01*
X62486096Y9906341D01*
X62486097Y9906337D01*
X62490000Y9897968D01*
X62585965Y9692170D01*
X62585967Y9692166D01*
X62633618Y9624114D01*
X62721501Y9498604D01*
X62721506Y9498598D01*
X62888597Y9331507D01*
X62888603Y9331502D01*
X63074158Y9201575D01*
X63117783Y9146998D01*
X63124977Y9077500D01*
X63093454Y9015145D01*
X63074158Y8998425D01*
X62888597Y8868495D01*
X62721505Y8701403D01*
X62585965Y8507831D01*
X62585964Y8507829D01*
X62486098Y8293665D01*
X62486094Y8293656D01*
X62424938Y8065414D01*
X62424936Y8065404D01*
X62404341Y7830001D01*
X62404341Y7830000D01*
X51249497Y7830000D01*
X51178494Y7931403D01*
X51011402Y8098494D01*
X51011396Y8098499D01*
X50825842Y8228425D01*
X50782217Y8283002D01*
X50775023Y8352500D01*
X50806546Y8414855D01*
X50825842Y8431575D01*
X50848026Y8447109D01*
X51011401Y8561505D01*
X51178495Y8728599D01*
X51314035Y8922170D01*
X51413903Y9136337D01*
X51475063Y9364592D01*
X51495659Y9600000D01*
X51475063Y9835408D01*
X51413903Y10063663D01*
X51314035Y10277829D01*
X51308425Y10285842D01*
X51178494Y10471403D01*
X51011402Y10638494D01*
X51011395Y10638499D01*
X50817834Y10774033D01*
X50817830Y10774035D01*
X50817828Y10774036D01*
X50603663Y10873903D01*
X50603659Y10873904D01*
X50603655Y10873906D01*
X50375413Y10935062D01*
X50375403Y10935064D01*
X50140001Y10955659D01*
X50139999Y10955659D01*
X49904596Y10935064D01*
X49904586Y10935062D01*
X49676344Y10873906D01*
X49676335Y10873902D01*
X49462171Y10774036D01*
X49462169Y10774035D01*
X49268597Y10638495D01*
X49101505Y10471403D01*
X48971575Y10285842D01*
X48916998Y10242217D01*
X48847500Y10235023D01*
X48785145Y10266546D01*
X48768425Y10285842D01*
X48638494Y10471403D01*
X48471402Y10638494D01*
X48471395Y10638499D01*
X48277834Y10774033D01*
X48277830Y10774035D01*
X48277828Y10774036D01*
X48063663Y10873903D01*
X48063659Y10873904D01*
X48063655Y10873906D01*
X47835413Y10935062D01*
X47835403Y10935064D01*
X47600001Y10955659D01*
X47599999Y10955659D01*
X47364596Y10935064D01*
X47364586Y10935062D01*
X47136344Y10873906D01*
X47136335Y10873902D01*
X46922171Y10774036D01*
X46922169Y10774035D01*
X46728597Y10638495D01*
X46561505Y10471403D01*
X46431575Y10285842D01*
X46376998Y10242217D01*
X46307500Y10235023D01*
X46245145Y10266546D01*
X46228425Y10285842D01*
X46098494Y10471403D01*
X45931402Y10638494D01*
X45931395Y10638499D01*
X45737834Y10774033D01*
X45737830Y10774035D01*
X45737828Y10774036D01*
X45523663Y10873903D01*
X45523659Y10873904D01*
X45523655Y10873906D01*
X45295413Y10935062D01*
X45295403Y10935064D01*
X45060001Y10955659D01*
X45059999Y10955659D01*
X44824596Y10935064D01*
X44824586Y10935062D01*
X44596344Y10873906D01*
X44596335Y10873902D01*
X44382171Y10774036D01*
X44382169Y10774035D01*
X44188597Y10638495D01*
X44021505Y10471403D01*
X43891575Y10285842D01*
X43836998Y10242217D01*
X43767500Y10235023D01*
X43705145Y10266546D01*
X43688425Y10285842D01*
X43558494Y10471403D01*
X43391402Y10638494D01*
X43391395Y10638499D01*
X43197834Y10774033D01*
X43197830Y10774035D01*
X43197828Y10774036D01*
X42983663Y10873903D01*
X42983659Y10873904D01*
X42983655Y10873906D01*
X42755413Y10935062D01*
X42755403Y10935064D01*
X42520001Y10955659D01*
X42519999Y10955659D01*
X42284596Y10935064D01*
X42284586Y10935062D01*
X42056344Y10873906D01*
X42056335Y10873902D01*
X41842171Y10774036D01*
X41842169Y10774035D01*
X41648597Y10638495D01*
X41481505Y10471403D01*
X41351575Y10285842D01*
X41296998Y10242217D01*
X41227500Y10235023D01*
X41165145Y10266546D01*
X41148425Y10285842D01*
X41018494Y10471403D01*
X40851402Y10638494D01*
X40851395Y10638499D01*
X40657834Y10774033D01*
X40657830Y10774035D01*
X40657828Y10774036D01*
X40443663Y10873903D01*
X40443659Y10873904D01*
X40443655Y10873906D01*
X40215413Y10935062D01*
X40215403Y10935064D01*
X39980001Y10955659D01*
X39979999Y10955659D01*
X39744596Y10935064D01*
X39744586Y10935062D01*
X39516344Y10873906D01*
X39516335Y10873902D01*
X39302171Y10774036D01*
X39302169Y10774035D01*
X39108597Y10638495D01*
X38941505Y10471403D01*
X38811575Y10285842D01*
X38756998Y10242217D01*
X38687500Y10235023D01*
X38625145Y10266546D01*
X38608425Y10285842D01*
X38478494Y10471403D01*
X38311402Y10638494D01*
X38311395Y10638499D01*
X38117834Y10774033D01*
X38117830Y10774035D01*
X38117828Y10774036D01*
X37903663Y10873903D01*
X37903659Y10873904D01*
X37903655Y10873906D01*
X37675413Y10935062D01*
X37675403Y10935064D01*
X37440001Y10955659D01*
X37439999Y10955659D01*
X37204596Y10935064D01*
X37204586Y10935062D01*
X36976344Y10873906D01*
X36976335Y10873902D01*
X36762171Y10774036D01*
X36762169Y10774035D01*
X36568597Y10638495D01*
X36401505Y10471403D01*
X36271575Y10285842D01*
X36216998Y10242217D01*
X36147500Y10235023D01*
X36085145Y10266546D01*
X36068425Y10285842D01*
X35938494Y10471403D01*
X35771402Y10638494D01*
X35771395Y10638499D01*
X35577834Y10774033D01*
X35577830Y10774035D01*
X35577828Y10774036D01*
X35363663Y10873903D01*
X35363659Y10873904D01*
X35363655Y10873906D01*
X35135413Y10935062D01*
X35135403Y10935064D01*
X34900001Y10955659D01*
X34899999Y10955659D01*
X34664596Y10935064D01*
X34664586Y10935062D01*
X34436344Y10873906D01*
X34436335Y10873902D01*
X34222171Y10774036D01*
X34222169Y10774035D01*
X34028597Y10638495D01*
X33861505Y10471403D01*
X33731575Y10285842D01*
X33676998Y10242217D01*
X33607500Y10235023D01*
X33545145Y10266546D01*
X33528425Y10285842D01*
X33398494Y10471403D01*
X33231402Y10638494D01*
X33231395Y10638499D01*
X33037834Y10774033D01*
X33037830Y10774035D01*
X33037828Y10774036D01*
X32823663Y10873903D01*
X32823659Y10873904D01*
X32823655Y10873906D01*
X32595413Y10935062D01*
X32595403Y10935064D01*
X32360001Y10955659D01*
X32359999Y10955659D01*
X32124596Y10935064D01*
X32124586Y10935062D01*
X31896344Y10873906D01*
X31896335Y10873902D01*
X31682171Y10774036D01*
X31682169Y10774035D01*
X31488597Y10638495D01*
X31321505Y10471403D01*
X31191575Y10285842D01*
X31136998Y10242217D01*
X31067500Y10235023D01*
X31005145Y10266546D01*
X30988425Y10285842D01*
X30858494Y10471403D01*
X30691402Y10638494D01*
X30691395Y10638499D01*
X30497834Y10774033D01*
X30497830Y10774035D01*
X30497828Y10774036D01*
X30283663Y10873903D01*
X30283659Y10873904D01*
X30283655Y10873906D01*
X30055413Y10935062D01*
X30055403Y10935064D01*
X29820001Y10955659D01*
X29819999Y10955659D01*
X29584596Y10935064D01*
X29584586Y10935062D01*
X29356344Y10873906D01*
X29356335Y10873902D01*
X29142171Y10774036D01*
X29142169Y10774035D01*
X28948597Y10638495D01*
X28781505Y10471403D01*
X28651575Y10285842D01*
X28596998Y10242217D01*
X28527500Y10235023D01*
X28465145Y10266546D01*
X28448425Y10285842D01*
X28318494Y10471403D01*
X28151402Y10638494D01*
X28151395Y10638499D01*
X27957834Y10774033D01*
X27957830Y10774035D01*
X27957828Y10774036D01*
X27743663Y10873903D01*
X27743659Y10873904D01*
X27743655Y10873906D01*
X27515413Y10935062D01*
X27515403Y10935064D01*
X27280001Y10955659D01*
X27279999Y10955659D01*
X27044596Y10935064D01*
X27044586Y10935062D01*
X26816344Y10873906D01*
X26816335Y10873902D01*
X26602171Y10774036D01*
X26602169Y10774035D01*
X26408597Y10638495D01*
X26241505Y10471403D01*
X26111575Y10285842D01*
X26056998Y10242217D01*
X25987500Y10235023D01*
X25925145Y10266546D01*
X25908425Y10285842D01*
X25778494Y10471403D01*
X25611402Y10638494D01*
X25611395Y10638499D01*
X25417834Y10774033D01*
X25417830Y10774035D01*
X25417828Y10774036D01*
X25203663Y10873903D01*
X25203659Y10873904D01*
X25203655Y10873906D01*
X24975413Y10935062D01*
X24975403Y10935064D01*
X24740001Y10955659D01*
X24739999Y10955659D01*
X24504596Y10935064D01*
X24504586Y10935062D01*
X24276344Y10873906D01*
X24276335Y10873902D01*
X24062171Y10774036D01*
X24062169Y10774035D01*
X23868597Y10638495D01*
X23701505Y10471403D01*
X23571575Y10285842D01*
X23516998Y10242217D01*
X23447500Y10235023D01*
X23385145Y10266546D01*
X23368425Y10285842D01*
X23238494Y10471403D01*
X23071402Y10638494D01*
X23071395Y10638499D01*
X22877834Y10774033D01*
X22877830Y10774035D01*
X22877828Y10774036D01*
X22663663Y10873903D01*
X22663659Y10873904D01*
X22663655Y10873906D01*
X22435413Y10935062D01*
X22435403Y10935064D01*
X22200001Y10955659D01*
X22199999Y10955659D01*
X21964596Y10935064D01*
X21964586Y10935062D01*
X21736344Y10873906D01*
X21736335Y10873902D01*
X21522171Y10774036D01*
X21522169Y10774035D01*
X21328597Y10638495D01*
X21161505Y10471403D01*
X21031575Y10285842D01*
X20976998Y10242217D01*
X20907500Y10235023D01*
X20845145Y10266546D01*
X20828425Y10285842D01*
X20698494Y10471403D01*
X20531402Y10638494D01*
X20531395Y10638499D01*
X20337834Y10774033D01*
X20337830Y10774035D01*
X20337828Y10774036D01*
X20123663Y10873903D01*
X20123659Y10873904D01*
X20123655Y10873906D01*
X19895413Y10935062D01*
X19895403Y10935064D01*
X19660001Y10955659D01*
X19659999Y10955659D01*
X19424596Y10935064D01*
X19424586Y10935062D01*
X19196344Y10873906D01*
X19196335Y10873902D01*
X18982171Y10774036D01*
X18982169Y10774035D01*
X18788600Y10638497D01*
X18666673Y10516570D01*
X18605350Y10483086D01*
X18535658Y10488070D01*
X18479725Y10529942D01*
X18462810Y10560919D01*
X18413797Y10692329D01*
X18413793Y10692336D01*
X18327547Y10807545D01*
X18327544Y10807548D01*
X18212335Y10893794D01*
X18212328Y10893798D01*
X18077482Y10944092D01*
X18077483Y10944092D01*
X18017883Y10950499D01*
X18017881Y10950500D01*
X18017873Y10950500D01*
X18017864Y10950500D01*
X16222129Y10950500D01*
X16222123Y10950499D01*
X16162516Y10944092D01*
X16027671Y10893798D01*
X16027664Y10893794D01*
X15912455Y10807548D01*
X15912452Y10807545D01*
X15826206Y10692336D01*
X15826202Y10692329D01*
X15775908Y10557483D01*
X15769501Y10497884D01*
X15769500Y10497865D01*
X15769500Y8702130D01*
X15769501Y8702124D01*
X15775908Y8642517D01*
X15826202Y8507672D01*
X15826206Y8507665D01*
X15912452Y8392456D01*
X15912455Y8392453D01*
X16027664Y8306207D01*
X16027671Y8306203D01*
X16159081Y8257190D01*
X16215015Y8215319D01*
X16239432Y8149855D01*
X16224580Y8081582D01*
X16203430Y8053327D01*
X16081503Y7931400D01*
X15945965Y7737831D01*
X15945964Y7737829D01*
X15846098Y7523665D01*
X15846094Y7523656D01*
X15784938Y7295414D01*
X15784936Y7295404D01*
X15764341Y7060001D01*
X15764341Y7060000D01*
X9546496Y7060000D01*
X9523737Y7144937D01*
X9384755Y7506995D01*
X9208689Y7852544D01*
X8997468Y8177794D01*
X8788904Y8435351D01*
X8788903Y8435352D01*
X7294251Y6940700D01*
X7220412Y7042330D01*
X7042330Y7220412D01*
X6940698Y7294252D01*
X8435350Y8788904D01*
X8435350Y8788905D01*
X8177793Y8997469D01*
X7852543Y9208690D01*
X7506994Y9384756D01*
X7144936Y9523738D01*
X6770330Y9624113D01*
X6770323Y9624114D01*
X6387287Y9684781D01*
X6000001Y9705078D01*
X5999999Y9705078D01*
X5612712Y9684781D01*
X5229676Y9624114D01*
X5229669Y9624113D01*
X4855063Y9523738D01*
X4493005Y9384756D01*
X4147456Y9208690D01*
X3822206Y8997469D01*
X3564648Y8788905D01*
X3564648Y8788904D01*
X5059301Y7294252D01*
X4957670Y7220412D01*
X4779588Y7042330D01*
X4705748Y6940700D01*
X3211096Y8435352D01*
X3211095Y8435352D01*
X3002531Y8177794D01*
X2791310Y7852544D01*
X2615244Y7506995D01*
X2476262Y7144937D01*
X2375887Y6770331D01*
X2375886Y6770324D01*
X2315219Y6387288D01*
X2294922Y6000001D01*
X2294922Y6000000D01*
X1000000Y6000000D01*
X1000000Y17010000D01*
X21149815Y17010000D01*
X21168503Y16832195D01*
X21168504Y16832193D01*
X21223747Y16662171D01*
X21223750Y16662165D01*
X21313141Y16507335D01*
X21330105Y16488495D01*
X21432764Y16374479D01*
X21432767Y16374477D01*
X21432770Y16374474D01*
X21577407Y16269388D01*
X21740733Y16196671D01*
X21915609Y16159500D01*
X21915610Y16159500D01*
X22094389Y16159500D01*
X22094391Y16159500D01*
X22269267Y16196671D01*
X22432593Y16269388D01*
X22577230Y16374474D01*
X22696859Y16507335D01*
X22786250Y16662165D01*
X22841497Y16832197D01*
X22860185Y17010000D01*
X22841497Y17187803D01*
X22786250Y17357835D01*
X22696859Y17512665D01*
X22650003Y17564704D01*
X22577235Y17645522D01*
X22577232Y17645524D01*
X22577231Y17645525D01*
X22577230Y17645526D01*
X22432593Y17750612D01*
X22299205Y17810000D01*
X28469815Y17810000D01*
X28488503Y17632195D01*
X28488504Y17632193D01*
X28543747Y17462171D01*
X28543750Y17462165D01*
X28633141Y17307335D01*
X28636002Y17304158D01*
X28752764Y17174479D01*
X28752767Y17174477D01*
X28752770Y17174474D01*
X28897407Y17069388D01*
X29060733Y16996671D01*
X29235609Y16959500D01*
X29235610Y16959500D01*
X29414389Y16959500D01*
X29414391Y16959500D01*
X29589267Y16996671D01*
X29752593Y17069388D01*
X29897230Y17174474D01*
X30016859Y17307335D01*
X30106250Y17462165D01*
X30161497Y17632197D01*
X30170726Y17720000D01*
X34964815Y17720000D01*
X34983503Y17542195D01*
X34983504Y17542193D01*
X35038747Y17372171D01*
X35038750Y17372165D01*
X35128141Y17217335D01*
X35154729Y17187806D01*
X35247764Y17084479D01*
X35247767Y17084477D01*
X35247770Y17084474D01*
X35392407Y16979388D01*
X35555733Y16906671D01*
X35730609Y16869500D01*
X35730610Y16869500D01*
X35909389Y16869500D01*
X35909391Y16869500D01*
X36084267Y16906671D01*
X36247593Y16979388D01*
X36392230Y17084474D01*
X36511859Y17217335D01*
X36601250Y17372165D01*
X36656497Y17542197D01*
X36675185Y17720000D01*
X39964815Y17720000D01*
X39983503Y17542195D01*
X39983504Y17542193D01*
X40038747Y17372171D01*
X40038750Y17372165D01*
X40128141Y17217335D01*
X40154729Y17187806D01*
X40247764Y17084479D01*
X40247767Y17084477D01*
X40247770Y17084474D01*
X40392407Y16979388D01*
X40555733Y16906671D01*
X40730609Y16869500D01*
X40730610Y16869500D01*
X40909389Y16869500D01*
X40909391Y16869500D01*
X41084267Y16906671D01*
X41247593Y16979388D01*
X41392230Y17084474D01*
X41511859Y17217335D01*
X41601250Y17372165D01*
X41656497Y17542197D01*
X41675185Y17720000D01*
X41656497Y17897803D01*
X41626540Y17990001D01*
X41601252Y18067830D01*
X41601249Y18067836D01*
X41550692Y18155404D01*
X41511859Y18222665D01*
X41465003Y18274704D01*
X41392235Y18355522D01*
X41392232Y18355524D01*
X41392231Y18355525D01*
X41392230Y18355526D01*
X41247593Y18460612D01*
X41084267Y18533329D01*
X41084265Y18533330D01*
X40956594Y18560467D01*
X40909391Y18570500D01*
X40730609Y18570500D01*
X40699954Y18563985D01*
X40555733Y18533330D01*
X40555728Y18533328D01*
X40392408Y18460613D01*
X40247768Y18355525D01*
X40128140Y18222664D01*
X40038750Y18067836D01*
X40038747Y18067830D01*
X39983504Y17897808D01*
X39983503Y17897806D01*
X39964815Y17720000D01*
X36675185Y17720000D01*
X36656497Y17897803D01*
X36626540Y17990001D01*
X36601252Y18067830D01*
X36601249Y18067836D01*
X36550692Y18155404D01*
X36511859Y18222665D01*
X36465003Y18274704D01*
X36392235Y18355522D01*
X36392232Y18355524D01*
X36392231Y18355525D01*
X36392230Y18355526D01*
X36247593Y18460612D01*
X36084267Y18533329D01*
X36084265Y18533330D01*
X35956594Y18560467D01*
X35909391Y18570500D01*
X35730609Y18570500D01*
X35699954Y18563985D01*
X35555733Y18533330D01*
X35555728Y18533328D01*
X35392408Y18460613D01*
X35247768Y18355525D01*
X35128140Y18222664D01*
X35038750Y18067836D01*
X35038747Y18067830D01*
X34983504Y17897808D01*
X34983503Y17897806D01*
X34964815Y17720000D01*
X30170726Y17720000D01*
X30180185Y17810000D01*
X30161497Y17987803D01*
X30106250Y18157835D01*
X30016859Y18312665D01*
X29970003Y18364704D01*
X29897235Y18445522D01*
X29897232Y18445524D01*
X29897231Y18445525D01*
X29897230Y18445526D01*
X29752593Y18550612D01*
X29589267Y18623329D01*
X29589265Y18623330D01*
X29432993Y18656546D01*
X29414391Y18660500D01*
X29235609Y18660500D01*
X29217007Y18656546D01*
X29060733Y18623330D01*
X29060728Y18623328D01*
X28897408Y18550613D01*
X28752768Y18445525D01*
X28633140Y18312664D01*
X28543750Y18157836D01*
X28543747Y18157830D01*
X28488504Y17987808D01*
X28488503Y17987806D01*
X28469815Y17810000D01*
X22299205Y17810000D01*
X22269267Y17823329D01*
X22269265Y17823330D01*
X22141594Y17850467D01*
X22094391Y17860500D01*
X21915609Y17860500D01*
X21884954Y17853985D01*
X21740733Y17823330D01*
X21740728Y17823328D01*
X21577408Y17750613D01*
X21432768Y17645525D01*
X21313140Y17512664D01*
X21223750Y17357836D01*
X21223747Y17357830D01*
X21168504Y17187808D01*
X21168503Y17187806D01*
X21149815Y17010000D01*
X1000000Y17010000D01*
X1000000Y18930000D01*
X4604341Y18930000D01*
X4624936Y18694597D01*
X4624938Y18694587D01*
X4686094Y18466345D01*
X4686096Y18466341D01*
X4686097Y18466337D01*
X4723594Y18385925D01*
X4785965Y18252170D01*
X4785967Y18252166D01*
X4853721Y18155404D01*
X4921505Y18058599D01*
X5088599Y17891505D01*
X5132879Y17860500D01*
X5282165Y17755968D01*
X5282167Y17755967D01*
X5282170Y17755965D01*
X5496337Y17656097D01*
X5724592Y17594937D01*
X5912918Y17578461D01*
X5959999Y17574341D01*
X5960000Y17574341D01*
X5960001Y17574341D01*
X5999234Y17577774D01*
X6195408Y17594937D01*
X6423663Y17656097D01*
X6637830Y17755965D01*
X6831401Y17891505D01*
X6998495Y18058599D01*
X7128425Y18244158D01*
X7183002Y18287783D01*
X7252500Y18294977D01*
X7314855Y18263454D01*
X7331575Y18244158D01*
X7461500Y18058605D01*
X7461505Y18058599D01*
X7628599Y17891505D01*
X7672879Y17860500D01*
X7822165Y17755968D01*
X7822167Y17755967D01*
X7822170Y17755965D01*
X8036337Y17656097D01*
X8264592Y17594937D01*
X8452918Y17578461D01*
X8499999Y17574341D01*
X8500000Y17574341D01*
X8500001Y17574341D01*
X8539234Y17577774D01*
X8735408Y17594937D01*
X8963663Y17656097D01*
X9177830Y17755965D01*
X9371401Y17891505D01*
X9538495Y18058599D01*
X9674035Y18252170D01*
X9773903Y18466337D01*
X9835063Y18694592D01*
X9855659Y18930000D01*
X9835063Y19165408D01*
X9773903Y19393663D01*
X9724317Y19500000D01*
X45914815Y19500000D01*
X45933503Y19322195D01*
X45933504Y19322193D01*
X45988747Y19152171D01*
X45988750Y19152165D01*
X46078141Y18997335D01*
X46113460Y18958109D01*
X46197764Y18864479D01*
X46197767Y18864477D01*
X46197770Y18864474D01*
X46342407Y18759388D01*
X46505733Y18686671D01*
X46680609Y18649500D01*
X46680610Y18649500D01*
X46859389Y18649500D01*
X46859391Y18649500D01*
X47034267Y18686671D01*
X47197593Y18759388D01*
X47342230Y18864474D01*
X47461859Y18997335D01*
X47551250Y19152165D01*
X47606497Y19322197D01*
X47625185Y19500000D01*
X47606497Y19677803D01*
X47572504Y19782422D01*
X47551252Y19847830D01*
X47551249Y19847836D01*
X47528186Y19887783D01*
X47461859Y20002665D01*
X47404521Y20066345D01*
X47342235Y20135522D01*
X47342232Y20135524D01*
X47342231Y20135525D01*
X47342230Y20135526D01*
X47197593Y20240612D01*
X47034267Y20313329D01*
X47034265Y20313330D01*
X46906594Y20340467D01*
X46859391Y20350500D01*
X46680609Y20350500D01*
X46649954Y20343985D01*
X46505733Y20313330D01*
X46505728Y20313328D01*
X46342408Y20240613D01*
X46197768Y20135525D01*
X46078140Y20002664D01*
X45988750Y19847836D01*
X45988747Y19847830D01*
X45933504Y19677808D01*
X45933503Y19677806D01*
X45914815Y19500000D01*
X9724317Y19500000D01*
X9674035Y19607829D01*
X9668425Y19615842D01*
X9538494Y19801403D01*
X9371402Y19968494D01*
X9371396Y19968499D01*
X9185842Y20098425D01*
X9142217Y20153002D01*
X9135023Y20222500D01*
X9166546Y20284855D01*
X9185842Y20301575D01*
X9255714Y20350500D01*
X9371401Y20431505D01*
X9538495Y20598599D01*
X9674035Y20792170D01*
X9773903Y21006337D01*
X9835063Y21234592D01*
X9855659Y21470000D01*
X9853517Y21494477D01*
X9841992Y21626213D01*
X9835063Y21705408D01*
X9773903Y21933663D01*
X9674035Y22147829D01*
X9670980Y22152193D01*
X9538494Y22341403D01*
X9371402Y22508494D01*
X9371396Y22508499D01*
X9185842Y22638425D01*
X9142217Y22693002D01*
X9135023Y22762500D01*
X9166546Y22824855D01*
X9185842Y22841575D01*
X9218552Y22864479D01*
X9371401Y22971505D01*
X9538495Y23138599D01*
X9674035Y23332170D01*
X9773903Y23546337D01*
X9833833Y23770000D01*
X21534815Y23770000D01*
X21553503Y23592195D01*
X21553504Y23592193D01*
X21608747Y23422171D01*
X21608750Y23422165D01*
X21698141Y23267335D01*
X21739812Y23221054D01*
X21817764Y23134479D01*
X21817767Y23134477D01*
X21817770Y23134474D01*
X21962407Y23029388D01*
X22125733Y22956671D01*
X22300609Y22919500D01*
X22300610Y22919500D01*
X22479389Y22919500D01*
X22479391Y22919500D01*
X22654267Y22956671D01*
X22817593Y23029388D01*
X22962230Y23134474D01*
X22965944Y23138598D01*
X23009377Y23186836D01*
X23081859Y23267335D01*
X23171250Y23422165D01*
X23196540Y23500000D01*
X26814815Y23500000D01*
X26833503Y23322195D01*
X26833504Y23322193D01*
X26888747Y23152171D01*
X26888750Y23152165D01*
X26978141Y22997335D01*
X27006782Y22965526D01*
X27097764Y22864479D01*
X27097767Y22864477D01*
X27097770Y22864474D01*
X27242407Y22759388D01*
X27405733Y22686671D01*
X27454260Y22676357D01*
X27515740Y22643166D01*
X27549517Y22582003D01*
X27546411Y22516754D01*
X27543504Y22507807D01*
X27543503Y22507806D01*
X27524815Y22330000D01*
X27543503Y22152195D01*
X27543504Y22152193D01*
X27598747Y21982171D01*
X27598750Y21982165D01*
X27688141Y21827335D01*
X27712754Y21800000D01*
X27807764Y21694479D01*
X27807767Y21694477D01*
X27807770Y21694474D01*
X27952407Y21589388D01*
X28115733Y21516671D01*
X28290609Y21479500D01*
X28290610Y21479500D01*
X28469389Y21479500D01*
X28469391Y21479500D01*
X28644267Y21516671D01*
X28807593Y21589388D01*
X28807596Y21589391D01*
X28812532Y21591588D01*
X28881782Y21600872D01*
X28945058Y21571244D01*
X28955117Y21561280D01*
X29015264Y21494479D01*
X29015267Y21494477D01*
X29015270Y21494474D01*
X29159907Y21389388D01*
X29323233Y21316671D01*
X29498109Y21279500D01*
X29498110Y21279500D01*
X29676889Y21279500D01*
X29676891Y21279500D01*
X29851767Y21316671D01*
X30015093Y21389388D01*
X30159730Y21494474D01*
X30279359Y21627335D01*
X30368750Y21782165D01*
X30423997Y21952197D01*
X30442685Y22130000D01*
X33732315Y22130000D01*
X33751003Y21952195D01*
X33751004Y21952193D01*
X33806247Y21782171D01*
X33806250Y21782165D01*
X33895641Y21627335D01*
X33929807Y21589390D01*
X34015264Y21494479D01*
X34015267Y21494477D01*
X34015270Y21494474D01*
X34159907Y21389388D01*
X34323233Y21316671D01*
X34498109Y21279500D01*
X34498110Y21279500D01*
X34676889Y21279500D01*
X34676891Y21279500D01*
X34851767Y21316671D01*
X35015093Y21389388D01*
X35159730Y21494474D01*
X35245352Y21589568D01*
X35304836Y21626213D01*
X35374693Y21624884D01*
X35429647Y21589568D01*
X35515270Y21494474D01*
X35659907Y21389388D01*
X35823233Y21316671D01*
X35998109Y21279500D01*
X35998110Y21279500D01*
X36176889Y21279500D01*
X36176891Y21279500D01*
X36351767Y21316671D01*
X36515093Y21389388D01*
X36659730Y21494474D01*
X36779359Y21627335D01*
X36868750Y21782165D01*
X36923997Y21952197D01*
X36942685Y22130000D01*
X38732315Y22130000D01*
X38751003Y21952195D01*
X38751004Y21952193D01*
X38806247Y21782171D01*
X38806250Y21782165D01*
X38895641Y21627335D01*
X38929807Y21589390D01*
X39015264Y21494479D01*
X39015267Y21494477D01*
X39015270Y21494474D01*
X39159907Y21389388D01*
X39323233Y21316671D01*
X39498109Y21279500D01*
X39498110Y21279500D01*
X39676889Y21279500D01*
X39676891Y21279500D01*
X39851767Y21316671D01*
X40015093Y21389388D01*
X40159730Y21494474D01*
X40245352Y21589568D01*
X40304836Y21626213D01*
X40374693Y21624884D01*
X40429647Y21589568D01*
X40515270Y21494474D01*
X40659907Y21389388D01*
X40823233Y21316671D01*
X40998109Y21279500D01*
X40998110Y21279500D01*
X41176889Y21279500D01*
X41176891Y21279500D01*
X41351767Y21316671D01*
X41515093Y21389388D01*
X41659730Y21494474D01*
X41779359Y21627335D01*
X41868750Y21782165D01*
X41923997Y21952197D01*
X41942685Y22130000D01*
X43732315Y22130000D01*
X43751003Y21952195D01*
X43751004Y21952193D01*
X43806247Y21782171D01*
X43806250Y21782165D01*
X43895641Y21627335D01*
X43929807Y21589390D01*
X44015264Y21494479D01*
X44015267Y21494477D01*
X44015270Y21494474D01*
X44159907Y21389388D01*
X44323233Y21316671D01*
X44498109Y21279500D01*
X44498110Y21279500D01*
X44676889Y21279500D01*
X44676891Y21279500D01*
X44851767Y21316671D01*
X45015093Y21389388D01*
X45159730Y21494474D01*
X45279359Y21627335D01*
X45368750Y21782165D01*
X45423997Y21952197D01*
X45442685Y22130000D01*
X45423997Y22307803D01*
X45385013Y22427783D01*
X45368752Y22477830D01*
X45368749Y22477836D01*
X45351446Y22507806D01*
X45279359Y22632665D01*
X45225031Y22693002D01*
X45159735Y22765522D01*
X45159732Y22765524D01*
X45159731Y22765525D01*
X45159730Y22765526D01*
X45015093Y22870612D01*
X44851767Y22943329D01*
X44851765Y22943330D01*
X44719200Y22971507D01*
X44676891Y22980500D01*
X44498109Y22980500D01*
X44467454Y22973985D01*
X44323233Y22943330D01*
X44323228Y22943328D01*
X44159908Y22870613D01*
X44015268Y22765525D01*
X43895640Y22632664D01*
X43806250Y22477836D01*
X43806247Y22477830D01*
X43751004Y22307808D01*
X43751003Y22307806D01*
X43732315Y22130000D01*
X41942685Y22130000D01*
X41923997Y22307803D01*
X41885013Y22427783D01*
X41868752Y22477830D01*
X41868749Y22477836D01*
X41851446Y22507806D01*
X41779359Y22632665D01*
X41725031Y22693002D01*
X41659735Y22765522D01*
X41659732Y22765524D01*
X41659731Y22765525D01*
X41659730Y22765526D01*
X41515093Y22870612D01*
X41351767Y22943329D01*
X41351765Y22943330D01*
X41219200Y22971507D01*
X41176891Y22980500D01*
X40998109Y22980500D01*
X40967454Y22973985D01*
X40823233Y22943330D01*
X40823228Y22943328D01*
X40659908Y22870613D01*
X40515271Y22765527D01*
X40515270Y22765526D01*
X40429648Y22670435D01*
X40370163Y22633787D01*
X40300306Y22635118D01*
X40245350Y22670436D01*
X40159735Y22765522D01*
X40159732Y22765524D01*
X40159731Y22765525D01*
X40159730Y22765526D01*
X40015093Y22870612D01*
X39851767Y22943329D01*
X39851765Y22943330D01*
X39719200Y22971507D01*
X39676891Y22980500D01*
X39498109Y22980500D01*
X39467454Y22973985D01*
X39323233Y22943330D01*
X39323228Y22943328D01*
X39159908Y22870613D01*
X39015268Y22765525D01*
X38895640Y22632664D01*
X38806250Y22477836D01*
X38806247Y22477830D01*
X38751004Y22307808D01*
X38751003Y22307806D01*
X38732315Y22130000D01*
X36942685Y22130000D01*
X36923997Y22307803D01*
X36885013Y22427783D01*
X36868752Y22477830D01*
X36868749Y22477836D01*
X36851446Y22507806D01*
X36779359Y22632665D01*
X36725031Y22693002D01*
X36659735Y22765522D01*
X36659732Y22765524D01*
X36659731Y22765525D01*
X36659730Y22765526D01*
X36515093Y22870612D01*
X36351767Y22943329D01*
X36351765Y22943330D01*
X36219200Y22971507D01*
X36176891Y22980500D01*
X35998109Y22980500D01*
X35967454Y22973985D01*
X35823233Y22943330D01*
X35823228Y22943328D01*
X35659908Y22870613D01*
X35515271Y22765527D01*
X35515270Y22765526D01*
X35429648Y22670435D01*
X35370163Y22633787D01*
X35300306Y22635118D01*
X35245350Y22670436D01*
X35159735Y22765522D01*
X35159732Y22765524D01*
X35159731Y22765525D01*
X35159730Y22765526D01*
X35015093Y22870612D01*
X34851767Y22943329D01*
X34851765Y22943330D01*
X34719200Y22971507D01*
X34676891Y22980500D01*
X34498109Y22980500D01*
X34467454Y22973985D01*
X34323233Y22943330D01*
X34323228Y22943328D01*
X34159908Y22870613D01*
X34015268Y22765525D01*
X33895640Y22632664D01*
X33806250Y22477836D01*
X33806247Y22477830D01*
X33751004Y22307808D01*
X33751003Y22307806D01*
X33732315Y22130000D01*
X30442685Y22130000D01*
X30423997Y22307803D01*
X30385013Y22427783D01*
X30368752Y22477830D01*
X30368749Y22477836D01*
X30351446Y22507806D01*
X30279359Y22632665D01*
X30225031Y22693002D01*
X30159735Y22765522D01*
X30159732Y22765524D01*
X30159731Y22765525D01*
X30159730Y22765526D01*
X30015093Y22870612D01*
X29851767Y22943329D01*
X29851765Y22943330D01*
X29719200Y22971507D01*
X29676891Y22980500D01*
X29498109Y22980500D01*
X29467454Y22973985D01*
X29323233Y22943330D01*
X29323232Y22943330D01*
X29154967Y22868413D01*
X29085717Y22859129D01*
X29022440Y22888758D01*
X29012382Y22898721D01*
X28952235Y22965522D01*
X28952232Y22965524D01*
X28952231Y22965525D01*
X28952230Y22965526D01*
X28807593Y23070612D01*
X28644267Y23143329D01*
X28644265Y23143330D01*
X28644264Y23143330D01*
X28595740Y23153644D01*
X28534258Y23186836D01*
X28500482Y23248000D01*
X28503590Y23313253D01*
X28506497Y23322197D01*
X28525185Y23500000D01*
X28506497Y23677803D01*
X28451250Y23847835D01*
X28361859Y24002665D01*
X28281343Y24092087D01*
X28242235Y24135522D01*
X28242232Y24135524D01*
X28242231Y24135525D01*
X28242230Y24135526D01*
X28097593Y24240612D01*
X27934267Y24313329D01*
X27934265Y24313330D01*
X27791867Y24343597D01*
X27759391Y24350500D01*
X27580609Y24350500D01*
X27550462Y24344092D01*
X27405733Y24313330D01*
X27405728Y24313328D01*
X27242408Y24240613D01*
X27097768Y24135525D01*
X26978140Y24002664D01*
X26888750Y23847836D01*
X26888747Y23847830D01*
X26833504Y23677808D01*
X26833503Y23677806D01*
X26814815Y23500000D01*
X23196540Y23500000D01*
X23226497Y23592197D01*
X23245185Y23770000D01*
X23226497Y23947803D01*
X23179614Y24092094D01*
X23171252Y24117830D01*
X23171249Y24117836D01*
X23161037Y24135524D01*
X23081859Y24272665D01*
X23021230Y24340000D01*
X22962235Y24405522D01*
X22962232Y24405524D01*
X22962231Y24405525D01*
X22962230Y24405526D01*
X22817593Y24510612D01*
X22654267Y24583329D01*
X22654265Y24583330D01*
X22526594Y24610467D01*
X22479391Y24620500D01*
X22300609Y24620500D01*
X22269954Y24613985D01*
X22125733Y24583330D01*
X22125728Y24583328D01*
X21962408Y24510613D01*
X21817768Y24405525D01*
X21698140Y24272664D01*
X21608750Y24117836D01*
X21608747Y24117830D01*
X21553504Y23947808D01*
X21553503Y23947806D01*
X21534815Y23770000D01*
X9833833Y23770000D01*
X9835063Y23774592D01*
X9855659Y24010000D01*
X9835063Y24245408D01*
X9773903Y24473663D01*
X9674035Y24687829D01*
X9668425Y24695842D01*
X9538494Y24881403D01*
X9371402Y25048494D01*
X9371396Y25048499D01*
X9185842Y25178425D01*
X9142217Y25233002D01*
X9135023Y25302500D01*
X9166546Y25364855D01*
X9185842Y25381575D01*
X9337558Y25487808D01*
X9371401Y25511505D01*
X9538495Y25678599D01*
X9674035Y25872170D01*
X9773903Y26086337D01*
X9835063Y26314592D01*
X9855659Y26550000D01*
X9850094Y26613602D01*
X22661213Y26613602D01*
X22679901Y26435797D01*
X22679902Y26435795D01*
X22735145Y26265773D01*
X22735148Y26265767D01*
X22824539Y26110937D01*
X22854225Y26077968D01*
X22944162Y25978081D01*
X22944165Y25978079D01*
X22944168Y25978076D01*
X23088805Y25872990D01*
X23252131Y25800273D01*
X23427007Y25763102D01*
X23427008Y25763102D01*
X23605787Y25763102D01*
X23605789Y25763102D01*
X23780665Y25800273D01*
X23943991Y25872990D01*
X24088628Y25978076D01*
X24208257Y26110937D01*
X24297648Y26265767D01*
X24352895Y26435799D01*
X24371583Y26613602D01*
X24352895Y26791405D01*
X24297648Y26961437D01*
X24208257Y27116267D01*
X24152699Y27177970D01*
X24088633Y27249124D01*
X24088630Y27249126D01*
X24088629Y27249127D01*
X24088628Y27249128D01*
X23943991Y27354214D01*
X23780665Y27426931D01*
X23780663Y27426932D01*
X23652992Y27454069D01*
X23605789Y27464102D01*
X23427007Y27464102D01*
X23396352Y27457587D01*
X23252131Y27426932D01*
X23252126Y27426930D01*
X23088806Y27354215D01*
X22944166Y27249127D01*
X22824538Y27116266D01*
X22735148Y26961438D01*
X22735145Y26961432D01*
X22679902Y26791410D01*
X22679901Y26791408D01*
X22661213Y26613602D01*
X9850094Y26613602D01*
X9835063Y26785408D01*
X9773903Y27013663D01*
X9674035Y27227829D01*
X9668425Y27235842D01*
X9538494Y27421403D01*
X9371402Y27588494D01*
X9371396Y27588499D01*
X9185842Y27718425D01*
X9142217Y27773002D01*
X9135023Y27842500D01*
X9166546Y27904855D01*
X9185842Y27921575D01*
X9247115Y27964479D01*
X9371401Y28051505D01*
X9538495Y28218599D01*
X9674035Y28412170D01*
X9773903Y28626337D01*
X9835063Y28854592D01*
X9855659Y29090000D01*
X9835063Y29325408D01*
X9782501Y29521575D01*
X9773905Y29553656D01*
X9773904Y29553657D01*
X9773903Y29553663D01*
X9674035Y29767829D01*
X9668425Y29775842D01*
X9538494Y29961403D01*
X9371402Y30128494D01*
X9371396Y30128499D01*
X9185842Y30258425D01*
X9142217Y30313002D01*
X9135023Y30382500D01*
X9166546Y30444855D01*
X9185842Y30461575D01*
X9291453Y30535525D01*
X9371401Y30591505D01*
X9538495Y30758599D01*
X9674035Y30952170D01*
X9773903Y31166337D01*
X9835063Y31394592D01*
X9855659Y31630000D01*
X9843410Y31770000D01*
X22534815Y31770000D01*
X22553503Y31592195D01*
X22553504Y31592193D01*
X22608747Y31422171D01*
X22608750Y31422165D01*
X22698141Y31267335D01*
X22727232Y31235026D01*
X22817764Y31134479D01*
X22817767Y31134477D01*
X22817770Y31134474D01*
X22962407Y31029388D01*
X23125733Y30956671D01*
X23300609Y30919500D01*
X23300610Y30919500D01*
X23479389Y30919500D01*
X23479391Y30919500D01*
X23654267Y30956671D01*
X23817593Y31029388D01*
X23962230Y31134474D01*
X24081859Y31267335D01*
X24171250Y31422165D01*
X24226497Y31592197D01*
X24245185Y31770000D01*
X24226497Y31947803D01*
X24187658Y32067337D01*
X24171252Y32117830D01*
X24171249Y32117836D01*
X24141132Y32170000D01*
X26874815Y32170000D01*
X26893503Y31992195D01*
X26893504Y31992193D01*
X26948747Y31822171D01*
X26948750Y31822165D01*
X27038141Y31667335D01*
X27054200Y31649500D01*
X27157764Y31534479D01*
X27157767Y31534477D01*
X27157770Y31534474D01*
X27302407Y31429388D01*
X27465733Y31356671D01*
X27640609Y31319500D01*
X27640610Y31319500D01*
X27819389Y31319500D01*
X27819391Y31319500D01*
X27953750Y31348059D01*
X28023417Y31342743D01*
X28079151Y31300606D01*
X28103256Y31235026D01*
X28088079Y31166825D01*
X28086919Y31164770D01*
X28027458Y31061780D01*
X28027456Y31061777D01*
X27972213Y30891755D01*
X27972211Y30891744D01*
X27969113Y30862273D01*
X27942528Y30797659D01*
X27896230Y30761958D01*
X27838727Y30736356D01*
X27694087Y30631268D01*
X27574459Y30498407D01*
X27485069Y30343579D01*
X27485066Y30343573D01*
X27429823Y30173551D01*
X27429822Y30173548D01*
X27415282Y30035210D01*
X27388697Y29970595D01*
X27364847Y29947855D01*
X27237772Y29855529D01*
X27237770Y29855527D01*
X27118140Y29722664D01*
X27028750Y29567836D01*
X27028747Y29567830D01*
X26973504Y29397808D01*
X26973503Y29397806D01*
X26954815Y29220000D01*
X26973503Y29042195D01*
X26973504Y29042193D01*
X27028747Y28872171D01*
X27028750Y28872165D01*
X27118141Y28717335D01*
X27153733Y28677806D01*
X27237764Y28584479D01*
X27237767Y28584477D01*
X27237770Y28584474D01*
X27382407Y28479388D01*
X27514562Y28420550D01*
X27567798Y28375300D01*
X27588120Y28308451D01*
X27571513Y28245270D01*
X27490554Y28105045D01*
X27490551Y28105039D01*
X27435308Y27935017D01*
X27435307Y27935015D01*
X27416619Y27757209D01*
X27435307Y27579404D01*
X27435308Y27579402D01*
X27490551Y27409380D01*
X27490554Y27409374D01*
X27579945Y27254544D01*
X27614159Y27216546D01*
X27699568Y27121688D01*
X27699571Y27121686D01*
X27699574Y27121683D01*
X27844211Y27016597D01*
X28007537Y26943880D01*
X28059002Y26932941D01*
X28120484Y26899749D01*
X28154261Y26838586D01*
X28156542Y26824617D01*
X28156778Y26822370D01*
X28156780Y26822360D01*
X28212023Y26652338D01*
X28212026Y26652332D01*
X28301417Y26497502D01*
X28343088Y26451221D01*
X28421040Y26364646D01*
X28421043Y26364644D01*
X28421046Y26364641D01*
X28565683Y26259555D01*
X28663568Y26215974D01*
X28716804Y26170725D01*
X28737126Y26103876D01*
X28718081Y26036652D01*
X28686018Y26002378D01*
X28607772Y25945529D01*
X28607770Y25945527D01*
X28488140Y25812664D01*
X28398750Y25657836D01*
X28398747Y25657830D01*
X28343504Y25487808D01*
X28343503Y25487806D01*
X28324815Y25310000D01*
X28343503Y25132195D01*
X28343504Y25132193D01*
X28398747Y24962171D01*
X28398750Y24962165D01*
X28488141Y24807335D01*
X28529812Y24761054D01*
X28607764Y24674479D01*
X28607767Y24674477D01*
X28607770Y24674474D01*
X28752407Y24569388D01*
X28915733Y24496671D01*
X29090609Y24459500D01*
X29090610Y24459500D01*
X29269389Y24459500D01*
X29269391Y24459500D01*
X29444267Y24496671D01*
X29607593Y24569388D01*
X29752230Y24674474D01*
X29871859Y24807335D01*
X29961250Y24962165D01*
X30016497Y25132197D01*
X30035185Y25310000D01*
X30016497Y25487803D01*
X29961250Y25657835D01*
X29871859Y25812665D01*
X29808120Y25883454D01*
X29752235Y25945522D01*
X29752232Y25945524D01*
X29752231Y25945525D01*
X29752230Y25945526D01*
X29607593Y26050612D01*
X29607592Y26050613D01*
X29509707Y26094194D01*
X29456470Y26139444D01*
X29436149Y26206293D01*
X29455194Y26273517D01*
X29487254Y26307788D01*
X29565506Y26364641D01*
X29685135Y26497502D01*
X29774526Y26652332D01*
X29829773Y26822364D01*
X29848443Y27000000D01*
X45094815Y27000000D01*
X45113503Y26822195D01*
X45113504Y26822193D01*
X45168747Y26652171D01*
X45168750Y26652165D01*
X45258141Y26497335D01*
X45299812Y26451054D01*
X45377764Y26364479D01*
X45377767Y26364477D01*
X45377770Y26364474D01*
X45522407Y26259388D01*
X45685733Y26186671D01*
X45860609Y26149500D01*
X45860610Y26149500D01*
X46039389Y26149500D01*
X46039391Y26149500D01*
X46214267Y26186671D01*
X46377593Y26259388D01*
X46522230Y26364474D01*
X46522381Y26364641D01*
X46548148Y26393259D01*
X46641859Y26497335D01*
X46731250Y26652165D01*
X46786497Y26822197D01*
X46805185Y27000000D01*
X46786497Y27177803D01*
X46731250Y27347835D01*
X46641859Y27502665D01*
X46592703Y27557258D01*
X46522235Y27635522D01*
X46522231Y27635525D01*
X46522230Y27635526D01*
X46502745Y27649683D01*
X46460080Y27705011D01*
X46454101Y27774625D01*
X46486706Y27836420D01*
X46502746Y27850318D01*
X46522230Y27864474D01*
X46641859Y27997335D01*
X46731250Y28152165D01*
X46756540Y28230000D01*
X49604815Y28230000D01*
X49623503Y28052195D01*
X49623504Y28052193D01*
X49678747Y27882171D01*
X49678750Y27882165D01*
X49768141Y27727335D01*
X49805049Y27686345D01*
X49887764Y27594479D01*
X49887767Y27594477D01*
X49887770Y27594474D01*
X50032407Y27489388D01*
X50195733Y27416671D01*
X50370609Y27379500D01*
X50370610Y27379500D01*
X50549389Y27379500D01*
X50549391Y27379500D01*
X50724267Y27416671D01*
X50887593Y27489388D01*
X51032230Y27594474D01*
X51151859Y27727335D01*
X51241250Y27882165D01*
X51296497Y28052197D01*
X51315185Y28230000D01*
X51296497Y28407803D01*
X51241250Y28577835D01*
X51151859Y28732665D01*
X51066173Y28827829D01*
X51032235Y28865522D01*
X51032232Y28865524D01*
X51032231Y28865525D01*
X51032230Y28865526D01*
X50887593Y28970612D01*
X50724267Y29043329D01*
X50724265Y29043330D01*
X50596594Y29070467D01*
X50549391Y29080500D01*
X50370609Y29080500D01*
X50339954Y29073985D01*
X50195733Y29043330D01*
X50195728Y29043328D01*
X50032408Y28970613D01*
X49887768Y28865525D01*
X49768140Y28732664D01*
X49678750Y28577836D01*
X49678747Y28577830D01*
X49623504Y28407808D01*
X49623503Y28407806D01*
X49604815Y28230000D01*
X46756540Y28230000D01*
X46786497Y28322197D01*
X46805185Y28500000D01*
X46786497Y28677803D01*
X46751659Y28785023D01*
X46731252Y28847830D01*
X46731249Y28847836D01*
X46641859Y29002665D01*
X46571776Y29080500D01*
X46522235Y29135522D01*
X46522232Y29135524D01*
X46522231Y29135525D01*
X46522230Y29135526D01*
X46377593Y29240612D01*
X46214267Y29313329D01*
X46214265Y29313330D01*
X46069505Y29344099D01*
X46039391Y29350500D01*
X45860609Y29350500D01*
X45830495Y29344099D01*
X45685733Y29313330D01*
X45685728Y29313328D01*
X45522408Y29240613D01*
X45377768Y29135525D01*
X45258140Y29002664D01*
X45168750Y28847836D01*
X45168747Y28847830D01*
X45113504Y28677808D01*
X45113503Y28677806D01*
X45094815Y28500000D01*
X45113503Y28322195D01*
X45113504Y28322193D01*
X45168747Y28152171D01*
X45168750Y28152165D01*
X45258141Y27997335D01*
X45299812Y27951054D01*
X45377764Y27864479D01*
X45377769Y27864475D01*
X45377770Y27864474D01*
X45384770Y27859388D01*
X45397255Y27850317D01*
X45439920Y27794986D01*
X45445898Y27725373D01*
X45413291Y27663578D01*
X45397255Y27649683D01*
X45377769Y27635526D01*
X45258140Y27502664D01*
X45168750Y27347836D01*
X45168747Y27347830D01*
X45113504Y27177808D01*
X45113503Y27177806D01*
X45094815Y27000000D01*
X29848443Y27000000D01*
X29848461Y27000167D01*
X29829773Y27177970D01*
X29774582Y27347830D01*
X29774528Y27347997D01*
X29774525Y27348003D01*
X29770939Y27354214D01*
X29685135Y27502832D01*
X29674200Y27514977D01*
X29636130Y27557258D01*
X29605900Y27620250D01*
X29614526Y27689585D01*
X29659267Y27743250D01*
X29725920Y27764208D01*
X29754057Y27761521D01*
X29810609Y27749500D01*
X29810610Y27749500D01*
X29989389Y27749500D01*
X29989391Y27749500D01*
X30164267Y27786671D01*
X30327593Y27859388D01*
X30472230Y27964474D01*
X30591859Y28097335D01*
X30681250Y28252165D01*
X30736497Y28422197D01*
X30755185Y28600000D01*
X30736497Y28777803D01*
X30681250Y28947835D01*
X30591859Y29102665D01*
X30545003Y29154704D01*
X30472235Y29235522D01*
X30472232Y29235524D01*
X30472231Y29235525D01*
X30472230Y29235526D01*
X30327593Y29340612D01*
X30164267Y29413329D01*
X30164265Y29413330D01*
X30027028Y29442500D01*
X29989391Y29450500D01*
X29810609Y29450500D01*
X29779954Y29443985D01*
X29635733Y29413330D01*
X29635728Y29413328D01*
X29472408Y29340613D01*
X29327768Y29235525D01*
X29208140Y29102664D01*
X29118750Y28947836D01*
X29118747Y28947830D01*
X29063504Y28777808D01*
X29063503Y28777806D01*
X29044815Y28600000D01*
X29056121Y28492427D01*
X29043551Y28423697D01*
X28995819Y28372674D01*
X28928079Y28355556D01*
X28861837Y28377779D01*
X28849297Y28388858D01*
X28848869Y28388382D01*
X28844036Y28392733D01*
X28844035Y28392734D01*
X28844034Y28392735D01*
X28699397Y28497821D01*
X28699396Y28497822D01*
X28567241Y28556661D01*
X28514004Y28601911D01*
X28493683Y28668760D01*
X28510289Y28731937D01*
X28591250Y28872165D01*
X28646497Y29042197D01*
X28661037Y29180536D01*
X28687621Y29245147D01*
X28711468Y29267887D01*
X28838549Y29360217D01*
X28958178Y29493078D01*
X29047569Y29647908D01*
X29102816Y29817940D01*
X29105914Y29847418D01*
X29132497Y29912030D01*
X29178798Y29947734D01*
X29236302Y29973335D01*
X29380939Y30078421D01*
X29500568Y30211282D01*
X29589959Y30366112D01*
X29645206Y30536144D01*
X29663894Y30713947D01*
X29645206Y30891750D01*
X29611665Y30994977D01*
X29589961Y31061777D01*
X29589959Y31061780D01*
X29589959Y31061782D01*
X29500568Y31216612D01*
X29453712Y31268651D01*
X29380944Y31349469D01*
X29380941Y31349471D01*
X29380940Y31349472D01*
X29380939Y31349473D01*
X29236302Y31454559D01*
X29072976Y31527276D01*
X29072974Y31527277D01*
X29072973Y31527277D01*
X29037486Y31534820D01*
X28976004Y31568013D01*
X28942228Y31629176D01*
X28946880Y31698890D01*
X28988485Y31755023D01*
X29012824Y31769386D01*
X29147593Y31829388D01*
X29292230Y31934474D01*
X29411859Y32067335D01*
X29501250Y32222165D01*
X29556497Y32392197D01*
X29567828Y32500000D01*
X44144815Y32500000D01*
X44163503Y32322195D01*
X44163504Y32322193D01*
X44218747Y32152171D01*
X44218750Y32152165D01*
X44308141Y31997335D01*
X44321499Y31982500D01*
X44427764Y31864479D01*
X44427767Y31864477D01*
X44427770Y31864474D01*
X44572407Y31759388D01*
X44735733Y31686671D01*
X44910609Y31649500D01*
X44910610Y31649500D01*
X45089389Y31649500D01*
X45089391Y31649500D01*
X45264267Y31686671D01*
X45427593Y31759388D01*
X45572230Y31864474D01*
X45573068Y31865404D01*
X45615925Y31913002D01*
X45691859Y31997335D01*
X45781250Y32152165D01*
X45836497Y32322197D01*
X45855185Y32500000D01*
X45836497Y32677803D01*
X45807728Y32766345D01*
X45781252Y32847830D01*
X45781249Y32847836D01*
X45691859Y33002665D01*
X45644460Y33055307D01*
X45572235Y33135522D01*
X45572231Y33135525D01*
X45572230Y33135526D01*
X45552745Y33149683D01*
X45510080Y33205011D01*
X45504101Y33274625D01*
X45536706Y33336420D01*
X45552746Y33350318D01*
X45572230Y33364474D01*
X45574807Y33367335D01*
X45598148Y33393259D01*
X45691859Y33497335D01*
X45781250Y33652165D01*
X45806540Y33730000D01*
X49604815Y33730000D01*
X49623503Y33552195D01*
X49623504Y33552193D01*
X49678747Y33382171D01*
X49678750Y33382165D01*
X49768141Y33227335D01*
X49769908Y33225373D01*
X49887764Y33094479D01*
X49887767Y33094477D01*
X49887770Y33094474D01*
X50032407Y32989388D01*
X50195733Y32916671D01*
X50370609Y32879500D01*
X50370610Y32879500D01*
X50549389Y32879500D01*
X50549391Y32879500D01*
X50724267Y32916671D01*
X50887593Y32989388D01*
X51032230Y33094474D01*
X51033103Y33095443D01*
X51069190Y33135522D01*
X51151859Y33227335D01*
X51241250Y33382165D01*
X51296497Y33552197D01*
X51315185Y33730000D01*
X51296497Y33907803D01*
X51251007Y34047806D01*
X51241252Y34077830D01*
X51241249Y34077836D01*
X51151859Y34232665D01*
X51105003Y34284704D01*
X51032235Y34365522D01*
X51032232Y34365524D01*
X51032231Y34365525D01*
X51032230Y34365526D01*
X50887593Y34470612D01*
X50724267Y34543329D01*
X50724265Y34543330D01*
X50596594Y34570467D01*
X50549391Y34580500D01*
X50370609Y34580500D01*
X50339954Y34573985D01*
X50195733Y34543330D01*
X50195728Y34543328D01*
X50032408Y34470613D01*
X49887768Y34365525D01*
X49768140Y34232664D01*
X49678750Y34077836D01*
X49678747Y34077830D01*
X49623504Y33907808D01*
X49623503Y33907806D01*
X49604815Y33730000D01*
X45806540Y33730000D01*
X45836497Y33822197D01*
X45855185Y34000000D01*
X45836497Y34177803D01*
X45783037Y34342335D01*
X45781252Y34347830D01*
X45781249Y34347836D01*
X45771037Y34365524D01*
X45691859Y34502665D01*
X45617855Y34584855D01*
X45572235Y34635522D01*
X45572232Y34635524D01*
X45572231Y34635525D01*
X45572230Y34635526D01*
X45427593Y34740612D01*
X45264267Y34813329D01*
X45264265Y34813330D01*
X45115266Y34845000D01*
X45089391Y34850500D01*
X44910609Y34850500D01*
X44884738Y34845001D01*
X44735733Y34813330D01*
X44735728Y34813328D01*
X44572408Y34740613D01*
X44427768Y34635525D01*
X44308140Y34502664D01*
X44218750Y34347836D01*
X44218747Y34347830D01*
X44163504Y34177808D01*
X44163503Y34177806D01*
X44144815Y34000000D01*
X44163503Y33822195D01*
X44163504Y33822193D01*
X44218747Y33652171D01*
X44218750Y33652165D01*
X44308141Y33497335D01*
X44336892Y33465404D01*
X44427764Y33364479D01*
X44427769Y33364475D01*
X44447255Y33350317D01*
X44489920Y33294986D01*
X44495898Y33225373D01*
X44463291Y33163578D01*
X44447255Y33149683D01*
X44427769Y33135526D01*
X44308140Y33002664D01*
X44218750Y32847836D01*
X44218747Y32847830D01*
X44163504Y32677808D01*
X44163503Y32677806D01*
X44144815Y32500000D01*
X29567828Y32500000D01*
X29575185Y32570000D01*
X29556497Y32747803D01*
X29523996Y32847830D01*
X29501252Y32917830D01*
X29501249Y32917836D01*
X29461081Y32987409D01*
X29444609Y33055307D01*
X29467461Y33121334D01*
X29495579Y33149722D01*
X29612230Y33234474D01*
X29731859Y33367335D01*
X29821250Y33522165D01*
X29876497Y33692197D01*
X29895185Y33870000D01*
X29876497Y34047803D01*
X29821250Y34217835D01*
X29731859Y34372665D01*
X29659523Y34453002D01*
X29612235Y34505522D01*
X29612232Y34505524D01*
X29612231Y34505525D01*
X29612230Y34505526D01*
X29467593Y34610612D01*
X29466738Y34610993D01*
X29466325Y34611344D01*
X29461970Y34613858D01*
X29462429Y34614655D01*
X29413504Y34656243D01*
X29393184Y34723093D01*
X29393856Y34737215D01*
X29405185Y34845000D01*
X29386497Y35022803D01*
X29331250Y35192835D01*
X29241859Y35347665D01*
X29178979Y35417500D01*
X29122235Y35480522D01*
X29122232Y35480524D01*
X29122231Y35480525D01*
X29122230Y35480526D01*
X28977593Y35585612D01*
X28814267Y35658329D01*
X28814265Y35658330D01*
X28686594Y35685467D01*
X28639391Y35695500D01*
X28460609Y35695500D01*
X28429954Y35688985D01*
X28285733Y35658330D01*
X28285728Y35658328D01*
X28122408Y35585613D01*
X27977768Y35480525D01*
X27858140Y35347664D01*
X27768750Y35192836D01*
X27768747Y35192830D01*
X27713504Y35022808D01*
X27713503Y35022806D01*
X27694815Y34845000D01*
X27713503Y34667195D01*
X27713504Y34667193D01*
X27768747Y34497171D01*
X27768750Y34497165D01*
X27858141Y34342335D01*
X27899812Y34296054D01*
X27977764Y34209479D01*
X27977767Y34209477D01*
X27977770Y34209474D01*
X28122407Y34104388D01*
X28123252Y34104012D01*
X28123663Y34103662D01*
X28128037Y34101137D01*
X28127575Y34100338D01*
X28176491Y34058764D01*
X28196815Y33991915D01*
X28196142Y33977769D01*
X28184815Y33870001D01*
X28203503Y33692195D01*
X28203504Y33692193D01*
X28258747Y33522171D01*
X28258749Y33522168D01*
X28258750Y33522165D01*
X28291515Y33465414D01*
X28298918Y33452592D01*
X28315390Y33384692D01*
X28292537Y33318665D01*
X28264416Y33290275D01*
X28147768Y33205525D01*
X28028139Y33072664D01*
X28028137Y33072661D01*
X28023542Y33064701D01*
X27972975Y33016486D01*
X27904367Y33003264D01*
X27890375Y33005412D01*
X27887398Y33006045D01*
X27819391Y33020500D01*
X27640609Y33020500D01*
X27621725Y33016486D01*
X27465733Y32983330D01*
X27465728Y32983328D01*
X27302408Y32910613D01*
X27157768Y32805525D01*
X27038140Y32672664D01*
X26948750Y32517836D01*
X26948747Y32517830D01*
X26893504Y32347808D01*
X26893503Y32347806D01*
X26874815Y32170000D01*
X24141132Y32170000D01*
X24081859Y32272665D01*
X24035003Y32324704D01*
X23962235Y32405522D01*
X23962232Y32405524D01*
X23962231Y32405525D01*
X23962230Y32405526D01*
X23817593Y32510612D01*
X23654267Y32583329D01*
X23654265Y32583330D01*
X23526594Y32610467D01*
X23479391Y32620500D01*
X23300609Y32620500D01*
X23269954Y32613985D01*
X23125733Y32583330D01*
X23125728Y32583328D01*
X22962408Y32510613D01*
X22817768Y32405525D01*
X22698140Y32272664D01*
X22608750Y32117836D01*
X22608747Y32117830D01*
X22553504Y31947808D01*
X22553503Y31947806D01*
X22534815Y31770000D01*
X9843410Y31770000D01*
X9835063Y31865408D01*
X9782501Y32061575D01*
X9773905Y32093656D01*
X9773904Y32093657D01*
X9773903Y32093663D01*
X9674035Y32307829D01*
X9668425Y32315842D01*
X9538494Y32501403D01*
X9371402Y32668494D01*
X9371396Y32668499D01*
X9185842Y32798425D01*
X9142217Y32853002D01*
X9135023Y32922500D01*
X9166546Y32984855D01*
X9185842Y33001575D01*
X9318515Y33094474D01*
X9371401Y33131505D01*
X9538495Y33298599D01*
X9674035Y33492170D01*
X9773903Y33706337D01*
X9835063Y33934592D01*
X9855659Y34170000D01*
X9835063Y34405408D01*
X9773903Y34633663D01*
X9674035Y34847829D01*
X9668425Y34855842D01*
X9538494Y35041403D01*
X9371402Y35208494D01*
X9371396Y35208499D01*
X9185842Y35338425D01*
X9142217Y35393002D01*
X9135023Y35462500D01*
X9166546Y35524855D01*
X9185842Y35541575D01*
X9248733Y35585612D01*
X9371401Y35671505D01*
X9538495Y35838599D01*
X9674035Y36032170D01*
X9773903Y36246337D01*
X9835063Y36474592D01*
X9855659Y36710000D01*
X9835063Y36945408D01*
X9773903Y37173663D01*
X9674035Y37387829D01*
X9670113Y37393431D01*
X9538494Y37581403D01*
X9371402Y37748494D01*
X9371396Y37748499D01*
X9185842Y37878425D01*
X9142217Y37933002D01*
X9135023Y38002500D01*
X9166546Y38064855D01*
X9185842Y38081575D01*
X9335063Y38186061D01*
X9371401Y38211505D01*
X9538495Y38378599D01*
X9651509Y38540000D01*
X23114815Y38540000D01*
X23133503Y38362195D01*
X23133504Y38362193D01*
X23188747Y38192171D01*
X23188750Y38192165D01*
X23278141Y38037335D01*
X23287449Y38026998D01*
X23397764Y37904479D01*
X23397767Y37904477D01*
X23397770Y37904474D01*
X23542407Y37799388D01*
X23705733Y37726671D01*
X23880609Y37689500D01*
X23880610Y37689500D01*
X24059389Y37689500D01*
X24059391Y37689500D01*
X24234267Y37726671D01*
X24397593Y37799388D01*
X24542230Y37904474D01*
X24661859Y38037335D01*
X24751250Y38192165D01*
X24806497Y38362197D01*
X24825185Y38540000D01*
X24806497Y38717803D01*
X24751250Y38887835D01*
X24661859Y39042665D01*
X24628243Y39080000D01*
X27124815Y39080000D01*
X27143503Y38902195D01*
X27143504Y38902193D01*
X27198747Y38732171D01*
X27198749Y38732168D01*
X27198750Y38732165D01*
X27232863Y38673080D01*
X27279108Y38592980D01*
X27295580Y38525080D01*
X27289651Y38492663D01*
X27247803Y38363869D01*
X27247802Y38363867D01*
X27229114Y38186061D01*
X27247802Y38008256D01*
X27247803Y38008254D01*
X27300413Y37846337D01*
X27303049Y37838226D01*
X27333455Y37785561D01*
X27349928Y37717662D01*
X27333456Y37661563D01*
X27317550Y37634013D01*
X27262304Y37463983D01*
X27262303Y37463981D01*
X27243615Y37286175D01*
X27262303Y37108370D01*
X27262304Y37108368D01*
X27317547Y36938346D01*
X27317550Y36938340D01*
X27406941Y36783510D01*
X27425114Y36763327D01*
X27526564Y36650654D01*
X27526567Y36650652D01*
X27526570Y36650649D01*
X27671207Y36545563D01*
X27834533Y36472846D01*
X28009409Y36435675D01*
X28009410Y36435675D01*
X28188189Y36435675D01*
X28188191Y36435675D01*
X28363067Y36472846D01*
X28526393Y36545563D01*
X28671030Y36650649D01*
X28790659Y36783510D01*
X28880050Y36938340D01*
X28882349Y36945414D01*
X28905349Y37016203D01*
X28935297Y37108372D01*
X28953985Y37286175D01*
X28935297Y37463978D01*
X28897143Y37581403D01*
X28880052Y37634005D01*
X28880051Y37634007D01*
X28880050Y37634010D01*
X28849641Y37686679D01*
X28833170Y37754578D01*
X28849644Y37810679D01*
X28865549Y37838226D01*
X28920796Y38008258D01*
X28939484Y38186061D01*
X28920796Y38363864D01*
X28893172Y38448880D01*
X28865551Y38533891D01*
X28865548Y38533897D01*
X28862024Y38540000D01*
X28785190Y38673081D01*
X28768718Y38740980D01*
X28774645Y38773394D01*
X28816497Y38902197D01*
X28835185Y39080000D01*
X28816497Y39257803D01*
X28816494Y39257811D01*
X28815400Y39262960D01*
X28820713Y39332628D01*
X28862847Y39388363D01*
X28886243Y39402021D01*
X29015093Y39459388D01*
X29159730Y39564474D01*
X29168526Y39574242D01*
X29188936Y39596910D01*
X29279359Y39697335D01*
X29368750Y39852165D01*
X29370431Y39857337D01*
X29382125Y39893329D01*
X29423997Y40022197D01*
X29442685Y40200000D01*
X29423997Y40377803D01*
X29408746Y40424742D01*
X30397918Y40424742D01*
X30416606Y40246937D01*
X30416607Y40246935D01*
X30471850Y40076913D01*
X30471853Y40076907D01*
X30561244Y39922077D01*
X30587129Y39893329D01*
X30680867Y39789221D01*
X30680870Y39789219D01*
X30680873Y39789216D01*
X30825510Y39684130D01*
X30988836Y39611413D01*
X31163712Y39574242D01*
X31163713Y39574242D01*
X31342492Y39574242D01*
X31342494Y39574242D01*
X31517370Y39611413D01*
X31577368Y39638127D01*
X31646616Y39647413D01*
X31700687Y39625167D01*
X31722404Y39609388D01*
X31885730Y39536671D01*
X32060606Y39499500D01*
X32060607Y39499500D01*
X32239386Y39499500D01*
X32239388Y39499500D01*
X32414264Y39536671D01*
X32549564Y39596911D01*
X32618811Y39606195D01*
X32650428Y39596912D01*
X32785733Y39536671D01*
X32960609Y39499500D01*
X32960610Y39499500D01*
X33139389Y39499500D01*
X33139391Y39499500D01*
X33314267Y39536671D01*
X33477593Y39609388D01*
X33502746Y39627664D01*
X33568548Y39651144D01*
X33636602Y39635321D01*
X33648514Y39627666D01*
X33659907Y39619388D01*
X33823233Y39546671D01*
X33998109Y39509500D01*
X33998110Y39509500D01*
X34176889Y39509500D01*
X34176891Y39509500D01*
X34351767Y39546671D01*
X34515093Y39619388D01*
X34659730Y39724474D01*
X34745352Y39819568D01*
X34804836Y39856213D01*
X34874693Y39854884D01*
X34929647Y39819568D01*
X35015270Y39724474D01*
X35159907Y39619388D01*
X35323233Y39546671D01*
X35498109Y39509500D01*
X35498110Y39509500D01*
X35676889Y39509500D01*
X35676891Y39509500D01*
X35851767Y39546671D01*
X36015093Y39619388D01*
X36159730Y39724474D01*
X36279359Y39857335D01*
X36368750Y40012165D01*
X36423997Y40182197D01*
X36442685Y40360000D01*
X38232315Y40360000D01*
X38251003Y40182195D01*
X38251004Y40182193D01*
X38306247Y40012171D01*
X38306250Y40012165D01*
X38395641Y39857335D01*
X38437312Y39811054D01*
X38515264Y39724479D01*
X38515267Y39724477D01*
X38515270Y39724474D01*
X38659907Y39619388D01*
X38823233Y39546671D01*
X38998109Y39509500D01*
X38998110Y39509500D01*
X39176889Y39509500D01*
X39176891Y39509500D01*
X39351767Y39546671D01*
X39515093Y39619388D01*
X39659730Y39724474D01*
X39746600Y39820954D01*
X39806086Y39857601D01*
X39875943Y39856272D01*
X39930899Y39820954D01*
X40017770Y39724474D01*
X40162407Y39619388D01*
X40325733Y39546671D01*
X40500609Y39509500D01*
X40500610Y39509500D01*
X40679389Y39509500D01*
X40679391Y39509500D01*
X40854267Y39546671D01*
X41017593Y39619388D01*
X41162230Y39724474D01*
X41281859Y39857335D01*
X41371250Y40012165D01*
X41426497Y40182197D01*
X41445185Y40360000D01*
X41426497Y40537803D01*
X41398873Y40622819D01*
X41371252Y40707830D01*
X41371249Y40707836D01*
X41281859Y40862665D01*
X41211675Y40940612D01*
X41162235Y40995522D01*
X41162232Y40995524D01*
X41162231Y40995525D01*
X41162230Y40995526D01*
X41017593Y41100612D01*
X40854267Y41173329D01*
X40854265Y41173330D01*
X40726437Y41200500D01*
X40679391Y41210500D01*
X40500609Y41210500D01*
X40469954Y41203985D01*
X40325733Y41173330D01*
X40325728Y41173328D01*
X40162408Y41100613D01*
X40042272Y41013328D01*
X40017770Y40995526D01*
X39932150Y40900435D01*
X39930900Y40899047D01*
X39871413Y40862399D01*
X39801556Y40863730D01*
X39746600Y40899048D01*
X39659735Y40995522D01*
X39659732Y40995524D01*
X39659731Y40995525D01*
X39659730Y40995526D01*
X39515093Y41100612D01*
X39351767Y41173329D01*
X39351765Y41173330D01*
X39223937Y41200500D01*
X39176891Y41210500D01*
X38998109Y41210500D01*
X38967454Y41203985D01*
X38823233Y41173330D01*
X38823228Y41173328D01*
X38659908Y41100613D01*
X38515268Y40995525D01*
X38395640Y40862664D01*
X38306250Y40707836D01*
X38306247Y40707830D01*
X38251004Y40537808D01*
X38251003Y40537806D01*
X38232315Y40360000D01*
X36442685Y40360000D01*
X36423997Y40537803D01*
X36396373Y40622819D01*
X36368752Y40707830D01*
X36368749Y40707836D01*
X36279359Y40862665D01*
X36209175Y40940612D01*
X36159735Y40995522D01*
X36159732Y40995524D01*
X36159731Y40995525D01*
X36159730Y40995526D01*
X36015093Y41100612D01*
X35851767Y41173329D01*
X35851765Y41173330D01*
X35723937Y41200500D01*
X35676891Y41210500D01*
X35498109Y41210500D01*
X35467454Y41203985D01*
X35323233Y41173330D01*
X35323228Y41173328D01*
X35159908Y41100613D01*
X35039772Y41013328D01*
X35015270Y40995526D01*
X34929648Y40900435D01*
X34870163Y40863787D01*
X34800306Y40865118D01*
X34745350Y40900436D01*
X34659735Y40995522D01*
X34659732Y40995524D01*
X34659731Y40995525D01*
X34659730Y40995526D01*
X34515093Y41100612D01*
X34351767Y41173329D01*
X34351765Y41173330D01*
X34223937Y41200500D01*
X34176891Y41210500D01*
X33998109Y41210500D01*
X33967454Y41203985D01*
X33823233Y41173330D01*
X33823228Y41173328D01*
X33659908Y41100612D01*
X33659904Y41100610D01*
X33634752Y41082336D01*
X33568945Y41058857D01*
X33500892Y41074683D01*
X33488982Y41082338D01*
X33477598Y41090609D01*
X33477597Y41090610D01*
X33470419Y41093806D01*
X33314267Y41163329D01*
X33314265Y41163330D01*
X33186594Y41190467D01*
X33139391Y41200500D01*
X32960609Y41200500D01*
X32929954Y41193985D01*
X32785733Y41163330D01*
X32650433Y41103090D01*
X32581183Y41093806D01*
X32549565Y41103090D01*
X32414264Y41163329D01*
X32414262Y41163330D01*
X32286591Y41190467D01*
X32239388Y41200500D01*
X32060606Y41200500D01*
X32023436Y41192600D01*
X31885731Y41163330D01*
X31885726Y41163328D01*
X31825729Y41136616D01*
X31756479Y41127332D01*
X31702409Y41149579D01*
X31680701Y41165351D01*
X31680700Y41165352D01*
X31680696Y41165354D01*
X31517370Y41238071D01*
X31517368Y41238072D01*
X31389697Y41265209D01*
X31342494Y41275242D01*
X31163712Y41275242D01*
X31133057Y41268727D01*
X30988836Y41238072D01*
X30988831Y41238070D01*
X30825511Y41165355D01*
X30680871Y41060267D01*
X30561243Y40927406D01*
X30471853Y40772578D01*
X30471850Y40772572D01*
X30416607Y40602550D01*
X30416606Y40602548D01*
X30397918Y40424742D01*
X29408746Y40424742D01*
X29372008Y40537808D01*
X29368752Y40547830D01*
X29368749Y40547836D01*
X29337160Y40602550D01*
X29279359Y40702665D01*
X29225968Y40761962D01*
X29159735Y40835522D01*
X29159732Y40835524D01*
X29159731Y40835525D01*
X29159730Y40835526D01*
X29015093Y40940612D01*
X28851767Y41013329D01*
X28851765Y41013330D01*
X28724094Y41040467D01*
X28676891Y41050500D01*
X28498109Y41050500D01*
X28467454Y41043985D01*
X28323233Y41013330D01*
X28323228Y41013328D01*
X28159908Y40940613D01*
X28015268Y40835525D01*
X27895640Y40702664D01*
X27806250Y40547836D01*
X27806247Y40547830D01*
X27751004Y40377808D01*
X27751003Y40377806D01*
X27732315Y40200000D01*
X27751003Y40022195D01*
X27752101Y40017033D01*
X27746783Y39947366D01*
X27704645Y39891633D01*
X27681246Y39877975D01*
X27552408Y39820613D01*
X27407768Y39715525D01*
X27288140Y39582664D01*
X27198750Y39427836D01*
X27198747Y39427830D01*
X27143504Y39257808D01*
X27143503Y39257806D01*
X27124815Y39080000D01*
X24628243Y39080000D01*
X24615003Y39094704D01*
X24542235Y39175522D01*
X24542232Y39175524D01*
X24542231Y39175525D01*
X24542230Y39175526D01*
X24397593Y39280612D01*
X24234267Y39353329D01*
X24234265Y39353330D01*
X24106594Y39380467D01*
X24059391Y39390500D01*
X23880609Y39390500D01*
X23862595Y39386671D01*
X23705733Y39353330D01*
X23705728Y39353328D01*
X23542408Y39280613D01*
X23397768Y39175525D01*
X23278140Y39042664D01*
X23188750Y38887836D01*
X23188747Y38887830D01*
X23133504Y38717808D01*
X23133503Y38717806D01*
X23114815Y38540000D01*
X9651509Y38540000D01*
X9674035Y38572170D01*
X9773903Y38786337D01*
X9835063Y39014592D01*
X9855659Y39250000D01*
X9835063Y39485408D01*
X9778278Y39697335D01*
X9773905Y39713656D01*
X9773904Y39713657D01*
X9773903Y39713663D01*
X9674035Y39927829D01*
X9668425Y39935842D01*
X9538494Y40121403D01*
X9371402Y40288494D01*
X9371396Y40288499D01*
X9185842Y40418425D01*
X9142217Y40473002D01*
X9135023Y40542500D01*
X9166546Y40604855D01*
X9185842Y40621575D01*
X9208026Y40637109D01*
X9371401Y40751505D01*
X9538495Y40918599D01*
X9674035Y41112170D01*
X9773903Y41326337D01*
X9835063Y41554592D01*
X9855659Y41790000D01*
X9846035Y41900000D01*
X47944815Y41900000D01*
X47963503Y41722195D01*
X47963504Y41722193D01*
X48018747Y41552171D01*
X48018750Y41552165D01*
X48108141Y41397335D01*
X48149812Y41351054D01*
X48227764Y41264479D01*
X48227767Y41264477D01*
X48227770Y41264474D01*
X48372407Y41159388D01*
X48535733Y41086671D01*
X48710609Y41049500D01*
X48710610Y41049500D01*
X48889389Y41049500D01*
X48889391Y41049500D01*
X49064267Y41086671D01*
X49227593Y41159388D01*
X49372230Y41264474D01*
X49491859Y41397335D01*
X49581250Y41552165D01*
X49636497Y41722197D01*
X49655185Y41900000D01*
X49636497Y42077803D01*
X49581250Y42247835D01*
X49491859Y42402665D01*
X49425970Y42475842D01*
X49372235Y42535522D01*
X49372232Y42535524D01*
X49372231Y42535525D01*
X49372230Y42535526D01*
X49227593Y42640612D01*
X49064267Y42713329D01*
X49064265Y42713330D01*
X48936594Y42740467D01*
X48889391Y42750500D01*
X48710609Y42750500D01*
X48679954Y42743985D01*
X48535733Y42713330D01*
X48535728Y42713328D01*
X48372408Y42640613D01*
X48227768Y42535525D01*
X48108140Y42402664D01*
X48018750Y42247836D01*
X48018747Y42247830D01*
X47963504Y42077808D01*
X47963503Y42077806D01*
X47944815Y41900000D01*
X9846035Y41900000D01*
X9835063Y42025408D01*
X9773903Y42253663D01*
X9674035Y42467829D01*
X9668425Y42475842D01*
X9538494Y42661403D01*
X9371402Y42828494D01*
X9371396Y42828499D01*
X9185842Y42958425D01*
X9142217Y43013002D01*
X9135023Y43082500D01*
X9166546Y43144855D01*
X9185842Y43161575D01*
X9236915Y43197337D01*
X9371401Y43291505D01*
X9538495Y43458599D01*
X9674035Y43652170D01*
X9696339Y43700000D01*
X30494815Y43700000D01*
X30513503Y43522195D01*
X30513504Y43522193D01*
X30568747Y43352171D01*
X30568750Y43352165D01*
X30658141Y43197335D01*
X30690340Y43161575D01*
X30777764Y43064479D01*
X30777767Y43064477D01*
X30777770Y43064474D01*
X30922407Y42959388D01*
X31085733Y42886671D01*
X31260609Y42849500D01*
X31260610Y42849500D01*
X31439389Y42849500D01*
X31439391Y42849500D01*
X31614267Y42886671D01*
X31777593Y42959388D01*
X31922230Y43064474D01*
X32041859Y43197335D01*
X32131250Y43352165D01*
X32186497Y43522197D01*
X32205185Y43700000D01*
X32186497Y43877803D01*
X32131250Y44047835D01*
X32041859Y44202665D01*
X31995003Y44254704D01*
X31922235Y44335522D01*
X31922232Y44335524D01*
X31922231Y44335525D01*
X31922230Y44335526D01*
X31777593Y44440612D01*
X31614267Y44513329D01*
X31614265Y44513330D01*
X31486594Y44540467D01*
X31439391Y44550500D01*
X31260609Y44550500D01*
X31229954Y44543985D01*
X31085733Y44513330D01*
X31085728Y44513328D01*
X30922408Y44440613D01*
X30777768Y44335525D01*
X30658140Y44202664D01*
X30568750Y44047836D01*
X30568747Y44047830D01*
X30513504Y43877808D01*
X30513503Y43877806D01*
X30494815Y43700000D01*
X9696339Y43700000D01*
X9773903Y43866337D01*
X9835063Y44094592D01*
X9855659Y44330000D01*
X9835063Y44565408D01*
X9790961Y44730000D01*
X27232315Y44730000D01*
X27251003Y44552195D01*
X27251004Y44552193D01*
X27306247Y44382171D01*
X27306250Y44382165D01*
X27395641Y44227335D01*
X27422546Y44197454D01*
X27515264Y44094479D01*
X27515267Y44094477D01*
X27515270Y44094474D01*
X27659907Y43989388D01*
X27823233Y43916671D01*
X27998109Y43879500D01*
X27998110Y43879500D01*
X28176889Y43879500D01*
X28176891Y43879500D01*
X28351767Y43916671D01*
X28515093Y43989388D01*
X28659730Y44094474D01*
X28659837Y44094592D01*
X28692704Y44131095D01*
X28779359Y44227335D01*
X28868750Y44382165D01*
X28923997Y44552197D01*
X28942685Y44730000D01*
X33504815Y44730000D01*
X33523503Y44552195D01*
X33523504Y44552193D01*
X33578747Y44382171D01*
X33578750Y44382165D01*
X33668141Y44227335D01*
X33695046Y44197454D01*
X33787764Y44094479D01*
X33787767Y44094477D01*
X33787770Y44094474D01*
X33932407Y43989388D01*
X34095733Y43916671D01*
X34270609Y43879500D01*
X34270610Y43879500D01*
X34449389Y43879500D01*
X34449391Y43879500D01*
X34624267Y43916671D01*
X34787593Y43989388D01*
X34932230Y44094474D01*
X34932337Y44094592D01*
X34965204Y44131095D01*
X35051859Y44227335D01*
X35141250Y44382165D01*
X35196497Y44552197D01*
X35215185Y44730000D01*
X38504815Y44730000D01*
X38523503Y44552195D01*
X38523504Y44552193D01*
X38578747Y44382171D01*
X38578750Y44382165D01*
X38668141Y44227335D01*
X38695046Y44197454D01*
X38787764Y44094479D01*
X38787767Y44094477D01*
X38787770Y44094474D01*
X38932407Y43989388D01*
X39095733Y43916671D01*
X39270609Y43879500D01*
X39270610Y43879500D01*
X39449389Y43879500D01*
X39449391Y43879500D01*
X39624267Y43916671D01*
X39787593Y43989388D01*
X39932230Y44094474D01*
X39932337Y44094592D01*
X39965204Y44131095D01*
X40051859Y44227335D01*
X40141250Y44382165D01*
X40196497Y44552197D01*
X40215185Y44730000D01*
X40196497Y44907803D01*
X40141250Y45077835D01*
X40051859Y45232665D01*
X40005003Y45284704D01*
X39932235Y45365522D01*
X39932232Y45365524D01*
X39932231Y45365525D01*
X39932230Y45365526D01*
X39877899Y45405000D01*
X73694341Y45405000D01*
X73714936Y45169597D01*
X73714938Y45169587D01*
X73776094Y44941345D01*
X73776096Y44941341D01*
X73776097Y44941337D01*
X73841056Y44802033D01*
X73875965Y44727170D01*
X73875967Y44727166D01*
X73984281Y44572479D01*
X74011505Y44533599D01*
X74178599Y44366505D01*
X74275384Y44298735D01*
X74372165Y44230968D01*
X74372167Y44230967D01*
X74372170Y44230965D01*
X74586337Y44131097D01*
X74814592Y44069937D01*
X74991034Y44054500D01*
X75049999Y44049341D01*
X75050000Y44049341D01*
X75050001Y44049341D01*
X75108966Y44054500D01*
X75285408Y44069937D01*
X75513663Y44131097D01*
X75727830Y44230965D01*
X75921401Y44366505D01*
X76043329Y44488434D01*
X76104648Y44521916D01*
X76174340Y44516932D01*
X76230274Y44475061D01*
X76247189Y44444083D01*
X76296202Y44312672D01*
X76296206Y44312665D01*
X76382452Y44197456D01*
X76382455Y44197453D01*
X76497664Y44111207D01*
X76497671Y44111203D01*
X76632517Y44060909D01*
X76632516Y44060909D01*
X76639444Y44060165D01*
X76692127Y44054500D01*
X78487872Y44054501D01*
X78547483Y44060909D01*
X78682331Y44111204D01*
X78797546Y44197454D01*
X78883796Y44312669D01*
X78934091Y44447517D01*
X78940500Y44507127D01*
X78940499Y46302872D01*
X78934091Y46362483D01*
X78932810Y46365917D01*
X78883797Y46497329D01*
X78883793Y46497336D01*
X78797547Y46612545D01*
X78797544Y46612548D01*
X78682335Y46698794D01*
X78682328Y46698798D01*
X78550917Y46747811D01*
X78494983Y46789682D01*
X78470566Y46855147D01*
X78471939Y46861457D01*
X81579499Y46861457D01*
X81617947Y46668171D01*
X81617950Y46668161D01*
X81693364Y46486093D01*
X81693371Y46486080D01*
X81802860Y46322219D01*
X81802863Y46322215D01*
X81942214Y46182864D01*
X81942218Y46182861D01*
X82106079Y46073372D01*
X82106092Y46073365D01*
X82286596Y45998599D01*
X82288165Y45997949D01*
X82288169Y45997949D01*
X82288170Y45997948D01*
X82481456Y45959500D01*
X82481459Y45959500D01*
X83778543Y45959500D01*
X83908582Y45985368D01*
X83971835Y45997949D01*
X84153914Y46073368D01*
X84317782Y46182861D01*
X84457139Y46322218D01*
X84566632Y46486086D01*
X84642051Y46668165D01*
X84659423Y46755500D01*
X84680500Y46861457D01*
X85909499Y46861457D01*
X85947947Y46668171D01*
X85947950Y46668161D01*
X86023364Y46486093D01*
X86023371Y46486080D01*
X86132860Y46322219D01*
X86132863Y46322215D01*
X86272214Y46182864D01*
X86272218Y46182861D01*
X86436079Y46073372D01*
X86436092Y46073365D01*
X86616596Y45998599D01*
X86618165Y45997949D01*
X86618169Y45997949D01*
X86618170Y45997948D01*
X86811456Y45959500D01*
X86811459Y45959500D01*
X87808543Y45959500D01*
X87938582Y45985368D01*
X88001835Y45997949D01*
X88183914Y46073368D01*
X88347782Y46182861D01*
X88487139Y46322218D01*
X88596632Y46486086D01*
X88672051Y46668165D01*
X88689423Y46755500D01*
X88710500Y46861457D01*
X88710500Y47058544D01*
X88672052Y47251830D01*
X88672051Y47251831D01*
X88672051Y47251835D01*
X88634690Y47342033D01*
X88596635Y47433908D01*
X88596628Y47433921D01*
X88487139Y47597782D01*
X88487136Y47597786D01*
X88347785Y47737137D01*
X88347781Y47737140D01*
X88183920Y47846629D01*
X88183907Y47846636D01*
X88001839Y47922050D01*
X88001829Y47922053D01*
X87808543Y47960500D01*
X87808541Y47960500D01*
X86811459Y47960500D01*
X86811457Y47960500D01*
X86618170Y47922053D01*
X86618160Y47922050D01*
X86436092Y47846636D01*
X86436079Y47846629D01*
X86272218Y47737140D01*
X86272214Y47737137D01*
X86132863Y47597786D01*
X86132860Y47597782D01*
X86023371Y47433921D01*
X86023364Y47433908D01*
X85947950Y47251840D01*
X85947947Y47251830D01*
X85909500Y47058544D01*
X85909500Y47058541D01*
X85909500Y46861459D01*
X85909500Y46861457D01*
X85909499Y46861457D01*
X84680500Y46861457D01*
X84680500Y47058544D01*
X84642052Y47251830D01*
X84642051Y47251831D01*
X84642051Y47251835D01*
X84604690Y47342033D01*
X84566635Y47433908D01*
X84566628Y47433921D01*
X84457139Y47597782D01*
X84457136Y47597786D01*
X84317785Y47737137D01*
X84317781Y47737140D01*
X84153920Y47846629D01*
X84153913Y47846633D01*
X84144474Y47850542D01*
X84090070Y47894383D01*
X84068004Y47960677D01*
X84085283Y48028376D01*
X84088431Y48033028D01*
X84090511Y48036632D01*
X84090515Y48036635D01*
X84166281Y48167865D01*
X84205500Y48314234D01*
X84205500Y48465766D01*
X84166281Y48612135D01*
X84090515Y48743365D01*
X83983365Y48850515D01*
X83917750Y48888398D01*
X83852136Y48926281D01*
X83777254Y48946345D01*
X83705766Y48965500D01*
X83554234Y48965500D01*
X83407863Y48926281D01*
X83276635Y48850515D01*
X83276632Y48850513D01*
X83169487Y48743368D01*
X83169485Y48743365D01*
X83093719Y48612137D01*
X83061913Y48493431D01*
X83054500Y48465766D01*
X83054500Y48314234D01*
X83090359Y48180404D01*
X83093720Y48167863D01*
X83093721Y48167860D01*
X83106053Y48146501D01*
X83122527Y48078602D01*
X83099675Y48012574D01*
X83044755Y47969383D01*
X82998667Y47960500D01*
X82481457Y47960500D01*
X82288170Y47922053D01*
X82288160Y47922050D01*
X82106092Y47846636D01*
X82106079Y47846629D01*
X81942218Y47737140D01*
X81942214Y47737137D01*
X81802863Y47597786D01*
X81802860Y47597782D01*
X81693371Y47433921D01*
X81693364Y47433908D01*
X81617950Y47251840D01*
X81617947Y47251830D01*
X81579500Y47058544D01*
X81579500Y47058541D01*
X81579500Y46861459D01*
X81579500Y46861457D01*
X81579499Y46861457D01*
X78471939Y46861457D01*
X78485418Y46923420D01*
X78506563Y46951668D01*
X78628495Y47073599D01*
X78764035Y47267170D01*
X78863903Y47481337D01*
X78925063Y47709592D01*
X78945659Y47945000D01*
X78925063Y48180408D01*
X78863903Y48408663D01*
X78764035Y48622829D01*
X78758425Y48630842D01*
X78628494Y48816403D01*
X78461402Y48983494D01*
X78461395Y48983499D01*
X78267834Y49119033D01*
X78267830Y49119035D01*
X78267828Y49119036D01*
X78053663Y49218903D01*
X78053659Y49218904D01*
X78053655Y49218906D01*
X77825413Y49280062D01*
X77825403Y49280064D01*
X77590001Y49300659D01*
X77589999Y49300659D01*
X77354596Y49280064D01*
X77354586Y49280062D01*
X77126344Y49218906D01*
X77126335Y49218902D01*
X76912171Y49119036D01*
X76912169Y49119035D01*
X76718597Y48983495D01*
X76551505Y48816403D01*
X76421575Y48630842D01*
X76366998Y48587217D01*
X76297500Y48580023D01*
X76235145Y48611546D01*
X76218425Y48630842D01*
X76088494Y48816403D01*
X75921402Y48983494D01*
X75921395Y48983499D01*
X75727834Y49119033D01*
X75727830Y49119035D01*
X75727828Y49119036D01*
X75513663Y49218903D01*
X75513659Y49218904D01*
X75513655Y49218906D01*
X75285413Y49280062D01*
X75285403Y49280064D01*
X75050001Y49300659D01*
X75049999Y49300659D01*
X74814596Y49280064D01*
X74814586Y49280062D01*
X74586344Y49218906D01*
X74586335Y49218902D01*
X74372171Y49119036D01*
X74372169Y49119035D01*
X74178597Y48983495D01*
X74011505Y48816403D01*
X73875965Y48622831D01*
X73875964Y48622829D01*
X73776098Y48408665D01*
X73776094Y48408656D01*
X73714938Y48180414D01*
X73714936Y48180404D01*
X73694341Y47945001D01*
X73694341Y47945000D01*
X73714936Y47709597D01*
X73714938Y47709587D01*
X73776094Y47481345D01*
X73776096Y47481341D01*
X73776097Y47481337D01*
X73780000Y47472968D01*
X73875965Y47267170D01*
X73875967Y47267166D01*
X73984281Y47112479D01*
X74011501Y47073604D01*
X74011506Y47073598D01*
X74178597Y46906507D01*
X74178603Y46906502D01*
X74364158Y46776575D01*
X74407783Y46721998D01*
X74414977Y46652500D01*
X74383454Y46590145D01*
X74364158Y46573425D01*
X74178597Y46443495D01*
X74011505Y46276403D01*
X73875965Y46082831D01*
X73875964Y46082829D01*
X73776098Y45868665D01*
X73776094Y45868656D01*
X73714938Y45640414D01*
X73714936Y45640404D01*
X73694341Y45405001D01*
X73694341Y45405000D01*
X39877899Y45405000D01*
X39787593Y45470612D01*
X39624267Y45543329D01*
X39624265Y45543330D01*
X39496594Y45570467D01*
X39449391Y45580500D01*
X39270609Y45580500D01*
X39239954Y45573985D01*
X39095733Y45543330D01*
X39095728Y45543328D01*
X38932408Y45470613D01*
X38787768Y45365525D01*
X38668140Y45232664D01*
X38578750Y45077836D01*
X38578747Y45077830D01*
X38523504Y44907808D01*
X38523503Y44907806D01*
X38504815Y44730000D01*
X35215185Y44730000D01*
X35196497Y44907803D01*
X35141250Y45077835D01*
X35051859Y45232665D01*
X35005003Y45284704D01*
X34932235Y45365522D01*
X34932232Y45365524D01*
X34932231Y45365525D01*
X34932230Y45365526D01*
X34787593Y45470612D01*
X34624267Y45543329D01*
X34624265Y45543330D01*
X34496594Y45570467D01*
X34449391Y45580500D01*
X34270609Y45580500D01*
X34239954Y45573985D01*
X34095733Y45543330D01*
X34095728Y45543328D01*
X33932408Y45470613D01*
X33787768Y45365525D01*
X33668140Y45232664D01*
X33578750Y45077836D01*
X33578747Y45077830D01*
X33523504Y44907808D01*
X33523503Y44907806D01*
X33504815Y44730000D01*
X28942685Y44730000D01*
X28923997Y44907803D01*
X28868750Y45077835D01*
X28779359Y45232665D01*
X28732503Y45284704D01*
X28659735Y45365522D01*
X28659732Y45365524D01*
X28659731Y45365525D01*
X28659730Y45365526D01*
X28515093Y45470612D01*
X28351767Y45543329D01*
X28351765Y45543330D01*
X28224094Y45570467D01*
X28176891Y45580500D01*
X27998109Y45580500D01*
X27967454Y45573985D01*
X27823233Y45543330D01*
X27823228Y45543328D01*
X27659908Y45470613D01*
X27515268Y45365525D01*
X27395640Y45232664D01*
X27306250Y45077836D01*
X27306247Y45077830D01*
X27251004Y44907808D01*
X27251003Y44907806D01*
X27232315Y44730000D01*
X9790961Y44730000D01*
X9773903Y44793663D01*
X9674035Y45007829D01*
X9668425Y45015842D01*
X9538494Y45201403D01*
X9371402Y45368494D01*
X9371396Y45368499D01*
X9185842Y45498425D01*
X9142217Y45553002D01*
X9135023Y45622500D01*
X9166546Y45684855D01*
X9185842Y45701575D01*
X9208026Y45717109D01*
X9371401Y45831505D01*
X9538495Y45998599D01*
X9674035Y46192170D01*
X9773903Y46406337D01*
X9835063Y46634592D01*
X9855659Y46870000D01*
X9853878Y46890351D01*
X9837846Y47073599D01*
X9835063Y47105408D01*
X9773903Y47333663D01*
X9674035Y47547829D01*
X9668424Y47555842D01*
X9538496Y47741400D01*
X9538493Y47741403D01*
X9416567Y47863329D01*
X9383084Y47924649D01*
X9388068Y47994341D01*
X9429939Y48050275D01*
X9460915Y48067190D01*
X9592331Y48116204D01*
X9707546Y48202454D01*
X9793796Y48317669D01*
X9844091Y48452517D01*
X9850500Y48512127D01*
X9850499Y50307872D01*
X9844091Y50367483D01*
X9842810Y50370917D01*
X9793797Y50502329D01*
X9793793Y50502336D01*
X9707547Y50617545D01*
X9707544Y50617548D01*
X9592335Y50703794D01*
X9592328Y50703798D01*
X9457482Y50754092D01*
X9457483Y50754092D01*
X9397883Y50760499D01*
X9397881Y50760500D01*
X9397873Y50760500D01*
X9397864Y50760500D01*
X7602129Y50760500D01*
X7602123Y50760499D01*
X7542516Y50754092D01*
X7407671Y50703798D01*
X7407664Y50703794D01*
X7292455Y50617548D01*
X7292452Y50617545D01*
X7206206Y50502336D01*
X7206203Y50502331D01*
X7157189Y50370917D01*
X7115317Y50314984D01*
X7049853Y50290567D01*
X6981580Y50305419D01*
X6953326Y50326570D01*
X6831402Y50448494D01*
X6831395Y50448499D01*
X6637834Y50584033D01*
X6637830Y50584035D01*
X6637828Y50584036D01*
X6423663Y50683903D01*
X6423659Y50683904D01*
X6423655Y50683906D01*
X6195413Y50745062D01*
X6195403Y50745064D01*
X5960001Y50765659D01*
X5959999Y50765659D01*
X5724596Y50745064D01*
X5724586Y50745062D01*
X5496344Y50683906D01*
X5496335Y50683902D01*
X5282171Y50584036D01*
X5282169Y50584035D01*
X5088597Y50448495D01*
X4921505Y50281403D01*
X4785965Y50087831D01*
X4785964Y50087829D01*
X4686098Y49873665D01*
X4686094Y49873656D01*
X4624938Y49645414D01*
X4624936Y49645404D01*
X4604341Y49410001D01*
X4604341Y49410000D01*
X4624936Y49174597D01*
X4624938Y49174587D01*
X4686094Y48946345D01*
X4686096Y48946341D01*
X4686097Y48946337D01*
X4770499Y48765337D01*
X4785965Y48732170D01*
X4785967Y48732166D01*
X4921501Y48538605D01*
X4921506Y48538598D01*
X5088597Y48371507D01*
X5088603Y48371502D01*
X5274158Y48241575D01*
X5317783Y48186998D01*
X5324977Y48117500D01*
X5293454Y48055145D01*
X5274158Y48038425D01*
X5088597Y47908495D01*
X4921505Y47741403D01*
X4785965Y47547831D01*
X4785964Y47547829D01*
X4686098Y47333665D01*
X4686094Y47333656D01*
X4624938Y47105414D01*
X4624936Y47105404D01*
X4604341Y46870001D01*
X4604341Y46870000D01*
X4624936Y46634597D01*
X4624938Y46634587D01*
X4686094Y46406345D01*
X4686096Y46406341D01*
X4686097Y46406337D01*
X4766004Y46234977D01*
X4785965Y46192170D01*
X4785967Y46192166D01*
X4862525Y46082831D01*
X4921501Y45998604D01*
X4921506Y45998598D01*
X5088597Y45831507D01*
X5088603Y45831502D01*
X5274158Y45701575D01*
X5317783Y45646998D01*
X5324977Y45577500D01*
X5293454Y45515145D01*
X5274158Y45498425D01*
X5088597Y45368495D01*
X4921505Y45201403D01*
X4785965Y45007831D01*
X4785964Y45007829D01*
X4686098Y44793665D01*
X4686094Y44793656D01*
X4624938Y44565414D01*
X4624936Y44565404D01*
X4604341Y44330001D01*
X4604341Y44330000D01*
X4624936Y44094597D01*
X4624938Y44094587D01*
X4686094Y43866345D01*
X4686096Y43866341D01*
X4686097Y43866337D01*
X4766004Y43694977D01*
X4785965Y43652170D01*
X4785967Y43652166D01*
X4876976Y43522193D01*
X4921501Y43458604D01*
X4921506Y43458598D01*
X5088597Y43291507D01*
X5088603Y43291502D01*
X5274158Y43161575D01*
X5317783Y43106998D01*
X5324977Y43037500D01*
X5293454Y42975145D01*
X5274158Y42958425D01*
X5088597Y42828495D01*
X4921505Y42661403D01*
X4785965Y42467831D01*
X4785964Y42467829D01*
X4686098Y42253665D01*
X4686094Y42253656D01*
X4624938Y42025414D01*
X4624936Y42025404D01*
X4604341Y41790001D01*
X4604341Y41790000D01*
X4624936Y41554597D01*
X4624938Y41554587D01*
X4686094Y41326345D01*
X4686096Y41326341D01*
X4686097Y41326337D01*
X4761164Y41165355D01*
X4785965Y41112170D01*
X4785967Y41112166D01*
X4855174Y41013329D01*
X4921501Y40918604D01*
X4921506Y40918598D01*
X5088597Y40751507D01*
X5088603Y40751502D01*
X5274158Y40621575D01*
X5317783Y40566998D01*
X5324977Y40497500D01*
X5293454Y40435145D01*
X5274158Y40418425D01*
X5088597Y40288495D01*
X4921505Y40121403D01*
X4785965Y39927831D01*
X4785964Y39927829D01*
X4686098Y39713665D01*
X4686094Y39713656D01*
X4624938Y39485414D01*
X4624936Y39485404D01*
X4604341Y39250001D01*
X4604341Y39250000D01*
X4624936Y39014597D01*
X4624938Y39014587D01*
X4686094Y38786345D01*
X4686096Y38786341D01*
X4686097Y38786337D01*
X4711358Y38732165D01*
X4785965Y38572170D01*
X4785967Y38572166D01*
X4841636Y38492663D01*
X4921501Y38378604D01*
X4921506Y38378598D01*
X5088597Y38211507D01*
X5088603Y38211502D01*
X5274158Y38081575D01*
X5317783Y38026998D01*
X5324977Y37957500D01*
X5293454Y37895145D01*
X5274158Y37878425D01*
X5088597Y37748495D01*
X4921505Y37581403D01*
X4785965Y37387831D01*
X4785964Y37387829D01*
X4686098Y37173665D01*
X4686094Y37173656D01*
X4624938Y36945414D01*
X4624936Y36945404D01*
X4604341Y36710001D01*
X4604341Y36710000D01*
X4624936Y36474597D01*
X4624938Y36474587D01*
X4686094Y36246345D01*
X4686096Y36246341D01*
X4686097Y36246337D01*
X4766004Y36074977D01*
X4785965Y36032170D01*
X4785967Y36032166D01*
X4894281Y35877479D01*
X4921501Y35838604D01*
X4921506Y35838598D01*
X5088597Y35671507D01*
X5088603Y35671502D01*
X5274158Y35541575D01*
X5317783Y35486998D01*
X5324977Y35417500D01*
X5293454Y35355145D01*
X5274158Y35338425D01*
X5088597Y35208495D01*
X4921505Y35041403D01*
X4785965Y34847831D01*
X4785964Y34847829D01*
X4686098Y34633665D01*
X4686094Y34633656D01*
X4624938Y34405414D01*
X4624936Y34405404D01*
X4604341Y34170001D01*
X4604341Y34170000D01*
X4624936Y33934597D01*
X4624938Y33934587D01*
X4686094Y33706345D01*
X4686096Y33706341D01*
X4686097Y33706337D01*
X4711355Y33652171D01*
X4785965Y33492170D01*
X4785967Y33492166D01*
X4861222Y33384692D01*
X4921501Y33298604D01*
X4921506Y33298598D01*
X5088597Y33131507D01*
X5088603Y33131502D01*
X5274158Y33001575D01*
X5317783Y32946998D01*
X5324977Y32877500D01*
X5293454Y32815145D01*
X5274158Y32798425D01*
X5088597Y32668495D01*
X4921505Y32501403D01*
X4785965Y32307831D01*
X4785964Y32307829D01*
X4686098Y32093665D01*
X4686094Y32093656D01*
X4624938Y31865414D01*
X4624936Y31865404D01*
X4604341Y31630001D01*
X4604341Y31630000D01*
X4624936Y31394597D01*
X4624938Y31394587D01*
X4686094Y31166345D01*
X4686096Y31166341D01*
X4686097Y31166337D01*
X4749957Y31029390D01*
X4785965Y30952170D01*
X4785967Y30952166D01*
X4894155Y30797659D01*
X4921501Y30758604D01*
X4921506Y30758598D01*
X5088597Y30591507D01*
X5088603Y30591502D01*
X5274158Y30461575D01*
X5317783Y30406998D01*
X5324977Y30337500D01*
X5293454Y30275145D01*
X5274158Y30258425D01*
X5088597Y30128495D01*
X4921505Y29961403D01*
X4785965Y29767831D01*
X4785964Y29767829D01*
X4686098Y29553665D01*
X4686094Y29553656D01*
X4624938Y29325414D01*
X4624936Y29325404D01*
X4604341Y29090001D01*
X4604341Y29090000D01*
X4624936Y28854597D01*
X4624938Y28854587D01*
X4686094Y28626345D01*
X4686096Y28626341D01*
X4686097Y28626337D01*
X4754620Y28479390D01*
X4785965Y28412170D01*
X4785967Y28412166D01*
X4858590Y28308451D01*
X4921501Y28218604D01*
X4921506Y28218598D01*
X5088597Y28051507D01*
X5088603Y28051502D01*
X5274158Y27921575D01*
X5317783Y27866998D01*
X5324977Y27797500D01*
X5293454Y27735145D01*
X5274158Y27718425D01*
X5088597Y27588495D01*
X4921505Y27421403D01*
X4785965Y27227831D01*
X4785964Y27227829D01*
X4686098Y27013665D01*
X4686094Y27013656D01*
X4624938Y26785414D01*
X4624936Y26785404D01*
X4604341Y26550001D01*
X4604341Y26550000D01*
X4624936Y26314597D01*
X4624938Y26314587D01*
X4686094Y26086345D01*
X4686096Y26086341D01*
X4686097Y26086337D01*
X4751760Y25945522D01*
X4785965Y25872170D01*
X4785967Y25872166D01*
X4862335Y25763102D01*
X4921501Y25678604D01*
X4921506Y25678598D01*
X5088597Y25511507D01*
X5088603Y25511502D01*
X5274158Y25381575D01*
X5317783Y25326998D01*
X5324977Y25257500D01*
X5293454Y25195145D01*
X5274158Y25178425D01*
X5088597Y25048495D01*
X4921505Y24881403D01*
X4785965Y24687831D01*
X4785964Y24687829D01*
X4686098Y24473665D01*
X4686094Y24473656D01*
X4624938Y24245414D01*
X4624936Y24245404D01*
X4604341Y24010001D01*
X4604341Y24010000D01*
X4624936Y23774597D01*
X4624938Y23774587D01*
X4686094Y23546345D01*
X4686096Y23546341D01*
X4686097Y23546337D01*
X4723594Y23465925D01*
X4785965Y23332170D01*
X4785967Y23332166D01*
X4883418Y23192993D01*
X4921501Y23138604D01*
X4921506Y23138598D01*
X5088597Y22971507D01*
X5088603Y22971502D01*
X5274158Y22841575D01*
X5317783Y22786998D01*
X5324977Y22717500D01*
X5293454Y22655145D01*
X5274158Y22638425D01*
X5088597Y22508495D01*
X4921505Y22341403D01*
X4785965Y22147831D01*
X4785964Y22147829D01*
X4686098Y21933665D01*
X4686094Y21933656D01*
X4624938Y21705414D01*
X4624936Y21705404D01*
X4604341Y21470001D01*
X4604341Y21470000D01*
X4624936Y21234597D01*
X4624938Y21234587D01*
X4686094Y21006345D01*
X4686096Y21006341D01*
X4686097Y21006337D01*
X4723594Y20925925D01*
X4785965Y20792170D01*
X4785967Y20792166D01*
X4853721Y20695404D01*
X4921501Y20598604D01*
X4921506Y20598598D01*
X5088597Y20431507D01*
X5088603Y20431502D01*
X5274158Y20301575D01*
X5317783Y20246998D01*
X5324977Y20177500D01*
X5293454Y20115145D01*
X5274158Y20098425D01*
X5088597Y19968495D01*
X4921505Y19801403D01*
X4785965Y19607831D01*
X4785964Y19607829D01*
X4686098Y19393665D01*
X4686094Y19393656D01*
X4624938Y19165414D01*
X4624936Y19165404D01*
X4604341Y18930001D01*
X4604341Y18930000D01*
X1000000Y18930000D01*
X1000000Y52240000D01*
X20304341Y52240000D01*
X20324936Y52004597D01*
X20324938Y52004587D01*
X20386094Y51776345D01*
X20386096Y51776341D01*
X20386097Y51776337D01*
X20390000Y51767968D01*
X20485965Y51562170D01*
X20485967Y51562166D01*
X20594281Y51407479D01*
X20621505Y51368599D01*
X20788599Y51201505D01*
X20885384Y51133735D01*
X20982165Y51065968D01*
X20982167Y51065967D01*
X20982170Y51065965D01*
X21196337Y50966097D01*
X21424592Y50904937D01*
X21601034Y50889500D01*
X21659999Y50884341D01*
X21660000Y50884341D01*
X21660001Y50884341D01*
X21718966Y50889500D01*
X21895408Y50904937D01*
X22123663Y50966097D01*
X22337830Y51065965D01*
X22531401Y51201505D01*
X22698495Y51368599D01*
X22828425Y51554158D01*
X22883002Y51597783D01*
X22952500Y51604977D01*
X23014855Y51573454D01*
X23031575Y51554158D01*
X23161500Y51368605D01*
X23161505Y51368599D01*
X23328599Y51201505D01*
X23425384Y51133735D01*
X23522165Y51065968D01*
X23522167Y51065967D01*
X23522170Y51065965D01*
X23736337Y50966097D01*
X23964592Y50904937D01*
X24141034Y50889500D01*
X24199999Y50884341D01*
X24200000Y50884341D01*
X24200001Y50884341D01*
X24258966Y50889500D01*
X24435408Y50904937D01*
X24663663Y50966097D01*
X24877830Y51065965D01*
X25071401Y51201505D01*
X25238495Y51368599D01*
X25368425Y51554158D01*
X25423002Y51597783D01*
X25492500Y51604977D01*
X25554855Y51573454D01*
X25571575Y51554158D01*
X25701500Y51368605D01*
X25701505Y51368599D01*
X25868599Y51201505D01*
X25965384Y51133735D01*
X26062165Y51065968D01*
X26062167Y51065967D01*
X26062170Y51065965D01*
X26276337Y50966097D01*
X26504592Y50904937D01*
X26681034Y50889500D01*
X26739999Y50884341D01*
X26740000Y50884341D01*
X26740001Y50884341D01*
X26798966Y50889500D01*
X26975408Y50904937D01*
X27203663Y50966097D01*
X27417830Y51065965D01*
X27611401Y51201505D01*
X27778495Y51368599D01*
X27908425Y51554158D01*
X27963002Y51597783D01*
X28032500Y51604977D01*
X28094855Y51573454D01*
X28111575Y51554158D01*
X28241500Y51368605D01*
X28241505Y51368599D01*
X28408599Y51201505D01*
X28505384Y51133735D01*
X28602165Y51065968D01*
X28602167Y51065967D01*
X28602170Y51065965D01*
X28816337Y50966097D01*
X29044592Y50904937D01*
X29221034Y50889500D01*
X29279999Y50884341D01*
X29280000Y50884341D01*
X29280001Y50884341D01*
X29338966Y50889500D01*
X29515408Y50904937D01*
X29743663Y50966097D01*
X29957830Y51065965D01*
X30151401Y51201505D01*
X30318495Y51368599D01*
X30448425Y51554158D01*
X30503002Y51597783D01*
X30572500Y51604977D01*
X30634855Y51573454D01*
X30651575Y51554158D01*
X30781500Y51368605D01*
X30781505Y51368599D01*
X30948599Y51201505D01*
X31045384Y51133735D01*
X31142165Y51065968D01*
X31142167Y51065967D01*
X31142170Y51065965D01*
X31356337Y50966097D01*
X31584592Y50904937D01*
X31761034Y50889500D01*
X31819999Y50884341D01*
X31820000Y50884341D01*
X31820001Y50884341D01*
X31878966Y50889500D01*
X32055408Y50904937D01*
X32283663Y50966097D01*
X32497830Y51065965D01*
X32691401Y51201505D01*
X32858495Y51368599D01*
X32988425Y51554158D01*
X33043002Y51597783D01*
X33112500Y51604977D01*
X33174855Y51573454D01*
X33191575Y51554158D01*
X33321500Y51368605D01*
X33321505Y51368599D01*
X33488599Y51201505D01*
X33585384Y51133735D01*
X33682165Y51065968D01*
X33682167Y51065967D01*
X33682170Y51065965D01*
X33896337Y50966097D01*
X34124592Y50904937D01*
X34301034Y50889500D01*
X34359999Y50884341D01*
X34360000Y50884341D01*
X34360001Y50884341D01*
X34418966Y50889500D01*
X34595408Y50904937D01*
X34823663Y50966097D01*
X35037830Y51065965D01*
X35231401Y51201505D01*
X35398495Y51368599D01*
X35528425Y51554158D01*
X35583002Y51597783D01*
X35652500Y51604977D01*
X35714855Y51573454D01*
X35731575Y51554158D01*
X35861500Y51368605D01*
X35861505Y51368599D01*
X36028599Y51201505D01*
X36125384Y51133735D01*
X36222165Y51065968D01*
X36222167Y51065967D01*
X36222170Y51065965D01*
X36436337Y50966097D01*
X36664592Y50904937D01*
X36841034Y50889500D01*
X36899999Y50884341D01*
X36900000Y50884341D01*
X36900001Y50884341D01*
X36958966Y50889500D01*
X37135408Y50904937D01*
X37363663Y50966097D01*
X37577830Y51065965D01*
X37771401Y51201505D01*
X37938495Y51368599D01*
X38068425Y51554158D01*
X38123002Y51597783D01*
X38192500Y51604977D01*
X38254855Y51573454D01*
X38271575Y51554158D01*
X38401500Y51368605D01*
X38401505Y51368599D01*
X38568599Y51201505D01*
X38665384Y51133735D01*
X38762165Y51065968D01*
X38762167Y51065967D01*
X38762170Y51065965D01*
X38976337Y50966097D01*
X39204592Y50904937D01*
X39381034Y50889500D01*
X39439999Y50884341D01*
X39440000Y50884341D01*
X39440001Y50884341D01*
X39498966Y50889500D01*
X39675408Y50904937D01*
X39903663Y50966097D01*
X40117830Y51065965D01*
X40311401Y51201505D01*
X40478495Y51368599D01*
X40608425Y51554158D01*
X40663002Y51597783D01*
X40732500Y51604977D01*
X40794855Y51573454D01*
X40811575Y51554158D01*
X40941500Y51368605D01*
X40941505Y51368599D01*
X41108599Y51201505D01*
X41205384Y51133735D01*
X41302165Y51065968D01*
X41302167Y51065967D01*
X41302170Y51065965D01*
X41516337Y50966097D01*
X41744592Y50904937D01*
X41921034Y50889500D01*
X41979999Y50884341D01*
X41980000Y50884341D01*
X41980001Y50884341D01*
X42038966Y50889500D01*
X42215408Y50904937D01*
X42443663Y50966097D01*
X42657830Y51065965D01*
X42851401Y51201505D01*
X43018495Y51368599D01*
X43148425Y51554158D01*
X43203002Y51597783D01*
X43272500Y51604977D01*
X43334855Y51573454D01*
X43351575Y51554158D01*
X43481500Y51368605D01*
X43481505Y51368599D01*
X43648599Y51201505D01*
X43745384Y51133735D01*
X43842165Y51065968D01*
X43842167Y51065967D01*
X43842170Y51065965D01*
X44056337Y50966097D01*
X44284592Y50904937D01*
X44461034Y50889500D01*
X44519999Y50884341D01*
X44520000Y50884341D01*
X44520001Y50884341D01*
X44578966Y50889500D01*
X44755408Y50904937D01*
X44983663Y50966097D01*
X45197830Y51065965D01*
X45391401Y51201505D01*
X45558495Y51368599D01*
X45688425Y51554158D01*
X45743002Y51597783D01*
X45812500Y51604977D01*
X45874855Y51573454D01*
X45891575Y51554158D01*
X46021500Y51368605D01*
X46021505Y51368599D01*
X46188599Y51201505D01*
X46285384Y51133735D01*
X46382165Y51065968D01*
X46382167Y51065967D01*
X46382170Y51065965D01*
X46596337Y50966097D01*
X46824592Y50904937D01*
X47001034Y50889500D01*
X47059999Y50884341D01*
X47060000Y50884341D01*
X47060001Y50884341D01*
X47118966Y50889500D01*
X47295408Y50904937D01*
X47523663Y50966097D01*
X47737830Y51065965D01*
X47931401Y51201505D01*
X48053329Y51323434D01*
X48114648Y51356916D01*
X48184340Y51351932D01*
X48240274Y51310061D01*
X48257189Y51279083D01*
X48306202Y51147672D01*
X48306206Y51147665D01*
X48392452Y51032456D01*
X48392455Y51032453D01*
X48507664Y50946207D01*
X48507671Y50946203D01*
X48642517Y50895909D01*
X48642516Y50895909D01*
X48649444Y50895165D01*
X48702127Y50889500D01*
X50497872Y50889501D01*
X50557483Y50895909D01*
X50692331Y50946204D01*
X50807546Y51032454D01*
X50893796Y51147669D01*
X50944091Y51282517D01*
X50950500Y51342127D01*
X50950499Y53137872D01*
X50944091Y53197483D01*
X50942810Y53200917D01*
X50893797Y53332329D01*
X50893793Y53332336D01*
X50807547Y53447545D01*
X50807544Y53447548D01*
X50692335Y53533794D01*
X50692328Y53533798D01*
X50560917Y53582811D01*
X50504983Y53624682D01*
X50480566Y53690147D01*
X50495418Y53758420D01*
X50516563Y53786668D01*
X50638495Y53908599D01*
X50772516Y54100000D01*
X58994815Y54100000D01*
X59013503Y53922195D01*
X59013504Y53922193D01*
X59068747Y53752171D01*
X59068750Y53752165D01*
X59158141Y53597335D01*
X59171219Y53582811D01*
X59277764Y53464479D01*
X59277767Y53464477D01*
X59277770Y53464474D01*
X59422407Y53359388D01*
X59585733Y53286671D01*
X59760609Y53249500D01*
X59760610Y53249500D01*
X59939389Y53249500D01*
X59939391Y53249500D01*
X60114267Y53286671D01*
X60277593Y53359388D01*
X60422230Y53464474D01*
X60541859Y53597335D01*
X60589586Y53680000D01*
X78644815Y53680000D01*
X78663503Y53502195D01*
X78663504Y53502193D01*
X78718747Y53332171D01*
X78718750Y53332165D01*
X78808141Y53177335D01*
X78849812Y53131054D01*
X78927764Y53044479D01*
X78927767Y53044477D01*
X78927770Y53044474D01*
X79072407Y52939388D01*
X79235733Y52866671D01*
X79410609Y52829500D01*
X79410610Y52829500D01*
X79589389Y52829500D01*
X79589391Y52829500D01*
X79764267Y52866671D01*
X79927593Y52939388D01*
X80072230Y53044474D01*
X80191859Y53177335D01*
X80281250Y53332165D01*
X80336497Y53502197D01*
X80355185Y53680000D01*
X80336497Y53857803D01*
X80281250Y54027835D01*
X80191859Y54182665D01*
X80135044Y54245764D01*
X80072235Y54315522D01*
X80072232Y54315524D01*
X80072231Y54315525D01*
X80072230Y54315526D01*
X79927593Y54420612D01*
X79764267Y54493329D01*
X79764265Y54493330D01*
X79636594Y54520467D01*
X79589391Y54530500D01*
X79410609Y54530500D01*
X79394195Y54527011D01*
X79235733Y54493330D01*
X79235728Y54493328D01*
X79072408Y54420613D01*
X78927768Y54315525D01*
X78808140Y54182664D01*
X78718750Y54027836D01*
X78718747Y54027830D01*
X78663504Y53857808D01*
X78663503Y53857806D01*
X78644815Y53680000D01*
X60589586Y53680000D01*
X60631250Y53752165D01*
X60686497Y53922197D01*
X60705185Y54100000D01*
X60686497Y54277803D01*
X60649348Y54392135D01*
X60631252Y54447830D01*
X60631249Y54447836D01*
X60625466Y54457853D01*
X60541859Y54602665D01*
X60495003Y54654704D01*
X60422235Y54735522D01*
X60422232Y54735524D01*
X60422231Y54735525D01*
X60422230Y54735526D01*
X60277593Y54840612D01*
X60114267Y54913329D01*
X60114265Y54913330D01*
X59986594Y54940467D01*
X59939391Y54950500D01*
X59760609Y54950500D01*
X59729954Y54943985D01*
X59585733Y54913330D01*
X59585728Y54913328D01*
X59422408Y54840613D01*
X59277768Y54735525D01*
X59158140Y54602664D01*
X59068750Y54447836D01*
X59068747Y54447830D01*
X59013504Y54277808D01*
X59013503Y54277806D01*
X58994815Y54100000D01*
X50772516Y54100000D01*
X50774035Y54102170D01*
X50873903Y54316337D01*
X50935063Y54544592D01*
X50955659Y54780000D01*
X50935063Y55015408D01*
X50873903Y55243663D01*
X50774035Y55457829D01*
X50768425Y55465842D01*
X50638494Y55651403D01*
X50471402Y55818494D01*
X50471395Y55818499D01*
X50277834Y55954033D01*
X50277830Y55954035D01*
X50238886Y55972195D01*
X50063663Y56053903D01*
X50063659Y56053904D01*
X50063655Y56053906D01*
X49835413Y56115062D01*
X49835403Y56115064D01*
X49600001Y56135659D01*
X49599999Y56135659D01*
X49364596Y56115064D01*
X49364586Y56115062D01*
X49136344Y56053906D01*
X49136335Y56053902D01*
X48922171Y55954036D01*
X48922169Y55954035D01*
X48728597Y55818495D01*
X48561505Y55651403D01*
X48431575Y55465842D01*
X48376998Y55422217D01*
X48307500Y55415023D01*
X48245145Y55446546D01*
X48228425Y55465842D01*
X48098494Y55651403D01*
X47931402Y55818494D01*
X47931395Y55818499D01*
X47737834Y55954033D01*
X47737830Y55954035D01*
X47698886Y55972195D01*
X47523663Y56053903D01*
X47523659Y56053904D01*
X47523655Y56053906D01*
X47295413Y56115062D01*
X47295403Y56115064D01*
X47060001Y56135659D01*
X47059999Y56135659D01*
X46824596Y56115064D01*
X46824586Y56115062D01*
X46596344Y56053906D01*
X46596335Y56053902D01*
X46382171Y55954036D01*
X46382169Y55954035D01*
X46188597Y55818495D01*
X46021505Y55651403D01*
X45891575Y55465842D01*
X45836998Y55422217D01*
X45767500Y55415023D01*
X45705145Y55446546D01*
X45688425Y55465842D01*
X45558494Y55651403D01*
X45391402Y55818494D01*
X45391395Y55818499D01*
X45197834Y55954033D01*
X45197830Y55954035D01*
X45158886Y55972195D01*
X44983663Y56053903D01*
X44983659Y56053904D01*
X44983655Y56053906D01*
X44755413Y56115062D01*
X44755403Y56115064D01*
X44520001Y56135659D01*
X44519999Y56135659D01*
X44284596Y56115064D01*
X44284586Y56115062D01*
X44056344Y56053906D01*
X44056335Y56053902D01*
X43842171Y55954036D01*
X43842169Y55954035D01*
X43648597Y55818495D01*
X43481505Y55651403D01*
X43351575Y55465842D01*
X43296998Y55422217D01*
X43227500Y55415023D01*
X43165145Y55446546D01*
X43148425Y55465842D01*
X43018494Y55651403D01*
X42851402Y55818494D01*
X42851395Y55818499D01*
X42657834Y55954033D01*
X42657830Y55954035D01*
X42618886Y55972195D01*
X42443663Y56053903D01*
X42443659Y56053904D01*
X42443655Y56053906D01*
X42215413Y56115062D01*
X42215403Y56115064D01*
X41980001Y56135659D01*
X41979999Y56135659D01*
X41744596Y56115064D01*
X41744586Y56115062D01*
X41516344Y56053906D01*
X41516335Y56053902D01*
X41302171Y55954036D01*
X41302169Y55954035D01*
X41108597Y55818495D01*
X40941505Y55651403D01*
X40811575Y55465842D01*
X40756998Y55422217D01*
X40687500Y55415023D01*
X40625145Y55446546D01*
X40608425Y55465842D01*
X40478494Y55651403D01*
X40311402Y55818494D01*
X40311395Y55818499D01*
X40117834Y55954033D01*
X40117830Y55954035D01*
X40078886Y55972195D01*
X39903663Y56053903D01*
X39903659Y56053904D01*
X39903655Y56053906D01*
X39675413Y56115062D01*
X39675403Y56115064D01*
X39440001Y56135659D01*
X39439999Y56135659D01*
X39204596Y56115064D01*
X39204586Y56115062D01*
X38976344Y56053906D01*
X38976335Y56053902D01*
X38762171Y55954036D01*
X38762169Y55954035D01*
X38568597Y55818495D01*
X38401505Y55651403D01*
X38271575Y55465842D01*
X38216998Y55422217D01*
X38147500Y55415023D01*
X38085145Y55446546D01*
X38068425Y55465842D01*
X37938494Y55651403D01*
X37771402Y55818494D01*
X37771395Y55818499D01*
X37577834Y55954033D01*
X37577830Y55954035D01*
X37538886Y55972195D01*
X37363663Y56053903D01*
X37363659Y56053904D01*
X37363655Y56053906D01*
X37135413Y56115062D01*
X37135403Y56115064D01*
X36900001Y56135659D01*
X36899999Y56135659D01*
X36664596Y56115064D01*
X36664586Y56115062D01*
X36436344Y56053906D01*
X36436335Y56053902D01*
X36222171Y55954036D01*
X36222169Y55954035D01*
X36028597Y55818495D01*
X35861505Y55651403D01*
X35731575Y55465842D01*
X35676998Y55422217D01*
X35607500Y55415023D01*
X35545145Y55446546D01*
X35528425Y55465842D01*
X35398494Y55651403D01*
X35231402Y55818494D01*
X35231395Y55818499D01*
X35037834Y55954033D01*
X35037830Y55954035D01*
X34998886Y55972195D01*
X34823663Y56053903D01*
X34823659Y56053904D01*
X34823655Y56053906D01*
X34595413Y56115062D01*
X34595403Y56115064D01*
X34360001Y56135659D01*
X34359999Y56135659D01*
X34124596Y56115064D01*
X34124586Y56115062D01*
X33896344Y56053906D01*
X33896335Y56053902D01*
X33682171Y55954036D01*
X33682169Y55954035D01*
X33488597Y55818495D01*
X33321505Y55651403D01*
X33191575Y55465842D01*
X33136998Y55422217D01*
X33067500Y55415023D01*
X33005145Y55446546D01*
X32988425Y55465842D01*
X32858494Y55651403D01*
X32691402Y55818494D01*
X32691395Y55818499D01*
X32497834Y55954033D01*
X32497830Y55954035D01*
X32458886Y55972195D01*
X32283663Y56053903D01*
X32283659Y56053904D01*
X32283655Y56053906D01*
X32055413Y56115062D01*
X32055403Y56115064D01*
X31820001Y56135659D01*
X31819999Y56135659D01*
X31584596Y56115064D01*
X31584586Y56115062D01*
X31356344Y56053906D01*
X31356335Y56053902D01*
X31142171Y55954036D01*
X31142169Y55954035D01*
X30948597Y55818495D01*
X30781505Y55651403D01*
X30651575Y55465842D01*
X30596998Y55422217D01*
X30527500Y55415023D01*
X30465145Y55446546D01*
X30448425Y55465842D01*
X30318494Y55651403D01*
X30151402Y55818494D01*
X30151395Y55818499D01*
X29957834Y55954033D01*
X29957830Y55954035D01*
X29918886Y55972195D01*
X29743663Y56053903D01*
X29743659Y56053904D01*
X29743655Y56053906D01*
X29515413Y56115062D01*
X29515403Y56115064D01*
X29280001Y56135659D01*
X29279999Y56135659D01*
X29044596Y56115064D01*
X29044586Y56115062D01*
X28816344Y56053906D01*
X28816335Y56053902D01*
X28602171Y55954036D01*
X28602169Y55954035D01*
X28408597Y55818495D01*
X28241505Y55651403D01*
X28111575Y55465842D01*
X28056998Y55422217D01*
X27987500Y55415023D01*
X27925145Y55446546D01*
X27908425Y55465842D01*
X27778494Y55651403D01*
X27611402Y55818494D01*
X27611395Y55818499D01*
X27417834Y55954033D01*
X27417830Y55954035D01*
X27378886Y55972195D01*
X27203663Y56053903D01*
X27203659Y56053904D01*
X27203655Y56053906D01*
X26975413Y56115062D01*
X26975403Y56115064D01*
X26740001Y56135659D01*
X26739999Y56135659D01*
X26504596Y56115064D01*
X26504586Y56115062D01*
X26276344Y56053906D01*
X26276335Y56053902D01*
X26062171Y55954036D01*
X26062169Y55954035D01*
X25868597Y55818495D01*
X25701505Y55651403D01*
X25571575Y55465842D01*
X25516998Y55422217D01*
X25447500Y55415023D01*
X25385145Y55446546D01*
X25368425Y55465842D01*
X25238494Y55651403D01*
X25071402Y55818494D01*
X25071395Y55818499D01*
X24877834Y55954033D01*
X24877830Y55954035D01*
X24838886Y55972195D01*
X24663663Y56053903D01*
X24663659Y56053904D01*
X24663655Y56053906D01*
X24435413Y56115062D01*
X24435403Y56115064D01*
X24200001Y56135659D01*
X24199999Y56135659D01*
X23964596Y56115064D01*
X23964586Y56115062D01*
X23736344Y56053906D01*
X23736335Y56053902D01*
X23522171Y55954036D01*
X23522169Y55954035D01*
X23328597Y55818495D01*
X23161505Y55651403D01*
X23031575Y55465842D01*
X22976998Y55422217D01*
X22907500Y55415023D01*
X22845145Y55446546D01*
X22828425Y55465842D01*
X22698494Y55651403D01*
X22531402Y55818494D01*
X22531395Y55818499D01*
X22337834Y55954033D01*
X22337830Y55954035D01*
X22298886Y55972195D01*
X22123663Y56053903D01*
X22123659Y56053904D01*
X22123655Y56053906D01*
X21895413Y56115062D01*
X21895403Y56115064D01*
X21660001Y56135659D01*
X21659999Y56135659D01*
X21424596Y56115064D01*
X21424586Y56115062D01*
X21196344Y56053906D01*
X21196335Y56053902D01*
X20982171Y55954036D01*
X20982169Y55954035D01*
X20788597Y55818495D01*
X20621505Y55651403D01*
X20485965Y55457831D01*
X20485964Y55457829D01*
X20386098Y55243665D01*
X20386094Y55243656D01*
X20324938Y55015414D01*
X20324936Y55015404D01*
X20304341Y54780001D01*
X20304341Y54780000D01*
X20324936Y54544597D01*
X20324938Y54544587D01*
X20386094Y54316345D01*
X20386096Y54316341D01*
X20386097Y54316337D01*
X20448430Y54182664D01*
X20485965Y54102170D01*
X20485967Y54102166D01*
X20538014Y54027836D01*
X20621501Y53908604D01*
X20621506Y53908598D01*
X20788597Y53741507D01*
X20788603Y53741502D01*
X20974158Y53611575D01*
X21017783Y53556998D01*
X21024977Y53487500D01*
X20993454Y53425145D01*
X20974158Y53408425D01*
X20788597Y53278495D01*
X20621505Y53111403D01*
X20485965Y52917831D01*
X20485964Y52917829D01*
X20386098Y52703665D01*
X20386094Y52703656D01*
X20324938Y52475414D01*
X20324936Y52475404D01*
X20304341Y52240001D01*
X20304341Y52240000D01*
X1000000Y52240000D01*
X1000000Y56150000D01*
X58994815Y56150000D01*
X59013503Y55972195D01*
X59013504Y55972193D01*
X59068747Y55802171D01*
X59068750Y55802165D01*
X59158141Y55647335D01*
X59199812Y55601054D01*
X59277764Y55514479D01*
X59277767Y55514477D01*
X59277770Y55514474D01*
X59422407Y55409388D01*
X59585733Y55336671D01*
X59760609Y55299500D01*
X59760610Y55299500D01*
X59939389Y55299500D01*
X59939391Y55299500D01*
X60114267Y55336671D01*
X60277593Y55409388D01*
X60404314Y55501457D01*
X81579499Y55501457D01*
X81617947Y55308171D01*
X81617950Y55308161D01*
X81693364Y55126093D01*
X81693371Y55126080D01*
X81802860Y54962219D01*
X81802863Y54962215D01*
X81942214Y54822864D01*
X81942218Y54822861D01*
X82106079Y54713372D01*
X82106092Y54713365D01*
X82288160Y54637951D01*
X82288165Y54637949D01*
X82288169Y54637949D01*
X82288170Y54637948D01*
X82481456Y54599500D01*
X82481459Y54599500D01*
X82998667Y54599500D01*
X83065706Y54579815D01*
X83111461Y54527011D01*
X83121405Y54457853D01*
X83106053Y54413499D01*
X83093721Y54392141D01*
X83093720Y54392138D01*
X83093720Y54392137D01*
X83093719Y54392135D01*
X83054500Y54245766D01*
X83054500Y54094234D01*
X83072291Y54027836D01*
X83093719Y53947864D01*
X83116386Y53908605D01*
X83169485Y53816635D01*
X83276635Y53709485D01*
X83407865Y53633719D01*
X83554234Y53594500D01*
X83554236Y53594500D01*
X83705764Y53594500D01*
X83705766Y53594500D01*
X83852135Y53633719D01*
X83983365Y53709485D01*
X84090515Y53816635D01*
X84166281Y53947865D01*
X84205500Y54094234D01*
X84205500Y54245766D01*
X84166281Y54392135D01*
X84090515Y54523365D01*
X84090513Y54523367D01*
X84086451Y54530403D01*
X84088779Y54531748D01*
X84068355Y54584578D01*
X84082393Y54653023D01*
X84131206Y54703014D01*
X84144470Y54709457D01*
X84153914Y54713368D01*
X84317782Y54822861D01*
X84457139Y54962218D01*
X84566632Y55126086D01*
X84642051Y55308165D01*
X84669577Y55446546D01*
X84680500Y55501457D01*
X85909499Y55501457D01*
X85947947Y55308171D01*
X85947950Y55308161D01*
X86023364Y55126093D01*
X86023371Y55126080D01*
X86132860Y54962219D01*
X86132863Y54962215D01*
X86272214Y54822864D01*
X86272218Y54822861D01*
X86436079Y54713372D01*
X86436092Y54713365D01*
X86618160Y54637951D01*
X86618165Y54637949D01*
X86618169Y54637949D01*
X86618170Y54637948D01*
X86811456Y54599500D01*
X86811459Y54599500D01*
X87808543Y54599500D01*
X87964462Y54630515D01*
X88001835Y54637949D01*
X88183914Y54713368D01*
X88347782Y54822861D01*
X88487139Y54962218D01*
X88596632Y55126086D01*
X88672051Y55308165D01*
X88699577Y55446546D01*
X88710500Y55501457D01*
X88710500Y55698544D01*
X88672052Y55891830D01*
X88672051Y55891831D01*
X88672051Y55891835D01*
X88638764Y55972197D01*
X88596635Y56073908D01*
X88596628Y56073921D01*
X88487139Y56237782D01*
X88487136Y56237786D01*
X88347785Y56377137D01*
X88347781Y56377140D01*
X88183920Y56486629D01*
X88183907Y56486636D01*
X88001839Y56562050D01*
X88001829Y56562053D01*
X87808543Y56600500D01*
X87808541Y56600500D01*
X86811459Y56600500D01*
X86811457Y56600500D01*
X86618170Y56562053D01*
X86618160Y56562050D01*
X86436092Y56486636D01*
X86436079Y56486629D01*
X86272218Y56377140D01*
X86272214Y56377137D01*
X86132863Y56237786D01*
X86132860Y56237782D01*
X86023371Y56073921D01*
X86023364Y56073908D01*
X85947950Y55891840D01*
X85947947Y55891830D01*
X85909500Y55698544D01*
X85909500Y55698541D01*
X85909500Y55501459D01*
X85909500Y55501457D01*
X85909499Y55501457D01*
X84680500Y55501457D01*
X84680500Y55698544D01*
X84642052Y55891830D01*
X84642051Y55891831D01*
X84642051Y55891835D01*
X84608764Y55972197D01*
X84566635Y56073908D01*
X84566628Y56073921D01*
X84457139Y56237782D01*
X84457136Y56237786D01*
X84317785Y56377137D01*
X84317781Y56377140D01*
X84153920Y56486629D01*
X84153907Y56486636D01*
X83971839Y56562050D01*
X83971829Y56562053D01*
X83778543Y56600500D01*
X83778541Y56600500D01*
X82481459Y56600500D01*
X82481457Y56600500D01*
X82288170Y56562053D01*
X82288160Y56562050D01*
X82106092Y56486636D01*
X82106079Y56486629D01*
X81942218Y56377140D01*
X81942214Y56377137D01*
X81802863Y56237786D01*
X81802860Y56237782D01*
X81693371Y56073921D01*
X81693364Y56073908D01*
X81617950Y55891840D01*
X81617947Y55891830D01*
X81579500Y55698544D01*
X81579500Y55698541D01*
X81579500Y55501459D01*
X81579500Y55501457D01*
X81579499Y55501457D01*
X60404314Y55501457D01*
X60422230Y55514474D01*
X60541859Y55647335D01*
X60631250Y55802165D01*
X60686497Y55972197D01*
X60705185Y56150000D01*
X60686497Y56327803D01*
X60631250Y56497835D01*
X60541859Y56652665D01*
X60495003Y56704704D01*
X60422235Y56785522D01*
X60422232Y56785524D01*
X60422231Y56785525D01*
X60422230Y56785526D01*
X60277593Y56890612D01*
X60114267Y56963329D01*
X60114265Y56963330D01*
X59986594Y56990467D01*
X59939391Y57000500D01*
X59760609Y57000500D01*
X59729954Y56993985D01*
X59585733Y56963330D01*
X59585728Y56963328D01*
X59422408Y56890613D01*
X59277768Y56785525D01*
X59158140Y56652664D01*
X59068750Y56497836D01*
X59068747Y56497830D01*
X59013504Y56327808D01*
X59013503Y56327806D01*
X58994815Y56150000D01*
X1000000Y56150000D01*
X1000000Y58010000D01*
X79767315Y58010000D01*
X79786003Y57832195D01*
X79786004Y57832193D01*
X79841247Y57662171D01*
X79841250Y57662165D01*
X79930641Y57507335D01*
X79972312Y57461054D01*
X80050264Y57374479D01*
X80050267Y57374477D01*
X80050270Y57374474D01*
X80194907Y57269388D01*
X80358233Y57196671D01*
X80533109Y57159500D01*
X80533110Y57159500D01*
X80711889Y57159500D01*
X80711891Y57159500D01*
X80886767Y57196671D01*
X81050093Y57269388D01*
X81194730Y57374474D01*
X81314359Y57507335D01*
X81403750Y57662165D01*
X81458997Y57832197D01*
X81477685Y58010000D01*
X81458997Y58187803D01*
X81403750Y58357835D01*
X81314359Y58512665D01*
X81267503Y58564704D01*
X81194735Y58645522D01*
X81194732Y58645524D01*
X81194731Y58645525D01*
X81194730Y58645526D01*
X81050093Y58750612D01*
X80886767Y58823329D01*
X80886765Y58823330D01*
X80759094Y58850467D01*
X80711891Y58860500D01*
X80533109Y58860500D01*
X80502454Y58853985D01*
X80358233Y58823330D01*
X80358228Y58823328D01*
X80194908Y58750613D01*
X80050268Y58645525D01*
X79930640Y58512664D01*
X79841250Y58357836D01*
X79841247Y58357830D01*
X79786004Y58187808D01*
X79786003Y58187806D01*
X79767315Y58010000D01*
X1000000Y58010000D01*
X1000000Y64000000D01*
X2294922Y64000000D01*
X2315219Y63612713D01*
X2375886Y63229677D01*
X2375887Y63229670D01*
X2476262Y62855064D01*
X2615244Y62493006D01*
X2791310Y62147457D01*
X3002531Y61822207D01*
X3211095Y61564650D01*
X3211096Y61564650D01*
X4705748Y63059302D01*
X4779588Y62957670D01*
X4957670Y62779588D01*
X5059300Y62705749D01*
X3564648Y61211097D01*
X3564649Y61211096D01*
X3822206Y61002532D01*
X4147456Y60791311D01*
X4493005Y60615245D01*
X4855063Y60476263D01*
X5229669Y60375888D01*
X5229676Y60375887D01*
X5612712Y60315220D01*
X5999999Y60294922D01*
X6000001Y60294922D01*
X6387287Y60315220D01*
X6770323Y60375887D01*
X6770330Y60375888D01*
X7144936Y60476263D01*
X7506994Y60615245D01*
X7852543Y60791311D01*
X8177783Y61002524D01*
X8177785Y61002525D01*
X8435349Y61211098D01*
X8296447Y61350000D01*
X62014815Y61350000D01*
X62033503Y61172195D01*
X62033504Y61172193D01*
X62088747Y61002171D01*
X62088750Y61002165D01*
X62178141Y60847335D01*
X62219812Y60801054D01*
X62297764Y60714479D01*
X62297767Y60714477D01*
X62297770Y60714474D01*
X62442407Y60609388D01*
X62605733Y60536671D01*
X62780609Y60499500D01*
X62780610Y60499500D01*
X62959389Y60499500D01*
X62959391Y60499500D01*
X63134267Y60536671D01*
X63297593Y60609388D01*
X63442230Y60714474D01*
X63561859Y60847335D01*
X63651250Y61002165D01*
X63706497Y61172197D01*
X63725185Y61350000D01*
X63706497Y61527803D01*
X63651250Y61697835D01*
X63561859Y61852665D01*
X63515003Y61904704D01*
X63442235Y61985522D01*
X63442232Y61985524D01*
X63442231Y61985525D01*
X63442230Y61985526D01*
X63297593Y62090612D01*
X63134267Y62163329D01*
X63134265Y62163330D01*
X63006594Y62190467D01*
X62959391Y62200500D01*
X62780609Y62200500D01*
X62749954Y62193985D01*
X62605733Y62163330D01*
X62605728Y62163328D01*
X62442408Y62090613D01*
X62297768Y61985525D01*
X62178140Y61852664D01*
X62088750Y61697836D01*
X62088747Y61697830D01*
X62033504Y61527808D01*
X62033503Y61527806D01*
X62014815Y61350000D01*
X8296447Y61350000D01*
X6940698Y62705749D01*
X7042330Y62779588D01*
X7220412Y62957670D01*
X7294251Y63059302D01*
X8788902Y61564651D01*
X8997475Y61822215D01*
X8997476Y61822217D01*
X9208689Y62147457D01*
X9384755Y62493006D01*
X9521793Y62850000D01*
X15544341Y62850000D01*
X15564936Y62614597D01*
X15564938Y62614587D01*
X15626094Y62386345D01*
X15626096Y62386341D01*
X15626097Y62386337D01*
X15725965Y62172170D01*
X15725967Y62172166D01*
X15783073Y62090611D01*
X15861505Y61978599D01*
X16028599Y61811505D01*
X16125384Y61743735D01*
X16222165Y61675968D01*
X16222167Y61675967D01*
X16222170Y61675965D01*
X16436337Y61576097D01*
X16436343Y61576096D01*
X16436344Y61576095D01*
X16479058Y61564650D01*
X16664592Y61514937D01*
X16852918Y61498461D01*
X16899999Y61494341D01*
X16900000Y61494341D01*
X16900001Y61494341D01*
X16939234Y61497774D01*
X17135408Y61514937D01*
X17363663Y61576097D01*
X17577830Y61675965D01*
X17771401Y61811505D01*
X17938495Y61978599D01*
X18074035Y62172170D01*
X18173903Y62386337D01*
X18235063Y62614592D01*
X18255659Y62850000D01*
X23834341Y62850000D01*
X23854936Y62614597D01*
X23854938Y62614587D01*
X23916094Y62386345D01*
X23916096Y62386341D01*
X23916097Y62386337D01*
X24015965Y62172170D01*
X24015967Y62172166D01*
X24073073Y62090611D01*
X24151505Y61978599D01*
X24318599Y61811505D01*
X24415384Y61743735D01*
X24512165Y61675968D01*
X24512167Y61675967D01*
X24512170Y61675965D01*
X24726337Y61576097D01*
X24726343Y61576096D01*
X24726344Y61576095D01*
X24769058Y61564650D01*
X24954592Y61514937D01*
X25142918Y61498461D01*
X25189999Y61494341D01*
X25190000Y61494341D01*
X25190001Y61494341D01*
X25229234Y61497774D01*
X25425408Y61514937D01*
X25653663Y61576097D01*
X25867830Y61675965D01*
X26061401Y61811505D01*
X26228495Y61978599D01*
X26364035Y62172170D01*
X26463903Y62386337D01*
X26525063Y62614592D01*
X26545659Y62850000D01*
X26525063Y63085408D01*
X26463903Y63313663D01*
X26364035Y63527829D01*
X26250482Y63690000D01*
X48334815Y63690000D01*
X48353503Y63512195D01*
X48353504Y63512193D01*
X48408747Y63342171D01*
X48408750Y63342165D01*
X48498141Y63187335D01*
X48521478Y63161417D01*
X48617764Y63054479D01*
X48617767Y63054477D01*
X48617770Y63054474D01*
X48762407Y62949388D01*
X48925733Y62876671D01*
X49100609Y62839500D01*
X49100610Y62839500D01*
X49279389Y62839500D01*
X49279391Y62839500D01*
X49454267Y62876671D01*
X49617593Y62949388D01*
X49762230Y63054474D01*
X49881859Y63187335D01*
X49971250Y63342165D01*
X50026497Y63512197D01*
X50045185Y63690000D01*
X50026497Y63867803D01*
X50019285Y63890000D01*
X52344815Y63890000D01*
X52363503Y63712195D01*
X52363504Y63712193D01*
X52418747Y63542171D01*
X52418750Y63542165D01*
X52508141Y63387335D01*
X52548807Y63342171D01*
X52627764Y63254479D01*
X52627767Y63254477D01*
X52627770Y63254474D01*
X52772407Y63149388D01*
X52935733Y63076671D01*
X53110609Y63039500D01*
X53110610Y63039500D01*
X53289389Y63039500D01*
X53289391Y63039500D01*
X53464267Y63076671D01*
X53627593Y63149388D01*
X53772230Y63254474D01*
X53891859Y63387335D01*
X53981250Y63542165D01*
X54036497Y63712197D01*
X54055185Y63890000D01*
X54036497Y64067803D01*
X53999245Y64182453D01*
X53981252Y64237830D01*
X53981249Y64237836D01*
X53946707Y64297665D01*
X53891859Y64392665D01*
X53836502Y64454145D01*
X53772235Y64525522D01*
X53772232Y64525524D01*
X53772231Y64525525D01*
X53772230Y64525526D01*
X53627593Y64630612D01*
X53464267Y64703329D01*
X53464265Y64703330D01*
X53336594Y64730467D01*
X53289391Y64740500D01*
X53110609Y64740500D01*
X53079954Y64733985D01*
X52935733Y64703330D01*
X52935728Y64703328D01*
X52772408Y64630613D01*
X52627768Y64525525D01*
X52508140Y64392664D01*
X52418750Y64237836D01*
X52418747Y64237830D01*
X52363504Y64067808D01*
X52363503Y64067806D01*
X52344815Y63890000D01*
X50019285Y63890000D01*
X49991881Y63974341D01*
X49971252Y64037830D01*
X49971249Y64037836D01*
X49881859Y64192665D01*
X49835003Y64244704D01*
X49762235Y64325522D01*
X49762232Y64325524D01*
X49762231Y64325525D01*
X49762230Y64325526D01*
X49617593Y64430612D01*
X49454267Y64503329D01*
X49454265Y64503330D01*
X49326594Y64530467D01*
X49279391Y64540500D01*
X49100609Y64540500D01*
X49069954Y64533985D01*
X48925733Y64503330D01*
X48925728Y64503328D01*
X48762408Y64430613D01*
X48617768Y64325525D01*
X48498140Y64192664D01*
X48408750Y64037836D01*
X48408747Y64037830D01*
X48353504Y63867808D01*
X48353503Y63867806D01*
X48334815Y63690000D01*
X26250482Y63690000D01*
X26248601Y63692686D01*
X26228496Y63721400D01*
X26228495Y63721401D01*
X26106567Y63843329D01*
X26073084Y63904649D01*
X26078068Y63974341D01*
X26119939Y64030275D01*
X26150915Y64047190D01*
X26282331Y64096204D01*
X26397546Y64182454D01*
X26483796Y64297669D01*
X26534091Y64432517D01*
X26540500Y64492127D01*
X26540500Y65159999D01*
X67494390Y65159999D01*
X67514804Y64874567D01*
X67575628Y64594963D01*
X67575630Y64594957D01*
X67575631Y64594954D01*
X67653087Y64387288D01*
X67675635Y64326834D01*
X67812770Y64075691D01*
X67812775Y64075683D01*
X67984254Y63846613D01*
X67984270Y63846595D01*
X68186594Y63644271D01*
X68186612Y63644255D01*
X68415682Y63472776D01*
X68415690Y63472771D01*
X68666833Y63335636D01*
X68666832Y63335636D01*
X68666836Y63335635D01*
X68666839Y63335633D01*
X68934954Y63235631D01*
X68934960Y63235630D01*
X68934962Y63235629D01*
X69214566Y63174805D01*
X69214568Y63174805D01*
X69214572Y63174804D01*
X69468220Y63156663D01*
X69499999Y63154390D01*
X69500000Y63154390D01*
X69500001Y63154390D01*
X69528595Y63156436D01*
X69785428Y63174804D01*
X69843033Y63187335D01*
X70065037Y63235629D01*
X70065037Y63235630D01*
X70065046Y63235631D01*
X70333161Y63335633D01*
X70584315Y63472774D01*
X70813395Y63644261D01*
X71015739Y63846605D01*
X71130569Y64000000D01*
X80294922Y64000000D01*
X80315219Y63612713D01*
X80375886Y63229677D01*
X80375887Y63229670D01*
X80476262Y62855064D01*
X80615244Y62493006D01*
X80791310Y62147457D01*
X81002531Y61822207D01*
X81211095Y61564650D01*
X81211096Y61564650D01*
X82705748Y63059302D01*
X82779588Y62957670D01*
X82957670Y62779588D01*
X83059300Y62705749D01*
X81564648Y61211097D01*
X81564649Y61211096D01*
X81822206Y61002532D01*
X82147456Y60791311D01*
X82493005Y60615245D01*
X82855063Y60476263D01*
X83229669Y60375888D01*
X83229676Y60375887D01*
X83612712Y60315220D01*
X83999999Y60294922D01*
X84000001Y60294922D01*
X84387287Y60315220D01*
X84770323Y60375887D01*
X84770330Y60375888D01*
X85144936Y60476263D01*
X85506994Y60615245D01*
X85852543Y60791311D01*
X86177783Y61002524D01*
X86177785Y61002525D01*
X86435349Y61211098D01*
X84940698Y62705749D01*
X85042330Y62779588D01*
X85220412Y62957670D01*
X85294251Y63059302D01*
X86788902Y61564651D01*
X86997475Y61822215D01*
X86997476Y61822217D01*
X87208689Y62147457D01*
X87384755Y62493006D01*
X87523737Y62855064D01*
X87624112Y63229670D01*
X87624113Y63229677D01*
X87684780Y63612713D01*
X87705078Y64000000D01*
X87705078Y64000001D01*
X87684780Y64387288D01*
X87624113Y64770324D01*
X87624112Y64770331D01*
X87523737Y65144937D01*
X87384755Y65506995D01*
X87208689Y65852544D01*
X86997468Y66177794D01*
X86788904Y66435351D01*
X86788903Y66435352D01*
X85294251Y64940700D01*
X85220412Y65042330D01*
X85042330Y65220412D01*
X84940698Y65294252D01*
X86435350Y66788904D01*
X86435350Y66788905D01*
X86177793Y66997469D01*
X85852543Y67208690D01*
X85506994Y67384756D01*
X85144936Y67523738D01*
X84770330Y67624113D01*
X84770323Y67624114D01*
X84387287Y67684781D01*
X84000001Y67705078D01*
X83999999Y67705078D01*
X83612712Y67684781D01*
X83229676Y67624114D01*
X83229669Y67624113D01*
X82855063Y67523738D01*
X82493005Y67384756D01*
X82147456Y67208690D01*
X81822206Y66997469D01*
X81564648Y66788905D01*
X81564648Y66788904D01*
X83059301Y65294252D01*
X82957670Y65220412D01*
X82779588Y65042330D01*
X82705748Y64940700D01*
X81211096Y66435352D01*
X81211095Y66435352D01*
X81002531Y66177794D01*
X80791310Y65852544D01*
X80615244Y65506995D01*
X80476262Y65144937D01*
X80375887Y64770331D01*
X80375886Y64770324D01*
X80315219Y64387288D01*
X80294922Y64000001D01*
X80294922Y64000000D01*
X71130569Y64000000D01*
X71187226Y64075685D01*
X71324367Y64326839D01*
X71424369Y64594954D01*
X71447944Y64703328D01*
X71485195Y64874567D01*
X71485195Y64874568D01*
X71485196Y64874572D01*
X71505610Y65160000D01*
X71485196Y65445428D01*
X71460381Y65559500D01*
X71424371Y65725038D01*
X71424370Y65725040D01*
X71424369Y65725046D01*
X71324367Y65993161D01*
X71223549Y66177794D01*
X71187229Y66244310D01*
X71187224Y66244318D01*
X71015745Y66473388D01*
X71015729Y66473406D01*
X70813405Y66675730D01*
X70813387Y66675746D01*
X70584317Y66847225D01*
X70584309Y66847230D01*
X70333166Y66984365D01*
X70333167Y66984365D01*
X70225915Y67024368D01*
X70065046Y67084369D01*
X70065043Y67084370D01*
X70065037Y67084372D01*
X69785433Y67145196D01*
X69500001Y67165610D01*
X69499999Y67165610D01*
X69214566Y67145196D01*
X68934962Y67084372D01*
X68666833Y66984365D01*
X68415690Y66847230D01*
X68415682Y66847225D01*
X68186612Y66675746D01*
X68186594Y66675730D01*
X67984270Y66473406D01*
X67984254Y66473388D01*
X67812775Y66244318D01*
X67812770Y66244310D01*
X67675635Y65993167D01*
X67575628Y65725038D01*
X67514804Y65445434D01*
X67494390Y65160002D01*
X67494390Y65159999D01*
X26540500Y65159999D01*
X26540499Y66287872D01*
X26534091Y66347483D01*
X26511001Y66409390D01*
X26483797Y66482329D01*
X26483793Y66482336D01*
X26397547Y66597545D01*
X26397544Y66597548D01*
X26282335Y66683794D01*
X26282328Y66683798D01*
X26147482Y66734092D01*
X26147483Y66734092D01*
X26087883Y66740499D01*
X26087881Y66740500D01*
X26087873Y66740500D01*
X26087864Y66740500D01*
X24292129Y66740500D01*
X24292123Y66740499D01*
X24232516Y66734092D01*
X24097671Y66683798D01*
X24097664Y66683794D01*
X23982455Y66597548D01*
X23982452Y66597545D01*
X23896206Y66482336D01*
X23896202Y66482329D01*
X23845908Y66347483D01*
X23841786Y66309139D01*
X23839501Y66287877D01*
X23839500Y66287865D01*
X23839500Y64492130D01*
X23839501Y64492124D01*
X23845908Y64432517D01*
X23896202Y64297672D01*
X23896206Y64297665D01*
X23982452Y64182456D01*
X23982455Y64182453D01*
X24097664Y64096207D01*
X24097671Y64096203D01*
X24229081Y64047190D01*
X24285015Y64005319D01*
X24309432Y63939855D01*
X24294580Y63871582D01*
X24273430Y63843327D01*
X24151503Y63721400D01*
X24015965Y63527831D01*
X24015964Y63527829D01*
X23916098Y63313665D01*
X23916094Y63313656D01*
X23854938Y63085414D01*
X23854936Y63085404D01*
X23834341Y62850001D01*
X23834341Y62850000D01*
X18255659Y62850000D01*
X18235063Y63085408D01*
X18173903Y63313663D01*
X18074035Y63527829D01*
X17958601Y63692686D01*
X17938496Y63721400D01*
X17938495Y63721401D01*
X17816567Y63843329D01*
X17783084Y63904649D01*
X17788068Y63974341D01*
X17829939Y64030275D01*
X17860915Y64047190D01*
X17992331Y64096204D01*
X18107546Y64182454D01*
X18193796Y64297669D01*
X18244091Y64432517D01*
X18250500Y64492127D01*
X18250499Y66287872D01*
X18244091Y66347483D01*
X18221001Y66409390D01*
X18220773Y66410000D01*
X19764815Y66410000D01*
X19783503Y66232195D01*
X19783504Y66232193D01*
X19838747Y66062171D01*
X19838750Y66062165D01*
X19928141Y65907335D01*
X19969812Y65861054D01*
X20047764Y65774479D01*
X20047767Y65774477D01*
X20047770Y65774474D01*
X20192407Y65669388D01*
X20355733Y65596671D01*
X20530609Y65559500D01*
X20530610Y65559500D01*
X20709389Y65559500D01*
X20709391Y65559500D01*
X20884267Y65596671D01*
X21047593Y65669388D01*
X21192230Y65774474D01*
X21202325Y65785685D01*
X21218148Y65803259D01*
X21311859Y65907335D01*
X21401250Y66062165D01*
X21456497Y66232197D01*
X21475185Y66410000D01*
X21456497Y66587803D01*
X21427922Y66675746D01*
X21401252Y66757830D01*
X21401249Y66757836D01*
X21311859Y66912665D01*
X21235501Y66997469D01*
X21192235Y67045522D01*
X21192232Y67045524D01*
X21192231Y67045525D01*
X21192230Y67045526D01*
X21048435Y67150000D01*
X48844815Y67150000D01*
X48863503Y66972195D01*
X48863504Y66972193D01*
X48918747Y66802171D01*
X48918750Y66802165D01*
X49008141Y66647335D01*
X49043733Y66607806D01*
X49127764Y66514479D01*
X49127767Y66514477D01*
X49127770Y66514474D01*
X49272407Y66409388D01*
X49435733Y66336671D01*
X49610609Y66299500D01*
X49610610Y66299500D01*
X49789389Y66299500D01*
X49789391Y66299500D01*
X49964267Y66336671D01*
X50127593Y66409388D01*
X50155963Y66430000D01*
X51344815Y66430000D01*
X51363503Y66252195D01*
X51363504Y66252193D01*
X51418747Y66082171D01*
X51418750Y66082165D01*
X51508141Y65927335D01*
X51549812Y65881054D01*
X51627764Y65794479D01*
X51627767Y65794477D01*
X51627770Y65794474D01*
X51772407Y65689388D01*
X51935733Y65616671D01*
X52110609Y65579500D01*
X52110610Y65579500D01*
X52289389Y65579500D01*
X52289391Y65579500D01*
X52464267Y65616671D01*
X52627593Y65689388D01*
X52772230Y65794474D01*
X52891859Y65927335D01*
X52981250Y66082165D01*
X53036497Y66252197D01*
X53055185Y66430000D01*
X53036497Y66607803D01*
X53008873Y66692819D01*
X52981252Y66777830D01*
X52981249Y66777836D01*
X52974859Y66788904D01*
X52891859Y66932665D01*
X52820314Y67012124D01*
X52772235Y67065522D01*
X52772232Y67065524D01*
X52772231Y67065525D01*
X52772230Y67065526D01*
X52627593Y67170612D01*
X52464267Y67243329D01*
X52464265Y67243330D01*
X52336594Y67270467D01*
X52289391Y67280500D01*
X52110609Y67280500D01*
X52079954Y67273985D01*
X51935733Y67243330D01*
X51935728Y67243328D01*
X51772408Y67170613D01*
X51627768Y67065525D01*
X51508140Y66932664D01*
X51418750Y66777836D01*
X51418747Y66777830D01*
X51363504Y66607808D01*
X51363503Y66607806D01*
X51344815Y66430000D01*
X50155963Y66430000D01*
X50272230Y66514474D01*
X50391859Y66647335D01*
X50481250Y66802165D01*
X50536497Y66972197D01*
X50555185Y67150000D01*
X50536497Y67327803D01*
X50481250Y67497835D01*
X50391859Y67652665D01*
X50349238Y67700000D01*
X64494815Y67700000D01*
X64513503Y67522195D01*
X64513504Y67522193D01*
X64568747Y67352171D01*
X64568750Y67352165D01*
X64658141Y67197335D01*
X64699812Y67151054D01*
X64777764Y67064479D01*
X64777767Y67064477D01*
X64777770Y67064474D01*
X64922407Y66959388D01*
X65085733Y66886671D01*
X65260609Y66849500D01*
X65260610Y66849500D01*
X65439389Y66849500D01*
X65439391Y66849500D01*
X65614267Y66886671D01*
X65777593Y66959388D01*
X65922230Y67064474D01*
X65923176Y67065524D01*
X65948148Y67093259D01*
X66041859Y67197335D01*
X66131250Y67352165D01*
X66186497Y67522197D01*
X66205185Y67700000D01*
X66186497Y67877803D01*
X66146630Y68000500D01*
X66131252Y68047830D01*
X66131249Y68047836D01*
X66041859Y68202665D01*
X65995003Y68254704D01*
X65922235Y68335522D01*
X65922232Y68335524D01*
X65922231Y68335525D01*
X65922230Y68335526D01*
X65777593Y68440612D01*
X65614267Y68513329D01*
X65614265Y68513330D01*
X65486594Y68540467D01*
X65439391Y68550500D01*
X65260609Y68550500D01*
X65229954Y68543985D01*
X65085733Y68513330D01*
X65085728Y68513328D01*
X64922408Y68440613D01*
X64777768Y68335525D01*
X64658140Y68202664D01*
X64568750Y68047836D01*
X64568747Y68047830D01*
X64513504Y67877808D01*
X64513503Y67877806D01*
X64494815Y67700000D01*
X50349238Y67700000D01*
X50344666Y67705078D01*
X50272235Y67785522D01*
X50272232Y67785524D01*
X50272231Y67785525D01*
X50272230Y67785526D01*
X50127593Y67890612D01*
X49964267Y67963329D01*
X49964265Y67963330D01*
X49836594Y67990467D01*
X49789391Y68000500D01*
X49610609Y68000500D01*
X49579954Y67993985D01*
X49435733Y67963330D01*
X49435728Y67963328D01*
X49272408Y67890613D01*
X49127768Y67785525D01*
X49008140Y67652664D01*
X48918750Y67497836D01*
X48918747Y67497830D01*
X48863504Y67327808D01*
X48863503Y67327806D01*
X48844815Y67150000D01*
X21048435Y67150000D01*
X21047593Y67150612D01*
X20884267Y67223329D01*
X20884265Y67223330D01*
X20756594Y67250467D01*
X20709391Y67260500D01*
X20530609Y67260500D01*
X20499954Y67253985D01*
X20355733Y67223330D01*
X20355728Y67223328D01*
X20192408Y67150613D01*
X20047768Y67045525D01*
X19928140Y66912664D01*
X19838750Y66757836D01*
X19838747Y66757830D01*
X19783504Y66587808D01*
X19783503Y66587806D01*
X19764815Y66410000D01*
X18220773Y66410000D01*
X18193797Y66482329D01*
X18193793Y66482336D01*
X18107547Y66597545D01*
X18107544Y66597548D01*
X17992335Y66683794D01*
X17992328Y66683798D01*
X17857482Y66734092D01*
X17857483Y66734092D01*
X17797883Y66740499D01*
X17797881Y66740500D01*
X17797873Y66740500D01*
X17797864Y66740500D01*
X16002129Y66740500D01*
X16002123Y66740499D01*
X15942516Y66734092D01*
X15807671Y66683798D01*
X15807664Y66683794D01*
X15692455Y66597548D01*
X15692452Y66597545D01*
X15606206Y66482336D01*
X15606202Y66482329D01*
X15555908Y66347483D01*
X15551786Y66309139D01*
X15549501Y66287877D01*
X15549500Y66287865D01*
X15549500Y64492130D01*
X15549501Y64492124D01*
X15555908Y64432517D01*
X15606202Y64297672D01*
X15606206Y64297665D01*
X15692452Y64182456D01*
X15692455Y64182453D01*
X15807664Y64096207D01*
X15807671Y64096203D01*
X15939081Y64047190D01*
X15995015Y64005319D01*
X16019432Y63939855D01*
X16004580Y63871582D01*
X15983430Y63843327D01*
X15861503Y63721400D01*
X15725965Y63527831D01*
X15725964Y63527829D01*
X15626098Y63313665D01*
X15626094Y63313656D01*
X15564938Y63085414D01*
X15564936Y63085404D01*
X15544341Y62850001D01*
X15544341Y62850000D01*
X9521793Y62850000D01*
X9523737Y62855064D01*
X9624112Y63229670D01*
X9624113Y63229677D01*
X9684780Y63612713D01*
X9705078Y64000000D01*
X9705078Y64000001D01*
X9684780Y64387288D01*
X9624113Y64770324D01*
X9624112Y64770331D01*
X9523737Y65144937D01*
X9384755Y65506995D01*
X9208689Y65852544D01*
X8997468Y66177794D01*
X8809433Y66410000D01*
X11524815Y66410000D01*
X11543503Y66232195D01*
X11543504Y66232193D01*
X11598747Y66062171D01*
X11598750Y66062165D01*
X11688141Y65907335D01*
X11729812Y65861054D01*
X11807764Y65774479D01*
X11807767Y65774477D01*
X11807770Y65774474D01*
X11952407Y65669388D01*
X12115733Y65596671D01*
X12290609Y65559500D01*
X12290610Y65559500D01*
X12469389Y65559500D01*
X12469391Y65559500D01*
X12644267Y65596671D01*
X12807593Y65669388D01*
X12952230Y65774474D01*
X12962325Y65785685D01*
X12978148Y65803259D01*
X13071859Y65907335D01*
X13161250Y66062165D01*
X13216497Y66232197D01*
X13235185Y66410000D01*
X13216497Y66587803D01*
X13187922Y66675746D01*
X13161252Y66757830D01*
X13161249Y66757836D01*
X13071859Y66912665D01*
X12995501Y66997469D01*
X12952235Y67045522D01*
X12952232Y67045524D01*
X12952231Y67045525D01*
X12952230Y67045526D01*
X12807593Y67150612D01*
X12644267Y67223329D01*
X12644265Y67223330D01*
X12516594Y67250467D01*
X12469391Y67260500D01*
X12290609Y67260500D01*
X12259954Y67253985D01*
X12115733Y67223330D01*
X12115728Y67223328D01*
X11952408Y67150613D01*
X11807768Y67045525D01*
X11688140Y66912664D01*
X11598750Y66757836D01*
X11598747Y66757830D01*
X11543504Y66587808D01*
X11543503Y66587806D01*
X11524815Y66410000D01*
X8809433Y66410000D01*
X8788904Y66435351D01*
X8788903Y66435352D01*
X7294251Y64940700D01*
X7220412Y65042330D01*
X7042330Y65220412D01*
X6940698Y65294252D01*
X8435350Y66788904D01*
X8435350Y66788905D01*
X8177793Y66997469D01*
X7852543Y67208690D01*
X7506994Y67384756D01*
X7144936Y67523738D01*
X6770330Y67624113D01*
X6770323Y67624114D01*
X6387287Y67684781D01*
X6000001Y67705078D01*
X5999999Y67705078D01*
X5612712Y67684781D01*
X5229676Y67624114D01*
X5229669Y67624113D01*
X4855063Y67523738D01*
X4493005Y67384756D01*
X4147456Y67208690D01*
X3822206Y66997469D01*
X3564648Y66788905D01*
X3564648Y66788904D01*
X5059301Y65294252D01*
X4957670Y65220412D01*
X4779588Y65042330D01*
X4705748Y64940700D01*
X3211096Y66435352D01*
X3211095Y66435352D01*
X3002531Y66177794D01*
X2791310Y65852544D01*
X2615244Y65506995D01*
X2476262Y65144937D01*
X2375887Y64770331D01*
X2375886Y64770324D01*
X2315219Y64387288D01*
X2294922Y64000001D01*
X2294922Y64000000D01*
X1000000Y64000000D01*
X1000000Y66254679D01*
X1012599Y66309139D01*
X1161088Y66612880D01*
X1165949Y66621864D01*
X1393389Y67003555D01*
X1398982Y67012115D01*
X1657153Y67373706D01*
X1663422Y67381760D01*
X1950581Y67720809D01*
X1957500Y67728325D01*
X2271675Y68042500D01*
X2279191Y68049419D01*
X2618240Y68336578D01*
X2626294Y68342847D01*
X2987885Y68601018D01*
X2996445Y68606611D01*
X3378136Y68834051D01*
X3387120Y68838912D01*
X3690861Y68987402D01*
X3745321Y69000000D01*
X86254679Y69000000D01*
X86309138Y68987402D01*
G37*
%TD.AperFunction*%
%TD*%
M02*
