M48
; DRILL file {KiCad 8.0.1} date 2024-03-16T09:17:41+0100
; FORMAT={-:-/ absolute / metric / decimal}
; #@! TF.CreationDate,2024-03-16T09:17:41+01:00
; #@! TF.GenerationSoftware,Kicad,Pcbnew,8.0.1
; #@! TF.FileFunction,MixedPlating,1,4
FMAT,2
METRIC
; #@! TA.AperFunction,Plated,PTH,ViaDrill
T1C0.300
; #@! TA.AperFunction,Plated,PTH,ComponentDrill
T2C0.500
; #@! TA.AperFunction,Plated,PTH,ComponentDrill
T3C0.600
; #@! TA.AperFunction,Plated,PTH,ComponentDrill
T4C1.000
; #@! TA.AperFunction,Plated,PTH,ComponentDrill
T5C2.000
; #@! TA.AperFunction,Plated,PTH,ComponentDrill
T6C3.200
; #@! TA.AperFunction,NonPlated,NPTH,ComponentDrill
T7C0.650
%
G90
G05
T1
X12.38Y66.41
X13.56Y60.78
X13.82Y27.35
X14.19Y22.79
X14.37Y34.97
X17.31Y49.03
X20.62Y66.41
X20.83Y63.87
X22.005Y17.01
X22.39Y25.7
X22.39Y23.77
X22.39Y22.81
X23.07Y38.514
X23.39Y32.73
X23.39Y31.77
X23.49Y27.63
X23.516Y26.614
X23.97Y38.54
X24.955Y17.04
X26.12Y43.71
X27.35Y18.775
X27.67Y25.0
X27.67Y23.5
X27.73Y32.17
X27.81Y29.22
X27.98Y39.08
X28.084Y38.186
X28.087Y44.73
X28.099Y37.286
X28.266Y29.996
X28.272Y27.757
X28.38Y22.33
X28.55Y34.845
X28.587Y40.2
X28.72Y32.57
X28.809Y30.714
X28.993Y27.0
X29.04Y33.87
X29.18Y25.31
X29.325Y17.81
X29.587Y22.13
X29.9Y28.6
X31.253Y40.425
X31.34Y66.25
X31.35Y43.7
X32.15Y40.35
X33.05Y40.35
X34.087Y40.36
X34.36Y44.73
X34.587Y22.13
X34.86Y17.72
X35.32Y44.73
X35.587Y40.36
X35.82Y17.72
X36.087Y22.13
X39.087Y40.36
X39.36Y44.73
X39.587Y22.13
X39.86Y17.72
X40.32Y44.73
X40.59Y40.36
X40.82Y17.72
X41.087Y22.13
X44.587Y22.13
X45.0Y34.0
X45.0Y32.5
X45.95Y28.5
X45.95Y27.0
X46.77Y19.5
X47.22Y16.68
X47.73Y19.4
X48.8Y41.9
X49.18Y65.08
X49.19Y63.69
X49.7Y67.15
X49.7Y41.9
X50.46Y33.73
X50.46Y32.77
X50.46Y28.23
X50.46Y27.27
X50.7Y42.1
X51.44Y3.16
X52.2Y66.43
X53.2Y63.89
X59.85Y56.15
X59.85Y54.1
X62.87Y61.35
X65.35Y67.7
X65.35Y66.43
X70.41Y58.01
X73.6Y39.6
X77.3Y56.2
X79.5Y53.68
X80.623Y58.01
X80.8Y54.53
X80.8Y48.03
X82.7Y29.9
X82.7Y28.8
X82.8Y27.375
X84.432Y26.0
X84.8Y41.9
X86.1Y27.375
X86.2Y41.9
X86.2Y29.9
X86.2Y28.8
X87.6Y41.9
T2
X3.6Y64.0
X3.6Y6.0
X4.303Y65.697
X4.303Y62.303
X4.303Y7.697
X4.303Y4.303
X6.0Y66.4
X6.0Y61.6
X6.0Y8.4
X6.0Y3.6
X7.697Y65.697
X7.697Y62.303
X7.697Y7.697
X7.697Y4.303
X8.4Y64.0
X8.4Y6.0
X81.6Y64.0
X81.6Y6.0
X82.303Y65.697
X82.303Y62.303
X82.303Y7.697
X82.303Y4.303
X84.0Y66.4
X84.0Y61.6
X84.0Y8.4
X84.0Y3.6
X85.697Y65.697
X85.697Y62.303
X85.697Y7.697
X85.697Y4.303
X86.4Y64.0
X86.4Y6.0
T4
X5.96Y49.41
X5.96Y46.87
X5.96Y44.33
X5.96Y41.79
X5.96Y39.25
X5.96Y36.71
X5.96Y34.17
X5.96Y31.63
X5.96Y29.09
X5.96Y26.55
X5.96Y24.01
X5.96Y21.47
X5.96Y18.93
X8.5Y49.41
X8.5Y46.87
X8.5Y44.33
X8.5Y41.79
X8.5Y39.25
X8.5Y36.71
X8.5Y34.17
X8.5Y31.63
X8.5Y29.09
X8.5Y26.55
X8.5Y24.01
X8.5Y21.47
X8.5Y18.93
X16.9Y65.39
X16.9Y62.85
X17.12Y9.6
X17.12Y7.06
X19.66Y9.6
X19.66Y7.06
X21.66Y54.78
X21.66Y52.24
X22.2Y9.6
X22.2Y7.06
X24.2Y54.78
X24.2Y52.24
X24.74Y9.6
X24.74Y7.06
X25.19Y65.39
X25.19Y62.85
X26.74Y54.78
X26.74Y52.24
X27.28Y9.6
X27.28Y7.06
X29.28Y54.78
X29.28Y52.24
X29.82Y9.6
X29.82Y7.06
X31.82Y54.78
X31.82Y52.24
X32.36Y9.6
X32.36Y7.06
X34.36Y54.78
X34.36Y52.24
X34.9Y9.6
X34.9Y7.06
X36.9Y54.78
X36.9Y52.24
X37.44Y9.6
X37.44Y7.06
X39.44Y54.78
X39.44Y52.24
X39.98Y9.6
X39.98Y7.06
X41.98Y54.78
X41.98Y52.24
X42.52Y9.6
X42.52Y7.06
X44.52Y54.78
X44.52Y52.24
X45.06Y9.6
X45.06Y7.06
X47.06Y54.78
X47.06Y52.24
X47.6Y9.6
X47.6Y7.06
X49.6Y54.78
X49.6Y52.24
X50.14Y9.6
X50.14Y7.06
X63.76Y38.31
X63.76Y35.77
X63.76Y33.23
X63.76Y30.69
X63.76Y28.15
X63.76Y25.61
X63.76Y23.07
X63.76Y20.53
X63.76Y17.99
X63.76Y15.45
X63.76Y12.91
X63.76Y10.37
X63.76Y7.83
X66.3Y38.31
X66.3Y35.77
X66.3Y33.23
X66.3Y30.69
X66.3Y28.15
X66.3Y25.61
X66.3Y23.07
X66.3Y20.53
X66.3Y17.99
X66.3Y15.45
X66.3Y12.91
X66.3Y10.37
X66.3Y7.83
X75.0Y23.0
X75.0Y20.46
X75.0Y17.92
X75.0Y15.38
X75.0Y12.84
X75.05Y47.945
X75.05Y45.405
X77.59Y47.945
X77.59Y45.405
X84.0Y23.0
X84.0Y20.46
X84.0Y17.92
X84.0Y15.38
X84.0Y12.84
T5
X69.5Y65.16
T6
X6.0Y64.0
X6.0Y6.0
X84.0Y64.0
X84.0Y6.0
T7
X83.63Y54.17
X83.63Y48.39
T3
G00X82.58Y55.6
M15
G01X83.68Y55.6
M16
G05
G00X82.58Y46.96
M15
G01X83.68Y46.96
M16
G05
G00X86.91Y55.6
M15
G01X87.71Y55.6
M16
G05
G00X86.91Y46.96
M15
G01X87.71Y46.96
M16
G05
M30
